<svg xmlns="http://www.w3.org/2000/svg" viewBox="0 0 512 512" style="height: 64px; width: 64px;"><defs><radialGradient id="delapouite-amphora-gradient-1"><stop offset="0%" stop-color="#c9c9c9" stop-opacity="1"></stop><stop offset="100%" stop-color="#ffffff" stop-opacity="1"></stop></radialGradient><radialGradient id="delapouite-amphora-gradient-2"><stop offset="0%" stop-color="#b57204" stop-opacity="1"></stop><stop offset="100%" stop-color="#c5a87b" stop-opacity="1"></stop></radialGradient><radialGradient id="delapouite-amphora-gradient-3"><stop offset="0%" stop-color="#8b572a" stop-opacity="1"></stop><stop offset="100%" stop-color="#ffe0af" stop-opacity="1"></stop></radialGradient><radialGradient id="delapouite-amphora-gradient-4"><stop offset="0%" stop-color="#8b572a" stop-opacity="1"></stop><stop offset="100%" stop-color="#ffe0af" stop-opacity="1"></stop></radialGradient><radialGradient id="delapouite-amphora-gradient-5"><stop offset="0%" stop-color="#c9c9c9" stop-opacity="1"></stop><stop offset="100%" stop-color="#ffffff" stop-opacity="1"></stop></radialGradient><radialGradient id="delapouite-amphora-gradient-6"><stop offset="0%" stop-color="#c9c9c9" stop-opacity="1"></stop><stop offset="100%" stop-color="#ffffff" stop-opacity="1"></stop></radialGradient><radialGradient id="delapouite-amphora-gradient-7"><stop offset="0%" stop-color="#c9c9c9" stop-opacity="1"></stop><stop offset="100%" stop-color="#ffffff" stop-opacity="1"></stop></radialGradient><radialGradient id="delapouite-amphora-gradient-8"><stop offset="0%" stop-color="#407505" stop-opacity="1"></stop><stop offset="100%" stop-color="#1d3802" stop-opacity="1"></stop></radialGradient><radialGradient id="delapouite-amphora-gradient-9"><stop offset="0%" stop-color="#8b572a" stop-opacity="1"></stop><stop offset="100%" stop-color="#b57204" stop-opacity="1"></stop></radialGradient><radialGradient id="delapouite-amphora-gradient-10"><stop offset="0%" stop-color="#48baff" stop-opacity="1"></stop><stop offset="100%" stop-color="#c9c9c9" stop-opacity="1"></stop></radialGradient></defs><g class="" transform="translate(0,0)" style=""><g><path d="M255.406 19.063C247.334 19.063 228.938 19.025 210.406 22.063C191.874 25.1 174.009 31.743 166.562 41.469C163.322 45.699 163.484 57.492 167.062 63.279C167.71 64.327 174.382 68.892 180.937 71.374C187.493 73.856 193.407 75.218 193.407 75.218L200.407 76.811L200.407 84C200.407 88.93 198.621 92.804 197.219 95.625C195.815 98.445 194.696 100.513 194.029 102.719C192.699 107.129 192.089 113.209 199.469 127.969L202.779 134.593L195.279 140.999C173.429 163.664 154.929 193.513 143.811 223.155C132.273 253.923 128.981 284.285 135.936 305.155C143.272 327.165 158.442 346.395 172.499 364.468C186.556 382.538 200.405 399.5 200.405 419.998C200.405 430.998 193.749 438.373 189.749 442.373C185.749 446.373 184.405 446.998 184.405 451.998C184.405 453.998 190.075 465.722 202.625 474.686C215.173 483.649 233.405 490.998 255.405 490.998C277.405 490.998 295.605 483.648 308.155 474.685C320.705 465.722 326.405 454 326.405 451.998C326.405 446.998 325.03 446.373 321.03 442.373C317.03 438.373 310.407 431 310.407 420C310.407 399.5 324.225 382.542 338.282 364.47C352.34 346.396 367.542 327.16 374.877 305.156C381.833 284.286 378.509 253.924 366.971 223.156C355.431 192.388 335.973 161.316 313.031 138.376L308.439 133.781L311.345 127.971C318.808 113.043 318.117 108.568 316.875 104.845C315.635 101.121 310.407 95.002 310.407 84.001L310.407 76.813L317.407 75.22C317.407 75.22 323.32 73.857 329.877 71.375C336.432 68.893 343.107 64.325 343.751 63.281C347.331 57.489 347.491 45.701 344.251 41.471C336.803 31.741 318.908 25.101 300.376 22.064C281.844 19.026 263.476 19.064 255.406 19.064Z" class="selected" fill="url(#delapouite-amphora-gradient-2)" stroke="#4a4a4a" stroke-opacity="1" stroke-width="8"></path><path d="M137.75 79.656C132.967 79.666 128.263 81.019 123.687 84C85.754 108.713 112.879 182.99 125.313 221.406C125.851 219.881 126.397 218.368 126.969 216.844C130.669 206.974 135.084 197.138 140.124 187.531C128.531 158.577 108.908 116.166 133.218 100.001C144.444 92.533 163.532 106.054 176.778 117.751C175.24 111.031 175.142 105.323 176.028 100.563C162.935 88.398 150.042 79.63 137.748 79.657Z" class="" fill="url(#delapouite-amphora-gradient-3)" stroke="#4a4a4a" stroke-opacity="1" stroke-width="8"></path><path d="M371.906 79.656C359.791 79.629 347.086 88.14 334.186 100.031C335.476 104.451 335.686 109.855 334.344 116.438C347.504 105.072 365.622 92.808 376.438 100.001C400.408 115.941 381.643 157.398 370 186.314C375.31 196.31 379.953 206.554 383.813 216.844C384.177 217.817 384.523 218.779 384.875 219.751C397.525 180.896 423.368 108.366 385.969 84.001C381.393 81.021 376.689 79.668 371.905 79.657Z" class="" fill="url(#delapouite-amphora-gradient-4)" stroke="#4a4a4a" stroke-opacity="1" stroke-width="8"></path></g></g></svg>