<svg xmlns="http://www.w3.org/2000/svg" viewBox="0 0 512 512" style="height: 64px; width: 64px;"><defs><radialGradient id="gradient-11"><stop offset="0%" stop-color="#fc88fc" stop-opacity="1"></stop><stop offset="100%" stop-color="#c85dc8" stop-opacity="1"></stop></radialGradient></defs><g class="" transform="translate(0,0)" style="touch-action: none;"><g><path d="M73.09 23.21L74.29 23.21C81.19 23.52 87.09 27.95 91.49 33.1C96.89 39.45 100.9 47.92 103.2 57.69C105.6 67.46 105.9 76.82 104 84.91C103.5 87.08 102.8 89.26 101.9 91.33C107.1 91.57 112.2 93.92 116.5 96.93C123.2 101.8 129.2 109 133.9 117.9C138.6 126.8 141.2 135.8 141.5 144.1C141.6 149.9 140.5 156 137 160.7C143.6 159 150.5 161.1 156.1 164.5C163.3 168.7 169.8 175.4 175.3 183.9C180.7 192.3 184.1 201.1 185 209.3C185.3 212.3 185.3 215.4 184.8 218.4C189.8 217.6 195.1 218.7 199.8 220.5C207.4 223.6 214.9 229.2 221.6 236.8C228.2 244.3 232.9 252.4 235 260.5C236.1 264.5 236.6 268.9 235.9 273.1C241.5 269.9 248.4 268.3 256 268.3C263.7 268.3 270.5 269.9 276.2 273.1C275.5 269 275.9 264.6 277 260.5C279.2 252.4 283.8 244.3 290.5 236.7C297.1 229.1 304.6 223.6 312.4 220.4C317 218.5 322.3 217.5 327.3 218.3C326.8 215.3 326.8 212.2 327.1 209.3C328 201 331.3 192.3 336.8 183.8C342.3 175.3 348.8 168.7 356 164.4C361.6 161.1 368.4 158.9 374.8 160.6C371.5 155.9 370.4 149.8 370.5 144C370.7 135.7 373.3 126.7 378 117.9C382.7 108.9 388.7 101.8 395.5 96.96C399.7 93.87 404.8 91.5 410.1 91.26C409.2 89.22 408.5 87.08 408 84.94C406.2 76.87 406.4 67.51 408.8 57.74C411.1 47.98 415.1 39.52 420.5 33.17C425.8 26.81 433.7 21.58 442.7 23.75C451.7 25.92 456.3 34.14 458.1 42.23C460 50.32 459.7 59.69 457.4 69.46C455 79.23 451 87.7 445.7 94.02C441.2 99.31 435.2 103.8 428.1 104C429.3 107.5 429.8 111.4 429.6 115.1C429.5 123.4 426.9 132.3 422.2 141.3C417.5 150.1 411.5 157.3 404.8 162.1C399 166.3 391.8 169.1 384.7 167.3C388.4 172.4 389.2 179.1 388.6 185.4C387.6 193.7 384.3 202.4 378.8 210.9C373.4 219.4 366.8 226 359.7 230.3C354.5 233.3 348.3 235.4 342.4 234.4C342.9 238.3 342.4 242.3 341.4 246.1C339.2 254.1 334.6 262.2 327.9 269.8C321.3 277.4 313.8 282.9 306 286.1C301 288.1 295.2 289.2 289.8 288C290.9 290.1 291.8 292.3 292.5 294.5C293.2 296.6 293.8 298.7 294.3 300.8C287.9 301.5 282.1 302.9 276.8 305C276.4 303.3 276 301.6 275.5 300.1C273.8 295.3 271.7 292 269 289.9C266.2 287.8 262.5 286.3 256 286.3C249.5 286.3 245.8 287.8 243 289.9C240.3 292 238.2 295.3 236.5 300.1C236 301.6 235.6 303.3 235.2 305C229.9 302.9 224.1 301.5 217.7 300.8C218.2 298.7 218.8 296.6 219.5 294.5C220.2 292.3 221.1 290.1 222.1 288.1C216.8 289.2 211 288.1 206 286.1C198.3 283 190.8 277.4 184.1 269.9C177.5 262.3 172.8 254.2 170.7 246.2C169.7 242.4 169.2 238.3 169.7 234.5C163.7 235.5 157.5 233.4 152.4 230.3C145.2 226.1 138.7 219.4 133.2 210.9C127.8 202.5 124.4 193.7 123.5 185.5C122.8 179.2 123.6 172.5 127.3 167.3C120.2 169.2 113 166.3 107.2 162.3C100.4 157.4 94.49 150.2 89.69 141.3C84.99 132.4 82.39 123.5 82.19 115.1C82.19 111.4 82.59 107.5 83.89 103.9C76.79 103.7 70.69 99.24 66.29 94.03C60.99 87.67 56.99 79.2 54.59 69.43C52.29 59.66 51.99 50.3 53.79 42.21C55.79 34.1 60.29 25.89 69.29 23.72C70.59 23.41 71.79 23.25 73.09 23.21Z" class="" fill="#9b9b9b" fill-opacity="1"></path><path d="M71.29 46.3C70.39 50.8 70.29 57.84 72.09 65.25C73.89 72.65 77.09 78.9 80.09 82.46C82.49 85.31 83.99 85.77 84.19 85.71C84.49 85.61 85.59 84.54 86.49 80.92C87.39 76.41 87.49 69.38 85.69 61.97C83.89 54.56 80.69 48.32 77.79 44.75C75.29 41.91 73.79 41.44 73.49 41.5C73.29 41.6 72.19 42.67 71.29 46.3Z" class="" fill="#ffffff" fill-opacity="1"></path><path d="M434.3 44.75C431.3 48.3 428.1 54.55 426.3 61.96C424.5 69.37 424.5 76.4 425.6 80.92C426.4 84.46 427.5 85.6 427.8 85.67C428.1 85.77 429.6 85.22 431.9 82.44C434.9 78.9 438.1 72.64 439.9 65.24C441.7 57.83 441.7 50.8 440.6 46.28C439.8 42.73 438.7 41.59 438.4 41.52C438.1 41.42 436.6 41.97 434.3 44.75Z" class="" fill="#ffffff" fill-opacity="1"></path><path d="M405.9 111.5C402.1 114.2 397.5 119.5 393.9 126.2C390.4 132.9 388.6 139.7 388.5 144.4C388.4 148 389.2 149.4 389.5 149.5C389.7 149.7 391.3 149.5 394.3 147.4C398.1 144.7 402.7 139.5 406.3 132.7C409.8 126 411.6 119.2 411.7 114.6C411.8 111.1 411 109.6 410.8 109.4C410.5 109.3 408.9 109.4 405.9 111.5Z" class="" fill="#ffffff" fill-opacity="1"></path><path d="M100.2 114.6C100.4 119.2 102.1 126.1 105.6 132.8C109.2 139.5 113.9 144.8 117.6 147.5C120.6 149.7 122.2 149.8 122.6 149.8C122.7 149.6 123.5 148.3 123.5 144.4C123.3 139.8 121.6 133 118 126.2C114.5 119.5 109.8 114.3 106 111.5C102.9 109.3 101.4 109.3 101.1 109.4C100.9 109.5 100.1 110.9 100.2 114.6Z" class="" fill="#ffffff" fill-opacity="1"></path><path d="M365.2 179.8C361.1 182.2 356.1 187 351.9 193.4C347.8 199.8 345.5 206.5 345 211.1C344.6 214.7 345.3 216.1 345.6 216.3C345.8 216.5 347.4 216.5 350.5 214.6C354.5 212.3 359.6 207.4 363.7 201C367.8 194.6 370.1 188 370.6 183.3C371.1 179.7 370.4 178.3 370.2 178.1C369.9 177.9 368.3 178 365.2 179.8Z" class="" fill="#ffffff" fill-opacity="1"></path><path d="M141.8 178C141.6 178.4 141 179.8 141.4 183.4C142 188 144.2 194.7 148.4 201.1C152.5 207.5 157.6 212.3 161.5 214.7C164.9 216.7 166.5 216.5 166.7 216.4C166.8 216.3 167.5 214.8 167.1 211.2C166.5 206.6 164.3 199.9 160.1 193.5C156 187.1 150.9 182.3 146.9 179.9C143.5 177.9 142 178.1 141.8 178Z" class="" fill="#ffffff" fill-opacity="1"></path><path d="M319.1 237.1C314.7 238.8 309 242.8 304 248.5C298.9 254.2 295.7 260.4 294.4 264.9C293.5 268.5 293.9 270 294.2 270.2C294.4 270.4 296 270.6 299.3 269.3C303.7 267.5 309.4 263.5 314.4 257.8C319.5 252.1 322.7 245.9 324 241.4C324.9 237.9 324.5 236.3 324.3 236.1C324 235.9 322.4 235.7 319.1 237.1Z" class="" fill="#ffffff" fill-opacity="1"></path><path d="M188.1 241.5C189.3 245.9 192.6 252.1 197.6 257.9C202.7 263.6 208.4 267.6 212.7 269.4C216.2 270.8 217.7 270.5 217.9 270.3C218.1 270.1 218.6 268.7 217.6 265C216.4 260.5 213.1 254.3 208.1 248.6C203.1 242.9 197.3 238.9 193 237.1C189.5 235.7 188 236 187.8 236.2C187.6 236.4 187.2 238 188.1 241.5Z" class="" fill="#ffffff" fill-opacity="1"></path><path d="M304 318.3C317 318.3 335.8 324.2 342.5 334.3C349.2 344.4 353 358.8 353 373.3C353 393.3 328.8 415.9 309.3 437.2C292.2 456.1 271.9 473.6 256 488.8C240.1 473.6 219.8 456.1 202.7 437.2C183.2 415.9 159 393.3 159 373.3C159 358.8 162.8 344.4 169.5 334.3C176.2 324.2 195 318.3 208 318.3C222.5 318.3 229.6 321.1 237.6 327.7C247.4 335.7 255 360.8 256 360.8C257 360.8 264.6 335.7 274.4 327.7C282.4 321.1 289.5 318.3 304 318.3Z" class="selected" fill="url(#gradient-11)" stroke="#4a4a4a" stroke-opacity="1" stroke-width="10"></path></g></g></svg>