<svg xmlns="http://www.w3.org/2000/svg" viewBox="0 0 512 512" style="height: 64px; width: 64px;"><defs><radialGradient id="gradient-8"><stop offset="0%" stop-color="#046307" stop-opacity="1"></stop><stop offset="100%" stop-color="#138616" stop-opacity="1"></stop></radialGradient><radialGradient id="gradient-9"><stop offset="0%" stop-color="#046307" stop-opacity="1"></stop><stop offset="100%" stop-color="#149218" stop-opacity="1"></stop></radialGradient><radialGradient id="gradient-10"><stop offset="0%" stop-color="#046307" stop-opacity="1"></stop><stop offset="100%" stop-color="#17971b" stop-opacity="1"></stop></radialGradient><radialGradient id="gradient-11"><stop offset="0%" stop-color="#046307" stop-opacity="1"></stop><stop offset="100%" stop-color="#138c17" stop-opacity="1"></stop></radialGradient><radialGradient id="gradient-12"><stop offset="0%" stop-color="#046307" stop-opacity="1"></stop><stop offset="100%" stop-color="#18851c" stop-opacity="1"></stop></radialGradient><radialGradient id="gradient-13"><stop offset="0%" stop-color="#046307" stop-opacity="1"></stop><stop offset="100%" stop-color="#198f1d" stop-opacity="1"></stop></radialGradient><radialGradient id="gradient-14"><stop offset="0%" stop-color="#046307" stop-opacity="1"></stop><stop offset="100%" stop-color="#149218" stop-opacity="1"></stop></radialGradient><radialGradient id="gradient-15"><stop offset="0%" stop-color="#046307" stop-opacity="1"></stop><stop offset="100%" stop-color="#178a1a" stop-opacity="1"></stop></radialGradient></defs><g class="" transform="translate(0,0)" style="touch-action: none;"><g><path d="M29.018 18.875C26.388 29.172 29.065 40.595 37.062 48.595C47.097 58.629 62.522 60.291 74.352 53.595C80.266 58.941 86.038 63.968 91.709 68.715C91.371 70.533 91.187 72.402 91.187 74.312C91.187 91.336 105.195 105.312 122.217 105.312C127.134 105.312 131.793 104.142 135.937 102.072C141.692 105.982 147.499 109.787 153.419 113.552C152.945 115.694 152.687 117.912 152.687 120.187C152.687 137.211 166.695 151.187 183.717 151.187C191.294 151.187 198.267 148.415 203.681 143.842L217.554 151.967C217.291 153.502 217.14 155.08 217.14 156.699L217.14 195.603L114.07 255.27L114.07 415.334L252.354 495.387L390.637 415.334L390.637 255.27L286.59 195.037L286.59 156.7C286.59 155.717 286.523 154.754 286.418 153.803C291.811 150.733 297.073 147.723 302.115 144.809C307.341 148.801 313.851 151.186 320.877 151.186C337.9 151.186 351.877 137.21 351.877 120.186C351.877 118.319 351.701 116.491 351.379 114.71C357.426 110.723 363.391 106.652 369.357 102.412C373.327 104.267 377.737 105.312 382.377 105.312C399.4 105.312 413.407 91.336 413.407 74.312C413.407 72.339 413.213 70.409 412.854 68.532C418.127 64.082 423.551 59.392 429.172 54.416C440.772 60.13 455.307 58.194 464.908 48.594C472.906 40.596 475.583 29.174 472.953 18.874L452.54 18.874C456.558 23.762 456.276 30.79 451.69 35.374C446.803 40.262 439.14 40.264 434.253 35.374C429.668 30.789 429.386 23.76 433.403 18.874L412.989 18.874C411.074 26.374 411.989 34.466 415.709 41.402C411.589 45.038 407.586 48.507 403.675 51.836C398.1 46.548 390.592 43.281 382.378 43.281C365.354 43.281 351.348 57.291 351.348 74.313C351.348 79.763 352.786 84.896 355.296 89.363C351.051 92.321 346.796 95.203 342.499 98.036C336.899 92.556 329.259 89.156 320.879 89.156C303.854 89.156 289.847 103.166 289.847 120.188C289.847 123.354 290.331 126.413 291.23 129.298C287 131.743 282.486 134.326 277.983 136.903C276.955 135.909 275.871 134.993 274.737 134.187C268.045 129.419 260.017 127.305 252.023 127.173C244.027 127.041 235.873 128.891 229.053 133.677C228.246 134.242 227.467 134.863 226.716 135.527C222.349 132.954 217.952 130.363 213.769 127.905C214.411 125.435 214.753 122.849 214.753 120.189C214.753 103.165 200.746 89.157 183.723 89.157C175.746 89.157 168.433 92.232 162.911 97.251C158.441 94.413 154.017 91.561 149.663 88.655C151.93 84.358 153.223 79.477 153.223 74.315C153.223 57.29 139.246 43.282 122.223 43.282C113.963 43.282 106.419 46.586 100.835 51.924C96.32 48.097 91.735 44.091 87.045 39.857C90.108 33.282 90.76 25.827 88.985 18.877L68.568 18.877C72.586 23.764 72.304 30.792 67.718 35.377C62.831 40.264 55.168 40.265 50.281 35.377C45.697 30.791 45.416 23.762 49.433 18.877L29.018 18.877Z" class="" fill="#9b9b9b" fill-opacity="1" stroke="#4a4a4a" stroke-opacity="1" stroke-width="5"></path><path d="M122.218 61.969C129.142 61.969 134.531 67.389 134.531 74.312C134.531 81.235 129.144 86.624 122.221 86.624C115.295 86.624 109.876 81.234 109.876 74.311C109.876 67.388 115.296 61.968 122.22 61.968Z" class="" fill="#ffffff" fill-opacity="1" stroke="#4a4a4a" stroke-opacity="1" stroke-width="5"></path><path d="M382.375 61.969C389.299 61.969 394.719 67.389 394.719 74.312C394.719 81.235 389.299 86.624 382.374 86.624C375.45 86.624 370.03 81.234 370.03 74.311C370.03 67.388 375.45 61.968 382.375 61.968Z" class="" fill="#ffffff" fill-opacity="1" stroke="#4a4a4a" stroke-opacity="1" stroke-width="5"></path><path d="M183.72 107.843C190.642 107.843 196.063 113.263 196.063 120.187C196.063 127.11 190.643 132.499 183.719 132.499C176.793 132.499 171.374 127.109 171.374 120.186C171.374 113.263 176.794 107.843 183.718 107.843Z" class="" fill="#ffffff" fill-opacity="1" stroke="#4a4a4a" stroke-opacity="1" stroke-width="5"></path><path d="M320.875 107.843C327.799 107.843 333.188 113.263 333.188 120.187C333.188 127.11 327.798 132.499 320.875 132.499C313.951 132.499 308.531 127.109 308.531 120.186C308.531 113.263 313.951 107.843 320.876 107.843Z" class="" fill="#ffffff" fill-opacity="1" stroke="#4a4a4a" stroke-opacity="1" stroke-width="5"></path><path d="M251.711 145.856C256.406 145.934 261.066 147.392 263.891 149.406C266.717 151.418 267.901 153.211 267.901 156.698L267.901 184.218L252.355 175.218L235.829 184.783L235.829 156.7C235.829 152.61 237.087 150.865 239.782 148.975C242.478 147.085 247.019 145.78 251.712 145.857Z" class="" fill="#ffffff" fill-opacity="1" stroke="#4a4a4a" stroke-opacity="1" stroke-width="5"></path><path d="M243.589 201.886L243.589 234.614L169.407 277.824L140.849 261.362L243.589 201.886Z" class="selected" fill="url(#gradient-8)"></path><path d="M262.276 202.556L364.436 261.694L335.812 278.196L262.279 235.366L262.277 202.556Z" class="" fill="url(#gradient-9)"></path><path d="M252.288 251.176L324.544 293.261L324.542 377.577L252.289 419.663L180.033 377.577L180.036 293.263L252.29 251.175Z" class="" fill="url(#gradient-10)"></path><path d="M252.753 269.506L195.87 367.656L195.87 368.38L252.436 401.357L309 368.38L309 302.295L252.752 269.505Z" class="" fill="url(#gradient-11)"></path><path d="M132.759 278.27L161.345 294.75L161.345 378.777L132.759 395.257L132.759 278.272Z" class="" fill="url(#gradient-12)"></path><path d="M371.949 278.938L371.946 394.586L343.231 378.033L343.231 295.493L371.948 278.938Z" class="" fill="url(#gradient-13)"></path><path d="M333.493 393.99L361.907 410.37L262.277 468.047L262.277 435.473L333.493 393.99Z" class="" fill="url(#gradient-14)"></path><path d="M171.723 394.365L243.587 436.225L243.587 468.719L143.377 410.706L171.722 394.364Z" class="" fill="url(#gradient-15)"></path></g></g></svg>