<?xml version="1.0" encoding="UTF-8" standalone="no"?>
<svg
   xmlns:dc="http://purl.org/dc/elements/1.1/"
   xmlns:cc="http://creativecommons.org/ns#"
   xmlns:rdf="http://www.w3.org/1999/02/22-rdf-syntax-ns#"
   xmlns:svg="http://www.w3.org/2000/svg"
   xmlns="http://www.w3.org/2000/svg"
   xmlns:sodipodi="http://sodipodi.sourceforge.net/DTD/sodipodi-0.dtd"
   xmlns:inkscape="http://www.inkscape.org/namespaces/inkscape"
   viewBox="0 0 512 512"
   style="height: 64px; width: 64px;"
   version="1.1"
   id="svg24"
   sodipodi:docname="ancien-tableau-aigle.svg"
   inkscape:version="0.92.3 (2405546, 2018-03-11)">
  <metadata
     id="metadata30">
    <rdf:RDF>
      <cc:Work
         rdf:about="">
        <dc:format>image/svg+xml</dc:format>
        <dc:type
           rdf:resource="http://purl.org/dc/dcmitype/StillImage" />
        <dc:title></dc:title>
      </cc:Work>
    </rdf:RDF>
  </metadata>
  <defs
     id="defs28">
    <radialGradient
       id="gradient-2"
       gradientTransform="scale(1.0011172,0.9988841)"
       cx="259.28634"
       cy="262.66224"
       fx="259.28634"
       fy="262.66224"
       r="245.34292"
       gradientUnits="userSpaceOnUse">
      <stop
         id="stop859"
         stop-opacity="1"
         stop-color="#5f3f23"
         offset="0%" />
      <stop
         id="stop861"
         stop-opacity="1"
         stop-color="#bd8857"
         offset="100%" />
    </radialGradient>
    <radialGradient
       id="gradient-2-3">
      <stop
         id="stop887"
         stop-opacity="1"
         stop-color="#5f3f23"
         offset="0%" />
      <stop
         id="stop889"
         stop-opacity="1"
         stop-color="#bd8857"
         offset="100%" />
    </radialGradient>
    <clipPath
       clipPathUnits="userSpaceOnUse"
       id="clipPath1006">
      <path
         d="m 111.96923,56.33846 h 274 v 402 h -274 z"
         class=""
         id="path1008"
         inkscape:connector-curvature="0"
         style="fill:#c9c9c9;fill-opacity:1;stroke:#4a4a4a;stroke-width:10;stroke-opacity:1" />
    </clipPath>
  </defs>
  <sodipodi:namedview
     pagecolor="#ffffff"
     bordercolor="#666666"
     borderopacity="1"
     objecttolerance="10"
     gridtolerance="10"
     guidetolerance="10"
     inkscape:pageopacity="0"
     inkscape:pageshadow="2"
     inkscape:window-width="1425"
     inkscape:window-height="701"
     id="namedview26"
     showgrid="false"
     inkscape:zoom="0.71815532"
     inkscape:cx="349.57604"
     inkscape:cy="174.89715"
     inkscape:window-x="2414"
     inkscape:window-y="347"
     inkscape:window-maximized="0"
     inkscape:current-layer="svg24" />
  <path
     d="M 89,25 V 487 H 423 V 25 Z"
     class="selected"
     id="path2"
     inkscape:connector-curvature="0"
     style="fill:#8b572a;fill-opacity:1;stroke:#4a4a4a;stroke-width:10;stroke-opacity:1" />
  <path
     d="M 119,55 H 393 V 457 H 119 Z"
     class=""
     id="path4"
     inkscape:connector-curvature="0"
     style="fill:#c9c9c9;fill-opacity:1;stroke:#4a4a4a;stroke-width:10;stroke-opacity:1" />
  <path
     style="fill:#bbe2fa;fill-opacity:1;stroke:#4a4a4a;stroke-width:0.29397735;stroke-opacity:1"
     inkscape:connector-curvature="0"
     d="m 293.2166,60.271081 c -21.11949,0.005 -38.23763,17.42976 -38.23763,38.92261 0.007,1.109159 0.0613,2.217479 0.16168,3.321949 -9.23151,3.1832 -15.3382,11.20694 -15.34855,20.16684 -0.005,11.93198 10.65463,21.60734 23.80628,21.60734 3.81293,-0.006 7.56849,-0.84278 10.95066,-2.44001 6.06448,2.13642 13.11784,3.69938 20.696,4.58604 l 14.40489,-14.40489 14.46369,14.46369 c 3.15799,-0.35401 6.23703,-0.82619 9.20149,-1.41109 5.05296,3.95851 12.06652,6.20072 19.40251,6.20292 14.79043,10e-4 26.78133,-8.92286 26.78133,-19.93166 -0.0112,-8.20636 -6.77856,-15.56888 -17.05068,-18.54998 0.27601,-0.598 0.53101,-1.20607 0.76434,-1.82265 4.67729,-12.417649 -0.16651,-25.738079 -10.81837,-29.750509 -7.60835,-2.8527 -16.46197,-0.2277 -22.60686,6.70268 -4.87326,-16.41136 -19.72427,-27.64513 -36.57078,-27.66328 z"
     id="path894-6-7"
     sodipodi:nodetypes="ccccccccccccccccc" />
  <path
     style="fill:#bbe2fa;fill-opacity:1;stroke-width:0.29397735;stroke:#4a4a4a;stroke-opacity:1"
     inkscape:connector-curvature="0"
     d="m 179.06163,78.614018 c -21.11949,0.005 -38.23763,17.42975 -38.23763,38.922602 0.007,1.10916 0.0613,2.21748 0.16168,3.32195 -9.23151,3.1832 -15.3382,11.20694 -15.34855,20.16684 -0.005,11.93198 10.65463,21.60734 23.80628,21.60734 3.81293,-0.006 7.56849,-0.84278 10.95066,-2.44001 6.06448,2.13642 13.11784,3.69938 20.696,4.58604 l 14.40489,-14.40489 14.46369,14.46369 c 3.15799,-0.35401 6.23703,-0.82619 9.20149,-1.41109 5.05296,3.95851 12.06652,6.20072 19.40251,6.20292 14.79043,0.001 26.78133,-8.92286 26.78133,-19.93166 -0.0112,-8.20636 -6.77856,-15.56888 -17.05068,-18.54998 0.27601,-0.598 0.53101,-1.20607 0.76434,-1.82265 4.67729,-12.41765 -0.16651,-25.73808 -10.81837,-29.750512 -7.60835,-2.8527 -16.46197,-0.2277 -22.60686,6.702682 -4.87326,-16.411362 -19.72427,-27.645122 -36.57078,-27.663272 z"
     id="path894"
     sodipodi:nodetypes="ccccccccccccccccc" />
  <path
     style="fill:#bbe2fa;fill-opacity:1;stroke:#4a4a4a;stroke-width:0.29397735;stroke-opacity:1"
     inkscape:connector-curvature="0"
     d="m 244.74401,144.09091 c -21.11949,0.005 -38.23763,17.42975 -38.23763,38.9226 0.007,1.10916 0.0613,2.21748 0.16168,3.32195 -9.23151,3.1832 -15.3382,11.20694 -15.34855,20.16684 -0.005,11.93198 10.65463,21.60734 23.80628,21.60734 3.81293,-0.006 7.56849,-0.84278 10.95066,-2.44001 6.06448,2.13642 13.11784,3.69938 20.696,4.58604 l 14.40489,-14.40489 14.46369,14.46369 c 3.15799,-0.35401 6.23703,-0.82619 9.20149,-1.41109 5.05296,3.95851 12.06652,6.20072 19.40251,6.20292 14.79043,0.001 26.78133,-8.92286 26.78133,-19.93166 -0.0112,-8.20636 -6.77856,-15.56888 -17.05068,-18.54998 0.27601,-0.598 0.53101,-1.20607 0.76434,-1.82265 4.67729,-12.41765 -0.16651,-25.73808 -10.81837,-29.75051 -7.60835,-2.8527 -16.46197,-0.2277 -22.60686,6.70268 -4.87326,-16.41136 -19.72427,-27.64512 -36.57078,-27.66327 z"
     id="path894-6"
     sodipodi:nodetypes="ccccccccccccccccc" />
  <g
     id="g967"
     transform="matrix(0.96389914,0,0,0.8654001,14.995363,55.928829)"
     clip-path="url(#clipPath1006)">
    <path
       inkscape:connector-curvature="0"
       id="path940"
       d="m 128.10599,401.99594 c 5.56983,0 11.13965,0 16.70948,0 0.9283,0 1.85661,0 2.78491,0 0.46415,0 0.97731,0.20758 1.39246,0 0.58711,-0.29355 0.80534,-1.0989 1.39245,-1.39245 0.41515,-0.20758 0.97731,0.20757 1.39246,0 0.58711,-0.29356 0.80535,-1.09891 1.39246,-1.39246 0.8303,-0.41515 1.95461,0.41515 2.78491,0 0.58711,-0.29356 0.76973,-1.18488 1.39246,-1.39246 0.63689,-0.21229 4.95021,0.30981 5.56982,0 0.58711,-0.29355 0.80535,-1.0989 1.39246,-1.39245 0.75539,-0.3777 5.18882,0.381 5.56982,0 0.32821,-0.32821 -0.3282,-1.06426 0,-1.39246 0.28467,-0.28467 3.62528,0.27605 4.17737,0 0.58711,-0.29356 0.80535,-1.0989 1.39246,-1.39246 0.8303,-0.41515 2.1285,0.65641 2.78491,0 0.32821,-0.3282 -0.3282,-1.06425 0,-1.39245 0.32821,-0.32821 0.97731,0.20757 1.39246,0 5.79507,-2.89754 -1.48859,0.0961 1.39246,-2.78492 0.3282,-0.3282 1.06425,0.32821 1.39245,0 0.32821,-0.3282 -0.20757,-0.9773 0,-1.39245 0.13327,-0.26655 5.30328,-5.43656 5.56983,-5.56983 0.41515,-0.20757 0.9773,0.20758 1.39245,0 5.79507,-2.89753 -1.48858,0.0961 1.39246,-2.78491 0.32821,-0.32821 0.97731,0.20757 1.39246,0 1.67095,-0.83547 2.50642,-3.3419 4.17737,-4.17737 0.41515,-0.20758 0.9773,0.20757 1.39245,0 0.58711,-0.29356 0.80535,-1.0989 1.39246,-1.39246 0.41515,-0.20757 0.97731,0.20758 1.39246,0 0.58711,-0.29355 0.80534,-1.0989 1.39245,-1.39245 0.36002,-0.18001 7.36777,0 8.35474,0 0.96851,0 6.45872,-0.25178 6.96228,0 1.17423,0.58711 1.61069,2.1978 2.78492,2.78491 0.41515,0.20757 0.9773,-0.20758 1.39245,0 0.58711,0.29356 0.92831,0.9283 1.39246,1.39246 0.46415,0.46415 1.0989,0.80534 1.39246,1.39245 0.20757,0.41515 -0.32821,1.06425 0,1.39246 0.3282,0.3282 1.06425,-0.32821 1.39245,0 0.65641,0.65641 -0.65641,2.1285 0,2.78491 0.32821,0.32821 1.06425,-0.3282 1.39246,0 0.65641,0.65641 -0.65641,2.1285 0,2.78491 0.3282,0.32821 1.06425,-0.3282 1.39245,0 0.32821,0.32821 0,0.92831 0,1.39246 0.46416,0.46415 0.84629,1.02835 1.39246,1.39246 1.72713,1.15142 3.90923,1.53946 5.56983,2.78491 1.05025,0.78769 1.75977,1.9648 2.78491,2.78491 6.65098,5.32079 1.49135,0.74568 8.35474,4.17737 2.99369,1.49685 5.36105,4.07298 8.35474,5.56983 1.31282,0.65641 2.81457,0.84734 4.17737,1.39245 0.96364,0.38546 1.82127,1.007 2.78491,1.39246 1.3628,0.54512 2.86455,0.73605 4.17737,1.39246 0.58711,0.29355 0.76973,1.18488 1.39245,1.39245 0.88067,0.29356 1.85661,0 2.78492,0 0.46415,0 0.9773,0.20758 1.39245,0 0.58712,-0.29355 0.80535,-1.0989 1.39246,-1.39245 0.8303,-0.41515 2.1285,0.65641 2.78491,0 0.32821,-0.32821 -0.3282,-1.06425 0,-1.39246 0.32821,-0.3282 1.06425,0.32821 1.39246,0 0.3282,-0.3282 -0.32821,-1.06425 0,-1.39246 0.3282,-0.3282 1.06425,0.32821 1.39246,0 0.3282,-0.3282 -0.20758,-0.9773 0,-1.39245 0.29355,-0.58711 1.0989,-0.80535 1.39245,-1.39246 0.20758,-0.41515 -0.20757,-0.9773 0,-1.39245 2.89754,-5.79507 -0.0961,1.48858 2.78492,-1.39246 0.3282,-0.32821 -0.32821,-1.06425 0,-1.39246 0.3282,-0.3282 0.9773,0.20758 1.39245,0 0.58711,-0.29355 0.80535,-1.0989 1.39246,-1.39245 0.41515,-0.20758 0.9773,0.20757 1.39245,0 1.23419,-0.6171 2.9098,-3.33232 4.17737,-4.17737 0.86357,-0.57571 1.92135,-0.81675 2.78492,-1.39246 0.54616,-0.36411 0.84629,-1.02834 1.39245,-1.39246 1.72713,-1.15142 3.71322,-1.8566 5.56983,-2.78491 3.71322,-1.85661 7.42643,-3.71322 11.13965,-5.56982 1.85661,-0.92831 3.8427,-1.6335 5.56983,-2.78492 3.18636,-2.12424 -0.87069,-1.10222 4.17737,-2.78491 0.88066,-0.29356 1.95461,0.41515 2.78491,0 1.17422,-0.58711 1.61069,-2.1978 2.78491,-2.78491 0.8303,-0.41515 1.95461,0.41515 2.78491,0 0.58712,-0.29356 0.80535,-1.0989 1.39246,-1.39246 0.5521,-0.27605 3.8927,0.28467 4.17737,0 0.3282,-0.3282 -0.32821,-1.06425 0,-1.39246 0.3282,-0.3282 0.9283,0 1.39246,0 2.78491,0 5.56982,0 8.35473,0 0.46416,0 0.92831,0 1.39246,0 0.46415,0 0.97731,0.20758 1.39246,0 0.58711,-0.29355 0.80534,-1.0989 1.39245,-1.39245 0.42378,-0.21189 3.55027,0 4.17737,0 0.46416,0 1.06425,-0.32821 1.39246,0 0.3282,0.3282 -0.32821,1.06425 0,1.39245 0.3282,0.32821 0.9283,0 1.39246,0 0.46415,0 0.9283,0 1.39245,0 1.66484,0 7.44594,-0.30293 8.35474,0 0.98462,0.32821 1.8003,1.06426 2.78491,1.39246 0.75361,0.2512 5.09546,0 5.56983,0 3.71322,0 7.42643,0 11.13965,0 0.90678,0.11014 1.84601,0.066 2.72034,0.33041 0.31415,0.095 -0.23208,0.75254 0,0.98461 0.11604,0.11604 0.37627,-0.11604 0.49231,0 0.11604,0.11604 0,0.32821 0,0.49231 0.1641,0 0.37627,-0.11604 0.4923,0 0.11604,0.11604 -0.11603,0.37627 0,0.49231 0.11604,0.11604 0.37627,-0.11604 0.49231,0 0.24616,0.24615 -0.24615,1.23077 0,1.47692 0.11604,0.11604 0.37627,-0.11604 0.49231,0 0.11604,0.11604 -0.11604,0.37627 0,0.49231 0.11604,0.11604 0.37627,-0.11604 0.49231,0 0.24615,0.24615 -0.24616,1.23077 0,1.47692 0.11604,0.11604 0.37627,-0.11604 0.49231,0 0.10064,0.10065 -0.0976,1.28173 0,1.47693 0.10378,0.20757 0.38852,0.28473 0.4923,0.4923 0.14678,0.29356 -0.14677,0.69106 0,0.98462 0.10379,0.20757 0.38852,0.28473 0.49231,0.49231 0.0749,0.14982 0,1.2552 0,1.47692 0,0.1641 0.11604,0.37627 0,0.49231 -0.11604,0.11603 -0.37627,-0.11604 -0.49231,0 -0.10064,0.10064 0.0976,1.28172 0,1.47692 -0.10378,0.20758 -0.38852,0.28473 -0.4923,0.49231 -0.13052,0.26104 0.11163,2.12662 0,2.46154 -0.0734,0.22016 -0.41892,0.27214 -0.49231,0.4923 -0.10379,0.31137 0.10379,0.67326 0,0.98462 -0.0734,0.22017 -0.41892,0.27214 -0.49231,0.49231 -0.20757,0.62272 0.1592,1.33242 0,1.96923 -0.089,0.35599 -0.40331,0.62862 -0.49231,0.98461 -0.16765,0.67059 0.19853,2.35826 0,2.95385 -0.0734,0.22017 -0.41892,0.27214 -0.49231,0.49231 -0.0797,0.23917 0,2.94353 0,3.44615 0,0.65641 0,1.31282 0,1.96923 0,0.32821 0,0.65641 0,0.98462 0,0.1641 0.0519,0.33662 0,0.4923 -0.11603,0.34812 -0.40331,0.62863 -0.4923,0.98462 -0.19306,0.77225 0.19306,1.68929 0,2.46154 -0.089,0.35599 -0.40331,0.62863 -0.49231,0.98461 -0.18425,0.73699 0.15588,2.17446 0,2.95385 -0.19948,0.99741 -0.74315,1.45818 -0.49231,2.46154 0.089,0.35599 0.42035,0.6248 0.49231,0.98461 0.0965,0.48275 0,0.98462 0,1.47693 0,1.14871 0,2.29743 0,3.44615 0,0.32821 -0.0644,0.66278 0,0.98462 0.10177,0.50886 0.40699,0.96504 0.49231,1.47692 0.0809,0.48561 -0.0966,0.99417 0,1.47692 0.072,0.35982 0.40331,0.62863 0.4923,0.98462 0.0796,0.3184 -0.0796,0.66621 0,0.98461 0.089,0.35599 0.40332,0.62863 0.49231,0.98462 0.0796,0.3184 -0.10379,0.67325 0,0.98461 0.0734,0.22017 0.41892,0.27214 0.49231,0.49231 0.0908,0.27226 0,2.45807 0,2.95385 0,0.1641 -0.0734,0.34553 0,0.49231 0.10379,0.20757 0.38852,0.28473 0.49231,0.4923 0.19692,0.39385 -0.19693,1.08308 0,1.47693 0.10379,0.20757 0.38852,0.28473 0.49231,0.4923 0.0734,0.14678 0,0.32821 0,0.49231 0,0.1641 0,0.32821 0,0.49231 0,0.56986 -0.10989,2.02201 0,2.46154 0.089,0.35599 0.37627,0.6365 0.4923,0.98461 0.0519,0.15568 -0.0519,0.33663 0,0.49231 0.11604,0.34811 0.40331,0.62863 0.49231,0.98462 0.0796,0.3184 0,0.65641 0,0.98461 0,0.1641 -0.0734,0.34553 0,0.49231 0.10379,0.20757 0.41892,0.27214 0.49231,0.49231 0.0797,0.23917 0,2.94353 0,3.44615 0,0.1641 -0.0519,0.33663 0,0.49231 0.11604,0.34811 0.37627,0.6365 0.49231,0.98461 0.0487,0.1462 0.0505,2.3605 0,2.46154 -0.10379,0.20758 -0.38852,0.28473 -0.49231,0.49231 -0.14678,0.29356 0.14678,0.69106 0,0.98462 -0.10379,0.20757 -0.38852,0.28473 -0.49231,0.4923 -0.0734,0.14678 0.0519,0.33663 0,0.49231 -0.11604,0.34811 -0.37627,0.6365 -0.49231,0.98462 -0.0519,0.15568 0.0734,0.34553 0,0.4923 -0.10378,0.20758 -0.38852,0.28474 -0.4923,0.49231 -0.14678,0.29356 0.14677,0.69106 0,0.98462 -0.10379,0.20757 -0.38852,0.28473 -0.49231,0.4923 -0.0734,0.14678 0.0734,0.34553 0,0.49231 -0.10379,0.20758 -0.38852,0.28473 -0.49231,0.49231 -0.0734,0.14678 0.0519,0.33663 0,0.49231 -0.11604,0.34811 -0.37627,0.6365 -0.49231,0.98461 -0.0519,0.15568 0.0519,0.33663 0,0.49231 -0.11604,0.34811 -0.37627,0.6365 -0.49231,0.98462 -0.0519,0.15568 0.0519,0.33662 0,0.4923 -0.23207,0.69623 -0.65641,1.31282 -0.98461,1.96923 -0.1641,0.32821 -0.23284,0.72515 -0.49231,0.98462 -0.25947,0.25947 -0.72514,0.23284 -0.98461,0.49231 -0.0315,0.0315 -0.92348,1.87753 -0.98462,1.96923 -0.75103,1.12655 -0.38969,-0.30784 -0.98461,1.47692 -0.0519,0.15568 0,0.32821 0,0.49231 -0.16411,0.1641 -0.38852,0.28473 -0.49231,0.49231 -0.0734,0.14677 0.11604,0.37627 0,0.4923 -0.11604,0.11604 -0.34553,-0.0734 -0.49231,0 -0.20757,0.10379 -0.3282,0.32821 -0.49231,0.49231 -0.3282,0 -0.66621,-0.0796 -0.98461,0 -0.35599,0.089 -0.6365,0.37627 -0.98462,0.49231 -0.32131,0.1071 -2.36524,0 -2.95384,0 -1.31282,0 -2.62565,0 -3.93847,0 -0.56451,0 -1.45925,0.12749 -1.96923,0 -0.35599,-0.089 -0.62862,-0.40331 -0.98461,-0.49231 -0.79602,-0.199 -1.65219,0.13489 -2.46154,0 -3.73412,-0.62235 1.13262,-0.47586 -3.44615,-0.98461 -0.8155,-0.0906 -1.64605,0.0906 -2.46154,0 -1.34495,-0.14944 -2.59569,-0.81677 -3.93846,-0.98462 -0.65135,-0.0814 -1.31282,0 -1.96924,0 -1.14871,0 -2.29743,0 -3.44615,0 -0.65641,0 -1.31282,0 -1.96923,0 -0.49231,0 -0.99418,-0.0965 -1.47692,0 -0.66348,0.1327 -1.30576,0.35961 -1.96923,0.49231 -0.48275,0.0965 -0.98462,0 -1.47693,0 -1.14871,0 -2.29743,0 -3.44615,0 -0.32821,0 -0.66278,-0.0644 -0.98462,0 -0.50886,0.10177 -0.96806,0.39053 -1.47692,0.49231 -1.26449,0.25289 -0.70474,-0.2529 -1.96923,0 -0.50886,0.10177 -0.96806,0.39053 -1.47692,0.4923 -0.32183,0.0644 -0.66279,-0.0644 -0.98462,0 -0.15824,0.0317 -2.7956,0.95297 -2.95384,0.98462 -0.32184,0.0644 -0.66279,-0.0644 -0.98462,0 -0.50886,0.10177 -0.96505,0.40699 -1.47692,0.49231 -0.48561,0.0809 -0.99132,-0.0809 -1.47693,0 -1.00166,-0.17099 -1.59498,0.8113 -2.46153,0.98461 -0.48275,0.0965 -0.99418,-0.0965 -1.47693,0 -0.35982,0.072 -0.64391,0.35603 -0.98461,0.49231 -0.48182,0.19273 -0.96807,0.39054 -1.47693,0.49231 -0.80457,0.16091 -1.65696,-0.16092 -2.46153,0 -0.35982,0.072 -0.62863,0.40331 -0.98462,0.49231 -0.31841,0.0796 -0.65641,0 -0.98462,0 -0.3282,0 -0.65641,0 -0.98461,0 -1.80513,0 -3.61026,0 -5.41539,0 -0.98461,0 -1.96923,0 -2.95384,0 -0.65641,0 -1.31942,0.0928 -1.96923,0 -0.51372,-0.0734 -0.95799,-0.49231 -1.47693,-0.49231 -5.09085,0 1.11801,1.12436 -3.93846,0.49231 -0.67138,-0.0839 -1.29675,-0.41759 -1.96923,-0.49231 -0.81549,-0.0906 -1.64604,0.0906 -2.46154,0 -0.67247,-0.0747 -1.29784,-0.40839 -1.96923,-0.49231 -0.65134,-0.0814 -1.31607,0.0653 -1.96923,0 -0.99324,-0.0993 -1.9606,-0.39298 -2.95384,-0.49231 -0.65316,-0.0653 -1.31684,0.0725 -1.96923,0 -0.83165,-0.0924 -1.6299,-0.3999 -2.46154,-0.4923 -0.6524,-0.0725 -1.31684,0.0725 -1.96923,0 -0.83165,-0.0924 -1.62893,-0.40905 -2.46154,-0.49231 -0.81644,-0.0817 -1.64605,0.0906 -2.46154,0 -0.67247,-0.0747 -1.29784,-0.40839 -1.96923,-0.49231 -1.30268,-0.16284 -2.63578,0.16284 -3.93846,0 -2.83878,-0.35485 -1.32507,-0.7005 -4.43077,-1.47692 -0.47761,-0.11941 -0.98842,0.0611 -1.47693,0 -0.8303,-0.10379 -1.64976,-0.28937 -2.46153,-0.49231 -0.50345,-0.12586 -0.97348,-0.36645 -1.47693,-0.49231 -0.81178,-0.20294 -1.64976,-0.28936 -2.46154,-0.49231 -2.67927,-0.66982 -0.30932,-0.53097 -3.93846,-0.98461 -0.4885,-0.0611 -0.99131,0.0809 -1.47692,0 -0.51188,-0.0853 -0.97348,-0.36645 -1.47692,-0.49231 -0.81178,-0.20294 -1.67806,-0.1985 -2.46154,-0.49231 -0.55401,-0.20775 -0.90801,-0.82207 -1.47692,-0.98461 -0.63116,-0.18033 -1.31684,0.0725 -1.96924,0 -0.83164,-0.0924 -1.6447,-0.31079 -2.46153,-0.49231 -0.6605,-0.14678 -1.29676,-0.41759 -1.96923,-0.49231 -0.8155,-0.0906 -1.6444,0.0743 -2.46154,0 -0.9941,-0.0904 -1.96923,-0.3282 -2.95385,-0.49231 -4.09844,-0.68307 -1.96568,-0.35114 -6.4,-0.98461 -1.14872,-0.1641 -2.28919,-0.40331 -3.44615,-0.49231 -0.98172,-0.0755 -1.97913,0.13925 -2.95385,0 -1.33962,-0.19137 -2.59884,-0.79324 -3.93846,-0.98461 -0.97472,-0.13925 -1.97263,0.0818 -2.95385,0 -0.99475,-0.0829 -1.95909,-0.40942 -2.95384,-0.49231 -0.98122,-0.0818 -1.97328,0.0891 -2.95385,0 -0.83332,-0.0758 -1.62989,-0.3999 -2.46154,-0.49231 -0.65239,-0.0725 -1.31282,0 -1.96923,0 -2.46154,0 -4.92308,0 -7.38461,0 -1.64103,0 -3.28206,0 -4.92308,0 -0.82051,0 -1.65219,-0.13489 -2.46154,0 -0.51188,0.0853 -0.9632,0.41892 -1.47692,0.49231 -1.13717,0.16245 -2.31307,-0.18885 -3.44616,0 -0.51187,0.0853 -0.96504,0.40699 -1.47692,0.49231 -0.48561,0.0809 -0.98461,0 -1.47692,0 -0.49231,0 -0.98462,0 -1.47693,0 -0.3282,0 -0.66278,-0.0644 -0.98461,0 -0.50886,0.10177 -0.96806,0.39053 -1.47692,0.4923 -0.32184,0.0644 -0.67326,-0.10378 -0.98462,0 -0.22017,0.0734 -0.27214,0.41892 -0.49231,0.49231 -0.31136,0.10379 -0.66621,-0.0796 -0.98461,0 -0.35599,0.089 -0.62863,0.40331 -0.98462,0.49231 -0.85476,0.21369 -2.09908,-0.21369 -2.95384,0 -0.35599,0.089 -0.6248,0.42034 -0.98462,0.49231 -0.48275,0.0965 -0.98461,0 -1.47692,0 -0.98462,0 -1.96923,0 -2.95385,0 -0.49231,0 -0.99131,-0.0809 -1.47692,0 -0.51188,0.0853 -0.96505,0.40699 -1.47692,0.4923 -0.48561,0.0809 -0.98462,0 -1.47693,0 -0.98461,0 -1.96923,0 -2.95384,0 -0.65641,0 -1.31789,-0.0814 -1.96923,0 -0.67139,0.0839 -1.29942,0.39662 -1.96924,0.49231 -0.48736,0.0696 -0.98461,0 -1.47692,0 -0.49231,0 -0.98461,0 -1.47692,0 -2.46154,0 -4.92308,0 -7.38462,0 -4.10256,0 -8.20513,0 -12.30769,0 -1.14872,0 -2.29744,0 -3.44615,0 -0.32821,0 -0.65641,0 -0.98462,0 -0.3282,0 -0.67325,0.10379 -0.98461,0 -0.22017,-0.0734 -0.28474,-0.38852 -0.49231,-0.49231 -0.29356,-0.14677 -0.69106,0.14678 -0.98462,0 -0.20757,-0.10378 -0.28473,-0.38852 -0.4923,-0.4923 -0.29356,-0.14678 -0.69106,0.14677 -0.98462,0 -0.20758,-0.10379 -0.28473,-0.38852 -0.49231,-0.49231 -0.14678,-0.0734 -0.37627,0.11604 -0.49231,0 -0.11603,-0.11604 0.11604,-0.37627 0,-0.49231 -0.11603,-0.11604 -0.34553,0.0734 -0.4923,0 -0.20758,-0.10379 -0.29921,-0.36357 -0.49231,-0.49231 -0.30532,-0.20354 -0.65641,-0.3282 -0.98462,-0.4923 -0.65641,-0.32821 -1.28783,-0.71206 -1.96923,-0.98462 -0.48182,-0.19273 -0.9951,-0.29958 -1.47692,-0.49231 -0.3407,-0.13628 -0.64392,-0.35602 -0.98462,-0.4923 -0.48182,-0.19273 -1.01277,-0.26024 -1.47692,-0.49231 -0.52921,-0.26461 -0.94771,-0.72001 -1.47692,-0.98462 -0.46415,-0.23207 -0.9951,-0.29958 -1.47692,-0.49231 -0.3407,-0.13628 -0.64392,-0.35602 -0.98462,-0.4923 -1.44297,-0.57719 -2.9878,-0.89974 -4.43077,-1.47693 -1.00623,-0.40249 -1.98414,-0.99207 -2.95385,-1.47692 -0.3282,-0.1641 -0.67929,-0.28876 -0.98461,-0.49231 -0.1931,-0.12873 -0.28473,-0.38852 -0.49231,-0.4923 -0.14678,-0.0734 -0.37627,0.11603 -0.49231,0 -0.11603,-0.11604 0,-0.32821 0,-0.49231 0,-0.32821 0,-0.65641 0,-0.98462 0,-1.80513 0,-3.61025 0,-5.41538 0,-0.51197 -0.0968,-2.56659 0,-2.95385 0.089,-0.35599 0.40331,-0.62863 0.49231,-0.98461 0.0796,-0.31841 0,-0.65641 0,-0.98462 0,-0.98461 0,-1.96923 0,-2.95385 0,-0.4923 -0.1194,-0.99931 0,-1.47692 0.089,-0.35599 0.37627,-0.6365 0.49231,-0.98461 0.17438,-0.52314 -0.17438,-1.4461 0,-1.96923 0.0734,-0.22017 0.38852,-0.28474 0.49231,-0.49231 0.14677,-0.29356 -0.10379,-0.67326 0,-0.98462 0.11604,-0.34811 0.37627,-0.6365 0.4923,-0.98461 0.0519,-0.15568 -0.0519,-0.33663 0,-0.49231 0.11604,-0.34811 0.37627,-0.6365 0.49231,-0.98462 0.17438,-0.52313 -0.17437,-1.44609 0,-1.96923 0.11604,-0.34811 0.37627,-0.6365 0.49231,-0.98461 0.15724,-0.47174 -0.15203,-2.00546 0,-2.46154 0.0734,-0.22017 0.38852,-0.28473 0.49231,-0.49231 0.0734,-0.14678 0,-0.3282 0,-0.49231 0,-0.82051 0,-1.64102 0,-2.46153 0,-0.16411 0,-0.32821 0,-0.49231 0,-0.1641 -0.0734,-0.34553 0,-0.49231 0.10379,-0.20758 0.38852,-0.28473 0.49231,-0.49231 0.19692,-0.39384 -0.19693,-1.08307 0,-1.47692 0.10378,-0.20758 0.38852,-0.28473 0.4923,-0.49231 0.0734,-0.14678 -0.0734,-0.34553 0,-0.49231 0.10379,-0.20757 0.38852,-0.28473 0.49231,-0.4923 0.0734,-0.14678 -0.0734,-0.34553 0,-0.49231 0.10379,-0.20758 0.38852,-0.28473 0.49231,-0.49231 0.0734,-0.14678 -0.0734,-0.34553 0,-0.49231 0.20757,-0.41515 0.77704,-0.56946 0.98461,-0.98461 0.0734,-0.14678 -0.0734,-0.34553 0,-0.49231 0.10379,-0.20758 0.32821,-0.32821 0.49231,-0.49231 0.1641,-0.1641 0.28473,-0.38852 0.49231,-0.49231 0.29355,-0.14677 0.69106,0.14678 0.98461,0 0.20758,-0.10378 0.28474,-0.38852 0.49231,-0.4923 0.29356,-0.14678 0.69106,0.14677 0.98462,0 0.20757,-0.10379 0.28473,-0.38852 0.49231,-0.49231 0.30942,-0.15471 1.6598,0.15471 1.96923,0 0.20757,-0.10379 0.28473,-0.38852 0.4923,-0.49231 0.32627,-0.16313 1.55662,0.13754 1.96923,0 0.34812,-0.11604 0.63651,-0.37627 0.98462,-0.49231 0.15568,-0.0519 0.32821,0 0.49231,0 0.3282,0 0.65641,0 0.98461,0 0.98462,0 1.96923,0 2.95385,0 0.1641,0 0.37627,0.11604 0.49231,0 0.11604,-0.11603 -0.11604,-0.37627 0,-0.4923 0.11604,-0.11604 0.37627,0.11603 0.4923,0 0.23208,-0.23208 -0.23207,-0.75254 0,-0.98462 0.11604,-0.11604 0.37627,0.11604 0.49231,0 0.0649,-0.0649 -0.05,-1.29402 0,-1.47692 0.15811,-0.57838 0.39887,-1.13091 0.5983,-1.69637 z"
       style="fill:#b3b3b3;fill-opacity:1;stroke:#000000;stroke-width:1px;stroke-linecap:butt;stroke-linejoin:miter;stroke-opacity:1" />
    <path
       inkscape:connector-curvature="0"
       id="path942"
       d="m 201.84615,382.03077 c -0.1641,0.65641 -0.3282,1.31282 -0.4923,1.96923 -0.16411,0.1641 -0.41892,0.27214 -0.49231,0.49231 -0.10379,0.31136 0.0796,0.66621 0,0.98461 -0.089,0.35599 -0.32821,0.65641 -0.49231,0.98462 -0.1641,0.3282 -0.3282,0.65641 -0.49231,0.98461 -0.1641,0.32821 -0.3282,0.65641 -0.4923,0.98462 -0.16411,0.3282 -0.27215,0.69106 -0.49231,0.98461 -0.27849,0.37133 -0.70613,0.6133 -0.98462,0.98462 -0.22016,0.29356 -0.27214,0.69106 -0.49231,0.98462 -0.27849,0.37132 -0.70612,0.61329 -0.98461,0.98461 -0.22017,0.29356 -0.27214,0.69106 -0.49231,0.98462 -0.27849,0.37132 -0.65641,0.65641 -0.98461,0.98461 -0.16411,0.1641 -0.29921,0.36358 -0.49231,0.49231 -0.61063,0.40709 -1.3586,0.57753 -1.96923,0.98461 -1.12655,0.75104 0.30783,0.3897 -1.47693,0.98462 -0.15568,0.0519 -0.34553,-0.0734 -0.4923,0 -0.41515,0.20758 -0.54428,0.83784 -0.98462,0.98462 -2.24112,0 -0.0281,-0.23208 -1.47692,0.4923 -0.39385,0.19693 -1.08308,-0.19692 -1.47692,0 -0.20758,0.10379 -0.28474,0.38852 -0.49231,0.49231 -0.14678,0.0734 -0.37627,-0.11604 -0.49231,0 -0.11604,0.11604 0.11604,0.37627 0,0.49231 -0.11604,0.11604 -0.33663,-0.0519 -0.49231,0 -0.34811,0.11604 -0.65641,0.3282 -0.98461,0.49231 -0.32821,0.1641 -0.65641,0.3282 -0.98462,0.4923 0,0.16411 0.11604,0.37627 0,0.49231 -0.25947,0.25947 -0.72514,0.23284 -0.98461,0.49231 -0.25947,0.25947 -0.28877,0.6793 -0.49231,0.98461 -0.3787,0.56805 -1.09823,0.90888 -1.47692,1.47693 -1.65803,2.48704 -0.004,0.0114 -0.49231,1.47692 -1.18867,3.56599 0.14193,-0.77618 -0.98462,1.47692 -0.0734,0.14678 0,0.32821 0,0.49231 0,0.22272 0.0656,2.82265 0,2.95385 -0.60834,1.21669 -0.49231,-0.16994 -0.49231,0.98461 0,0.22172 0.0749,1.3271 0,1.47693 -0.10378,0.20757 -0.38852,0.28473 -0.4923,0.4923 -0.0734,0.14678 0.0734,0.34553 0,0.49231 -0.10379,0.20758 -0.38852,0.28473 -0.49231,0.49231 -0.0734,0.14678 0.0734,0.34553 0,0.49231 -0.20758,0.41515 -0.77704,0.56946 -0.98462,0.98461 -0.0734,0.14678 0.0734,0.34553 0,0.49231 -0.10378,0.20758 -0.3282,0.32821 -0.4923,0.49231 -0.32821,0.3282 -0.65641,0.65641 -0.98462,0.98461 -0.49231,0.49231 -0.91994,1.05919 -1.47692,1.47693 -0.29356,0.22016 -0.69106,0.27214 -0.98462,0.4923 -0.37132,0.2785 -0.61329,0.70613 -0.98461,0.98462 -0.29356,0.22017 -0.69106,0.27214 -0.98462,0.49231 -0.37132,0.27849 -0.61329,0.70612 -0.98461,0.98461 -0.58711,0.44034 -1.38212,0.54428 -1.96923,0.98462 -0.37133,0.27849 -0.6133,0.70612 -0.98462,0.98461 -0.29356,0.22017 -0.65641,0.32821 -0.98462,0.49231 -0.65641,0.32821 -1.31282,0.65641 -1.96923,0.98462 -0.3282,0.1641 -0.65641,0.3282 -0.98461,0.4923 -0.32821,0.16411 -0.62863,0.40331 -0.98462,0.49231 -0.3184,0.0796 -0.66278,-0.0644 -0.98461,0 -0.50886,0.10177 -0.96806,0.39054 -1.47693,0.49231 -0.32183,0.0644 -0.6662,-0.0796 -0.98461,0 -0.35599,0.089 -0.62863,0.40331 -0.98462,0.49231 -0.3184,0.0796 -0.65641,0 -0.98461,0 -0.82051,0 -1.64103,0 -2.46154,0 -0.42,0 -3.26324,0.0915 -3.44615,0 -0.20758,-0.10379 -0.28474,-0.38852 -0.49231,-0.49231 -0.14678,-0.0734 -0.32821,0 -0.49231,0 -0.1641,0 -0.34553,-0.0734 -0.49231,0 -0.20757,0.10379 -0.28473,0.38852 -0.4923,0.49231 -0.10809,0.054 -2.91733,0.0122 -2.95385,0 -0.22017,-0.0734 -0.28473,-0.38852 -0.49231,-0.49231 -0.12945,-0.0647 -1.71179,0 -1.96923,0 -0.49578,0 -2.68159,-0.0907 -2.95385,0 -0.22016,0.0734 -0.28473,0.38852 -0.4923,0.49231 -0.31228,0.15614 -2.14173,-0.15991 -2.46154,0 -0.20758,0.10378 -0.28473,0.38852 -0.49231,0.4923 -0.14678,0.0734 -0.37627,-0.11603 -0.49231,0 -0.11603,0.11604 0.11604,0.37627 0,0.49231 -0.23207,0.23208 -0.69106,-0.14678 -0.98461,0 -0.20758,0.10379 -0.28473,0.38852 -0.49231,0.49231 -0.14678,0.0734 -0.37627,-0.11604 -0.49231,0 -0.11604,0.11604 0.11604,0.37627 0,0.49231 -0.11604,0.11604 -0.34553,-0.0734 -0.49231,0 -0.0942,0.0471 -1.92211,1.87499 -1.96923,1.96923 -0.0734,0.14678 0.11604,0.37627 0,0.49231 -0.11603,0.11603 -0.37627,-0.11604 -0.4923,0 -0.11604,0.11603 0.0734,0.34553 0,0.4923 -0.20758,0.41515 -0.77704,0.56947 -0.98462,0.98462 -0.0734,0.14678 0.11604,0.37627 0,0.49231 -0.11604,0.11603 -0.37627,-0.11604 -0.49231,0 -0.11603,0.11603 0.11604,0.37627 0,0.4923 -0.11603,0.11604 -0.37627,-0.11603 -0.4923,0 -0.11604,0.11604 -0.16411,0.49231 0,0.49231 0.15874,0 0.71107,-0.84784 0.98461,-0.98461 0.14678,-0.0734 0.32821,0 0.49231,0"
       style="fill:none;stroke:#000000;stroke-width:1px;stroke-linecap:butt;stroke-linejoin:miter;stroke-opacity:1" />
    <path
       inkscape:connector-curvature="0"
       id="path944"
       d="m 208.73846,388.43077 c -0.1641,0.65641 -0.3282,1.31282 -0.49231,1.96923 -0.1641,0.1641 -0.38852,0.28473 -0.4923,0.49231 -0.0734,0.14678 0,0.3282 0,0.49231 0,0.3282 0.0796,0.6662 0,0.98461 -0.089,0.35599 -0.37627,0.6365 -0.49231,0.98462 -0.0519,0.15568 0.0519,0.33662 0,0.4923 -0.11604,0.34812 -0.40331,0.62863 -0.49231,0.98462 -0.1592,0.63681 0.20758,1.3465 0,1.96923 -0.0734,0.22017 -0.41892,0.27214 -0.49231,0.49231 -0.10378,0.31136 0,0.65641 0,0.98461 0,0.32821 0,0.65641 0,0.98462 0,0.98461 0,1.96923 0,2.95384 0,0.65641 0,1.31283 0,1.96924 0,0.3282 0,0.65641 0,0.98461 0,0.1641 -0.0734,0.34553 0,0.49231 0.10379,0.20757 0.38852,0.28473 0.49231,0.49231 0.15471,0.30942 -0.15471,1.6598 0,1.96923 0.10379,0.20757 0.49231,0.26023 0.49231,0.4923 0,0.23208 -0.32821,0.32821 -0.49231,0.49231 -0.1641,0.1641 -0.29921,0.36358 -0.49231,0.49231 -0.30531,0.20354 -0.69106,0.27214 -0.98461,0.49231 -0.37132,0.27849 -0.6133,0.70612 -0.98462,0.98461 -0.70432,0.52824 -1.68931,0.65366 -2.46154,0.98462 -1.3491,0.57818 -2.58936,1.39104 -3.93846,1.96923 -1.26746,0.5432 -2.2936,0.51646 -3.44615,1.47692 -0.45454,0.37879 -0.615,1.0149 -0.98462,1.47693 -0.28995,0.36244 -0.70612,0.61329 -0.98461,0.98461 -0.22017,0.29356 -0.32821,0.65641 -0.49231,0.98462 -0.1641,0.3282 -0.40331,0.62862 -0.49231,0.98461 -0.0796,0.31841 0,0.65641 0,0.98462 0,0.1641 -0.0519,0.33662 0,0.4923 0.11604,0.34812 0.32821,0.65641 0.49231,0.98462 0.1641,0.32821 0.27214,0.69106 0.49231,0.98462 0.27849,0.37132 0.70612,0.61329 0.98461,0.98461 0.22017,0.29356 0.28877,0.6793 0.49231,0.98462 0.25747,0.38619 0.77704,0.56946 0.98462,0.98461 0.0204,0.0408 0.0211,1.41358 0,1.47692 -0.11604,0.34812 -0.37627,0.63651 -0.49231,0.98462 -0.10379,0.31136 0.14678,0.69106 0,0.98462 -0.52245,1.04489 -0.46217,-0.0603 -0.98462,0.98461 -0.0734,0.14678 0.0734,0.34553 0,0.49231 -0.10378,0.20757 -0.38852,0.28473 -0.4923,0.49231 -0.14678,0.29355 0.14677,0.69106 0,0.98461 -0.10379,0.20758 -0.38852,0.28473 -0.49231,0.49231 -0.14678,0.29355 0.14678,0.69106 0,0.98461 -0.10379,0.20758 -0.38852,0.28474 -0.49231,0.49231 -0.0734,0.14678 0.11604,0.37627 0,0.49231 -0.11604,0.11604 -0.37627,-0.11604 -0.49231,0 -0.11604,0.11604 0.11604,0.37627 0,0.49231 -0.11604,0.11604 -0.37627,-0.11604 -0.49231,0 -0.23207,0.23207 0.23208,0.75254 0,0.98461 -0.23207,0.23208 -0.75253,-0.23207 -0.98461,0 -0.11604,0.11604 0.11604,0.37627 0,0.49231 -0.11604,0.11604 -0.34553,-0.0734 -0.49231,0 -0.20757,0.10379 -0.28473,0.38852 -0.49231,0.49231 -0.14677,0.0734 -0.37627,-0.11604 -0.4923,0 -0.11604,0.11604 0.0734,0.34553 0,0.49231 -0.10379,0.20757 -0.49231,0.72438 -0.49231,0.4923 0,-1.71417 0.69698,-0.59464 1.47692,-0.98461 0.41515,-0.20758 0.65641,-0.65641 0.98462,-0.98462"
       style="fill:none;stroke:#000000;stroke-width:1px;stroke-linecap:butt;stroke-linejoin:miter;stroke-opacity:1" />
    <path
       inkscape:connector-curvature="0"
       id="path946"
       d="m 222.52308,396.8 c 0.65641,0.65641 1.37494,1.25609 1.96923,1.96923 0.46982,0.56379 0.54428,1.38212 0.98461,1.96923 0.27849,0.37132 0.69467,0.62217 0.98462,0.98462 0.73924,0.92405 1.31282,1.96923 1.96923,2.95384 0.3282,0.49231 0.65641,0.98462 0.98461,1.47693 0.32821,0.4923 0.72001,0.9477 0.98462,1.47692 0.23208,0.46415 0.26023,1.01277 0.49231,1.47692 1.65979,2.4897 0.4578,0.40605 1.47692,2.95385 0.13628,0.3407 0.42034,0.6248 0.49231,0.98461 0.0966,0.48275 -0.0965,0.99418 0,1.47693 0.072,0.35982 0.40331,0.62862 0.49231,0.98461 0.0475,0.1899 0.0475,2.76396 0,2.95385 -0.089,0.35599 -0.40331,0.62863 -0.49231,0.98461 -0.0796,0.31841 0.0796,0.66621 0,0.98462 0.29673,0.89105 -0.79751,0.91561 -0.98462,1.47692 -0.10378,0.31136 0.0796,0.66621 0,0.98462 -0.26686,1.06745 -1.21006,1.39408 -1.47692,2.46154 -0.0796,0.3184 0.10379,0.67325 0,0.98461 -0.0734,0.22017 -0.41892,0.27214 -0.49231,0.49231 -0.0908,0.27225 0,2.45807 0,2.95385 0,0.1641 0.0734,0.34553 0,0.4923 -0.10379,0.20758 -0.38852,0.28474 -0.49231,0.49231 -0.0732,0.14645 0,2.74675 0,2.95385 0,0.3282 0,0.65641 0,0.98461 0,0.1641 0.0519,0.33663 0,0.49231 -0.11603,0.34811 -0.40331,0.62863 -0.4923,0.98462 -0.15921,0.63681 0.1592,1.33241 0,1.96923 -0.089,0.35598 -0.32821,0.65641 -0.49231,0.98461 -1.14278,2.28557 -0.0418,-0.28337 -0.49231,1.96923 -0.10177,0.50886 -0.36645,0.97348 -0.49231,1.47693 -0.0398,0.1592 0,0.3282 0,0.4923 0,0.49231 0.0966,0.99418 0,1.47693 -0.072,0.35981 -0.40331,0.62862 -0.4923,0.98461 -0.0796,0.31841 0,0.65641 0,0.98462 0,0.3282 -0.0796,0.66621 0,0.98461 0.089,0.35599 0.40331,0.62863 0.4923,0.98462 0.31373,1.2549 -0.31372,0.71433 0,1.96923 0.089,0.35599 0.32821,0.65641 0.49231,0.98461 0.1641,0.32821 0.37627,0.63651 0.49231,0.98462 0.0519,0.15568 -0.0734,0.34553 0,0.49231 0.20757,0.41515 0.77704,0.56946 0.98461,0.98461 0.0734,0.14678 -0.0734,0.34553 0,0.49231 0.10379,0.20758 0.38852,0.28473 0.49231,0.49231 0.0734,0.14678 0.1641,0.49231 0,0.49231 -0.1641,0 0,-0.32821 0,-0.49231"
       style="fill:none;stroke:#000000;stroke-width:1px;stroke-linecap:butt;stroke-linejoin:miter;stroke-opacity:1" />
    <path
       inkscape:connector-curvature="0"
       id="path948"
       d="m 329.84615,387.44615 c -1.41777,0.23059 -2.71381,0.74214 -3.93846,1.47693 -0.50736,0.30441 -0.96956,0.6802 -1.47692,0.98461 -1.53388,0.92033 -0.64697,0.0253 -2.46154,1.47693 -0.36244,0.28995 -0.62217,0.69466 -0.98461,0.98461 -0.46203,0.36962 -1.0149,0.615 -1.47693,0.98462 -0.72488,0.5799 -1.17321,1.49162 -1.96923,1.96923 -0.44498,0.26699 -1.03194,0.22531 -1.47692,0.4923 -0.79602,0.47761 -1.22659,1.41225 -1.96923,1.96924 -0.29356,0.22016 -0.6793,0.28876 -0.98462,0.4923 -0.1931,0.12874 -0.3282,0.32821 -0.49231,0.49231 -0.56171,0.56172 -1.8487,2.00191 -2.46153,2.46154 -0.29356,0.22017 -0.6793,0.28876 -0.98462,0.49231 -0.1931,0.12873 -0.29921,0.36357 -0.49231,0.4923 -1.78828,1.1922 -0.34814,-0.14416 -1.47692,0.98462 -0.1641,0.1641 -0.3282,0.32821 -0.49231,0.49231 -0.3282,0.1641 -0.72514,0.23284 -0.98461,0.49231 -0.25947,0.25946 -0.28877,0.67929 -0.49231,0.98461 -0.29877,0.44816 -1.25875,1.04057 -1.47692,1.47692 -0.0734,0.14678 0.0734,0.34553 0,0.49231 -0.20758,0.41515 -0.72715,0.59842 -0.98462,0.98462 -0.20354,0.30531 -0.28876,0.6793 -0.49231,0.98461 -0.12873,0.1931 -0.36357,0.29921 -0.4923,0.49231 -0.20355,0.30532 -0.28877,0.6793 -0.49231,0.98462 -0.12873,0.19309 -0.38852,0.28473 -0.49231,0.4923 -1.18984,2.37968 -0.11679,0.58396 -0.49231,2.46154 -0.32655,1.63278 -0.45948,1.14872 -0.98461,2.46154 -0.57719,1.44297 -0.89974,2.9878 -1.47693,4.43077 -0.13628,0.3407 -0.35602,0.64392 -0.4923,0.98461 -0.19273,0.48183 -0.39054,0.96807 -0.49231,1.47693 -0.0644,0.32183 0.14678,0.69106 0,0.98461 -0.20758,0.41515 -0.70613,0.6133 -0.98462,0.98462 -0.22016,0.29355 -0.3282,0.65641 -0.4923,0.98461 -0.32821,0.65641 -0.60704,1.33993 -0.98462,1.96923 -0.30442,0.50737 -0.6802,0.96957 -0.98462,1.47693 -0.18879,0.31465 -0.30351,0.66996 -0.4923,0.98461 -2.40952,4.01586 0.34958,-0.6302 -1.96923,2.46154 -0.22017,0.29356 -0.28877,0.6793 -0.49231,0.98462 -0.12873,0.1931 -0.36358,0.29921 -0.49231,0.4923 -0.20354,0.30532 -0.3282,0.65641 -0.49231,0.98462 -0.1641,0.32821 -0.37627,0.6365 -0.4923,0.98462 -0.10379,0.31136 0.14677,0.69106 0,0.98461 -0.10379,0.20758 -0.38852,0.28473 -0.49231,0.49231 -0.0734,0.14678 0.11604,0.37627 0,0.49231 -0.11604,0.11603 -0.37627,-0.11604 -0.49231,0 -0.11604,0.11603 0.11604,0.37627 0,0.4923 -0.11604,0.11604 -0.37627,-0.11603 -0.49231,0 -0.11604,0.11604 0.14678,0.41892 0,0.49231 -0.29355,0.14678 -0.67325,-0.10379 -0.98461,0 -0.22017,0.0734 -0.27214,0.41892 -0.49231,0.49231 -0.31136,0.10379 -0.66278,-0.0644 -0.98462,0 -4.04779,1.34926 1.03788,-0.17298 -2.95384,0.49231 -1.02376,0.17062 -1.95591,0.69949 -2.95385,0.98461 -1.24911,0.35689 -2.26577,0.47874 -3.44615,0.98462 -2.62564,1.12527 -1.13706,0.81718 -3.44616,1.47692 -0.65057,0.18588 -1.34732,0.22578 -1.96923,0.49231 -0.54384,0.23307 -0.96956,0.6802 -1.47692,0.98461 -0.6293,0.37759 -1.3586,0.57753 -1.96923,0.98462 -0.1931,0.12873 -0.28473,0.38852 -0.49231,0.49231 -0.14678,0.0734 -0.41892,-0.14678 -0.49231,0 -0.14677,0.29355 0.14678,0.69106 0,0.98461 -0.0734,0.14678 -0.4923,0.1641 -0.4923,0 0,-0.1641 0.34553,0.0734 0.4923,0 0.20758,-0.10379 0.32821,-0.3282 0.49231,-0.49231"
       style="fill:none;stroke:#000000;stroke-width:1px;stroke-linecap:butt;stroke-linejoin:miter;stroke-opacity:1" />
    <path
       inkscape:connector-curvature="0"
       id="path950"
       d="m 340.18462,390.89231 c 0,2.62564 0,5.25128 0,7.87692 0,0.65641 0.12873,1.32557 0,1.96923 -0.10178,0.50886 -0.32821,0.98462 -0.49231,1.47692 -0.39774,1.19321 -0.82582,2.36098 -1.47693,3.44616 -1.81833,3.03056 -0.11418,0.14273 -1.96923,2.46154 -0.73924,0.92405 -1.21166,2.04476 -1.96923,2.95384 -0.44571,0.53486 -1.03121,0.94207 -1.47692,1.47693 -0.37878,0.45454 -0.56623,1.05854 -0.98462,1.47692 -0.41838,0.41838 -0.99545,0.64071 -1.47692,0.98461 -0.66768,0.47692 -1.33889,0.95165 -1.96923,1.47693 -1.99583,1.66319 -0.11752,0.19586 -1.47692,2.46154 -0.23881,0.398 -0.70613,0.61329 -0.98462,0.98461 -0.14533,0.19378 -1.42305,2.73838 -1.47692,2.95385 -0.0475,0.18989 -0.0475,2.76395 0,2.95384 0.17799,0.71198 0.75254,1.27301 0.98461,1.96923 0.21397,0.6419 0.22578,1.34733 0.49231,1.96924 0.23308,0.54384 0.65641,0.98461 0.98462,1.47692 0.3282,0.49231 0.61499,1.0149 0.98461,1.47692 0.28996,0.36244 0.70613,0.6133 0.98462,0.98462 0.44033,0.58711 0.57753,1.3586 0.98461,1.96923 0.60053,0.90079 0.62767,0.0491 0.98462,1.47692 0.0796,0.31841 -0.14678,0.69106 0,0.98462 0.0734,0.14677 0.37627,-0.11604 0.49231,0 0.11604,0.11603 0,0.3282 0,0.4923 0,0.32821 0,0.65641 0,0.98462 0,0.98461 0,1.96923 0,2.95385 0,0.22171 0.0749,1.32709 0,1.47692 -0.10379,0.20757 -0.38852,0.28473 -0.49231,0.49231 -0.0734,0.14677 0,0.3282 0,0.4923 0,0.2071 0.0732,2.8074 0,2.95385 -0.60835,1.21669 -0.49231,-0.16993 -0.49231,0.98462 0,0.82051 0,1.64102 0,2.46153 0,0.3235 0.0926,1.19917 0,1.47693 -0.11604,0.34811 -0.37627,0.6365 -0.49231,0.98461 -0.0519,0.15568 0,0.32821 0,0.49231 0,1.15455 -0.11603,-0.23208 0.49231,0.98462 0.0734,0.14677 -0.11604,0.60834 0,0.4923 0.25947,-0.25947 0.32821,-0.65641 0.49231,-0.98461 0.1641,-0.32821 0.3282,-0.65641 0.49231,-0.98462"
       style="fill:none;stroke:#000000;stroke-width:1px;stroke-linecap:butt;stroke-linejoin:miter;stroke-opacity:1" />
    <path
       inkscape:connector-curvature="0"
       id="path952"
       d="m 360.36923,386.46154 c 0.47761,0.92582 -0.2388,1.99863 0,2.95384 0.089,0.35599 0.40331,0.62863 0.49231,0.98462 0.75133,3.00532 -1.29175,-1.70125 0.49231,2.46154 0.57818,1.3491 1.37311,2.59719 1.96923,3.93846 0.35891,0.80755 0.55544,1.68903 0.98461,2.46154 0.39848,0.71726 1.04205,1.27344 1.47693,1.96923 0.77792,1.24467 1.19131,2.69379 1.96923,3.93846 0.43487,0.69579 1.10997,1.23534 1.47692,1.96923 2.11076,4.22153 -1.5929,-0.48094 1.47692,4.43077 0.369,0.5904 1.07225,0.91038 1.47693,1.47692 1.18583,1.66017 1.03793,2.45532 1.47692,4.43077 0.14678,0.6605 0.18972,1.36405 0.49231,1.96923 0.36694,0.73389 1.14368,1.21944 1.47692,1.96923 0.33984,0.76465 0.26243,1.65698 0.49231,2.46154 0.1008,0.35283 0.37627,0.6365 0.4923,0.98462 0.21397,0.64189 0.32821,1.31282 0.49231,1.96923 0.16411,0.65641 0.38108,1.30182 0.49231,1.96923 0.054,0.32374 -0.0644,0.66278 0,0.98462 0.48976,2.44881 0.25892,0.63453 1.47692,2.46153 0.091,0.13655 -0.0519,0.33663 0,0.49231 0.11604,0.34812 0.40331,0.62863 0.49231,0.98462 0.0796,0.3184 0,0.65641 0,0.98461 0,0.1641 -0.0734,0.34553 0,0.49231 0.60835,1.21669 0.49231,-0.16993 0.49231,0.98462 0,0.4923 -0.1194,0.99931 0,1.47692 0.089,0.35599 0.37627,0.6365 0.49231,0.98461 0.15568,0.46705 -0.11941,0.99932 0,1.47693 0.089,0.35599 0.40331,0.62862 0.4923,0.98461 0.19901,0.79602 -0.16091,1.65696 0,2.46154 0.072,0.35982 0.42035,0.6248 0.49231,0.98462 0.0966,0.48274 -0.0809,0.99131 0,1.47692 0.17063,1.02375 0.81399,1.93009 0.98462,2.95385 0.0809,0.4856 -0.0809,0.99131 0,1.47692 0.0853,0.51188 0.3282,0.98461 0.4923,1.47692 0.16411,0.49231 0.29958,0.9951 0.49231,1.47692 0.67907,1.69767 0.44036,0.2845 0.98462,2.46154 0.0398,0.15921 -0.0519,0.33663 0,0.49231 0.11604,0.34811 0.40331,0.62863 0.49231,0.98462 0.0796,0.3184 -0.10379,0.67325 0,0.98461 0.0734,0.22017 0.38852,0.28473 0.4923,0.49231 0.14711,0.29422 -0.32408,0.98461 0.49231,0.98461 0.1641,0 0,-0.3282 0,-0.4923 0,-0.32821 0,-0.65641 0,-0.98462"
       style="fill:none;stroke:#000000;stroke-width:1px;stroke-linecap:butt;stroke-linejoin:miter;stroke-opacity:1" />
    <path
       inkscape:connector-curvature="0"
       id="path954"
       d="m 352.49231,404.18462 c 0.3282,1.14871 0.45033,2.37759 0.98461,3.44615 0.31137,0.62272 1.02383,0.94831 1.47693,1.47692 0.53398,0.62298 0.94294,1.34625 1.47692,1.96923 0.4531,0.52862 1.02382,0.94831 1.47692,1.47693 1.06797,1.24596 1.87323,2.70346 2.95385,3.93846 1.06976,1.22258 2.40615,2.19815 3.44615,3.44615 1.76361,2.11633 0.36676,0.73351 1.47693,2.95385 0.10378,0.20757 0.41891,0.27214 0.4923,0.49231 0.0358,0.10723 0.0606,2.3403 0,2.46153 -0.10378,0.20758 -0.36357,0.29921 -0.4923,0.49231 -0.20355,0.30532 -0.32821,0.65641 -0.49231,0.98462 -0.49231,0.98461 -0.98462,1.96923 -1.47693,2.95384 -0.1641,0.32821 -0.28876,0.6793 -0.4923,0.98462 -0.12874,0.1931 -0.43602,0.26716 -0.49231,0.49231 -1.05915,4.23657 1.34668,-1.03542 -0.98462,2.46153 -0.091,0.13655 0,0.32821 0,0.49231 0,0.32821 0.0796,0.66621 0,0.98462 -0.089,0.35599 -0.37627,0.6365 -0.4923,0.98461 -0.0519,0.15568 0,0.32821 0,0.49231 0,0.82051 0,1.64103 0,2.46154 0,2.13333 0,4.26667 0,6.4 0,1.11224 0.0734,-0.22017 -0.49231,1.47692 -0.049,0.14693 -0.0141,3.40376 0,3.44616 0.60834,1.82503 0.49231,-0.6001 0.49231,0.98461 0,0.34895 -0.0636,2.82656 0,2.95385 0.10378,0.20757 0.3282,0.3282 0.4923,0.49231"
       style="fill:none;stroke:#000000;stroke-width:1px;stroke-linecap:butt;stroke-linejoin:miter;stroke-opacity:1" />
    <path
       inkscape:connector-curvature="0"
       id="path956"
       d="m 348.55385,378.09231 c 1.62311,0.58186 0.2277,1.66771 0.4923,2.46154 0.11604,0.34811 0.35603,0.64391 0.49231,0.98461 0.92053,2.30132 -0.0172,0.83151 1.47692,3.44616 0.29356,0.51372 0.72001,0.9477 0.98462,1.47692 0.39521,0.79042 0.55544,1.68903 0.98462,2.46154 0.39847,0.71725 1.06983,1.25682 1.47692,1.96923 0.25746,0.45056 0.28789,0.99994 0.49231,1.47692 0.28909,0.67455 0.65641,1.31282 0.98461,1.96923 0.1641,0.32821 0.40331,0.62863 0.49231,0.98462 0.0862,0.34493 0,2.77559 0,2.95384 0,0.25744 0.0647,1.83979 0,1.96923 -0.10379,0.20758 -0.38852,0.28474 -0.49231,0.49231 -0.0734,0.14678 0.11604,0.37627 0,0.49231 -0.11604,0.11604 -0.37627,-0.11604 -0.49231,0 -0.11603,0.11604 0,0.3282 0,0.49231 0,0.1641 0,0.3282 0,0.4923 0,1.31283 0,2.62565 0,3.93847 0,0.3282 0,0.65641 0,0.98461 0,0.32821 0.10379,0.67325 0,0.98462 -0.0734,0.22016 -0.43602,0.26716 -0.4923,0.4923 -0.007,0.0284 -0.0532,3.2334 0,3.44616 0.089,0.35599 0.40331,0.62863 0.4923,0.98461 0.0796,0.31841 -0.10378,0.67326 0,0.98462 0.26552,0.79655 0.98462,0.15349 0.98462,1.47692"
       style="fill:none;stroke:#000000;stroke-width:1px;stroke-linecap:butt;stroke-linejoin:miter;stroke-opacity:1" />
  </g>
  <g
     id="g872"
     class=""
     transform="matrix(0.51310868,0,0,0.51310868,125.51859,114.38918)">
    <g
       id="g870">
      <path
         id="path866"
         class="selected"
         d="M 35.31,22.3 C 27.498,42.766 22.138,64.643 20,87.378 l 103.705,27.79 -4.838,18.052 -99.873,-26.763 c -0.012,0.954 -0.035,1.905 -0.035,2.86 0,14.055 1.196,27.83 3.48,41.23 h 94.146 v 18.687 H 26.393 c 3.368,13.324 7.83,26.207 13.29,38.547 l 79.184,-21.216 4.838,18.05 -75.64,20.27 c 5.994,11.096 12.817,21.67 20.396,31.636 l 61.933,-35.756 9.343,16.183 -59.22,34.192 c 7.782,8.728 16.18,16.885 25.132,24.4 l 44.73,-44.726 13.214,13.215 -43.055,43.052 c 8.963,6.406 18.374,12.215 28.186,17.357 l 28.734,-49.772 16.186,9.346 -27.987,48.472 c 12.545,5.367 25.63,9.697 39.156,12.87 0.99,3.566 2.08,7.103 3.25,10.593 -12.36,9.993 -24.163,20.49 -35.12,31.728 -4.458,-2.16 -9.46,-3.373 -14.75,-3.373 -18.707,0 -33.874,15.164 -33.874,33.873 0,1.715 0.13,3.402 0.377,5.05 2.02,-11.514 12.06,-20.265 24.153,-20.265 3.103,0 6.068,0.582 8.8,1.633 -10.103,12.102 -19.193,25.08 -26.906,39.23 13.897,-7.544 27.684,-15.755 41.15,-24.764 0.96,2.63 1.485,5.468 1.485,8.43 0,12.122 -8.796,22.184 -20.352,24.168 1.685,0.258 3.412,0.393 5.168,0.393 18.71,0 33.873,-15.168 33.873,-33.875 0,-4.17 -0.757,-8.16 -2.134,-11.848 10.033,-7.467 19.823,-15.43 29.26,-23.984 2.978,5.705 6.203,11.034 9.65,15.818 l -43.53,87.17 c 48.267,22.47 115.7,22.76 157.872,0 l -42.13,-84.36 c 3.722,-4.81 7.21,-10.25 10.426,-16.14 8.577,7.617 17.428,14.77 26.483,21.508 -1.375,3.685 -2.13,7.67 -2.13,11.836 0,18.707 15.165,33.873 33.874,33.873 1.758,0 3.486,-0.132 5.172,-0.39 -11.56,-1.983 -20.355,-12.045 -20.355,-24.168 0,-2.964 0.525,-5.805 1.49,-8.435 13.464,9.006 27.247,17.223 41.143,24.767 -7.71,-14.148 -16.78,-27.136 -26.877,-39.238 2.726,-1.045 5.682,-1.623 8.775,-1.623 12.09,0 22.13,8.75 24.15,20.262 0.246,-1.647 0.377,-3.332 0.377,-5.047 0,-18.71 -15.166,-33.873 -33.875,-33.873 -5.275,0 -10.268,1.205 -14.72,3.355 -10.007,-10.27 -20.74,-19.908 -31.946,-29.12 1.938,-5.52 3.658,-11.18 5.132,-16.886 7.91,-2.368 15.65,-5.14 23.2,-8.283 l -28.497,-49.356 16.186,-9.346 29.34,50.816 c 9.98,-5.11 19.555,-10.9 28.672,-17.308 l -44.146,-44.147 13.215,-13.216 45.926,45.922 c 9.145,-7.557 17.72,-15.785 25.666,-24.6 l -60.95,-35.19 9.343,-16.182 63.748,36.804 c 7.76,-10.087 14.746,-20.807 20.87,-32.07 l -77.93,-20.883 4.837,-18.05 81.534,21.847 c 5.588,-12.533 10.157,-25.625 13.584,-39.178 h -92.836 v -18.687 h 96.777 c 2.282,-13.4 3.48,-27.174 3.48,-41.23 0,-1.19 -0.025,-2.376 -0.044,-3.563 L 397.652,133.22 392.816,115.166 499.09,86.69 C 496.91,64.2 491.57,42.56 483.836,22.3 h -0.004 c -26.517,41.51 -83.592,73.934 -154.764,87.02 12.67,15.603 20.442,35.52 20.442,57.233 0,31.196 -15.723,58.718 -39.604,75 -21.27,-12.407 -42.907,-28.878 -45.52,-43.814 l 17.653,-3.81 -2.235,-10.352 c 15.67,-11.335 33.936,-9.138 53.433,-0.01 l -18.302,-40.414 -41.903,9.04 -2.846,-13.188 V 139 l -80.87,17.453 20.458,30.266 c -8.595,19.678 -2.717,41.68 5.45,58.56 -27.204,-15.57 -45.592,-44.998 -45.592,-78.73 0,-21.713 7.772,-41.63 20.44,-57.232 C 118.904,96.234 61.83,63.81 35.312,22.3 Z"
         inkscape:connector-curvature="0"
         style="fill:url(#gradient-2);stroke:#4a4a4a;stroke-width:10;stroke-opacity:1" />
      <path
         id="path868"
         class=""
         d="m 251.76,154.867 c 5.244,-0.056 9.98,3.573 11.13,8.9 1.312,6.085 -2.557,12.084 -8.644,13.397 -6.087,1.313 -12.085,-2.556 -13.398,-8.643 -1.314,-6.085 2.556,-12.086 8.642,-13.4 0.76,-0.163 1.52,-0.245 2.27,-0.253 z"
         inkscape:connector-curvature="0"
         style="fill:#c9c9c9;fill-opacity:1;stroke:#4a4a4a;stroke-width:10;stroke-opacity:1" />
    </g>
  </g>
</svg>
