<?xml version="1.0" encoding="UTF-8" standalone="no"?>
<svg
   xmlns:dc="http://purl.org/dc/elements/1.1/"
   xmlns:cc="http://creativecommons.org/ns#"
   xmlns:rdf="http://www.w3.org/1999/02/22-rdf-syntax-ns#"
   xmlns:svg="http://www.w3.org/2000/svg"
   xmlns="http://www.w3.org/2000/svg"
   xmlns:sodipodi="http://sodipodi.sourceforge.net/DTD/sodipodi-0.dtd"
   xmlns:inkscape="http://www.inkscape.org/namespaces/inkscape"
   viewBox="0 0 512 512"
   style="height: 64px; width: 64px;"
   version="1.1"
   id="svg20"
   sodipodi:docname="ardent-fragment.svg"
   inkscape:export-filename="/home/plic/Téléchargements/ardent-fragment.png"
   inkscape:export-xdpi="12"
   inkscape:export-ydpi="12"
   inkscape:version="0.92.3 (2405546, 2018-03-11)">
  <metadata
     id="metadata26">
    <rdf:RDF>
      <cc:Work
         rdf:about="">
        <dc:format>image/svg+xml</dc:format>
        <dc:type
           rdf:resource="http://purl.org/dc/dcmitype/StillImage" />
        <dc:title></dc:title>
      </cc:Work>
    </rdf:RDF>
  </metadata>
  <defs
     id="defs24">
    <radialGradient
       id="gradient-4"
       gradientTransform="matrix(1.1653623,0,0,0.85810221,-18.686966,-9.565288)"
       cx="308.26648"
       cy="152.43522"
       fx="308.26648"
       fy="152.43522"
       r="108.25633"
       gradientUnits="userSpaceOnUse">
      <stop
         id="stop28"
         stop-opacity="1"
         stop-color="#f8e71c"
         offset="0%" />
      <stop
         id="stop30"
         stop-opacity="1"
         stop-color="#f5a623"
         offset="100%" />
    </radialGradient>
  </defs>
  <sodipodi:namedview
     pagecolor="#ffffff"
     bordercolor="#666666"
     borderopacity="1"
     objecttolerance="10"
     gridtolerance="10"
     guidetolerance="10"
     inkscape:pageopacity="0"
     inkscape:pageshadow="2"
     inkscape:window-width="863"
     inkscape:window-height="480"
     id="namedview22"
     showgrid="false"
     inkscape:zoom="0.23046875"
     inkscape:cx="385.11853"
     inkscape:cy="76.753002"
     inkscape:window-x="2601"
     inkscape:window-y="474"
     inkscape:window-maximized="0"
     inkscape:current-layer="svg20" />
  <g
     class=""
     transform="translate(-8.6779661,73.762712)"
     id="g18">
    <g
       id="g16">
      <path
         d="m 322.248,85.684 -260.816,139.033 -41.145,109.94 7.233,3.85 153.673,81.8 L 489.688,256.092 451.936,156.189 322.248,85.683 Z"
         class=""
         id="path2"
         inkscape:connector-curvature="0"
         style="fill:#4a4a4a;fill-opacity:1" />
      <path
         d="m 441.283,180.871 25.11,66.45 -102.56,54.594 66.557,-115.275 10.893,-5.77 z"
         class=""
         id="path4"
         inkscape:connector-curvature="0"
         style="fill:#9b9b9b;fill-opacity:1" />
      <path
         d="m 351.707,228.288 -66.75,115.612 -41.67,22.182 72.195,-118.62 36.225,-19.175 z"
         class=""
         id="path6"
         inkscape:connector-curvature="0"
         style="fill:#9b9b9b;fill-opacity:1" />
      <path
         d="m 72.38,248.78 28.21,14.933 -54.012,54.012 z"
         class=""
         id="path8"
         inkscape:connector-curvature="0"
         style="fill:#9b9b9b;fill-opacity:1" />
      <path
         d="m 283.207,264.547 -72.017,118.323 0.26,0.16 -17.208,9.16 5.795,-83.618 z"
         class=""
         id="path10"
         inkscape:connector-curvature="0"
         style="fill:#9b9b9b;fill-opacity:1" />
      <path
         d="m 117.873,272.859 16.963,8.98 -60.445,60.445 -16.93,-9.012 60.413,-60.414 z"
         class=""
         id="path12"
         inkscape:connector-curvature="0"
         style="fill:#9b9b9b;fill-opacity:1" />
      <path
         d="m 181.42,306.9 -6.174,89.07 -54.1,-28.798 z"
         class="selected"
         id="path14"
         inkscape:connector-curvature="0"
         style="fill:#9b9b9b;fill-opacity:1" />
    </g>
  </g>
  <path
     id="path35"
     class=""
     d="m 239.61303,14.204712 c 0,0 -23,22.66 -23,37.26 0,17.83 28.3,45.47 28.3,45.47 -13.7,-28.35 -15.3,-55.08 -5.3,-82.73 z"
     inkscape:connector-curvature="0"
     style="fill:#f8e71c;fill-opacity:1" />
  <path
     id="path37"
     class=""
     d="m 386.51303,7.654712 c 0,0 3.6,25.13 1.7,37.5 -1.4,8.92 -9.2,25.46 -9.2,25.46 0,0 32.5,-14.23 34,-29.07 1.4,-14.27 -26.5,-33.89 -26.5,-33.89 z"
     inkscape:connector-curvature="0"
     style="fill:#f8e71c;fill-opacity:1" />
  <path
     id="path39"
     class=""
     d="m 341.31303,28.344712 c -0.1,7.08 -0.9,14.2 -2.3,21.03 -3.5,15.82 -9.8,30.33 -21.2,38.64 -8.2,6.02 -20.4,8.32 -32.4,3.02 -9.2,-4.11 -18.9,-11.68 -30.3,-23.75 -1.3,9.87 -0.3,21.82 6.9,34.849998 l 12.2,22.1 -23.5,-9.5 c -14.1,-5.7 -25,-17.599998 -36.1,-31.269998 -0.5,19.869998 -0.4,41.269998 3.3,60.269998 5.3,27 16.3,47.8 43.7,56.2 -6.1,-10.9 -6.2,-23.3 0.8,-37 20.4,24.8 24.4,2.8 33.2,-1.6 5.8,-2.9 9.5,-15.9 5.7,-42.3 7.5,13.3 15.6,32 29.5,35.4 18.6,4.6 32.8,-13.6 46.5,-34.8 0,0 -7.1,32 0,43.2 3.1,4.9 5.8,8.4 22.9,7.9 -15.8,18.8 -30.8,30.3 -59.1,43.4 52,-2.8 98,-37.7 125.6,-72.1 -13.1,3.5 -21.4,4.3 -34.5,3.8 l -23.1,-0.8 17.6,-15 c 11.7,-10.1 19.7,-29.9 23.4,-50.599998 2.3,-12.57 2.9,-25.22 2.6,-36.09 -7.5,7.42 -15.8,15.46 -24.9,23.68 -15.3,13.73 -31.3,26.81 -46.2,33.509998 l -9.8,4.4 -2.6,-10.399998 c -5.7,-23.11 -14.1,-48.17 -27.9,-66.19 z"
     inkscape:connector-curvature="0"
     style="fill:url(#gradient-4)" />
</svg>
