<svg xmlns="http://www.w3.org/2000/svg" viewBox="0 0 512 512" style="height: 64px; width: 64px;"><g class="" transform="translate(0,0)" style=""><g transform="translate(0, 0) scale(1, 1) rotate(-90, 256, 256) skewX(0) skewY(0)"><path d="M77.85 11.848L87.385 82.496L17.967 71.322L59.475 127.392L48.348 450.107C36.636 463.342 27.632 478.957 22.525 498.021C96.723 442.187 175.405 426.419 246.131 396.638L210.218 360.724C157.096 385.956 104.444 403.214 67.671 432.071L77.345 151.531L85.405 162.419L87.605 166.889L158.909 166.889L358.723 394.03C374.341 380.403 388.328 365.62 401.383 349.385L171.506 155.605L171.506 84.226L159.646 75.061L433.24 64.401C403.25 100.761 386.4 153.471 361.85 206.817L398.408 243.377C427.628 173.137 443.422 95.287 498.67 21.87C480.13 26.84 464.98 34.885 452.066 45.473L452.046 44.967L136.609 57.257L77.849 11.847Z" class="" fill="#d0021b" fill-opacity="1" stroke="#4a4a4a" stroke-opacity="1" stroke-width="4"></path><path d="M102.463 54.486L152.818 93.402L152.818 148.197L99.236 148.197L98.629 148.051L60.272 97.063L109.272 104.953L102.462 54.487Z" class="selected" fill="#fff" fill-opacity="1" stroke="#4a4a4a" stroke-opacity="1" stroke-width="4"></path><path d="M350.566 221.966C342.404 235.241 333.522 247.801 323.98 259.693L354.707 285.596C365.867 276.846 377.275 268.42 388.767 260.164L350.567 221.964Z" class="" fill="#d0021b" fill-opacity="1" stroke="#4a4a4a" stroke-opacity="1" stroke-width="4"></path><path d="M450.572 311.706C414.826 368.52 375.184 412.43 315.88 447.67C375.023 468.353 434.368 484.972 494.68 491.65C485.974 430.99 470.703 371.088 450.572 311.71Z" class="" fill="#d0021b" fill-opacity="1" stroke="#4a4a4a" stroke-opacity="1" stroke-width="4"></path><path d="M266.492 317.48C253.072 328.46 238.912 338.666 224.078 348.154L261.548 385.624C270.296 371.054 280.168 357.67 290.875 345.194L266.492 317.48Z" class="" fill="#d0021b" fill-opacity="1" stroke="#4a4a4a" stroke-opacity="1" stroke-width="4"></path></g></g></svg>