<?xml version="1.0" encoding="UTF-8" standalone="no"?>
<svg
   xmlns:dc="http://purl.org/dc/elements/1.1/"
   xmlns:cc="http://creativecommons.org/ns#"
   xmlns:rdf="http://www.w3.org/1999/02/22-rdf-syntax-ns#"
   xmlns:svg="http://www.w3.org/2000/svg"
   xmlns="http://www.w3.org/2000/svg"
   xmlns:sodipodi="http://sodipodi.sourceforge.net/DTD/sodipodi-0.dtd"
   xmlns:inkscape="http://www.inkscape.org/namespaces/inkscape"
   viewBox="0 0 512 512"
   style="height: 64px; width: 64px;"
   version="1.1"
   id="svg22"
   sodipodi:docname="orb-wand (4).svg"
   inkscape:version="0.92.3 (2405546, 2018-03-11)"
   inkscape:export-filename="/home/plic/Téléchargements/magic-wand-ombre-mortelle.png"
   inkscape:export-xdpi="24"
   inkscape:export-ydpi="24">
  <metadata
     id="metadata28">
    <rdf:RDF>
      <cc:Work
         rdf:about="">
        <dc:format>image/svg+xml</dc:format>
        <dc:type
           rdf:resource="http://purl.org/dc/dcmitype/StillImage" />
        <dc:title></dc:title>
      </cc:Work>
    </rdf:RDF>
  </metadata>
  <defs
     id="defs26" />
  <sodipodi:namedview
     pagecolor="#ffffff"
     bordercolor="#666666"
     borderopacity="1"
     objecttolerance="10"
     gridtolerance="10"
     guidetolerance="10"
     inkscape:pageopacity="0"
     inkscape:pageshadow="2"
     inkscape:window-width="1549"
     inkscape:window-height="955"
     id="namedview24"
     showgrid="false"
     inkscape:zoom="1.0689466"
     inkscape:cx="167.77144"
     inkscape:cy="256.82201"
     inkscape:window-x="2284"
     inkscape:window-y="90"
     inkscape:window-maximized="0"
     inkscape:current-layer="svg22" />
  <path
     d="m 355.94505,-1.6753853 c -84.54035,0 -153.06247,68.5166513 -153.06247,153.0611153 0,84.53762 68.51664,153.0611 153.0611,153.0611 84.53763,0 153.10216,-68.51664 153.10216,-153.0611 0,-84.537623 -68.56043,-153.0611153 -153.10352,-153.0611153 z"
     class=""
     id="path2"
     inkscape:connector-curvature="0"
     style="fill:#784421;fill-opacity:1;stroke-width:1.36814392" />
  <path
     d="m 356.2589,5.7604993 c 80.25117,0 145.31463,65.0665747 145.31463,145.3146307 0,80.25429 -65.06815,145.31461 -145.31463,145.31461 -80.25586,0 -145.26774,-65.06658 -145.26774,-145.31461 0,-51.61638 26.88789,-96.927987 67.43223,-122.704926 -7.44855,8.950131 -11.96268,20.450299 -11.96268,33.006732 0,28.52698 23.13472,51.660124 51.6617,51.660124 28.52541,0 51.66012,-23.133144 51.66012,-51.660124 0,-27.287898 -21.19093,-49.578848 -48.00069,-51.466377 11.05172,-2.6875389 22.59407,-4.1500597 34.4755,-4.1500597 z"
     class=""
     id="path4"
     inkscape:connector-curvature="0"
     style="fill:#ffe0af;fill-opacity:1;stroke-width:1.56252289" />
  <path
     d="m 189.13611,208.95082 c -0.98487,9.07572 -2.72644,17.36913 -5.23868,24.91982 l 91.38587,91.38586 c 7.50179,-2.5297 15.74281,-4.34578 24.73821,-5.3842 L 189.13611,208.95198 Z"
     class=""
     id="path8"
     inkscape:connector-curvature="0"
     style="fill:#9b9b9b;fill-opacity:1;stroke-width:1.16415107" />
  <path
     d="m 181.85663,246.60882 c -5.71598,8.53905 -12.89646,15.59148 -21.53679,21.20851 l 81.01793,81.05402 c 5.63682,-8.62636 12.71253,-15.80917 21.24575,-21.5368 z"
     class=""
     id="path10"
     inkscape:connector-curvature="0"
     style="fill:#4a4a4a;fill-opacity:1;stroke-width:1.16415107" />
  <path
     d="m 147.43729,269.71261 c -7.45755,2.48663 -15.59729,4.32599 -24.40992,5.45638 37.88614,36.91756 72.81183,72.81299 110.81205,110.81321 1.16765,-8.77071 3.02098,-16.87786 5.52972,-24.30165 l -91.93068,-91.96794 z"
     class=""
     id="path12"
     inkscape:connector-curvature="0"
     style="fill:#9b9b9b;fill-opacity:1;stroke-width:1.16415107" />
  <path
     d="M 141.17525,300.0947 3.295527,437.57396 v 25.53798 L 153.76206,312.68034 141.17525,300.09586 Z"
     class=""
     id="path14"
     inkscape:connector-curvature="0"
     style="fill:#592f0a;fill-opacity:1;stroke-width:1.16415107" />
  <path
     d="M 169.11488,328.03433 3.295527,493.85135 v 15.82664 h 62.538197 l 142.460666,-142.463 z"
     class=""
     id="path16"
     inkscape:connector-curvature="0"
     style="fill:#8b572a;fill-opacity:1;stroke-width:1.16415107" />
</svg>
