<svg xmlns="http://www.w3.org/2000/svg" viewBox="0 0 512 512" style="height: 64px; width: 64px;"><g class="" transform="translate(0,0)" style="touch-action: none;"><g><path d="M255.233 61.009C190.247 60.46 114.077 82.779 22.463 147.179C20.339 148.315 19.607 148.949 18.8 149.755C18.47 171.842 18.853 193.95 18.969 216.042C60.103 241.35 119.598 261.857 160.839 271.284C120.833 326.268 95.082 384.046 76.046 440.558L74.13 446.243L123.716 489.716L128.901 479.192C158.82 418.484 184.09 356.736 223.733 300.092C231.163 306.318 239.93 312.042 250.95 311.22C256.405 310.813 260.54 308.699 263.92 305.956L267.755 306.114C278.951 306.574 289.88 305.774 299.804 302.324C302.62 301.346 305.342 300.115 307.937 298.646C350.919 349.849 372.993 420.4 388.231 476.166L392.286 491L450.096 433.959L447.899 428.419C428.971 380.72 410.246 317.929 372.46 268.58C412.66 257.786 449.194 241.262 480.786 220.455C491.426 213.445 486.031 217.008 493.331 211.838L491.808 150.098C487.536 147.444 485.503 146.44 481.687 144.387C430.22 116.703 372.399 77.21 298.489 64.805C284.193 62.4 269.729 61.13 255.233 61.008Z" class="" fill="#4a4a4a" fill-opacity="1" stroke="#4a4a4a" stroke-opacity="1" stroke-width="10"></path><path d="M254.987 78.937C269.049 79.087 282.529 80.379 295.511 82.557C362.678 93.831 417.012 129.533 468.353 157.562C458.781 162.705 449.046 167.537 439.161 172.05C392.009 143.27 341.007 118.643 283.796 110.892C218.504 102.046 145.678 115.818 63.486 169.097C55.412 165.37 47.43 161.446 39.548 157.327C125.809 98.152 195.605 78.301 254.988 78.937Z" class="" fill="#000000" fill-opacity="1" stroke="#4a4a4a" stroke-opacity="1" stroke-width="10"></path><path d="M247.083 126.351C258.759 126.381 270.183 127.212 281.38 128.73C330.663 135.406 375.921 155.736 418.737 180.8C386.672 193.673 353.856 202.775 320.532 207.937C308.606 194.251 291.522 188.854 274.685 186.735L268.462 185.952L265.784 191.11C261.189 189.174 256.317 187.156 252.147 185.769C247.81 184.338 244.077 183.107 239.287 183.28C218.868 184.018 206.066 192.89 199.683 201.995C198.198 204.12 196.929 206.387 195.893 208.763C158.493 203.497 120.841 193.239 83.253 177.743C143.798 140.442 197.705 126.224 247.083 126.351Z" class="" fill="#c9c9c9" fill-opacity="1" stroke="#4a4a4a" stroke-opacity="1" stroke-width="10"></path><path d="M474.778 174.292L475.19 202.384C442.224 224.886 403.153 242.528 359.642 253.228C351.309 244.093 342.142 235.613 332.005 227.993C331.545 226.679 331.042 225.381 330.495 224.101C380.061 215.647 428.458 198.871 474.778 174.292Z" class="" fill="#000000" fill-opacity="1" stroke="#4a4a4a" stroke-opacity="1" stroke-width="10"></path><path d="M37.28 176.136C89.243 202.49 141.8 218.962 193.985 226.181C194.363 227.118 194.79 228.011 195.263 228.866C187.502 237.468 180.029 246.325 172.856 255.423C128.94 246.413 83.382 230.578 37.151 206.633Z" class="" fill="#000000" fill-opacity="1" stroke="#4a4a4a" stroke-opacity="1" stroke-width="10"></path><path d="M239.935 201.269C246.337 201.429 252.5 204.973 258.345 207.499C253.206 220.791 250.183 234.309 249.577 247.935L249.38 247.821C238.848 241.687 228.896 235.335 221.61 229.737C215.252 224.853 211.915 220.369 211.128 219.507C215.908 204.092 231.228 201.187 239.935 201.269Z" class="" fill="#000000" fill-opacity="1" stroke="#4a4a4a" stroke-opacity="1" stroke-width="10"></path><path d="M278.772 205.737C292.728 208.267 303.492 213.097 310.579 224.692C316.31 234.07 317.76 241.618 317.069 249.269C316.379 256.919 313.21 264.938 308.374 273.79C305.238 279.531 300.655 282.97 293.894 285.321C288.51 287.193 281.769 288.081 274.319 288.179C263.385 260.183 265.749 233.532 278.772 205.737Z" class="" fill="#000000" fill-opacity="1" stroke="#4a4a4a" stroke-opacity="1" stroke-width="10"></path><path d="M207.851 241.86C215.911 248.106 225.147 254.228 232.683 258.83C179.744 322.478 150.467 393.11 117.823 460.612L95.105 440.692C118.417 373.014 151.476 304.734 207.851 241.86Z" class="" fill="#000000" fill-opacity="1" stroke="#4a4a4a" stroke-opacity="1" stroke-width="10"></path><path d="M334.647 253.808C383.757 299.396 406.438 371.544 429.027 429.462L401.447 456.677C386.181 402.678 363.967 337.138 321.38 286.796C322.404 285.399 323.335 283.937 324.169 282.419C329.112 273.37 333.195 264.002 334.647 253.808Z" class="selected" fill="#000000" fill-opacity="1" stroke="#4a4a4a" stroke-opacity="1" stroke-width="10"></path><path d="M248.411 267.995C249.154 268.411 249.889 268.807 250.63 269.218C251.576 275.735 253.115 282.262 255.263 288.786C252.159 291.569 249.186 293.3 249.613 293.269C247.693 293.412 240.875 290.178 234.473 285.376C238.97 279.465 243.618 273.67 248.411 267.996Z" class="" fill="#9b9b9b" fill-opacity="1" stroke="#4a4a4a" stroke-opacity="1" stroke-width="10"></path></g></g></svg>