<svg xmlns="http://www.w3.org/2000/svg" viewBox="0 0 512 512" style="height: 512px; width: 512px;"><g class="" transform="translate(0,0)" style="touch-action: none;"><g><path d="M174.063 42.594L174.063 65.562L317.906 65.562L317.906 107.095C334.076 108.805 344.746 121.639 344.626 134.595C344.503 147.541 333.856 160.203 317.906 161.907L317.906 202.532L174.062 202.532L174.062 226.158L360.97 226.158L360.97 42.594L174.06 42.594Z" class="" fill="#ff0000" fill-opacity="0"></path><path d="M20.22 84.187L20.22 102.875L299.22 102.875L299.22 84.25L155.374 84.25L155.374 84.187L20.22 84.187Z" class="" fill="#ff0000" fill-opacity="0"></path><path d="M379.656 84.187L379.656 102.875L496.126 102.875L496.126 84.187L379.656 84.187Z" class="" fill="#ff0000" fill-opacity="0"></path><path d="M416.75 121.407C410.175 121.407 405.03 126.52 405.03 133.094C405.03 139.667 410.177 144.814 416.75 144.814C423.323 144.814 428.438 139.667 428.438 133.094C428.438 126.524 423.323 121.406 416.75 121.406Z" class="" fill="#ff0000" fill-opacity="0"></path><path d="M482.78 121.407C476.207 121.407 471.094 126.52 471.094 133.094C471.094 139.667 476.208 144.814 482.781 144.814C489.356 144.814 494.501 139.667 494.501 133.094C494.501 126.524 489.356 121.406 482.781 121.406Z" class="" fill="#ff0000" fill-opacity="0"></path><path d="M242.25 125.594C231.13 125.594 229.084 130.576 229.062 134.564C229.042 138.549 230.882 143.406 242.25 143.406L314.22 143.406C324.005 143.406 325.897 138.726 325.937 134.406C325.977 130.086 324.449 125.594 314.219 125.594L242.249 125.594Z" class="" fill="#ff0000" fill-opacity="0"></path><path d="M20.22 164.97L20.22 183.656L299.22 183.656L299.22 164.97L20.22 164.97Z" class="" fill="#ff0000" fill-opacity="0"></path><path d="M379.656 164.97L379.656 183.656L496.126 183.656L496.126 164.97L379.656 164.97Z" class="" fill="#ff0000" fill-opacity="0"></path><path d="M117.406 283.406L117.406 306.376L261.25 306.376L261.25 346.969C276.798 349.137 286.995 361.689 286.875 374.343C286.755 386.981 276.578 399.306 261.25 401.468L261.25 443.342L117.406 443.342L117.406 466.967L304.312 466.967L304.312 283.405L117.406 283.405Z" class="" fill="#9b9b9b" fill-opacity="1"></path><path d="M22.626 325.906L22.626 423.562L242.56 423.562L242.56 401.812L184.5 401.812C165.62 401.812 152.547 388.438 152.625 374.187C152.703 359.937 165.769 346.657 184.5 346.657L242.563 346.657L242.563 325.907L22.625 325.907Z" class="" fill="#8b572a" fill-opacity="1"></path><path d="M323 325.906L323 423.562L495.344 423.562L495.344 325.906L323 325.906Z" class="" fill="#8b572a" fill-opacity="1"></path><path d="M367.094 357.75C376.454 357.75 384.031 365.36 384.031 374.72C384.031 384.08 376.456 391.656 367.095 391.656C357.733 391.656 350.125 384.08 350.125 374.719C350.125 365.356 357.733 357.749 367.095 357.749Z" class="" fill="#ffe0af" fill-opacity="1"></path><path d="M444.374 357.75C453.737 357.75 461.312 365.36 461.312 374.72C461.312 384.08 453.737 391.656 444.375 391.656C435.013 391.656 427.405 384.08 427.405 374.719C427.405 365.356 435.013 357.749 444.375 357.749Z" class="" fill="#ffe0af" fill-opacity="1"></path><path d="M184.5 365.344C173.38 365.344 171.334 370.294 171.312 374.281C171.292 378.269 173.132 383.126 184.5 383.126L256.438 383.126C266.224 383.126 268.148 378.476 268.188 374.156C268.228 369.838 266.668 365.346 256.438 365.346L184.5 365.346Z" class="selected" fill="#4a4a4a" fill-opacity="1"></path></g></g></svg>