<?xml version="1.0" encoding="UTF-8" standalone="no"?>
<svg
   xmlns:dc="http://purl.org/dc/elements/1.1/"
   xmlns:cc="http://creativecommons.org/ns#"
   xmlns:rdf="http://www.w3.org/1999/02/22-rdf-syntax-ns#"
   xmlns:svg="http://www.w3.org/2000/svg"
   xmlns="http://www.w3.org/2000/svg"
   xmlns:sodipodi="http://sodipodi.sourceforge.net/DTD/sodipodi-0.dtd"
   xmlns:inkscape="http://www.inkscape.org/namespaces/inkscape"
   viewBox="0 0 512 512"
   style="height: 64px; width: 64px;"
   version="1.1"
   id="svg34"
   sodipodi:docname="belts.svg"
   inkscape:export-filename="/home/plic/Téléchargements/belts.png"
   inkscape:export-xdpi="24"
   inkscape:export-ydpi="24"
   inkscape:version="0.92.3 (2405546, 2018-03-11)">
  <metadata
     id="metadata40">
    <rdf:RDF>
      <cc:Work
         rdf:about="">
        <dc:format>image/svg+xml</dc:format>
        <dc:type
           rdf:resource="http://purl.org/dc/dcmitype/StillImage" />
        <dc:title></dc:title>
      </cc:Work>
    </rdf:RDF>
  </metadata>
  <defs
     id="defs38" />
  <sodipodi:namedview
     pagecolor="#ffffff"
     bordercolor="#666666"
     borderopacity="1"
     objecttolerance="10"
     gridtolerance="10"
     guidetolerance="10"
     inkscape:pageopacity="0"
     inkscape:pageshadow="2"
     inkscape:window-width="1385"
     inkscape:window-height="911"
     id="namedview36"
     showgrid="false"
     inkscape:zoom="0.4609375"
     inkscape:cx="256"
     inkscape:cy="256"
     inkscape:window-x="2290"
     inkscape:window-y="136"
     inkscape:window-maximized="0"
     inkscape:current-layer="svg34" />
  <g
     id="g975"
     transform="matrix(1.0531532,0,0,1.0531532,-20.346319,-116.07839)">
    <path
       style="fill:#4a4a4a;fill-opacity:1"
       inkscape:connector-curvature="0"
       d="m 122.29602,269.43906 v 22.97 h 143.844 v 40.593 c 15.548,2.168 25.745,14.72 25.625,27.374 -0.12,12.638 -10.297,24.963 -25.625,27.125 v 41.874 h -143.844 v 23.625 h 186.906 v -183.562 h -186.906 z"
       class=""
       id="path900" />
    <path
       style="fill:#8b572a;fill-opacity:1;stroke:#4a4a4a;stroke-width:10;stroke-opacity:1"
       inkscape:connector-curvature="0"
       d="m 27.516021,311.93906 v 97.656 H 247.45002 v -21.75 h -58.06 c -18.88,0 -31.953,-13.374 -31.875,-27.625 0.078,-14.25 13.144,-27.53 31.875,-27.53 h 58.063 v -20.75 H 27.515021 Z"
       class="selected"
       id="path902" />
    <path
       style="fill:#8b572a;fill-opacity:1;stroke:#4a4a4a;stroke-width:10;stroke-opacity:1"
       inkscape:connector-curvature="0"
       d="m 327.89002,311.93906 v 97.656 h 172.344 v -97.656 z"
       class=""
       id="path904" />
    <path
       style="fill:#c9c9c9;fill-opacity:1;stroke:#4a4a4a;stroke-width:10;stroke-opacity:1"
       inkscape:connector-curvature="0"
       d="m 371.98402,343.78306 c 9.36,0 16.937,7.61 16.937,16.97 0,9.36 -7.575,16.936 -16.936,16.936 -9.362,0 -16.97,-7.576 -16.97,-16.937 0,-9.363 7.608,-16.97 16.97,-16.97 z"
       class=""
       id="path906" />
    <path
       style="fill:#c9c9c9;fill-opacity:1;stroke:#4a4a4a;stroke-width:10;stroke-opacity:1"
       inkscape:connector-curvature="0"
       d="m 449.26402,343.78306 c 9.363,0 16.938,7.61 16.938,16.97 0,9.36 -7.575,16.936 -16.937,16.936 -9.362,0 -16.97,-7.576 -16.97,-16.937 0,-9.363 7.608,-16.97 16.97,-16.97 z"
       class=""
       id="path908" />
    <path
       style="fill:#4a4a4a;fill-opacity:1;stroke:#4a4a4a;stroke-width:10;stroke-opacity:1"
       inkscape:connector-curvature="0"
       d="m 189.39002,351.37706 c -11.12,0 -13.166,4.95 -13.188,8.937 -0.02,3.988 1.82,8.845 13.188,8.845 h 71.938 c 9.786,0 11.71,-4.65 11.75,-8.97 0.04,-4.318 -1.52,-8.81 -11.75,-8.81 h -71.938 z"
       class=""
       id="path910" />
  </g>
</svg>
