<svg xmlns="http://www.w3.org/2000/svg" viewBox="0 0 512 512" style="height: 64px; width: 64px;"><g class="" transform="translate(0,0)" style="touch-action: none;"><g><path d="M138.156 79.563C107.004 79.745 78.956 91.746 56.5 129.219C71.024 136.662 82.44 149.713 91.094 165.937C114.286 146.487 138.352 140.515 161.438 139.905C162.553 139.875 163.67 139.849 164.781 139.843C172.561 139.803 180.221 140.328 187.688 141.123L185.688 159.718C155.182 156.466 128.211 156.55 99.158 183.748C102.45 192.398 105.198 201.691 107.532 211.468C122.128 202.461 137.029 199.292 151.596 199.218C152.792 199.211 153.998 199.214 155.19 199.248C166.625 199.578 177.815 201.708 188.44 204.342L183.94 222.467C157.874 216.007 135.6 212.877 111.565 231.372C112.691 237.997 113.67 244.768 114.471 251.685C114.863 255.083 115.184 258.511 115.501 261.965C124.616 258.165 133.851 256.429 142.876 256.278C144.831 256.248 146.786 256.296 148.72 256.404C164.18 257.271 178.844 262.12 192.97 267.592L186.22 285.029C172.74 279.809 159.832 275.742 147.688 275.062C137.178 274.472 127.285 276.137 116.938 281.968C117.622 295.651 117.776 309.588 117.438 323.528C133.624 324.248 151.056 323.602 167.718 321.592L172.718 320.998L175.968 324.842C194.374 346.702 206.303 380.282 208.031 426.842C218.919 425.409 229.728 423.102 240.595 419.467C215.411 317.393 206.577 214.247 240.251 110.934C209.048 94.636 173.574 80.174 141.188 79.591C140.178 79.573 139.162 79.554 138.158 79.561Z" class="" fill="#8b572a" fill-opacity="1" stroke="#4a4a4a" stroke-opacity="1" stroke-width="10"></path><path d="M358.062 95.687C342.322 95.723 327.262 98.499 314.906 103.625C298.019 110.631 286.726 121.435 282.936 135.5C306.654 237.91 296.619 315.452 283.531 418.844C289.191 420.484 296.271 421.93 304.281 423.188C308.281 374.828 330.705 337 360.001 315.344L364.314 312.156L369.251 314.281C377.616 317.871 388.778 320.439 401.471 322.001C400.996 316.565 400.614 311.158 400.313 305.813C377.547 288.281 348.541 288.811 322.407 296.626L317.063 278.72C328.366 275.34 340.605 273.103 353.033 272.844C368.781 272.514 384.833 275.407 399.626 283.25C399.609 276.283 399.776 269.472 400.189 262.875C400.476 258.265 400.895 253.769 401.407 249.375C378.78 228.705 356.227 230.065 329.595 234.469L326.565 216.029C333.763 214.839 341.179 213.893 348.72 213.561C350.133 213.499 351.548 213.453 352.97 213.436C370.39 213.238 388.265 216.706 405.062 228.436C407.562 218.296 411.062 209.114 415.937 201.218C389.524 173.098 362.965 170.93 332.781 171.748L332.281 153.092C334.427 153.034 336.577 153.006 338.751 152.998C340.925 152.99 343.121 153.001 345.314 153.061C372.914 153.815 402.014 160.387 428.189 187.029C438.573 178.721 452.317 174.769 468.189 176.311C464.419 154.143 454.069 137.273 439.845 124.531C423.165 109.589 400.918 100.486 378.22 97.155C372.544 96.323 366.845 95.835 361.22 95.718C360.164 95.695 359.112 95.683 358.062 95.686Z" class="" fill="#8b572a" fill-opacity="1" stroke="#4a4a4a" stroke-opacity="1" stroke-width="10"></path><path d="M64.625 333.47C40.405 353.22 21.4 387.29 19.687 432.156C53.701 444.104 102.664 448.169 189.344 431.031C188.239 388.495 178.287 359.101 164.531 340.689C128.765 344.476 91.451 343.142 64.626 333.469Z" class="selected" fill="#8b572a" fill-opacity="1" stroke="#4a4a4a" stroke-opacity="1" stroke-width="10"></path><path d="M367.438 333.47C343.228 353.222 324.212 387.3 322.5 432.156C356.51 444.106 405.486 448.164 492.156 431.031C491.051 388.491 481.102 359.101 467.344 340.689C431.586 344.472 394.256 343.139 367.438 333.469Z" class="" fill="#8b572a" fill-opacity="1" stroke="#4a4a4a" stroke-opacity="1" stroke-width="10"></path></g></g></svg>