<svg xmlns="http://www.w3.org/2000/svg" viewBox="0 0 512 512" style="height: 64px; width: 64px;"><defs><radialGradient id="lorc-boot-stomp-gradient-2"><stop offset="0%" stop-color="#b57204" stop-opacity="1"></stop><stop offset="100%" stop-color="#8b572a" stop-opacity="1"></stop></radialGradient><radialGradient id="lorc-boot-stomp-gradient-3"><stop offset="0%" stop-color="#f8e71c" stop-opacity="1"></stop><stop offset="100%" stop-color="#f5a623" stop-opacity="1"></stop></radialGradient><radialGradient id="lorc-boot-stomp-gradient-4"><stop offset="0%" stop-color="#f8e71c" stop-opacity="1"></stop><stop offset="100%" stop-color="#f5a623" stop-opacity="1"></stop></radialGradient><radialGradient id="lorc-boot-stomp-gradient-5"><stop offset="0%" stop-color="#bd10e0" stop-opacity="1"></stop><stop offset="100%" stop-color="#9013fe" stop-opacity="1"></stop></radialGradient><radialGradient id="lorc-boot-stomp-gradient-6"><stop offset="0%" stop-color="#bd10e0" stop-opacity="1"></stop><stop offset="100%" stop-color="#9013fe" stop-opacity="1"></stop></radialGradient><radialGradient id="lorc-boot-stomp-gradient-7"><stop offset="0%" stop-color="#bd10e0" stop-opacity="1"></stop><stop offset="100%" stop-color="#9013fe" stop-opacity="1"></stop></radialGradient><radialGradient id="lorc-boot-stomp-gradient-8"><stop offset="0%" stop-color="#614e1a" stop-opacity="1"></stop><stop offset="100%" stop-color="#977b29" stop-opacity="1"></stop></radialGradient></defs><g class="" transform="translate(0,0)" style=""><g><path d="M216.012 36.703C209.664 36.713 202.956 37.15 196.006 38.023C161.406 42.37 120.862 57.371 88.598 85.326L122.068 275.523L122.398 285.623C164.66 301.413 223.206 310.188 275.271 309.895C302.463 309.741 327.928 307.133 348.253 302.095C368.578 297.055 383.441 289.292 390.056 281.178L390.489 281.531C376.172 232.684 329.854 192.934 255.015 225.261C242.925 230.873 230.682 238.163 218.683 246.946C229.923 230.656 242.469 217.891 255.443 208.493L255.456 208.373L228.39 194.19L193.047 219.19L182.254 203.934L209.8 184.45L182.3 170.04L190.97 153.486L226.934 172.328L261.504 147.871L263.124 131.685L232.924 113.767L197.764 136.2L187.714 120.443L214.922 103.083L186.952 86.488L196.49 70.416L232.57 91.824L269.658 68.16C271.111 47.55 248.178 36.65 216.012 36.703Z" class="" fill="url(#lorc-boot-stomp-gradient-2)" stroke="#4a4a4a" stroke-opacity="1" stroke-width="8"></path><path d="M267.094 91.965L250.572 102.505L265.174 111.17L267.094 91.965Z" class="" fill="url(#lorc-boot-stomp-gradient-3)" stroke="#4a4a4a" stroke-opacity="1" stroke-width="8"></path><path d="M259.041 172.505L245.524 182.068L257.46 188.322L259.04 172.506Z" class="" fill="url(#lorc-boot-stomp-gradient-4)" stroke="#4a4a4a" stroke-opacity="1" stroke-width="8"></path><path d="M394.611 302.415C383.771 310.55 369.368 316.115 352.751 320.235C330.376 325.781 303.681 328.423 275.378 328.582C254.146 328.702 232.034 327.432 210.261 324.822L222.724 346.959C302.884 356.397 364.234 345.754 394.759 325.163C395.477 317.723 395.417 310.065 394.609 302.413Z" class="" fill="url(#lorc-boot-stomp-gradient-5)" stroke="#4a4a4a" stroke-opacity="1" stroke-width="8"></path><path d="M123.058 305.727L124.054 336.191L182.649 344.647L192.229 322.335C167.689 318.508 144.027 312.952 123.059 305.728Z" class="" fill="url(#lorc-boot-stomp-gradient-6)" stroke="#4a4a4a" stroke-opacity="1" stroke-width="8"></path><path d="M89.928 327.287C87.418 328.037 85.022 328.802 82.753 329.587L35.236 329.587L60.164 340.672L15.884 366.302L61.561 361.48C63.891 363.253 66.773 364.978 70.181 366.646L40.991 411.178L105.776 378.201C109.986 379.169 114.416 380.093 119.046 380.974L108.313 447.757L169.726 388.013C175.158 388.54 180.711 389.021 186.396 389.448L198.069 466.976L248.999 391.903C251.029 391.916 253.049 391.937 255.095 391.937C257.531 391.937 259.945 391.915 262.36 391.897L318.576 468.679L325.479 389.315C331.142 388.878 336.697 388.395 342.104 387.858L402.886 447.758L392.124 380.782C396.652 379.91 400.984 378.995 405.104 378.039L470.206 411.179L440.769 366.266C443.904 364.686 446.577 363.056 448.753 361.386L495.315 366.301L451.062 340.688L476.028 329.588L427.436 329.588C425.213 328.818 422.872 328.068 420.42 327.335C425.828 330.589 428.76 334.059 428.76 337.661C428.76 356.248 351.023 371.313 255.133 371.313C159.243 371.313 81.506 356.248 81.506 337.661C81.506 334.041 84.466 330.556 89.924 327.288Z" class="selected" fill="url(#lorc-boot-stomp-gradient-7)" stroke="#4a4a4a" stroke-opacity="1" stroke-width="8"></path></g></g></svg>