<?xml version="1.0" encoding="UTF-8" standalone="no"?>
<svg
   xmlns:dc="http://purl.org/dc/elements/1.1/"
   xmlns:cc="http://creativecommons.org/ns#"
   xmlns:rdf="http://www.w3.org/1999/02/22-rdf-syntax-ns#"
   xmlns:svg="http://www.w3.org/2000/svg"
   xmlns="http://www.w3.org/2000/svg"
   xmlns:xlink="http://www.w3.org/1999/xlink"
   xmlns:sodipodi="http://sodipodi.sourceforge.net/DTD/sodipodi-0.dtd"
   xmlns:inkscape="http://www.inkscape.org/namespaces/inkscape"
   viewBox="0 0 512 512"
   style="height: 64px; width: 64px;"
   version="1.1"
   id="svg35"
   sodipodi:docname="bouclier-de-protection-feu-de-karoom.svg"
   inkscape:export-filename="/home/plic/Téléchargements/bouclier-de-protection-feu-de-karoom.png"
   inkscape:export-xdpi="24"
   inkscape:export-ydpi="24"
   inkscape:version="0.92.3 (2405546, 2018-03-11)">
  <metadata
     id="metadata39">
    <rdf:RDF>
      <cc:Work
         rdf:about="">
        <dc:format>image/svg+xml</dc:format>
        <dc:type
           rdf:resource="http://purl.org/dc/dcmitype/StillImage" />
        <dc:title></dc:title>
      </cc:Work>
    </rdf:RDF>
  </metadata>
  <sodipodi:namedview
     pagecolor="#ffffff"
     bordercolor="#666666"
     borderopacity="1"
     objecttolerance="10"
     gridtolerance="10"
     guidetolerance="10"
     inkscape:pageopacity="0"
     inkscape:pageshadow="2"
     inkscape:window-width="1871"
     inkscape:window-height="1025"
     id="namedview37"
     showgrid="false"
     inkscape:zoom="0.5509831"
     inkscape:cx="-248.52833"
     inkscape:cy="428.76191"
     inkscape:window-x="1969"
     inkscape:window-y="27"
     inkscape:window-maximized="1"
     inkscape:current-layer="svg35" />
  <defs
     id="defs7">
    <radialGradient
       id="gradient-2">
      <stop
         offset="0%"
         stop-color="#8b572a"
         stop-opacity="1"
         id="stop2" />
      <stop
         offset="100%"
         stop-color="#b57204"
         stop-opacity="1"
         id="stop4" />
    </radialGradient>
    <radialGradient
       id="gradient-2-3"
       gradientTransform="scale(0.98412625,1.0161298)"
       cx="274.67011"
       cy="263.77806"
       fx="274.67011"
       fy="263.77806"
       r="225.06976"
       gradientUnits="userSpaceOnUse">
      <stop
         id="stop846"
         stop-opacity="1"
         stop-color="#d0021b"
         offset="0%" />
      <stop
         id="stop848"
         stop-opacity="1"
         stop-color="#f5a623"
         offset="100%" />
    </radialGradient>
    <radialGradient
       id="gradient-3"
       gradientTransform="scale(0.99997702,1.000023)"
       cx="362.55546"
       cy="375.53433"
       fx="362.55546"
       fy="375.53433"
       r="90.791997"
       gradientUnits="userSpaceOnUse">
      <stop
         id="stop851"
         stop-opacity="1"
         stop-color="#d0021b"
         offset="0%" />
      <stop
         id="stop853"
         stop-opacity="1"
         stop-color="#f5a623"
         offset="100%" />
    </radialGradient>
    <radialGradient
       id="gradient-5">
      <stop
         id="stop856"
         stop-opacity="1"
         stop-color="#4a4a4a"
         offset="0%" />
      <stop
         id="stop858"
         stop-opacity="1"
         stop-color="#4a4a4a"
         offset="100%" />
    </radialGradient>
    <radialGradient
       id="gradient-8">
      <stop
         id="stop861"
         stop-opacity="1"
         stop-color="#d0021b"
         offset="0%" />
      <stop
         id="stop863"
         stop-opacity="1"
         stop-color="#f5a623"
         offset="100%" />
    </radialGradient>
    <radialGradient
       id="gradient-14">
      <stop
         id="stop898"
         stop-opacity="1"
         stop-color="#9b9b9b"
         offset="0%" />
      <stop
         id="stop900"
         stop-opacity="1"
         stop-color="#c9c9c9"
         offset="100%" />
    </radialGradient>
    <radialGradient
       id="gradient-15">
      <stop
         id="stop903"
         stop-opacity="1"
         stop-color="#9b9b9b"
         offset="0%" />
      <stop
         id="stop905"
         stop-opacity="1"
         stop-color="#c9c9c9"
         offset="100%" />
    </radialGradient>
    <radialGradient
       id="gradient-16">
      <stop
         id="stop908"
         stop-opacity="1"
         stop-color="#9b9b9b"
         offset="0%" />
      <stop
         id="stop910"
         stop-opacity="1"
         stop-color="#c9c9c9"
         offset="100%" />
    </radialGradient>
    <linearGradient
       id="gradient-2-6"
       y2="1"
       y1="0"
       x2="1"
       x1="0">
      <stop
         id="stop966"
         stop-opacity="1"
         stop-color="#c9c9c9"
         offset="0%" />
      <stop
         id="stop968"
         stop-opacity="1"
         stop-color="#9b9b9b"
         offset="100%" />
    </linearGradient>
    <linearGradient
       id="gradient-3-7"
       y2="1"
       y1="0"
       x2="1"
       x1="0">
      <stop
         id="stop971"
         stop-opacity="1"
         stop-color="#9b9b9b"
         offset="0%" />
      <stop
         id="stop973"
         stop-opacity="1"
         stop-color="#4a4a4a"
         offset="100%" />
    </linearGradient>
    <linearGradient
       id="gradient-5-5"
       y2="1"
       y1="0"
       x2="1"
       x1="0">
      <stop
         id="stop976"
         stop-opacity="1"
         stop-color="#9b9b9b"
         offset="0%" />
      <stop
         id="stop978"
         stop-opacity="1"
         stop-color="#c9c9c9"
         offset="100%" />
    </linearGradient>
    <linearGradient
       id="gradient-6"
       y2="1"
       y1="0"
       x2="1"
       x1="0">
      <stop
         id="stop981"
         stop-opacity="1"
         stop-color="#4a4a4a"
         offset="0%" />
      <stop
         id="stop983"
         stop-opacity="1"
         stop-color="#9b9b9b"
         offset="100%" />
    </linearGradient>
    <radialGradient
       id="gradient-14-3">
      <stop
         id="stop986"
         stop-opacity="1"
         stop-color="#9b9b9b"
         offset="0%" />
      <stop
         id="stop988"
         stop-opacity="1"
         stop-color="#c9c9c9"
         offset="100%" />
    </radialGradient>
    <radialGradient
       id="gradient-15-5">
      <stop
         id="stop991"
         stop-opacity="1"
         stop-color="#9b9b9b"
         offset="0%" />
      <stop
         id="stop993"
         stop-opacity="1"
         stop-color="#c9c9c9"
         offset="100%" />
    </radialGradient>
    <radialGradient
       id="gradient-16-6">
      <stop
         id="stop996"
         stop-opacity="1"
         stop-color="#9b9b9b"
         offset="0%" />
      <stop
         id="stop998"
         stop-opacity="1"
         stop-color="#c9c9c9"
         offset="100%" />
    </radialGradient>
    <linearGradient
       inkscape:collect="always"
       xlink:href="#gradient-2-6"
       id="linearGradient1092"
       x1="76.540602"
       y1="33.001391"
       x2="329.89404"
       y2="286.35482"
       gradientTransform="scale(1.1298143,0.88510121)"
       gradientUnits="userSpaceOnUse" />
    <linearGradient
       inkscape:collect="always"
       xlink:href="#gradient-3-7"
       id="linearGradient1094"
       x1="120.58764"
       y1="68.901323"
       x2="320.94463"
       y2="269.25832"
       gradientTransform="scale(1.0196089,0.98076823)"
       gradientUnits="userSpaceOnUse" />
    <linearGradient
       inkscape:collect="always"
       xlink:href="#gradient-5-5"
       id="linearGradient1096"
       x1="292.10832"
       y1="123.27805"
       x2="545.46232"
       y2="376.63205"
       gradientTransform="scale(0.88510316,1.1298118)"
       gradientUnits="userSpaceOnUse" />
    <linearGradient
       inkscape:collect="always"
       xlink:href="#gradient-6"
       id="linearGradient1098"
       x1="252.78255"
       y1="181.20692"
       x2="453.13964"
       y2="381.56401"
       gradientTransform="scale(0.9807639,1.0196134)"
       gradientUnits="userSpaceOnUse" />
  </defs>
  <g
     class=""
     transform="translate(0,0)"
     style="touch-action: none;"
     id="g33">
    <g
       id="g31">
      <path
         d="M256 20C192 116 128 108 64 124C64 380 128 444 256 492C384 444 448 380 448 124C384 108 320 116 256 20Z"
         class=""
         fill="url(#gradient-2)"
         stroke="#4a4a4a"
         stroke-opacity="1"
         stroke-width="10"
         id="path9" />
      <path
         d="M256 52C262.928 52 267.258 59.5 263.794 65.5C262.187 68.285 259.215 70 256 70C249.072 70 244.742 62.5 248.206 56.5C249.813 53.715 252.785 52 256 52Z"
         class=""
         fill="#4a4a4a"
         fill-opacity="1"
         stroke="#4a4a4a"
         stroke-opacity="1"
         stroke-width="10"
         id="path11" />
      <path
         d="M256.291 82.152C260.729 87.037 265.346 91.757 270.131 96.302C305.08 131.687 353.097 142.189 400.816 152.73C403.548 153.914 407.436 153.238 409.68 154.688C406.997 219.528 404.158 286.337 377.365 346.434C364.68 377.894 341.105 404.036 312.995 422.578C297.543 433.442 280.148 440.805 263.111 448.693C256.525 453.266 249.414 448.245 242.869 446.233C199.221 428.386 158.425 397.614 137.813 353.967C108.748 291.949 104.864 222.144 101.998 154.574C159.421 145.766 214.576 126.774 254.439 84.156Z"
         class=""
         fill="#c9c9c9"
         fill-opacity="1"
         stroke="#4a4a4a"
         stroke-opacity="1"
         stroke-width="10"
         id="path13" />
      <path
         d="M256 124L228.488 192.78C211.228 189.067 190.45 182.15 160 172C160 204 144 220 128 236C128 252 192 268 208 268C221.173 259.218 230.72 252.862 238.646 248.9C234.19 277.441 218.65 337.35 192 364C224 380 240 396 256 412C272 396 288 380 320 364C293.35 337.35 277.81 277.441 273.354 248.9C281.28 252.862 290.827 259.218 304 268C320 268 384 252 384 236C368 220 352 204 352 172C321.55 182.15 300.772 189.068 283.512 192.78Z"
         class="selected"
         fill="#c9c9c9"
         fill-opacity="1"
         id="path15" />
      <path
         d="M84 132C90.928 132 95.258 139.5 91.794 145.5C90.187 148.285 87.215 150 84 150C77.072 150 72.742 142.5 76.206 136.5C77.813 133.715 80.785 132 84 132Z"
         class=""
         fill="#4a4a4a"
         fill-opacity="1"
         id="path17" />
      <path
         d="M428 132C434.928 132 439.258 139.5 435.794 145.5C434.187 148.285 431.215 150 428 150C421.072 150 416.742 142.5 420.206 136.5C421.813 133.715 424.785 132 428 132Z"
         class=""
         fill="#4a4a4a"
         fill-opacity="1"
         id="path19" />
      <path
         d="M96 282C102.928 282 107.258 289.5 103.794 295.5C102.187 298.285 99.215 300 96 300C89.072 300 84.742 292.5 88.206 286.5C89.813 283.715 92.785 282 96 282Z"
         class=""
         fill="#4a4a4a"
         fill-opacity="1"
         id="path21" />
      <path
         d="M416 282C422.928 282 427.258 289.5 423.794 295.5C422.187 298.285 419.215 300 416 300C409.072 300 404.742 292.5 408.206 286.5C409.813 283.715 412.785 282 416 282Z"
         class=""
         fill="#4a4a4a"
         fill-opacity="1"
         id="path23" />
      <path
         d="M160 410C166.928 410 171.258 417.5 167.794 423.5C166.187 426.285 163.215 428 160 428C153.072 428 148.742 420.5 152.206 414.5C153.813 411.715 156.785 410 160 410Z"
         class=""
         fill="#4a4a4a"
         fill-opacity="1"
         id="path25" />
      <path
         d="M352 410C358.928 410 363.258 417.5 359.794 423.5C358.187 426.285 355.215 428 352 428C345.072 428 340.742 420.5 344.206 414.5C345.813 411.715 348.785 410 352 410Z"
         class=""
         fill="#4a4a4a"
         fill-opacity="1"
         id="path27" />
      <path
         d="M256 460C262.928 460 267.258 467.5 263.794 473.5C262.187 476.285 259.215 478 256 478C249.072 478 244.742 470.5 248.206 464.5C249.813 461.715 252.785 460 256 460Z"
         class=""
         fill="#4a4a4a"
         fill-opacity="1"
         id="path29" />
    </g>
  </g>
  <g
     id="g874"
     class=""
     transform="matrix(0.73476218,0,0,0.73476218,72.870892,84.852972)"
     style="opacity:1">
    <g
       id="g872"
       transform="matrix(0.56568542,0.56568542,-0.56568542,0.56568542,256,-33.630938)"
       style="">
      <path
         style="fill:url(#gradient-2-3);stroke:#4a4a4a;stroke-width:10;stroke-opacity:1"
         id="path868"
         class=""
         d="m 53.813,48.094 c 69.06,40.8 122.263,96.67 124.937,153.312 -49.83,0.664 -72.508,-14.408 -101.97,-51 17.725,93.07 55.393,143.855 100.72,156.563 -22.006,26.968 -60.902,30.456 -97.625,25.342 35.897,33.924 95.12,70.913 149.094,84.75 -17.05,15.34 -38.742,24.516 -68,29.157 269.316,114.287 386.556,10.27 295.217,-277.376 -12.035,25.526 -29.11,41.112 -60.343,57.5 -7.906,-55.298 -31.41,-152.12 -95.656,-171.75 24.362,41.713 21.98,99.445 -4,138.937 C 268.363,122.72 161.85,54.283 53.813,48.095 Z"
         inkscape:connector-curvature="0" />
      <path
         id="path870"
         class="selected"
         d="m 362.093,284.75 c 26.127,-0.13 52.073,11.014 70.157,32.72 32.15,38.584 26.96,95.63 -11.625,127.78 -38.586,32.15 -95.632,26.96 -127.78,-11.625 -32.15,-38.586 -26.962,-95.632 11.624,-127.78 16.88,-14.067 37.303,-20.994 57.624,-21.095 z"
         inkscape:connector-curvature="0"
         style="fill:url(#gradient-3)" />
    </g>
  </g>
  <g
     id="g937"
     class=""
     transform="matrix(0.4205388,0.16607031,-0.16607031,0.4205388,249.42694,114.48759)"
     style="opacity:0.712">
    <g
       id="g935"
       transform="matrix(0.77942286,-0.45,0.45,0.77942286,-58.732253,171.66775)"
       style="">
      <path
         id="path915"
         class=""
         d="m 266.033,32.42 -85.238,85.238 v 19.799 L 285.832,32.42 Z"
         inkscape:connector-curvature="0"
         style="fill:#9b9b9b;fill-opacity:1" />
      <path
         id="path917"
         class=""
         d="M 307.561,36.148 184.523,159.186 352.814,327.476 475.852,204.44 307.56,36.15 Z"
         inkscape:connector-curvature="0"
         style="fill:#4a4a4a;fill-opacity:1" />
      <path
         id="path919"
         class=""
         d="M 479.581,226.168 374.542,331.205 h 19.799 l 85.238,-85.238 v -19.799 z"
         inkscape:connector-curvature="0"
         style="fill:#9b9b9b;fill-opacity:1" />
      <path
         id="path921"
         class="selected"
         d="m 239.678,239.795 -9.9,9.9 32.527,32.528 9.9,-9.9 z"
         inkscape:connector-curvature="0"
         style="fill:#000000;fill-opacity:1" />
      <path
         id="path923"
         class=""
         d="m 217.051,262.422 -23.528,23.527 h 47.055 z"
         inkscape:connector-curvature="0"
         style="fill:#8b572a;fill-opacity:1" />
      <path
         id="path925"
         class=""
         d="m 175.523,303.949 -27.255,27.256 h 65.054 l 27.256,-27.256 z"
         inkscape:connector-curvature="0"
         style="fill:#8b572a;fill-opacity:1" />
      <path
         id="path927"
         class=""
         d="m 130.268,349.205 -27.254,27.254 h 65.054 l 27.254,-27.254 z"
         inkscape:connector-curvature="0"
         style="fill:#8b572a;fill-opacity:1" />
      <path
         id="path929"
         class=""
         d="m 103.014,394.459 23.527,23.527 23.527,-23.527 z"
         inkscape:connector-curvature="0"
         style="fill:#8b572a;fill-opacity:1" />
      <path
         id="path931"
         class=""
         d="m 81.285,398.187 -9.898,9.899 32.527,32.527 9.898,-9.898 -32.527,-32.527 z"
         inkscape:connector-curvature="0"
         style="fill:#4a4a4a;fill-opacity:1" />
      <path
         id="path933"
         class=""
         d="m 42.518,417.086 -7.504,22.512 37.388,37.388 22.512,-7.504 V 457.068 L 54.93,417.086 Z"
         inkscape:connector-curvature="0"
         style="fill:#8b572a;fill-opacity:1" />
    </g>
  </g>
  <g
     class=""
     transform="matrix(-0.38277838,0,0,0.38277838,298.53188,173.63931)"
     id="use1066"
     style="opacity:0.712">
    <g
       id="g1088"
       style="">
      <path
         inkscape:connector-curvature="0"
         d="m 284.736,29.215 c -2.334,-0.015 -4.68,0.001 -7.035,0.049 -32.975,0.664 -67.786,7.496 -98.318,21.232 -34.895,15.698 -64.057,40.163 -79.979,74.672 -15,32.512 -18.36,74.591 -2.508,128.285 4.432,-2.026 8.935,-3.891 13.502,-5.59 -9.866,-43.961 -5.617,-80.245 8.301,-109.01 15.464,-31.958 42.464,-54.15 72.95,-68.302 30.484,-14.153 64.583,-20.494 95.738,-20.95 1.947,-0.028 3.882,-0.035 5.804,-0.019 22.847,0.186 43.814,3.494 60.614,9.836 7.12,-3.36 13.61,-6.894 18.914,-10.852 -20.447,-11.111 -49.38,-18.154 -81.016,-19.212 -2.322,-0.078 -4.644,-0.125 -6.967,-0.14 z"
         class=""
         id="path1068"
         style="fill:url(#linearGradient1092)" />
      <path
         inkscape:connector-curvature="0"
         d="m 293.029,67.588 c -1.78,-0.019 -3.574,-0.015 -5.379,0.012 -28.88,0.421 -60.75,6.43 -88.421,19.277 -27.671,12.847 -51.013,32.303 -64.327,59.818 -11.852,24.495 -16.052,55.773 -7.242,95.895 12.372,-2.904 23.747,-3.494 33.565,-1.195 9.93,2.325 18.916,9.147 21.732,19.312 0.306,1.106 0.52,2.235 0.701,3.373 L 285.861,161.877 c -11.857,-18.99 -15.828,-34.784 -12.218,-48.416 4.005,-15.125 16.44,-24.638 30.048,-31.797 7.436,-3.912 15.487,-7.412 23.547,-10.8 -10.343,-1.974 -21.956,-3.15 -34.209,-3.276 z"
         class=""
         id="path1070"
         style="fill:url(#linearGradient1094)" />
      <path
         style="fill:#8b572a;fill-opacity:1"
         inkscape:connector-curvature="0"
         d="m 376.086,135.914 -48.508,9.701 -34.242,34.242 h 38.807 v 38.805 l 34.242,-34.242 z"
         class=""
         id="path1072" />
      <path
         inkscape:connector-curvature="0"
         d="m 463.434,139.281 c -3.956,5.301 -7.489,11.788 -10.848,18.905 6.876,18.213 10.179,41.335 9.812,66.427 -0.455,31.155 -6.796,65.254 -20.949,95.739 -14.153,30.485 -36.344,57.485 -68.303,72.949 -28.764,13.918 -65.048,18.167 -109.01,8.3 -1.699,4.567 -3.564,9.071 -5.59,13.503 53.695,15.852 95.774,12.492 128.286,-2.508 34.51,-15.922 58.974,-45.084 74.672,-79.979 15.698,-34.894 22.379,-75.376 21.142,-112.32 -1.058,-31.637 -8.1,-60.569 -19.212,-81.016 z"
         class=""
         id="path1074"
         style="fill:url(#linearGradient1096)" />
      <path
         style="fill:url(#linearGradient1098)"
         inkscape:connector-curvature="0"
         d="m 441.137,184.761 c -3.39,8.06 -6.89,16.112 -10.801,23.548 -7.159,13.608 -16.672,26.043 -31.797,30.048 -13.632,3.61 -29.425,-0.361 -48.416,-12.218 L 247.92,328.342 c 1.138,0.181 2.267,0.395 3.373,0.701 10.165,2.816 16.987,11.802 19.312,21.732 2.3,9.818 1.709,21.193 -1.195,33.565 40.122,8.81 71.4,4.61 95.895,-7.242 27.515,-13.314 46.971,-36.656 59.818,-64.327 12.847,-27.67 18.856,-59.542 19.277,-88.421 0.208,-14.228 -1.004,-27.742 -3.263,-39.588 z"
         class=""
         id="path1076" />
      <path
         style="fill:#000000;fill-opacity:1"
         inkscape:connector-curvature="0"
         d="m 280.609,197.857 v 33.534 h 33.534 v -33.534 z"
         class=""
         id="path1078" />
      <path
         style="fill:#8b572a;fill-opacity:1"
         inkscape:connector-curvature="0"
         d="m 262.609,210.584 -34.244,34.244 -9.699,48.506 48.506,-9.7 34.244,-34.243 h -38.807 z"
         class=""
         id="path1080" />
      <path
         style="fill:#8b572a;fill-opacity:1"
         inkscape:connector-curvature="0"
         d="m 205.419,267.774 -37.034,37.035 38.806,38.806 37.036,-37.035 -48.508,9.701 z"
         class=""
         id="path1082" />
      <path
         style="fill:#000000;fill-opacity:1"
         inkscape:connector-curvature="0"
         d="m 155.659,317.535 -25.925,25.922 38.809,38.809 25.922,-25.924 z"
         class=""
         id="path1084" />
      <path
         style="fill:#8b572a;fill-opacity:1"
         inkscape:connector-curvature="0"
         d="M 117.008,356.185 16,457.194 V 496 H 54.807 L 155.814,394.992 Z"
         class="selected"
         id="path1086" />
    </g>
  </g>
</svg>
