<svg xmlns="http://www.w3.org/2000/svg" viewBox="0 0 512 512" style="height: 64px; width: 64px;"><defs><radialGradient id="delapouite-roman-shield-gradient-2"><stop offset="0%" stop-color="#8b572a" stop-opacity="1"></stop><stop offset="100%" stop-color="#764e0b" stop-opacity="1"></stop></radialGradient><radialGradient id="delapouite-roman-shield-gradient-3"><stop offset="0%" stop-color="#4a4a4a" stop-opacity="1"></stop><stop offset="100%" stop-color="#9b9b9b" stop-opacity="1"></stop></radialGradient><radialGradient id="delapouite-roman-shield-gradient-4"><stop offset="0%" stop-color="#000000" stop-opacity="1"></stop><stop offset="100%" stop-color="#4a4a4a" stop-opacity="1"></stop></radialGradient><radialGradient id="delapouite-roman-shield-gradient-5"><stop offset="0%" stop-color="#000000" stop-opacity="1"></stop><stop offset="100%" stop-color="#4a4a4a" stop-opacity="1"></stop></radialGradient><radialGradient id="delapouite-roman-shield-gradient-6"><stop offset="0%" stop-color="#e0115f" stop-opacity="1"></stop><stop offset="100%" stop-color="#d0021b" stop-opacity="1"></stop></radialGradient><radialGradient id="delapouite-roman-shield-gradient-7"><stop offset="0%" stop-color="#e0115f" stop-opacity="1"></stop><stop offset="100%" stop-color="#d0021b" stop-opacity="1"></stop></radialGradient><radialGradient id="delapouite-roman-shield-gradient-8"><stop offset="0%" stop-color="#000000" stop-opacity="1"></stop><stop offset="100%" stop-color="#4a4a4a" stop-opacity="1"></stop></radialGradient><radialGradient id="delapouite-roman-shield-gradient-9"><stop offset="0%" stop-color="#000000" stop-opacity="1"></stop><stop offset="100%" stop-color="#4a4a4a" stop-opacity="1"></stop></radialGradient><radialGradient id="delapouite-roman-shield-gradient-10"><stop offset="0%" stop-color="#4a4a4a" stop-opacity="1"></stop><stop offset="100%" stop-color="#9b9b9b" stop-opacity="1"></stop></radialGradient><radialGradient id="delapouite-roman-shield-gradient-11"><stop offset="0%" stop-color="#000000" stop-opacity="1"></stop><stop offset="100%" stop-color="#4a4a4a" stop-opacity="1"></stop></radialGradient><radialGradient id="delapouite-roman-shield-gradient-12"><stop offset="0%" stop-color="#000000" stop-opacity="1"></stop><stop offset="100%" stop-color="#4a4a4a" stop-opacity="1"></stop></radialGradient><radialGradient id="delapouite-roman-shield-gradient-14"><stop offset="0%" stop-color="#000000" stop-opacity="1"></stop><stop offset="100%" stop-color="#4a4a4a" stop-opacity="1"></stop></radialGradient><radialGradient id="delapouite-roman-shield-gradient-15"><stop offset="0%" stop-color="#000000" stop-opacity="1"></stop><stop offset="100%" stop-color="#4a4a4a" stop-opacity="1"></stop></radialGradient><radialGradient id="delapouite-roman-shield-gradient-16"><stop offset="0%" stop-color="#000000" stop-opacity="1"></stop><stop offset="100%" stop-color="#4a4a4a" stop-opacity="1"></stop></radialGradient><radialGradient id="delapouite-roman-shield-gradient-17"><stop offset="0%" stop-color="#000000" stop-opacity="1"></stop><stop offset="100%" stop-color="#4a4a4a" stop-opacity="1"></stop></radialGradient><radialGradient id="delapouite-roman-shield-gradient-18"><stop offset="0%" stop-color="#000000" stop-opacity="1"></stop><stop offset="100%" stop-color="#000000" stop-opacity="1"></stop></radialGradient><radialGradient id="delapouite-roman-shield-gradient-19"><stop offset="0%" stop-color="#000000" stop-opacity="1"></stop><stop offset="100%" stop-color="#000000" stop-opacity="1"></stop></radialGradient><radialGradient id="delapouite-roman-shield-gradient-20"><stop offset="0%" stop-color="#ffffff" stop-opacity="1"></stop><stop offset="100%" stop-color="#c9c9c9" stop-opacity="1"></stop></radialGradient><radialGradient id="delapouite-roman-shield-gradient-21"><stop offset="0%" stop-color="#ffffff" stop-opacity="1"></stop><stop offset="100%" stop-color="#c9c9c9" stop-opacity="1"></stop></radialGradient><radialGradient id="delapouite-roman-shield-gradient-22"><stop offset="0%" stop-color="#fff" stop-opacity="1"></stop><stop offset="100%" stop-color="#c9c9c9" stop-opacity="1"></stop></radialGradient><radialGradient id="delapouite-roman-shield-gradient-23"><stop offset="0%" stop-color="#fff" stop-opacity="1"></stop><stop offset="100%" stop-color="#c9c9c9" stop-opacity="1"></stop></radialGradient><radialGradient id="delapouite-roman-shield-gradient-24"><stop offset="0%" stop-color="#fff" stop-opacity="1"></stop><stop offset="100%" stop-color="#c9c9c9" stop-opacity="1"></stop></radialGradient><radialGradient id="delapouite-roman-shield-gradient-25"><stop offset="0%" stop-color="#fff" stop-opacity="1"></stop><stop offset="100%" stop-color="#9b9b9b" stop-opacity="1"></stop></radialGradient><radialGradient id="delapouite-roman-shield-gradient-26"><stop offset="0%" stop-color="#fff" stop-opacity="1"></stop><stop offset="100%" stop-color="#c9c9c9" stop-opacity="1"></stop></radialGradient><radialGradient id="delapouite-roman-shield-gradient-27"><stop offset="0%" stop-color="#fff" stop-opacity="1"></stop><stop offset="100%" stop-color="#c9c9c9" stop-opacity="1"></stop></radialGradient><radialGradient id="delapouite-roman-shield-gradient-28"><stop offset="0%" stop-color="#fff" stop-opacity="1"></stop><stop offset="100%" stop-color="#c9c9c9" stop-opacity="1"></stop></radialGradient><radialGradient id="delapouite-roman-shield-gradient-29"><stop offset="0%" stop-color="#fff" stop-opacity="1"></stop><stop offset="100%" stop-color="#c9c9c9" stop-opacity="1"></stop></radialGradient></defs><g class="" transform="translate(0,0)" style=""><g transform="translate(512, 0) scale(-1, 1) rotate(0, 256, 256) skewX(0) skewY(0)"><path d="M256 20C204 20 152 24 96 32C79.568 256 80 256 96 480C208 496 304 496 416 480C432 256 432 256 416 32C360 24 308 20 256 20Z" class="selected" fill="url(#delapouite-roman-shield-gradient-2)" stroke="#4a4a4a" stroke-opacity="1" stroke-width="4"></path><path d="M256 32L272 48L265 48L265 199L283.184 199L308.418 161.146L275.27 128L307.273 96L275.271 64L297.6 41.676L292.457 36.533L315.084 36.533L315.084 59.16L310.326 54.402L300.727 64L332.729 96L300.726 128L331.581 158.854L305.708 197.662C350.081 178.715 373.836 124.457 359.268 66.184L352.658 39.752L373.711 57.045C395.141 74.651 409.905 101.567 416.459 129.928C423.014 158.288 421.421 188.431 407.831 212.434C398.381 229.122 383.656 238.924 366.131 243.691C360.731 245.161 355.051 246.227 349.073 247.001L416 247.001L416 265.001L349.074 265.001C355.052 265.775 360.731 266.841 366.131 268.311C383.658 273.077 398.384 282.879 407.833 299.567C421.423 323.57 423.016 353.712 416.463 382.073C409.908 410.433 395.145 437.35 373.713 454.956L352.661 472.249L359.271 445.817C373.839 387.544 350.084 333.287 305.711 314.339L331.583 353.147L300.727 384L332.729 416L300.726 448L310.323 457.598L315.081 452.84L315.081 475.467L292.454 475.467L297.597 470.324L275.27 448L307.273 416L275.271 384L308.419 350.854L283.184 313L265 313L265 464L272 464L256 480L240 464L247 464L247 313L228.816 313L203.582 350.854L236.73 384L204.727 416L236.729 448L214.401 470.324L219.544 475.467L196.917 475.467L196.917 452.84L201.675 457.598L211.272 448L179.27 416L211.273 384L180.418 353.146L206.291 314.338C161.918 333.285 138.163 387.543 152.731 445.816L159.341 472.248L138.288 454.955C116.858 437.349 102.094 410.433 95.54 382.072C88.985 353.712 90.578 323.569 104.168 299.566C113.618 282.878 128.343 273.076 145.868 268.309C151.268 266.839 156.948 265.773 162.926 264.999L96 264.999L96 246.999L162.926 246.999C156.948 246.225 151.269 245.159 145.869 243.689C128.342 238.923 113.616 229.121 104.167 212.433C90.577 188.43 88.984 158.288 95.537 129.927C102.092 101.567 116.855 74.65 138.287 57.044L159.339 39.751L152.729 66.183C138.161 124.456 161.916 178.713 206.289 197.661L180.417 158.853L211.273 128L179.27 96L211.273 64L201.676 54.402L196.918 59.16L196.918 36.533L219.545 36.533L214.402 41.676L236.73 64L204.727 96L236.729 128L203.581 161.146L228.816 199L247 199L247 48L240 48L256 32Z" class="" fill="url(#delapouite-roman-shield-gradient-3)" stroke="#4a4a4a" stroke-opacity="1" stroke-width="4"></path><path d="M130.822 92.42C122.704 104.704 116.516 119.095 113.076 133.98C107.312 158.923 109.196 184.78 119.832 203.566C127.002 216.23 136.275 222.426 150.594 226.322C163.019 229.702 179.374 230.687 199 230.902L199 213.962C154.165 194.668 128.17 146.242 130.822 92.42Z" class="" fill="url(#delapouite-roman-shield-gradient-4)" stroke="#4a4a4a" stroke-opacity="1" stroke-width="4"></path><path d="M381.178 92.42C383.83 146.243 357.835 194.668 313 213.963L313 230.903C332.625 230.687 348.98 229.703 361.406 226.323C375.726 222.427 384.998 216.23 392.168 203.566C402.804 184.781 404.688 158.923 398.924 133.98C395.484 119.095 389.296 104.704 381.178 92.42Z" class="" fill="url(#delapouite-roman-shield-gradient-5)" stroke="#4a4a4a" stroke-opacity="1" stroke-width="4"></path><path d="M217 217L217 243.412C221.057 230.95 230.95 221.057 243.412 217L217 217Z" class="" fill="url(#delapouite-roman-shield-gradient-6)" stroke="#4a4a4a" stroke-opacity="1" stroke-width="4"></path><path d="M268.588 217C281.05 221.057 290.943 230.95 295 243.412L295 217L268.588 217Z" class="" fill="url(#delapouite-roman-shield-gradient-7)" stroke="#4a4a4a" stroke-opacity="1" stroke-width="4"></path><path d="M256 233C243.19 233 233 243.19 233 256C233 268.81 243.19 279 256 279C268.81 279 279 268.81 279 256C279 243.19 268.81 233 256 233Z" class="" fill="url(#delapouite-roman-shield-gradient-8)" stroke="#4a4a4a" stroke-opacity="1" stroke-width="4"></path><path d="M217 268.588L217 295L243.412 295C230.95 290.943 221.057 281.05 217 268.588Z" class="" fill="url(#delapouite-roman-shield-gradient-9)" stroke="#4a4a4a" stroke-opacity="1" stroke-width="4"></path><path d="M295 268.588C290.943 281.05 281.05 290.943 268.588 295L295 295L295 268.588Z" class="" fill="url(#delapouite-roman-shield-gradient-10)" stroke="#4a4a4a" stroke-opacity="1" stroke-width="4"></path><path d="M199 281.098C179.375 281.313 163.02 282.298 150.594 285.678C136.274 289.573 127.002 295.77 119.832 308.434C109.196 327.219 107.312 353.077 113.076 378.02C116.516 392.905 122.704 407.296 130.822 419.58C128.17 365.757 154.165 317.332 199 298.037L199 281.097Z" class="" fill="url(#delapouite-roman-shield-gradient-11)" stroke="#4a4a4a" stroke-opacity="1" stroke-width="4"></path><path d="M313 281.098L313 298.038C357.835 317.332 383.83 365.758 381.178 419.58C389.296 407.296 395.484 392.905 398.924 378.02C404.688 353.077 402.804 327.22 392.168 308.434C384.998 295.77 375.725 289.574 361.406 285.678C348.981 282.298 332.626 281.313 313 281.098Z" class="" fill="url(#delapouite-roman-shield-gradient-12)" stroke="#4a4a4a" stroke-opacity="1" stroke-width="4"></path></g></g></svg>