<svg xmlns="http://www.w3.org/2000/svg" viewBox="0 0 512 512" style="height: 64px; width: 64px;"><defs><radialGradient id="gradient-2"><stop offset="0%" stop-color="#4a90e2" stop-opacity="1"></stop><stop offset="100%" stop-color="#6ca1e0" stop-opacity="1"></stop></radialGradient><radialGradient id="gradient-3"><stop offset="0%" stop-color="#4a90e2" stop-opacity="1"></stop><stop offset="100%" stop-color="#7fa8d8" stop-opacity="1"></stop></radialGradient></defs><g class="" transform="translate(0,0)" style="touch-action: none;"><g><path d="M254.563 20.75C211.603 20.75 168.645 37.137 135.875 69.906C70.335 135.446 70.023 242.056 135.562 307.594C201.102 373.134 307.712 372.82 373.25 307.281C438.79 241.743 438.79 135.446 373.25 69.907C340.48 37.137 297.522 20.751 254.562 20.751Z" class="" fill="url(#gradient-2)"></path><path d="M254.406 39.22C280.086 39.273 305.769 45.944 328.719 59.188C315.146 55.204 302.453 56.733 294.499 64.688C280.062 79.125 286.703 109.173 309.312 131.781C331.92 154.391 361.937 161.001 376.374 146.563C384.897 138.041 386.08 124.095 380.968 109.438C417.32 167.122 410.554 244.038 360.278 294.313C331.12 323.473 292.925 338.086 254.718 338.126C264.154 335.826 272.48 331.394 279.154 324.72C308.039 295.834 294.794 235.766 249.56 190.53C204.326 145.297 144.258 132.02 115.373 160.906C111.321 164.958 108.107 169.629 105.685 174.781C108.777 141.244 123.158 108.559 148.842 82.876C178.04 53.676 216.226 39.139 254.404 39.22Z" class="" fill="url(#gradient-3)"></path><path d="M386.97 319.28C386.765 319.486 386.58 319.702 386.375 319.906C313.595 392.686 195.123 393.061 122.345 320.281C122.067 320.006 121.805 319.716 121.531 319.439C109.544 328.922 102.721 339.823 102.721 351.439C102.721 387.962 170.036 417.564 254.064 417.564C338.091 417.564 406.157 387.964 406.157 351.439C406.157 339.759 399.187 328.802 386.97 319.282Z" class="" fill="#b57204" fill-opacity="1" stroke="#4a4a4a" stroke-opacity="1" stroke-width="10"></path><path d="M426.687 373.844C404.462 406.134 335.495 429.75 254.062 429.75C172.89 429.75 104.108 406.29 81.656 374.156C69.018 385.456 61.936 398.208 61.936 411.719C61.938 458.647 147.482 496.749 254 496.749C360.518 496.749 446.97 458.649 446.97 411.719C446.97 398.082 439.657 385.221 426.687 373.843Z" class="selected" fill="#8b572a" fill-opacity="1" stroke="#4a4a4a" stroke-opacity="1" stroke-width="10"></path></g></g></svg>