<?xml version="1.0" encoding="UTF-8" standalone="no"?>
<svg
   viewBox="0 0 512 512"
   style="height: 64px; width: 64px;"
   version="1.1"
   id="svg376"
   sodipodi:docname="bourse-fruits-seches.svg"
   inkscape:version="1.1 (ce6663b3b7, 2021-05-25)"
   inkscape:export-filename="/home/plic/Documents/dev/cofbazar.github.io/images/item/bourse-fruits-seches.png"
   inkscape:export-xdpi="24"
   inkscape:export-ydpi="24"
   xmlns:inkscape="http://www.inkscape.org/namespaces/inkscape"
   xmlns:sodipodi="http://sodipodi.sourceforge.net/DTD/sodipodi-0.dtd"
   xmlns="http://www.w3.org/2000/svg"
   xmlns:svg="http://www.w3.org/2000/svg">
  <sodipodi:namedview
     id="namedview378"
     pagecolor="#ffffff"
     bordercolor="#666666"
     borderopacity="1.0"
     inkscape:pageshadow="2"
     inkscape:pageopacity="0.0"
     inkscape:pagecheckerboard="0"
     showgrid="false"
     inkscape:zoom="0.42626953"
     inkscape:cx="49.264605"
     inkscape:cy="735.45017"
     inkscape:window-width="1559"
     inkscape:window-height="1082"
     inkscape:window-x="2107"
     inkscape:window-y="135"
     inkscape:window-maximized="0"
     inkscape:current-layer="svg376" />
  <defs
     id="defs370">
    <radialGradient
       id="lorc-swap-bag-gradient-1"
       gradientTransform="scale(0.87366834,1.1445991)"
       cx="287.47053"
       cy="225.80756"
       fx="287.47053"
       fy="225.80756"
       r="205.23704"
       gradientUnits="userSpaceOnUse">
      <stop
         offset="0%"
         stop-color="#b57204"
         stop-opacity="1"
         id="stop360" />
      <stop
         offset="100%"
         stop-color="#8b572a"
         stop-opacity="1"
         id="stop362" />
    </radialGradient>
    <linearGradient
       id="lorc-swap-bag-gradient-2">
      <stop
         offset="0%"
         stop-color="#9b9b9b"
         stop-opacity="1"
         id="stop365" />
      <stop
         offset="100%"
         stop-color="#c9c9c9"
         stop-opacity="1"
         id="stop367" />
    </linearGradient>
    <radialGradient
       id="lorc-shiny-apple-gradient-1">
      <stop
         offset="0%"
         stop-color="#d0021b"
         stop-opacity="1"
         id="stop415" />
      <stop
         offset="100%"
         stop-color="#6f252d"
         stop-opacity="1"
         id="stop417" />
    </radialGradient>
    <radialGradient
       id="lorc-shiny-apple-gradient-3"
       gradientTransform="scale(1.101872,0.90754646)"
       cx="231.66723"
       cy="334.27601"
       fx="231.66723"
       fy="334.27601"
       r="213.1902"
       gradientUnits="userSpaceOnUse">
      <stop
         offset="0%"
         stop-color="#ff0000"
         stop-opacity="1"
         id="stop420" />
      <stop
         offset="100%"
         stop-color="#940515"
         stop-opacity="1"
         id="stop422" />
    </radialGradient>
    <radialGradient
       id="lorc-shiny-apple-gradient-3-0"
       gradientTransform="scale(1.101872,0.90754646)"
       cx="231.66724"
       cy="334.276"
       fx="231.66724"
       fy="334.276"
       r="213.1902"
       gradientUnits="userSpaceOnUse">
      <stop
         offset="0%"
         stop-color="#ff0000"
         stop-opacity="1"
         id="stop420-6" />
      <stop
         offset="100%"
         stop-color="#940515"
         stop-opacity="1"
         id="stop422-2" />
    </radialGradient>
    <radialGradient
       id="lorc-shiny-apple-gradient-3-0-9"
       gradientTransform="scale(1.101872,0.90754646)"
       cx="231.66724"
       cy="334.276"
       fx="231.66724"
       fy="334.276"
       r="213.1902"
       gradientUnits="userSpaceOnUse">
      <stop
         offset="0%"
         stop-color="#ff0000"
         stop-opacity="1"
         id="stop420-6-2" />
      <stop
         offset="100%"
         stop-color="#940515"
         stop-opacity="1"
         id="stop422-2-0" />
    </radialGradient>
    <radialGradient
       id="lorc-shiny-apple-gradient-3-0-9-9"
       gradientTransform="scale(1.101872,0.90754646)"
       cx="231.66724"
       cy="334.276"
       fx="231.66724"
       fy="334.276"
       r="213.1902"
       gradientUnits="userSpaceOnUse">
      <stop
         offset="0%"
         stop-color="#ff0000"
         stop-opacity="1"
         id="stop420-6-2-2" />
      <stop
         offset="100%"
         stop-color="#940515"
         stop-opacity="1"
         id="stop422-2-0-2" />
    </radialGradient>
    <radialGradient
       id="lorc-swap-bag-gradient-1-6"
       gradientTransform="scale(0.87366834,1.1445991)"
       cx="287.47052"
       cy="225.80756"
       fx="287.47052"
       fy="225.80756"
       r="205.23705"
       gradientUnits="userSpaceOnUse">
      <stop
         offset="0%"
         stop-color="#b57204"
         stop-opacity="1"
         id="stop360-1" />
      <stop
         offset="100%"
         stop-color="#8b572a"
         stop-opacity="1"
         id="stop362-2" />
    </radialGradient>
    <radialGradient
       id="lorc-shiny-apple-gradient-3-0-1"
       gradientTransform="scale(1.101872,0.90754646)"
       cx="231.66724"
       cy="334.276"
       fx="231.66724"
       fy="334.276"
       r="213.1902"
       gradientUnits="userSpaceOnUse">
      <stop
         offset="0%"
         stop-color="#ff0000"
         stop-opacity="1"
         id="stop420-6-9" />
      <stop
         offset="100%"
         stop-color="#940515"
         stop-opacity="1"
         id="stop422-2-4" />
    </radialGradient>
    <radialGradient
       id="lorc-shiny-apple-gradient-3-0-0"
       gradientTransform="scale(1.101872,0.90754646)"
       cx="231.66724"
       cy="334.276"
       fx="231.66724"
       fy="334.276"
       r="213.1902"
       gradientUnits="userSpaceOnUse">
      <stop
         offset="0%"
         stop-color="#ff0000"
         stop-opacity="1"
         id="stop420-6-3" />
      <stop
         offset="100%"
         stop-color="#940515"
         stop-opacity="1"
         id="stop422-2-6" />
    </radialGradient>
    <radialGradient
       id="lorc-swap-bag-gradient-1-2"
       gradientTransform="matrix(-0.91775085,0,0,1.2023519,516.26486,-15.25274)"
       cx="287.47053"
       cy="225.80756"
       fx="287.47053"
       fy="225.80756"
       r="205.23704"
       gradientUnits="userSpaceOnUse">
      <stop
         offset="0%"
         stop-color="#8b572a"
         stop-opacity="1"
         id="stop1477" />
      <stop
         offset="100%"
         stop-color="#5c2c03"
         stop-opacity="1"
         id="stop1479" />
    </radialGradient>
    <radialGradient
       id="lorc-swap-bag-gradient-3">
      <stop
         offset="0%"
         stop-color="#ff0000"
         stop-opacity="1"
         id="stop1482" />
      <stop
         offset="100%"
         stop-color="#940515"
         stop-opacity="1"
         id="stop1484" />
    </radialGradient>
    <radialGradient
       id="lorc-swap-bag-gradient-5">
      <stop
         offset="0%"
         stop-color="#b57204"
         stop-opacity="1"
         id="stop1487" />
      <stop
         offset="100%"
         stop-color="#8b572a"
         stop-opacity="1"
         id="stop1489" />
    </radialGradient>
    <radialGradient
       id="lorc-grapes-gradient-1">
      <stop
         offset="0%"
         stop-color="#8b572a"
         stop-opacity="1"
         id="stop1673" />
      <stop
         offset="100%"
         stop-color="#5c2c03"
         stop-opacity="1"
         id="stop1675" />
    </radialGradient>
  </defs>
  <path
     d="m 134.12654,9.4802661 c 10.27557,0.059876 17.41973,3.2007419 21.79068,10.7356689 18.3935,31.702787 40.37115,64.755411 51.00178,102.151675 -2.9791,0.87188 -5.91933,1.87717 -8.79548,2.99696 -7.72401,3.00745 -15.10557,6.80906 -21.57848,11.40586 C 147.62176,109.93966 115.44522,89.279269 84.682588,68.005417 72.753599,59.75513 71.79033,53.736012 73.985785,46.124402 76.18124,38.512792 84.351694,28.933676 95.546412,21.779014 106.74218,14.625404 120.62082,9.8773388 132.02878,9.5096789 c 0.71431,-0.02311 1.41286,-0.031514 2.09776,-0.028362 z m 72.47942,0.7836409 c 10.52558,-0.191183 18.68973,6.71557 25.13113,21.261246 9.39108,21.212925 10.72726,56.132211 1.51896,87.382257 -0.16387,-0.008 -0.32564,-0.0242 -0.49056,-0.0315 -2.09041,-0.0914 -4.19133,-0.0756 -6.30274,0.0315 C 216.55064,82.328396 197.08567,50.921838 180.22899,22.761192 191.0592,13.83651 200.05531,10.384709 206.60386,10.264957 Z m 102.19369,61.146041 11.0298,16.250567 c -15.56777,10.546586 -30.52207,20.720265 -41.82184,32.957035 -4.11359,4.45394 -7.74186,9.16209 -10.83021,14.29357 -3.96022,-4.96866 -8.93939,-8.80073 -14.38075,-11.33653 -0.42754,-0.19749 -0.86138,-0.37291 -1.28996,-0.55674 3.59571,-5.71449 7.67253,-10.94366 12.09076,-15.72744 13.41013,-14.524675 29.66595,-25.354885 45.2022,-35.880462 z M 73.738928,84.299053 c 30.731112,21.248647 61.530512,41.127487 88.603932,65.947687 -0.4601,0.60506 -0.89079,1.22693 -1.32147,1.8488 -21.72345,-7.09058 -51.98291,-16.10665 -77.64557,-20.38937 -12.063448,-2.01267 -16.450155,-6.88259 -18.46073,-13.89544 -2.010574,-7.01285 -0.469554,-17.55314 5.584229,-28.34448 0.970622,-1.730102 2.058895,-3.456003 3.238558,-5.168247 z M 308.97613,134.58443 c 15.70433,0.21009 31.23218,4.51696 46.17493,13.41013 l -10.04552,16.83882 c -22.74974,-13.54039 -44.77677,-14.84611 -68.5234,-4.79323 -0.54624,-5.87416 -1.85405,-11.19787 -3.9161,-15.97745 -0.36766,-0.84667 -0.76683,-1.66603 -1.17966,-2.47278 12.46892,-4.74806 25.03238,-7.17147 37.4887,-7.00655 z m -79.62463,4.13249 c 5.85945,-0.0872 11.13169,0.77944 15.15494,2.65346 4.59785,2.14083 7.84271,5.16194 10.13481,10.47305 0.9286,2.15029 1.65132,4.76907 2.08516,7.87212 -0.47901,-0.007 -0.95592,-0.0315 -1.43388,-0.0347 -16.86298,-0.0882 -34.23123,2.90976 -51.80117,9.6537 -8.10323,3.10935 -15.82198,7.82905 -23.15943,13.84922 -3.37931,-2.56837 -5.24177,-4.95816 -6.06428,-6.86474 -1.27106,-2.93917 -1.15025,-5.44556 0.66599,-9.26502 3.63458,-7.64208 15.97429,-17.8105 30.31198,-23.39368 7.16832,-2.79211 14.68539,-4.43713 21.55852,-4.84681 0.85928,-0.0525 1.7091,-0.084 2.54631,-0.0966 z m 26.00616,40.39742 c 24.1416,0.0788 46.97853,7.75867 68.2797,20.78014 34.08207,20.83581 63.62091,55.80447 84.3979,94.57473 20.77488,38.77026 32.70387,81.31586 32.75954,116.10699 0.0557,34.72812 -10.77768,60.15968 -34.46758,71.20208 -0.0452,0.021 -0.0861,0.0452 -0.13131,0.0662 h -0.0336 c -26.12696,12.09076 -68.92677,20.31269 -113.87687,21.10578 -44.94905,0.79415 -92.2196,-5.73234 -128.02337,-21.20557 -23.06804,-9.96884 -36.28804,-29.8876 -42.54351,-56.88854 -6.25442,-27.00201 -4.74596,-60.56621 2.49484,-93.82052 7.24185,-33.25431 20.16877,-66.24181 35.81533,-92.3089 15.6455,-26.06603 34.25959,-44.81669 50.4881,-51.04484 15.4039,-5.91092 30.3561,-8.61375 44.84085,-8.56753 z"
     fill="url(#lorc-swap-bag-gradient-1)"
     id="path1494"
     style="fill:url(#lorc-swap-bag-gradient-1-2);stroke-width:1.05046" />
  <g
     transform="matrix(-0.37533218,0.6117452,0.6117452,0.37533218,170.13592,116.85124)"
     id="g1712">
    <path
       d="m 277.28,18.094 c 2.42,33.67 -0.094,66.692 -8.967,99.187 -0.552,-2.168 -1.15,-4.308 -1.813,-6.436 C 257.145,80.811 236.97,55.08 205.187,35.532 183.545,18.984 144.927,11.837 91.75,27.189 94,49.449 137.202,52.011 151.906,54.033 123.012,60.4 91.11,85.214 48.53,90.25 c 39.324,20.744 92.66,4.396 129.064,-11.688 -1.873,17.715 -13.69,29.033 -24.53,59.594 47.832,-11.062 70.85,-37.418 72.155,-62.562 11.173,12.212 18.763,25.81 23.436,40.812 3.505,11.25 5.34,23.392 5.594,36.344 3.873,4.97 6.9,10.635 8.813,16.78 5.315,-3.01 11.198,-5.134 17.437,-6.155 6.107,-14.92 12.983,-27.09 20.53,-36.156 14.88,-17.87 30.967,-24.548 53.5,-20.19 l 0.033,-0.155 c 32.603,22.698 24.114,60.97 12.25,89.375 21.587,-6.676 33.4,-19.928 33.437,-42.97 17.947,11.77 25.423,31.093 30.563,52.064 7.22,-21.503 5.772,-44.784 -12.782,-64.844 l 43.345,16.5 c -27.924,-33.363 -54.318,-68.923 -105.28,-68.688 -26.457,-4.45 -49.91,4.967 -67.376,24.563 7.41,-31.25 9.436,-62.938 7.28,-94.78 h -18.72 z"
       class=""
       fill="#693d16"
       fill-opacity="0"
       id="path1680" />
    <path
       d="m 212.53,150.97 c -19.002,0 -34.218,15.184 -34.218,34.186 0,6.81 1.963,13.127 5.344,18.438 3.66,-0.807 7.452,-1.25 11.344,-1.25 13.056,0 25.03,4.807 34.28,12.72 10.44,-5.836 17.44,-17.008 17.44,-29.908 0,-19.002 -15.186,-34.187 -34.19,-34.187 z"
       class=""
       fill="#d0021b"
       stroke="#4a4a4a"
       stroke-opacity="1"
       stroke-width="8"
       fill-opacity="1"
       id="path1682" />
    <path
       d="m 154.125,169.656 c -19.003,0 -34.22,15.185 -34.22,34.188 0,15.977 10.75,29.295 25.47,33.125 4.004,-10.795 11.44,-19.943 20.97,-26.126 -4.267,-7.615 -6.72,-16.384 -6.72,-25.688 0,-5.082 0.74,-9.997 2.094,-14.656 -2.44,-0.544 -4.984,-0.844 -7.595,-0.844 z"
       class=""
       fill="#d0021b"
       fill-opacity="1"
       stroke="#4a4a4a"
       stroke-opacity="1"
       stroke-width="8"
       id="path1684" />
    <path
       d="m 289.031,181.344 c -19.002,0 -34.217,15.185 -34.217,34.187 0,3.495 0.51,6.866 1.468,10.032 4.125,-1.04 8.44,-1.593 12.876,-1.593 16.203,0 30.745,7.38 40.47,18.936 8.274,-6.225 13.593,-16.133 13.593,-27.375 0,-19 -15.186,-34.186 -34.19,-34.186 z"
       class=""
       fill="#d0021b"
       fill-opacity="1"
       stroke="#4a4a4a"
       stroke-opacity="1"
       stroke-width="8"
       id="path1686" />
    <path
       d="m 195,221.03 c -19.003,0 -34.22,15.218 -34.22,34.22 0,19.002 15.22,34.22 34.22,34.22 19,0 34.22,-15.218 34.22,-34.22 0,-19.002 -15.217,-34.22 -34.22,-34.22 z"
       class=""
       fill="#d0021b"
       fill-opacity="1"
       stroke="#4a4a4a"
       stroke-opacity="1"
       stroke-width="8"
       id="path1688" />
    <path
       d="m 342.156,228.062 c -0.594,0 -1.195,0.002 -1.78,0.032 -3.13,12.737 -10.908,23.675 -21.407,30.937 2.01,5.575 3.092,11.566 3.092,17.814 0,4.15 -0.523,8.182 -1.437,12.062 5.863,4.74 13.34,7.563 21.53,7.563 19.004,0 34.22,-15.218 34.22,-34.22 0,-19.002 -15.216,-34.188 -34.22,-34.188 z"
       class=""
       fill="#d0021b"
       stroke="#4a4a4a"
       stroke-opacity="1"
       stroke-width="8"
       fill-opacity="1"
       id="path1690" />
    <path
       d="m 269.156,242.656 c -8.17,0 -15.644,2.82 -21.5,7.53 0.16,1.673 0.25,3.352 0.25,5.064 0,12.203 -4.18,23.462 -11.187,32.438 4.49,13.63 17.23,23.375 32.436,23.375 19.003,0 34.22,-15.217 34.22,-34.22 0,-19.002 -15.217,-34.187 -34.22,-34.187 z"
       class=""
       fill="#d0021b"
       fill-opacity="1"
       stroke="#4a4a4a"
       stroke-opacity="1"
       stroke-width="8"
       id="path1692" />
    <path
       d="m 124.906,253.75 c -19.003,0 -34.187,15.216 -34.187,34.22 0,11.956 6.024,22.397 15.218,28.5 4.38,-20.14 20.305,-36.045 40.437,-40.44 -2.357,-5.47 -3.817,-11.402 -4.188,-17.624 -5.063,-2.95 -10.953,-4.656 -17.28,-4.656 z"
       class=""
       fill="#d0021b"
       fill-opacity="1"
       stroke="#4a4a4a"
       stroke-opacity="1"
       stroke-width="8"
       id="path1694" />
    <path
       d="m 157.626,293.47 c -19.004,0 -34.22,15.184 -34.22,34.186 0,19.003 15.217,34.22 34.22,34.22 19,0 34.186,-15.217 34.186,-34.22 0,-7.704 -2.484,-14.777 -6.718,-20.47 -10.17,-1.946 -19.338,-6.793 -26.563,-13.686 -0.3,-0.008 -0.603,-0.03 -0.905,-0.03 z"
       class=""
       fill="#d0021b"
       fill-opacity="1"
       stroke="#4a4a4a"
       stroke-opacity="1"
       stroke-width="8"
       id="path1696" />
    <path
       d="m 222,300.686 c -4.825,2.887 -10.135,5.02 -15.78,6.25 2.737,6.375 4.28,13.366 4.28,20.72 0,10.833 -3.3,20.933 -8.938,29.343 6.227,6.618 15.09,10.72 24.97,10.72 19.002,0 34.218,-15.218 34.218,-34.22 0,-1.527 -0.122,-3.028 -0.313,-4.5 -16.79,-2.815 -30.95,-13.604 -38.437,-28.313 z"
       class=""
       fill="#d0021b"
       fill-opacity="1"
       stroke="#4a4a4a"
       stroke-opacity="1"
       stroke-width="8"
       id="path1698" />
    <path
       d="m 313.03,306.343 c -7.686,11.375 -19.688,19.607 -33.592,22.375 5.016,12.622 17.287,21.467 31.78,21.467 19.003,0 34.22,-15.185 34.22,-34.187 0,-0.313 -0.024,-0.627 -0.032,-0.938 -1.075,0.066 -2.16,0.094 -3.25,0.094 -10.745,0 -20.76,-3.25 -29.125,-8.812 z"
       class=""
       fill="#d0021b"
       fill-opacity="1"
       stroke="#4a4a4a"
       stroke-opacity="1"
       stroke-width="8"
       id="path1700" />
    <path
       d="m 275.03,354.468 c -4.6,10.558 -12.534,19.36 -22.467,25.03 3.98,14.483 17.154,25 32.968,25 19.004,0 34.19,-15.185 34.19,-34.188 0,-0.71 -0.022,-1.425 -0.064,-2.125 -2.75,0.445 -5.567,0.688 -8.437,0.688 -13.967,0 -26.708,-5.495 -36.19,-14.406 z"
       class=""
       fill="#d0021b"
       fill-opacity="1"
       stroke="#4a4a4a"
       stroke-opacity="1"
       stroke-width="8"
       id="path1702" />
    <path
       d="m 188.72,370.404 c -5.773,4.222 -12.433,7.27 -19.626,8.875 -0.816,2.942 -1.28,6.036 -1.28,9.25 0,19.004 15.184,34.19 34.186,34.19 19.002,0 34.22,-15.186 34.22,-34.19 0,-1.006 -0.042,-2.015 -0.126,-3 -3.103,0.575 -6.3,0.876 -9.563,0.876 -14.775,0 -28.19,-6.147 -37.81,-16 z"
       class=""
       fill="#d0021b"
       fill-opacity="1"
       stroke="#4a4a4a"
       stroke-opacity="1"
       stroke-width="8"
       id="path1704" />
    <path
       d="m 127.438,371.029 c -2.582,4.822 -4.032,10.332 -4.032,16.22 0,19.002 15.217,34.188 34.22,34.188 0.992,0 1.966,-0.044 2.936,-0.125 -7.16,-9.024 -11.437,-20.424 -11.437,-32.782 0,-2.914 0.26,-5.77 0.72,-8.56 -8.234,-1.228 -15.854,-4.355 -22.407,-8.94 z"
       class=""
       fill="#d0021b"
       fill-opacity="1"
       stroke="#4a4a4a"
       stroke-opacity="1"
       stroke-width="8"
       id="path1706" />
    <path
       d="m 250.406,409.749 c -1.208,2.733 -2.647,5.342 -4.28,7.813 10.19,8.923 16.945,21.68 17.968,35.968 17.506,-0.66 31.472,-14.26 32.75,-31.592 -3.65,0.802 -7.43,1.25 -11.313,1.25 -13.452,0 -25.763,-5.1 -35.124,-13.438 z"
       class=""
       fill="#d0021b"
       fill-opacity="1"
       stroke="#4a4a4a"
       stroke-opacity="1"
       stroke-width="8"
       id="path1708" />
    <path
       d="m 233.312,431.062 c -8.777,6.49 -19.612,10.343 -31.312,10.343 -6.638,0 -12.98,-1.245 -18.844,-3.5 -3.78,5.503 -6,12.167 -6,19.406 0,19.003 15.185,34.22 34.188,34.22 19.002,0 34.22,-15.217 34.22,-34.22 0,-10.61 -4.755,-19.998 -12.25,-26.25 z"
       class="selected"
       fill="#d0021b"
       fill-opacity="1"
       stroke="#4a4a4a"
       stroke-opacity="1"
       stroke-width="8"
       id="path1710" />
  </g>
</svg>
