<svg xmlns="http://www.w3.org/2000/svg" viewBox="0 0 512 512" style="height: 64px; width: 64px;"><defs><radialGradient id="gradient-3"><stop offset="0%" stop-color="#c0d8e8" stop-opacity="1"></stop><stop offset="100%" stop-color="#d4e1e9" stop-opacity="1"></stop></radialGradient><radialGradient id="gradient-4"><stop offset="0%" stop-color="#c0d8e8" stop-opacity="1"></stop><stop offset="100%" stop-color="#d1d9df" stop-opacity="1"></stop></radialGradient><radialGradient id="gradient-5"><stop offset="0%" stop-color="#c0d8e8" stop-opacity="1"></stop><stop offset="100%" stop-color="#e0e7ec" stop-opacity="1"></stop></radialGradient><radialGradient id="gradient-6"><stop offset="0%" stop-color="#c0d8e8" stop-opacity="1"></stop><stop offset="100%" stop-color="#d4e1e9" stop-opacity="1"></stop></radialGradient></defs><g class="" transform="translate(0,0)" style="touch-action: none;"><g><path d="M67.5 34L67.5 93L131.5 93L131.5 34L67.5 34Z" class="" fill="#703f14" fill-opacity="1" stroke="#4a4a4a" stroke-opacity="1" stroke-width="10"></path><path d="M65.75 111C51.53 136.4 52.11 167.2 67.5 198C51.5 198 19.5 214 19.5 230L19.5 454C19.5 486 179.5 486 179.5 454L179.5 230C179.5 214 147.5 198 131.5 198C147 167 147.5 136.1 133 111L65.75 111Z" class="" fill="url(#gradient-3)" stroke="#4a4a4a" stroke-opacity="1" stroke-width="10"></path><path d="M99.5 245C110.2 245 120 248.2 127.5 253.8C135.1 259.5 140.5 268.1 140.5 278L163.5 278L163.5 390L35.5 390L35.5 278L58.5 278C58.5 268.1 63.92 259.5 71.47 253.8C79.02 248.2 88.84 245 99.5 245Z" class="" fill="url(#gradient-4)"></path><path d="M268.5 324C236.5 324 204.5 328 204.5 336L220.5 464C236.5 480 300.5 480 316.5 464L332.5 336C332.5 328 300.5 324 268.5 324Z" class="" fill="url(#gradient-5)" stroke="#4a4a4a" stroke-opacity="1" stroke-width="10"></path><path d="M428.5 324C396.5 324 364.5 328 364.5 336L380.5 464C396.5 480 460.5 480 476.5 464L492.5 336C492.5 328 460.5 324 428.5 324Z" class="" fill="url(#gradient-6)" stroke="#4a4a4a" stroke-opacity="1" stroke-width="10"></path><path d="M428.5 379.5C434.2 379.5 439.9 380.3 445 381.9C445.2 400.9 445.3 421.7 445.3 421.7L457.5 388.5C461.5 391.9 464.1 396.5 464.5 402L460.5 448C460.5 464 396.5 464 396.5 448L392.5 402C393.5 387 411 379.5 428.5 379.5Z" class="selected" fill="#c0d8e8" fill-opacity="1" stroke="#c8d9e4" stroke-opacity="1" stroke-width="10"></path><path d="M268.5 409.5C274.3 409.5 280 410.4 285.1 412.2C285.2 424.2 285.3 437.7 285.3 437.7L293.1 416.3C298.5 420 302 425.2 302.5 432L300.5 448C300.5 464 236.5 464 236.5 448L234.5 432C235.5 417 252 409.5 268.5 409.5Z" class="" fill="#c0d8e8" fill-opacity="1"></path></g></g></svg>