<?xml version="1.0" encoding="UTF-8" standalone="no"?>
<svg
   xmlns:dc="http://purl.org/dc/elements/1.1/"
   xmlns:cc="http://creativecommons.org/ns#"
   xmlns:rdf="http://www.w3.org/1999/02/22-rdf-syntax-ns#"
   xmlns:svg="http://www.w3.org/2000/svg"
   xmlns="http://www.w3.org/2000/svg"
   xmlns:sodipodi="http://sodipodi.sourceforge.net/DTD/sodipodi-0.dtd"
   xmlns:inkscape="http://www.inkscape.org/namespaces/inkscape"
   viewBox="0 0 512 512"
   style="height: 64px; width: 64px;"
   version="1.1"
   id="svg106"
   sodipodi:docname="briquet-en-silex.svg"
   inkscape:version="0.92.3 (2405546, 2018-03-11)"
   inkscape:export-filename="/home/plic/Téléchargements/briquet-en-silex.png"
   inkscape:export-xdpi="12"
   inkscape:export-ydpi="12">
  <metadata
     id="metadata112">
    <rdf:RDF>
      <cc:Work
         rdf:about="">
        <dc:format>image/svg+xml</dc:format>
        <dc:type
           rdf:resource="http://purl.org/dc/dcmitype/StillImage" />
        <dc:title></dc:title>
      </cc:Work>
    </rdf:RDF>
  </metadata>
  <defs
     id="defs110">
    <radialGradient
       id="gradient-4"
       gradientTransform="scale(1.1653623,0.85810221)"
       cx="308.26648"
       cy="152.43522"
       fx="308.26648"
       fy="152.43522"
       r="108.25633"
       gradientUnits="userSpaceOnUse">
      <stop
         id="stop114"
         stop-opacity="1"
         stop-color="#f5a623"
         offset="0%" />
      <stop
         id="stop116"
         stop-opacity="1"
         stop-color="#d0021b"
         offset="100%" />
    </radialGradient>
  </defs>
  <sodipodi:namedview
     pagecolor="#ffffff"
     bordercolor="#666666"
     borderopacity="1"
     objecttolerance="10"
     gridtolerance="10"
     guidetolerance="10"
     inkscape:pageopacity="0"
     inkscape:pageshadow="2"
     inkscape:window-width="1325"
     inkscape:window-height="936"
     id="namedview108"
     showgrid="false"
     inkscape:zoom="0.32593203"
     inkscape:cx="-220.797"
     inkscape:cy="638.20915"
     inkscape:window-x="2155"
     inkscape:window-y="27"
     inkscape:window-maximized="0"
     inkscape:current-layer="svg106" />
  <g
     class=""
     transform="matrix(0.7889235,0,0,0.7889235,154.07856,25.031327)"
     id="g104">
    <g
       transform="matrix(0.8,0,0,0.8,51.2,51.2)"
       id="g102">
      <path
         d="m 407,38.31 c -83.1,16.32 -65.1,11.63 -142.4,3.2 -35.3,39.72 -55.2,46.16 -79.6,55.38 -15.2,34.21 -32.3,77.31 -83.8,98.41 -9.05,73.1 -34.15,127.5 -74.58,163.6 19.12,30.9 20.69,63.5 19.64,96.1 46.79,-6.3 71.54,9.6 102.94,18.7 48.2,-52.3 112.9,-88.8 196.2,-107.9 41.1,-92.5 127.9,-82.1 140,-94 -23.8,-43.7 -7.2,-94.5 -19.8,-136.9 -3.9,-13.1 -11.9,-25 -20.9,-36.61 -29.3,12.91 -43.8,26.91 -52,42.51 -8.5,15.9 -10.3,35 -11.7,57.8 8.4,-1.2 16.6,-1.5 24.1,-1.1 9,0.5 17.3,2.1 24.1,4.2 l -5.2,17.2 c -21.3,-6.5 -64.1,-6.7 -95.8,26.2 l -13,-12.6 c 14.7,-15.1 31.2,-24.4 47.5,-29.6 1.5,-25.4 2.7,-48.9 14,-70.5 9.9,-18.7 27.1,-34.81 56.4,-48.58 C 421.5,69.26 410.5,54.64 407,38.31 Z"
         class="selected"
         id="path98"
         inkscape:connector-curvature="0"
         style="fill:#4a4a4a;fill-opacity:1" />
      <path
         d="m 317.1,87.15 17.2,5.04 c -18.7,64.01 -56,104.51 -104.1,129.11 2.6,24.6 1.8,46 -1.7,64.3 11.5,-4.3 22.9,-6.3 34,-6.4 5.9,0 11.7,0.5 17.5,1.4 22.8,3.8 44.3,14.1 65.1,25.2 l -8.4,15.8 c -20.4,-10.8 -40.3,-20.1 -59.7,-23.2 -18.1,-3 -35.7,-1.1 -54.9,10.2 -8.1,21.8 -20.8,38.2 -36.6,50 -10.1,7.6 -21.3,13.4 -33,17.7 -18.7,16 -28.2,41.3 -26.9,62.8 l -18,1 c -1.1,-18.6 3.8,-38.5 14.4,-55.6 -17.8,3.2 -35.75,4.2 -52.54,4.3 l -0.12,-18 c 36.76,-0.2 77.36,-5.5 105.36,-26.6 26.3,-19.7 43.7,-53.1 38.2,-115 -13.9,5.8 -28.5,10.4 -43.8,14.1 l -4.2,-17.4 C 238,208.2 292.6,170.5 317.1,87.15 Z"
         class=""
         id="path100"
         inkscape:connector-curvature="0"
         style="fill:#000000;fill-opacity:1" />
    </g>
  </g>
  <g
     id="g131"
     class=""
     transform="matrix(0.7513582,0,0,0.7513582,-11.853892,92.717652)">
    <g
       id="g129"
       transform="matrix(0.20705524,0.77274066,-0.77274066,0.20705524,400.81547,5.1722503)">
      <path
         id="path121"
         class=""
         d="m 258.3,19.77 c 0,0 -23,22.66 -23,37.26 0,17.83 28.3,45.47 28.3,45.47 -13.7,-28.35 -15.3,-55.08 -5.3,-82.73 z"
         inkscape:connector-curvature="0"
         style="fill:#d0021b;fill-opacity:1" />
      <path
         id="path123"
         class=""
         d="m 407.2,25.22 c 0,0 3.6,25.13 1.7,37.5 -1.4,8.92 -9.2,25.46 -9.2,25.46 0,0 32.5,-14.23 34,-29.07 1.4,-14.27 -26.5,-33.89 -26.5,-33.89 z"
         inkscape:connector-curvature="0"
         style="fill:#d0021b;fill-opacity:1" />
      <path
         id="path125"
         class=""
         d="m 360,37.91 c -0.1,7.08 -0.9,14.2 -2.3,21.03 -3.5,15.82 -9.8,30.33 -21.2,38.64 -8.2,6.02 -20.4,8.32 -32.4,3.02 -9.2,-4.11 -18.9,-11.68 -30.3,-23.75 -1.3,9.87 -0.3,21.82 6.9,34.85 l 12.2,22.1 -23.5,-9.5 c -14.1,-5.7 -25,-17.6 -36.1,-31.27 -0.5,19.87 -0.4,41.27 3.3,60.27 5.3,27 16.3,47.8 43.7,56.2 -6.1,-10.9 -6.2,-23.3 0.8,-37 20.4,24.8 24.4,2.8 33.2,-1.6 5.8,-2.9 9.5,-15.9 5.7,-42.3 7.5,13.3 15.6,32 29.5,35.4 18.6,4.6 32.8,-13.6 46.5,-34.8 0,0 -7.1,32 0,43.2 3.1,4.9 5.8,8.4 22.9,7.9 -15.8,18.8 -30.8,30.3 -59.1,43.4 52,-2.8 98,-37.7 125.6,-72.1 -13.1,3.5 -21.4,4.3 -34.5,3.8 l -23.1,-0.8 17.6,-15 c 11.7,-10.1 19.7,-29.9 23.4,-50.6 2.3,-12.57 2.9,-25.22 2.6,-36.09 -7.5,7.42 -15.8,15.46 -24.9,23.68 -15.3,13.73 -31.3,26.81 -46.2,33.51 l -9.8,4.4 -2.6,-10.4 C 382.2,80.99 373.8,55.93 360,37.91 Z"
         inkscape:connector-curvature="0"
         style="fill:url(#gradient-4)" />
      <path
         id="path127"
         class="selected"
         d="m 276.3,227.3 c -6.2,4.7 -13.1,10.1 -20.6,16.2 -25.8,20.8 -58.2,48.3 -90.7,76.6 -32.4,28.3 -65,57.4 -90.93,81.5 -22.42,20.9 -39.68,38 -47.45,46.8 l 26.85,-9.8 -24.8,20 c 1.4,2.4 3.28,4.8 5.95,7.6 1.61,1.6 3.61,3.5 5.96,5.4 l 86.62,-68 -20.1,22.5 -51.2,57.1 c 3.93,2.8 8.24,5.8 13.03,9 C 154,408.6 240.2,325 332.3,241.3 c -9.2,-0.5 -17.3,-1.5 -25.5,-3.4 l -56.6,45.3 41,-50 c -4.7,-1.6 -9.6,-3.6 -14.9,-5.9 z"
         inkscape:connector-curvature="0"
         style="fill:#8b572a;fill-opacity:1" />
    </g>
  </g>
</svg>
