<svg xmlns="http://www.w3.org/2000/svg" viewBox="0 0 512 512" style="height: 64px; width: 64px;"><defs><radialGradient id="gradient-1"><stop offset="0%" stop-color="#ffe0af" stop-opacity="1"></stop><stop offset="100%" stop-color="#e6ceaa" stop-opacity="1"></stop></radialGradient></defs><g class="" transform="translate(0,0)" style="touch-action: none;"><g><path d="M149.688 85.625C148.454 85.63 147.223 85.658 145.968 85.688C112.055 86.494 70.488 96.392 18.718 119.406L18.718 362.78C79.488 333.96 125.436 325.713 162.938 329.688C196.44 333.238 222.623 346.348 246.5 360.875L246.5 117.905C223.283 100.161 196.305 87.865 160.53 85.905C157.01 85.713 153.388 85.609 149.687 85.625Z" class="" fill="#ffe0af" fill-opacity="1" stroke="#4a4a4a" stroke-opacity="1" stroke-width="10"></path><path d="M361.656 85.625C357.956 85.609 354.334 85.713 350.812 85.905C315.039 87.865 288.062 100.161 264.844 117.905L264.844 360.875C288.72 346.348 314.904 333.238 348.406 329.687C385.908 325.713 431.856 333.959 492.626 362.781L492.626 119.407C440.856 96.393 399.289 86.495 365.376 85.687C364.121 85.659 362.89 85.631 361.656 85.627Z" class="" fill="#ffe0af" fill-opacity="1" stroke="#4a4a4a" stroke-opacity="1" stroke-width="10"></path><path d="M367.376 347.405C366.338 347.403 365.302 347.422 364.281 347.438C359.473 347.513 354.851 347.808 350.376 348.281C316.444 351.878 290.773 366.257 264.846 382.721L264.846 383.001C258.292 381.011 251.826 380.631 245.438 382.031C219.872 365.854 194.435 351.829 160.97 348.281C155.375 347.689 149.53 347.398 143.406 347.439C111.366 347.652 71.573 357.217 18.719 383.376L18.719 425.906C79.489 397.083 125.433 388.839 162.937 392.814C181.482 394.779 197.774 399.659 212.687 406.094C208.005 412.158 203.379 419.362 198.812 427.782L315.968 427.782C310.038 419.562 304.17 412.368 298.342 406.222C313.338 399.719 329.732 394.792 348.404 392.814C385.907 388.84 431.852 397.084 492.624 425.908L492.624 383.378C439.464 357.068 399.509 347.515 367.374 347.408Z" class="selected" fill="#8b572a" fill-opacity="1" stroke="#4a4a4a" stroke-opacity="1" stroke-width="10"></path></g></g></svg>