<?xml version="1.0" encoding="UTF-8" standalone="no"?>
<svg
   xmlns:dc="http://purl.org/dc/elements/1.1/"
   xmlns:cc="http://creativecommons.org/ns#"
   xmlns:rdf="http://www.w3.org/1999/02/22-rdf-syntax-ns#"
   xmlns:svg="http://www.w3.org/2000/svg"
   xmlns="http://www.w3.org/2000/svg"
   xmlns:sodipodi="http://sodipodi.sourceforge.net/DTD/sodipodi-0.dtd"
   xmlns:inkscape="http://www.inkscape.org/namespaces/inkscape"
   inkscape:export-ydpi="24"
   inkscape:export-xdpi="24"
   inkscape:export-filename="/home/plic/Documents/dev/cofbazar.github.io/images/resources/carreau-explosif-coup-doublepng.png"
   inkscape:version="1.0 (6e3e5246a0, 2020-05-07)"
   sodipodi:docname="carreau-explosif-coup-double.svg"
   id="svg59"
   version="1.1"
   style="height: 64px; width: 64px;"
   viewBox="0 0 512 512">
  <metadata
     id="metadata63">
    <rdf:RDF>
      <cc:Work
         rdf:about="">
        <dc:format>image/svg+xml</dc:format>
        <dc:type
           rdf:resource="http://purl.org/dc/dcmitype/StillImage" />
        <dc:title></dc:title>
      </cc:Work>
    </rdf:RDF>
  </metadata>
  <sodipodi:namedview
     inkscape:document-rotation="0"
     inkscape:current-layer="svg59"
     inkscape:window-maximized="0"
     inkscape:window-y="263"
     inkscape:window-x="2447"
     inkscape:cy="183.67028"
     inkscape:cx="216.40786"
     inkscape:zoom="0.82725969"
     showgrid="false"
     id="namedview61"
     inkscape:window-height="780"
     inkscape:window-width="1390"
     inkscape:pageshadow="2"
     inkscape:pageopacity="0"
     guidetolerance="10"
     gridtolerance="10"
     objecttolerance="10"
     borderopacity="1"
     bordercolor="#666666"
     pagecolor="#ffffff" />
  <defs
     id="defs27">
    <radialGradient
       gradientUnits="userSpaceOnUse"
       r="79.17425"
       fy="254.12662"
       fx="253.57894"
       cy="254.12662"
       cx="253.57894"
       gradientTransform="scale(1.1377178,0.87895259)"
       id="gradient-4">
      <stop
         id="stop2"
         stop-opacity="1"
         stop-color="#4a4a4a"
         offset="0%" />
      <stop
         id="stop4"
         stop-opacity="1"
         stop-color="#000000"
         offset="100%" />
    </radialGradient>
    <radialGradient
       gradientUnits="userSpaceOnUse"
       r="20.294572"
       fy="268.28217"
       fx="283.79956"
       cy="268.28217"
       cx="283.79956"
       gradientTransform="scale(1.0804516,0.92553889)"
       id="gradient-5">
      <stop
         id="stop7"
         stop-opacity="1"
         stop-color="#4a4a4a"
         offset="0%" />
      <stop
         id="stop9"
         stop-opacity="1"
         stop-color="#000000"
         offset="100%" />
    </radialGradient>
    <radialGradient
       gradientUnits="userSpaceOnUse"
       r="43.214284"
       fy="348.20348"
       fx="53.609588"
       cy="348.20348"
       cx="53.609588"
       gradientTransform="scale(1.2930206,0.7733829)"
       id="gradient-6">
      <stop
         id="stop12"
         stop-opacity="1"
         stop-color="#4a4a4a"
         offset="0%" />
      <stop
         id="stop14"
         stop-opacity="1"
         stop-color="#000000"
         offset="100%" />
    </radialGradient>
    <radialGradient
       gradientUnits="userSpaceOnUse"
       r="15.793033"
       fy="225.52021"
       fx="398.85173"
       cy="225.52021"
       cx="398.85173"
       gradientTransform="scale(0.75982872,1.3160861)"
       id="gradient-7">
      <stop
         id="stop17"
         stop-opacity="1"
         stop-color="#4a4a4a"
         offset="0%" />
      <stop
         id="stop19"
         stop-opacity="1"
         stop-color="#000000"
         offset="100%" />
    </radialGradient>
    <radialGradient
       gradientUnits="userSpaceOnUse"
       r="45.060124"
       fy="311.37225"
       fx="145.58853"
       cy="311.37225"
       cx="145.58853"
       gradientTransform="scale(0.88000368,1.1363589)"
       id="gradient-8">
      <stop
         id="stop22"
         stop-opacity="1"
         stop-color="#d0021b"
         offset="0%" />
      <stop
         id="stop24"
         stop-opacity="1"
         stop-color="#f49da7"
         offset="100%" />
    </radialGradient>
    <radialGradient
       id="gradient-2"
       gradientTransform="scale(0.89280005,1.1200716)"
       cx="461.25223"
       cy="62.788383"
       fx="461.25223"
       fy="62.788383"
       r="56.377858"
       gradientUnits="userSpaceOnUse">
      <stop
         offset="0%"
         stop-color="#d0021b"
         stop-opacity="1"
         id="stop848" />
      <stop
         offset="100%"
         stop-color="#f5a623"
         stop-opacity="1"
         id="stop850" />
    </radialGradient>
    <radialGradient
       id="gradient-3"
       gradientTransform="scale(0.93882417,1.0651622)"
       cx="142.72696"
       cy="59.438514"
       fx="142.72696"
       fy="59.438514"
       r="46.265872"
       gradientUnits="userSpaceOnUse">
      <stop
         offset="0%"
         stop-color="#d0021b"
         stop-opacity="1"
         id="stop853" />
      <stop
         offset="100%"
         stop-color="#f5a623"
         stop-opacity="1"
         id="stop855" />
    </radialGradient>
    <radialGradient
       id="gradient-4-3"
       gradientTransform="scale(1.0133327,0.98684274)"
       cx="253.8692"
       cy="262.25746"
       fx="253.8692"
       fy="262.25746"
       r="236.92266"
       gradientUnits="userSpaceOnUse">
      <stop
         offset="0%"
         stop-color="#f5a623"
         stop-opacity="1"
         id="stop858" />
      <stop
         offset="100%"
         stop-color="#d0021b"
         stop-opacity="1"
         id="stop860" />
    </radialGradient>
    <radialGradient
       id="gradient-5-6"
       gradientTransform="scale(1.0317708,0.9692075)"
       cx="426.22567"
       cy="126.31679"
       fx="426.22567"
       fy="126.31679"
       r="71.465792"
       gradientUnits="userSpaceOnUse">
      <stop
         offset="0%"
         stop-color="#f5a623"
         stop-opacity="1"
         id="stop863" />
      <stop
         offset="100%"
         stop-color="#d0021b"
         stop-opacity="1"
         id="stop865" />
    </radialGradient>
    <radialGradient
       id="gradient-6-7"
       gradientTransform="scale(1.4126385,0.70789521)"
       cx="51.072908"
       cy="211.5256"
       fx="51.072908"
       fy="211.5256"
       r="42.473442"
       gradientUnits="userSpaceOnUse">
      <stop
         offset="0%"
         stop-color="#f5a623"
         stop-opacity="1"
         id="stop868" />
      <stop
         offset="100%"
         stop-color="#d0021b"
         stop-opacity="1"
         id="stop870" />
    </radialGradient>
    <radialGradient
       id="gradient-10"
       gradientTransform="scale(1.0494852,0.95284813)"
       cx="366.23841"
       cy="464.32606"
       fx="366.23841"
       fy="464.32606"
       r="57.357288"
       gradientUnits="userSpaceOnUse">
      <stop
         offset="0%"
         stop-color="#d0021b"
         stop-opacity="1"
         id="stop873" />
      <stop
         offset="100%"
         stop-color="#f5a623"
         stop-opacity="1"
         id="stop875" />
    </radialGradient>
  </defs>
  <g
     transform="matrix(0.30145815,0,0,0.30145815,362.61206,39.890823)"
     id="g898">
    <path
       style="fill:url(#gradient-2)"
       id="path880"
       stroke-width="10"
       stroke-opacity="1"
       stroke="#4a4a4a"
       fill="url(#gradient-2)"
       class=""
       d="M 454.547,16.027 C 406.8,37.25 381.052,75.064 369.135,123.303 411.231,99.107 441.285,64.693 454.547,16.027 Z" />
    <path
       style="fill:url(#gradient-3)"
       id="path882"
       stroke-width="10"
       stroke-opacity="1"
       stroke="#4a4a4a"
       fill="url(#gradient-3)"
       class=""
       d="m 95.56,19.03 c 15.534,34.478 41.673,62.266 76.506,84.683 1.576,-31.216 -1.92,-59.57 -11.097,-84.682 H 95.56 Z" />
    <path
       style="fill:url(#gradient-4-3)"
       id="path884"
       stroke-width="10"
       stroke-opacity="1"
       stroke="#4a4a4a"
       fill="url(#gradient-4)"
       class=""
       d="m 319.234,28.537 c -27.494,57.123 -49.87,115.225 -67.9,174.162 -13.04,-40.243 -29.32,-79.83 -49.25,-118.68 0.247,36.447 3.52,71.91 9.445,106.51 -38.943,-35.318 -79.96,-68.894 -123.292,-100.52 29.922,43.868 62.24,84.967 96.64,123.656 -26.502,-8.224 -56.91,-10.145 -88.08,-5.97 19.645,14.96 42.703,28.156 67.192,36 -48.423,2.757 -97.046,7.823 -145.888,15.45 41.51,7.845 82.85,13.375 124.043,16.842 -22.063,8.906 -43.915,18.854 -65.536,29.946 40.608,-0.275 79.997,-4.3 118.33,-11.577 -16.74,21.736 -31.644,45.162 -44.99,70.028 25.735,-15.12 49.978,-31.88 72.554,-50.477 -12.504,58.248 -21.31,117.203 -27.092,176.738 21.65,-50.587 41.044,-101.993 57.877,-154.328 11.282,28.076 24.197,55.62 38.556,82.696 -2.48,-37.338 -7,-74.264 -13.793,-110.73 46.832,43.08 96.5,82.882 148.472,120.017 -38.845,-51.87 -80.238,-101.596 -124.584,-148.84 65.17,-2.498 130.007,-9.56 194.576,-20.314 -47.5,-6.818 -95.158,-11.807 -142.99,-14.775 19.607,-8.637 38.96,-18.06 58.078,-28.198 -36.566,2.427 -72.737,6.804 -108.467,13.363 12.16,-16.334 23.427,-33.654 33.715,-52.05 -16.755,8.214 -32.493,17.366 -47.317,27.36 13.228,-57.563 23.26,-116.284 29.7,-176.308 z" />
    <path
       style="fill:url(#gradient-5-6)"
       id="path886"
       stroke-width="10"
       stroke-opacity="1"
       stroke="#4a4a4a"
       fill="url(#gradient-5)"
       class=""
       d="m 494.284,58.162 c -48.748,27.205 -89.195,69.08 -119.934,128.35 46.33,-0.998 85.935,-12.905 119.933,-33.666 V 58.162 Z" />
    <path
       style="fill:url(#gradient-6-7)"
       id="path888"
       stroke-width="10"
       stroke-opacity="1"
       stroke="#4a4a4a"
       fill="url(#gradient-6)"
       class=""
       d="m 25.36,124.676 c -1.285,-0.01 -2.578,-0.004 -3.878,0.015 24.13,35.622 56.432,55.136 101.748,49.035 -24.56,-34.196 -57.994,-48.75 -97.87,-49.05 z" />
    <path
       id="path890"
       stroke-width="10"
       stroke-opacity="1"
       stroke="#4a4a4a"
       fill-opacity="1"
       fill="#d0021b"
       class="selected"
       d="m 399.44,304.193 c -10.527,-0.03 -21.428,1.062 -32.66,3.15 34.93,36.464 77.04,54.27 129.158,46.053 -26.086,-34.646 -58.903,-49.093 -96.5,-49.203 z" />
    <path
       id="path892"
       stroke-width="10"
       stroke-opacity="1"
       stroke="#4a4a4a"
       fill-opacity="1"
       fill="#f5a623"
       class=""
       d="m 113.774,326.62 c -8.008,0.004 -15.842,0.556 -23.472,1.32 -25.435,2.57 -48.993,9.59 -70.666,21.062 v 70.666 c 38.192,-19.716 72.544,-49.83 102.203,-92.86 -2.708,-0.13 -5.395,-0.19 -8.065,-0.19 z" />
    <path
       id="path894"
       stroke-width="10"
       stroke-opacity="1"
       stroke="#4a4a4a"
       fill-opacity="1"
       fill="#d0021b"
       class=""
       d="m 171.501,376.475 c -50.455,23.15 -70.933,64.14 -72.57,116.345 43.08,-26.34 69.47,-63.673 72.57,-116.345 z" />
    <path
       style="fill:url(#gradient-10)"
       id="path896"
       stroke-width="10"
       stroke-opacity="1"
       stroke="#4a4a4a"
       fill="url(#gradient-10)"
       class=""
       d="m 329.165,392.219 c 0.832,38.58 10.744,71.555 28.033,99.866 h 78.843 c -22.654,-40.592 -57.522,-74.27 -106.877,-99.867 z" />
  </g>
  <g
     transform="matrix(0.89887242,0,0,0.90519651,0.67815978,77.477252)"
     id="g908">
    <path
       d="m 456.40556,74.1726 c -1.25366,0.360816 -5.65559,1.953881 -6.87196,2.312675 -17.02028,6.524862 -31.61434,15.049521 -48.88183,27.533085 l 14.78467,16.80165 c 16.32018,-14.0363 26.52108,-25.484733 37.50542,-40.991932 0.79258,-0.954309 2.78802,-4.471862 3.4637,-5.655478 z"
       class="selected"
       id="path29"
       inkscape:connector-curvature="0"
       style="fill:#4a4a4a;fill-opacity:1;stroke:#4a4a4a;stroke-width:10.7912;stroke-opacity:1"
       sodipodi:nodetypes="cccccc" />
    <path
       d="M 385.35159,115.6241 38.562176,390.07528 53.140995,409.44141 400.78413,132.42258 Z"
       class=""
       id="path31"
       inkscape:connector-curvature="0"
       style="fill:#8b572a;fill-opacity:1;stroke:#4a4a4a;stroke-width:10.7912;stroke-opacity:1"
       sodipodi:nodetypes="ccccc" />
    <path
       d="m 25.562741,402.01063 -11.728057,9.28167 14.351551,19.22572 12.02922,-9.58499 z"
       class=""
       id="path43"
       inkscape:connector-curvature="0"
       style="fill:#4a4a4a;fill-opacity:1;stroke:#4a4a4a;stroke-width:10.7912;stroke-opacity:1"
       sodipodi:nodetypes="ccccc" />
  </g>
</svg>
