<svg xmlns="http://www.w3.org/2000/svg" viewBox="0 0 512 512" style="height: 64px; width: 64px;"><defs><radialGradient id="lorc-locked-chest-gradient-2"><stop offset="0%" stop-color="#e5e4e2" stop-opacity="1"></stop><stop offset="100%" stop-color="#c9c9c9" stop-opacity="1"></stop></radialGradient><radialGradient id="lorc-locked-chest-gradient-3"><stop offset="0%" stop-color="#e5e4e2" stop-opacity="1"></stop><stop offset="100%" stop-color="#c9c9c9" stop-opacity="1"></stop></radialGradient><radialGradient id="lorc-locked-chest-gradient-4"><stop offset="0%" stop-color="#e5e4e2" stop-opacity="1"></stop><stop offset="100%" stop-color="#c9c9c9" stop-opacity="1"></stop></radialGradient><radialGradient id="lorc-locked-chest-gradient-5"><stop offset="0%" stop-color="#e5e4e2" stop-opacity="1"></stop><stop offset="100%" stop-color="#c9c9c9" stop-opacity="1"></stop></radialGradient><radialGradient id="lorc-locked-chest-gradient-6"><stop offset="0%" stop-color="#e5e4e2" stop-opacity="1"></stop><stop offset="100%" stop-color="#c9c9c9" stop-opacity="1"></stop></radialGradient><radialGradient id="lorc-locked-chest-gradient-7"><stop offset="0%" stop-color="#e5e4e2" stop-opacity="1"></stop><stop offset="100%" stop-color="#c9c9c9" stop-opacity="1"></stop></radialGradient><radialGradient id="lorc-locked-chest-gradient-8"><stop offset="0%" stop-color="#e5e4e2" stop-opacity="1"></stop><stop offset="100%" stop-color="#c9c9c9" stop-opacity="1"></stop></radialGradient><radialGradient id="lorc-locked-chest-gradient-9"><stop offset="0%" stop-color="#4a4a4a" stop-opacity="1"></stop><stop offset="100%" stop-color="#9b9b9b" stop-opacity="1"></stop></radialGradient><radialGradient id="lorc-locked-chest-gradient-10"><stop offset="0%" stop-color="#e5e4e2" stop-opacity="1"></stop><stop offset="100%" stop-color="#e5e4e2" stop-opacity="1"></stop></radialGradient><radialGradient id="lorc-locked-chest-gradient-11"><stop offset="0%" stop-color="#e5e4e2" stop-opacity="1"></stop><stop offset="100%" stop-color="#c9c9c9" stop-opacity="1"></stop></radialGradient><radialGradient id="lorc-locked-chest-gradient-12"><stop offset="0%" stop-color="#4a4a4a" stop-opacity="1"></stop><stop offset="100%" stop-color="#c9c9c9" stop-opacity="1"></stop></radialGradient><radialGradient id="lorc-locked-chest-gradient-13"><stop offset="0%" stop-color="#4a4a4a" stop-opacity="1"></stop><stop offset="100%" stop-color="#c9c9c9" stop-opacity="1"></stop></radialGradient><radialGradient id="lorc-locked-chest-gradient-14"><stop offset="0%" stop-color="#4a4a4a" stop-opacity="1"></stop><stop offset="100%" stop-color="#c9c9c9" stop-opacity="1"></stop></radialGradient></defs><g class="" transform="translate(0,0)" style=""><g><path d="M146.857 20.842C134.322 20.806 122.589 23.702 109.572 30.266L109.576 30.266C61.356 54.6 19.966 120.734 17.982 175.91L59.83 190.146C64.16 128.256 106.887 61.776 161.357 34.286L161.359 34.286C165.782 32.056 170.181 30.124 174.544 28.486L152.284 21.036C150.454 20.913 148.647 20.846 146.856 20.842Z" class="" fill="url(#lorc-locked-chest-gradient-2)" stroke="#4a4a4a" stroke-opacity="1" stroke-width="4"></path><path d="M206.197 41.032C195.719 40.942 183.365 44.125 169.773 50.975L169.777 50.971C121.547 75.311 80.152 141.484 78.229 196.407L234.714 249.647C238.579 187.427 281.511 120.275 336.327 92.612L336.329 92.612L336.331 92.609C340.634 90.441 344.915 88.553 349.163 86.943L214.623 41.907C211.971 41.365 209.165 41.06 206.196 41.034Z" class="" fill="url(#lorc-locked-chest-gradient-3)" stroke="#4a4a4a" stroke-opacity="1" stroke-width="4"></path><path d="M381.167 99.355C370.691 99.265 358.337 102.447 344.747 109.295L344.742 109.297C296.165 133.815 254.517 200.77 253.156 255.92L299.361 271.64C303.275 209.452 346.186 142.366 400.968 114.72C405.49 112.437 410.008 110.462 414.498 108.81L387.954 99.926C385.79 99.576 383.531 99.376 381.169 99.356Z" class="" fill="url(#lorc-locked-chest-gradient-4)" stroke="#4a4a4a" stroke-opacity="1" stroke-width="4"></path><path d="M444.721 121.369C434.454 121.462 422.627 124.722 409.388 131.403C362.23 155.203 321.611 218.99 318.026 273.153L492.576 199.427C492.172 160.417 481.822 138.123 468.161 128.345C465.814 126.665 463.294 125.288 460.611 124.208L460.601 124.242L455.866 122.658C452.386 121.771 448.671 121.331 444.722 121.368Z" class="" fill="url(#lorc-locked-chest-gradient-5)" stroke="#4a4a4a" stroke-opacity="1" stroke-width="4"></path><path d="M17.9 195.622L17.865 383.106L59.46 397.58L59.46 209.764L17.9 195.624Z" class="" fill="url(#lorc-locked-chest-gradient-6)" stroke="#4a4a4a" stroke-opacity="1" stroke-width="4"></path><path d="M78.15 216.12L78.15 404.082L234.432 458.452L234.432 269.288L205.379 259.402L205.379 378.832L104.325 344.75L104.325 225.025L78.15 216.12Z" class="" fill="url(#lorc-locked-chest-gradient-7)" stroke="#4a4a4a" stroke-opacity="1" stroke-width="4"></path><path d="M492.37 219.803L318.433 293.27L318.433 482.506L492.368 409.002L492.368 219.802Z" class="" fill="url(#lorc-locked-chest-gradient-8)" stroke="#4a4a4a" stroke-opacity="1" stroke-width="4"></path><path d="M123.016 231.385L123.016 331.332L186.691 352.809L186.691 253.046L123.017 231.384Z" class="" fill="url(#lorc-locked-chest-gradient-9)" stroke="#4a4a4a" stroke-opacity="1" stroke-width="4"></path><path d="M154.322 260.182C164.027 260.182 171.895 268.049 171.895 277.754C171.895 284.094 168.525 289.634 163.488 292.724L163.488 321.254L144.798 321.254L144.798 292.508C139.96 289.378 136.75 283.946 136.75 277.754C136.75 268.049 144.617 260.182 154.322 260.182Z" class="" fill="url(#lorc-locked-chest-gradient-10)" stroke="#4a4a4a" stroke-opacity="1" stroke-width="4"></path><path d="M253.119 275.646L253.119 464.953L299.745 481.173L299.745 291.51L253.118 275.646Z" class="selected" fill="url(#lorc-locked-chest-gradient-11)" stroke="#4a4a4a" stroke-opacity="1" stroke-width="4"></path></g></g></svg>