<svg xmlns="http://www.w3.org/2000/svg" viewBox="0 0 512 512" style="height: 512px; width: 512px;"><g class="" transform="translate(0,0)" style="touch-action: none;"><g><path d="M250.882 22.802C227.516 25.837 206.329 53.246 206.329 88.737C206.329 108.295 213.1 125.593 223.024 137.552L234.864 151.815L216.647 155.239C203.747 157.664 194.289 164.479 186.204 175.575C178.119 186.672 171.938 202.133 167.606 219.95C159.763 252.23 158.038 291.643 157.764 326.386L200.632 326.386L212.403 484.222C242.297 490.97 274.214 490.732 303.005 484.247L313.419 326.387L354.235 326.387C354.208 291.218 353.758 251.261 346.651 218.737C342.733 200.803 336.793 185.365 328.611 174.394C320.426 163.424 310.531 156.649 296.048 154.405L277.456 151.525L289.192 136.821C298.687 124.924 305.124 107.824 305.124 88.739C305.124 50.901 281.469 22.895 255.725 22.895Z" class="selected" fill="#8b572a" fill-opacity="1"></path></g></g></svg>