<svg xmlns="http://www.w3.org/2000/svg" viewBox="0 0 512 512" style="height: 64px; width: 64px;"><defs><radialGradient id="lorc-crossed-sabres-gradient-2"><stop offset="0%" stop-color="#4a4a4a" stop-opacity="1"></stop><stop offset="100%" stop-color="#9b9b9b" stop-opacity="1"></stop></radialGradient></defs><g class="" transform="translate(0,0)" style=""><g transform="translate(512, 0) scale(-1, 1) rotate(0, 256, 256) skewX(0) skewY(0)"><path d="M27.084 18.248C-17.903 146.478 143.15 277.92 314.496 381.074C309.851 394.841 308.911 408.702 311.102 421.709C315.542 448.064 332.076 470.706 353.962 484.134C375.846 497.562 403.738 501.704 429.607 489.899C455.477 478.095 478.297 450.976 492.344 405.245L474.479 399.757C461.479 442.075 441.673 463.851 421.849 472.897C402.024 481.944 381.159 478.895 363.733 468.204C346.308 457.514 332.983 439.109 329.528 418.604C326.073 398.097 331.76 375.286 354.205 353.386C374.948 333.146 386.273 311.771 384.639 292.146L366.017 293.698C366.757 302.588 361.667 316.458 349.333 331.184C222.057 230.8 73.838 128.622 27.084 18.248Z" class="" fill="url(#lorc-crossed-sabres-gradient-2)" stroke="#4a4a4a" stroke-opacity="1" stroke-width="4"></path><path d="M485.134 18.248C451.34 98.03 364.527 173.53 270.93 247.166C290.422 263.044 310.49 278.788 330.125 292.178C440.881 207.342 518.003 111.935 485.135 18.248Z" class="" fill="#ffffff" fill-opacity="0"></path><path d="M127.58 292.146C125.946 311.772 137.27 333.146 158.014 353.386C180.459 375.286 186.146 398.098 182.691 418.604C179.236 439.11 165.911 457.514 148.485 468.204C131.06 478.896 110.195 481.944 90.37 472.898C70.545 463.852 50.738 442.076 37.74 399.758L19.875 405.246C33.921 450.976 56.742 478.096 82.611 489.9C108.481 501.705 136.374 497.563 158.259 484.135C180.144 470.707 196.679 448.065 201.119 421.709C203.309 408.704 202.369 394.846 197.726 381.081C211.712 372.661 225.631 364.059 239.374 355.278L182.407 315.891C175.857 320.994 169.344 326.091 162.887 331.184C150.55 316.46 145.46 302.59 146.2 293.7L127.578 292.146Z" class="" fill="#ffffff" fill-opacity="0"></path><path d="M145.68 365.76C119.58 374.36 83.593 402.015 68.576 426.084C73.524 434.714 78.969 441.307 84.626 446.224C110.472 437.271 144.476 408.818 159.359 385.967C156.352 379.367 151.905 372.581 145.679 365.76Z" class="" fill="#ffffff" fill-opacity="0"></path><path d="M366.543 365.76C360.318 372.582 355.873 379.37 352.863 385.97C367.749 408.82 401.753 437.27 427.599 446.225C433.255 441.307 438.699 434.715 443.649 426.085C428.631 402.015 392.645 374.361 366.544 365.76Z" class="selected" fill="#8b572a" fill-opacity="1" stroke="#4e290a" stroke-opacity="1" stroke-width="4"></path></g></g></svg>