<?xml version="1.0" encoding="UTF-8" standalone="no"?>
<svg
   xmlns:dc="http://purl.org/dc/elements/1.1/"
   xmlns:cc="http://creativecommons.org/ns#"
   xmlns:rdf="http://www.w3.org/1999/02/22-rdf-syntax-ns#"
   xmlns:svg="http://www.w3.org/2000/svg"
   xmlns="http://www.w3.org/2000/svg"
   xmlns:sodipodi="http://sodipodi.sourceforge.net/DTD/sodipodi-0.dtd"
   xmlns:inkscape="http://www.inkscape.org/namespaces/inkscape"
   inkscape:version="1.0 (6e3e5246a0, 2020-05-07)"
   inkscape:export-ydpi="24"
   inkscape:export-xdpi="24"
   inkscape:export-filename="/home/plic/Téléchargements/clous.png"
   sodipodi:docname="clous.svg"
   id="svg16"
   version="1.1"
   style="height: 64px; width: 64px;"
   viewBox="0 0 512 512">
  <metadata
     id="metadata22">
    <rdf:RDF>
      <cc:Work
         rdf:about="">
        <dc:format>image/svg+xml</dc:format>
        <dc:type
           rdf:resource="http://purl.org/dc/dcmitype/StillImage" />
        <dc:title></dc:title>
      </cc:Work>
    </rdf:RDF>
  </metadata>
  <defs
     id="defs20" />
  <sodipodi:namedview
     inkscape:current-layer="svg16"
     inkscape:window-maximized="0"
     inkscape:window-y="82"
     inkscape:window-x="2410"
     inkscape:cy="-237.01556"
     inkscape:cx="177.56475"
     inkscape:zoom="0.42480469"
     showgrid="false"
     id="namedview18"
     inkscape:window-height="930"
     inkscape:window-width="1399"
     inkscape:pageshadow="2"
     inkscape:pageopacity="0"
     guidetolerance="10"
     gridtolerance="10"
     objecttolerance="10"
     borderopacity="1"
     bordercolor="#666666"
     pagecolor="#ffffff" />
  <path
     id="path8"
     stroke-width="10"
     stroke-opacity="1"
     stroke="#4a4a4a"
     fill-opacity="1"
     fill="#9b9b9b"
     class=""
     d="m 492,256.97 -110.438,22.436 51.313,15.53 31.47,148.94 18.31,-3.845 -31.467,-148.81 z" />
  <path
     id="path10"
     stroke-width="10"
     stroke-opacity="1"
     stroke="#4a4a4a"
     fill-opacity="1"
     fill="#9b9b9b"
     class="selected"
     d="m 291.875,272.844 -80,79.375 51.438,-15.19 68.093,67.564 -23.126,84.907 18.064,4.906 20.312,-74.656 24.72,24.5 13.154,-13.25 -32.217,-31.97 14,-51.5 52.125,-12.56 -108.97,-28.75 38.75,36.56 -11.187,41.095 -60.467,-60 15.312,-51.03 z" />
  <path
     d="m 317.21136,19.616979 -80,79.375 51.438,-15.19 68.093,67.564001 -23.126,84.907 18.064,4.906 20.312,-74.656 24.72,24.5 13.154,-13.25 -32.217,-31.97 14,-51.500001 52.125,-12.56 -108.97,-28.75 38.75,36.56 -11.187,41.095001 -60.467,-60.000001 15.312,-51.03 z"
     class="selected"
     fill="#9b9b9b"
     fill-opacity="1"
     stroke="#4a4a4a"
     stroke-opacity="1"
     stroke-width="10"
     id="path10-3" />
  <path
     id="path10-3-6"
     stroke-width="10"
     stroke-opacity="1"
     stroke="#4a4a4a"
     fill-opacity="1"
     fill="#9b9b9b"
     class="selected"
     d="m 113.98806,169.31321 -79.999998,79.375 51.437997,-15.19 68.093001,67.564 -23.126,84.907 18.064,4.906 20.312,-74.656 24.72,24.5 13.154,-13.25 -32.217,-31.97 14,-51.5 52.125,-12.56 -108.97,-28.75 38.75,36.56 -11.187,41.095 -60.467001,-60 15.312001,-51.03 z" />
  <path
     d="m 117.81697,310.75762 -110.4379914,22.436 51.3130004,15.53 31.469996,148.94 18.309995,-3.845 -31.466991,-148.81 z"
     class=""
     fill="#9b9b9b"
     fill-opacity="1"
     stroke="#4a4a4a"
     stroke-opacity="1"
     stroke-width="10"
     id="path8-7" />
  <path
     id="path8-7-5"
     stroke-width="10"
     stroke-opacity="1"
     stroke="#4a4a4a"
     fill-opacity="1"
     fill="#9b9b9b"
     class=""
     d="m 213.04233,8.95509 -110.43799,22.436 51.313,15.53 31.46999,148.94 18.31,-3.845 -31.467,-148.81 z" />
</svg>
