<svg xmlns="http://www.w3.org/2000/svg" viewBox="0 0 512 512" style="height: 64px; width: 64px;"><g class="" transform="translate(0,0)" style="touch-action: none;"><g><path d="M273.9 28.1C253.2 28.2 232.9 31.12 213.8 37.52C144.3 60.96 107.5 136.6 88.83 198.9C85.61 209.7 82.65 221.4 80.47 233.4C82.44 233.3 84.39 233.3 86.3 233.4C90.59 233.7 94.6 234.8 98.25 236.4C100.3 225.2 103.1 214.3 106.1 204.1C123.9 144.2 159.5 74.82 219.6 54.58C236.4 48.9 254.9 46.35 274 46.46C297.5 46.58 321.8 50.74 345 58.01C345 58.15 345 58.29 344.9 58.43C339.8 59.27 333.6 60.37 327 61.83C309.6 65.67 289.5 71.09 276.6 82.55C264 93.76 256.5 112.5 250.8 128.9C245.2 145.2 242 159.3 242 159.3L259.6 163.3C259.6 163.3 262.5 150.1 267.9 134.8C273.2 119.5 281.6 102.2 288.6 95.99C295.9 89.5 314.6 82.99 330.9 79.39C337 78.05 342.7 77.01 347.6 76.23C349.4 79.32 352 81.99 354.9 84.09C361 88.57 368.8 90.99 377.3 90.99C378.6 90.99 379.9 90.89 381.1 90.81C381.9 92.82 382.7 94.9 383.4 97.1C387.3 108.9 389.3 123.3 387.5 128.4L387.5 128.5C385.5 134.3 374.3 144.9 363.2 152.3C352.1 159.7 341.8 164.7 341.8 164.7L349.6 180.9C349.6 180.9 360.9 175.5 373.2 167.3C385.4 159.1 399.4 149 404.5 134.3C409.4 120.2 404.8 104.7 400.5 91.47C399.7 89.24 399 87.11 398.3 85.09C398.7 84.77 399.2 84.44 399.7 84.09C400.2 83.72 400.7 83.33 401.2 82.93C412.7 89.81 423.4 97.47 432.7 105.7C462.8 132.3 478.5 180.4 469 217.1C453.4 276.7 397.6 334.1 334.4 360.6C335 361.3 335.6 362 336.1 362.7C339 366.7 341.2 371.4 342.4 376.8C410.5 348.3 469.1 288.1 486.4 221.7C498.1 177 480.2 123.7 444.7 92.26C434.4 83.13 422.8 74.71 410.3 67.16C410.4 66.24 410.5 65.3 410.5 64.34C410.5 60.47 409.5 56.86 407.7 53.65C409 53.31 410.3 53.02 411.7 52.78C423.7 50.71 439.6 52.97 458.2 61.74L465.8 45.46C450.1 38.01 435.2 34.25 421.7 34.05C417.2 33.95 412.8 34.32 408.6 35.04C402.8 36.05 397.3 37.9 392.3 40.49C387.7 38.65 382.7 37.69 377.3 37.69C370.1 37.69 363.4 39.43 357.8 42.69C330.7 33.34 302 28.03 273.9 28.1Z" class="" fill="#8b572a" fill-opacity="1" stroke="#4a4a4a" stroke-opacity="1" stroke-width="10"></path><path d="M83.05 251.3C78.33 251.4 72.45 253.2 65.19 258.3C48.95 269.6 33.58 292 22.04 312.3C35.1 308.4 49.47 304.4 62.87 300C73.58 296.6 83.51 293 90.96 289.4C98.41 285.8 103.1 281.7 103.6 280.6L103.7 280.6C105.8 276.8 104.2 264.4 97.43 257.4C94.06 253.9 90.03 251.7 85.01 251.4C84.38 251.3 83.73 251.3 83.06 251.3Z" class="" fill="#9b9b9b" stroke="#4a4a4a" stroke-opacity="1" stroke-width="10" fill-opacity="1"></path><path d="M99.21 305.4C99.07 305.5 98.93 305.5 98.79 305.6C93.86 308 88.36 310.2 82.54 312.3C84.57 318.6 87.2 324.7 90.53 330.4C93.52 327.1 96.96 324.1 100.7 321.6C102 320.7 103.4 319.8 104.8 319C102.5 314.7 100.7 310.2 99.21 305.4Z" class="" fill="#4a4a4a" fill-opacity="1" stroke="#4a4a4a" stroke-opacity="1" stroke-width="10"></path><path d="M126 330.9C121.7 331 116.1 332.8 110.9 336.4C104.1 341.1 98.97 348.5 98.16 353.5C97.81 355.8 99.08 360.5 102.1 364.4C105.1 368.3 109.3 370.6 111.5 370.8C112.9 370.9 114.5 370.6 116.1 370C117.2 366.9 118.2 364.1 119.1 361.7C122.6 352.9 127.8 345.9 133.9 340.8C133.8 339.4 133.6 338.1 133.2 336.9C132.1 333.2 130.5 331.7 129.8 331.4C128.7 331.1 127.4 330.9 126 330.9Z" class="" fill="#4a4a4a" fill-opacity="1" stroke="#4a4a4a" stroke-opacity="1" stroke-width="10"></path><path d="M165.9 347.8C160.6 347.8 155.3 348.9 150.7 351.2C144.6 354.2 139.4 359.3 135.9 368.3C130.9 380.9 122.6 410.5 118.7 438.9C116.7 453.1 115.9 467.2 116.8 478.6C117 480.5 117.3 482.2 117.6 483.9C127.9 462.5 143.6 441.1 158.1 421.5C164.8 412.4 171.3 403.6 176.9 395.6C176.9 392.8 177.1 390 177.5 387.3C179.1 376 183.8 365 191.9 357.2C191.1 356.5 190.3 355.6 189.1 354.8C185 351.7 178.3 349 171.3 348.1C169.5 347.9 167.7 347.8 165.9 347.8Z" class="" fill="#9b9b9b" fill-opacity="1" stroke="#4a4a4a" stroke-opacity="1" stroke-width="10"></path><path d="M303.4 365C299.9 365 296.6 365.6 294.2 366.6C290.6 368.1 289.3 369.8 288.9 371.5C289 371.5 288.9 373.4 289.1 375.6C289.4 378.2 289.9 381.7 290.5 385.8C291.8 394 293.7 404.6 295.7 415.9C298 428.5 300.4 441.5 302.5 453.9C312.6 434 322.5 412 325.2 393.1C326.5 383.4 324.6 377.5 321.6 373.4C318.6 369.3 314 366.7 308.8 365.6C307.5 365.3 306.2 365.1 304.9 365L303.4 365Z" class="" fill="#9b9b9b" fill-opacity="1" stroke="#4a4a4a" stroke-opacity="1" stroke-width="10"></path><path d="M288.9 371.5L288.9 371.5Z" class="" fill="#4a4a4a" fill-opacity="1" stroke="#4a4a4a" stroke-opacity="1" stroke-width="10"></path><path d="M214.5 366.8C210.5 366.7 206.7 368.1 205.1 369.5C200.7 373.3 196.5 381.7 195.3 389.9C194.1 398.2 195.9 405.5 199.2 408.9C201.3 411 206.9 412.6 213.2 411.8C219.6 410.9 225.8 407.6 228.2 404.7C231 401.1 232.6 394.3 231.7 387.1C230.8 380 227.5 373.1 223.9 369.8L223.8 369.8C222.3 368.3 218.5 366.9 214.5 366.8Z" class="selected" fill="#4a4a4a" fill-opacity="1" stroke="#4a4a4a" stroke-opacity="1" stroke-width="10"></path><path d="M271.1 376.3C263.6 377.1 255.9 377.5 248.2 377.6C248.8 380 249.3 382.5 249.6 384.9C250 388.6 250.1 392.4 249.8 396.1C257.8 395.9 265.8 395.3 273.6 394.4C273.3 392.4 273 390.4 272.7 388.6C272 384.3 271.5 380.5 271.2 377.4C271.2 377 271.1 376.7 271.1 376.3Z" class="" fill="#4a4a4a" fill-opacity="1" stroke="#4a4a4a" stroke-opacity="1" stroke-width="10"></path></g></g></svg>