<svg xmlns="http://www.w3.org/2000/svg" viewBox="0 0 512 512" style="height: 64px; width: 64px;"><defs><radialGradient id="delapouite-emerald-necklace-gradient-2"><stop offset="0%" stop-color="#000000" stop-opacity="1"></stop><stop offset="100%" stop-color="#4a4a4a" stop-opacity="1"></stop></radialGradient><radialGradient id="delapouite-emerald-necklace-gradient-3"><stop offset="0%" stop-color="#000000" stop-opacity="1"></stop><stop offset="100%" stop-color="#4a4a4a" stop-opacity="1"></stop></radialGradient><radialGradient id="delapouite-emerald-necklace-gradient-4"><stop offset="0%" stop-color="#000000" stop-opacity="1"></stop><stop offset="100%" stop-color="#4a4a4a" stop-opacity="1"></stop></radialGradient><radialGradient id="delapouite-emerald-necklace-gradient-5"><stop offset="0%" stop-color="#000000" stop-opacity="1"></stop><stop offset="100%" stop-color="#4a4a4a" stop-opacity="1"></stop></radialGradient><radialGradient id="delapouite-emerald-necklace-gradient-6"><stop offset="0%" stop-color="#000000" stop-opacity="1"></stop><stop offset="100%" stop-color="#4a4a4a" stop-opacity="1"></stop></radialGradient><radialGradient id="delapouite-emerald-necklace-gradient-7"><stop offset="0%" stop-color="#000000" stop-opacity="1"></stop><stop offset="100%" stop-color="#4a4a4a" stop-opacity="1"></stop></radialGradient><radialGradient id="delapouite-emerald-necklace-gradient-8"><stop offset="0%" stop-color="#000000" stop-opacity="1"></stop><stop offset="100%" stop-color="#4a4a4a" stop-opacity="1"></stop></radialGradient><radialGradient id="delapouite-emerald-necklace-gradient-9"><stop offset="0%" stop-color="#000000" stop-opacity="1"></stop><stop offset="100%" stop-color="#4a4a4a" stop-opacity="1"></stop></radialGradient><radialGradient id="delapouite-emerald-necklace-gradient-10"><stop offset="0%" stop-color="#d0021b" stop-opacity="1"></stop><stop offset="100%" stop-color="#d0021b" stop-opacity="1"></stop></radialGradient><radialGradient id="delapouite-emerald-necklace-gradient-11"><stop offset="0%" stop-color="#d0021b" stop-opacity="1"></stop><stop offset="100%" stop-color="#d0021b" stop-opacity="1"></stop></radialGradient><radialGradient id="delapouite-emerald-necklace-gradient-12"><stop offset="0%" stop-color="#d0021b" stop-opacity="1"></stop><stop offset="100%" stop-color="#9b9b9b" stop-opacity="1"></stop></radialGradient><radialGradient id="delapouite-emerald-necklace-gradient-13"><stop offset="0%" stop-color="#d0021b" stop-opacity="1"></stop><stop offset="100%" stop-color="#9b9b9b" stop-opacity="1"></stop></radialGradient><radialGradient id="delapouite-emerald-necklace-gradient-14"><stop offset="0%" stop-color="#000000" stop-opacity="1"></stop><stop offset="100%" stop-color="#4a4a4a" stop-opacity="1"></stop></radialGradient><radialGradient id="delapouite-emerald-necklace-gradient-15"><stop offset="0%" stop-color="#000000" stop-opacity="1"></stop><stop offset="100%" stop-color="#4a4a4a" stop-opacity="1"></stop></radialGradient><radialGradient id="delapouite-emerald-necklace-gradient-16"><stop offset="0%" stop-color="#000000" stop-opacity="1"></stop><stop offset="100%" stop-color="#4a4a4a" stop-opacity="1"></stop></radialGradient><radialGradient id="delapouite-emerald-necklace-gradient-17"><stop offset="0%" stop-color="#000000" stop-opacity="1"></stop><stop offset="100%" stop-color="#4a4a4a" stop-opacity="1"></stop></radialGradient><radialGradient id="delapouite-emerald-necklace-gradient-18"><stop offset="0%" stop-color="#000000" stop-opacity="1"></stop><stop offset="100%" stop-color="#000000" stop-opacity="1"></stop></radialGradient><radialGradient id="delapouite-emerald-necklace-gradient-19"><stop offset="0%" stop-color="#000000" stop-opacity="1"></stop><stop offset="100%" stop-color="#000000" stop-opacity="1"></stop></radialGradient><radialGradient id="delapouite-emerald-necklace-gradient-20"><stop offset="0%" stop-color="#ffffff" stop-opacity="1"></stop><stop offset="100%" stop-color="#c9c9c9" stop-opacity="1"></stop></radialGradient><radialGradient id="delapouite-emerald-necklace-gradient-21"><stop offset="0%" stop-color="#ffffff" stop-opacity="1"></stop><stop offset="100%" stop-color="#c9c9c9" stop-opacity="1"></stop></radialGradient><radialGradient id="delapouite-emerald-necklace-gradient-22"><stop offset="0%" stop-color="#fff" stop-opacity="1"></stop><stop offset="100%" stop-color="#c9c9c9" stop-opacity="1"></stop></radialGradient><radialGradient id="delapouite-emerald-necklace-gradient-23"><stop offset="0%" stop-color="#fff" stop-opacity="1"></stop><stop offset="100%" stop-color="#c9c9c9" stop-opacity="1"></stop></radialGradient><radialGradient id="delapouite-emerald-necklace-gradient-24"><stop offset="0%" stop-color="#fff" stop-opacity="1"></stop><stop offset="100%" stop-color="#c9c9c9" stop-opacity="1"></stop></radialGradient><radialGradient id="delapouite-emerald-necklace-gradient-25"><stop offset="0%" stop-color="#fff" stop-opacity="1"></stop><stop offset="100%" stop-color="#9b9b9b" stop-opacity="1"></stop></radialGradient><radialGradient id="delapouite-emerald-necklace-gradient-26"><stop offset="0%" stop-color="#fff" stop-opacity="1"></stop><stop offset="100%" stop-color="#c9c9c9" stop-opacity="1"></stop></radialGradient><radialGradient id="delapouite-emerald-necklace-gradient-27"><stop offset="0%" stop-color="#fff" stop-opacity="1"></stop><stop offset="100%" stop-color="#c9c9c9" stop-opacity="1"></stop></radialGradient><radialGradient id="delapouite-emerald-necklace-gradient-28"><stop offset="0%" stop-color="#fff" stop-opacity="1"></stop><stop offset="100%" stop-color="#c9c9c9" stop-opacity="1"></stop></radialGradient><radialGradient id="delapouite-emerald-necklace-gradient-29"><stop offset="0%" stop-color="#fff" stop-opacity="1"></stop><stop offset="100%" stop-color="#c9c9c9" stop-opacity="1"></stop></radialGradient></defs><g class="" transform="translate(-4,-63)" style=""><g transform="translate(51.2, 51.2) scale(0.8, 0.8) rotate(0, 256, 256) skewX(0) skewY(0)"><path d="M95.92 25.17C81.19 24.85 66.67 30.57 56.68 44.36C37.39 71.04 33.01 104.8 38.61 139.5C44.22 174.2 59.69 210.1 81.16 242.9C118.2 299.5 172.9 347.4 229 359.6L229 340.9C181.2 328.4 130.4 285.2 96.22 233.1C75.9 202 61.46 168.1 56.38 136.6C51.3 105.2 55.45 76.79 71.26 54.92C77.22 46.7 83.27 43.44 91.19 43.04C93.84 42.91 96.69 43.04 99.81 43.52C112.3 45.22 128.3 52.35 145.5 61.54C177.2 78.46 212.3 102.5 247 106.2L247 87.91C219.8 83.78 185.9 62.71 154 45.66C136.3 36.17 119.1 27.96 102.2 25.67C100.1 25.39 98.03 25.22 95.92 25.17Z" class="selected" fill="url(#delapouite-emerald-necklace-gradient-2)" stroke="#4a4a4a" stroke-opacity="1" stroke-width="4"></path><path d="M416 25.17C413.9 25.17 411.8 25.38 409.7 25.67C392.9 27.96 375.7 36.17 358 45.66C326.1 62.71 292.2 83.78 265 87.91L265 106.1C299.7 102.4 334.8 78.45 366.5 61.53C383.7 52.34 399.7 45.21 412.2 43.51C424.7 41.81 432.8 43.95 440.7 54.92C456.5 76.79 460.7 105.2 455.6 136.6C450.5 168.1 436.1 202 415.8 233.1C381.6 285.2 330.8 328.4 283 340.9L283 359.6C339.1 347.4 393.8 299.5 430.8 242.9C452.3 210.1 467.8 174.2 473.4 139.5C479 104.8 474.6 71.04 455.3 44.37C445.3 30.57 430.8 24.86 416 25.17Z" class="" fill="url(#delapouite-emerald-necklace-gradient-3)" stroke="#4a4a4a" stroke-opacity="1" stroke-width="4"></path><path d="M247 344.2L247 376.6L265 376.6L265 344.2C262 344.4 259 344.6 256 344.6C253 344.6 250 344.4 247 344.2Z" class="" fill="url(#delapouite-emerald-necklace-gradient-4)" stroke="#4a4a4a" stroke-opacity="1" stroke-width="4"></path><path d="M234.7 394.6L224.2 401.6L256 422.8L287.8 401.6L277.3 394.6Z" class="" fill="url(#delapouite-emerald-necklace-gradient-5)" stroke="#4a4a4a" stroke-opacity="1" stroke-width="4"></path><path d="M217 418.4L217 448.8L239.8 433.6Z" class="" fill="url(#delapouite-emerald-necklace-gradient-6)" stroke="#4a4a4a" stroke-opacity="1" stroke-width="4"></path><path d="M295 418.4L272.2 433.6L295 448.8Z" class="" fill="url(#delapouite-emerald-necklace-gradient-7)" stroke="#4a4a4a" stroke-opacity="1" stroke-width="4"></path><path d="M256 444.4L224.2 465.6L256 486.8L287.8 465.6Z" class="" fill="url(#delapouite-emerald-necklace-gradient-8)" stroke="#4a4a4a" stroke-opacity="1" stroke-width="4"></path></g></g><g class="" transform="translate(153,297)" style=""><g transform="translate(9.6, 9.6) scale(0.7, 0.7) rotate(0, 128, 128)"><circle cx="128" cy="128" r="128" fill="#626b57" fill-opacity="1"></circle><circle stroke="#000000" stroke-opacity="1" fill="#626b57" fill-opacity="1" stroke-width="18" cx="128" cy="128" r="101"></circle><path fill="#000000" fill-opacity="1" d="M79.29 62.53l5.74 17.52 12.78 39.05-47.93 34.7 59.32.1 18.4 56.2 18.2-56.2 60.3.1-48.8-35.2 18.1-55.9-47.7 34.54zm22.91 31.3l15.2 11.07-9.4 6.8zm50.4.38L147 111.4l-9.1-6.6zm-24.9 17.99l15.4 11.2-6 18.5h-19.2l-6-18.2zm25.7 18.6l15.5 11.2-19.2-.1zm-51.7.2l3.6 10.9-18.47-.1zm20.2 22.9h11.3l-5.6 17.4z"></path></g></g></svg>