<svg xmlns="http://www.w3.org/2000/svg" viewBox="0 0 512 512" style="height: 64px; width: 64px;"><defs><radialGradient id="gradient-4"><stop offset="0%" stop-color="#9b9b9b" stop-opacity="1"></stop><stop offset="100%" stop-color="#4a4a4a" stop-opacity="1"></stop></radialGradient></defs><g class="" transform="translate(0,0)" style="touch-action: none;"><g transform="translate(0, 0) scale(1, 1) rotate(-90, 256, 256)"><path d="M51.438 20.344C50.908 20.352 50.371 20.374 49.844 20.406C41.4 20.946 33.137 24.673 27.156 31.469C15.196 45.059 16.534 66.069 30.126 78.029C40.64 87.285 55.606 88.587 67.376 82.405C92.486 119.761 138.956 161.82 177.126 181.061L122.363 243.281L46.613 207.991L106.801 260.964L106.689 261.094L121.689 274.28L261.51 115.415L261.53 115.448L280.88 93.462L206.04 27.594L250.395 97.816L192.345 163.783C169.521 128.463 123.083 86.188 82.655 65.159C87.444 52.636 84.31 37.82 73.72 28.5C67.348 22.893 59.368 20.213 51.438 20.344Z" class="" fill="#864913" fill-opacity="1" stroke="#4a4a4a" stroke-opacity="1" stroke-width="10"></path><path d="M52.406 38.906C55.59 39.013 58.746 40.218 61.376 42.531C67.384 47.821 67.946 56.711 62.656 62.721C57.368 68.727 48.51 69.29 42.5 64C36.49 58.71 35.897 49.823 41.187 43.812C43.832 40.807 47.4 39.169 51.031 38.938C51.486 38.908 51.951 38.891 52.407 38.906Z" class="selected" fill="#ffffff" fill-opacity="1" stroke="#4a4a4a" stroke-opacity="1" stroke-width="10"></path><path d="M243.78 163.812L190.376 224.5L493.656 491.438C499.749 422.098 376.153 286.3 321.47 233.125C308.45 244.401 288.76 244.635 275.47 232.937C261.986 221.072 259.832 201.118 269.844 186.719L243.781 163.812Z" class="" fill="url(#gradient-4)" stroke="#4a4a4a" stroke-opacity="1" stroke-width="10"></path></g></g></svg>