<?xml version="1.0" encoding="UTF-8" standalone="no"?>
<svg
   xmlns:dc="http://purl.org/dc/elements/1.1/"
   xmlns:cc="http://creativecommons.org/ns#"
   xmlns:rdf="http://www.w3.org/1999/02/22-rdf-syntax-ns#"
   xmlns:svg="http://www.w3.org/2000/svg"
   xmlns="http://www.w3.org/2000/svg"
   xmlns:sodipodi="http://sodipodi.sourceforge.net/DTD/sodipodi-0.dtd"
   xmlns:inkscape="http://www.inkscape.org/namespaces/inkscape"
   viewBox="0 0 512 512"
   style="height: 512px; width: 512px;"
   version="1.1"
   id="svg25"
   sodipodi:docname="epee-longue-de-kolik.svg"
   inkscape:export-filename="/home/plic/Téléchargements/epee-longue-de-kolik.png"
   inkscape:export-xdpi="24"
   inkscape:export-ydpi="24"
   inkscape:version="0.92.3 (2405546, 2018-03-11)">
  <metadata
     id="metadata29">
    <rdf:RDF>
      <cc:Work
         rdf:about="">
        <dc:format>image/svg+xml</dc:format>
        <dc:type
           rdf:resource="http://purl.org/dc/dcmitype/StillImage" />
        <dc:title></dc:title>
      </cc:Work>
    </rdf:RDF>
  </metadata>
  <sodipodi:namedview
     pagecolor="#ffffff"
     bordercolor="#666666"
     borderopacity="1"
     objecttolerance="10"
     gridtolerance="10"
     guidetolerance="10"
     inkscape:pageopacity="0"
     inkscape:pageshadow="2"
     inkscape:window-width="1144"
     inkscape:window-height="693"
     id="namedview27"
     showgrid="false"
     inkscape:zoom="0.4609375"
     inkscape:cx="-100.8503"
     inkscape:cy="56.221835"
     inkscape:window-x="2048"
     inkscape:window-y="319"
     inkscape:window-maximized="0"
     inkscape:current-layer="svg25" />
  <defs
     id="defs7">
    <linearGradient
       id="gradient-3"
       gradientTransform="matrix(0,-1.2956775,0.77179702,0,92,512)"
       x1="107.32301"
       y1="139.19592"
       x2="372.47696"
       y2="139.19592"
       gradientUnits="userSpaceOnUse">
      <stop
         offset="0%"
         stop-color="#9b9b9b"
         stop-opacity="1"
         id="stop2" />
      <stop
         offset="100%"
         stop-color="#c9c9c9"
         stop-opacity="1"
         id="stop4" />
    </linearGradient>
  </defs>
  <path
     d="m 127.8,476.857 c -0.14,5.796 2.82,11.483 8.212,14.575 7.84,4.497 17.85,1.8 22.355,-6.026 2.767,-4.804 2.805,-10.42 0.615,-15.086 l 39.375,-68.558 51.957,29.797 16.49,-28.51 c -49.47,-6.374 -90.184,-27.945 -119.837,-68.726 l -16.492,28.51 51.67,29.63 -39.352,68.522 c -5.166,0.44 -10.04,3.31 -12.818,8.135 -1.408,2.446 -2.113,5.103 -2.176,7.737 z"
     class=""
     id="path9"
     style="fill:#8b572a;fill-opacity:1;stroke:none;stroke-opacity:1"
     inkscape:connector-curvature="0" />
  <path
     d="m 199.432,323.764 0.642,37.892 144.74,-251.484 16.198,9.322 -145.87,253.45 35.135,-19.89 c 1.873,-3.916 14.392,-29.888 33.858,-59.775 20.005,-30.715 44.997,-64.022 74.703,-74.397 2.27,-4.567 15.496,-31.488 27.764,-69.58 12.224,-37.96 21.654,-84.088 15.58,-119.912 -35.507,12.992 -70.15,44.6 -95.995,74.456 -23.965,27.686 -39.656,52.14 -43.998,59.117 5.99,30.91 -10.66,69.19 -27.53,101.86 -16.333,31.63 -32.69,55.295 -35.228,58.94 z"
     class="selected"
     id="path11"
     style="fill:url(#gradient-3);stroke:#dbe80c;stroke-width:10.29999847;stroke-opacity:1;stroke-miterlimit:4;stroke-dasharray:none"
     inkscape:connector-curvature="0" />
  <path
     d="m 272.332,350.756 c 17.433,-5.623 39.574,-10.356 64.59,-14.51 h 77.287 v -18.687 h -42.12 c -28.54,-14.672 -3.137,-40.948 53.53,-50.7 h 161.003 v -18.688 l -158.752,0 c -13.188,-12.62 3.7,-27.91 32.24,-38.975 h 35.175 v -18.69 h -25.707 c -20.727,-17.057 -5.688,-46.446 49.102,-59.93 l 66.888,0 v -18.688 l -67.07,0 c -58.125,-17.575 -84.382,-49.153 -96.3,-74.394 3.766,38.7 -6.276,81.725 -17.81,117.537 -13.838,42.97 -30.45,75.7 -30.45,75.7 l -1.887,3.72 -4.027,1.078 c -20.368,5.46 -48.063,36.988 -68.228,67.95 -11.905,18.276 -21.51,35.828 -27.463,47.276 z"
     class=""
     id="path13"
     style="fill:#ff0000;fill-opacity:0;stroke:none;stroke-opacity:1"
     inkscape:connector-curvature="0" />
  <path
     d="m 453.812,326.902 c 0,11.643 9.438,21.08 21.08,21.08 11.644,0 21.08,-9.437 21.08,-21.08 0,-11.643 -9.436,-21.08 -21.08,-21.08 -11.642,0 -21.08,9.437 -21.08,21.08 z"
     class=""
     id="path15"
     style="fill:#ff0000;fill-opacity:0;stroke:none;stroke-opacity:1"
     inkscape:connector-curvature="0" />
  <path
     d="m 461.342,43.148 c 0,0 52.667,21.08 64.31,21.08 11.643,0 21.08,-9.437 21.08,-21.08 0,-11.643 -9.437,-21.08 -21.08,-21.08 -11.643,0 -64.31,21.08 -64.31,21.08 z"
     class=""
     id="path17"
     style="fill:#ff0000;fill-opacity:0;stroke:none;stroke-opacity:1"
     inkscape:connector-curvature="0" />
  <path
     d="m 518.11,199.85 c 0,11.643 9.436,21.082 21.08,21.082 11.642,0 21.08,-9.44 21.08,-21.082 0,-11.643 -9.438,-21.08 -21.08,-21.08 -11.644,0 -21.08,9.437 -21.08,21.08 z"
     class=""
     id="path19"
     style="fill:#ff0000;fill-opacity:0;stroke:none;stroke-opacity:1"
     inkscape:connector-curvature="0" />
  <g
     id="g875"
     class=""
     transform="matrix(0.09120345,0.05047918,-0.05047918,0.09120345,184.09745,354.29473)">
    <g
       id="g873"
       transform="rotate(-90,256,256)">
      <path
         id="path849"
         class=""
         d="M 247,25.076 107.053,130.004 172.049,162.49 247,106.297 v -81.22 z"
         inkscape:connector-curvature="0"
         style="fill:#e0115f;fill-opacity:1;stroke:#d0021b;stroke-width:10;stroke-opacity:1" />
      <path
         id="path851"
         class=""
         d="m 265,25.076 v 81.22 l 74.95,56.194 65,-32.488 z"
         inkscape:connector-curvature="0"
         style="fill:#e0115f;fill-opacity:1;stroke:#d0021b;stroke-width:10;stroke-opacity:1" />
      <path
         id="path853"
         class=""
         d="m 274.277,47.383 36.63,26.437 c -25.125,-4.207 -29.74,9.2 -37.348,28.8 l 0.717,-55.237 z"
         inkscape:connector-curvature="0"
         style="fill:#f694b9;fill-opacity:1;stroke:#d0021b;stroke-width:10;stroke-opacity:1" />
      <path
         id="path855"
         class=""
         d="m 236.487,51.309 -0.274,33.362 c -22.052,1.182 -56.787,14.423 -107.893,43.99 L 236.488,51.31 Z"
         inkscape:connector-curvature="0"
         style="fill:#e997b5;fill-opacity:1" />
      <path
         id="path857"
         class=""
         d="m 256,122.044 -74,55.48 v 156.948 l 74,55.482 74,-55.482 V 177.527 l -74,-55.482 z"
         inkscape:connector-curvature="0"
         style="fill:#e0115f;fill-opacity:1;stroke:#d0021b;stroke-width:10;stroke-opacity:1" />
      <path
         id="path859"
         class=""
         d="m 260.215,139.714 c -37.503,33.84 -60.642,164.833 -63.65,199.094 l -0.35,-151.095 64,-48 z"
         inkscape:connector-curvature="0"
         style="fill:#f593b7;fill-opacity:1" />
      <path
         id="path861"
         class=""
         d="m 99,146.1 v 219.8 l 65,-32.488 V 178.588 Z"
         inkscape:connector-curvature="0"
         style="fill:#e0115f;fill-opacity:1;stroke:#d0021b;stroke-width:10;stroke-opacity:1" />
      <path
         id="path863"
         class="selected"
         d="m 413,146.1 -65,32.488 v 154.824 l 65,32.488 z"
         inkscape:connector-curvature="0"
         style="fill:#e0115f;fill-opacity:1;stroke:#d0021b;stroke-width:10;stroke-opacity:1" />
      <path
         id="path865"
         class=""
         d="m 111.648,169.41 40.473,20.83 c -46.28,38.757 -30.79,122.693 -41.876,162.572 l 1.404,-183.402 z"
         inkscape:connector-curvature="0"
         style="fill:#f5a1c1;fill-opacity:1" />
      <path
         id="path867"
         class=""
         d="M 172.048,349.51 107.053,381.996 247,486.924 v -81.22 L 172.05,349.51 Z"
         inkscape:connector-curvature="0"
         style="fill:#e0115f;fill-opacity:1;stroke:#d0021b;stroke-width:10;stroke-opacity:1" />
      <path
         id="path869"
         class=""
         d="M 339.951,349.51 265,405.703 v 81.22 L 404.947,381.996 Z"
         inkscape:connector-curvature="0"
         style="fill:#e0115f;fill-opacity:1;stroke:#d0021b;stroke-width:10;stroke-opacity:1" />
      <path
         id="path871"
         class=""
         d="m 170.536,366.682 c -19.594,16.282 -16.745,24.365 4.477,54.412 l -44.246,-38.018 39.77,-16.394 z"
         inkscape:connector-curvature="0"
         style="fill:#f5a7c4;fill-opacity:1" />
    </g>
  </g>
</svg>
