<?xml version="1.0" encoding="UTF-8" standalone="no"?>
<svg
   xmlns:dc="http://purl.org/dc/elements/1.1/"
   xmlns:cc="http://creativecommons.org/ns#"
   xmlns:rdf="http://www.w3.org/1999/02/22-rdf-syntax-ns#"
   xmlns:svg="http://www.w3.org/2000/svg"
   xmlns="http://www.w3.org/2000/svg"
   xmlns:sodipodi="http://sodipodi.sourceforge.net/DTD/sodipodi-0.dtd"
   xmlns:inkscape="http://www.inkscape.org/namespaces/inkscape"
   inkscape:version="1.0 (6e3e5246a0, 2020-05-07)"
   sodipodi:docname="epee-courte-assassin-orque-noir.svg"
   id="svg30"
   version="1.1"
   style="height: 64px; width: 64px;"
   viewBox="0 0 512 512">
  <metadata
     id="metadata34">
    <rdf:RDF>
      <cc:Work
         rdf:about="">
        <dc:format>image/svg+xml</dc:format>
        <dc:type
           rdf:resource="http://purl.org/dc/dcmitype/StillImage" />
        <dc:title></dc:title>
      </cc:Work>
    </rdf:RDF>
  </metadata>
  <sodipodi:namedview
     inkscape:current-layer="svg30"
     inkscape:window-maximized="0"
     inkscape:window-y="75"
     inkscape:window-x="2327"
     inkscape:cy="157.16433"
     inkscape:cx="-355.72157"
     inkscape:zoom="0.30038228"
     showgrid="false"
     id="namedview32"
     inkscape:window-height="967"
     inkscape:window-width="1448"
     inkscape:pageshadow="2"
     inkscape:pageopacity="0"
     guidetolerance="10"
     gridtolerance="10"
     objecttolerance="10"
     borderopacity="1"
     bordercolor="#666666"
     pagecolor="#ffffff" />
  <defs
     id="defs12">
    <radialGradient
       gradientUnits="userSpaceOnUse"
       r="74.400965"
       fy="112.71799"
       fx="91.582486"
       cy="112.71799"
       cx="91.582486"
       gradientTransform="matrix(0,-1.0704501,0.93418648,0,0,512)"
       id="gradient-2">
      <stop
         id="stop2"
         stop-opacity="1"
         stop-color="#8b572a"
         offset="0%" />
      <stop
         id="stop4"
         stop-opacity="1"
         stop-color="#8b572a"
         offset="100%" />
    </radialGradient>
    <radialGradient
       gradientUnits="userSpaceOnUse"
       r="140.1925"
       fy="271.11512"
       fx="237.09478"
       cy="271.11512"
       cx="237.09478"
       gradientTransform="matrix(0,-1.2970763,0.77096466,0,0,512)"
       id="gradient-3">
      <stop
         id="stop7"
         stop-opacity="1"
         stop-color="#4a4a4a"
         offset="0%" />
      <stop
         id="stop9"
         stop-opacity="1"
         stop-color="#417505"
         offset="100%" />
    </radialGradient>
  </defs>
  <path
     style="fill:url(#gradient-2)"
     id="path14"
     fill="url(#gradient-2)"
     class=""
     d="m 35.8,476.857 c -0.14,5.796 2.82,11.483 8.212,14.575 7.84,4.497 17.85,1.8 22.355,-6.026 2.767,-4.804 2.805,-10.42 0.615,-15.086 l 39.375,-68.558 51.957,29.797 16.49,-28.51 C 125.334,396.675 84.62,375.104 54.967,334.323 l -16.492,28.51 51.67,29.63 -39.352,68.522 c -5.166,0.44 -10.04,3.31 -12.818,8.135 -1.408,2.446 -2.113,5.103 -2.176,7.737 z" />
  <path
     style="fill:url(#gradient-3)"
     id="path16"
     stroke-width="10"
     stroke-opacity="1"
     stroke="#4a4a4a"
     fill="url(#gradient-3)"
     class="selected"
     d="m 107.432,323.764 0.642,37.892 144.74,-251.484 16.198,9.322 -145.87,253.45 35.135,-19.89 c 1.873,-3.916 14.392,-29.888 33.858,-59.775 20.005,-30.715 44.997,-64.022 74.703,-74.397 2.27,-4.567 15.496,-31.488 27.764,-69.58 12.224,-37.96 21.654,-84.088 15.58,-119.912 -35.507,12.992 -70.15,44.6 -95.995,74.456 -23.965,27.686 -39.656,52.14 -43.998,59.117 5.99,30.91 -10.66,69.19 -27.53,101.86 -16.333,31.63 -32.69,55.295 -35.228,58.94 z" />
  <path
     style="fill:#42720a;fill-opacity:1"
     id="path22"
     stroke-width="3.06392"
     stroke-opacity="1"
     stroke="#4a4a4a"
     fill-opacity="1"
     fill="#7ed321"
     class=""
     d="m 323.94601,34.935338 c 0,0 16.13674,6.458743 19.70406,6.458743 3.56733,0 6.45875,-2.891421 6.45875,-6.458743 0,-3.567322 -2.89142,-6.458743 -6.45875,-6.458743 -3.56732,0 -19.70406,6.458743 -19.70406,6.458743 z" />
  <path
     d="m 320.29082,78.233644 c 0,0 16.13674,6.458743 19.70406,6.458743 3.56733,0 6.45875,-2.891421 6.45875,-6.458743 0,-3.567322 -2.89142,-6.458743 -6.45875,-6.458743 -3.56732,0 -19.70406,6.458743 -19.70406,6.458743 z"
     class=""
     fill="#7ed321"
     fill-opacity="1"
     stroke="#4a4a4a"
     stroke-opacity="1"
     stroke-width="3.06392"
     id="path22-6"
     style="fill:#42720a;fill-opacity:1" />
  <path
     d="m 316.15139,102.69657 c 0,0 16.13674,6.45874 19.70406,6.45874 3.56733,0 6.45875,-2.89142 6.45875,-6.45874 0,-3.567321 -2.89142,-6.458751 -6.45875,-6.458751 -3.56732,0 -19.70406,6.458751 -19.70406,6.458751 z"
     class=""
     fill="#7ed321"
     fill-opacity="1"
     stroke="#4a4a4a"
     stroke-opacity="1"
     stroke-width="3.06392"
     id="path22-7"
     style="fill:#42720a;fill-opacity:1" />
  <path
     d="m 334.43945,138.15729 c 0,0 16.13674,6.45874 19.70406,6.45874 3.56733,0 6.45875,-2.89142 6.45875,-6.45874 0,-3.56733 -2.89142,-6.45875 -6.45875,-6.45875 -3.56732,0 -19.70406,6.45875 -19.70406,6.45875 z"
     class=""
     fill="#7ed321"
     fill-opacity="1"
     stroke="#4a4a4a"
     stroke-opacity="1"
     stroke-width="3.06392"
     id="path22-5"
     style="fill:#42720a;fill-opacity:1" />
  <path
     d="m 352.20612,68.715692 c 0,0 16.13674,6.458743 19.70406,6.458743 3.56733,0 6.45875,-2.891421 6.45875,-6.458743 0,-3.567322 -2.89142,-6.458743 -6.45875,-6.458743 -3.56732,0 -19.70406,6.458743 -19.70406,6.458743 z"
     class=""
     fill="#7ed321"
     fill-opacity="1"
     stroke="#4a4a4a"
     stroke-opacity="1"
     stroke-width="3.06392"
     id="path22-35"
     style="fill:#42720a;fill-opacity:1" />
  <path
     d="m 312.52808,124.06427 c 0,0 16.13674,6.45874 19.70406,6.45874 3.56733,0 6.45875,-2.89142 6.45875,-6.45874 0,-3.56732 -2.89142,-6.45874 -6.45875,-6.45874 -3.56732,0 -19.70406,6.45874 -19.70406,6.45874 z"
     class=""
     fill="#7ed321"
     fill-opacity="1"
     stroke="#4a4a4a"
     stroke-opacity="1"
     stroke-width="3.06392"
     id="path22-62"
     style="fill:#42720a;fill-opacity:1" />
  <path
     d="m 294.49036,173.11274 c 0,0 16.13674,6.45875 19.70406,6.45875 3.56733,0 6.45875,-2.89142 6.45875,-6.45875 0,-3.56732 -2.89142,-6.45874 -6.45875,-6.45874 -3.56732,0 -19.70406,6.45874 -19.70406,6.45874 z"
     class=""
     fill="#7ed321"
     fill-opacity="1"
     stroke="#4a4a4a"
     stroke-opacity="1"
     stroke-width="3.06392"
     id="path22-9"
     style="fill:#42720a;fill-opacity:1" />
  <path
     d="m 305.32026,147.30177 c 0,0 16.13674,6.45874 19.70406,6.45874 3.56733,0 6.45875,-2.89142 6.45875,-6.45874 0,-3.56732 -2.89142,-6.45874 -6.45875,-6.45874 -3.56732,0 -19.70406,6.45874 -19.70406,6.45874 z"
     class=""
     fill="#7ed321"
     fill-opacity="1"
     stroke="#4a4a4a"
     stroke-opacity="1"
     stroke-width="3.06392"
     id="path22-1"
     style="fill:#42720a;fill-opacity:1" />
  <path
     d="m 328.92524,159.75173 c 0,0 16.13674,6.45874 19.70406,6.45874 3.56733,0 6.45875,-2.89142 6.45875,-6.45874 0,-3.56732 -2.89142,-6.45874 -6.45875,-6.45874 -3.56732,0 -19.70406,6.45874 -19.70406,6.45874 z"
     class=""
     fill="#7ed321"
     fill-opacity="1"
     stroke="#4a4a4a"
     stroke-opacity="1"
     stroke-width="3.06392"
     id="path22-2"
     style="fill:#42720a;fill-opacity:1" />
  <path
     d="m 341.68141,113.30428 c 0,0 16.13674,6.45875 19.70406,6.45875 3.56733,0 6.45875,-2.89143 6.45875,-6.45875 0,-3.56732 -2.89142,-6.45874 -6.45875,-6.45874 -3.56732,0 -19.70406,6.45874 -19.70406,6.45874 z"
     class=""
     fill="#7ed321"
     fill-opacity="1"
     stroke="#4a4a4a"
     stroke-opacity="1"
     stroke-width="3.06392"
     id="path22-70"
     style="fill:#42720a;fill-opacity:1" />
  <path
     d="m 324.1797,55.953634 c 0,0 16.13674,6.458743 19.70406,6.458743 3.56733,0 6.45875,-2.891421 6.45875,-6.458743 0,-3.567322 -2.89142,-6.458743 -6.45875,-6.458743 -3.56732,0 -19.70406,6.458743 -19.70406,6.458743 z"
     class=""
     fill="#7ed321"
     fill-opacity="1"
     stroke="#4a4a4a"
     stroke-opacity="1"
     stroke-width="3.06392"
     id="path22-93"
     style="fill:#42720a;fill-opacity:1" />
  <path
     d="m 345.65014,87.735569 c 0,0 16.13674,6.458743 19.70406,6.458743 3.56733,0 6.45875,-2.891421 6.45875,-6.458743 0,-3.567322 -2.89142,-6.458743 -6.45875,-6.458743 -3.56732,0 -19.70406,6.458743 -19.70406,6.458743 z"
     class=""
     fill="#7ed321"
     fill-opacity="1"
     stroke="#4a4a4a"
     stroke-opacity="1"
     stroke-width="3.06392"
     id="path22-60"
     style="fill:#42720a;fill-opacity:1" />
  <path
     d="m 355.24627,44.110459 c 0,0 16.13674,6.458743 19.70406,6.458743 3.56733,0 6.45875,-2.891421 6.45875,-6.458743 0,-3.567322 -2.89142,-6.458743 -6.45875,-6.458743 -3.56732,0 -19.70406,6.458743 -19.70406,6.458743 z"
     class=""
     fill="#7ed321"
     fill-opacity="1"
     stroke="#4a4a4a"
     stroke-opacity="1"
     stroke-width="3.06392"
     id="path22-626"
     style="fill:#42720a;fill-opacity:1" />
</svg>
