<?xml version="1.0" encoding="UTF-8" standalone="no"?>
<svg
   xmlns:dc="http://purl.org/dc/elements/1.1/"
   xmlns:cc="http://creativecommons.org/ns#"
   xmlns:rdf="http://www.w3.org/1999/02/22-rdf-syntax-ns#"
   xmlns:svg="http://www.w3.org/2000/svg"
   xmlns="http://www.w3.org/2000/svg"
   xmlns:sodipodi="http://sodipodi.sourceforge.net/DTD/sodipodi-0.dtd"
   xmlns:inkscape="http://www.inkscape.org/namespaces/inkscape"
   viewBox="0 0 512 512"
   style="height: 512px; width: 512px;"
   version="1.1"
   id="svg25"
   sodipodi:docname="epee-longue-en-durium-de-urgashn.svg"
   inkscape:export-filename="/home/plic/Téléchargements/epee-longue-en-durium-de-urgashn.png"
   inkscape:export-xdpi="24"
   inkscape:export-ydpi="24"
   inkscape:version="0.92.3 (2405546, 2018-03-11)">
  <metadata
     id="metadata29">
    <rdf:RDF>
      <cc:Work
         rdf:about="">
        <dc:format>image/svg+xml</dc:format>
        <dc:type
           rdf:resource="http://purl.org/dc/dcmitype/StillImage" />
        <dc:title></dc:title>
      </cc:Work>
    </rdf:RDF>
  </metadata>
  <sodipodi:namedview
     pagecolor="#ffffff"
     bordercolor="#666666"
     borderopacity="1"
     objecttolerance="10"
     gridtolerance="10"
     guidetolerance="10"
     inkscape:pageopacity="0"
     inkscape:pageshadow="2"
     inkscape:window-width="1604"
     inkscape:window-height="974"
     id="namedview27"
     showgrid="false"
     inkscape:zoom="0.4609375"
     inkscape:cx="76.214032"
     inkscape:cy="261.62988"
     inkscape:window-x="2206"
     inkscape:window-y="59"
     inkscape:window-maximized="0"
     inkscape:current-layer="svg25" />
  <defs
     id="defs7">
    <linearGradient
       id="gradient-3"
       gradientTransform="matrix(0,-1.2959699,0.77162286,0,92,512)"
       x1="104.00164"
       y1="138.82951"
       x2="589.38599"
       y2="621.13855"
       gradientUnits="userSpaceOnUse">
      <stop
         offset="0%"
         stop-color="#9b9b9b"
         stop-opacity="1"
         id="stop2"
         style="stop-color:#8696b5;stop-opacity:1" />
      <stop
         offset="100%"
         stop-color="#c9c9c9"
         stop-opacity="1"
         id="stop4" />
    </linearGradient>
  </defs>
  <path
     d="m 122.66884,483.52006 c -0.16696,6.91242 3.36319,13.69484 9.79379,17.38241 9.35013,5.36321 21.28824,2.14672 26.66098,-7.18671 3.29998,-5.72934 3.3453,-12.42709 0.73346,-17.99185 l 46.95936,-81.76354 61.96488,35.53646 19.66628,-34.00156 C 229.44875,387.89352 180.89248,362.16755 145.52776,313.53138 l -19.66866,34.00155 61.6226,35.33729 -46.93193,81.7206 c -6.16106,0.52475 -11.97389,3.94757 -15.28698,9.70195 -1.67921,2.91715 -2.52,6.08593 -2.59514,9.22729 z"
     class=""
     id="path9"
     inkscape:connector-curvature="0"
     style="fill:#8b572a;fill-opacity:1;stroke-width:1.19261849" />
  <path
     d="m 199.432,323.764 0.642,37.892 144.74,-251.484 16.198,9.322 -145.87,253.45 35.135,-19.89 c 1.873,-3.916 14.392,-29.888 33.858,-59.775 20.005,-30.715 44.997,-64.022 74.703,-74.397 2.27,-4.567 15.496,-31.488 27.764,-69.58 12.224,-37.96 21.654,-84.088 15.58,-119.912 -35.507,12.992 -70.15,44.6 -95.995,74.456 -23.965,27.686 -39.656,52.14 -43.998,59.117 5.99,30.91 -10.66,69.19 -27.53,101.86 -16.333,31.63 -32.69,55.295 -35.228,58.94 z"
     class="selected"
     id="path11"
     style="fill:url(#gradient-3);stroke:#9b9b9b;stroke-width:2;stroke-opacity:1"
     inkscape:connector-curvature="0" />
  <path
     d="m 272.332,350.756 c 17.433,-5.623 39.574,-10.356 64.59,-14.51 h 77.287 v -18.687 h -42.12 c -28.54,-14.672 -3.137,-40.948 53.53,-50.7 h 161.003 v -18.688 l -158.752,0 c -13.188,-12.62 3.7,-27.91 32.24,-38.975 h 35.175 v -18.69 h -25.707 c -20.727,-17.057 -5.688,-46.446 49.102,-59.93 l 66.888,0 v -18.688 l -67.07,0 c -58.125,-17.575 -84.382,-49.153 -96.3,-74.394 3.766,38.7 -6.276,81.725 -17.81,117.537 -13.838,42.97 -30.45,75.7 -30.45,75.7 l -1.887,3.72 -4.027,1.078 c -20.368,5.46 -48.063,36.988 -68.228,67.95 -11.905,18.276 -21.51,35.828 -27.463,47.276 z"
     class=""
     id="path13"
     inkscape:connector-curvature="0"
     style="fill:#ff0000;fill-opacity:0" />
  <path
     d="m 453.812,326.902 c 0,11.643 9.438,21.08 21.08,21.08 11.644,0 21.08,-9.437 21.08,-21.08 0,-11.643 -9.436,-21.08 -21.08,-21.08 -11.642,0 -21.08,9.437 -21.08,21.08 z"
     class=""
     id="path15"
     inkscape:connector-curvature="0"
     style="fill:#ff0000;fill-opacity:0" />
  <path
     d="m 461.342,43.148 c 0,0 52.667,21.08 64.31,21.08 11.643,0 21.08,-9.437 21.08,-21.08 0,-11.643 -9.437,-21.08 -21.08,-21.08 -11.643,0 -64.31,21.08 -64.31,21.08 z"
     class=""
     id="path17"
     inkscape:connector-curvature="0"
     style="fill:#ff0000;fill-opacity:0" />
  <path
     d="m 518.11,199.85 c 0,11.643 9.436,21.082 21.08,21.082 11.642,0 21.08,-9.44 21.08,-21.082 0,-11.643 -9.438,-21.08 -21.08,-21.08 -11.644,0 -21.08,9.437 -21.08,21.08 z"
     class=""
     id="path19"
     inkscape:connector-curvature="0"
     style="fill:#ff0000;fill-opacity:0" />
  <path
     id="path852"
     class=""
     d="m 139.38771,283.7777 31.13271,57.27018 c -8.6316,12.99733 -31.03992,18.17004 -44.66132,6.48505 l 4.05244,-19.09753 c -0.0855,0.0534 -0.16779,0.1115 -0.25427,0.16486 l 5.98193,-27.15829 3.74949,-17.6642 z"
     inkscape:connector-curvature="0"
     style="fill:#9b9b9b;fill-opacity:1;stroke-width:0.69999999" />
  <path
     id="path866"
     class=""
     d="m -1190.8948,644.16817 c 6.6374,7.6958 14.7609,14.476 25.5304,18.3288 l -9.8546,14.0098 c -12.5055,-1.421 -20.3539,-7.2849 -25.7894,-17.9606 z"
     inkscape:connector-curvature="0"
     style="fill:#4a0000;fill-opacity:0;stroke-width:0.69999999" />
  <path
     id="path852-3"
     class=""
     d="m 317.79462,382.46168 -45.38558,46.78962 c -14.97948,-4.36461 -26.597,-24.21211 -19.50386,-40.69752 l 19.43729,-1.82484 c -0.0765,-0.0658 -0.15646,-0.12693 -0.23317,-0.19356 l 27.70673,-2.38601 17.97881,-1.68674 z"
     inkscape:connector-curvature="0"
     style="fill:#9b9b9b;fill-opacity:1;stroke-width:0.69999999" />
</svg>
