<svg xmlns="http://www.w3.org/2000/svg" viewBox="0 0 512 512" style="height: 64px; width: 64px;"><defs><filter id="shadow-2" height="300%" width="300%" x="-100%" y="-100%"><feFlood flood-color="rgba(74, 144, 226, 1)" result="flood"></feFlood><feComposite in="flood" in2="SourceGraphic" operator="atop" result="composite"></feComposite><feGaussianBlur in="composite" stdDeviation="15" result="blur"></feGaussianBlur><feOffset dx="0" dy="0" result="offset"></feOffset><feComposite in="SourceGraphic" in2="offset" operator="over"></feComposite></filter><filter id="shadow-3" height="300%" width="300%" x="-100%" y="-100%"><feFlood flood-color="rgba(74, 144, 226, 1)" result="flood"></feFlood><feComposite in="flood" in2="SourceGraphic" operator="atop" result="composite"></feComposite><feGaussianBlur in="composite" stdDeviation="15" result="blur"></feGaussianBlur><feOffset dx="0" dy="0" result="offset"></feOffset><feComposite in="SourceGraphic" in2="offset" operator="over"></feComposite></filter><filter id="shadow-4" height="300%" width="300%" x="-100%" y="-100%"><feFlood flood-color="rgba(74, 144, 226, 1)" result="flood"></feFlood><feComposite in="flood" in2="SourceGraphic" operator="atop" result="composite"></feComposite><feGaussianBlur in="composite" stdDeviation="15" result="blur"></feGaussianBlur><feOffset dx="0" dy="0" result="offset"></feOffset><feComposite in="SourceGraphic" in2="offset" operator="over"></feComposite></filter><filter id="shadow-6" height="300%" width="300%" x="-100%" y="-100%"><feFlood flood-color="rgba(74, 144, 226, 1)" result="flood"></feFlood><feComposite in="flood" in2="SourceGraphic" operator="atop" result="composite"></feComposite><feGaussianBlur in="composite" stdDeviation="15" result="blur"></feGaussianBlur><feOffset dx="0" dy="0" result="offset"></feOffset><feComposite in="SourceGraphic" in2="offset" operator="over"></feComposite></filter><filter id="shadow-8" height="300%" width="300%" x="-100%" y="-100%"><feFlood flood-color="rgba(74, 144, 226, 1)" result="flood"></feFlood><feComposite in="flood" in2="SourceGraphic" operator="atop" result="composite"></feComposite><feGaussianBlur in="composite" stdDeviation="15" result="blur"></feGaussianBlur><feOffset dx="0" dy="0" result="offset"></feOffset><feComposite in="SourceGraphic" in2="offset" operator="over"></feComposite></filter><filter id="shadow-11" height="300%" width="300%" x="-100%" y="-100%"><feFlood flood-color="rgba(74, 144, 226, 1)" result="flood"></feFlood><feComposite in="flood" in2="SourceGraphic" operator="atop" result="composite"></feComposite><feGaussianBlur in="composite" stdDeviation="15" result="blur"></feGaussianBlur><feOffset dx="0" dy="0" result="offset"></feOffset><feComposite in="SourceGraphic" in2="offset" operator="over"></feComposite></filter><radialGradient id="gradient-2"><stop offset="0%" stop-color="#9b9b9b" stop-opacity="1"></stop><stop offset="100%" stop-color="#4a4a4a" stop-opacity="1"></stop></radialGradient><radialGradient id="gradient-3"><stop offset="0%" stop-color="#9b9b9b" stop-opacity="1"></stop><stop offset="100%" stop-color="#4a4a4a" stop-opacity="1"></stop></radialGradient><radialGradient id="gradient-4"><stop offset="0%" stop-color="#9b9b9b" stop-opacity="1"></stop><stop offset="100%" stop-color="#4a4a4a" stop-opacity="1"></stop></radialGradient><radialGradient id="gradient-6"><stop offset="0%" stop-color="#9b9b9b" stop-opacity="1"></stop><stop offset="100%" stop-color="#4a4a4a" stop-opacity="1"></stop></radialGradient><radialGradient id="gradient-8"><stop offset="0%" stop-color="#9b9b9b" stop-opacity="1"></stop><stop offset="100%" stop-color="#4a4a4a" stop-opacity="1"></stop></radialGradient><radialGradient id="gradient-11"><stop offset="0%" stop-color="#9b9b9b" stop-opacity="1"></stop><stop offset="100%" stop-color="#4a4a4a" stop-opacity="1"></stop></radialGradient></defs><g class="" transform="translate(0,0)" style="touch-action: none;"><g><path d="M138.656 49.53L138.626 164.344L175.656 142.938L175.626 131.094L175.562 114.874L189.625 122.969L317.845 196.905L317.812 146.375L316.906 146.905L312.219 149.625L307.561 146.905L256.781 117.593L256.687 117.655L138.656 49.53Z" class="" fill="url(#gradient-2)" stroke="#4a4a4a" stroke-opacity="1" stroke-width="10" filter="url(#shadow-2)"></path><path d="M374.75 49.53L275.437 106.844L312.187 128.031L322.469 122.063L336.499 113.939L336.499 130.157L336.562 277.532L379.592 252.658L379.092 252.346L374.812 249.596L374.812 244.471L374.78 185.845L374.78 125.125L374.75 79.345L374.75 49.53Z" class="" fill="url(#gradient-3)" stroke="#4a4a4a" stroke-opacity="1" stroke-width="10" filter="url(#shadow-3)"></path><path d="M194.344 147.25L194.344 153.72L189.656 156.438L46.686 239.031L46.656 238.971L20.594 254L120 311.406L120.125 268.062L109.437 262.125L95 254.125L109.28 245.875L237.187 171.969L194.344 147.249Z" class="" fill="url(#gradient-4)" stroke="#4a4a4a" stroke-opacity="1" stroke-width="10" filter="url(#shadow-4)"></path><path d="M255.874 182.75L203.75 212.875L254.688 244.281L306.813 212.126L255.875 182.751Z" class="" fill="#9b9b9b" fill-opacity="1" stroke="#4a4a4a" stroke-opacity="1" stroke-width="10"></path><path d="M393.469 196.656L393.499 239.376L402.593 245.219L415.468 253.499L402.218 261.187L273 335.813L317.813 361.656L317.813 355.188L322.5 352.5L374.78 322.312L374.78 322.156L492.814 254L393.47 196.656Z" class="" fill="url(#gradient-6)" filter="url(#shadow-6)"></path><path d="M317.843 227.281L272.5 255.25L317.875 283.22L317.845 227.28Z" class="" fill="#9b9b9b" fill-opacity="1" stroke="#4a4a4a" stroke-opacity="1" stroke-width="10"></path><path d="M176.468 228.626L132.968 253.782L134.028 254.377L138.873 257.065L138.843 262.595L138.623 333.939L138.653 458.471L237.748 401.281L200.81 379.971L190.56 385.907L176.53 394.063L176.53 377.845L176.467 228.625Z" class="" fill="url(#gradient-8)" filter="url(#shadow-8)"></path><path d="M195.154 229.501L195.184 280.971L236.904 255.251L195.154 229.501Z" class="" fill="#9b9b9b" fill-opacity="1" stroke="#4a4a4a" stroke-opacity="1" stroke-width="10"></path><path d="M254.684 266.221L205.248 296.721L254.342 325.031L303.779 296.501L254.687 266.221Z" class="" fill="#9b9b9b" fill-opacity="1" stroke="#4a4a4a" stroke-opacity="1" stroke-width="10"></path><path d="M195.184 312.501L195.217 361.595L196.122 361.065L200.778 358.375L205.468 361.063L256.436 390.47L256.686 390.344L374.75 458.47L374.78 343.875L336.5 366L336.53 377.844L336.594 394.064L322.531 385.937L195.19 312.5Z" class="selected" fill="url(#gradient-11)" stroke="#4a4a4a" stroke-opacity="1" stroke-width="10" filter="url(#shadow-11)"></path></g></g></svg>