<?xml version="1.0" encoding="UTF-8" standalone="no"?>
<svg
   viewBox="0 0 512 512"
   style="height: 64px; width: 64px;"
   version="1.1"
   id="svg19"
   sodipodi:docname="faucille-magique-en-argent.svg"
   inkscape:version="1.1 (ce6663b3b7, 2021-05-25)"
   inkscape:export-filename="/home/plic/Documents/dev/cofbazar.github.io/images/item/faucille-magique-en-argent.png"
   inkscape:export-xdpi="24"
   inkscape:export-ydpi="24"
   xmlns:inkscape="http://www.inkscape.org/namespaces/inkscape"
   xmlns:sodipodi="http://sodipodi.sourceforge.net/DTD/sodipodi-0.dtd"
   xmlns="http://www.w3.org/2000/svg"
   xmlns:svg="http://www.w3.org/2000/svg">
  <sodipodi:namedview
     id="namedview21"
     pagecolor="#ffffff"
     bordercolor="#666666"
     borderopacity="1.0"
     inkscape:pageshadow="2"
     inkscape:pageopacity="0.0"
     inkscape:pagecheckerboard="0"
     showgrid="false"
     inkscape:zoom="1.2056723"
     inkscape:cx="-21.564732"
     inkscape:cy="330.52099"
     inkscape:window-width="1559"
     inkscape:window-height="1082"
     inkscape:window-x="2765"
     inkscape:window-y="264"
     inkscape:window-maximized="0"
     inkscape:current-layer="svg19" />
  <defs
     id="defs7">
    <linearGradient
       id="delapouite-sickle-gradient-2">
      <stop
         offset="0%"
         stop-color="#9b9b9b"
         stop-opacity="1"
         id="stop2" />
      <stop
         offset="100%"
         stop-color="#c9c9c9"
         stop-opacity="1"
         id="stop4" />
    </linearGradient>
    <radialGradient
       id="lorc-fluffy-trefoil-gradient-1"
       gradientTransform="matrix(0.12787321,0,0,0.12492574,196.03631,363.16324)"
       cx="251.87815"
       cy="257.70401"
       fx="251.87815"
       fy="257.70401"
       r="234.60739"
       gradientUnits="userSpaceOnUse">
      <stop
         offset="0%"
         stop-color="#c9c9c9"
         stop-opacity="1"
         id="stop23" />
      <stop
         offset="100%"
         stop-color="#9b9b9b"
         stop-opacity="1"
         id="stop25" />
    </radialGradient>
    <radialGradient
       id="delapouite-triquetra-gradient-1"
       gradientTransform="matrix(0.13511897,0,0,0.11923102,273.14271,368.4023)"
       cx="240.52839"
       cy="272.5232"
       fx="240.52839"
       fy="272.5232"
       r="222.02657"
       gradientUnits="userSpaceOnUse">
      <stop
         offset="0%"
         stop-color="#c9c9c9"
         stop-opacity="1"
         id="stop48" />
      <stop
         offset="100%"
         stop-color="#9b9b9b"
         stop-opacity="1"
         id="stop50" />
    </radialGradient>
    <radialGradient
       id="lorc-fluffy-trefoil-gradient-1-3"
       gradientTransform="matrix(0.12787321,0,0,0.12492574,340.49118,344.43647)"
       cx="251.87814"
       cy="257.70401"
       fx="251.87814"
       fy="257.70401"
       r="234.60739"
       gradientUnits="userSpaceOnUse">
      <stop
         offset="0%"
         stop-color="#c9c9c9"
         stop-opacity="1"
         id="stop23-6" />
      <stop
         offset="100%"
         stop-color="#9b9b9b"
         stop-opacity="1"
         id="stop25-7" />
    </radialGradient>
    <radialGradient
       id="delapouite-triquetra-gradient-1-3"
       gradientTransform="matrix(0.13511897,0,0,0.11923102,396.70904,276.33874)"
       cx="240.5284"
       cy="272.52319"
       fx="240.5284"
       fy="272.52319"
       r="222.02657"
       gradientUnits="userSpaceOnUse">
      <stop
         offset="0%"
         stop-color="#c9c9c9"
         stop-opacity="1"
         id="stop48-5" />
      <stop
         offset="100%"
         stop-color="#9b9b9b"
         stop-opacity="1"
         id="stop50-6" />
    </radialGradient>
    <radialGradient
       id="lorc-fluffy-trefoil-gradient-1-3-9"
       gradientTransform="matrix(0.12787321,0,0,0.12492574,418.64805,219.32238)"
       cx="251.87814"
       cy="257.70401"
       fx="251.87814"
       fy="257.70401"
       r="234.60739"
       gradientUnits="userSpaceOnUse">
      <stop
         offset="0%"
         stop-color="#c9c9c9"
         stop-opacity="1"
         id="stop23-6-1" />
      <stop
         offset="100%"
         stop-color="#9b9b9b"
         stop-opacity="1"
         id="stop25-7-2" />
    </radialGradient>
    <radialGradient
       id="delapouite-triquetra-gradient-1-3-0"
       gradientTransform="matrix(0.13511897,0,0,0.11923102,412.02259,147.27843)"
       cx="240.5284"
       cy="272.52319"
       fx="240.5284"
       fy="272.52319"
       r="222.02657"
       gradientUnits="userSpaceOnUse">
      <stop
         offset="0%"
         stop-color="#c9c9c9"
         stop-opacity="1"
         id="stop48-5-9" />
      <stop
         offset="100%"
         stop-color="#9b9b9b"
         stop-opacity="1"
         id="stop50-6-3" />
    </radialGradient>
  </defs>
  <g
     class=""
     transform="translate(0,0)"
     style=""
     id="g17">
    <g
       id="g15">
      <path
         d="M257.563 25.156C610.723 302.026 274.481 434.051 169.688 318.406L128.938 355.531L179.75 405.876C397.312 587.239 704.48 153.818 257.563 25.156Z"
         class=""
         fill="url(#delapouite-sickle-gradient-2)"
         stroke="#000000"
         stroke-opacity="1"
         stroke-width="8"
         id="path9" />
      <path
         d="M110.75 364.28C105.225 365.345 101.775 367.237 99.437 369.53C97.481 371.452 96.189 374.086 95.187 377.094L150.375 429.938C155.843 428.93 159.639 427.142 161.655 425.25C163.652 423.378 164.75 421.386 164.75 417.72L110.75 364.28Z"
         class=""
         fill="#b57204"
         fill-opacity="1"
         stroke="#4a4a4a"
         stroke-opacity="1"
         stroke-width="8"
         id="path11" />
      <path
         d="M86.03 394.594L30.407 445.28C13.67 472.28 45.1 506.478 81.5 489.94L133.03 439.658L86.03 394.596Z"
         class="selected"
         fill="#8b572a"
         fill-opacity="1"
         stroke="#4a4a4a"
         stroke-opacity="1"
         stroke-width="8"
         id="path13" />
    </g>
  </g>
  <path
     d="m 240.01933,366.04898 c -6.53593,0.009 -12.77762,4.36087 -13.79266,10.99399 -0.85845,5.60986 2.76795,11.55932 8.60052,12.3858 4.26594,0.60465 8.74043,-2.10643 9.27077,-6.41813 0.37285,-3.03237 -1.63676,-6.24548 -4.77327,-6.57902 -0.66609,-0.071 -1.34039,0.0193 -1.95629,0.2414 -0.9454,0.23863 -1.72372,0.89485 -2.12943,1.76063 -0.19654,0.3678 -0.32305,0.77503 -0.35769,1.21436 -0.0499,0.63195 0.14081,1.28287 0.49925,1.78768 0.56117,0.95171 1.5958,1.59075 2.7806,1.59075 0.99052,0 1.8764,-0.44666 2.46816,-1.1494 -0.14991,0.84594 -0.64131,1.56395 -1.25417,2.03489 -0.73282,0.56294 -1.63854,0.84392 -2.56865,0.79501 -2.76265,-0.14434 -4.47587,-2.7619 -4.2796,-5.24523 0.28123,-3.56107 3.76064,-5.72842 7.04756,-5.37894 4.57725,0.48685 7.39059,4.96463 6.8677,9.21617 -0.7088,5.76115 -6.48006,9.24296 -11.94646,8.46818 -4.48119,-0.63498 -7.87795,-3.64309 -9.56805,-7.46464 -3.22321,-1.57508 -6.84849,-2.28464 -10.405,-1.96765 -9.24802,0.82406 -17.13203,8.95834 -16.20332,18.55165 0.71689,7.405 7.13136,13.68814 14.61774,12.86027 5.63868,-0.6231 10.44622,-5.66774 9.73564,-11.51749 -0.51971,-4.27872 -4.29514,-7.89906 -8.59534,-7.2949 -3.02453,0.42492 -5.60796,3.19895 -5.11857,6.31612 0.27742,1.76721 1.6767,3.29691 3.34026,3.49054 0.18996,0.0349 0.38548,0.0539 0.58556,0.0539 1.78174,0 3.22588,-1.44439 3.22588,-3.22612 0,-1.36276 -0.84518,-2.52706 -2.03995,-2.99977 0.78614,-0.019 1.53148,0.26062 2.09897,0.69579 0.73307,0.56218 1.23863,1.36464 1.43226,2.27553 0.57483,2.70603 -1.50885,5.03883 -3.95793,5.49245 -3.5124,0.65066 -6.50534,-2.15042 -7.01811,-5.41635 -0.71385,-4.5478 2.88172,-8.42497 7.12314,-9.02091 5.747,-0.80763 10.60242,3.86693 11.26825,9.34863 0.23004,1.89372 0.003,3.71021 -0.58012,5.37503 0.30118,3.45022 1.48825,6.80616 3.46904,9.62669 5.33623,7.59824 16.31997,10.35836 24.16241,4.75583 6.05373,-4.32459 8.28769,-13.02369 3.829,-19.09437 -3.35821,-4.57244 -10.12833,-6.21338 -14.83828,-2.67228 -3.44517,2.59038 -4.69328,7.67192 -2.02075,11.09459 1.87981,2.40698 5.57258,3.25734 8.02709,1.27439 1.64106,-1.32584 2.2169,-3.83848 0.86957,-5.41686 -0.2725,-0.31914 -0.62614,-0.56812 -1.01074,-0.73117 -0.19996,-0.10237 -0.41331,-0.18579 -0.63892,-0.24645 -1.72105,-0.46108 -3.49002,0.56028 -3.95098,2.28135 -0.0991,0.36906 -0.12941,0.74065 -0.0999,1.10086 -0.44642,-0.68732 -0.58898,-1.50506 -0.49255,-2.24065 0.12033,-0.91608 0.56218,-1.75519 1.2543,-2.37843 2.05576,-1.85163 5.11808,-1.21335 6.73499,0.68125 2.31928,2.7169 1.38993,6.71009 -1.18175,8.78745 -3.58103,2.89284 -8.73613,1.71765 -11.37239,-1.65825 -3.57181,-4.57408 -1.95148,-11.11734 2.46234,-14.43561 2.19187,-1.64788 4.71792,-2.39915 7.23538,-2.40042 1.53034,-6.3e-4 3.05714,0.2768 4.50393,0.79703 2.4511,-2.74243 4.14057,-6.13919 4.77088,-9.74473 1.59947,-9.14882 -4.21425,-18.86954 -13.71847,-20.45384 -0.8022,-0.13372 -1.60946,-0.19806 -2.41216,-0.19692 z"
     fill="url(#lorc-fluffy-trefoil-gradient-1)"
     id="path35"
     style="fill:url(#lorc-fluffy-trefoil-gradient-1);stroke-width:0.12639" />
  <path
     d="m 384.4742,347.32221 c -6.53593,0.009 -12.77762,4.36087 -13.79266,10.99399 -0.85845,5.60986 2.76795,11.55932 8.60052,12.3858 4.26594,0.60465 8.74043,-2.10643 9.27077,-6.41813 0.37285,-3.03237 -1.63676,-6.24548 -4.77327,-6.57902 -0.66609,-0.071 -1.34039,0.0193 -1.95629,0.2414 -0.9454,0.23863 -1.72372,0.89485 -2.12943,1.76063 -0.19654,0.3678 -0.32305,0.77503 -0.35769,1.21436 -0.0499,0.63195 0.14081,1.28287 0.49925,1.78768 0.56117,0.95171 1.5958,1.59075 2.7806,1.59075 0.99052,0 1.8764,-0.44666 2.46816,-1.1494 -0.14991,0.84594 -0.64131,1.56395 -1.25417,2.03489 -0.73282,0.56294 -1.63854,0.84392 -2.56865,0.79501 -2.76265,-0.14434 -4.47587,-2.7619 -4.2796,-5.24523 0.28123,-3.56107 3.76064,-5.72842 7.04756,-5.37894 4.57725,0.48685 7.39059,4.96463 6.8677,9.21617 -0.7088,5.76115 -6.48006,9.24296 -11.94646,8.46818 -4.48119,-0.63498 -7.87795,-3.64309 -9.56805,-7.46464 -3.22321,-1.57508 -6.84849,-2.28464 -10.405,-1.96765 -9.24802,0.82406 -17.13203,8.95834 -16.20332,18.55165 0.71689,7.405 7.13136,13.68814 14.61774,12.86027 5.63868,-0.6231 10.44622,-5.66774 9.73564,-11.51749 -0.51971,-4.27872 -4.29514,-7.89906 -8.59534,-7.2949 -3.02453,0.42492 -5.60796,3.19895 -5.11857,6.31612 0.27742,1.76721 1.6767,3.29691 3.34026,3.49054 0.18996,0.0349 0.38548,0.0538 0.58556,0.0538 1.78174,0 3.22588,-1.44439 3.22588,-3.22612 0,-1.36276 -0.84518,-2.52706 -2.03995,-2.99977 0.78614,-0.019 1.53148,0.26062 2.09897,0.69579 0.73307,0.56218 1.23863,1.36464 1.43226,2.27553 0.57483,2.70603 -1.50885,5.03883 -3.95793,5.49245 -3.5124,0.65066 -6.50534,-2.15042 -7.01811,-5.41635 -0.71385,-4.5478 2.88172,-8.42497 7.12314,-9.02091 5.747,-0.80763 10.60242,3.86693 11.26825,9.34863 0.23004,1.89372 0.003,3.71021 -0.58012,5.37503 0.30118,3.45022 1.48825,6.80616 3.46904,9.62669 5.33623,7.59824 16.31997,10.35836 24.16241,4.75583 6.05373,-4.32459 8.28769,-13.02369 3.829,-19.09437 -3.35821,-4.57244 -10.12833,-6.21338 -14.83828,-2.67228 -3.44517,2.59038 -4.69328,7.67192 -2.02075,11.09459 1.87981,2.40698 5.57258,3.25734 8.02709,1.27439 1.64106,-1.32584 2.2169,-3.83848 0.86957,-5.41686 -0.2725,-0.31914 -0.62614,-0.56812 -1.01074,-0.73117 -0.19996,-0.10237 -0.41331,-0.18579 -0.63892,-0.24645 -1.72105,-0.46108 -3.49002,0.56028 -3.95098,2.28135 -0.0991,0.36906 -0.12941,0.74065 -0.0999,1.10086 -0.44642,-0.68732 -0.58898,-1.50506 -0.49255,-2.24065 0.12033,-0.91608 0.56218,-1.75519 1.2543,-2.37843 2.05576,-1.85163 5.11808,-1.21335 6.73499,0.68125 2.31928,2.7169 1.38993,6.71009 -1.18175,8.78745 -3.58103,2.89284 -8.73613,1.71765 -11.37239,-1.65825 -3.57181,-4.57408 -1.95148,-11.11734 2.46234,-14.43561 2.19187,-1.64788 4.71792,-2.39915 7.23538,-2.40042 1.53034,-6.3e-4 3.05714,0.2768 4.50393,0.79703 2.4511,-2.74243 4.14057,-6.13919 4.77088,-9.74473 1.59947,-9.14882 -4.21425,-18.86954 -13.71847,-20.45384 -0.8022,-0.13372 -1.60946,-0.19806 -2.41216,-0.19692 z"
     fill="url(#lorc-fluffy-trefoil-gradient-1)"
     id="path35-5"
     style="fill:url(#lorc-fluffy-trefoil-gradient-1-3);stroke-width:0.12639" />
  <path
     d="m 462.63107,222.20812 c -6.53593,0.009 -12.77762,4.36087 -13.79266,10.99399 -0.85845,5.60986 2.76795,11.55932 8.60052,12.3858 4.26594,0.60465 8.74043,-2.10643 9.27077,-6.41813 0.37285,-3.03237 -1.63676,-6.24548 -4.77327,-6.57902 -0.66609,-0.071 -1.34039,0.0193 -1.95629,0.2414 -0.9454,0.23863 -1.72372,0.89485 -2.12943,1.76063 -0.19654,0.3678 -0.32305,0.77503 -0.35769,1.21436 -0.0499,0.63195 0.14081,1.28287 0.49925,1.78768 0.56117,0.95171 1.5958,1.59075 2.7806,1.59075 0.99052,0 1.8764,-0.44666 2.46816,-1.1494 -0.14991,0.84594 -0.64131,1.56395 -1.25417,2.03489 -0.73282,0.56294 -1.63854,0.84392 -2.56865,0.79501 -2.76265,-0.14434 -4.47587,-2.7619 -4.2796,-5.24523 0.28123,-3.56107 3.76064,-5.72842 7.04756,-5.37894 4.57725,0.48685 7.39059,4.96463 6.8677,9.21617 -0.7088,5.76115 -6.48006,9.24296 -11.94646,8.46818 -4.48119,-0.63498 -7.87795,-3.64309 -9.56805,-7.46464 -3.22321,-1.57508 -6.84849,-2.28464 -10.405,-1.96765 -9.24802,0.82406 -17.13203,8.95834 -16.20332,18.55165 0.71689,7.405 7.13136,13.68814 14.61774,12.86027 5.63868,-0.6231 10.44622,-5.66774 9.73564,-11.51749 -0.51971,-4.27872 -4.29514,-7.89906 -8.59534,-7.2949 -3.02453,0.42492 -5.60796,3.19895 -5.11857,6.31612 0.27742,1.76721 1.6767,3.29691 3.34026,3.49054 0.18996,0.0349 0.38548,0.0538 0.58556,0.0538 1.78174,0 3.22588,-1.44439 3.22588,-3.22612 0,-1.36276 -0.84518,-2.52706 -2.03995,-2.99977 0.78614,-0.019 1.53148,0.26062 2.09897,0.69579 0.73307,0.56218 1.23863,1.36464 1.43226,2.27553 0.57483,2.70603 -1.50885,5.03883 -3.95793,5.49245 -3.5124,0.65066 -6.50534,-2.15042 -7.01811,-5.41635 -0.71385,-4.5478 2.88172,-8.42497 7.12314,-9.02091 5.747,-0.80763 10.60242,3.86693 11.26825,9.34863 0.23004,1.89372 0.003,3.71021 -0.58012,5.37503 0.30118,3.45022 1.48825,6.80616 3.46904,9.62669 5.33623,7.59824 16.31997,10.35836 24.16241,4.75583 6.05373,-4.32459 8.28769,-13.02369 3.829,-19.09437 -3.35821,-4.57244 -10.12833,-6.21338 -14.83828,-2.67228 -3.44517,2.59038 -4.69328,7.67192 -2.02075,11.09459 1.87981,2.40698 5.57258,3.25734 8.02709,1.27439 1.64106,-1.32584 2.2169,-3.83848 0.86957,-5.41686 -0.2725,-0.31914 -0.62614,-0.56812 -1.01074,-0.73117 -0.19996,-0.10237 -0.41331,-0.18579 -0.63892,-0.24645 -1.72105,-0.46108 -3.49002,0.56028 -3.95098,2.28135 -0.0991,0.36906 -0.12941,0.74065 -0.0999,1.10086 -0.44642,-0.68732 -0.58898,-1.50506 -0.49255,-2.24065 0.12033,-0.91608 0.56218,-1.75519 1.2543,-2.37843 2.05576,-1.85163 5.11808,-1.21335 6.73499,0.68125 2.31928,2.7169 1.38993,6.71009 -1.18175,8.78745 -3.58103,2.89284 -8.73613,1.71765 -11.37239,-1.65825 -3.57181,-4.57408 -1.95148,-11.11734 2.46234,-14.43561 2.19187,-1.64788 4.71792,-2.39915 7.23538,-2.40042 1.53034,-6.3e-4 3.05714,0.2768 4.50393,0.79703 2.4511,-2.74243 4.14057,-6.13919 4.77088,-9.74473 1.59947,-9.14882 -4.21425,-18.86954 -13.71847,-20.45384 -0.8022,-0.13372 -1.60946,-0.19806 -2.41216,-0.19692 z"
     fill="url(#lorc-fluffy-trefoil-gradient-1)"
     id="path35-5-7"
     style="fill:url(#lorc-fluffy-trefoil-gradient-1-3-9);stroke-width:0.12639" />
  <path
     d="m 305.63594,377.80248 c 4.15811,4.9971 6.65819,11.42391 6.65819,18.44117 0,2.70735 -0.37279,5.32661 -1.06873,7.81031 -3.66056,-0.67068 -7.44932,-0.69112 -11.18198,-0.0114 -0.69391,-2.48014 -1.0658,-5.09572 -1.0658,-7.799 0,-7.01727 2.5002,-13.44407 6.65819,-18.44118 z m -0.0739,28.01106 c 1.66654,-0.003 3.32509,0.13962 4.95737,0.42051 -1.1445,3.10374 -2.80724,5.95514 -4.8835,8.45052 -2.07716,-2.49639 -3.74053,-5.3492 -4.8849,-8.45458 1.59927,-0.27543 3.2087,-0.41328 4.81103,-0.41632 z m -7.05941,0.89775 c 1.27726,3.57083 3.1884,6.84084 5.59848,9.67486 -5.23598,5.36646 -12.54873,8.69701 -20.64843,8.69701 -1.66325,0 -3.29286,-0.14215 -4.87868,-0.41162 2.24939,-6.09819 6.5649,-11.47544 12.64126,-14.98369 2.34129,-1.35177 4.7925,-2.33723 7.28762,-2.97643 z m 14.26528,0.003 c 7.26122,1.85313 13.79756,6.5192 17.84526,13.52949 0.83111,1.4396 1.52223,2.92096 2.08159,4.42809 -1.58506,0.26934 -3.21353,0.41124 -4.87576,0.41124 -8.09944,0 -15.41219,-3.33081 -20.64817,-8.69701 2.40907,-2.83326 4.3202,-6.10213 5.59747,-9.67181 z m 22.87472,19.65941 -0.69048,-2.17831 c -0.62168,-1.73598 -1.40609,-3.44073 -2.36045,-5.09382 -4.33785,-7.51279 -11.34597,-12.53185 -19.13673,-14.55468 0.7311,-2.64427 1.12381,-5.42827 1.12381,-8.30354 0,-7.67907 -2.78985,-14.71182 -7.40808,-20.14263 l -1.53479,-1.67784 -1.5348,1.67772 c -4.61835,5.43081 -7.40807,12.46356 -7.40807,20.14275 0,2.87057 0.39156,5.65039 1.12076,8.29084 -2.6515,0.68845 -5.25476,1.73941 -7.741,3.17482 -6.65147,3.84004 -11.34763,9.77335 -13.74159,16.48904 l -0.68858,2.17933 2.22096,0.48778 c 1.81378,0.3295 3.68138,0.50263 5.58934,0.50263 8.68014,0 16.53474,-3.56347 22.18298,-9.3041 5.64823,5.74063 13.50283,9.30397 22.18297,9.30397 1.90897,0 3.77733,-0.17313 5.59188,-0.50301"
     fill="url(#delapouite-triquetra-gradient-1)"
     id="path60"
     style="fill:url(#delapouite-triquetra-gradient-1);stroke-width:0.126927" />
  <path
     d="m 429.20227,285.73892 c 4.15811,4.9971 6.65819,11.42391 6.65819,18.44117 0,2.70735 -0.37279,5.32661 -1.06873,7.81031 -3.66056,-0.67068 -7.44932,-0.69112 -11.18198,-0.0114 -0.69391,-2.48014 -1.0658,-5.09572 -1.0658,-7.799 0,-7.01727 2.5002,-13.44407 6.65819,-18.44118 z m -0.0739,28.01106 c 1.66654,-0.003 3.32509,0.13962 4.95737,0.42051 -1.1445,3.10374 -2.80724,5.95514 -4.8835,8.45052 -2.07716,-2.49639 -3.74053,-5.3492 -4.8849,-8.45458 1.59927,-0.27543 3.2087,-0.41328 4.81103,-0.41632 z m -7.05941,0.89775 c 1.27726,3.57083 3.1884,6.84084 5.59848,9.67486 -5.23598,5.36646 -12.54873,8.69701 -20.64843,8.69701 -1.66325,0 -3.29286,-0.14215 -4.87868,-0.41162 2.24939,-6.09819 6.5649,-11.47544 12.64126,-14.98369 2.34129,-1.35177 4.7925,-2.33723 7.28762,-2.97643 z m 14.26528,0.003 c 7.26122,1.85313 13.79756,6.5192 17.84526,13.52949 0.83111,1.4396 1.52223,2.92096 2.08159,4.42809 -1.58506,0.26934 -3.21353,0.41124 -4.87576,0.41124 -8.09944,0 -15.41219,-3.33081 -20.64817,-8.69701 2.40907,-2.83326 4.3202,-6.10213 5.59747,-9.67181 z m 22.87472,19.65941 -0.69048,-2.17831 c -0.62168,-1.73598 -1.40609,-3.44073 -2.36045,-5.09382 -4.33785,-7.51279 -11.34597,-12.53185 -19.13673,-14.55468 0.7311,-2.64427 1.12381,-5.42827 1.12381,-8.30354 0,-7.67907 -2.78985,-14.71182 -7.40808,-20.14263 l -1.53479,-1.67784 -1.5348,1.67772 c -4.61835,5.43081 -7.40807,12.46356 -7.40807,20.14275 0,2.87057 0.39156,5.65039 1.12076,8.29084 -2.6515,0.68845 -5.25476,1.73941 -7.741,3.17482 -6.65147,3.84004 -11.34763,9.77335 -13.74159,16.48904 l -0.68858,2.17933 2.22096,0.48778 c 1.81378,0.3295 3.68138,0.50263 5.58934,0.50263 8.68014,0 16.53474,-3.56347 22.18298,-9.3041 5.64823,5.74063 13.50283,9.30397 22.18297,9.30397 1.90897,0 3.77733,-0.17313 5.59188,-0.50301"
     fill="url(#delapouite-triquetra-gradient-1)"
     id="path60-2"
     style="fill:url(#delapouite-triquetra-gradient-1-3);stroke-width:0.126927" />
  <path
     d="m 444.51582,156.67861 c 4.15811,4.9971 6.65819,11.42391 6.65819,18.44117 0,2.70735 -0.37279,5.32661 -1.06873,7.81031 -3.66056,-0.67068 -7.44932,-0.69112 -11.18198,-0.0114 -0.69391,-2.48014 -1.0658,-5.09572 -1.0658,-7.799 0,-7.01727 2.5002,-13.44407 6.65819,-18.44118 z m -0.0739,28.01106 c 1.66654,-0.003 3.32509,0.13962 4.95737,0.42051 -1.1445,3.10374 -2.80724,5.95514 -4.8835,8.45052 -2.07716,-2.49639 -3.74053,-5.3492 -4.8849,-8.45458 1.59927,-0.27543 3.2087,-0.41328 4.81103,-0.41632 z m -7.05941,0.89775 c 1.27726,3.57083 3.1884,6.84084 5.59848,9.67486 -5.23598,5.36646 -12.54873,8.69701 -20.64843,8.69701 -1.66325,0 -3.29286,-0.14215 -4.87868,-0.41162 2.24939,-6.09819 6.5649,-11.47544 12.64126,-14.98369 2.34129,-1.35177 4.7925,-2.33723 7.28762,-2.97643 z m 14.26528,0.003 c 7.26122,1.85313 13.79756,6.5192 17.84526,13.52949 0.83111,1.4396 1.52223,2.92096 2.08159,4.42809 -1.58506,0.26934 -3.21353,0.41124 -4.87576,0.41124 -8.09944,0 -15.41219,-3.33081 -20.64817,-8.69701 2.40907,-2.83326 4.3202,-6.10213 5.59747,-9.67181 z m 22.87472,19.65941 -0.69048,-2.17831 c -0.62168,-1.73598 -1.40609,-3.44073 -2.36045,-5.09382 -4.33785,-7.51279 -11.34597,-12.53185 -19.13673,-14.55468 0.7311,-2.64427 1.12381,-5.42827 1.12381,-8.30354 0,-7.67907 -2.78985,-14.71182 -7.40808,-20.14263 l -1.53479,-1.67784 -1.5348,1.67772 c -4.61835,5.43081 -7.40807,12.46356 -7.40807,20.14275 0,2.87057 0.39156,5.65039 1.12076,8.29084 -2.6515,0.68845 -5.25476,1.73941 -7.741,3.17482 -6.65147,3.84004 -11.34763,9.77335 -13.74159,16.48904 l -0.68858,2.17933 2.22096,0.48778 c 1.81378,0.3295 3.68138,0.50263 5.58934,0.50263 8.68014,0 16.53474,-3.56347 22.18298,-9.3041 5.64823,5.74063 13.50283,9.30397 22.18297,9.30397 1.90897,0 3.77733,-0.17313 5.59188,-0.50301"
     fill="url(#delapouite-triquetra-gradient-1)"
     id="path60-2-6"
     style="fill:url(#delapouite-triquetra-gradient-1-3-0);stroke-width:0.126927" />
</svg>
