<?xml version="1.0" encoding="UTF-8" standalone="no"?>
<svg
   xmlns:dc="http://purl.org/dc/elements/1.1/"
   xmlns:cc="http://creativecommons.org/ns#"
   xmlns:rdf="http://www.w3.org/1999/02/22-rdf-syntax-ns#"
   xmlns:svg="http://www.w3.org/2000/svg"
   xmlns="http://www.w3.org/2000/svg"
   xmlns:sodipodi="http://sodipodi.sourceforge.net/DTD/sodipodi-0.dtd"
   xmlns:inkscape="http://www.inkscape.org/namespaces/inkscape"
   viewBox="0 0 512 512"
   style="height: 64px; width: 64px;"
   version="1.1"
   id="svg26"
   sodipodi:docname="flacon-de-sang-feu.svg"
   inkscape:version="0.92.3 (2405546, 2018-03-11)"
   inkscape:export-filename="/home/plic/Documents/dev/cofbazar.github.io/images/resources/flacon-de-sang-feu.png"
   inkscape:export-xdpi="24"
   inkscape:export-ydpi="24">
  <metadata
     id="metadata32">
    <rdf:RDF>
      <cc:Work
         rdf:about="">
        <dc:format>image/svg+xml</dc:format>
        <dc:type
           rdf:resource="http://purl.org/dc/dcmitype/StillImage" />
        <dc:title></dc:title>
      </cc:Work>
    </rdf:RDF>
  </metadata>
  <defs
     id="defs30" />
  <sodipodi:namedview
     pagecolor="#ffffff"
     bordercolor="#666666"
     borderopacity="1"
     objecttolerance="10"
     gridtolerance="10"
     guidetolerance="10"
     inkscape:pageopacity="0"
     inkscape:pageshadow="2"
     inkscape:window-width="1120"
     inkscape:window-height="994"
     id="namedview28"
     showgrid="false"
     inkscape:zoom="0.33905218"
     inkscape:cx="299.0588"
     inkscape:cy="874.38878"
     inkscape:window-x="2528"
     inkscape:window-y="53"
     inkscape:window-maximized="0"
     inkscape:current-layer="svg26" />
  <rect
     style="opacity:0.527;fill:#71020c;fill-opacity:1;stroke:none;stroke-width:0;stroke-miterlimit:4;stroke-dasharray:none;stroke-opacity:1"
     id="rect839"
     width="285.28812"
     height="327.5932"
     x="118.23729"
     y="137.42374" />
  <g
     class=""
     transform="translate(0,0)"
     style="touch-action: none;"
     id="g24">
    <g
       id="g22">
      <path
         d="M181.78 33L181.78 84.53L331.187 84.53L331.187 33L181.78 33Z"
         class=""
         fill="#8b572a"
         stroke="#4a4a4a"
         stroke-opacity="1"
         stroke-width="10"
         fill-opacity="1"
         id="path2" />
      <path
         d="M195.97 103.22C195.31 106.12 194.416 108.483 193.22 110.156C190.536 113.906 186.187 116.75 173.72 116.75C152.18 116.75 132.916 122.612 118.563 132.844C104.21 143.076 94.656 158.242 94.656 175.344L94.656 426.75C94.656 459.09 120.911 485.375 153.25 485.375L366.72 485.375C399.058 485.375 425.312 459.089 425.312 426.75L425.312 175.344C425.312 158.242 415.785 143.144 401.719 132.906C387.652 122.669 368.889 116.75 348.279 116.75C331.589 116.75 324.659 113.262 321.405 109.562C319.995 107.958 318.975 105.864 318.249 103.219L299.124 103.219C300.197 109.877 302.494 116.356 307.374 121.905C315.484 131.128 328.897 135.435 348.28 135.435C365.258 135.435 380.336 140.443 390.72 147.999C401.1 155.555 406.625 165.099 406.625 175.343L406.625 426.75C406.625 449.105 389.075 466.688 366.719 466.688L153.25 466.688C130.895 466.688 113.344 449.105 113.344 426.75L113.344 175.344C113.344 165.099 118.799 155.624 129.406 148.064C140.013 140.501 155.626 135.438 173.719 135.438C189.681 135.438 201.775 130.296 208.405 121.031C212.309 115.576 214.138 109.486 215.03 103.221L195.97 103.221Z"
         class=""
         fill="#4a4a4a"
         stroke="#4a4a4a"
         stroke-opacity="1"
         stroke-width="10"
         fill-opacity="1"
         id="path4" />
      <path
         d="M262.063 148.625C231.518 148.625 212.001 161.49 198.781 180.938C186.486 199.028 180.394 223.253 179.595 247C204.628 259.795 219.15 274.632 223.439 291.97C224.173 294.937 224.612 297.912 224.751 300.875C233.761 306.009 247.971 309.315 262.564 309.313C275.499 309.311 288.644 306.775 298.657 302.438C298.809 299.113 299.274 295.776 300.127 292.438C304.613 274.855 319.155 259.238 344.532 246.875C343.694 224.415 337.739 200.28 325.532 181.937C312.332 162.097 292.787 148.625 262.065 148.625Z"
         class=""
         fill="#417505"
         stroke="#4a4a4a"
         stroke-opacity="1"
         stroke-width="10"
         fill-opacity="1"
         id="path6" />
      <path
         d="M232.188 223.5C241.345 223.5 248.781 230.905 248.781 240.063C248.781 249.22 241.346 256.656 232.188 256.656C223.031 256.656 215.626 249.22 215.626 240.062C215.626 230.905 223.031 223.5 232.189 223.5Z"
         class=""
         fill="#b8e986"
         stroke="#4a4a4a"
         stroke-opacity="1"
         stroke-width="10"
         fill-opacity="1"
         id="path8" />
      <path
         d="M287.625 223.5C296.783 223.5 304.219 230.905 304.219 240.063C304.219 249.22 296.781 256.656 287.624 256.656C278.466 256.656 271.061 249.22 271.061 240.062C271.061 230.905 278.466 223.5 287.624 223.5Z"
         class=""
         fill="#b8e986"
         stroke="#4a4a4a"
         stroke-opacity="1"
         stroke-width="10"
         fill-opacity="1"
         id="path10" />
      <path
         d="M258.781 257.094C265.056 270.342 270.031 283.597 272.501 296.844C263.353 293.822 254.211 293.418 245.063 296.844C248.403 283.594 252.415 270.34 258.783 257.094Z"
         class=""
         fill="#b8e986"
         fill-opacity="1"
         stroke="#4a4a4a"
         stroke-opacity="1"
         stroke-width="10"
         id="path12" />
      <path
         d="M221.751 320.564C219.615 326.984 216.466 333.342 212.563 339.594C224.493 347.584 244.143 352.404 263.438 352.188C282.408 351.974 300.316 346.618 309.658 339.781C306.108 334.017 303.246 327.981 301.314 321.781C289.367 326.197 275.89 328.156 262.564 328.157C248.117 328.159 233.794 325.935 221.751 320.563Z"
         class=""
         fill="#417505"
         fill-opacity="1"
         stroke="#4a4a4a"
         stroke-opacity="1"
         stroke-width="10"
         id="path14" />
      <path
         d="M151.095 337.624C142.195 348.892 138.401 360.117 141.065 373.937C209.99 379.477 305.259 405.857 367.751 434.687C376.911 423.521 380.269 412.017 377.721 397.907C309.951 391.04 213.586 369.171 151.095 337.625Z"
         class=""
         fill="#417505"
         fill-opacity="1"
         stroke="#4a4a4a"
         stroke-opacity="1"
         stroke-width="10"
         id="path16" />
      <path
         d="M367.689 337.624C346.899 348.12 322.363 357.531 296.376 365.687C316.674 370.121 336.629 373.727 355.096 376.375C362.878 375.349 370.453 374.522 377.72 373.937C380.38 360.117 376.587 348.892 367.687 337.625Z"
         class=""
         fill="#417505"
         fill-opacity="1"
         stroke="#4a4a4a"
         stroke-opacity="1"
         stroke-width="10"
         id="path18" />
      <path
         d="M163.939 395.156C156.035 396.24 148.379 397.166 141.064 397.906C138.514 412.016 141.874 423.521 151.032 434.686C172.407 424.826 197.607 415.239 224.282 406.688C203.412 401.776 182.897 397.82 163.939 395.156Z"
         class="selected"
         fill="#417505"
         fill-opacity="1"
         stroke="#4a4a4a"
         stroke-opacity="1"
         stroke-width="10"
         id="path20" />
    </g>
  </g>
</svg>
