<?xml version="1.0" encoding="UTF-8" standalone="no"?>
<svg
   xmlns:dc="http://purl.org/dc/elements/1.1/"
   xmlns:cc="http://creativecommons.org/ns#"
   xmlns:rdf="http://www.w3.org/1999/02/22-rdf-syntax-ns#"
   xmlns:svg="http://www.w3.org/2000/svg"
   xmlns="http://www.w3.org/2000/svg"
   xmlns:sodipodi="http://sodipodi.sourceforge.net/DTD/sodipodi-0.dtd"
   xmlns:inkscape="http://www.inkscape.org/namespaces/inkscape"
   viewBox="0 0 512 512"
   style="height: 64px; width: 64px;"
   version="1.1"
   id="svg12"
   sodipodi:docname="flavor-moyen.svg"
   inkscape:export-filename="/home/plic/Téléchargements/flavor-moyen.png"
   inkscape:export-xdpi="24"
   inkscape:export-ydpi="24"
   inkscape:version="0.92.3 (2405546, 2018-03-11)">
  <metadata
     id="metadata18">
    <rdf:RDF>
      <cc:Work
         rdf:about="">
        <dc:format>image/svg+xml</dc:format>
        <dc:type
           rdf:resource="http://purl.org/dc/dcmitype/StillImage" />
        <dc:title></dc:title>
      </cc:Work>
    </rdf:RDF>
  </metadata>
  <defs
     id="defs16" />
  <sodipodi:namedview
     pagecolor="#ffffff"
     bordercolor="#666666"
     borderopacity="1"
     objecttolerance="10"
     gridtolerance="10"
     guidetolerance="10"
     inkscape:pageopacity="0"
     inkscape:pageshadow="2"
     inkscape:window-width="1576"
     inkscape:window-height="736"
     id="namedview14"
     showgrid="false"
     inkscape:zoom="0.921875"
     inkscape:cx="343.12789"
     inkscape:cy="222.77035"
     inkscape:window-x="2230"
     inkscape:window-y="281"
     inkscape:window-maximized="0"
     inkscape:current-layer="svg12" />
  <g
     class=""
     transform="translate(0,0)"
     style="touch-action: none;"
     id="g10">
    <g
       id="g8">
      <path
         d="M108.875 32.688L108.875 89.188L415.03 89.188L415.03 32.688L108.876 32.688Z"
         class=""
         fill="#8b572a"
         fill-opacity="1"
         id="path2" />
      <path
         d="M128.563 107.875C127.781 113.208 126.557 116.645 125.281 118.938C123.166 122.74 120.711 124.353 116.313 127.5C111.917 130.647 105.76 135.408 101.657 143.72C97.554 152.03 95.377 163.187 95.377 180L95.377 431.406C95.375 463.746 121.66 490 154 490L367.47 490C399.808 490 426.062 463.745 426.062 431.406L426.062 180C426.062 162.332 424.058 150.775 420.25 142.187C416.442 133.6 410.473 128.527 406.156 125.375C401.839 122.222 399.616 120.831 397.719 117.469C396.623 115.529 395.547 112.529 394.811 107.874L375.97 107.874C376.886 115.742 378.687 121.784 381.437 126.654C385.569 133.974 391.403 137.749 395.125 140.468C398.847 143.186 400.935 144.738 403.155 149.748C405.378 154.758 407.375 163.808 407.375 179.998L407.375 431.404C407.375 453.759 389.825 471.31 367.469 471.31L154 471.31C131.645 471.31 114.062 453.76 114.062 431.404L114.062 180C114.062 164.845 116.16 156.58 118.438 151.97C120.715 147.356 123.078 145.66 127.188 142.72C131.298 139.777 137.33 135.692 141.594 128.03C144.492 122.824 146.421 116.325 147.374 107.875L128.564 107.875Z"
         class="selected"
         fill="#4a4a4a"
         fill-opacity="1"
         stroke="#4a4a4a"
         stroke-opacity="1"
         stroke-width="10"
         id="path4" />
      <path
         d="M313.375 110.155L139.875 294.25L247.28 294.25L188.062 453.53L383.562 244.594L266.562 244.594L313.375 110.156Z"
         class=""
         fill="#4a90e2"
         fill-opacity="0"
         id="path6" />
    </g>
  </g>
  <rect
     style="fill:#800000;fill-opacity:1;stroke:#000000;stroke-width:2.6459558;stroke-miterlimit:4;stroke-dasharray:none;stroke-opacity:1"
     id="rect828-3"
     width="237.35405"
     height="57.354042"
     x="142.32298"
     y="383.323" />
  <rect
     style="fill:#800000;fill-opacity:1;stroke:#000000;stroke-width:2.6459558;stroke-miterlimit:4;stroke-dasharray:none;stroke-opacity:1"
     id="rect828-3-7"
     width="237.35405"
     height="57.354042"
     x="142.32298"
     y="283.323" />
  <rect
     style="fill:#800000;fill-opacity:1;stroke:#000000;stroke-width:2.6459558;stroke-miterlimit:4;stroke-dasharray:none;stroke-opacity:1"
     id="rect828-3-7-5"
     width="237.35405"
     height="57.354042"
     x="142.32298"
     y="183.32298" />
</svg>
