<svg xmlns="http://www.w3.org/2000/svg" viewBox="0 0 512 512" style="height: 64px; width: 64px;"><defs><radialGradient id="gradient-1"><stop offset="0%" stop-color="#c9c9c9" stop-opacity="1"></stop><stop offset="100%" stop-color="#ffffff" stop-opacity="1"></stop></radialGradient><radialGradient id="gradient-2"><stop offset="0%" stop-color="#9b9b9b" stop-opacity="1"></stop><stop offset="100%" stop-color="#ffffff" stop-opacity="1"></stop></radialGradient><radialGradient id="gradient-3"><stop offset="0%" stop-color="#c9c9c9" stop-opacity="1"></stop><stop offset="100%" stop-color="#ffffff" stop-opacity="1"></stop></radialGradient><radialGradient id="gradient-4"><stop offset="0%" stop-color="#000000" stop-opacity="1"></stop><stop offset="100%" stop-color="#ffffff" stop-opacity="1"></stop></radialGradient><radialGradient id="gradient-6"><stop offset="0%" stop-color="#ffffff" stop-opacity="1"></stop><stop offset="100%" stop-color="#c9c9c9" stop-opacity="1"></stop></radialGradient><radialGradient id="gradient-8"><stop offset="0%" stop-color="#ffffff" stop-opacity="1"></stop><stop offset="100%" stop-color="#c9c9c9" stop-opacity="1"></stop></radialGradient><radialGradient id="gradient-11"><stop offset="0%" stop-color="#d0021b" stop-opacity="1"></stop><stop offset="100%" stop-color="#f5a623" stop-opacity="1"></stop></radialGradient><radialGradient id="gradient-12"><stop offset="0%" stop-color="#d0021b" stop-opacity="1"></stop><stop offset="100%" stop-color="#f5a623" stop-opacity="1"></stop></radialGradient></defs><g class="" transform="translate(0,0)" style="touch-action: none;"><g><path d="M188.8 20.38C183.5 47.23 193.4 76.12 222.9 106.9C234.1 99.61 254.5 95.96 272.9 98.74C226.9 76.43 206.4 51.61 188.8 20.38Z" class="" fill="url(#gradient-2)" stroke="#4a4a4a" stroke-opacity="1" stroke-width="10"></path><path d="M29.19 26.62C43.56 73.08 81.09 128.8 129.6 168.3C93.51 166 49.93 153.1 18.76 143C43.72 178.2 82.93 195.9 122.1 209.3C97.13 227 66.99 245 18.66 248C73.3 267.2 126.2 256.9 150 248.7C132.1 283.6 49.28 314.9 27.69 325.7C80.95 329.9 149.4 314.7 194.7 292.8C204.7 317.4 193.1 346 184.6 370.6C182.7 375.1 180.8 379.5 178.9 383.9C184 380.4 189 376.9 193.8 373.3C217.4 357.1 241.6 341.4 253.3 314.5C279.4 345.7 316 376.6 360.3 399.9C377.7 422 388.6 448.9 394.5 473.7C402.8 454.6 408.3 433.5 404.2 413.4C428.7 409.8 439.8 383.7 439.7 359C427.1 365.2 424.6 365.3 408.5 367.2C408.5 357.1 409.1 354.7 405.5 338.5C395.2 346.9 384.5 349.7 374.7 350.3C376.8 342.7 377.7 330.8 378.4 323C365.4 330.1 359.2 332.7 348.3 333.8C347.9 322.9 348.2 313.8 344.2 303.4C314.6 322.4 295.6 304.9 276.2 282.1C296 265.1 372.6 260.3 371.3 289.2C385.3 281.9 390.1 278 394.9 273.3C404 281.8 408.3 294.2 410 304.7C419.3 295.3 420.3 294.2 427.1 280.9C432.8 291 435.9 297.9 437.8 311.5C446.3 305.3 453.2 298.4 457.6 290.1C465.1 305.6 465.9 306.1 470 323.1C487.8 310 491.8 291.9 492.8 275.5C494.8 242.5 492.5 167.3 461.8 132.6C463.5 168.9 448.7 202.6 428 213.3C415.4 218.2 331.5 138.7 290.4 120C266.9 109.8 242.3 127.1 222.6 129.3C147 106.2 83.57 70.94 29.19 26.62Z" class="" fill="url(#gradient-3)" stroke="#4a4a4a" stroke-opacity="1" stroke-width="10"></path><path d="M296.1 152.8C309.4 173.7 328.3 189.7 356.2 207.8C336.8 210.7 290.4 201.1 278.5 183.8C273 175.9 285.6 162.5 296.1 152.8Z" class="" fill="url(#gradient-4)" stroke="#4a4a4a" stroke-opacity="1" stroke-width="10"></path><path d="M180.6 319.1C166.2 325.3 151.4 330 136.8 333.4C134.4 337 132.2 340.5 130.1 343.9C144.9 349.2 161.6 350.9 174.2 346.7C177.5 336.9 179.7 327.4 180.6 319.1Z" class="" fill="#c9c9c9" stroke="#4a4a4a" stroke-opacity="1" stroke-width="10" fill-opacity="1"></path><path d="M112.6 338.2L102.4 339.7C70.59 376.3 40.5 442.9 54.16 491.6L90.29 491.6C79.17 453.9 73.76 404.5 112.6 338.2Z" class="" fill="url(#gradient-6)" stroke="#4a4a4a" stroke-opacity="1" stroke-width="10"></path><path d="M121.1 359.7C115.2 371.1 110.7 381.8 107.3 391.8C120.2 398.5 136.4 400.7 152.1 400C156.7 389.5 161.9 378.2 166.7 366.7C151.3 368.5 135.3 365.3 121.1 359.7Z" class="" fill="#ffffff" stroke="#4a4a4a" stroke-opacity="1" stroke-width="10" fill-opacity="1"></path><path d="M232.5 366.3C220.5 376.8 207.3 386.6 193.6 395.9C200.6 429.9 227 459.3 267.5 491.6L350.8 491.6C293.6 459.8 256.2 418.3 232.5 366.3Z" class="" fill="url(#gradient-8)" stroke="#4a4a4a" stroke-opacity="1" stroke-width="10"></path><path d="M102.5 409.5C100 421.3 99.2 432.2 99.5 442.4C136.8 456.6 162 455.9 197 446.5C189.8 436.2 184 425.5 180.1 414.2C147.4 423.6 124.7 419.9 102.5 409.5Z" class="" fill="#ffffff" stroke="#4a4a4a" stroke-opacity="1" stroke-width="10" fill-opacity="1"></path><path d="M209.1 461.9C171 472.8 140.3 475.1 101.6 462.2C103.4 472.6 106.1 482.3 109.1 491.6L239.2 491.6C227.9 481.8 217.8 472 209.1 461.9Z" class="selected" fill="#c9c9c9" stroke="#4a4a4a" stroke-opacity="1" stroke-width="10" fill-opacity="1"></path></g></g></svg>