<svg xmlns="http://www.w3.org/2000/svg" viewBox="0 0 512 512" style="height: 64px; width: 64px;"><g class="" transform="translate(0,0)" style="touch-action: none;"><g><path d="M279.53 17.594C253.65 17.594 228.998 24.827 206.656 37.969L440.75 249.155C440.814 251.665 440.875 254.185 440.875 256.718C440.875 305.092 429.105 349.702 409.5 385.623L126.656 130.5C144.939 92.128 175.192 57.335 206.626 37.97L201.876 34.063L178.876 34.063C152.242 55.233 127.686 84.787 111.219 119.437L114.187 119.469L126.53 130.593C121.608 141.118 117.28 152.17 113.625 163.718L391.063 413.968C383.123 424.208 374.449 433.305 365.188 441.123L103.78 205.345C106.155 190.592 110.174 175.951 113.562 163.625L109 159.5L95.406 159.5C91.672 171.63 88.599 183.654 86.281 196.594L93.971 196.594L103.751 205.438C102.616 212.454 101.684 219.578 101.031 226.813L350.657 451.969C340.413 458.719 329.611 463.986 318.345 467.624L100.189 270.874C103.193 330.742 123.069 384.452 153.251 423.844C186.075 466.679 230.611 492.468 279.531 492.468C286.427 492.468 293.238 491.938 299.939 490.935C300.105 490.913 300.272 490.895 300.439 490.873C300.774 490.823 301.104 490.771 301.439 490.717C343.349 484.523 380.665 459.142 408.251 422.184C440.155 379.442 459.563 321.039 459.564 256.716C459.564 239.572 458.166 222.862 455.532 206.746C455.4 205.93 455.267 205.121 455.127 204.308C447.554 158.552 430.002 117.781 405.814 86.215C372.991 43.377 328.454 17.589 279.534 17.589Z" class="" fill="#c9c9c9" fill-opacity="1"></path><path d="M203.438 18.406C185.594 20.318 168.455 25.68 152.406 34.031L179.126 34.031C186.896 28.153 195.016 22.916 203.436 18.407Z" class="" fill="#a9a9a9" fill-opacity="1"></path><path d="M70.718 119.406C64.053 132.016 58.278 145.52 53.531 159.781L95.251 159.781C99.625 145.667 104.949 132.168 111.126 119.407L70.72 119.407Z" class="" fill="#a9a9a9" fill-opacity="1"></path><path d="M43.938 196.436C42.053 206.204 40.652 216.223 39.718 226.436L82.312 226.436C83.186 216.248 84.512 206.236 86.282 196.436L43.937 196.436Z" class="selected" fill="#a9a9a9" fill-opacity="1"></path><path d="M82.438 226.626C81.35 238.486 81.356 248.353 81.094 258.969L38.438 258.969C39.238 323.607 59.704 381.859 91.875 423.843C121.372 462.338 160.34 487.038 203.438 491.655C178.768 478.449 156.692 459.082 138.406 435.218C103.47 389.623 81.933 327.53 81.126 259.028L86.75 259.028L100.063 270.718C98.405 257.255 99.947 240.104 101.156 227.218L100.5 226.623L82.437 226.623Z" class="" fill="#a9a9a9" fill-opacity="1"></path></g></g><g font-family="Arial, Helvetica, sans-serif" font-size="107" font-style="normal" font-weight="bold" text-anchor="middle" class="" transform="translate(250,298)" style="touch-action: none;"><text stroke="rgba(155, 155, 155, 1)" stroke-width="26.75"><tspan x="0" y="0">Mythral</tspan></text><text fill="rgba(255, 255, 255, 1)"><tspan x="0" y="0">Mythral</tspan></text></g></svg>