<svg xmlns="http://www.w3.org/2000/svg" viewBox="0 0 512 512" style="height: 64px; width: 64px;"><defs><radialGradient id="lorc-hot-spices-gradient-2"><stop offset="0%" stop-color="#f5a623" stop-opacity="1"></stop><stop offset="100%" stop-color="#d0021b" stop-opacity="1"></stop></radialGradient><radialGradient id="lorc-hot-spices-gradient-3"><stop offset="0%" stop-color="#4a4a4a" stop-opacity="1"></stop><stop offset="100%" stop-color="#9b9b9b" stop-opacity="1"></stop></radialGradient><radialGradient id="lorc-hot-spices-gradient-4"><stop offset="0%" stop-color="#4a4a4a" stop-opacity="1"></stop><stop offset="100%" stop-color="#000000" stop-opacity="1"></stop></radialGradient><radialGradient id="lorc-hot-spices-gradient-5"><stop offset="0%" stop-color="#4a4a4a" stop-opacity="1"></stop><stop offset="100%" stop-color="#39600d" stop-opacity="1"></stop></radialGradient><radialGradient id="lorc-hot-spices-gradient-6"><stop offset="0%" stop-color="#000000" stop-opacity="1"></stop><stop offset="100%" stop-color="#39600d" stop-opacity="1"></stop></radialGradient><radialGradient id="lorc-hot-spices-gradient-7"><stop offset="0%" stop-color="#000000" stop-opacity="1"></stop><stop offset="100%" stop-color="#417505" stop-opacity="1"></stop></radialGradient><radialGradient id="lorc-hot-spices-gradient-8"><stop offset="0%" stop-color="#000000" stop-opacity="1"></stop><stop offset="100%" stop-color="#417505" stop-opacity="1"></stop></radialGradient><radialGradient id="lorc-hot-spices-gradient-9"><stop offset="0%" stop-color="#000000" stop-opacity="1"></stop><stop offset="100%" stop-color="#417505" stop-opacity="1"></stop></radialGradient><radialGradient id="lorc-hot-spices-gradient-10"><stop offset="0%" stop-color="#4a4a4a" stop-opacity="1"></stop><stop offset="100%" stop-color="#9b9b9b" stop-opacity="1"></stop></radialGradient><radialGradient id="lorc-hot-spices-gradient-11"><stop offset="0%" stop-color="#000000" stop-opacity="1"></stop><stop offset="100%" stop-color="#4a4a4a" stop-opacity="1"></stop></radialGradient><radialGradient id="lorc-hot-spices-gradient-12"><stop offset="0%" stop-color="#000000" stop-opacity="1"></stop><stop offset="100%" stop-color="#4a4a4a" stop-opacity="1"></stop></radialGradient><radialGradient id="lorc-hot-spices-gradient-14"><stop offset="0%" stop-color="#000000" stop-opacity="1"></stop><stop offset="100%" stop-color="#4a4a4a" stop-opacity="1"></stop></radialGradient><radialGradient id="lorc-hot-spices-gradient-15"><stop offset="0%" stop-color="#000000" stop-opacity="1"></stop><stop offset="100%" stop-color="#4a4a4a" stop-opacity="1"></stop></radialGradient><radialGradient id="lorc-hot-spices-gradient-16"><stop offset="0%" stop-color="#000000" stop-opacity="1"></stop><stop offset="100%" stop-color="#4a4a4a" stop-opacity="1"></stop></radialGradient><radialGradient id="lorc-hot-spices-gradient-17"><stop offset="0%" stop-color="#000000" stop-opacity="1"></stop><stop offset="100%" stop-color="#4a4a4a" stop-opacity="1"></stop></radialGradient><radialGradient id="lorc-hot-spices-gradient-18"><stop offset="0%" stop-color="#000000" stop-opacity="1"></stop><stop offset="100%" stop-color="#000000" stop-opacity="1"></stop></radialGradient><radialGradient id="lorc-hot-spices-gradient-19"><stop offset="0%" stop-color="#000000" stop-opacity="1"></stop><stop offset="100%" stop-color="#000000" stop-opacity="1"></stop></radialGradient><radialGradient id="lorc-hot-spices-gradient-21"><stop offset="0%" stop-color="#ffffff" stop-opacity="1"></stop><stop offset="100%" stop-color="#c9c9c9" stop-opacity="1"></stop></radialGradient><radialGradient id="lorc-hot-spices-gradient-22"><stop offset="0%" stop-color="#fff" stop-opacity="1"></stop><stop offset="100%" stop-color="#c9c9c9" stop-opacity="1"></stop></radialGradient><radialGradient id="lorc-hot-spices-gradient-23"><stop offset="0%" stop-color="#fff" stop-opacity="1"></stop><stop offset="100%" stop-color="#c9c9c9" stop-opacity="1"></stop></radialGradient><radialGradient id="lorc-hot-spices-gradient-24"><stop offset="0%" stop-color="#fff" stop-opacity="1"></stop><stop offset="100%" stop-color="#c9c9c9" stop-opacity="1"></stop></radialGradient><radialGradient id="lorc-hot-spices-gradient-25"><stop offset="0%" stop-color="#fff" stop-opacity="1"></stop><stop offset="100%" stop-color="#9b9b9b" stop-opacity="1"></stop></radialGradient><radialGradient id="lorc-hot-spices-gradient-26"><stop offset="0%" stop-color="#fff" stop-opacity="1"></stop><stop offset="100%" stop-color="#c9c9c9" stop-opacity="1"></stop></radialGradient><radialGradient id="lorc-hot-spices-gradient-27"><stop offset="0%" stop-color="#fff" stop-opacity="1"></stop><stop offset="100%" stop-color="#c9c9c9" stop-opacity="1"></stop></radialGradient><radialGradient id="lorc-hot-spices-gradient-28"><stop offset="0%" stop-color="#fff" stop-opacity="1"></stop><stop offset="100%" stop-color="#c9c9c9" stop-opacity="1"></stop></radialGradient><radialGradient id="lorc-hot-spices-gradient-29"><stop offset="0%" stop-color="#fff" stop-opacity="1"></stop><stop offset="100%" stop-color="#c9c9c9" stop-opacity="1"></stop></radialGradient></defs><g class="" transform="translate(0,0)" style=""><g transform="translate(512, 0) scale(-1, 1) rotate(0, 256, 256) skewX(0) skewY(0)"><path d="M207.375 13.78L207.375 13.844C290.76 82.332 156.643 119.814 170.155 189.064C149.605 175.302 142.089 142.404 161.375 114.094C110.29 136.029 87.955 166.084 89.219 211.656C90.164 245.786 103.857 273.236 125.062 293.844C115.275 266.396 113.046 238.104 119.874 214.031C155.616 263.363 257.659 194.037 266.968 134.751C266.924 198.425 330.964 253.101 379.685 187.126C388.617 224.096 386.323 262.433 376.467 292.814C395.874 272.477 408.173 245.484 408.841 211.657C409.771 164.53 387.793 120.857 346.121 98.907C364.271 137.785 345.623 164.505 302.466 182.657C342.746 115.163 318.852 28.203 207.371 13.782Z" class="" fill="url(#lorc-hot-spices-gradient-2)" stroke="#4a4a4a" stroke-opacity="1" stroke-width="4"></path><path d="M250.313 240.094C244.343 240.008 237.749 242.389 229.656 248.469C191.418 277.194 141.116 325.479 130.5 357.187C111.833 352.817 87.344 359.51 87.344 377.717C87.344 379.727 87.664 381.607 88.219 383.343C78.309 382.943 67.999 387.243 67.999 396.373C67.999 413.371 103.739 414.059 106.062 398.03C116.418 401.008 129.009 400.37 138.28 396C137.53 397.842 137.125 399.867 137.125 402.094C137.125 424.846 180.04 428.041 191.375 411.188C200.908 418.135 221.17 416.108 224.219 404.938C240.189 406.341 256.604 406.693 272.655 405.906C281.198 411.676 297.448 410.706 303.28 402.906C316.068 400.968 328.284 398.186 339.438 394.5C341.338 410.716 377.531 410.42 377.531 393.156C377.531 392.406 377.484 391.686 377.345 391C388.583 394.032 403.939 390 403.939 378.75C403.939 367.725 388.325 363.647 377.064 366.72C377.424 338.092 318.459 285.953 272.001 250.125C264.611 244.427 257.987 240.205 250.313 240.095Z" class="selected" fill="url(#lorc-hot-spices-gradient-3)" stroke="#4a4a4a" stroke-opacity="1" stroke-width="4"></path><path d="M440 352.5C430.453 352.458 420.906 356.78 420.906 365.563C420.906 383.13 459.094 383.29 459.094 365.563C459.094 356.946 449.547 352.543 440 352.5Z" class="" fill="url(#lorc-hot-spices-gradient-4)" stroke="#4a4a4a" stroke-opacity="1" stroke-width="4"></path><path d="M36.656 362.5C27.109 362.458 17.563 366.78 17.563 375.563C17.563 393.13 55.75 393.29 55.75 375.563C55.75 366.947 46.203 362.543 36.656 362.5Z" class="" fill="url(#lorc-hot-spices-gradient-5)" stroke="#4a4a4a" stroke-opacity="1" stroke-width="4"></path><path d="M467.219 382.906C457.671 382.864 448.124 387.186 448.124 395.969C448.124 413.535 486.312 413.694 486.312 395.969C486.312 387.351 476.765 382.947 467.218 382.905Z" class="" fill="url(#lorc-hot-spices-gradient-6)" stroke="#4a4a4a" stroke-opacity="1" stroke-width="4"></path><path d="M417.529 408.344C406.782 408.297 396.029 413.144 396.029 423.031C396.029 442.807 439.029 442.986 439.029 423.031C439.029 413.331 428.279 408.391 417.529 408.345Z" class="" fill="url(#lorc-hot-spices-gradient-7)" stroke="#4a4a4a" stroke-opacity="1" stroke-width="4"></path><path d="M337.562 411.314C328.014 411.294 318.468 415.699 318.468 424.562C318.468 436.599 337.106 440.387 348.342 435.594C357.745 444.49 383.062 442.056 383.062 427.75C383.06 415.476 364.452 411.74 353.217 416.625C349.589 413.119 343.58 411.325 337.559 411.312Z" class="" fill="url(#lorc-hot-spices-gradient-8)" stroke="#4a4a4a" stroke-opacity="1" stroke-width="4"></path><path d="M250.342 412.937C240.796 412.897 231.249 417.185 231.249 425.969C231.249 443.535 269.437 443.694 269.437 425.969C269.437 417.351 259.89 412.979 250.343 412.936Z" class="" fill="url(#lorc-hot-spices-gradient-9)" stroke="#4a4a4a" stroke-opacity="1" stroke-width="4"></path><path d="M121.218 427.657C109.968 427.633 98.718 432.777 98.718 443.219C98.718 455.641 115.548 460.599 128.623 457.843C137.309 467.677 164.123 465.533 164.123 450.813C164.123 441.243 152.783 436.85 142.467 437.686C139.241 431.028 130.23 427.674 121.217 427.656Z" class="" fill="url(#lorc-hot-spices-gradient-10)" stroke="#4a4a4a" stroke-opacity="1" stroke-width="4"></path><path d="M294.75 439C286.345 438.963 277.95 441.873 274.5 447.78C259.705 443.68 239.25 448.82 239.25 463.563C239.25 484.857 281.93 486.687 288.563 468.563C301.123 470.883 316.656 466.07 316.656 453.969C316.656 444.089 305.698 439.047 294.75 438.999Z" class="" fill="url(#lorc-hot-spices-gradient-11)" stroke="#4a4a4a" stroke-opacity="1" stroke-width="4"></path><path d="M197.75 461.656C187.002 461.609 176.28 466.456 176.28 476.344C176.28 496.12 219.25 496.299 219.25 476.344C219.25 466.644 208.498 461.704 197.75 461.656Z" class="" fill="url(#lorc-hot-spices-gradient-12)" stroke="#4a4a4a" stroke-opacity="1" stroke-width="4"></path><path d="M425.875 463.062C416.328 463.022 406.781 467.342 406.781 476.125C406.781 493.692 444.971 493.851 444.971 476.125C444.971 467.509 435.423 463.105 425.876 463.062Z" class="" fill="#603008" fill-opacity="1" stroke="#4a4a4a" stroke-opacity="1" stroke-width="4"></path></g></g></svg>