<?xml version="1.0" encoding="UTF-8" standalone="no"?>
<svg
   xmlns:dc="http://purl.org/dc/elements/1.1/"
   xmlns:cc="http://creativecommons.org/ns#"
   xmlns:rdf="http://www.w3.org/1999/02/22-rdf-syntax-ns#"
   xmlns:svg="http://www.w3.org/2000/svg"
   xmlns="http://www.w3.org/2000/svg"
   xmlns:sodipodi="http://sodipodi.sourceforge.net/DTD/sodipodi-0.dtd"
   xmlns:inkscape="http://www.inkscape.org/namespaces/inkscape"
   viewBox="0 0 512 512"
   style="height: 64px; width: 64px;"
   version="1.1"
   id="svg20"
   sodipodi:docname="fleche-de-guerre-elfique.svg"
   inkscape:version="0.92.3 (2405546, 2018-03-11)"
   inkscape:export-filename="/home/plic/Téléchargements/fleche-de-guerre-elfique.png"
   inkscape:export-xdpi="90"
   inkscape:export-ydpi="90">
  <metadata
     id="metadata26">
    <rdf:RDF>
      <cc:Work
         rdf:about="">
        <dc:format>image/svg+xml</dc:format>
        <dc:type
           rdf:resource="http://purl.org/dc/dcmitype/StillImage" />
        <dc:title></dc:title>
      </cc:Work>
    </rdf:RDF>
  </metadata>
  <defs
     id="defs24">
    <clipPath
       clipPathUnits="userSpaceOnUse"
       id="clipPath952">
      <rect
         style="opacity:0.51200005;fill:#875506;fill-opacity:1;stroke:none;stroke-width:2;stroke-miterlimit:4;stroke-dasharray:none;stroke-opacity:1"
         id="rect954"
         width="444.87802"
         height="518.513"
         x="644.8125"
         y="-201.71378"
         transform="rotate(41.293649)" />
    </clipPath>
    <clipPath
       clipPathUnits="userSpaceOnUse"
       id="clipPath956">
      <rect
         style="opacity:0.51200005;fill:#875506;fill-opacity:1;stroke:none;stroke-width:2;stroke-miterlimit:4;stroke-dasharray:none;stroke-opacity:1"
         id="rect958"
         width="444.87802"
         height="518.513"
         x="644.8125"
         y="-201.71378"
         transform="rotate(41.293649)" />
    </clipPath>
    <clipPath
       clipPathUnits="userSpaceOnUse"
       id="clipPath977">
      <rect
         style="opacity:0.51200005;fill:#875506;fill-opacity:1;stroke:none;stroke-width:2;stroke-miterlimit:4;stroke-dasharray:none;stroke-opacity:1"
         id="rect979"
         width="208.27118"
         height="256"
         x="263.10742"
         y="178.11002"
         transform="rotate(43.274356)" />
    </clipPath>
    <clipPath
       clipPathUnits="userSpaceOnUse"
       id="clipPath998">
      <rect
         style="opacity:0.51200005;fill:#e9c6af;fill-opacity:1;stroke:none;stroke-width:2.61142254;stroke-miterlimit:4;stroke-dasharray:none;stroke-opacity:1"
         id="rect1000"
         width="337.65381"
         height="383.37775"
         x="594.53412"
         y="-315.56363"
         transform="rotate(43.003902)" />
    </clipPath>
    <radialGradient
       id="gradient-2"
       gradientTransform="scale(1.1050974,0.90489765)"
       cx="263.85949"
       cy="289.62682"
       fx="263.85949"
       fy="289.62682"
       r="191.95041"
       gradientUnits="userSpaceOnUse">
      <stop
         id="stop1026"
         stop-opacity="1"
         stop-color="#9b9b9b"
         offset="0%" />
      <stop
         id="stop1028"
         stop-opacity="1"
         stop-color="#4a4a4a"
         offset="100%" />
    </radialGradient>
    <radialGradient
       id="gradient-4"
       gradientTransform="scale(1.1063322,0.90388766)"
       cx="190.4783"
       cy="252.78678"
       fx="190.4783"
       fy="252.78678"
       r="94.039177"
       gradientUnits="userSpaceOnUse">
      <stop
         id="stop1031"
         stop-opacity="1"
         stop-color="#9b9b9b"
         offset="0%" />
      <stop
         id="stop1033"
         stop-opacity="1"
         stop-color="#4a4a4a"
         offset="100%" />
    </radialGradient>
    <radialGradient
       id="gradient-2-5"
       gradientTransform="matrix(0.71778172,0.47064654,-0.60491945,0.82452897,220.79893,-82.285405)"
       cx="266.83875"
       cy="242.02715"
       fx="266.83875"
       fy="242.02715"
       r="228.57945"
       gradientUnits="userSpaceOnUse">
      <stop
         id="stop1103"
         stop-opacity="1"
         stop-color="#487414"
         offset="0%" />
      <stop
         id="stop1105"
         stop-opacity="1"
         stop-color="#346300"
         offset="100%" />
    </radialGradient>
    <radialGradient
       id="gradient-4-3">
      <stop
         id="stop1108"
         stop-opacity="1"
         stop-color="#9b9b9b"
         offset="0%" />
      <stop
         id="stop1110"
         stop-opacity="1"
         stop-color="#4a4a4a"
         offset="100%" />
    </radialGradient>
  </defs>
  <sodipodi:namedview
     pagecolor="#ffffff"
     bordercolor="#666666"
     borderopacity="1"
     objecttolerance="10"
     gridtolerance="10"
     guidetolerance="10"
     inkscape:pageopacity="0"
     inkscape:pageshadow="2"
     inkscape:window-width="1568"
     inkscape:window-height="811"
     id="namedview22"
     showgrid="false"
     inkscape:zoom="0.64625631"
     inkscape:cx="127.39012"
     inkscape:cy="458.74901"
     inkscape:window-x="2049"
     inkscape:window-y="117"
     inkscape:window-maximized="0"
     inkscape:current-layer="svg20" />
  <g
     id="g1121"
     class=""
     transform="matrix(0.24037737,0,0,0.25426592,392.06136,-1.8281251)">
    <g
       id="g1119">
      <path
         style="fill:url(#gradient-2-5);stroke:#4a4a4a;stroke-width:10;stroke-opacity:1"
         id="path1115"
         class="selected"
         d="M 440.50378,28.110808 C 138.19977,191.95452 574.79086,-51.625841 168.01706,160.44418 106.30614,233.97873 -27.614501,232.4626 113.937,322.031 l 1.72,-1.874 c 37.05,-27.143 93.71794,-24.91152 138.97194,-12.34152 10.06,-53.15 7.56921,-49.71159 -65.78348,-138.24282 52.17013,5.12987 31.06054,1.96934 60.09254,19.58434 28.17,-18.51 65.59,-22.273 98.5,-11.844 13.642,-24.687 5.494,-62.023 -34.875,-75.062 11.547,-0.47 21.786,1.543 30.625,5.375 9.765,-9.273 23.542,-14.436 37.406,-14.594 20.555,-0.233 41.345,10.51 49.72,35 -20.84,-25.228 -50.562,-20.836 -65.158,-4.374 16.456,18.683 21.54,46.205 13.156,68.78 24.248,16.935 9.98215,35.47859 12.35715,72.51959 -28.71,-63.122 -60.55415,-61.30659 -99.45015,-35.01859 20.415,30.55 28.802,68.684 20.436,103.594 -0.51335,21.40778 -10.97095,28.19525 -1.06088,70.22028 C 271.25712,317.26128 228.343,335.662 176.03,372.972 l -0.968,-0.126 C 298.30205,469.22735 398.65859,556.23326 440.50378,28.110808 Z"
         inkscape:connector-curvature="0"
         sodipodi:nodetypes="ccccccccccccccccccccc" />
      <path
         id="path1117"
         class=""
         d="m 311,189.656 c -21.31,0.028 -42.32,7.18 -61.656,20.75 11.706,22.114 34.073,72.085 5.937,111.813 -61.534,-22.165 -135.748,9.04 -174.78,63.905 -0.016,0.015 -0.046,0.016 -0.063,0.03 -21.582,20.457 -40.824,44.172 -59.406,69 8.21,23.188 26.263,36.433 58.782,35.095 C 94.63,446.683 113.797,409.363 138.94,377.779 183.548,320.235 251.394,332.02 282,340 294.164,301.664 294.068,255.842 269.03,226.312 293.313,201.146 336.44,192.826 367.22,206.687 348.836,195.13 329.802,189.632 311,189.657 Z"
         inkscape:connector-curvature="0"
         style="fill:#8b572a;fill-opacity:1" />
    </g>
  </g>
  <path
     d="m 9.1320339,426.4923 75.6334601,0.78767 0.374648,73.55749 67.911498,-88.27435 -9.58465,-28.84324 L 436.36447,97.205546 446.22667,138.3211 505.55293,15.887017 380.3921,73.924486 422.41385,83.566428 129.69261,369.90939 99.376756,360.06097 9.1341446,426.49127 Z"
     class="selected"
     id="path2"
     inkscape:connector-curvature="0"
     style="fill:#e9c6af;fill-opacity:1;stroke-width:1.04377329"
     clip-path="url(#clipPath977)"
     transform="translate(0.90162,1.71248)" />
  <path
     d="m 396.09566,632.57414 75.63346,0.78767 0.37465,73.55749 67.9115,-88.27435 -9.58465,-28.84324 292.89748,-286.51433 9.8622,41.11555 59.32626,-122.43408 -125.16083,58.03747 42.02175,9.64194 -292.72124,286.34297 -30.31586,-9.84842 -90.24261,66.4303 z"
     class="selected"
     id="path2-6-7"
     inkscape:connector-curvature="0"
     style="fill:#502d16;fill-opacity:1;stroke-width:1.04377329"
     clip-path="url(#clipPath998)"
     transform="matrix(1.0584329,0,0,1.0584329,-415.20702,-240.41868)" />
</svg>
