<svg xmlns="http://www.w3.org/2000/svg" viewBox="0 0 512 512" style="height: 64px; width: 64px;"><g class="" transform="translate(0,0)" style="touch-action: none;"><g transform="translate(0, 0) scale(1, 1) rotate(-90, 256, 256)"><path d="M95.053 18.096L95.055 18.1L95.055 18.096L95.053 18.096Z" class="" fill="#417505" stroke="#4a4a4a" stroke-opacity="1" stroke-width="10" fill-opacity="1"></path><path d="M95.055 18.1L88.43 75.234L153.373 144.678C176.103 63.718 119.757 82.338 95.055 18.1Z" class="selected" fill="#f5a623" fill-opacity="1" stroke="#4a4a4a" stroke-opacity="1" stroke-width="10"></path><path d="M76.307 89.633L16.594 96.557C90.099 116.437 74.866 181.14 139.576 157.285L76.306 89.633Z" class="" fill="#f5a623" stroke="#4a4a4a" stroke-opacity="1" stroke-width="10" fill-opacity="1"></path><path d="M270.082 115.023C210.189 142.583 211.776 190.951 273.959 225.738C313.174 175.678 253.169 172.598 270.081 115.023Z" class="" fill="#9b9b9b" fill-opacity="0"></path><path d="M166.312 157.398L153.172 170.688C183.38 200.548 216.939 229.036 252.154 254.035L306.262 335.68L371.025 387.285C373.682 381.971 376.939 377.529 380.975 373.905C381.491 373.44 382.02 373.005 382.553 372.575L340.333 338.932L341.025 338.699C336.192 324.349 336.595 310.439 341.541 295.753L323.831 289.788C320.371 300.06 318.698 310.588 319.051 321.141L265.861 240.885L264.431 239.875C229.586 215.272 196.255 186.995 166.311 157.395Z" class="" fill="#8b572a" fill-opacity="1" stroke="#8b572a" stroke-opacity="1" stroke-width="10"></path><path d="M244.52 301.4C227.883 301.24 211.062 315.266 197.736 345.996C246.893 323.036 245.85 381.161 290.211 341.938C277.616 315.912 261.161 301.562 244.521 301.4Z" class="" fill="#9b9b9b" fill-opacity="0"></path><path d="M445.027 344.43L429.29 372.238L460.167 459.363L370.235 427.496L342.741 440.889L495.265 495.495L445.025 344.429Z" class="" fill="#9b9b9b" fill-opacity="1" stroke="#4a4a4a" stroke-opacity="1" stroke-width="10"></path><path d="M412.601 381.098C403.635 382.065 397.646 384.046 393.461 387.808C389.084 391.738 385.359 399.116 382.679 412.078L429.454 428.652L412.601 381.098Z" class="" fill="#9b9b9b" fill-opacity="1" stroke="#4a4a4a" stroke-opacity="1" stroke-width="10"></path></g></g></svg>