<svg xmlns="http://www.w3.org/2000/svg" viewBox="0 0 512 512" style="height: 64px; width: 64px;"><g class="" transform="translate(0,0)" style="touch-action: none;"><g><path d="M25 49L25 87L55 87L55 49L25 49Z" class="" fill="#ffffd4" fill-opacity="1" stroke="#4a4a4a" stroke-opacity="1" stroke-width="10"></path><path d="M73 49L73 87L103 87L103 49L73 49Z" class="" fill="#ffffd4" fill-opacity="1" stroke="#4a4a4a" stroke-opacity="1" stroke-width="10"></path><path d="M121 49L121 87L151 87L151 49L121 49Z" class="" fill="#ffffd4" stroke="#4a4a4a" stroke-opacity="1" stroke-width="10" fill-opacity="1"></path><path d="M169 49L169 87L199 87L199 49L169 49Z" class="" fill="#ffffd4" stroke="#4a4a4a" stroke-opacity="1" stroke-width="10" fill-opacity="1"></path><path d="M217 49L217 87L247 87L247 49L217 49Z" class="" fill="#ffffd4" stroke="#4a4a4a" stroke-opacity="1" stroke-width="10" fill-opacity="1"></path><path d="M265 49L265 87L295 87L295 49L265 49Z" class="" fill="#ffffd4" stroke="#4a4a4a" stroke-opacity="1" stroke-width="10" fill-opacity="1"></path><path d="M313 49L313 87L343 87L343 49L313 49Z" class="" fill="#ffffd4" stroke="#4a4a4a" stroke-opacity="1" stroke-width="10" fill-opacity="1"></path><path d="M361 49L361 87L391 87L391 49L361 49Z" class="" fill="#ffffd4" fill-opacity="1" stroke="#4a4a4a" stroke-opacity="1" stroke-width="10"></path><path d="M409 49L409 87L439 87L439 49L409 49Z" class="" fill="#ffffd4" fill-opacity="1" stroke="#4a4a4a" stroke-opacity="1" stroke-width="10"></path><path d="M457 49L457 87L487 87L487 49L457 49Z" class="" fill="#ffffd4" fill-opacity="1" stroke="#4a4a4a" stroke-opacity="1" stroke-width="10"></path><path d="M25 105L25 135L487 135L487 105L25 105Z" class="selected" fill="#b57204" fill-opacity="1" stroke="#4a4a4a" stroke-opacity="1" stroke-width="10"></path><path d="M25 153L25 417.824C32.76 409.079 42.86 398.906 55 387.627L55 153L25 153Z" class="" fill="#ffffd4" fill-opacity="1" stroke="#4a4a4a" stroke-opacity="1" stroke-width="10"></path><path d="M73 153L73 371.402C82.233 363.312 92.286 354.83 103 346.107L103 153L73 153Z" class="" fill="#ffffd4" fill-opacity="1" stroke="#4a4a4a" stroke-opacity="1" stroke-width="10"></path><path d="M121 153L121 331.73C130.595 324.207 140.615 316.57 151 308.887L151 153L121 153Z" class="" fill="#ffffd4" fill-opacity="1" stroke="#4a4a4a" stroke-opacity="1" stroke-width="10"></path><path d="M169 153L169 295.795C174.223 292.06 179.506 288.327 184.87 284.605C189.53 281.372 194.25 278.151 199 274.939L199 153L169 153Z" class="" fill="#ffffd4" fill-opacity="1" stroke="#4a4a4a" stroke-opacity="1" stroke-width="10"></path><path d="M217 153L217 262.975C226.866 256.531 236.878 250.183 247 243.977L247 153L217 153Z" class="" fill="#ffffd4" fill-opacity="1" stroke="#4a4a4a" stroke-opacity="1" stroke-width="10"></path><path d="M265 153L265 233.164C274.938 227.321 284.95 221.649 295 216.194L295 153L265 153Z" class="" fill="#ffffd4" fill-opacity="1" stroke="#4a4a4a" stroke-opacity="1" stroke-width="10"></path><path d="M313 153L313 206.67C323.002 201.532 333.014 196.638 343 192.04L343 153L313 153Z" class="" fill="#ffffd4" fill-opacity="1" stroke="#4a4a4a" stroke-opacity="1" stroke-width="10"></path><path d="M361 153L361 184.078C371.065 179.798 381.08 175.838 391 172.273L391 153L361 153Z" class="" fill="#ffffd4" fill-opacity="1" stroke="#4a4a4a" stroke-opacity="1" stroke-width="10"></path><path d="M409 153L409 166.2C419.142 163.01 429.155 160.265 439 158.02L439 153L409 153Z" class="" fill="#ffffd4" fill-opacity="1" stroke="#4a4a4a" stroke-opacity="1" stroke-width="10"></path><path d="M487 169.24C477.398 169.727 467.37 170.97 457 172.89L457 191L487 191L487 169.24Z" class="" fill="#ffffd4" fill-opacity="1" stroke="#4a4a4a" stroke-opacity="1" stroke-width="10"></path><path d="M439 176.8C429.224 179.22 419.207 182.158 409 185.562L409 207L439 207L439 176.8Z" class="" fill="#ffffd4" fill-opacity="1" stroke="#4a4a4a" stroke-opacity="1" stroke-width="10"></path><path d="M391 191.967C381.117 195.692 371.1 199.802 361 204.244L361 223L391 223L391 191.967Z" class="" fill="#ffffd4" fill-opacity="1" stroke="#4a4a4a" stroke-opacity="1" stroke-width="10"></path><path d="M343 212.477C333.03 217.195 323.016 222.197 313 227.443L313 255L343 255L343 212.477Z" class="" fill="#ffffd4" fill-opacity="1" stroke="#4a4a4a" stroke-opacity="1" stroke-width="10"></path><path d="M295 237.133C284.95 242.678 274.936 248.431 265 254.353L265 287L295 287L295 237.133Z" class="" fill="#ffffd4" fill-opacity="1" stroke="#4a4a4a" stroke-opacity="1" stroke-width="10"></path><path d="M247 265.309C236.86 271.607 226.845 278.044 217 284.571L217 319L247 319L247 265.31Z" class="" fill="#ffffd4" fill-opacity="1" stroke="#4a4a4a" stroke-opacity="1" stroke-width="10"></path><path d="M199 296.733C197.71 297.62 196.412 298.505 195.13 299.393C186.223 305.573 177.502 311.79 169 317.993L169 351L199 351L199 296.734Z" class="" fill="#ffffd4" fill-opacity="1" stroke="#4a4a4a" stroke-opacity="1" stroke-width="10"></path><path d="M151 331.353C140.547 339.248 130.527 347.061 121 354.706L121 383L151 383L151 331.354Z" class="" fill="#ffffd4" fill-opacity="1" stroke="#4a4a4a" stroke-opacity="1" stroke-width="10"></path><path d="M103 369.44C92.078 378.567 82.017 387.328 73 395.53L73 431L103 431L103 369.44Z" class="" fill="#fff" fill-opacity="1" stroke="#4a4a4a" stroke-opacity="1" stroke-width="10"></path><path d="M55 412.52C47.465 419.933 41.117 426.624 36.23 432.307C32.09 437.117 28.976 441.24 27.09 444.26C25.203 447.28 25 449.563 25 448L25 463L55 463L55 412.52Z" class="" fill="#ffffd4" fill-opacity="1" stroke="#4a4a4a" stroke-opacity="1" stroke-width="10"></path></g></g></svg>