<?xml version="1.0" encoding="UTF-8" standalone="no"?>
<svg
   xmlns:dc="http://purl.org/dc/elements/1.1/"
   xmlns:cc="http://creativecommons.org/ns#"
   xmlns:rdf="http://www.w3.org/1999/02/22-rdf-syntax-ns#"
   xmlns:svg="http://www.w3.org/2000/svg"
   xmlns="http://www.w3.org/2000/svg"
   xmlns:sodipodi="http://sodipodi.sourceforge.net/DTD/sodipodi-0.dtd"
   xmlns:inkscape="http://www.inkscape.org/namespaces/inkscape"
   viewBox="0 0 512 512"
   style="height: 64px; width: 64px;"
   version="1.1"
   id="svg116"
   sodipodi:docname="gamelle.svg"
   inkscape:export-filename="/home/plic/Téléchargements/gamelle.png"
   inkscape:export-xdpi="12"
   inkscape:export-ydpi="12"
   inkscape:version="0.92.3 (2405546, 2018-03-11)">
  <metadata
     id="metadata122">
    <rdf:RDF>
      <cc:Work
         rdf:about="">
        <dc:format>image/svg+xml</dc:format>
        <dc:type
           rdf:resource="http://purl.org/dc/dcmitype/StillImage" />
        <dc:title></dc:title>
      </cc:Work>
    </rdf:RDF>
  </metadata>
  <defs
     id="defs120">
    <radialGradient
       id="gradient-2"
       gradientTransform="scale(1.0050944,0.99493138)"
       cx="253.54904"
       cy="257.9458"
       fx="253.54904"
       fy="257.9458"
       r="237.53052"
       gradientUnits="userSpaceOnUse">
      <stop
         id="stop124"
         stop-opacity="1"
         stop-color="#9b9b9b"
         offset="0%" />
      <stop
         id="stop126"
         stop-opacity="1"
         stop-color="#c9c9c9"
         offset="100%" />
    </radialGradient>
  </defs>
  <sodipodi:namedview
     pagecolor="#ffffff"
     bordercolor="#666666"
     borderopacity="1"
     objecttolerance="10"
     gridtolerance="10"
     guidetolerance="10"
     inkscape:pageopacity="0"
     inkscape:pageshadow="2"
     inkscape:window-width="863"
     inkscape:window-height="417"
     id="namedview118"
     showgrid="false"
     inkscape:zoom="0.30072754"
     inkscape:cx="393.95669"
     inkscape:cy="123.30462"
     inkscape:window-x="2128"
     inkscape:window-y="494"
     inkscape:window-maximized="0"
     inkscape:current-layer="svg116" />
  <g
     class=""
     transform="translate(0,0)"
     style="touch-action: none;"
     id="g114">
    <g
       id="g112">
      <path
         d="M267.982 22.29C250.887 22.29 237.029 36.15 237.029 53.244C237.029 70.34 250.886 84.197 267.981 84.197C285.077 84.197 298.935 70.34 298.935 53.244C298.935 36.149 285.077 22.291 267.981 22.291Z"
         class="selected"
         fill="#4a4a4a"
         fill-opacity="0"
         id="path86" />
      <path
         d="M265.212 31.62C263.249 32.503 261.602 33.924 259.992 35.535C252.864 42.663 252.648 54.278 259.775 61.405C266.903 68.535 278.735 68.535 285.863 61.405C287.57 59.7 288.671 57.63 289.561 55.535C289.035 60.269 287.101 64.951 283.474 68.578C274.987 77.065 261.308 76.846 252.821 68.361L252.819 68.361C244.335 59.878 244.116 46.195 252.603 37.711C256.083 34.231 260.683 32.248 265.213 31.621Z"
         class=""
         fill="#8b572a"
         fill-opacity="0"
         id="path88" />
      <path
         d="M176.122 33.914C152.206 33.914 132.82 53.298 132.82 77.214C132.82 101.128 152.206 120.514 176.12 120.514C179.35 120.514 182.495 120.149 185.523 119.479C186.806 135.394 200.119 147.913 216.365 147.913C233.461 147.913 247.318 134.055 247.318 116.96C247.318 100.586 234.601 87.19 218.506 86.09C219.103 83.224 219.422 80.256 219.422 77.213C219.422 53.298 200.036 33.913 176.122 33.913Z"
         class=""
         fill="#b57204"
         fill-opacity="0"
         id="path90" />
      <path
         d="M169.646 49.794C166.972 50.997 164.729 52.934 162.536 55.127C152.819 64.843 152.524 80.677 162.238 90.393C171.953 100.109 188.083 100.109 197.798 90.393C200.126 88.066 201.625 85.243 202.838 82.391C202.12 88.845 199.484 95.228 194.538 100.173C182.973 111.741 164.322 111.443 152.756 99.876L152.754 99.876C141.188 88.31 140.891 69.656 152.459 58.091C157.201 53.348 163.473 50.648 169.645 49.794Z"
         class=""
         fill="#8b572a"
         fill-opacity="0"
         id="path92" />
      <path
         d="M324.49 87.196C292.235 87.196 266.088 113.343 266.088 145.599C266.088 177.854 292.235 204.001 324.49 204.001C356.746 204.001 382.893 177.854 382.893 145.599C382.893 113.343 356.746 87.196 324.49 87.196Z"
         class=""
         fill="#4a4a4a"
         fill-opacity="0"
         id="path94" />
      <path
         d="M212.92 98.936C211.07 99.766 209.52 101.106 208.002 102.624C201.282 109.344 201.076 120.292 207.795 127.011C214.513 133.729 225.668 133.729 232.389 127.011C233.997 125.401 235.031 123.451 235.869 121.478C235.375 125.938 233.552 130.351 230.134 133.771C222.134 141.771 209.238 141.565 201.239 133.566C193.241 125.568 193.033 112.671 201.032 104.672C204.312 101.392 208.65 99.522 212.919 98.934Z"
         class=""
         fill="#8b572a"
         fill-opacity="0"
         id="path96" />
      <path
         d="M317.81 101.653C313.897 103.413 310.617 106.245 307.406 109.456C293.196 123.666 292.762 146.826 306.973 161.038C321.183 175.248 344.776 175.248 358.986 161.038C362.388 157.634 364.582 153.508 366.356 149.334C365.306 158.772 361.451 168.107 354.219 175.34C337.299 192.26 310.019 191.825 293.101 174.906C276.181 157.986 275.748 130.708 292.667 113.789C299.604 106.853 308.777 102.902 317.807 101.653Z"
         class=""
         fill="#8b572a"
         fill-opacity="0"
         id="path98" />
      <path
         d="M221.686 169.723C197.816 169.723 178.466 189.071 178.466 212.94C178.466 236.81 197.816 256.16 221.686 256.16C245.556 256.16 264.902 236.81 264.902 212.94C264.902 189.072 245.555 169.725 221.686 169.725Z"
         class=""
         fill="#b57204"
         fill-opacity="0"
         id="path100" />
      <path
         d="M218.166 181.526C215.342 182.796 212.974 184.842 210.654 187.159C200.392 197.421 200.082 214.139 210.344 224.401C220.606 234.663 237.638 234.663 247.898 224.401C250.354 221.944 251.938 218.965 253.218 215.951C252.462 222.766 249.678 229.506 244.455 234.729C232.24 246.944 212.543 246.632 200.328 234.417L200.326 234.417C188.111 222.202 187.796 202.503 200.014 190.287C205.022 185.28 211.646 182.427 218.166 181.527Z"
         class=""
         fill="#4a4a4a"
         fill-opacity="0"
         id="path102" />
      <path
         d="M300.488 249.632C286.335 249.632 274.41 259.132 270.721 272.102C265.707 272.005 260.664 271.936 255.567 271.936C191.417 271.936 133.35 279.796 90.547 292.856C69.144 299.386 51.541 307.156 38.617 316.479C24.182 329.326 12.99 340.929 17.767 359.395C23.257 395.845 49.984 427.765 88.485 450.878C131.825 476.895 190.701 492.58 255.565 492.58C320.43 492.58 379.305 476.895 422.645 450.877C461.125 427.774 487.845 395.877 493.355 359.45C494.062 354.943 494.841 349.734 493.865 345.45C491.725 334.17 483.571 324.45 472.521 316.477C459.596 307.153 441.993 299.385 420.591 292.854C395.416 285.172 364.934 279.309 331.067 275.767C328.754 260.959 315.947 249.63 300.489 249.63Z"
         class=""
         fill="#9b9b9b"
         fill-opacity="1"
         id="path104" />
      <path
         d="M299.228 261.229C297.378 262.061 295.828 263.399 294.308 264.917C287.59 271.637 287.385 282.585 294.104 289.304C300.822 296.022 311.974 296.022 318.694 289.304C320.304 287.694 321.341 285.744 322.18 283.77C321.684 288.234 319.86 292.646 316.44 296.066C308.443 304.066 295.546 303.86 287.547 295.861C279.547 287.864 279.343 274.967 287.342 266.968C290.622 263.688 294.96 261.82 299.229 261.231Z"
         class=""
         fill="#8b572a"
         fill-opacity="0"
         id="path106" />
      <path
         d="M255.566 290.634C260.852 290.634 266.078 290.708 271.273 290.817C275.499 302.882 286.98 311.537 300.488 311.537C312.658 311.537 323.178 304.514 328.236 294.302C361.514 297.746 391.232 303.446 415.133 310.739C435.265 316.883 451.276 324.209 461.58 331.642C470.85 338.329 474.887 344.432 475.607 349.618C475.5 351.544 475.324 353.463 475.067 355.373C473.584 360.021 469.487 365.3 461.58 371.003C459.173 372.74 456.443 374.471 453.434 376.183C392.884 308.581 133.648 304.678 56.204 375.316C53.781 373.888 51.557 372.449 49.554 371.004C41.627 365.284 37.528 359.991 36.054 355.334C35.804 353.446 35.631 351.55 35.524 349.646C36.232 344.454 40.268 338.34 49.554 331.641C59.859 324.207 75.869 316.881 96.002 310.738C136.267 298.451 192.958 290.633 255.566 290.633Z"
         class=""
         fill="#4a4a4a"
         fill-opacity="1"
         id="path108" />
      <path
         d="M52.376 394.617C63.151 400.317 75.964 405.342 90.546 409.791C133.349 422.854 191.416 430.711 255.566 430.711C319.716 430.711 377.786 422.854 420.59 409.791C435.166 405.344 447.974 400.321 458.748 394.624C448.053 409.479 432.573 423.12 413.023 434.856C373.278 458.716 317.393 473.896 255.563 473.896C193.735 473.896 137.849 458.716 98.103 434.856C78.551 423.119 63.07 409.476 52.375 394.618Z"
         class=""
         fill="#4a4a4a"
         fill-opacity="1"
         id="path110" />
    </g>
  </g>
  <g
     id="g139"
     class=""
     transform="matrix(-0.51250681,0,0,0.51250681,483.69227,99.322465)">
    <g
       id="g137">
      <path
         id="path131"
         class="selected"
         d="m 67,20.313 c -42.248,0.408 -79.452,58.42 -19.844,72.188 103.83,23.99 184.81,86.124 247.906,183.094 8.264,16.267 14.432,32.547 11.375,48.813 l 0.125,-0.063 c -5.354,13.41 -6.013,29.53 -3.343,45.907 4.085,25.08 16.51,52.25 37.75,75.47 21.236,23.218 46.927,37.78 71.436,43.937 24.508,6.158 49.03,4.32 65.438,-10.688 16.44,-15.04 18.598,-38.185 12.875,-61.688 -5.724,-23.503 -20.063,-48.758 -41.064,-71.72 -21.002,-22.958 -44.882,-39.49 -67.78,-47.28 -8.205,-2.79 -16.443,-4.555 -24.407,-5 -13.54,-5.482 -23.54,-17.083 -32.533,-30.438 C 269.251,154.655 186.67,84.035 90.404,26.658 82.817,22.135 74.821,20.238 66.997,20.314 Z"
         inkscape:connector-curvature="0"
         style="fill:url(#gradient-2)" />
      <path
         id="path133"
         class=""
         d="m 322.187,335.783 c 24.647,61.84 73.337,110.805 127.657,137.56 -8.46,1.427 -18.92,1.082 -30.313,-1.78 -21,-5.276 -44.56,-18.232 -63.843,-39.312 -19.28,-21.078 -30.677,-46.325 -34.187,-67.874 -1.782,-10.936 -1.264,-20.684 0.687,-28.594 z"
         inkscape:connector-curvature="0"
         style="fill:#8b572a;fill-opacity:0" />
      <path
         id="path135"
         class=""
         d="m 472.78,455.656 c -0.688,2.156 -1.535,4.11 -2.56,5.844 l 2.56,-5.843 z"
         inkscape:connector-curvature="0"
         style="fill:#b57204;fill-opacity:0" />
    </g>
  </g>
</svg>
