<svg xmlns="http://www.w3.org/2000/svg" viewBox="0 0 512 512" style="height: 64px; width: 64px;"><defs><radialGradient id="lorc-acorn-gradient-1"><stop offset="0%" stop-color="#ffe0af" stop-opacity="1"></stop><stop offset="100%" stop-color="#93836a" stop-opacity="1"></stop></radialGradient><radialGradient id="lorc-acorn-gradient-2"><stop offset="0%" stop-color="#8b572a" stop-opacity="1"></stop><stop offset="100%" stop-color="#b57204" stop-opacity="1"></stop></radialGradient><radialGradient id="lorc-acorn-gradient-3"><stop offset="0%" stop-color="#8b572a" stop-opacity="1"></stop><stop offset="100%" stop-color="#b57204" stop-opacity="1"></stop></radialGradient><radialGradient id="lorc-acorn-gradient-4"><stop offset="0%" stop-color="#8b572a" stop-opacity="1"></stop><stop offset="100%" stop-color="#b57204" stop-opacity="1"></stop></radialGradient><radialGradient id="lorc-acorn-gradient-5"><stop offset="0%" stop-color="#8b572a" stop-opacity="1"></stop><stop offset="100%" stop-color="#b57204" stop-opacity="1"></stop></radialGradient><radialGradient id="lorc-acorn-gradient-6"><stop offset="0%" stop-color="#8b572a" stop-opacity="1"></stop><stop offset="100%" stop-color="#b57204" stop-opacity="1"></stop></radialGradient><radialGradient id="lorc-acorn-gradient-7"><stop offset="0%" stop-color="#8b572a" stop-opacity="1"></stop><stop offset="100%" stop-color="#b57204" stop-opacity="1"></stop></radialGradient><radialGradient id="lorc-acorn-gradient-8"><stop offset="0%" stop-color="#407505" stop-opacity="1"></stop><stop offset="100%" stop-color="#1d3802" stop-opacity="1"></stop></radialGradient><radialGradient id="lorc-acorn-gradient-9"><stop offset="0%" stop-color="#8b572a" stop-opacity="1"></stop><stop offset="100%" stop-color="#b57204" stop-opacity="1"></stop></radialGradient><radialGradient id="lorc-acorn-gradient-10"><stop offset="0%" stop-color="#48baff" stop-opacity="1"></stop><stop offset="100%" stop-color="#c9c9c9" stop-opacity="1"></stop></radialGradient></defs><g class="" transform="translate(0,0)" style=""><g><path d="M422.625 18.28C397.945 18.41 370.693 33.735 348.531 55.187C350.399 56.223 352.273 57.257 354.157 58.344C362.207 62.986 369.772 67.707 376.877 72.469C402.067 62.886 432.347 58.004 480.314 69.499C468.278 32.429 446.681 18.154 422.626 18.279Z" class="" fill="url(#lorc-acorn-gradient-2)" stroke="#4a4a4a" stroke-opacity="1" stroke-width="8"></path><path d="M237.78 40.22L266.75 134.47C279.32 140.913 291.577 147.88 303.563 155.313L266.938 43.343C258.462 41.663 250.281 40.681 242.375 40.343C240.835 40.278 239.301 40.235 237.781 40.219Z" class="" fill="url(#lorc-acorn-gradient-3)" stroke="#4a4a4a" stroke-opacity="1" stroke-width="8"></path><path d="M218.562 41.344C216.96 41.55 215.36 41.771 213.782 42.031C204.967 43.485 196.444 45.786 188.187 48.907L203.875 107.532C217.495 112.282 230.797 117.596 243.781 123.439L218.563 41.346Z" class="" fill="url(#lorc-acorn-gradient-4)" stroke="#4a4a4a" stroke-opacity="1" stroke-width="8"></path><path d="M288.437 48.937L328.594 171.813C344.516 182.937 359.914 194.941 374.844 207.719L325.906 64.374C312.814 57.847 300.338 52.731 288.436 48.936Z" class="" fill="url(#lorc-acorn-gradient-5)" stroke="#4a4a4a" stroke-opacity="1" stroke-width="8"></path><path d="M170.937 56.781C156.28 64.638 142.414 75.129 129.062 87.876C147.482 91.21 165.36 95.508 182.719 100.689L170.937 56.78Z" class="" fill="url(#lorc-acorn-gradient-6)" stroke="#4a4a4a" stroke-opacity="1" stroke-width="8"></path><path d="M350.187 77.688L403.469 233.658C414.267 244.04 424.791 254.845 435.093 266.032C435.488 264.858 435.843 263.7 436.218 262.532L379.843 97.407C371.003 90.777 361.137 84.222 350.187 77.687Z" class="" fill="url(#lorc-acorn-gradient-7)" stroke="#4a4a4a" stroke-opacity="1" stroke-width="8"></path><path d="M136.595 108.25C119.545 119.686 104.165 136.126 91.251 158.47C48.948 231.66 29.421 356.795 66.721 424.187L66.657 424.125C67.409 447.517 59.06 469.755 48.845 491.719C76.113 479.527 103.742 473.904 131.532 470.936L131.064 470.593C218.959 489.603 343.934 421.173 391.752 338.437C405.299 314.997 412.358 292.297 414.032 270.717C336.814 189.145 247.164 130.805 136.596 108.249Z" class="selected" fill="url(#lorc-acorn-gradient-8)" stroke="#4a4a4a" stroke-opacity="1" stroke-width="8"></path><path d="M408.064 122.25L444.188 228C446.826 207.427 445.148 188.145 438.5 169.75C432.644 153.548 422.783 137.74 408.062 122.25Z" class="" fill="url(#lorc-acorn-gradient-9)" stroke="#4a4a4a" stroke-opacity="1" stroke-width="8"></path></g></g></svg>