<svg xmlns="http://www.w3.org/2000/svg" viewBox="0 0 512 512" style="height: 64px; width: 64px;"><defs><radialGradient id="gradient-2"><stop offset="0%" stop-color="#8b572a" stop-opacity="1"></stop><stop offset="100%" stop-color="#b57204" stop-opacity="1"></stop></radialGradient></defs><g class="" transform="translate(0,0)" style="touch-action: none;"><g><path d="M322.516 37.237C320.713 37.239 318.974 37.471 317.21 37.614L265.458 123.034C326.842 128.355 357.237 156.539 368.268 184.294L351.542 190.94C343.835 171.55 324.582 150.116 279.225 142.766C298.387 156.479 312.767 172.344 320.153 191.666L303.339 198.093C295.476 177.522 276.209 159.995 247.604 144.253C237.542 148.373 185.994 169.426 168.149 175.47C131.004 188.049 110.772 213.562 72.167 258.37L72.036 258.52L71.901 258.665C65.639 265.317 63.007 271.318 62.403 275.695C61.799 280.07 62.887 282.792 64.811 284.825C68.659 288.891 78.989 291.465 94.281 281.093L94.356 281.042L169.397 232.27L180.251 246.571L128.796 291.881L34.698 378.843C22.769 389.867 22.962 400.585 25.748 404.284C27.142 406.134 29.247 407.554 34.331 407.325C39.415 407.096 47.277 404.63 57.112 397.893C86.845 377.528 114.547 357.177 138.862 332.632L138.809 332.409L139.176 332.317C139.348 332.144 139.523 331.975 139.694 331.802L140.044 332.095C143.456 331.198 146.821 330.134 150.128 328.907C156.141 326.661 162.57 322.565 163.333 321.53C163.657 321.09 165.507 314.837 165.823 309.376C166.139 303.915 165.829 299.272 165.829 299.272L183.786 298.04C183.786 298.04 184.183 303.68 183.794 310.415C183.404 317.149 183.139 325.001 177.817 332.215C172.057 340.025 163.633 343.078 156.425 345.77C154.337 346.544 152.228 347.259 150.099 347.913C125.727 380.597 94.766 405.489 66.139 431.421C56.235 440.393 52.136 448.11 51.224 452.852C50.311 457.595 51.358 459.259 53.81 461.032C58.712 464.578 74.974 465.151 91.808 449.642C124.822 419.225 157.03 389.008 181.646 352.922L182.458 353.405C183.902 352.781 186.667 351.55 190.421 349.501C195.391 346.788 200.784 342.483 201.505 341.395C202.19 340.362 204.038 333.815 204.593 328.262C205.148 322.71 205.105 318.057 205.105 318.057L223.103 317.864C223.103 317.864 223.167 323.407 222.503 330.054C221.838 336.7 221.137 344.358 216.507 351.343C211.841 358.381 204.98 362.063 199.044 365.302C197.234 366.29 195.567 367.128 194.021 367.88C177.548 397.791 153.868 423.71 128.651 450.835C123.261 456.633 122.27 461.039 122.589 464.147C122.909 467.255 124.631 469.915 128.011 472.014C134.771 476.214 147.646 476.878 159.444 464.702C173.05 450.66 185.374 435.982 196.108 420.405C205.406 403.443 214.858 386.317 223.87 369.21L224.454 369.481C225.332 369.195 228.364 368.186 232.321 366.436C236.898 364.413 241.923 360.923 242.374 360.343C242.811 359.78 244.944 354.081 245.771 349.175C246.597 344.268 246.831 340.118 246.831 340.118L264.806 341.108C264.806 341.108 264.532 346.158 263.521 352.165C262.509 358.171 261.475 365.098 256.587 371.387C251.685 377.695 245.197 380.425 239.601 382.899C238.742 383.279 237.96 383.59 237.151 383.923C230.014 400.124 221.377 415.331 211.528 429.727C207.956 436.246 204.304 442.857 200.88 449.229C197.728 455.095 197.532 459.335 198.243 462.194C198.955 465.054 200.561 466.91 202.973 468.134C207.798 470.582 216.355 470.312 224.103 459.522C281.543 379.53 350.624 299.245 381.21 194.536C383.453 186.857 388.35 183.075 394.204 177.641C400.058 172.208 407.186 166.374 414.174 160.585C421.164 154.795 428.015 149.045 433.004 144.195C436.315 140.975 438.423 137.822 439.462 136.382C437.018 126.855 433.026 117.316 427.829 108.13C416.742 115.249 404.692 121.796 395.034 127.087C401.209 112.185 404.959 96.476 407.433 80.341C402.246 74.726 396.651 69.501 390.694 64.71C369.457 47.657 344.659 37.212 322.516 37.237Z" class="" fill="url(#gradient-2)" stroke="#4a4a4a" stroke-opacity="1" stroke-width="10"></path><path d="M156.137 41.231C155.342 41.219 154.548 41.222 153.753 41.241C140.799 41.543 124.949 46.451 109.674 54.714C101.492 59.14 93.545 64.544 86.215 70.569C88.633 89.807 92.543 108.548 99.84 126.159C87.575 119.439 71.461 110.691 58.354 101.319C53.149 109.517 49.55 117.844 48.151 125.77C48.751 128.548 51.686 134.464 57.096 141.034C62.994 148.196 71.156 156.199 79.544 163.95C87.931 171.702 96.534 179.22 103.557 185.845C105.555 187.729 107.409 189.418 109.13 191.054C124.961 176.429 141.287 165.562 162.376 158.421C176.386 153.676 218.612 136.592 234.576 130.102L182.396 53.395C176.464 45.094 167.856 41.411 156.137 41.231Z" class="" fill="#8b572a" fill-opacity="1" stroke="#4a4a4a" stroke-opacity="1" stroke-width="10"></path><path d="M395.985 207.82C391.404 222.419 386.131 236.531 380.299 250.217L409.573 266.453L409.649 266.498C425.629 275.776 435.755 272.485 439.309 268.16C441.086 265.997 441.981 263.208 441.073 258.885C440.165 254.561 437.12 248.758 430.409 242.56L430.118 242.289L429.85 241.994C417.554 228.44 406.383 217.224 395.985 207.82Z" class="" fill="#8b572a" fill-opacity="1" stroke="#4a4a4a" stroke-opacity="1" stroke-width="10"></path><path d="M369.176 274.48C356.996 299.367 343.121 322.87 328.416 345.377C355.351 379.141 389.222 406.732 423.897 434.461C441.774 448.756 457.954 447.048 462.597 443.168C464.917 441.228 465.848 439.495 464.607 434.828C463.364 430.161 458.737 422.748 448.229 414.49C416.454 389.517 382.202 365.865 354.977 332.713L367.893 320.256C394.087 343.403 423.455 361.971 454.891 380.416C465.173 386.449 473.186 388.359 478.274 388.232C483.362 388.105 485.363 386.542 486.624 384.599C489.145 380.715 488.588 370.009 475.919 359.846L375.975 279.672L369.176 274.48Z" class="" fill="#8b572a" fill-opacity="1" stroke="#4a4a4a" stroke-opacity="1" stroke-width="10"></path><path d="M317.405 361.853C311.901 369.901 306.306 377.885 300.62 385.805C306.333 394.76 312.09 403.695 317.803 412.582C329.602 427.372 342.922 441.154 357.477 454.212C370.097 465.535 382.894 463.97 389.344 459.308C392.57 456.978 394.103 454.205 394.204 451.082C394.305 447.959 393.008 443.634 387.225 438.226C360.747 413.465 335.82 389.751 317.405 361.853Z" class="" fill="#8b572a" fill-opacity="1" stroke="#4a4a4a" stroke-opacity="1" stroke-width="10"></path><path d="M288.348 402.685C282.356 410.851 276.337 418.997 270.29 427.123C277.836 435.958 285.308 444.759 292.616 453.564C301.098 463.786 309.652 463.454 314.294 460.676C316.614 459.286 318.088 457.324 318.598 454.422C319.108 451.52 318.615 447.303 315.061 441.672C311.198 435.549 307.089 429.206 303.067 422.949C297.878 416.404 292.968 409.643 288.348 402.685Z" class="selected" fill="#8b572a" fill-opacity="1" stroke="#4a4a4a" stroke-opacity="1" stroke-width="10"></path></g></g></svg>