<svg xmlns="http://www.w3.org/2000/svg" viewBox="0 0 512 512" style="height: 64px; width: 64px;"><g class="" transform="translate(0,0)" style="touch-action: none;"><g><path d="M215.75 21.063C214.444 21.063 213.168 21.108 211.937 21.188C209.973 21.315 208.159 21.573 206.437 21.906L171.47 82.5C175.727 81.397 180.19 80.812 184.78 80.812C206.204 80.812 224.71 93.59 233.187 111.906L272.375 44.062C267.829 38.296 257.673 30.996 245.405 26.532C235.665 22.986 224.889 21.059 215.75 21.062Z" class="" fill="#9b9b9b" fill-opacity="1" stroke="#4a4a4a" stroke-opacity="1" stroke-width="10"></path><path d="M301.47 38.593C299.887 38.563 298.4 38.64 297 38.781L252.47 115.938C257.295 114.492 262.405 113.688 267.688 113.688C288.505 113.688 306.612 125.738 315.406 143.22L358.562 68.438C354.437 61.514 344.646 52.775 332.782 46.906C322.342 41.743 310.578 38.768 301.469 38.594Z" class="" fill="#9b9b9b" stroke="#4a4a4a" stroke-opacity="1" stroke-width="10" fill-opacity="1"></path><path d="M138.97 67.937C128.068 68.157 117.615 72.02 106.47 80.157C96.044 87.766 85.3 99.3 74.187 114.5L122 130.78L156.656 70.75C151.258 68.968 146.093 68.057 141.156 67.937C140.426 67.92 139.696 67.923 138.969 67.937Z" class="" fill="#9b9b9b" fill-opacity="1" stroke="#4a4a4a" stroke-opacity="1" stroke-width="10"></path><path d="M370.312 85.5L325.5 163.156C330.825 161.339 336.515 160.312 342.438 160.312C362.772 160.312 380.483 171.922 389.344 188.844L426.314 124.844C422.75 116.344 413.417 105.589 402.124 97.814C391.22 90.3 378.678 85.84 370.313 85.5Z" class="" fill="#9b9b9b" fill-opacity="1" stroke="#4a4a4a" stroke-opacity="1" stroke-width="10"></path><path d="M184.78 99.5C165.51 99.5 150.062 114.948 150.062 134.25C150.062 153.552 165.512 169 184.782 169C204.052 169 219.469 153.555 219.469 134.25C219.469 114.948 204.051 99.5 184.779 99.5Z" class="" fill="#9b9b9b" fill-opacity="1" stroke="#4a4a4a" stroke-opacity="1" stroke-width="10"></path><path d="M58.53 128.938C48.27 179.428 49.268 231.032 64.595 275C64.781 275.536 64.967 276.06 65.157 276.594L65.345 276.374L72.47 286.594C73.342 287.844 74.28 289.114 75.25 290.374C74.413 249.162 85.76 201.129 112.688 147.374L58.53 128.94Z" class="" fill="#9b9b9b" stroke="#4a4a4a" stroke-opacity="1" stroke-width="10" fill-opacity="1"></path><path d="M267.687 132.375C248.417 132.375 233 147.791 233 167.095C233 186.395 248.417 201.845 267.688 201.845C286.958 201.845 302.406 186.399 302.406 167.095C302.406 147.791 286.958 132.375 267.686 132.375Z" class="" fill="#9b9b9b" fill-opacity="1" stroke="#4a4a4a" stroke-opacity="1" stroke-width="10"></path><path d="M436.969 145.063L395.186 217.438C395.138 218.052 395.099 218.673 395.03 219.281C399.313 218.075 403.814 217.407 408.47 217.407C429.766 217.407 448.042 230.957 455.187 249.845L491.719 186.595C488.289 177.735 479.099 166.503 467.936 158.282C457.316 150.462 445.094 145.682 436.968 145.064Z" class="" fill="#9b9b9b" fill-opacity="1" stroke="#4a4a4a" stroke-opacity="1" stroke-width="10"></path><path d="M133.249 148.281C99.888 212.04 89.896 266.26 95.344 308.876C95.477 309.92 95.63 310.939 95.781 311.97C115.831 329.894 142.961 347.888 172.031 363.687C212.201 385.517 256.127 403.567 290.095 413.812C332.123 398.566 374.399 367.315 409.251 317.344C408.991 317.348 408.731 317.374 408.471 317.374C380.997 317.374 358.531 294.891 358.531 267.406C358.531 266.166 358.599 264.938 358.689 263.719C353.564 265.383 348.102 266.311 342.439 266.311C314.133 266.311 290.847 243.818 289.532 215.811C282.855 218.831 275.464 220.531 267.69 220.531C242.015 220.531 220.47 202.181 215.44 177.936C206.755 184.07 196.17 187.686 184.783 187.686C160.253 187.686 139.451 170.922 133.253 148.28Z" class="" fill="#9b9b9b" fill-opacity="1" stroke="#4a4a4a" stroke-opacity="1" stroke-width="10"></path><path d="M342.438 179C323.405 179 308.156 194.25 308.156 213.313C308.156 232.376 323.406 247.625 342.436 247.625C361.47 247.625 376.688 232.379 376.688 213.312C376.688 194.249 361.47 179 342.438 179Z" class="" fill="#9b9b9b" stroke="#4a4a4a" stroke-opacity="1" stroke-width="10" fill-opacity="1"></path><path d="M408.468 236.125C391.106 236.125 377.218 250.013 377.218 267.405C377.218 284.799 391.106 298.688 408.468 298.688C425.832 298.688 439.718 284.802 439.718 267.406C439.718 250.013 425.832 236.126 408.468 236.126Z" class="" fill="#9b9b9b" fill-opacity="1" stroke="#4a4a4a" stroke-opacity="1" stroke-width="10"></path><path d="M64.907 307.25C57.484 316.92 50.73 326.42 44.563 335.72C47.785 344.878 54.673 355.16 65.22 365.687C79.12 379.564 99.034 393.714 123.03 406.75C164.62 429.34 218.48 448.605 275.062 459.28C278.132 450.336 280.896 440.93 283.282 431.03C247.917 420.282 204.074 402.365 163.094 380.094C123.704 358.687 87.427 333.934 64.906 307.25Z" class="selected" fill="#4a4a4a" fill-opacity="1" stroke="#4a4a4a" stroke-opacity="1" stroke-width="10"></path><path d="M32.72 354.563C28.274 362.078 24.237 369.429 20.594 376.656C22.061 385.726 28.557 396.846 40.187 408.376C52.435 420.516 70.027 432.972 91.281 444.438C132.365 466.598 187.061 485.158 243.501 493.625L260.876 493.625C263.466 488.305 265.973 482.781 268.346 477.062C211.069 465.942 156.886 446.432 114.096 423.187C88.936 409.521 67.72 394.565 52.032 378.907C44.12 371.007 37.542 362.901 32.722 354.563Z" class="" fill="#4a4a4a" fill-opacity="1" stroke="#4a4a4a" stroke-opacity="1" stroke-width="10"></path><path d="M18.25 412.093L18.25 446.187C19.297 448.489 21.442 451.667 25.125 455.157C30.385 460.139 38.303 465.584 47.969 470.687C66.849 480.657 92.403 489.362 118.593 493.625L161 493.625C132.193 484.53 105.454 473.307 82.406 460.875C59.993 448.785 41.07 435.572 27.031 421.655C23.858 418.51 20.924 415.329 18.251 412.095Z" class="" fill="#4a4a4a" fill-opacity="1" stroke="#4a4a4a" stroke-opacity="1" stroke-width="10"></path><path d="M18.25 473.875L18.25 493.625L52.594 493.625C47.934 491.577 43.461 489.442 39.25 487.219C31.32 483.029 24.238 478.592 18.25 473.874Z" class="" fill="#fff" fill-opacity="1"></path></g></g></svg>