<svg xmlns="http://www.w3.org/2000/svg" viewBox="0 0 512 512" style="height: 64px; width: 64px;"><g class="" transform="translate(0,0)" style="touch-action: none;"><g><path d="M156.5 21.92C155.2 21.92 154 21.92 152.7 22.02C135.9 22.88 117 29.66 99.7 40.54C71.88 57.96 49.28 85.49 45.09 108.2C30.59 186.9 54.41 254.4 89.91 318.2C136.9 321.6 180.8 317 222.9 307C219.7 292.6 217.2 273.1 219.2 255.5C220.2 246.7 222.2 238.3 226.7 231.1C231.1 224 238.7 218.2 248.1 217.1C253.9 216.4 259.4 217.4 264.5 219.4C266.7 211.6 268.8 203.6 270.5 195.8C273.3 183 275.5 164.6 273.9 150.3C273.1 143.2 271.3 137.2 269 133.5C266.7 129.8 264.7 128.3 260.8 127.8C255.5 127.2 249.7 129.8 243.2 135.8C236.8 141.9 230.3 150.9 224.8 160.4C214 179.2 207.1 198.8 207.1 198.8L190 193.8C190 193.8 199.3 156.9 202.2 117.2C203.6 97.23 203.4 76.65 199.9 60.18C196.4 43.71 189.9 32.23 180.2 27.19C173.2 23.6 165.2 21.93 156.5 21.92Z" class="" fill="#8b572a" fill-opacity="1" stroke="#4a4a4a" stroke-opacity="1" stroke-width="10"></path><path d="M355 128.5C346.3 128.5 338.2 130.2 331.2 133.8C321.4 138.9 314.9 150.4 311.4 166.9C307.9 183.5 307.7 204.1 309.1 224.1C312 264.1 321.4 301.1 321.4 301.1L304.2 306.2C304.2 306.2 297.3 286.5 286.4 267.6C280.9 258.1 274.4 249 267.9 242.9C261.4 236.9 255.6 234.3 250.3 234.9C246.3 235.4 244.3 236.9 242 240.6C239.7 244.3 237.9 250.3 237.1 257.5C235.5 271.8 237.7 290.3 240.5 303.2C251 350.9 273.6 402.4 278 412.2C323.4 424.1 370.9 429.8 421.9 426.1C457.6 362 481.4 294.2 466.9 215.2C462.7 192.4 440 164.8 412.1 147.3C394.7 136.3 375.7 129.5 358.8 128.6C357.5 128.5 356.3 128.5 355 128.5Z" class="" fill="#8b572a" fill-opacity="1" stroke="#4a4a4a" stroke-opacity="1" stroke-width="10"></path><path d="M227.2 324.5C221.7 325.8 216.3 326.9 210.8 328.1L219.2 373.1C226.5 371.9 233.9 370.5 241.2 369C236.3 355.2 231.3 339.9 227.2 324.5Z" class="" fill="#8b572a" fill-opacity="1" stroke="#4a4a4a" stroke-opacity="1" stroke-width="10"></path><path d="M193.2 331.3C184.4 332.8 175.5 334 166.5 334.9L174.1 379.1C183.3 378.2 192.5 377.1 201.5 375.8Z" class="" fill="#8b572a" fill-opacity="1" stroke="#4a4a4a" stroke-opacity="1" stroke-width="10"></path><path d="M91.63 336.4L92 382.9C98.56 382.9 105 382.8 111.5 382.6L109 337.2C103.2 337 97.45 336.8 91.63 336.4Z" class="" fill="#8b572a" fill-opacity="1" stroke="#4a4a4a" stroke-opacity="1" stroke-width="10"></path><path d="M148.4 336.4C141.4 336.9 134.2 337.1 126.9 337.3L129.4 382C138.5 381.7 147.3 381.2 156.2 380.6Z" class="" fill="#8b572a" fill-opacity="1" stroke="#4a4a4a" stroke-opacity="1" stroke-width="10"></path><path d="M277.7 430.8L266.5 475.4C275 477.2 283.4 478.8 291.7 480.2L300 435.9C292.5 434.4 285.1 432.7 277.7 430.8Z" class="" fill="#8b572a" fill-opacity="1" stroke="#4a4a4a" stroke-opacity="1" stroke-width="10"></path><path d="M317.6 439.2L309.4 482.9C318.5 484.2 327.7 485.3 336.8 486.2L344.3 442.8C335.3 441.8 326.4 440.6 317.6 439.2Z" class="" fill="#8b572a" fill-opacity="1" stroke="#4a4a4a" stroke-opacity="1" stroke-width="10"></path><path d="M362.3 444.4L354.8 487.7C363.6 488.4 372.5 488.9 381.5 489.2L383.9 445.2C376.7 445.1 369.5 444.8 362.3 444.4Z" class="" fill="#8b572a" fill-opacity="1" stroke="#4a4a4a" stroke-opacity="1" stroke-width="10"></path><path d="M419.4 444.4C413.5 444.8 407.7 445.1 401.9 445.2L399.5 489.8C405.9 490 412.4 490.1 419 490.1Z" class="selected" fill="#8b572a" fill-opacity="1" stroke="#4a4a4a" stroke-opacity="1" stroke-width="10"></path></g></g></svg>