<?xml version="1.0" encoding="UTF-8" standalone="no"?>
<svg
   xmlns:dc="http://purl.org/dc/elements/1.1/"
   xmlns:cc="http://creativecommons.org/ns#"
   xmlns:rdf="http://www.w3.org/1999/02/22-rdf-syntax-ns#"
   xmlns:svg="http://www.w3.org/2000/svg"
   xmlns="http://www.w3.org/2000/svg"
   xmlns:xlink="http://www.w3.org/1999/xlink"
   xmlns:sodipodi="http://sodipodi.sourceforge.net/DTD/sodipodi-0.dtd"
   xmlns:inkscape="http://www.inkscape.org/namespaces/inkscape"
   viewBox="0 0 512 512"
   style="height: 512px; width: 512px;"
   version="1.1"
   id="svg63"
   sodipodi:docname="hache-en-durium-de-urgashn.svg"
   inkscape:export-filename="/home/plic/Téléchargements/hache-en-durium-de-urgashn.png"
   inkscape:export-xdpi="24"
   inkscape:export-ydpi="24"
   inkscape:version="0.92.3 (2405546, 2018-03-11)">
  <metadata
     id="metadata67">
    <rdf:RDF>
      <cc:Work
         rdf:about="">
        <dc:format>image/svg+xml</dc:format>
        <dc:type
           rdf:resource="http://purl.org/dc/dcmitype/StillImage" />
        <dc:title></dc:title>
      </cc:Work>
    </rdf:RDF>
  </metadata>
  <sodipodi:namedview
     pagecolor="#ffffff"
     bordercolor="#666666"
     borderopacity="1"
     objecttolerance="10"
     gridtolerance="10"
     guidetolerance="10"
     inkscape:pageopacity="0"
     inkscape:pageshadow="2"
     inkscape:window-width="1451"
     inkscape:window-height="864"
     id="namedview65"
     showgrid="false"
     inkscape:zoom="0.4609375"
     inkscape:cx="-165.54352"
     inkscape:cy="376.34124"
     inkscape:window-x="2036"
     inkscape:window-y="27"
     inkscape:window-maximized="0"
     inkscape:current-layer="svg63" />
  <defs
     id="defs37">
    <linearGradient
       inkscape:collect="always"
       id="linearGradient948">
      <stop
         style="stop-color:#152539;stop-opacity:1"
         offset="0"
         id="stop944" />
      <stop
         style="stop-color:#a3ccff;stop-opacity:0;"
         offset="1"
         id="stop946" />
    </linearGradient>
    <linearGradient
       x1="76.540602"
       x2="329.89404"
       y1="33.001391"
       y2="286.35482"
       id="gradient-2"
       gradientTransform="matrix(1.1298143,0,0,0.88510121,-1,0)"
       gradientUnits="userSpaceOnUse">
      <stop
         offset="0%"
         stop-color="#c9c9c9"
         stop-opacity="1"
         id="stop2" />
      <stop
         offset="100%"
         stop-color="#9b9b9b"
         stop-opacity="1"
         id="stop4" />
    </linearGradient>
    <linearGradient
       x1="120.58764"
       x2="320.94463"
       y1="68.901323"
       y2="269.25832"
       id="gradient-3"
       gradientTransform="matrix(1.0196089,0,0,0.98076823,177.98305,195.25424)"
       gradientUnits="userSpaceOnUse">
      <stop
         offset="0%"
         stop-color="#9b9b9b"
         stop-opacity="1"
         id="stop7" />
      <stop
         offset="100%"
         stop-color="#4a4a4a"
         stop-opacity="1"
         id="stop9" />
    </linearGradient>
    <linearGradient
       x1="292.10831"
       x2="550.36456"
       y1="123.27805"
       y2="368.95114"
       id="gradient-5"
       gradientTransform="matrix(0.88510316,0,0,1.1298118,343.20339,-50.101695)"
       gradientUnits="userSpaceOnUse"
       xlink:href="#linearGradient948">
      <stop
         offset="0%"
         stop-color="#9b9b9b"
         stop-opacity="1"
         id="stop12" />
      <stop
         offset="100%"
         stop-color="#c9c9c9"
         stop-opacity="1"
         id="stop14"
         style="stop-color:#b5d8e5;stop-opacity:1" />
    </linearGradient>
    <linearGradient
       x1="252.78255"
       x2="453.13964"
       y1="181.20692"
       y2="381.56401"
       id="gradient-6"
       gradientTransform="matrix(0.9807639,0,0,1.0196134,343.20339,-50.101695)"
       gradientUnits="userSpaceOnUse">
      <stop
         offset="0%"
         stop-color="#4a4a4a"
         stop-opacity="1"
         id="stop17" />
      <stop
         offset="100%"
         stop-color="#9b9b9b"
         stop-opacity="1"
         id="stop19" />
    </linearGradient>
    <radialGradient
       id="gradient-14">
      <stop
         offset="0%"
         stop-color="#9b9b9b"
         stop-opacity="1"
         id="stop22" />
      <stop
         offset="100%"
         stop-color="#c9c9c9"
         stop-opacity="1"
         id="stop24" />
    </radialGradient>
    <radialGradient
       id="gradient-15">
      <stop
         offset="0%"
         stop-color="#9b9b9b"
         stop-opacity="1"
         id="stop27" />
      <stop
         offset="100%"
         stop-color="#c9c9c9"
         stop-opacity="1"
         id="stop29" />
    </radialGradient>
    <radialGradient
       id="gradient-16">
      <stop
         offset="0%"
         stop-color="#9b9b9b"
         stop-opacity="1"
         id="stop32" />
      <stop
         offset="100%"
         stop-color="#c9c9c9"
         stop-opacity="1"
         id="stop34" />
    </radialGradient>
    <linearGradient
       inkscape:collect="always"
       xlink:href="#linearGradient948"
       id="linearGradient950"
       x1="-18.658924"
       y1="-53.922951"
       x2="376.05798"
       y2="264.99231"
       gradientUnits="userSpaceOnUse"
       gradientTransform="translate(178.98305,195.25424)" />
  </defs>
  <g
     id="g3855"
     transform="rotate(178.6991,369.79335,325.73919)">
    <path
       inkscape:connector-curvature="0"
       style="fill:url(#linearGradient950);fill-opacity:1"
       id="path39"
       class=""
       d="m 462.71905,224.46924 c -2.334,-0.015 -4.68,10e-4 -7.035,0.049 -32.975,0.664 -67.786,7.496 -98.318,21.232 -34.895,15.698 -64.057,40.163 -79.979,74.672 -15,32.512 -18.36,74.591 -2.508,128.285 4.432,-2.026 8.935,-3.891 13.502,-5.59 -9.866,-43.961 -5.617,-80.245 8.301,-109.01 15.464,-31.958 42.464,-54.15 72.95,-68.302 30.484,-14.153 64.583,-20.494 95.738,-20.95 1.947,-0.028 3.882,-0.035 5.804,-0.019 22.847,0.186 43.814,3.494 60.614,9.836 7.12,-3.36 13.61,-6.894 18.914,-10.852 -20.447,-11.111 -49.38,-18.154 -81.016,-19.212 -2.322,-0.078 -4.644,-0.125 -6.967,-0.14 z" />
    <path
       inkscape:connector-curvature="0"
       style="fill:url(#gradient-3)"
       id="path41"
       class=""
       d="m 471.01205,262.84224 c -1.78,-0.019 -3.574,-0.015 -5.379,0.012 -28.88,0.421 -60.75,6.43 -88.421,19.277 -27.671,12.847 -51.013,32.303 -64.327,59.818 -11.852,24.495 -16.052,55.773 -7.242,95.895 12.372,-2.904 23.747,-3.494 33.565,-1.195 9.93,2.325 18.916,9.147 21.732,19.312 0.306,1.106 0.52,2.235 0.701,3.373 l 102.203,-102.203 c -11.857,-18.99 -15.828,-34.784 -12.218,-48.416 4.005,-15.125 16.44,-24.638 30.048,-31.797 7.436,-3.912 15.487,-7.412 23.547,-10.8 -10.343,-1.974 -21.956,-3.15 -34.209,-3.276 z" />
  </g>
  <path
     d="m 375.086,135.914 -48.508,9.701 -34.242,34.242 h 38.807 v 38.805 l 34.242,-34.242 z"
     class=""
     id="path43"
     inkscape:connector-curvature="0"
     style="fill:#8b572a;fill-opacity:1" />
  <g
     id="g3859"
     transform="rotate(-179.08183,452.96125,208.69647)">
    <path
       inkscape:connector-curvature="0"
       style="fill:url(#gradient-5);fill-opacity:1"
       id="path45"
       class=""
       d="m 806.63739,89.179305 c -3.956,5.301 -7.489,11.788005 -10.848,18.905005 6.876,18.213 10.179,41.335 9.812,66.427 -0.455,31.155 -6.796,65.254 -20.949,95.739 -14.153,30.485 -36.344,57.485 -68.303,72.949 -28.764,13.918 -65.048,18.167 -109.01,8.3 -1.699,4.567 -3.564,9.071 -5.59,13.503 53.695,15.852 95.774,12.492 128.286,-2.508 34.51,-15.922 58.974,-45.084 74.672,-79.979 15.698,-34.894 22.379,-75.376 21.142,-112.32 -1.058,-31.637 -8.1,-60.569 -19.212,-81.016005 z" />
    <path
       inkscape:connector-curvature="0"
       style="fill:url(#gradient-6)"
       id="path47"
       class=""
       d="m 784.34039,134.65931 c -3.39,8.06 -6.89,16.112 -10.801,23.548 -7.159,13.608 -16.672,26.043 -31.797,30.048 -13.632,3.61 -29.425,-0.361 -48.416,-12.218 l -102.203,102.203 c 1.138,0.181 2.267,0.395 3.373,0.701 10.165,2.816 16.987,11.802 19.312,21.732 2.3,9.818 1.709,21.193 -1.195,33.565 40.122,8.81 71.4,4.61 95.895,-7.242 27.515,-13.314 46.971,-36.656 59.818,-64.327 12.847,-27.67 18.856,-59.542 19.277,-88.421 0.208,-14.228 -1.004,-27.742 -3.263,-39.588 z" />
  </g>
  <path
     d="m 279.609,197.857 v 33.534 h 33.534 v -33.534 z"
     class=""
     id="path49"
     inkscape:connector-curvature="0"
     style="fill:#000000;fill-opacity:1" />
  <path
     d="m 261.609,210.584 -34.244,34.244 -9.699,48.506 48.506,-9.7 34.244,-34.243 h -38.807 z"
     class=""
     id="path51"
     inkscape:connector-curvature="0"
     style="fill:#8b572a;fill-opacity:1" />
  <path
     d="m 204.419,267.774 -37.034,37.035 38.806,38.806 37.036,-37.035 -48.508,9.701 z"
     class=""
     id="path53"
     inkscape:connector-curvature="0"
     style="fill:#8b572a;fill-opacity:1" />
  <path
     d="m 154.659,317.535 -25.925,25.922 38.809,38.809 25.922,-25.924 z"
     class=""
     id="path55"
     inkscape:connector-curvature="0"
     style="fill:#000000;fill-opacity:1" />
  <path
     d="M 116.008,356.185 15,457.194 V 496 H 53.807 L 154.814,394.992 Z"
     class="selected"
     id="path57"
     inkscape:connector-curvature="0"
     style="fill:#8b572a;fill-opacity:1" />
  <path
     id="path3716"
     class=""
     d="m 372.05842,42.882699 14.7265,18.412575 c -5.20375,0.667322 -10.38201,2.206306 -15.34318,4.672177 z"
     inkscape:connector-curvature="0"
     style="fill:#9b9b9b;fill-opacity:1;stroke-width:0.45765972" />
  <path
     id="path3718"
     class=""
     d="m 432.31517,49.69491 -9.581,41.747227 c -9.80674,2.623267 -22.93489,-4.613729 -24.51458,-16.304296 l 10.21316,-7.621282 c -0.0646,-0.01104 -0.12971,-0.01841 -0.19479,-0.02991 l 14.63047,-10.74251 9.4472,-7.048765 z"
     inkscape:connector-curvature="0"
     style="fill:#9b9b9b;fill-opacity:1;stroke-width:0.45765972" />
  <path
     id="path3720"
     class=""
     d="m 393.31986,74.412486 c 2.22094,0.01933 4.42869,0.212622 6.60458,0.571596 -2.48036,1.751146 -3.7219,2.716232 -7.43379,5.222603 l 0.0978,1.80131 c 0.882,17.086674 19.32858,27.489075 33.39789,22.211715 l 1.3799,-0.51499 0.33223,-1.45062 1.75901,-7.653502 c 0.81283,1.290463 1.55967,2.622347 2.23733,3.990128 10.76065,21.664044 2.14539,47.968054 -19.27215,58.846784 -1.10092,0.55871 -2.22413,1.07094 -3.36737,1.5353 l 5.33436,-11.48576 0.62669,-1.35214 -0.77051,-1.26285 c -6.63871,-10.94178 -22.25904,-15.29687 -34.12197,-9.34619 -2.83853,1.42393 -5.3726,3.3992 -7.45701,5.81261 l -0.97849,1.11834 0.39914,1.44095 4.03365,14.76854 c -9.17004,-3.90821 -17.06258,-11.01404 -21.88813,-20.72888 -1.26885,-2.55101 -2.29012,-5.22076 -3.04925,-7.97105 l 2.35157,1.79211 1.17054,0.89467 1.38809,-0.49888 c 14.14031,-5.07625 21.68606,-25.02183 11.52342,-38.701937 l -1.14961,-1.059892 -1.19694,-0.04326 -7.62539,0.473108 c 3.96675,-5.636803 9.31294,-10.406547 15.86063,-13.732114 l 6.5e-4,-6.57e-4 c 6.37202,-3.236744 13.1509,-4.735688 19.81328,-4.676779 z"
     inkscape:connector-curvature="0"
     style="fill:#4a4a4a;fill-opacity:1;stroke-width:0.45765972" />
  <path
     id="path3722"
     class=""
     d="m 436.49401,87.946288 25.17813,1.382968 -20.18784,15.618564 c -0.62441,-5.864152 -2.28693,-11.567227 -4.90837,-16.835852 -0.0273,-0.05523 -0.0546,-0.110453 -0.0828,-0.16568 z"
     inkscape:connector-curvature="0"
     style="fill:#c9c9c9;fill-opacity:1;stroke-width:0.45765972" />
  <path
     id="path3724"
     class=""
     d="m 364.02206,89.964363 c 6.2059,9.995108 0.71089,24.065027 -8.47736,28.410907 L 321.719,92.566 Z"
     inkscape:connector-curvature="0"
     style="fill:#9b9b9b;fill-opacity:1;stroke-width:0.45765972" />
  <path
     id="path3726"
     class=""
     d="m 391.56996,130.56564 c 6.75613,0.0115 13.49951,3.03516 17.19684,8.03548 l -19.06735,41.04585 -11.92164,-43.67464 c 1.46318,-1.44234 3.0902,-2.61314 4.85512,-3.45765 2.79166,-1.33695 5.86548,-1.95411 8.93657,-1.94904 z"
     inkscape:connector-curvature="0"
     style="fill:#9b9b9b;fill-opacity:1;stroke-width:0.45765972" />
  <path
     id="path3730"
     class="selected"
     d="m 433.03926,138.42761 9.97695,25.74576 -23.34722,-12.59766 c 5.25699,-3.46502 9.7981,-7.93055 13.37027,-13.1481 z"
     inkscape:connector-curvature="0"
     style="fill:#9b9b9b;fill-opacity:1;stroke-width:0.45765972" />
</svg>
