<svg xmlns="http://www.w3.org/2000/svg" viewBox="0 0 512 512" style="height: 64px; width: 64px;"><g class="" transform="translate(0,0)" style="touch-action: none;"><g><path d="M245.625 14.656L245.625 156.186C217.912 162.216 196.75 194.591 196.75 233.656C196.75 249.208 200.116 263.69 205.906 275.876C202.656 272.596 199.502 268.966 196.5 264.906C162.96 219.566 162.96 143.002 196.5 97.656L181.5 86.531C142.212 139.651 142.208 222.918 181.5 276.031C184.043 279.471 186.702 282.701 189.47 285.721C134.18 263.356 96.063 213.569 96.063 156.313L77.374 156.313C77.374 218.043 115.811 271.323 171.812 298.251C150.604 305.499 131.335 315.449 114.812 327.595C78.522 354.27 55.218 392.027 55.218 434.095L73.904 434.095C73.904 398.905 93.236 366.647 125.874 342.657C142.184 330.667 161.777 320.861 183.624 314.063C181.446 316.087 179.332 318.23 177.279 320.47C134.802 366.835 134.802 441.257 177.279 487.625L191.063 475C158.8 439.782 155.721 384.046 181.813 344.906C186.026 358.424 198.696 368.344 213.533 368.344C216.783 368.344 219.929 367.854 222.907 366.969C223.36 368.779 223.95 370.533 224.687 372.219C220.115 378.446 217.407 386.145 217.407 394.469C217.407 409.257 225.939 422.049 238.345 428.186C237.519 424.086 237.065 419.626 237.065 414.936C237.065 395.236 245.078 379.249 254.97 379.249C264.86 379.249 272.875 395.236 272.875 414.937C272.875 419.627 272.419 424.087 271.595 428.187C283.999 422.047 292.531 409.257 292.531 394.467C292.531 386.252 289.874 378.653 285.407 372.467C286.183 370.737 286.809 368.927 287.282 367.061C290.162 367.885 293.186 368.343 296.315 368.343C311.185 368.343 323.881 358.378 328.065 344.813C354.225 383.956 351.167 439.753 318.877 474.999L332.657 487.624C375.137 441.256 375.137 366.834 332.657 320.468C330.607 318.228 328.491 316.084 326.315 314.06C348.16 320.858 367.753 330.664 384.065 342.654C416.702 366.644 436.033 398.904 436.033 434.092L454.723 434.092C454.723 392.024 431.418 354.267 395.128 327.592C378.604 315.446 359.336 305.496 338.128 298.248C394.128 271.318 432.566 218.04 432.566 156.31L413.878 156.31C413.878 213.566 375.76 263.353 320.472 285.717C323.237 282.697 325.896 279.467 328.439 276.027C367.731 222.917 367.731 139.647 328.439 86.527L313.439 97.653C346.981 142.998 346.979 219.566 313.439 264.903C310.452 268.943 307.299 272.543 304.064 275.809C309.834 263.629 313.189 249.182 313.189 233.653C313.189 194.588 292.027 162.213 264.314 156.183L264.314 14.657L245.627 14.657Z" class="selected" fill="#000000" fill-opacity="1" stroke="#8b572a" stroke-opacity="1" stroke-width="10"></path><path d="M255.095 296.156C263.232 296.156 269.625 302.554 269.625 310.686C269.625 318.821 263.232 325.219 255.095 325.219C246.955 325.219 240.595 318.821 240.595 310.686C240.595 302.553 246.961 296.156 255.095 296.156Z" class="" fill="#c9c9c9" fill-opacity="1" stroke="#4a4a4a" stroke-opacity="1" stroke-width="10"></path><path d="M213.531 320.594C221.671 320.594 228.063 326.992 228.063 335.124C228.063 343.258 221.67 349.656 213.533 349.656C205.393 349.656 199.001 343.26 199.001 335.126C199.001 326.992 205.399 320.594 213.531 320.594Z" class="" fill="#c9c9c9" fill-opacity="1" stroke="#4a4a4a" stroke-opacity="1" stroke-width="10"></path><path d="M296.313 320.594C304.451 320.594 310.845 326.992 310.845 335.124C310.845 343.258 304.451 349.656 296.315 349.656C288.175 349.656 281.782 343.26 281.782 335.126C281.782 326.992 288.182 320.594 296.315 320.594Z" class="" fill="#c9c9c9" fill-opacity="1" stroke="#4a4a4a" stroke-opacity="1" stroke-width="10"></path><path d="M255.095 344.469C263.233 344.469 269.625 350.866 269.625 358.999C269.625 367.132 263.233 373.529 255.095 373.529C246.957 373.529 240.595 367.134 240.595 358.999C240.595 350.866 246.962 344.469 255.095 344.469Z" class="" fill="#c9c9c9" fill-opacity="1" stroke="#4a4a4a" stroke-opacity="1" stroke-width="10"></path></g></g></svg>