<?xml version="1.0" encoding="UTF-8" standalone="no"?>
<svg
   xmlns:dc="http://purl.org/dc/elements/1.1/"
   xmlns:cc="http://creativecommons.org/ns#"
   xmlns:rdf="http://www.w3.org/1999/02/22-rdf-syntax-ns#"
   xmlns:svg="http://www.w3.org/2000/svg"
   xmlns="http://www.w3.org/2000/svg"
   xmlns:sodipodi="http://sodipodi.sourceforge.net/DTD/sodipodi-0.dtd"
   xmlns:inkscape="http://www.inkscape.org/namespaces/inkscape"
   viewBox="0 0 512 512"
   style="height: 64px; width: 64px;"
   version="1.1"
   id="svg12"
   sodipodi:docname="immobilized.svg"
   inkscape:export-filename="/home/plic/Documents/dev/cofbazar.github.io/images/resources/immobilized.png"
   inkscape:export-xdpi="24"
   inkscape:export-ydpi="24"
   inkscape:version="0.92.3 (2405546, 2018-03-11)">
  <metadata
     id="metadata18">
    <rdf:RDF>
      <cc:Work
         rdf:about="">
        <dc:format>image/svg+xml</dc:format>
        <dc:type
           rdf:resource="http://purl.org/dc/dcmitype/StillImage" />
      </cc:Work>
    </rdf:RDF>
  </metadata>
  <defs
     id="defs16" />
  <sodipodi:namedview
     pagecolor="#ffffff"
     bordercolor="#666666"
     borderopacity="1"
     objecttolerance="10"
     gridtolerance="10"
     guidetolerance="10"
     inkscape:pageopacity="0"
     inkscape:pageshadow="2"
     inkscape:window-width="863"
     inkscape:window-height="480"
     id="namedview14"
     showgrid="false"
     inkscape:zoom="0.4609375"
     inkscape:cx="256"
     inkscape:cy="256"
     inkscape:window-x="2485"
     inkscape:window-y="211"
     inkscape:window-maximized="0"
     inkscape:current-layer="svg12" />
  <g
     class=""
     transform="matrix(1.7922371,0,0,1.0943252,-197.39068,-21.977593)"
     id="g10">
    <g
       id="g8">
      <path
         d="m 348.963,291.017 h -20.2 l -3.26,-86.73 -15.38,-0.154 -0.65,67.563 4.643,90.473 c -0.424,4.654 -8.926,6.93 -17.8,6.93 -9.972,0 -20.44,-2.866 -20.512,-8.42 l -8.367,-87.422 h -19.55 l -12.08,86.305 c 0,5.885 -11.13,8.926 -21.722,8.926 -9.31,0 -18.287,-2.39 -18.72,-7.303 l 5.595,-89.47 0.062,-67.584 -15.298,0.155 -3.29,86.72 H 162.97 C 149.635,220.092 165.884,142 221.977,133.3 c -9.072,-11.378 -14.895,-27.172 -14.895,-44.683 0,-34.59 22.02,-62.517 49.06,-62.517 0.95,0 1.922,-0.082 2.884,-0.103 h 0.952 c 0.412,0.01 0.822,0.044 1.23,0.103 24.69,3.207 43.97,30.09 43.97,62.516 0,17.955 -6.144,33.977 -15.62,45.406 51.376,9.67 74.515,84.164 59.403,156.99 z"
         class=""
         id="path2"
         inkscape:connector-curvature="0"
         style="fill:#8b572a;fill-opacity:1" />
      <path
         d="m 369.773,348.433 c -9.308,-6.6 -23.55,-12.008 -40.607,-15.99 0,0 1.613,23.427 1.437,31.236 -0.093,4.2 -2.772,14.48 -16.745,19.33 -5.678,1.833 -11.618,2.728 -17.584,2.65 -6.679,0.084 -13.325,-0.966 -19.653,-3.104 -10.435,-3.806 -16.88,-11.502 -17.396,-20.687 l -2.876,-29.996 -4.137,29.406 c -0.444,5.337 -3.298,15.298 -17.696,20.562 -6.583,2.237 -13.498,3.339 -20.45,3.26 -6.166,0.077 -12.303,-0.849 -18.172,-2.742 -14.243,-4.986 -16.964,-15.38 -17.036,-19.653 -0.124,-7.478 1.676,-29.85 1.676,-29.85 -29.872,7.322 -45.356,17.873 -47.176,25.734 -1.17,5.07 5.09,10.344 8.926,13.085 29.344,20.76 106.96,29.727 169.486,19.59 42.822,-6.94 64.677,-20.262 66.86,-29.706 1.24,-5.11 -5.027,-10.396 -8.865,-13.127 z"
         class=""
         id="path4"
         inkscape:connector-curvature="0"
         style="fill:#4a4a4a;fill-opacity:1" />
      <path
         d="m 164.48,462.21 c 4.85,11.275 39.16,23.79 91.537,23.79 53.786,0 87.61,-14.222 91.094,-22.983 4.677,-14.77 16.87,-54.034 21.412,-68.66 -57.147,27.142 -172.455,26.108 -225.02,-0.247 4.85,15.753 16.436,53.392 20.977,68.09 z"
         class="selected"
         id="path6"
         inkscape:connector-curvature="0"
         style="fill:#9b9b9b;fill-opacity:1" />
    </g>
  </g>
</svg>
