<svg xmlns="http://www.w3.org/2000/svg" viewBox="0 0 512 512" style="height: 64px; width: 64px;"><g class="" transform="translate(0,0)" style="touch-action: none;"><g><path d="M341.79 95.5L65.54 166.379L193.38 224.489L469.405 151.849L341.789 95.5Z" class="" fill="#8b572a" stroke="#4a4a4a" stroke-opacity="1" stroke-width="10" fill-opacity="1"></path><path d="M340.213 114.484L415.071 147.543L342.52 166.633L265.262 133.717L340.213 114.484Z" class="" fill="#b57204" fill-opacity="1" stroke="#4a4a4a" stroke-opacity="1" stroke-width="10"></path><path d="M483.026 166.879L194.864 242.71L191.807 243.515L191.805 243.515L191.764 243.525L188.907 242.225L44.73 178.15L44.546 178.058C38.961 175.265 36.534 176.066 33.776 178.168C31.019 180.268 28.261 185.048 27.501 191.124C25.982 203.277 31.117 218.704 51.417 225.47L51.829 225.609L193.338 288.5L366.573 242.912L366.573 212.45L442.573 194.105L442.573 222.911L484.746 211.814C480.386 197.777 479.416 182.668 483.026 166.88Z" class="selected" fill="#c7a573" fill-opacity="1" stroke="#4a4a4a" stroke-opacity="1" stroke-width="10"></path><path d="M424.573 216.965L384.573 226.621L384.573 329.807L406.52 307.859L424.573 320.357L424.573 216.965Z" class="" fill="#8d0d1d" fill-opacity="1" stroke="#4a4a4a" stroke-opacity="1" stroke-width="10"></path><path d="M483.026 230.879L442.573 241.525L442.573 286.91L484.746 275.812C480.386 261.776 479.416 246.667 483.026 230.879Z" class="" fill="#8d0d1d" fill-opacity="1" stroke="#4a4a4a" stroke-opacity="1" stroke-width="10"></path><path d="M38.42 240.268C36.617 240.304 35.243 241.05 33.778 242.166C31.02 244.267 28.262 249.046 27.502 255.123C25.983 267.276 31.118 282.702 51.418 289.469L51.83 289.607L193.338 352.5L366.573 306.912L366.573 261.525L191.807 307.515L45.187 242.354C43.561 241.797 41.959 241.171 40.385 240.48C39.741 240.331 39.081 240.26 38.42 240.268Z" class="" fill="#c7a573" fill-opacity="1" stroke="#4a4a4a" stroke-opacity="1" stroke-width="10"></path><path d="M45.188 242.354L45.209 242.362L44.93 242.237L45.188 242.354Z" class="" fill="#8d0d1d" fill-opacity="1" stroke="#4a4a4a" stroke-opacity="1" stroke-width="10"></path><path d="M483.026 294.879L442.573 305.525L442.573 350.91L484.746 339.813C480.386 325.776 479.416 310.667 483.026 294.879Z" class="" fill="#8d0d1d" fill-opacity="1" stroke="#4a4a4a" stroke-opacity="1" stroke-width="10"></path><path d="M38.42 304.268C36.617 304.304 35.243 305.05 33.778 306.166C31.02 308.267 28.262 313.046 27.502 319.123C25.983 331.276 31.118 346.702 51.418 353.469L51.83 353.607L193.338 416.5L366.573 370.912L366.573 325.525L191.807 371.515L45.187 306.354C43.561 305.797 41.959 305.171 40.385 304.48C39.741 304.331 39.081 304.26 38.42 304.268Z" class="" fill="#c7a573" fill-opacity="1" stroke="#4a4a4a" stroke-opacity="1" stroke-width="10"></path><path d="M45.188 306.354L45.209 306.362L44.93 306.237L45.188 306.354Z" class="" fill="#ffffd4" fill-opacity="1" stroke="#4a4a4a" stroke-opacity="1" stroke-width="10"></path><path d="M408.625 331.209L369.762 370.072L438.596 351.957L408.626 331.209Z" class="" fill="#b57204" fill-opacity="1" stroke="#4a4a4a" stroke-opacity="1" stroke-width="10"></path></g></g></svg>