<?xml version="1.0" encoding="UTF-8" standalone="no"?>
<svg
   xmlns:dc="http://purl.org/dc/elements/1.1/"
   xmlns:cc="http://creativecommons.org/ns#"
   xmlns:rdf="http://www.w3.org/1999/02/22-rdf-syntax-ns#"
   xmlns:svg="http://www.w3.org/2000/svg"
   xmlns="http://www.w3.org/2000/svg"
   xmlns:sodipodi="http://sodipodi.sourceforge.net/DTD/sodipodi-0.dtd"
   xmlns:inkscape="http://www.inkscape.org/namespaces/inkscape"
   viewBox="0 0 512 512"
   style="height: 64px; width: 64px;"
   version="1.1"
   id="svg22"
   sodipodi:docname="magic-wand-agrandissement.svg"
   inkscape:version="0.92.3 (2405546, 2018-03-11)"
   inkscape:export-filename="/home/plic/Téléchargements/magic-wand-agrandissement.png"
   inkscape:export-xdpi="24"
   inkscape:export-ydpi="24">
  <metadata
     id="metadata28">
    <rdf:RDF>
      <cc:Work
         rdf:about="">
        <dc:format>image/svg+xml</dc:format>
        <dc:type
           rdf:resource="http://purl.org/dc/dcmitype/StillImage" />
        <dc:title></dc:title>
      </cc:Work>
    </rdf:RDF>
  </metadata>
  <defs
     id="defs26" />
  <sodipodi:namedview
     pagecolor="#ffffff"
     bordercolor="#666666"
     borderopacity="1"
     objecttolerance="10"
     gridtolerance="10"
     guidetolerance="10"
     inkscape:pageopacity="0"
     inkscape:pageshadow="2"
     inkscape:window-width="1417"
     inkscape:window-height="744"
     id="namedview24"
     showgrid="false"
     inkscape:zoom="0.921875"
     inkscape:cx="290.65254"
     inkscape:cy="234.00995"
     inkscape:window-x="2420"
     inkscape:window-y="304"
     inkscape:window-maximized="0"
     inkscape:current-layer="svg22" />
  <path
     d="m 354.92882,3.8072021 c -82.33713,0 -149.07349,66.7310219 -149.07349,149.0721479 0,82.33446 66.73103,149.07214 149.07215,149.07214 82.33446,0 149.11213,-66.73101 149.11213,-149.07214 0,-82.334463 -66.77367,-149.0721479 -149.11346,-149.0721479 z"
     class=""
     id="path2"
     inkscape:connector-curvature="0"
     style="fill:#f8e71c;fill-opacity:1;stroke-width:1.33248842" />
  <path
     d="m 354.38622,16.894216 c 75.40063,0 136.53154,61.133827 136.53154,136.531534 0,75.40357 -61.13531,136.53152 -136.53154,136.53152 -75.40504,0 -136.48749,-61.13383 -136.48749,-136.53152 0,-48.49659 25.26274,-91.069472 63.3565,-115.288403 -6.99833,8.409168 -11.23962,19.214244 -11.23962,31.011742 0,26.802753 21.73641,48.537691 48.53916,48.537691 26.80129,0 48.5377,-21.734938 48.5377,-48.537691 0,-25.638566 -19.91012,-46.582209 -45.09946,-48.35565 10.38374,-2.525099 21.22846,-3.899223 32.39174,-3.899223 z"
     class=""
     id="path4"
     inkscape:connector-curvature="0"
     style="fill:#f4f0c2;fill-opacity:1;stroke-width:1.468081" />
  <path
     d="m 190.89805,206.70157 c -0.97553,8.98966 -2.70059,17.20442 -5.189,24.6835 l 90.51925,90.51926 c 7.43065,-2.50572 15.59353,-4.30457 24.50362,-5.33314 L 190.89805,206.70272 Z"
     class=""
     id="path8"
     inkscape:connector-curvature="0"
     style="fill:#9b9b9b;fill-opacity:1;stroke-width:1.15311146" />
  <path
     d="m 183.76346,243.9266 c -5.66178,8.45807 -12.77417,15.44362 -21.33256,21.00739 l 80.24964,80.28539 c 5.58337,-8.54456 12.59198,-15.65926 21.04428,-21.33257 z"
     class=""
     id="path10"
     inkscape:connector-curvature="0"
     style="fill:#4a4a4a;fill-opacity:1;stroke-width:1.15311146" />
  <path
     d="m 149.74638,268.73543 c -7.38683,2.46305 -15.44938,4.28497 -24.17844,5.40464 37.52686,36.56747 72.12136,72.12251 109.76123,109.76238 1.15657,-8.68755 2.99232,-16.71781 5.47728,-24.07121 l -91.05891,-91.09581 z"
     class=""
     id="path12"
     inkscape:connector-curvature="0"
     style="fill:#9b9b9b;fill-opacity:1;stroke-width:1.15311146" />
  <path
     d="M 139.65752,302.71561 3.0853044,438.89116 v 25.29581 L 152.12497,315.1819 139.65752,302.71677 Z"
     class="selected"
     id="path14"
     inkscape:connector-curvature="0"
     style="fill:#592f0a;fill-opacity:1;stroke-width:1.15311146" />
  <path
     d="M 167.3322,330.39029 3.0853044,494.63488 v 15.67655 H 65.030454 L 206.14017,369.19941 Z"
     class=""
     id="path16"
     inkscape:connector-curvature="0"
     style="fill:#8b572a;fill-opacity:1;stroke-width:1.15311146" />
  <g
     id="g944"
     class=""
     transform="matrix(0.4775839,0,0,0.4775839,227.67951,20.780323)">
    <g
       id="g942">
      <path
         id="path936"
         class=""
         d="m 357.796,17.533 c -0.686,-0.01 -1.372,-0.009 -2.058,0.003 -2.574,0.046 -5.301,0.247 -8.203,0.621 -4.663,3.477 -4.538,13.246 -8.952,18.954 -9.888,-2.176 -17.187,5.81 -16.779,13.777 l 13.6,8.93 c -13.526,22.345 -33.82,39.466 -39.022,63 -16.566,-2.885 -38.03,-4.903 -54.232,-3.256 -0.317,0.713 -0.632,1.426 -0.967,2.137 -7.961,16.865 -19.716,30.123 -33.039,38.064 -13.323,7.941 -28.946,10.586 -42.514,4.098 -12.117,-5.795 -19.646,-17.476 -22.757,-30.885 -28.118,-3.618 -60.113,34.404 -89.708,60.709 -19.094,27.134 4.077,80.52 -2.126,98.36 -3.741,10.756 4.885,33.1 20.544,36.263 15.336,3.098 26.122,-9.397 33.727,-21.799 2.006,-3.27 -25.782,-19.36 -27.326,-28.098 -1.844,-10.43 -0.717,-41.722 2.525,-60.271 18.983,-1.913 35.11,-17.272 44.768,-25.108 8.071,36.793 14.738,80.07 29.758,117.065 -8.645,51.14 -18.984,98.52 -16.819,150.85 l -44.894,7.75 c -4.62,7.753 -6.843,16.91 -0.02,25.365 0,0 74.398,0.412 77.207,0.412 1.673,-0.32 2.503,-20.515 1.455,-30.611 2.354,-31.588 22.146,-69.96 38.055,-102.399 27.546,-37.452 63.778,-46.092 93.254,-86.709 29.25,22.461 46.953,45.293 59.545,77.008 28.265,-35.233 33.557,-36.365 63.638,-55.832 -1.861,-8.516 -2.47,-17.504 -14.537,-22.193 -20.54,7.464 -11.65,1.68 -39.459,18.836 -14.72,-21.902 -29.08,-50.748 -57.85,-62.114 -3.86,-0.917 -45.101,11.195 -76.636,38.158 4.707,-23.282 9.712,-56.212 11.414,-87.923 20.94,-4.93 45.912,-20.178 65.79,-28.711 36.293,-29.313 30.23,-54.157 42.88,-83.47 l 7.45,-1.99 c 8.9,-14.321 14.563,-28.469 16.894,-42.79 -6.779,-3.49 -14.48,-6.059 -24.606,-6.201 z"
         inkscape:connector-curvature="0"
         style="fill:#634124;fill-opacity:1" />
      <path
         id="path938"
         class="selected"
         d="m 209.613,50.449 c -5.176,-0.044 -10.926,1.668 -16.985,5.279 -9.693,5.778 -19.438,16.398 -26.007,30.314 -6.57,13.916 -8.595,28.229 -6.922,39.442 1.672,11.213 6.592,18.74 13.615,22.1 7.023,3.358 15.93,2.441 25.623,-3.337 9.693,-5.778 19.439,-16.398 26.008,-30.314 6.569,-13.916 8.594,-28.229 6.922,-39.442 -1.673,-11.213 -6.595,-18.739 -13.618,-22.097 -2.633,-1.26 -5.531,-1.92 -8.636,-1.945 z"
         inkscape:connector-curvature="0"
         style="fill:#c49f61;fill-opacity:1;stroke:#8b572a;stroke-width:10;stroke-opacity:1" />
      <path
         id="path940"
         class=""
         d="m 450.296,337.197 c -3.779,0.138 -7.868,1.97 -11.93,5.83 -4.022,3.899 -7.021,9.026 -9.044,15.04 -2.023,6.015 -3.23,12.023 -1.899,17.495 3.899,16.016 -2.949,1.262 -3.861,-5.362 -0.577,-4.372 -0.545,-9.899 -1.203,-17.808 l -17.938,1.492 c 0.386,4.632 0.489,8.563 0.73,12.451 l -16.394,1.125 c 5.088,21.17 3.951,49.462 33.041,47.12 -7.946,22.393 -21.154,45.923 -36.644,71.36 l 15.373,9.362 c 8.272,-13.583 16.136,-26.867 22.998,-40.012 4.99,14.721 13.158,27.42 19.707,39.594 l 15.851,-8.527 c -8.94,-16.62 -18.234,-31.036 -21.162,-47.25 5.111,-16.052 10.005,-32.737 11.55,-49.875 7.515,-3.86 12.499,-12.384 14.83,-19.149 2.022,-6.014 2.736,-11.925 1.898,-17.494 -2.602,-9.75 -8.688,-15.657 -15.903,-15.392 z"
         inkscape:connector-curvature="0"
         style="fill:#b57204;fill-opacity:1" />
    </g>
  </g>
</svg>
