<?xml version="1.0" encoding="UTF-8" standalone="no"?>
<svg
   xmlns:dc="http://purl.org/dc/elements/1.1/"
   xmlns:cc="http://creativecommons.org/ns#"
   xmlns:rdf="http://www.w3.org/1999/02/22-rdf-syntax-ns#"
   xmlns:svg="http://www.w3.org/2000/svg"
   xmlns="http://www.w3.org/2000/svg"
   xmlns:sodipodi="http://sodipodi.sourceforge.net/DTD/sodipodi-0.dtd"
   xmlns:inkscape="http://www.inkscape.org/namespaces/inkscape"
   viewBox="0 0 512 512"
   style="height: 64px; width: 64px;"
   version="1.1"
   id="svg22"
   sodipodi:docname="magic-wand-aspect-de-la-succube.svg"
   inkscape:version="0.92.3 (2405546, 2018-03-11)"
   inkscape:export-filename="/home/plic/Téléchargements/magic-wand-aspect-de-la-succube.png"
   inkscape:export-xdpi="24"
   inkscape:export-ydpi="24">
  <metadata
     id="metadata28">
    <rdf:RDF>
      <cc:Work
         rdf:about="">
        <dc:format>image/svg+xml</dc:format>
        <dc:type
           rdf:resource="http://purl.org/dc/dcmitype/StillImage" />
        <dc:title></dc:title>
      </cc:Work>
    </rdf:RDF>
  </metadata>
  <defs
     id="defs26" />
  <sodipodi:namedview
     pagecolor="#ffffff"
     bordercolor="#666666"
     borderopacity="1"
     objecttolerance="10"
     gridtolerance="10"
     guidetolerance="10"
     inkscape:pageopacity="0"
     inkscape:pageshadow="2"
     inkscape:window-width="1549"
     inkscape:window-height="955"
     id="namedview24"
     showgrid="false"
     inkscape:zoom="1.0689466"
     inkscape:cx="167.77144"
     inkscape:cy="256.82201"
     inkscape:window-x="2284"
     inkscape:window-y="90"
     inkscape:window-maximized="0"
     inkscape:current-layer="svg22" />
  <path
     d="m 355.94505,-1.6753853 c -84.54035,0 -153.06247,68.5166513 -153.06247,153.0611153 0,84.53762 68.51664,153.0611 153.0611,153.0611 84.53763,0 153.10216,-68.51664 153.10216,-153.0611 0,-84.537623 -68.56043,-153.0611153 -153.10352,-153.0611153 z"
     class=""
     id="path2"
     inkscape:connector-curvature="0"
     style="fill:#417505;fill-opacity:1;stroke-width:1.36814392" />
  <path
     d="m 356.2589,5.7604993 c 80.25117,0 145.31463,65.0665747 145.31463,145.3146307 0,80.25429 -65.06815,145.31461 -145.31463,145.31461 -80.25586,0 -145.26774,-65.06658 -145.26774,-145.31461 0,-51.61638 26.88789,-96.927987 67.43223,-122.704926 -7.44855,8.950131 -11.96268,20.450299 -11.96268,33.006732 0,28.52698 23.13472,51.660124 51.6617,51.660124 28.52541,0 51.66012,-23.133144 51.66012,-51.660124 0,-27.287898 -21.19093,-49.578848 -48.00069,-51.466377 11.05172,-2.6875389 22.59407,-4.1500597 34.4755,-4.1500597 z"
     class=""
     id="path4"
     inkscape:connector-curvature="0"
     style="fill:#d4fba9;fill-opacity:1;stroke-width:1.56252289" />
  <path
     d="m 189.13611,208.95082 c -0.98487,9.07572 -2.72644,17.36913 -5.23868,24.91982 l 91.38587,91.38586 c 7.50179,-2.5297 15.74281,-4.34578 24.73821,-5.3842 L 189.13611,208.95198 Z"
     class=""
     id="path8"
     inkscape:connector-curvature="0"
     style="fill:#9b9b9b;fill-opacity:1;stroke-width:1.16415107" />
  <path
     d="m 181.85663,246.60882 c -5.71598,8.53905 -12.89646,15.59148 -21.53679,21.20851 l 81.01793,81.05402 c 5.63682,-8.62636 12.71253,-15.80917 21.24575,-21.5368 z"
     class=""
     id="path10"
     inkscape:connector-curvature="0"
     style="fill:#4a4a4a;fill-opacity:1;stroke-width:1.16415107" />
  <path
     d="m 147.43729,269.71261 c -7.45755,2.48663 -15.59729,4.32599 -24.40992,5.45638 37.88614,36.91756 72.81183,72.81299 110.81205,110.81321 1.16765,-8.77071 3.02098,-16.87786 5.52972,-24.30165 l -91.93068,-91.96794 z"
     class=""
     id="path12"
     inkscape:connector-curvature="0"
     style="fill:#9b9b9b;fill-opacity:1;stroke-width:1.16415107" />
  <path
     d="M 141.17525,300.0947 3.295527,437.57396 v 25.53798 L 153.76206,312.68034 141.17525,300.09586 Z"
     class=""
     id="path14"
     inkscape:connector-curvature="0"
     style="fill:#592f0a;fill-opacity:1;stroke-width:1.16415107" />
  <path
     d="M 169.11488,328.03433 3.295527,493.85135 v 15.82664 h 62.538197 l 142.460666,-142.463 z"
     class=""
     id="path16"
     inkscape:connector-curvature="0"
     style="fill:#8b572a;fill-opacity:1;stroke-width:1.16415107" />
  <g
     id="g872"
     class=""
     transform="matrix(0.55734318,0,0,0.55734318,224.09204,11.459761)">
    <g
       id="g870">
      <path
         id="path852"
         class=""
         d="m 193.469,28.412 c -17.378,4.426 -17.777,17.713 -24.166,28.545 15.713,3.49 31.499,5.431 47.31,6.824 -19.026,2.612 -37.99,5.671 -57.69,3.434 -3.78,2.08 -8.637,3.668 -15.062,4.521 -38.245,5.079 -85.586,-7.08 -85.586,-7.08 14.725,13.872 31.663,25.12 49.967,33.897 20.597,2.879 41.542,4.01 62.596,4.605 -14.231,1.502 -28.446,3.14 -42.775,3.756 32.652,11.983 65.808,17.573 100.643,15.921 -6.721,12.789 -23.731,33.608 -33.272,39.397 -31.955,-3.837 -47.598,-15.35 -68.774,-31.885 l -11.078,14.184 c 25.514,18.283 58.257,33.97 83.658,36.12 12.047,-5.934 21.5,-16.053 29.97,-26.266 l -0.044,1.138 c 19.632,8.81 23.686,9.035 41.809,0.64 12.495,8.096 28.717,9.24 32.097,-6.782 17.973,16.734 25.381,23.735 43.123,32.507 28.711,-11.692 55.616,-30.207 76.448,-46.279 l -11.014,-14.234 c -21.06,15.793 -43.916,32.285 -64.316,40.746 -17.586,-9.322 -21.863,-16.197 -34.504,-28.453 -4.613,-9.585 -14.124,-13.605 -22.29,-14.487 -6.373,5.265 -14.388,8.419 -22.765,7.182 -10.082,-1.488 -17.546,-8.862 -21.58,-17.723 -4.034,-8.86 -5.23,-19.638 -3.299,-30.898 1.932,-11.26 6.675,-21.16 13.475,-28.422 6.8,-7.261 16.363,-12.121 26.445,-10.633 10.082,1.489 17.55,8.862 21.584,17.723 1.473,3.235 2.563,6.728 3.266,10.404 0.964,-2.271 1.832,-4.582 2.601,-6.926 7.034,-29.675 -21.68,-38.714 -54.35,-39.08 -20.574,0.29 -43.074,2.777 -62.427,7.604 z"
         inkscape:connector-curvature="0"
         style="fill:#f5a623;fill-opacity:1;stroke:#4a4a4a;stroke-width:10;stroke-opacity:1" />
      <path
         id="path854"
         class=""
         d="m 381.047,35.912 c -8.284,0 -15,6.716 -15,15 0,8.284 6.716,15 15,15 8.284,0 15,-6.716 15,-15 0,-8.284 -6.716,-15 -15,-15 z"
         inkscape:connector-curvature="0"
         style="fill:#4a4a4a;fill-opacity:0" />
      <path
         id="path856"
         class=""
         d="m 269.453,61.375 c -3.875,4.138 -7.39,10.945 -8.771,18.996 -1.382,8.05 -0.317,15.534 1.982,20.584 2.3,5.05 5.24,7.239 8.135,7.666 2.895,0.427 6.421,-0.807 10.297,-4.945 3.875,-4.139 7.392,-10.944 8.773,-18.995 1.381,-8.05 0.317,-15.535 -1.982,-20.585 -2.3,-5.05 -5.24,-7.237 -8.135,-7.665 -4.243,-0.231 -8.269,2.82 -10.299,4.944 z"
         inkscape:connector-curvature="0"
         style="fill:#c5a572;fill-opacity:1;stroke:#4a4a4a;stroke-width:10;stroke-opacity:1" />
      <path
         id="path858"
         class=""
         d="m 349.683,84.165 c -6.928,0 -11.258,7.5 -7.794,13.5 1.607,2.785 4.579,4.5 7.794,4.5 6.928,0 11.258,-7.5 7.794,-13.5 -1.607,-2.785 -4.579,-4.5 -7.794,-4.5 z"
         inkscape:connector-curvature="0"
         style="fill:#4a4a4a;fill-opacity:0" />
      <path
         id="path860"
         class="selected"
         d="m 270.461,176.019 c -14.977,6.472 -25.22,5.696 -39.422,0.01 1.657,6.73 4.533,13.244 9.236,19.672 -7.69,7.912 -9.967,15.823 -12.443,23.735 9.483,-6.672 20.662,-11.111 31.904,-13.77 11.493,-2.718 23.226,-3.79 34.174,-3.5 6.357,0.169 12.435,0.81 18.06,1.842 -4.633,-6.1 -10.807,-12.073 -19.199,-16.899 0.955,-2.053 1.832,-4.141 2.631,-6.26 -8.403,1.84 -18.083,-1.48 -24.941,-4.83 z"
         inkscape:connector-curvature="0"
         style="fill:#8b572a;fill-opacity:1;stroke:#4a4a4a;stroke-width:10;stroke-opacity:1" />
      <path
         id="path862"
         class=""
         d="m 286.986,219.512 c -19.483,0.122 -39.377,5.801 -53.25,17.898 -10.861,9.47 -16.423,26.89 -13.629,41.027 11.581,58.596 119.687,76.114 116.93,135.78 -1.093,23.664 -27.954,44.51 -51.144,49.345 -24.584,5.126 -70.604,-26.283 -70.604,-26.283 28.785,-55.458 -0.113,-92.09 -25.201,-113.807 -2.41,30.637 -14.38,61.716 -5.627,91.172 -38.792,-3.27 -54.86,4.952 -98.57,-3.873 18.825,25.928 63.62,59.958 116.382,40.276 0,0 40.045,37.29 65.422,39.492 45.336,3.934 105.162,-9.596 127.28,-49.365 29.11,-52.343 -3.15,-124.766 -33.178,-176.588 -10.785,-18.612 -28.317,-36.327 -49.1,-41.88 -8.083,-2.158 -16.854,-3.25 -25.71,-3.194 z"
         inkscape:connector-curvature="0"
         style="fill:#8b3c00;fill-opacity:1;stroke:#4a4a4a;stroke-width:10;stroke-opacity:1" />
      <path
         id="path864"
         class=""
         d="m 72.008,237.058 c -8.284,0 -15,6.716 -15,15 0,8.285 6.716,15 15,15 8.284,0 15,-6.715 15,-15 0,-8.284 -6.716,-15 -15,-15 z"
         inkscape:connector-curvature="0"
         style="fill:#d0021b;fill-opacity:0" />
      <path
         id="path866"
         class=""
         d="m 56.326,313.355 c -6.928,0 -11.258,7.5 -7.794,13.5 1.607,2.785 4.579,4.5 7.794,4.5 6.928,0 11.258,-7.5 7.794,-13.5 -1.607,-2.785 -4.579,-4.5 -7.794,-4.5 z"
         inkscape:connector-curvature="0"
         style="fill:#d0021b;fill-opacity:0" />
      <path
         id="path868"
         class=""
         d="m 92.707,352.375 c -6.928,0 -11.258,7.5 -7.794,13.5 1.607,2.785 4.579,4.5 7.794,4.5 6.928,0 11.258,-7.5 7.794,-13.5 -1.607,-2.785 -4.579,-4.5 -7.794,-4.5 z"
         inkscape:connector-curvature="0"
         style="fill:#ffffff;fill-opacity:1" />
    </g>
  </g>
</svg>
