<?xml version="1.0" encoding="UTF-8" standalone="no"?>
<svg
   xmlns:dc="http://purl.org/dc/elements/1.1/"
   xmlns:cc="http://creativecommons.org/ns#"
   xmlns:rdf="http://www.w3.org/1999/02/22-rdf-syntax-ns#"
   xmlns:svg="http://www.w3.org/2000/svg"
   xmlns="http://www.w3.org/2000/svg"
   xmlns:sodipodi="http://sodipodi.sourceforge.net/DTD/sodipodi-0.dtd"
   xmlns:inkscape="http://www.inkscape.org/namespaces/inkscape"
   viewBox="0 0 512 512"
   style="height: 64px; width: 64px;"
   version="1.1"
   id="svg22"
   sodipodi:docname="magic-wand-animation-dun-arbre.svg"
   inkscape:version="0.92.3 (2405546, 2018-03-11)"
   inkscape:export-filename="/home/plic/Téléchargements/magic-wand-animation-dun-arbre.png"
   inkscape:export-xdpi="24"
   inkscape:export-ydpi="24">
  <metadata
     id="metadata28">
    <rdf:RDF>
      <cc:Work
         rdf:about="">
        <dc:format>image/svg+xml</dc:format>
        <dc:type
           rdf:resource="http://purl.org/dc/dcmitype/StillImage" />
        <dc:title></dc:title>
      </cc:Work>
    </rdf:RDF>
  </metadata>
  <defs
     id="defs26">
    <clipPath
       id="clipPath1029"
       clipPathUnits="userSpaceOnUse">
      <rect
         y="-75.958313"
         x="-109.31892"
         height="533.14423"
         width="794.11511"
         id="rect1031"
         style="opacity:0.522;fill:none;fill-opacity:1;stroke:#000000;stroke-width:4.22469854;stroke-miterlimit:4;stroke-dasharray:none;stroke-opacity:1" />
    </clipPath>
  </defs>
  <sodipodi:namedview
     pagecolor="#ffffff"
     bordercolor="#666666"
     borderopacity="1"
     objecttolerance="10"
     gridtolerance="10"
     guidetolerance="10"
     inkscape:pageopacity="0"
     inkscape:pageshadow="2"
     inkscape:window-width="1549"
     inkscape:window-height="955"
     id="namedview24"
     showgrid="false"
     inkscape:zoom="0.5344733"
     inkscape:cx="543.79597"
     inkscape:cy="213.33812"
     inkscape:window-x="2284"
     inkscape:window-y="90"
     inkscape:window-maximized="0"
     inkscape:current-layer="svg22" />
  <path
     d="m 355.94505,-1.6753853 c -84.54035,0 -153.06247,68.5166513 -153.06247,153.0611153 0,84.53762 68.51664,153.0611 153.0611,153.0611 84.53763,0 153.10216,-68.51664 153.10216,-153.0611 0,-84.537623 -68.56043,-153.0611153 -153.10352,-153.0611153 z"
     class=""
     id="path2"
     inkscape:connector-curvature="0"
     style="fill:#784421;fill-opacity:1;stroke-width:1.36814392" />
  <path
     d="m 356.2589,5.7604993 c 80.25117,0 145.31463,65.0665747 145.31463,145.3146307 0,80.25429 -65.06815,145.31461 -145.31463,145.31461 -80.25586,0 -145.26774,-65.06658 -145.26774,-145.31461 0,-51.61638 26.88789,-96.927987 67.43223,-122.704926 -7.44855,8.950131 -11.96268,20.450299 -11.96268,33.006732 0,28.52698 23.13472,51.660124 51.6617,51.660124 28.52541,0 51.66012,-23.133144 51.66012,-51.660124 0,-27.287898 -21.19093,-49.578848 -48.00069,-51.466377 11.05172,-2.6875389 22.59407,-4.1500597 34.4755,-4.1500597 z"
     class=""
     id="path4"
     inkscape:connector-curvature="0"
     style="fill:#ffe0af;fill-opacity:1;stroke-width:1.56252289" />
  <path
     d="m 189.13611,208.95082 c -0.98487,9.07572 -2.72644,17.36913 -5.23868,24.91982 l 91.38587,91.38586 c 7.50179,-2.5297 15.74281,-4.34578 24.73821,-5.3842 L 189.13611,208.95198 Z"
     class=""
     id="path8"
     inkscape:connector-curvature="0"
     style="fill:#9b9b9b;fill-opacity:1;stroke-width:1.16415107" />
  <path
     d="m 181.85663,246.60882 c -5.71598,8.53905 -12.89646,15.59148 -21.53679,21.20851 l 81.01793,81.05402 c 5.63682,-8.62636 12.71253,-15.80917 21.24575,-21.5368 z"
     class=""
     id="path10"
     inkscape:connector-curvature="0"
     style="fill:#4a4a4a;fill-opacity:1;stroke-width:1.16415107" />
  <path
     d="m 147.43729,269.71261 c -7.45755,2.48663 -15.59729,4.32599 -24.40992,5.45638 37.88614,36.91756 72.81183,72.81299 110.81205,110.81321 1.16765,-8.77071 3.02098,-16.87786 5.52972,-24.30165 l -91.93068,-91.96794 z"
     class=""
     id="path12"
     inkscape:connector-curvature="0"
     style="fill:#9b9b9b;fill-opacity:1;stroke-width:1.16415107" />
  <path
     d="M 141.17525,300.0947 3.295527,437.57396 v 25.53798 L 153.76206,312.68034 141.17525,300.09586 Z"
     class=""
     id="path14"
     inkscape:connector-curvature="0"
     style="fill:#592f0a;fill-opacity:1;stroke-width:1.16415107" />
  <path
     d="M 169.11488,328.03433 3.295527,493.85135 v 15.82664 h 62.538197 l 142.460666,-142.463 z"
     class=""
     id="path16"
     inkscape:connector-curvature="0"
     style="fill:#8b572a;fill-opacity:1;stroke-width:1.16415107" />
  <g
     id="g1043"
     transform="matrix(0.43745034,0,0,0.43745034,766.40482,0.8799474)">
    <g
       style="fill:#684222;fill-opacity:1"
       transform="translate(-1194.5206,162.90702)"
       class=""
       id="g981">
      <g
         style="fill:#684222;fill-opacity:1"
         id="g979">
        <path
           style="fill:#684222;fill-opacity:1;stroke:#4a4a4a;stroke-width:10;stroke-opacity:1"
           inkscape:connector-curvature="0"
           d="m 233.7,121.6 c -38,6.3 -75.2,41.9 -94,66 -11.5,33.4 -14.5,66.7 -20.7,100 l 28.2,-0.8 c 6.6,-25.2 8.2,-51.9 21,-75.4 14.8,-8.2 26.9,-20.6 38.4,-33.8 -6.4,32.9 -14,72.3 -13.2,101.8 29.8,70.9 95.7,140.4 133,206.4 l 29.9,-24.3 C 327.5,405.8 298.8,355.1 262,301.3 c 2.1,-7.1 43.3,-163.5 28,-171.9 -20.2,9 -40.9,6 -56.3,-7.8 z"
           class="selected"
           id="path973" />
        <path
           style="fill:#684222;fill-opacity:1;stroke:#4a4a4a;stroke-width:10;stroke-miterlimit:4;stroke-dasharray:none;stroke-opacity:1"
           inkscape:connector-curvature="0"
           d="m 305.6,180.2 c -3.1,17.8 -5.3,35.1 -10,52.8 4.5,5.4 7.5,10.5 14.3,15.3 26,15.3 52,26.3 78,36.7 l 9.2,-29.9 -77.5,-37.6 c -4.3,-12.5 -7.9,-25.2 -14,-37.3 z"
           class=""
           id="path975" />
        <path
           style="fill:#684222;fill-opacity:1;stroke:#4a4a4a;stroke-width:10;stroke-miterlimit:4;stroke-dasharray:none;stroke-opacity:1"
           inkscape:connector-curvature="0"
           d="m 187.1,310.1 c -5.1,25 -9.8,50.2 -11.6,76.5 -15.9,31.7 -35.7,51.6 -60.5,76.4 l 30,23.2 c 23.1,-25 49.9,-47 66.7,-73.8 l 14,-42.6 C 210,350.8 197.3,331 187.1,310.1 Z"
           class=""
           id="path977" />
      </g>
    </g>
    <g
       clip-path="url(#clipPath1029)"
       transform="translate(-1186.9516,8.41202)"
       class=""
       id="g1003">
      <path
         id="path997"
         class=""
         d="m 222.156,20.72 c -1.423,0.01 -2.843,0.065 -4.25,0.155 -20.084,1.29 -37.527,10.342 -46.375,27.03 l 17.626,12.532 H 159.845 C 149.512,55.181 160.257,60.171 148.47,55.157 125.312,42.039 99.683,45.517 81.22,57.969 61.158,71.496 50.486,93.775 60.97,118.062 l 3.093,7.156 -6.47,4.31 C 36.158,143.888 24.596,159.921 20.469,177.654 16.34,195.39 19.65,215.64 31,238.5 l 2.47,5.03 -3.25,4.564 c -13.796,19.38 -8.88,38.668 5.968,51.03 10.043,8.364 19.48,9.982 29.656,7.407 10.177,-2.574 21.15,-10.15 30.72,-21.874 l 2.655,-3.25 4.155,-0.187 c 27.728,-1.2 49.69,-11.635 63.97,-27.72 14.28,-16.085 21.22,-37.98 17.718,-63.906 L 184.03,182 l 7.25,-2.5 c 8.066,-2.768 14.73,-8.15 18.814,-15.53 l 5.28,-9.564 8.626,6.72 c 6.39,4.976 22.988,8.397 31.375,5.968 l 10.28,-2.97 1.564,10.595 c 4.3,29.362 24.393,52.534 50.06,60.155 l 8.25,2.438 -1.75,8.437 c -3.162,14.99 1.497,26.075 10.44,33.406 8.94,7.332 22.793,10.683 38.75,6.438 l 6.217,-1.656 3.782,5.25 c 13.513,18.845 29.945,28.087 46.342,29.562 16.398,1.475 33.29,-4.745 48.032,-19.594 12.624,-12.716 16.654,-26.51 15.062,-40.437 -1.59,-13.93 -9.318,-28.12 -21.75,-39.533 l -8.5,-7.812 9.406,-6.688 c 7.878,-5.6 10.74,-15.92 8.907,-25.5 -1.833,-9.58 -7.527,-16.677 -16.345,-17.78 l -9.375,-1.157 1.28,-9.375 C 461.869,108.306 442.407,73.225 410.685,53.217 378.962,33.207 335.012,28.731 291.903,50.122 l -6.72,3.344 -4.717,-5.876 C 267.002,30.794 246.443,21.822 226.433,20.808 c -1.43,-0.072 -2.857,-0.104 -4.28,-0.093 z"
         inkscape:connector-curvature="0"
         style="fill:#417505;fill-opacity:1;stroke:#4a4a4a;stroke-width:10;stroke-opacity:1" />
      <path
         id="path999"
         class="selected"
         d="m 220.936,181.03 c -4.003,4.804 -8.867,8.724 -14.25,11.782 11.968,29.99 18.83,60.783 23.033,93.532 -4.555,11.237 -9.676,22.38 -15.5,33.437 l -0.157,0.064 c -8.54,-19.537 -18.073,-38.957 -31.188,-55.75 -0.51,0.607 -1.035,1.218 -1.563,1.812 -3.628,4.088 -7.652,7.838 -12,11.25 12.034,15.867 21.048,34.83 29.72,54.938 7.724,43.39 6.386,91.267 -2.782,134.812 -26.727,5.073 -55.198,15.22 -88.594,30.5 h 252.938 c -32.428,-15.282 -60.268,-25.46 -86.688,-30.53 -13.95,-24.116 -21.036,-50.13 -23.25,-76 9.692,-45.174 28.504,-71.692 57,-99.282 -19.276,7.68 -37.422,17.31 -52.687,31.937 0.702,-3.41 1.488,-6.766 2.31,-10.092 9.476,-24.123 23.87,-45.82 42.94,-65.407 -5.784,-2.705 -11.25,-5.994 -16.283,-9.874 -12.71,13.552 -23.555,28.128 -32.312,43.78 7.156,-19.187 12.88,-38.422 18.063,-57.592 -5.443,-6.556 -10.03,-13.933 -13.563,-21.938 -4.167,16.03 -8.512,31.946 -13.5,47.72 -4.637,-23.334 -11.12,-46.08 -20.375,-68.47 -0.438,-0.204 -0.88,-0.41 -1.313,-0.625 z"
         inkscape:connector-curvature="0"
         style="fill:#684222;fill-opacity:1;stroke:#4a4a4a;stroke-width:10;stroke-opacity:1" />
    </g>
  </g>
</svg>
