<?xml version="1.0" encoding="UTF-8" standalone="no"?>
<svg
   xmlns:dc="http://purl.org/dc/elements/1.1/"
   xmlns:cc="http://creativecommons.org/ns#"
   xmlns:rdf="http://www.w3.org/1999/02/22-rdf-syntax-ns#"
   xmlns:svg="http://www.w3.org/2000/svg"
   xmlns="http://www.w3.org/2000/svg"
   xmlns:sodipodi="http://sodipodi.sourceforge.net/DTD/sodipodi-0.dtd"
   xmlns:inkscape="http://www.inkscape.org/namespaces/inkscape"
   viewBox="0 0 512 512"
   style="height: 64px; width: 64px;"
   version="1.1"
   id="svg22"
   sodipodi:docname="magic-wand-amitie.svg"
   inkscape:version="0.92.3 (2405546, 2018-03-11)"
   inkscape:export-filename="/home/plic/Téléchargements/magic-wand-amitie.png"
   inkscape:export-xdpi="24"
   inkscape:export-ydpi="24">
  <metadata
     id="metadata28">
    <rdf:RDF>
      <cc:Work
         rdf:about="">
        <dc:format>image/svg+xml</dc:format>
        <dc:type
           rdf:resource="http://purl.org/dc/dcmitype/StillImage" />
        <dc:title></dc:title>
      </cc:Work>
    </rdf:RDF>
  </metadata>
  <defs
     id="defs26" />
  <sodipodi:namedview
     pagecolor="#ffffff"
     bordercolor="#666666"
     borderopacity="1"
     objecttolerance="10"
     gridtolerance="10"
     guidetolerance="10"
     inkscape:pageopacity="0"
     inkscape:pageshadow="2"
     inkscape:window-width="1417"
     inkscape:window-height="744"
     id="namedview24"
     showgrid="false"
     inkscape:zoom="0.921875"
     inkscape:cx="290.65254"
     inkscape:cy="234.00995"
     inkscape:window-x="2420"
     inkscape:window-y="304"
     inkscape:window-maximized="0"
     inkscape:current-layer="svg22" />
  <path
     d="m 354.92882,3.8072021 c -82.33713,0 -149.07349,66.7310219 -149.07349,149.0721479 0,82.33446 66.73103,149.07214 149.07215,149.07214 82.33446,0 149.11213,-66.73101 149.11213,-149.07214 0,-82.334463 -66.77367,-149.0721479 -149.11346,-149.0721479 z"
     class=""
     id="path2"
     inkscape:connector-curvature="0"
     style="fill:#f8e71c;fill-opacity:1;stroke-width:1.33248842" />
  <path
     d="m 354.38622,16.894216 c 75.40063,0 136.53154,61.133827 136.53154,136.531534 0,75.40357 -61.13531,136.53152 -136.53154,136.53152 -75.40504,0 -136.48749,-61.13383 -136.48749,-136.53152 0,-48.49659 25.26274,-91.069472 63.3565,-115.288403 -6.99833,8.409168 -11.23962,19.214244 -11.23962,31.011742 0,26.802753 21.73641,48.537691 48.53916,48.537691 26.80129,0 48.5377,-21.734938 48.5377,-48.537691 0,-25.638566 -19.91012,-46.582209 -45.09946,-48.35565 10.38374,-2.525099 21.22846,-3.899223 32.39174,-3.899223 z"
     class=""
     id="path4"
     inkscape:connector-curvature="0"
     style="fill:#f4f0c2;fill-opacity:1;stroke-width:1.468081" />
  <path
     d="m 190.89805,206.70157 c -0.97553,8.98966 -2.70059,17.20442 -5.189,24.6835 l 90.51925,90.51926 c 7.43065,-2.50572 15.59353,-4.30457 24.50362,-5.33314 L 190.89805,206.70272 Z"
     class=""
     id="path8"
     inkscape:connector-curvature="0"
     style="fill:#9b9b9b;fill-opacity:1;stroke-width:1.15311146" />
  <path
     d="m 183.76346,243.9266 c -5.66178,8.45807 -12.77417,15.44362 -21.33256,21.00739 l 80.24964,80.28539 c 5.58337,-8.54456 12.59198,-15.65926 21.04428,-21.33257 z"
     class=""
     id="path10"
     inkscape:connector-curvature="0"
     style="fill:#4a4a4a;fill-opacity:1;stroke-width:1.15311146" />
  <path
     d="m 149.74638,268.73543 c -7.38683,2.46305 -15.44938,4.28497 -24.17844,5.40464 37.52686,36.56747 72.12136,72.12251 109.76123,109.76238 1.15657,-8.68755 2.99232,-16.71781 5.47728,-24.07121 l -91.05891,-91.09581 z"
     class=""
     id="path12"
     inkscape:connector-curvature="0"
     style="fill:#9b9b9b;fill-opacity:1;stroke-width:1.15311146" />
  <path
     d="M 139.65752,302.71561 3.0853044,438.89116 v 25.29581 L 152.12497,315.1819 139.65752,302.71677 Z"
     class="selected"
     id="path14"
     inkscape:connector-curvature="0"
     style="fill:#592f0a;fill-opacity:1;stroke-width:1.15311146" />
  <path
     d="M 167.3322,330.39029 3.0853044,494.63488 v 15.67655 H 65.030454 L 206.14017,369.19941 Z"
     class=""
     id="path16"
     inkscape:connector-curvature="0"
     style="fill:#8b572a;fill-opacity:1;stroke-width:1.15311146" />
  <g
     id="g998"
     class=""
     transform="matrix(0.48657134,0,0,0.48657134,229.55591,60.764707)">
    <g
       id="g996">
      <path
         id="path978"
         class=""
         d="m 494,61.363 -82.58,77.934 78.994,132.96 3.586,-4.458 V 61.362 Z"
         inkscape:connector-curvature="0"
         style="fill:#6d3b13;fill-opacity:1;stroke:#4a4a4a;stroke-width:10;stroke-opacity:1" />
      <path
         id="path980"
         class=""
         d="m 18,62.5 v 225.893 c 4.48,0.582 9.863,0.903 15.295,0.96 11.87,0.125 21.654,-0.65 27.15,-1.144 L 113.1,154.974 Z"
         inkscape:connector-curvature="0"
         style="fill:#00295a;fill-opacity:1;stroke:#4a4a4a;stroke-width:10;stroke-opacity:1" />
      <path
         id="path982"
         class=""
         d="m 407.154,167.36 -7.04,4.556 c -0.15,0.097 -5.362,3.336 -6.893,4.29 l -10.605,6.42 0.15,0.09 c -4.914,3.057 -6.28,3.917 -11.857,7.38 -2.83,1.757 -2.9,1.798 -5.584,3.465 -20.29,-10.907 -42.306,-19.29 -67.998,-25.882 -32.312,9.762 -66.542,23.888 -100.722,37.142 14.19,17.087 29.96,22.651 45.845,22.85 18.42,0.23 37.25,-7.78 50.218,-16.754 l 7.4,-5.12 7.426,10.73 115.453,83.33 45.112,-29.987 -60.906,-102.51 z"
         inkscape:connector-curvature="0"
         style="fill:#caae83;fill-opacity:1;stroke:#4a4a4a;stroke-width:10;stroke-opacity:1" />
      <path
         id="path984"
         class=""
         d="m 126.477,170.1 -45.367,114.787 16.65,12.803 30.795,-34.905 2.467,-2.795 3.72,-0.232 c 1.5,-0.094 2.98,-0.138 4.44,-0.13 10.212,0.066 19.342,2.716 26.19,8.76 5.072,4.472 8.444,10.426 10.4,17.32 l 2.28,-0.142 c 11.995,-0.75 22.802,1.725 30.63,8.63 7.827,6.907 11.63,17.323 12.38,29.32 l 0.07,1.08 c 6.44,1.216 12.205,3.752 16.893,7.888 7.828,6.906 11.63,17.32 12.38,29.317 l 0.197,3.12 c 0.642,0.202 1.275,0.424 1.9,0.658 l 2.033,-2.853 5.47,-7.678 2.813,-3.95 7.33,5.223 59.428,42.336 c 6.464,-1.594 10.317,-4.075 12.46,-7.086 2.147,-3.012 3.233,-7.47 2.624,-14.107 l -71.258,-51.03 -7.318,-5.24 5.19,-7.246 6.67,-9.365 7.33,5.223 80.335,57.226 c 6.464,-1.593 10.32,-4.074 12.463,-7.085 2.144,-3.01 3.23,-7.457 2.625,-14.082 l -92.398,-65.55 -7.34,-5.21 10.414,-14.68 7.343,5.208 92.414,65.565 c 6.47,-1.594 10.327,-4.075 12.473,-7.088 2.148,-3.015 3.233,-7.476 2.62,-14.125 l -110.44,-79.71 c -14.655,8.688 -33.402,15.648 -53.557,15.396 -23.587,-0.295 -48.817,-11.566 -67.377,-40.05 -3.135,-4.811 -1.025,-11.287 4.343,-13.327 13.014,-4.945 26.163,-10.17 39.343,-15.354 l -92.056,-6.834 z"
         inkscape:connector-curvature="0"
         style="fill:#c59648;fill-opacity:1;stroke:#4a4a4a;stroke-width:10;stroke-opacity:1" />
      <path
         id="path986"
         class=""
         d="m 139.379,277.72 -47.564,53.91 c 0.927,6.746 3.04,10.942 5.887,13.454 2.847,2.512 7.275,4.085 14.084,4.164 l 47.563,-53.908 c -0.927,-6.747 -3.04,-10.945 -5.887,-13.457 -2.847,-2.512 -7.274,-4.084 -14.084,-4.162 z"
         inkscape:connector-curvature="0"
         style="fill:#caae83;fill-opacity:1;stroke:#4a4a4a;stroke-width:10;stroke-opacity:1" />
      <path
         id="path988"
         class=""
         d="m 182.687,303.53 -53.713,60.88 c 0.926,6.747 3.04,10.945 5.886,13.457 2.85,2.51 7.275,4.083 14.085,4.16 l 53.713,-60.878 c -0.926,-6.748 -3.04,-10.944 -5.887,-13.457 -2.846,-2.512 -7.273,-4.085 -14.083,-4.164 z"
         inkscape:connector-curvature="0"
         style="fill:#caae83;fill-opacity:1;stroke:#4a4a4a;stroke-width:10;stroke-opacity:1" />
      <path
         id="path990"
         class="selected"
         d="m 212.027,341.816 -47.56,53.91 c 0.927,6.746 3.04,10.943 5.887,13.456 2.848,2.512 7.275,4.083 14.084,4.162 L 232,359.44 c -0.927,-6.75 -3.04,-10.947 -5.887,-13.46 -2.847,-2.512 -7.274,-4.083 -14.084,-4.162 z"
         inkscape:connector-curvature="0"
         style="fill:#caae83;fill-opacity:1;stroke:#4a4a4a;stroke-width:10;stroke-opacity:1" />
      <path
         id="path992"
         class=""
         d="m 236.729,380.953 -38.794,44.28 c 0.925,6.76 3.038,10.962 5.888,13.476 2.845,2.51 7.267,4.082 14.067,4.163 l 38.796,-44.28 c -0.926,-6.758 -3.04,-10.96 -5.89,-13.476 -2.844,-2.51 -7.266,-4.08 -14.066,-4.162 z"
         inkscape:connector-curvature="0"
         style="fill:#caae83;fill-opacity:1;stroke:#4a4a4a;stroke-width:10;stroke-opacity:1" />
      <path
         id="path994"
         class=""
         d="m 272.071,385.743 c 1.694,4.62 2.673,9.74 3.014,15.192 l 0.232,3.704 -8.277,9.448 26.724,19.037 c 6.464,-1.594 10.316,-4.075 12.46,-7.086 2.145,-3.01 3.233,-7.464 2.628,-14.093 l -36.78,-26.2 z"
         inkscape:connector-curvature="0"
         style="fill:#c59648;fill-opacity:1;stroke:#4a4a4a;stroke-width:10;stroke-opacity:1" />
    </g>
  </g>
</svg>
