<?xml version="1.0" encoding="UTF-8" standalone="no"?>
<svg
   xmlns:dc="http://purl.org/dc/elements/1.1/"
   xmlns:cc="http://creativecommons.org/ns#"
   xmlns:rdf="http://www.w3.org/1999/02/22-rdf-syntax-ns#"
   xmlns:svg="http://www.w3.org/2000/svg"
   xmlns="http://www.w3.org/2000/svg"
   xmlns:sodipodi="http://sodipodi.sourceforge.net/DTD/sodipodi-0.dtd"
   xmlns:inkscape="http://www.inkscape.org/namespaces/inkscape"
   viewBox="0 0 512 512"
   style="height: 64px; width: 64px;"
   version="1.1"
   id="svg22"
   sodipodi:docname="magic-wand-benediction.svg"
   inkscape:version="0.92.3 (2405546, 2018-03-11)"
   inkscape:export-filename="/home/plic/Téléchargements/magic-wand-benediction.png"
   inkscape:export-xdpi="24"
   inkscape:export-ydpi="24">
  <metadata
     id="metadata28">
    <rdf:RDF>
      <cc:Work
         rdf:about="">
        <dc:format>image/svg+xml</dc:format>
        <dc:type
           rdf:resource="http://purl.org/dc/dcmitype/StillImage" />
        <dc:title></dc:title>
      </cc:Work>
    </rdf:RDF>
  </metadata>
  <defs
     id="defs26" />
  <sodipodi:namedview
     pagecolor="#ffffff"
     bordercolor="#666666"
     borderopacity="1"
     objecttolerance="10"
     gridtolerance="10"
     guidetolerance="10"
     inkscape:pageopacity="0"
     inkscape:pageshadow="2"
     inkscape:window-width="1417"
     inkscape:window-height="744"
     id="namedview24"
     showgrid="false"
     inkscape:zoom="0.921875"
     inkscape:cx="290.65254"
     inkscape:cy="234.00995"
     inkscape:window-x="2420"
     inkscape:window-y="304"
     inkscape:window-maximized="0"
     inkscape:current-layer="svg22" />
  <path
     d="m 354.92882,3.8072021 c -82.33713,0 -149.07349,66.7310219 -149.07349,149.0721479 0,82.33446 66.73103,149.07214 149.07215,149.07214 82.33446,0 149.11213,-66.73101 149.11213,-149.07214 0,-82.334463 -66.77367,-149.0721479 -149.11346,-149.0721479 z"
     class=""
     id="path2"
     inkscape:connector-curvature="0"
     style="fill:#f8e71c;fill-opacity:1;stroke-width:1.33248842" />
  <path
     d="m 354.38622,16.894216 c 75.40063,0 136.53154,61.133827 136.53154,136.531534 0,75.40357 -61.13531,136.53152 -136.53154,136.53152 -75.40504,0 -136.48749,-61.13383 -136.48749,-136.53152 0,-48.49659 25.26274,-91.069472 63.3565,-115.288403 -6.99833,8.409168 -11.23962,19.214244 -11.23962,31.011742 0,26.802753 21.73641,48.537691 48.53916,48.537691 26.80129,0 48.5377,-21.734938 48.5377,-48.537691 0,-25.638566 -19.91012,-46.582209 -45.09946,-48.35565 10.38374,-2.525099 21.22846,-3.899223 32.39174,-3.899223 z"
     class=""
     id="path4"
     inkscape:connector-curvature="0"
     style="fill:#f4f0c2;fill-opacity:1;stroke-width:1.468081" />
  <path
     d="m 190.89805,206.70157 c -0.97553,8.98966 -2.70059,17.20442 -5.189,24.6835 l 90.51925,90.51926 c 7.43065,-2.50572 15.59353,-4.30457 24.50362,-5.33314 L 190.89805,206.70272 Z"
     class=""
     id="path8"
     inkscape:connector-curvature="0"
     style="fill:#9b9b9b;fill-opacity:1;stroke-width:1.15311146" />
  <path
     d="m 183.76346,243.9266 c -5.66178,8.45807 -12.77417,15.44362 -21.33256,21.00739 l 80.24964,80.28539 c 5.58337,-8.54456 12.59198,-15.65926 21.04428,-21.33257 z"
     class=""
     id="path10"
     inkscape:connector-curvature="0"
     style="fill:#4a4a4a;fill-opacity:1;stroke-width:1.15311146" />
  <path
     d="m 149.74638,268.73543 c -7.38683,2.46305 -15.44938,4.28497 -24.17844,5.40464 37.52686,36.56747 72.12136,72.12251 109.76123,109.76238 1.15657,-8.68755 2.99232,-16.71781 5.47728,-24.07121 l -91.05891,-91.09581 z"
     class=""
     id="path12"
     inkscape:connector-curvature="0"
     style="fill:#9b9b9b;fill-opacity:1;stroke-width:1.15311146" />
  <path
     d="M 139.65752,302.71561 3.0853044,438.89116 v 25.29581 L 152.12497,315.1819 139.65752,302.71677 Z"
     class="selected"
     id="path14"
     inkscape:connector-curvature="0"
     style="fill:#592f0a;fill-opacity:1;stroke-width:1.15311146" />
  <path
     d="M 167.3322,330.39029 3.0853044,494.63488 v 15.67655 H 65.030454 L 206.14017,369.19941 Z"
     class=""
     id="path16"
     inkscape:connector-curvature="0"
     style="fill:#8b572a;fill-opacity:1;stroke-width:1.15311146" />
  <g
     id="g888"
     class=""
     transform="matrix(0.52849774,0,0,0.52849774,218.83803,17.43884)">
    <g
       id="g886">
      <path
         id="path852"
         class=""
         d="m 300.56,39.29 c -2.418,0.023 -5.135,1.13 -7.27,3.065 -2.137,1.935 -3.507,4.53 -3.77,6.932 -0.26,2.402 0.174,4.782 3.033,7.94 l 6.037,6.67 40.35,44.56 6.042,6.672 c 2.86,3.156 5.184,3.824 7.6,3.802 2.416,-0.023 5.135,-1.13 7.272,-3.065 2.136,-1.934 3.506,-4.53 3.767,-6.93 0.262,-2.404 -0.17,-4.783 -3.03,-7.94 L 308.16,43.09 c -2.86,-3.158 -5.185,-3.823 -7.6,-3.8 z"
         inkscape:connector-curvature="0"
         style="fill:#8b572a;fill-opacity:1;stroke:#4a4a4a;stroke-width:10;stroke-opacity:1" />
      <path
         id="path854"
         class=""
         d="m 285.25,75.98 -38.604,34.952 -6.04,-6.672 C 217.468,78.705 204.046,77.466 187.5,76.674 L 23.285,225.364 151.018,366.43 315.23,217.74 c 0.85,-16.544 0.946,-30.02 -22.193,-55.576 l -6.04,-6.672 38.6,-34.953 -40.347,-44.56 z"
         inkscape:connector-curvature="0"
         style="fill:#b5ddf4;fill-opacity:1;stroke:#4a4a4a;stroke-width:25;stroke-opacity:1" />
      <path
         id="path856"
         class=""
         d="m 173.104,130.256 33.86,37.396 37.397,-33.86 19.66,21.714 -37.393,33.86 33.86,37.396 -21.714,19.662 -33.86,-37.397 -95.3,86.29 -19.664,-21.713 95.302,-86.29 -33.86,-37.396 z"
         inkscape:connector-curvature="0"
         style="fill:#8b572a;fill-opacity:1;stroke:#4a4a4a;stroke-width:10;stroke-opacity:1" />
      <path
         id="path858"
         class=""
         d="m 370.482,134.619 c 0,0 -25.86,52.77 -16,73.81 6.237,13.306 25.764,13.306 32,0 9.862,-21.04 -16,-73.81 -16,-73.81 z"
         inkscape:connector-curvature="0"
         style="fill:#b5ddf4;fill-opacity:1;stroke:#4a4a4a;stroke-width:10;stroke-opacity:1" />
      <path
         id="path860"
         class="selected"
         d="m 372.678,237.639 -5.655,46.28 c 1.168,-0.316 2.47,-0.504 3.967,-0.504 2.408,0 4.445,0.504 6.23,1.307 l -4.542,-47.082 z"
         inkscape:connector-curvature="0"
         style="fill:#b5ddf4;fill-opacity:1" />
      <path
         id="path862"
         class=""
         d="m 313.711,252.639 28.087,66.067 c 2.457,-5.83 5.08,-11.178 7.744,-15.855 l -35.83,-50.213 z"
         inkscape:connector-curvature="0"
         style="fill:#b5ddf4;fill-opacity:1" />
      <path
         id="path864"
         class=""
         d="m 431.247,254.136 -37.244,49.48 c 2.66,4.666 5.212,9.943 7.568,15.662 l 29.676,-65.143 z"
         inkscape:connector-curvature="0"
         style="fill:#b5ddf4;fill-opacity:1" />
      <path
         id="path866"
         class=""
         d="m 270.143,295.11 63.375,47.704 c 0.57,-2.11 1.164,-4.208 1.8,-6.275 1.07,-3.48 2.227,-6.874 3.446,-10.17 l -68.62,-31.26 z"
         inkscape:connector-curvature="0"
         style="fill:#b5ddf4;fill-opacity:1" />
      <path
         id="path868"
         class=""
         d="m 473.715,297.705 -69.135,29.39 c 1.103,3.1 2.144,6.29 3.104,9.546 0.665,2.257 1.273,4.55 1.855,6.858 l 64.175,-45.793 z"
         inkscape:connector-curvature="0"
         style="fill:#b5ddf4;fill-opacity:1" />
      <path
         id="path870"
         class=""
         d="m 371.395,302.655 c -1.514,1.696 -3.56,4.516 -5.706,8.193 -4.528,7.762 -9.47,18.968 -13.167,30.984 -3.697,12.016 -6.155,24.906 -6.185,35.992 -0.03,11.087 2.422,19.947 6.97,25.225 2.532,2.935 9.886,5.884 17.682,5.884 7.796,0 15.153,-2.95 17.684,-5.885 4.597,-5.335 7.19,-14.28 7.344,-25.376 0.154,-11.097 -2.07,-23.966 -5.6,-35.945 -3.53,-11.98 -8.384,-23.133 -12.965,-30.798 -2.252,-3.768 -4.46,-6.66 -6.058,-8.276 z"
         inkscape:connector-curvature="0"
         style="fill:#b5ddf4;fill-opacity:1;stroke:#4a4a4a;stroke-width:8;stroke-opacity:1" />
      <path
         id="path872"
         class=""
         d="m 332.668,346.057 -79.022,7.62 75.75,9.26 c 0.754,-5.654 1.88,-11.318 3.272,-16.88 z"
         inkscape:connector-curvature="0"
         style="fill:#b5ddf4;fill-opacity:1" />
      <path
         id="path874"
         class=""
         d="m 410.422,347.102 c 1.273,5.56 2.263,11.213 2.88,16.845 l 75.413,-7.275 z"
         inkscape:connector-curvature="0"
         style="fill:#b5ddf4;fill-opacity:1" />
      <path
         id="path876"
         class=""
         d="m 328.666,369.818 -60.02,42.828 60.15,-25.57 c -0.322,-3.063 -0.467,-6.175 -0.458,-9.303 0.007,-2.63 0.122,-5.286 0.328,-7.955 z"
         inkscape:connector-curvature="0"
         style="fill:#b5ddf4;fill-opacity:1" />
      <path
         id="path878"
         class=""
         d="m 413.891,371.334 c 0.107,2.21 0.156,4.41 0.126,6.59 -0.05,3.527 -0.286,7.03 -0.752,10.46 l 58.957,26.856 -58.33,-43.906 z"
         inkscape:connector-curvature="0"
         style="fill:#b5ddf4;fill-opacity:1" />
      <path
         id="path880"
         class=""
         d="m 333.956,406.08 -22.84,50.135 30,-39.858 c -0.494,-0.498 -0.973,-1.016 -1.44,-1.556 -2.315,-2.685 -4.193,-5.616 -5.72,-8.72 z"
         inkscape:connector-curvature="0"
         style="fill:#b5ddf4;fill-opacity:1" />
      <path
         id="path882"
         class=""
         d="m 407.314,407.514 c -1.403,2.574 -3.05,5.02 -5.004,7.287 -0.782,0.907 -1.615,1.737 -2.474,2.526 l 28.816,40.385 -21.34,-50.196 z"
         inkscape:connector-curvature="0"
         style="fill:#b5ddf4;fill-opacity:1" />
      <path
         id="path884"
         class=""
         d="m 365.241,426.658 4.444,46.05 5.613,-45.92 c -1.436,0.1 -2.876,0.146 -4.307,0.146 -1.912,0 -3.835,-0.094 -5.75,-0.276 z"
         inkscape:connector-curvature="0"
         style="fill:#b5ddf4;fill-opacity:1" />
    </g>
  </g>
</svg>
