<?xml version="1.0" encoding="UTF-8" standalone="no"?>
<svg
   xmlns:dc="http://purl.org/dc/elements/1.1/"
   xmlns:cc="http://creativecommons.org/ns#"
   xmlns:rdf="http://www.w3.org/1999/02/22-rdf-syntax-ns#"
   xmlns:svg="http://www.w3.org/2000/svg"
   xmlns="http://www.w3.org/2000/svg"
   xmlns:sodipodi="http://sodipodi.sourceforge.net/DTD/sodipodi-0.dtd"
   xmlns:inkscape="http://www.inkscape.org/namespaces/inkscape"
   inkscape:version="1.0 (6e3e5246a0, 2020-05-07)"
   sodipodi:docname="manche-de-hache.svg"
   id="svg10"
   version="1.1"
   style="height: 64px; width: 64px;"
   viewBox="0 0 512 512">
  <metadata
     id="metadata16">
    <rdf:RDF>
      <cc:Work
         rdf:about="">
        <dc:format>image/svg+xml</dc:format>
        <dc:type
           rdf:resource="http://purl.org/dc/dcmitype/StillImage" />
        <dc:title></dc:title>
      </cc:Work>
    </rdf:RDF>
  </metadata>
  <defs
     id="defs14" />
  <sodipodi:namedview
     inkscape:current-layer="svg10"
     inkscape:window-maximized="0"
     inkscape:window-y="185"
     inkscape:window-x="2455"
     inkscape:cy="293.43567"
     inkscape:cx="347.93877"
     inkscape:zoom="0.84960938"
     showgrid="false"
     id="namedview12"
     inkscape:window-height="855"
     inkscape:window-width="1355"
     inkscape:pageshadow="2"
     inkscape:pageopacity="0"
     guidetolerance="10"
     gridtolerance="10"
     objecttolerance="10"
     borderopacity="1"
     bordercolor="#666666"
     pagecolor="#ffffff" />
  <g
     id="g8"
     transform="matrix(1.2418767,0,0,1.2418767,52.061294,-106.14323)"
     class="">
    <g
       id="g6">
      <path
         id="path2"
         fill-opacity="0"
         fill="#ffe0af"
         class=""
         d="m 281,24.15 -34.6,53.05 80,51.7 55.7,129.4 c 5.6,-2.6 13.4,-6.9 21.8,-12.7 12.7,-8.9 27.2,-20.9 40.3,-34.4 13.2,-13.5 25.1,-28.4 32.7,-42.8 6.6,-12.6 9.9,-24.5 9,-34.8 L 359.1,74.97 Z" />
      <path
         id="path4"
         stroke-width="10"
         stroke-opacity="1"
         stroke="#4a4a4a"
         fill-opacity="1"
         fill="#8b572a"
         class="selected"
         d="M 247.6,99.41 C 164.4,214.2 107.9,325.2 25.98,453.3 c 0,0.1 0,0 0.15,0.4 0.32,1.1 1.49,3.4 3.53,5.9 4.07,5.1 11.33,11.4 19.22,16.5 7.89,5.1 16.55,9.2 22.88,10.9 3.16,0.8 5.71,0.9 6.88,0.8 0.37,-0.1 0.37,-0.1 0.47,-0.1 21.99,-33.8 31.99,-49 48.09,-110.3 l 0.3,-1.3 0.8,-1.1 c 60.5,-97.7 84.9,-157 155,-252.5 z" />
    </g>
  </g>
</svg>
