<svg xmlns="http://www.w3.org/2000/svg" viewBox="0 0 512 512" style="height: 64px; width: 64px;"><defs><radialGradient id="delapouite-poncho-gradient-2"><stop offset="0%" stop-color="#b57204" stop-opacity="1"></stop><stop offset="100%" stop-color="#8b572a" stop-opacity="1"></stop></radialGradient><radialGradient id="delapouite-poncho-gradient-3"><stop offset="0%" stop-color="#ffe0af" stop-opacity="1"></stop><stop offset="100%" stop-color="#b57204" stop-opacity="1"></stop></radialGradient><radialGradient id="delapouite-poncho-gradient-5"><stop offset="0%" stop-color="#ffe0af" stop-opacity="1"></stop><stop offset="100%" stop-color="#4a4a4a" stop-opacity="1"></stop></radialGradient><radialGradient id="delapouite-poncho-gradient-6"><stop offset="0%" stop-color="#ffe0af" stop-opacity="1"></stop><stop offset="100%" stop-color="#4a4a4a" stop-opacity="1"></stop></radialGradient><radialGradient id="delapouite-poncho-gradient-7"><stop offset="0%" stop-color="#ffe0af" stop-opacity="1"></stop><stop offset="100%" stop-color="#4a4a4a" stop-opacity="1"></stop></radialGradient><radialGradient id="delapouite-poncho-gradient-8"><stop offset="0%" stop-color="#ffe0af" stop-opacity="1"></stop><stop offset="100%" stop-color="#4a4a4a" stop-opacity="1"></stop></radialGradient><radialGradient id="delapouite-poncho-gradient-9"><stop offset="0%" stop-color="#ffe0af" stop-opacity="1"></stop><stop offset="100%" stop-color="#b57204" stop-opacity="1"></stop></radialGradient><radialGradient id="delapouite-poncho-gradient-10"><stop offset="0%" stop-color="#ffe0af" stop-opacity="1"></stop><stop offset="100%" stop-color="#4a4a4a" stop-opacity="1"></stop></radialGradient><radialGradient id="delapouite-poncho-gradient-11"><stop offset="0%" stop-color="#ffe0af" stop-opacity="1"></stop><stop offset="100%" stop-color="#4a4a4a" stop-opacity="1"></stop></radialGradient><radialGradient id="delapouite-poncho-gradient-12"><stop offset="0%" stop-color="#ffe0af" stop-opacity="1"></stop><stop offset="100%" stop-color="#4a4a4a" stop-opacity="1"></stop></radialGradient><radialGradient id="delapouite-poncho-gradient-13"><stop offset="0%" stop-color="#ffe0af" stop-opacity="1"></stop><stop offset="100%" stop-color="#4a4a4a" stop-opacity="1"></stop></radialGradient><radialGradient id="delapouite-poncho-gradient-14"><stop offset="0%" stop-color="#ffe0af" stop-opacity="1"></stop><stop offset="100%" stop-color="#4a4a4a" stop-opacity="1"></stop></radialGradient><radialGradient id="delapouite-poncho-gradient-15"><stop offset="0%" stop-color="#ffe0af" stop-opacity="1"></stop><stop offset="100%" stop-color="#000000" stop-opacity="1"></stop></radialGradient><radialGradient id="delapouite-poncho-gradient-16"><stop offset="0%" stop-color="#ffe0af" stop-opacity="1"></stop><stop offset="100%" stop-color="#4a4a4a" stop-opacity="1"></stop></radialGradient><radialGradient id="delapouite-poncho-gradient-17"><stop offset="0%" stop-color="#ffe0af" stop-opacity="1"></stop><stop offset="100%" stop-color="#000000" stop-opacity="1"></stop></radialGradient><radialGradient id="delapouite-poncho-gradient-18"><stop offset="0%" stop-color="#ffe0af" stop-opacity="1"></stop><stop offset="100%" stop-color="#4a4a4a" stop-opacity="1"></stop></radialGradient><radialGradient id="delapouite-poncho-gradient-19"><stop offset="0%" stop-color="#ffe0af" stop-opacity="1"></stop><stop offset="100%" stop-color="#000000" stop-opacity="1"></stop></radialGradient><radialGradient id="delapouite-poncho-gradient-20"><stop offset="0%" stop-color="#ffe0af" stop-opacity="1"></stop><stop offset="100%" stop-color="#000000" stop-opacity="1"></stop></radialGradient><radialGradient id="delapouite-poncho-gradient-21"><stop offset="0%" stop-color="#ffe0af" stop-opacity="1"></stop><stop offset="100%" stop-color="#000000" stop-opacity="1"></stop></radialGradient></defs><g class="" transform="translate(0,0)" style=""><g><path d="M325.3 26.22C310.2 37.54 298.2 46.5 287.8 52.74C276.7 59.43 266.6 63.44 256 63.44C245.3 63.44 235.3 59.43 224.1 52.74C213.7 46.51 201.6 37.55 186.5 26.24C183.7 26.77 178.5 28.06 171.8 30.83C170.4 31.4 168.9 32.04 167.4 32.69C174 38.88 185.4 49.4 198.6 59.95C208.9 68.14 220.1 76.27 230.5 82.18C240.9 88.1 250.6 91.47 256 91.47C261.4 91.47 271 88.1 281.4 82.19C291.7 76.28 302.9 68.14 313.2 59.96C326.5 49.3 338.1 38.69 344.5 32.53C343 31.85 341.5 31.21 340 30.63C333.3 27.96 328.2 26.72 325.3 26.22Z" class="selected" fill="url(#delapouite-poncho-gradient-2)" stroke="#4a4a4a" stroke-opacity="1" stroke-width="4"></path><path d="M361.7 41C358.9 43.83 343.7 58.56 324.4 74.02C315.6 81.04 306.1 88.07 296.5 94.07L256 175L215.4 94.17C205.8 88.11 196.2 81.06 187.4 74.02C168.5 58.93 153.7 44.59 150.3 41.25C147.9 42.58 145.5 43.96 143.1 45.41C122.9 57.51 103 74.26 96.41 87.79C85.25 110.1 76.01 130.4 68 149.5L256 290.3L444 149.5C435.9 130.4 426.8 110.1 415.6 87.78L415.5 87.78C408.3 73.25 388.5 56.68 368.4 44.8C366.2 43.48 363.9 42.22 361.7 41Z" class="" fill="url(#delapouite-poncho-gradient-3)" stroke="#4a4a4a" stroke-opacity="1" stroke-width="4"></path><path d="M242.1 107.2L256 134.8L269.7 107.3C265.2 108.7 260.6 109.5 256 109.5C251.4 109.5 246.7 108.7 242.1 107.2Z" class="" fill="#d0021b" fill-opacity="1" stroke="#4a4a4a" stroke-opacity="1" stroke-width="4"></path><path d="M75.11 177.3L94.88 226.6L156.4 238.2Z" class="" fill="url(#delapouite-poncho-gradient-5)" stroke="#4a4a4a" stroke-opacity="1" stroke-width="4"></path><path d="M436.8 177.3L355.6 238.1L417.1 226.6Z" class="" fill="url(#delapouite-poncho-gradient-6)" stroke="#4a4a4a" stroke-opacity="1" stroke-width="4"></path><path d="M56.28 178.8C53.74 185.4 51.29 192 48.97 198.4L71.98 217.9Z" class="" fill="url(#delapouite-poncho-gradient-7)" stroke="#4a4a4a" stroke-opacity="1" stroke-width="4"></path><path d="M455.7 178.8L440 217.9L463 198.4C460.7 192 458.2 185.4 455.7 178.8Z" class="" fill="url(#delapouite-poncho-gradient-8)" stroke="#4a4a4a" stroke-opacity="1" stroke-width="4"></path><path d="M42.53 216.6C38.77 227.5 35.17 238.2 31.59 248.9C50.06 267.3 92.55 309.6 138.4 351.4C162.4 373.3 186.9 394.6 208.3 411.4C228.1 426.9 245.5 438.1 256 442.5C266.5 438.1 283.9 426.9 303.7 411.4C325.1 394.6 349.6 373.3 373.6 351.4C419.4 309.6 461.9 267.3 480.4 248.9C476.8 238.2 473.2 227.4 469.4 216.6L256 397.1Z" class="" fill="url(#delapouite-poncho-gradient-9)" stroke="#4a4a4a" stroke-opacity="1" stroke-width="4"></path><path d="M106.5 247L208.1 333L182.1 261.3Z" class="" fill="url(#delapouite-poncho-gradient-10)" stroke="#4a4a4a" stroke-opacity="1" stroke-width="4"></path><path d="M405.5 247L329.7 261.3L303.5 333.3Z" class="" fill="url(#delapouite-poncho-gradient-11)" stroke="#4a4a4a" stroke-opacity="1" stroke-width="4"></path><path d="M206.5 275.6L225.5 327.8L245.1 304.6Z" class="" fill="url(#delapouite-poncho-gradient-12)" stroke="#4a4a4a" stroke-opacity="1" stroke-width="4"></path><path d="M305.3 275.8L266.8 304.6L286.4 327.8Z" class="" fill="url(#delapouite-poncho-gradient-13)" stroke="#4a4a4a" stroke-opacity="1" stroke-width="4"></path><path d="M45.76 288.3L45.76 335L63.76 335L63.76 305.8C57.39 299.7 51.3 293.7 45.76 288.3Z" class="" fill="url(#delapouite-poncho-gradient-14)" stroke="#4a4a4a" stroke-opacity="1" stroke-width="4"></path><path d="M466.2 288.3C460.7 293.7 454.6 299.7 448.2 305.8L448.2 335L466.2 335Z" class="" fill="url(#delapouite-poncho-gradient-15)" stroke="#4a4a4a" stroke-opacity="1" stroke-width="4"></path><path d="M256 319.7L229.4 351L256 373.5L282.4 351.1Z" class="" fill="url(#delapouite-poncho-gradient-16)" stroke="#4a4a4a" stroke-opacity="1" stroke-width="4"></path><path d="M112.6 352.2L112.6 402L130.6 402L130.6 368.7C129.1 367.4 127.7 366 126.2 364.7C121.6 360.5 117.1 356.4 112.6 352.2Z" class="" fill="url(#delapouite-poncho-gradient-17)" stroke="#4a4a4a" stroke-opacity="1" stroke-width="4"></path><path d="M399 352.5C394.6 356.6 390.2 360.7 385.8 364.7C384.2 366.2 382.6 367.6 381 369.1L381 402L399 402Z" class="" fill="url(#delapouite-poncho-gradient-18)" stroke="#4a4a4a" stroke-opacity="1" stroke-width="4"></path><path d="M179.8 411.6L179.8 452.3L197.8 452.3L197.8 426.1C197.6 425.9 197.4 425.8 197.2 425.6C191.6 421.2 185.7 416.5 179.8 411.6Z" class="" fill="url(#delapouite-poncho-gradient-19)" stroke="#4a4a4a" stroke-opacity="1" stroke-width="4"></path><path d="M332 411.7C326.1 416.6 320.4 421.2 314.8 425.6C314.5 425.8 314.3 426 314 426.2L314 452.3L332 452.3Z" class="" fill="url(#delapouite-poncho-gradient-20)" stroke="#4a4a4a" stroke-opacity="1" stroke-width="4"></path><path d="M247 458.4L247 485.8L265 485.8L265 458.4C262.9 459.3 260.8 460.1 258.8 460.8L256 461.8L253.2 460.8C251.2 460.1 249.1 459.3 247 458.4Z" class="" fill="url(#delapouite-poncho-gradient-21)" stroke="#4a4a4a" stroke-opacity="1" stroke-width="4"></path></g></g></svg>