<?xml version="1.0" encoding="UTF-8" standalone="no"?>
<svg
   xmlns:dc="http://purl.org/dc/elements/1.1/"
   xmlns:cc="http://creativecommons.org/ns#"
   xmlns:rdf="http://www.w3.org/1999/02/22-rdf-syntax-ns#"
   xmlns:svg="http://www.w3.org/2000/svg"
   xmlns="http://www.w3.org/2000/svg"
   xmlns:sodipodi="http://sodipodi.sourceforge.net/DTD/sodipodi-0.dtd"
   xmlns:inkscape="http://www.inkscape.org/namespaces/inkscape"
   viewBox="0 0 512 512"
   style="height: 64px; width: 64px;"
   version="1.1"
   id="svg44"
   sodipodi:docname="materiel-ecriture-parchemin.svg"
   inkscape:version="0.92.3 (2405546, 2018-03-11)"
   inkscape:export-filename="/home/plic/Téléchargements/materiel-ecriture-parchemin.png"
   inkscape:export-xdpi="24"
   inkscape:export-ydpi="24">
  <metadata
     id="metadata50">
    <rdf:RDF>
      <cc:Work
         rdf:about="">
        <dc:format>image/svg+xml</dc:format>
        <dc:type
           rdf:resource="http://purl.org/dc/dcmitype/StillImage" />
        <dc:title></dc:title>
      </cc:Work>
    </rdf:RDF>
  </metadata>
  <defs
     id="defs48">
    <radialGradient
       id="gradient-1">
      <stop
         id="stop839"
         stop-opacity="1"
         stop-color="#ffe0af"
         offset="0%" />
      <stop
         id="stop841"
         stop-opacity="1"
         stop-color="#e6ceaa"
         offset="100%" />
    </radialGradient>
    <radialGradient
       id="gradient-8">
      <stop
         id="stop844"
         stop-opacity="1"
         stop-color="#9b9b9b"
         offset="0%" />
      <stop
         id="stop846"
         stop-opacity="1"
         stop-color="#c9c9c9"
         offset="100%" />
    </radialGradient>
  </defs>
  <sodipodi:namedview
     pagecolor="#ffffff"
     bordercolor="#666666"
     borderopacity="1"
     objecttolerance="10"
     gridtolerance="10"
     guidetolerance="10"
     inkscape:pageopacity="0"
     inkscape:pageshadow="2"
     inkscape:window-width="1502"
     inkscape:window-height="709"
     id="namedview46"
     showgrid="false"
     inkscape:zoom="0.23046875"
     inkscape:cx="46.082012"
     inkscape:cy="846.24116"
     inkscape:window-x="2269"
     inkscape:window-y="318"
     inkscape:window-maximized="0"
     inkscape:current-layer="svg44" />
  <path
     inkscape:transform-center-y="16.874684"
     inkscape:transform-center-x="4.6021865"
     id="path52"
     class=""
     d="M 11.3679,18.650328 C 77.114753,48.13328 125.39172,84.494153 157.75386,123.51236 l 6.67192,42.94243 11.46592,-18.29586 c 5.28723,8.18558 9.92537,16.44962 13.91335,24.74836 l -2.49931,35.78208 10.67679,-16.21642 c 15.58658,43.47208 14.00456,87.21725 -2.95032,126.11216 -6.54967,-79.13771 -43.80655,-158.78465 -85.86259,-215.36235 l -11.353694,8.44214 c 39.807724,53.5522 75.269424,129.45406 82.666354,203.53009 l -8.52736,-3.4537 c -10.46051,-14.05171 -19.83979,-29.96659 -28.62957,-47.0668 l 20.78807,9.72183 -31.47228,-31.60436 C 112.15648,198.86308 94.059396,149.61365 71.395138,105.0723 l 18.6401,3.3115 L 56.375741,77.578982 C 43.358582,55.579587 28.685857,35.462245 11.37,18.651179 Z"
     inkscape:connector-curvature="0"
     style="fill:#b3b3b3;fill-opacity:1;stroke-width:0.7568447" />
  <path
     id="path54"
     class=""
     d="m 249.61817,321.15528 v 28.75824 H 122.44373 v -28.75824 z"
     inkscape:connector-curvature="0"
     style="fill:#806600;fill-opacity:1;stroke-width:0.94574571" />
  <path
     id="path56"
     class="selected"
     d="m 230.34765,367.58667 30.88428,27.13155 21.07121,80.35718 -13.74168,15.01466 H 100.95639 l -13.770059,-15.01371 21.071219,-80.35718 29.22921,-27.13155 h 92.86089 z"
     inkscape:connector-curvature="0"
     style="fill:#d4aa00;fill-opacity:1;stroke-width:0.94574571" />
  <g
     id="g863"
     class=""
     transform="matrix(0.57889252,-0.40750245,0.40750245,0.57889252,140.36545,272.08736)">
    <g
       id="g861">
      <path
         id="path851"
         class="selected"
         d="m 345.98,19.586 c -1.09,-0.01 -2.16,0.003 -3.21,0.04 -14.725,0.51 -25.865,5.643 -32.153,14.51 -7.185,10.132 -7.67,24.62 -0.822,41.247 6.846,16.626 21.065,34.485 40.953,48.572 19.888,14.088 41.458,21.58 59.426,22.527 17.968,0.95 31.494,-4.31 38.68,-14.443 7.185,-10.134 7.668,-24.622 0.822,-41.25 -6.847,-16.626 -21.065,-34.484 -40.953,-48.57 -19.89,-14.09 -41.46,-21.58 -59.428,-22.53 -1.123,-0.058 -2.23,-0.093 -3.316,-0.104 z"
         inkscape:connector-curvature="0"
         style="fill:#8b572a;fill-opacity:1;stroke:#4a4a4a;stroke-width:10;stroke-opacity:1" />
      <path
         id="path853"
         class=""
         d="m 298.22,94.19 -18.843,26.57 c -0.426,0.6 -0.822,1.21 -1.2,1.824 -9.132,-2.42 -18.316,-3.953 -27.396,-4.45 -1.846,-0.103 -3.69,-0.16 -5.532,-0.167 -1.84,-0.008 -3.677,0.032 -5.506,0.12 -25.606,1.223 -49.86,11.905 -66.183,34.923 l -131.387,185.273 3.36,5.295 73.284,115.496 139.416,32.256 131.534,-185.48 c 18.69,-26.36 18.7,-57.108 7.337,-84.4 -4.775,-11.47 -11.45,-22.476 -19.53,-32.764 l 17.872,-25.206 c -6.33,-1.17 -12.76,-2.914 -19.21,-5.216 l -14.682,20.705 c -3.764,5.305 -9.15,7.028 -17.74,6.096 -8.592,-0.93 -19.306,-5.348 -28.565,-11.812 -9.26,-6.464 -17.03,-14.963 -20.744,-22.662 -3.714,-7.7 -3.917,-13.336 0.115,-19.022 l 14.816,-20.888 c -4.288,-5.357 -8.05,-10.877 -11.217,-16.49 z"
         inkscape:connector-curvature="0"
         style="fill:#4a4a4a;fill-opacity:1;stroke:#4a4a4a;stroke-width:10;stroke-opacity:1" />
      <path
         id="path855"
         class=""
         d="m 245.133,136.643 c 1.526,0.015 3.067,0.065 4.623,0.15 7.63,0.42 15.552,1.76 23.556,3.896 0.07,6.236 1.67,12.445 4.36,18.02 5.657,11.73 15.496,21.918 26.88,29.866 11.385,7.95 24.345,13.67 37.25,15.07 7.192,0.78 14.702,-0.048 21.356,-2.92 7.02,8.99 12.742,18.416 16.694,27.907 9.56,22.965 9.542,45.436 -5.33,66.406 l -12.932,18.237 -94.926,-49.017 23.775,-33.528 -15.245,-10.81 -29.174,41.14 -147.077,29.477 89.86,-126.72 c 12.97,-18.29 30.85,-26.31 51.795,-27.115 1.496,-0.057 3.008,-0.077 4.535,-0.062 z"
         inkscape:connector-curvature="0"
         style="fill:#c9c9c9;fill-opacity:1" />
      <path
         id="path857"
         class=""
         d="m 93.418,298.33 92.094,48.057 -61.254,86.377 -59.582,-93.9 z"
         inkscape:connector-curvature="0"
         style="fill:#000000;fill-opacity:1;stroke:#4a4a4a;stroke-width:10;stroke-opacity:1" />
      <path
         id="path859"
         class=""
         d="M 355.924,321.268 250.238,470.298 138.83,444.523 206.16,349.578 Z"
         inkscape:connector-curvature="0"
         style="fill:#000000;fill-opacity:1;stroke:#4a4a4a;stroke-width:10;stroke-opacity:1" />
    </g>
  </g>
</svg>
