<svg xmlns="http://www.w3.org/2000/svg" viewBox="0 0 512 512" style="height: 64px; width: 64px;"><g class="" transform="translate(0,0)" style="touch-action: none;"><g><path d="M407 33.45C399 33.45 390.8 34.54 382.7 36.85C357.7 43.98 338.2 61.25 327.5 82.92C312.8 78.71 299.5 76.38 287 76.3C278.3 76.2 269.9 77.3 261.8 79.6C242.3 85.16 225.2 97.77 207.8 117C187.2 104.3 161.5 99.87 136.5 107C89.36 120.4 61.9 169.8 75.32 217C77.46 224.5 80.51 231.5 84.32 237.9L57.26 404.1C49.96 404.6 43.22 408.3 38.19 413.5C31.97 419.9 27.83 428.5 26.49 438.4C25.15 448.3 26.85 457.7 31.17 465.4C35.48 473.1 42.9 479.3 52.13 480.5C61.35 481.7 70.18 477.6 76.39 471.2C82.6 464.8 86.69 456.2 88.03 446.3C89.37 436.4 87.71 427 83.41 419.3C81.23 415.4 78.24 411.9 74.63 409.2L99.46 256.9C121.6 277.9 153.9 287.1 185.3 278.2C232.4 264.8 259.9 215.3 246.5 168.2C242 152.3 233.3 138.6 222.1 128C237.7 110.9 251.7 101.2 266.8 96.92C281.8 92.64 298.8 93.56 321.1 99.81C317.1 114.8 317 130.9 321.5 146.8C335 194 384.4 221.5 431.5 208C478.6 194.6 506.1 145.2 492.7 98.07C481.6 59.04 445.8 33.47 407 33.45Z" class="" fill="#4a4a4a" fill-opacity="1" stroke="#4a4a4a" stroke-opacity="1" stroke-width="10"></path><path d="M406.3 51.43C407.1 51.42 408 51.42 408.9 51.44C439.2 52.14 466.6 72.29 475.4 103C486.2 140.8 464.4 180 426.6 190.7C388.8 201.5 349.6 179.7 338.8 141.9C328.1 104.1 349.9 64.93 387.7 54.17C393.9 52.4 400.1 51.51 406.3 51.43Z" class="" fill="#c9c9c9" fill-opacity="1" stroke="#4a4a4a" stroke-opacity="1" stroke-width="10"></path><path d="M407.2 68.9C370.4 68.09 344.8 122.6 370.6 150.4C370.1 114.1 386.7 85.43 418.9 71.02C414.9 69.66 411 68.99 407.2 68.9Z" class="" fill="#9b9b9b" fill-opacity="1" stroke="#4a4a4a" stroke-opacity="1" stroke-width="10"></path><path d="M160.1 121.6L162.7 121.6C193 122.2 220.4 142.4 229.2 173.1C240 210.9 218.2 250.1 180.4 260.9C142.6 271.6 103.4 249.8 92.63 212C81.87 174.2 103.6 135.1 141.5 124.3C147.7 122.6 153.9 121.6 160.1 121.6Z" class="" fill="#c9c9c9" fill-opacity="1" stroke="#4a4a4a" stroke-opacity="1" stroke-width="10"></path><path d="M155.3 142C118.5 141.2 92.85 195.8 118.7 223.6C118.2 187.3 134.8 158.5 167 144.1C163 142.7 159.1 142.1 155.3 142Z" class="" fill="#c9c9c9" fill-opacity="1" stroke="#4a4a4a" stroke-opacity="1" stroke-width="10"></path><path d="M59.22 422.1C59.49 422 59.75 422.1 60.01 422.1C62.79 422.5 65.48 424.2 67.68 428.2C69.89 432 71.02 437.8 70.18 444C69.33 450.2 66.7 455.6 63.55 458.7C60.39 461.9 57.33 462.9 54.55 462.6C51.77 462.2 49.08 460.5 46.89 456.5C44.68 452.7 43.54 446.9 44.39 440.7C45.23 434.5 47.87 429.1 51.01 426C53.77 423.2 56.47 422.1 58.96 422.1L59.22 422.1Z" class="selected" fill="#c9c9c9" fill-opacity="1" stroke="#4a4a4a" stroke-opacity="1" stroke-width="10"></path></g></g></svg>