<svg xmlns="http://www.w3.org/2000/svg" viewBox="0 0 512 512" style="height: 64px; width: 64px;"><g class="" transform="translate(0,0)" style="touch-action: none;"><g><path d="M45.215 19.162L45.215 457.605L63.902 430.271L63.902 19.163L45.215 19.163Z" class="" fill="#4a4a4a" fill-opacity="1"></path><path d="M95.425 19.162L95.425 427.244L114.113 427.244L114.113 19.162L95.426 19.162Z" class="" fill="#9b9b9b" fill-opacity="1"></path><path d="M149.495 19.162L149.495 294.11L152.705 294.11C157.415 288.567 162.607 283.34 168.185 278.426L168.185 19.162L149.495 19.162Z" class="" fill="#4a4a4a" fill-opacity="1"></path><path d="M199.705 19.162L199.705 256.142C205.752 252.712 212.001 249.56 218.395 246.702L218.395 19.16L199.705 19.16Z" class="" fill="#9b9b9b" fill-opacity="1"></path><path d="M249.915 19.162L249.915 235.195C256.095 233.408 262.335 231.855 268.605 230.57L268.605 19.162L249.915 19.162Z" class="" fill="#4a4a4a" fill-opacity="1"></path><path d="M298.838 19.162L298.838 226.424C304.015 226.067 309.168 225.884 314.27 225.912C315.358 225.918 316.44 225.942 317.525 225.967L317.525 19.162L298.838 19.162Z" class="" fill="#9b9b9b" fill-opacity="1"></path><path d="M352.908 19.162L352.908 230.282C357.08 231.26 361.158 232.424 365.145 233.742C366.833 231.682 368.595 229.654 370.455 227.672C370.831 227.272 371.218 226.892 371.598 226.498L371.598 19.162L352.908 19.162Z" class="" fill="#4a4a4a" fill-opacity="1"></path><path d="M403.118 19.162L403.118 203.334C409.258 200.348 415.528 198.064 421.808 196.524L421.808 19.16L403.118 19.16Z" class="" fill="#9b9b9b" fill-opacity="1"></path><path d="M453.326 19.162L453.326 195.498C459.981 196.848 466.304 199.284 472.016 202.893L472.016 19.163L453.326 19.163Z" class="selected" fill="#4a4a4a" fill-opacity="1"></path><path d="M440.61 212.85C437.102 212.844 433.434 213.2 429.64 213.924C414.466 216.819 397.805 225.831 384.086 240.457C379.202 245.665 375.063 251.204 371.652 256.869C278.406 199.286 40.639 332.454 191.955 446.189L72.64 446.189L46.187 493.933L303.352 493.933L214.872 390.683C239.144 363.973 282.327 346.975 311.869 345.616C325.661 390.714 348.117 459.116 383.603 493.931L444.468 493.931C400.568 446.487 366.628 382.429 362.232 309.991C364.119 315.661 367.17 320.588 371.369 324.541C380.415 333.059 393.561 336.038 408.735 333.144C423.91 330.249 440.573 321.239 454.292 306.612C468.012 291.986 475.958 274.758 477.902 259.392C479.845 244.025 476.052 231.042 467.007 222.524C460.223 216.137 451.132 212.864 440.607 212.849Z" class="" fill="#8b572a" fill-opacity="1"></path></g></g></svg>