<svg xmlns="http://www.w3.org/2000/svg" viewBox="0 0 512 512" style="height: 64px; width: 64px;"><defs><radialGradient id="gradient-2"><stop offset="0%" stop-color="#c9c9c9" stop-opacity="1"></stop><stop offset="100%" stop-color="#9b9b9b" stop-opacity="1"></stop></radialGradient></defs><g class="" transform="translate(0,0)" style="touch-action: none;"><g><path d="M447.25 113.53C446.553 113.552 445.853 113.595 445.125 113.656C299.132 126.026 155.697 158.49 36.47 223.28C26.108 228.912 21.266 237.26 19.625 249.625C17.985 261.991 20.459 278.092 26.345 295.469C37.561 328.589 60.93 365.965 85.719 393.593L103.312 388.873L66.374 251L84.404 246.187L121.344 384.031L142.374 378.376L105.436 240.563L123.468 235.72L160.404 373.53L179.184 368.5L142.279 230.687L160.343 225.844L197.249 363.624L217.529 358.187L180.593 220.407L198.655 215.562L235.561 353.344L256.593 347.688L219.687 209.938L237.717 205.094L274.624 342.844L295.654 337.219L258.749 199.469L276.779 194.624L313.719 332.344L333.249 327.124L296.343 189.404L314.373 184.561L351.28 322.249L373.75 316.219L336.875 178.529L354.938 173.686L391.813 311.374L412.813 305.749L375.938 168.061L394 163.22L430.875 300.875L451.155 295.437L414.281 157.812L432.314 152.969L469.189 290.593L486.876 285.843C494.552 249.443 496.12 204.536 489.282 169.813C485.696 151.595 479.732 136.315 472.222 126.655C465.648 118.203 458.737 113.828 449.314 113.53C448.641 113.51 447.949 113.51 447.252 113.53Z" class="selected" fill="url(#gradient-2)" stroke="#4a4a4a" stroke-opacity="1" stroke-width="10"></path></g></g></svg>