<svg xmlns="http://www.w3.org/2000/svg" viewBox="0 0 512 512" style="height: 64px; width: 64px;"><defs><radialGradient id="lorc-unstable-orb-gradient-2"><stop offset="0%" stop-color="#4a4a4a" stop-opacity="1"></stop><stop offset="100%" stop-color="#000000" stop-opacity="1"></stop></radialGradient><radialGradient id="lorc-unstable-orb-gradient-3"><stop offset="0%" stop-color="#9b9b9b" stop-opacity="1"></stop><stop offset="100%" stop-color="#4a4a4a" stop-opacity="1"></stop></radialGradient><radialGradient id="lorc-unstable-orb-gradient-4"><stop offset="0%" stop-color="#9b9b9b" stop-opacity="1"></stop><stop offset="100%" stop-color="#4a4a4a" stop-opacity="1"></stop></radialGradient><radialGradient id="lorc-unstable-orb-gradient-5"><stop offset="0%" stop-color="#9b9b9b" stop-opacity="1"></stop><stop offset="100%" stop-color="#4a4a4a" stop-opacity="1"></stop></radialGradient><radialGradient id="lorc-unstable-orb-gradient-6"><stop offset="0%" stop-color="#9b9b9b" stop-opacity="1"></stop><stop offset="100%" stop-color="#4a4a4a" stop-opacity="1"></stop></radialGradient><radialGradient id="lorc-unstable-orb-gradient-7"><stop offset="0%" stop-color="#9b9b9b" stop-opacity="1"></stop><stop offset="100%" stop-color="#4a4a4a" stop-opacity="1"></stop></radialGradient><radialGradient id="lorc-unstable-orb-gradient-8"><stop offset="0%" stop-color="#9b9b9b" stop-opacity="1"></stop><stop offset="100%" stop-color="#4a4a4a" stop-opacity="1"></stop></radialGradient><radialGradient id="lorc-unstable-orb-gradient-9"><stop offset="0%" stop-color="#9b9b9b" stop-opacity="1"></stop><stop offset="100%" stop-color="#4a4a4a" stop-opacity="1"></stop></radialGradient><radialGradient id="lorc-unstable-orb-gradient-10"><stop offset="0%" stop-color="#9b9b9b" stop-opacity="1"></stop><stop offset="100%" stop-color="#4a4a4a" stop-opacity="1"></stop></radialGradient></defs><g class="" transform="translate(0,0)" style=""><g><path d="M146.71 19.252L192.182 46.404L166.472 108.672C136.149 127.454 111.858 155.062 97.212 187.895L56.568 169.895L82.078 129.969L19.254 79.229L19.254 103.249L57.324 134L29.104 178.172L90.506 205.365C84.889 222.673 81.84 241.131 81.84 260.293C81.84 263.527 81.933 266.741 82.104 269.933L56.229 277.153L19.253 251.557L19.253 274.285L52.803 297.512L84.123 288.772C86.599 304.142 91.043 318.857 97.193 332.652L30.095 352.832L52.237 397.112L19.253 402.932L19.253 421.91L80.155 411.162L56.741 364.334L105.843 349.568C121.758 376.963 144.763 399.744 172.333 415.396L177.185 449.356L128.055 459.701L149.435 492.747L171.695 492.747L158.52 472.387L198.16 464.04L192.62 425.266C213.464 433.816 236.272 438.546 260.172 438.546C275.306 438.546 290.002 436.646 304.039 433.088L384.304 461.594L407.669 492.746L431.029 492.746L400.313 451.789L436.703 418.862L391.077 381.242C410.562 360.186 425.034 334.435 432.589 305.89L444.481 323.27L492.745 258.42L492.745 227.117L445.12 291.11L437.428 279.865C438.133 273.435 438.506 266.908 438.506 260.293C438.506 228.13 429.949 197.941 414.996 171.871L436.443 144.218L420.003 96.944L450.1 96.944L435.248 19.254L416.22 19.254L427.5 78.254L357.213 78.254L344.243 103.112C319.185 89.676 290.559 82.045 260.173 82.045C254.225 82.045 248.347 82.345 242.549 82.915L209.444 53.565L215.61 38.631L183.162 19.253L146.712 19.253Z" class="selected" fill="url(#lorc-unstable-orb-gradient-2)" stroke="#4a4a4a" stroke-opacity="1" stroke-width="8"></path><path d="M201.896 71.844L218.852 86.877C209.644 89.067 200.712 91.972 192.117 95.529L201.897 71.843Z" class="" fill="url(#lorc-unstable-orb-gradient-3)" stroke="#4a4a4a" stroke-opacity="1" stroke-width="8"></path><path d="M368.543 96.944L400.215 96.944L415.461 140.777L404.211 155.287C392.108 138.743 377.234 124.352 360.263 112.812L368.543 96.942Z" class="" fill="url(#lorc-unstable-orb-gradient-4)" stroke="#4a4a4a" stroke-opacity="1" stroke-width="8"></path><path d="M260.283 100.604C348.397 100.604 420.029 172.204 420.029 260.281C420.029 348.361 348.396 419.956 260.282 419.956C241.215 419.956 222.922 416.596 205.958 410.45C204.588 409.953 203.223 409.443 201.871 408.91L201.751 408.865C200.543 408.388 199.343 407.898 198.148 407.393C195.222 406.16 192.336 404.851 189.502 403.453L189.496 403.406C182.298 399.836 175.406 395.744 168.871 391.172L168.887 391.275C150.479 378.448 134.91 361.849 123.304 342.58L123.184 342.184C120.287 337.354 117.64 332.36 115.257 327.219L115.179 327.241C108.903 313.661 104.477 299.048 102.227 283.718L102.255 283.708C101.339 277.503 100.775 271.184 100.599 264.768L100.583 264.773C100.543 263.283 100.517 261.791 100.517 260.291C100.517 243.801 103.011 227.904 107.64 212.951L107.683 212.971C109.546 206.973 111.763 201.131 114.293 195.457L114.227 195.429C125.12 170.935 141.997 149.713 163.015 133.599L163.089 133.629C168.896 129.169 175.014 125.089 181.411 121.446L181.431 121.398C185.571 119.052 189.825 116.886 194.185 114.91C194.218 114.895 194.252 114.88 194.285 114.863C214.411 105.707 236.757 100.601 260.28 100.601Z" class="" fill="url(#lorc-unstable-orb-gradient-5)" stroke="#4a4a4a" stroke-opacity="1" stroke-width="8"></path><path d="M260.283 119.301C219.149 119.301 182.183 136.823 156.42 164.814L169.81 192.05L234.793 135.768L292.615 186.156L232.219 160.338L192.799 200.404L227.419 212.294L236.056 265.164L335.622 343.154L223.454 288.84L155.876 296.5L229.726 355.69L166.746 365.873C191.624 387.898 224.363 401.263 260.282 401.263C273.686 401.263 286.649 399.403 298.925 395.926L195.183 373.196L195.181 373.196L296.888 379.779L257.701 329.677L331.977 381.759C351.207 370.413 367.497 354.639 379.447 335.825L257.61 237.285L358.16 217.343L290.74 137.893L392.065 209.863C371.805 156.863 320.511 119.3 260.28 119.3Z" class="" fill="url(#lorc-unstable-orb-gradient-6)" stroke="#4a4a4a" stroke-opacity="1" stroke-width="8"></path><path d="M143.428 181.211C128.148 203.749 119.228 230.956 119.228 260.281C119.228 265.776 119.551 271.191 120.16 276.521L205.34 263.077L201.51 226.862L149.605 213.632L143.428 181.212Z" class="" fill="url(#lorc-unstable-orb-gradient-7)" stroke="#4a4a4a" stroke-opacity="1" stroke-width="8"></path><path d="M398.26 230.851L309.73 245.791L384.17 327.825C395.116 307.778 401.336 284.769 401.336 260.282C401.336 250.186 400.27 240.342 398.26 230.852Z" class="" fill="url(#lorc-unstable-orb-gradient-8)" stroke="#4a4a4a" stroke-opacity="1" stroke-width="8"></path><path d="M124.813 299.731C130.688 319.978 140.976 338.331 154.57 353.694L180.955 343.854L124.812 299.73Z" class="" fill="url(#lorc-unstable-orb-gradient-9)" stroke="#4a4a4a" stroke-opacity="1" stroke-width="8"></path><path d="M377.603 394.356L408.123 419.521L383.756 441.567L332.324 423.302C348.896 415.952 364.144 406.152 377.604 394.357Z" class="" fill="url(#lorc-unstable-orb-gradient-10)" stroke="#4a4a4a" stroke-opacity="1" stroke-width="8"></path></g></g></svg>