<?xml version="1.0" encoding="UTF-8" standalone="no"?>
<svg
   xmlns:dc="http://purl.org/dc/elements/1.1/"
   xmlns:cc="http://creativecommons.org/ns#"
   xmlns:rdf="http://www.w3.org/1999/02/22-rdf-syntax-ns#"
   xmlns:svg="http://www.w3.org/2000/svg"
   xmlns="http://www.w3.org/2000/svg"
   xmlns:sodipodi="http://sodipodi.sourceforge.net/DTD/sodipodi-0.dtd"
   xmlns:inkscape="http://www.inkscape.org/namespaces/inkscape"
   viewBox="0 0 512 512"
   style="height: 64px; width: 64px;"
   version="1.1"
   id="svg33"
   sodipodi:docname="planche-de-chene.svg"
   inkscape:export-filename="/home/plic/Téléchargements/planche-de-chene.png"
   inkscape:export-xdpi="24"
   inkscape:export-ydpi="24"
   inkscape:version="0.92.3 (2405546, 2018-03-11)">
  <metadata
     id="metadata37">
    <rdf:RDF>
      <cc:Work
         rdf:about="">
        <dc:format>image/svg+xml</dc:format>
        <dc:type
           rdf:resource="http://purl.org/dc/dcmitype/StillImage" />
        <dc:title></dc:title>
      </cc:Work>
    </rdf:RDF>
  </metadata>
  <sodipodi:namedview
     pagecolor="#ffffff"
     bordercolor="#666666"
     borderopacity="1"
     objecttolerance="10"
     gridtolerance="10"
     guidetolerance="10"
     inkscape:pageopacity="0"
     inkscape:pageshadow="2"
     inkscape:window-width="1603"
     inkscape:window-height="825"
     id="namedview35"
     showgrid="false"
     inkscape:zoom="0.4609375"
     inkscape:cx="256"
     inkscape:cy="256"
     inkscape:window-x="2025"
     inkscape:window-y="202"
     inkscape:window-maximized="0"
     inkscape:current-layer="svg33" />
  <defs
     id="defs17">
    <linearGradient
       x1="26.194731"
       x2="26.194731"
       y1="54.126582"
       y2="418.34594"
       id="gradient-2"
       gradientTransform="scale(1.2304292,0.81272451)"
       gradientUnits="userSpaceOnUse">
      <stop
         offset="0%"
         stop-color="#8b572a"
         stop-opacity="1"
         id="stop2" />
      <stop
         offset="100%"
         stop-color="#b57204"
         stop-opacity="1"
         id="stop4" />
    </linearGradient>
    <radialGradient
       id="gradient-3"
       gradientTransform="scale(0.70225171,1.4239908)"
       cx="546.81248"
       cy="179.55976"
       fx="546.81248"
       fy="179.55976"
       r="142.39908"
       gradientUnits="userSpaceOnUse">
      <stop
         offset="0%"
         stop-color="#8b572a"
         stop-opacity="1"
         id="stop7" />
      <stop
         offset="100%"
         stop-color="#b57204"
         stop-opacity="1"
         id="stop9" />
    </radialGradient>
    <linearGradient
       x1="19.462337"
       x2="19.462337"
       y1="500.30169"
       y2="672.81952"
       id="gradient-4"
       gradientTransform="scale(1.4376485,0.6955803)"
       gradientUnits="userSpaceOnUse">
      <stop
         offset="0%"
         stop-color="#8b572a"
         stop-opacity="1"
         id="stop12" />
      <stop
         offset="100%"
         stop-color="#b57204"
         stop-opacity="1"
         id="stop14" />
    </linearGradient>
  </defs>
  <g
     class=""
     transform="matrix(1.0869823,0,0,1.0869823,-22.433764,-16.978893)"
     id="g31">
    <g
       id="g29">
      <path
         d="M 268.4,48.99 42.55,335 H 82.2 l 75.9,-104.2 14.6,10.6 -68.3,93.6 h 27.5 l 28.2,-30.4 -1.6,30.4 H 275.3 L 470.9,48.99 H 420.3 L 270.3,268.9 255.5,258.7 398.6,48.99 h -34.9 l -47.8,66.51 -14.6,-10.6 40.2,-55.91 z"
         class="selected"
         id="path19"
         style="fill:url(#gradient-2);stroke:#4a4a4a;stroke-width:10;stroke-opacity:1"
         inkscape:connector-curvature="0" />
      <path
         d="M 479,69.08 289,346.8 v 30.7 l 68.9,-100.8 14.8,10.2 -83.7,122.4 v 32.3 L 479,149.3 v -11.7 l -22,5.8 22,-33.3 z"
         class=""
         id="path21"
         style="fill:url(#gradient-3);stroke:#4a4a4a;stroke-width:10;stroke-opacity:1"
         inkscape:connector-curvature="0" />
      <path
         d="M 32.98,353 V 463 H 56.81 L 67.35,424.9 78.48,463 h 37.62 c -2.2,-5.7 -3.4,-11.8 -3.4,-18.2 0,-18.6 10.4,-35 25.9,-46.3 15.5,-11.2 36.2,-17.8 58.9,-17.8 22.7,0 43.4,6.6 58.9,17.8 5.6,4.1 10.6,8.9 14.6,14.2 V 353 Z"
         class=""
         id="path23"
         style="fill:url(#gradient-4);stroke:#4a4a4a;stroke-width:10;stroke-opacity:1"
         inkscape:connector-curvature="0" />
      <path
         d="m 197.5,398.7 c -19.2,0 -36.4,5.7 -48.3,14.4 -12,8.7 -18.5,19.8 -18.5,31.7 0,6.4 1.9,12.5 5.5,18.2 h 16.3 c -3.3,-4.7 -5.4,-10.1 -5.4,-16.1 0,-11.2 7.1,-20.4 16.5,-26.3 9.3,-6 21.3,-9.2 34.4,-9.2 13.1,0 25.1,3.2 34.4,9.2 9.4,5.9 16.5,15.1 16.5,26.3 0,6 -2.1,11.4 -5.4,16.1 h 15.3 c 3.6,-5.7 5.5,-11.8 5.5,-18.2 0,-11.9 -6.5,-23 -18.5,-31.7 -11.9,-8.7 -29.1,-14.4 -48.3,-14.4 z"
         class=""
         id="path25"
         inkscape:connector-curvature="0"
         style="fill:#8b572a;fill-opacity:1;stroke:#4a4a4a;stroke-width:10;stroke-opacity:1" />
      <path
         d="m 198,429.4 c -10,0 -19,2.7 -24.8,6.4 -5.8,3.7 -8.1,7.6 -8.1,11.1 0,3.5 2.3,7.4 8.1,11.1 3.3,2.1 7.6,3.9 12.5,5 h 24.6 c 4.9,-1.1 9.2,-2.9 12.5,-5 5.8,-3.7 8.1,-7.6 8.1,-11.1 0,-3.5 -2.3,-7.4 -8.1,-11.1 -5.8,-3.7 -14.8,-6.4 -24.8,-6.4 z"
         class=""
         id="path27"
         inkscape:connector-curvature="0"
         style="fill:#b57204;fill-opacity:1;stroke:#4a4a4a;stroke-width:10;stroke-opacity:1" />
    </g>
  </g>
</svg>
