<?xml version="1.0" encoding="UTF-8" standalone="no"?>
<svg
   xmlns:dc="http://purl.org/dc/elements/1.1/"
   xmlns:cc="http://creativecommons.org/ns#"
   xmlns:rdf="http://www.w3.org/1999/02/22-rdf-syntax-ns#"
   xmlns:svg="http://www.w3.org/2000/svg"
   xmlns="http://www.w3.org/2000/svg"
   xmlns:sodipodi="http://sodipodi.sourceforge.net/DTD/sodipodi-0.dtd"
   xmlns:inkscape="http://www.inkscape.org/namespaces/inkscape"
   viewBox="0 0 512 512"
   style="height: 64px; width: 64px;"
   version="1.1"
   id="svg211"
   sodipodi:docname="pnoulpe.svg"
   inkscape:export-filename="/home/plic/Téléchargements/pnoulpe.png"
   inkscape:export-xdpi="12"
   inkscape:export-ydpi="12"
   inkscape:version="0.92.3 (2405546, 2018-03-11)">
  <metadata
     id="metadata217">
    <rdf:RDF>
      <cc:Work
         rdf:about="">
        <dc:format>image/svg+xml</dc:format>
        <dc:type
           rdf:resource="http://purl.org/dc/dcmitype/StillImage" />
        <dc:title></dc:title>
      </cc:Work>
    </rdf:RDF>
  </metadata>
  <defs
     id="defs215" />
  <sodipodi:namedview
     pagecolor="#ffffff"
     bordercolor="#666666"
     borderopacity="1"
     objecttolerance="10"
     gridtolerance="10"
     guidetolerance="10"
     inkscape:pageopacity="0"
     inkscape:pageshadow="2"
     inkscape:window-width="1493"
     inkscape:window-height="770"
     id="namedview213"
     showgrid="false"
     inkscape:zoom="0.65186406"
     inkscape:cx="376.69337"
     inkscape:cy="301.6721"
     inkscape:window-x="2294"
     inkscape:window-y="221"
     inkscape:window-maximized="0"
     inkscape:current-layer="svg211" />
  <rect
     style="fill:#00ffff;fill-opacity:1;stroke:none;stroke-width:1.71816921;stroke-miterlimit:4;stroke-dasharray:none;stroke-opacity:1"
     id="rect456"
     width="160.59886"
     height="14.436721"
     x="301.56979"
     y="276.19989"
     transform="matrix(0.99390134,0.11027292,-0.42426297,0.90553903,0,0)" />
  <g
     class=""
     transform="matrix(0.63325288,0,0,0.63325288,103.37754,115.61698)"
     id="g209">
    <g
       id="g207">
      <path
         d="M 457.03,213.037 416.514,100.24 C 425,77.232 433.27,68.075 437.527,64.633 c 3.162,-2.563 5.922,-3.534 8.185,-2.904 4.134,1.168 8.775,7.7 12.278,17.456 11.266,31.347 10.377,87.094 -0.96,133.85 z"
         class=""
         id="path189"
         inkscape:connector-curvature="0"
         style="fill:#8b572a;fill-opacity:1" />
      <path
         d="m 132.743,195.137 312.804,34.84 -43.82,-122.1 L 145.558,79.34 c 2.593,36.102 -1.913,79.913 -12.817,115.796 z"
         class=""
         id="path191"
         inkscape:connector-curvature="0"
         style="fill:#8b572a;fill-opacity:1" />
      <path
         d="m 128.98,77.5 -45.06,-5.02 37.03,103.123 c 7.773,-32.06 10.625,-68.357 8.03,-98.102 z"
         class=""
         id="path193"
         inkscape:connector-curvature="0"
         style="fill:#8b572a;fill-opacity:1" />
      <path
         d="M 101.46,27.19 C 97.667,30.29 90.69,37.856 83.21,55.756 L 402.23,91.3 C 407.563,77.605 413.6,66.598 420.11,58.805 L 108.796,24.13 c -2.573,-0.29 -5.415,1.51 -7.338,3.06 z"
         class=""
         id="path195"
         inkscape:connector-curvature="0"
         style="fill:#8b572a;fill-opacity:1" />
      <path
         d="m 382.09,310.528 0.61,169.352 66.352,-53.63 -0.61,-169.35 z"
         class="selected"
         id="path197"
         inkscape:connector-curvature="0"
         style="fill:#8b572a;fill-opacity:1" />
      <path
         d="M 366.163,487.9 46.62,452.306 46,278.396 365.553,313.99 Z"
         class=""
         id="path199"
         inkscape:connector-curvature="0"
         style="fill:#8b572a;fill-opacity:1" />
      <path
         d="m 216.726,337.648 c 3.443,-1.825 5.474,-5.52 5.168,-9.405 -0.248,-6.367 -5.364,-12.092 -11.43,-12.857 h -0.125 c -6.14,-0.693 -10.904,3.927 -10.646,10.335 0.236,4.204 2.354,8.077 5.767,10.543 l -2.17,25.073 17.57,2.005 z"
         class=""
         id="path201"
         inkscape:connector-curvature="0"
         style="fill:#ffffff;fill-opacity:1" />
      <path
         d="m 436.006,245.665 -307.46,-34.25 v 59.54 l 242.712,27.037 z"
         class=""
         id="path203"
         inkscape:connector-curvature="0"
         style="fill:#8b572a;fill-opacity:1" />
      <path
         d="m 58.31,263.13 54.34,6.058 v -49.98 z"
         class=""
         id="path205"
         inkscape:connector-curvature="0"
         style="fill:#8b572a;fill-opacity:1" />
    </g>
  </g>
  <g
     id="g382"
     class=""
     transform="matrix(0.33699965,0,0,0.33699965,80.693681,228.95876)">
    <g
       id="g380">
      <path
         id="path368"
         class=""
         d="m 231.64,60.34 c -12.222,25.912 -25.13,60.62 -35.005,94.2 -9.876,33.577 -16.674,66.33 -17.137,87.16 -0.366,5.434 -0.428,16.186 3.441,19.769 0.354,0.044 2.042,-0.023 5.036,-1.52 C 206.12,250.876 231,247 256,247 c 25,0 49.879,3.876 68.025,12.95 2.994,1.496 4.682,1.563 5.036,1.519 3.16,-4.29 3.503,-15.532 3.441,-19.77 -0.463,-20.83 -7.26,-53.582 -17.137,-87.16 -9.876,-33.578 -22.783,-68.287 -35.006,-94.2 C 277.203,53.158 265.987,23.257 256,23.41 244.967,23.58 235.466,52.276 231.64,60.34 Z"
         inkscape:connector-curvature="0"
         style="fill:#d0021b;fill-opacity:1" />
      <path
         id="path370"
         class=""
         d="m 212.29,59.33 c -22.495,17.595 -50.172,42.38 -59.099,65.879 3.844,14.31 13.763,23.683 23.69,32.91 10.069,-33.526 22.243,-69.391 35.408,-98.789 z"
         inkscape:connector-curvature="0"
         style="fill:#f55123;fill-opacity:1" />
      <path
         id="path372"
         class=""
         d="m 299.748,59.414 c 14.486,34.704 26.414,66.864 35.371,98.705 8.94,-9.37 22.031,-19.506 23.69,-32.91 C 344.222,94.795 323.091,77.377 299.748,59.414 Z"
         inkscape:connector-curvature="0"
         style="fill:#f55123;fill-opacity:1" />
      <path
         id="path374"
         class=""
         d="m 59.141,132.908 c -1.58,16.937 1.915,40.013 22.1,65.059 7.353,-2.053 13.734,-5.085 18.849,-8.805 4.686,7.938 11.747,16.622 13.142,26.002 2.483,20.992 -16.236,50.36 -32.93,78.406 -8.346,14.023 -16,27.735 -18.952,41.672 -2.952,13.937 0.299,29.29 12.925,39.701 10.218,8.425 23.768,7.778 35.793,3.82 12.025,-3.956 23.95,-11.202 34.889,-19.029 7.06,-5.05 13.69,-10.38 19.453,-15.293 2.153,0.612 4.427,1.26 6.518,1.852 -16.292,19.786 -28.73,40.123 -41.442,56.566 -15.118,19.557 -29.787,33.155 -51.869,37.018 C 63.302,442.381 39.582,433.678 18,421.973 v 20.634 c 20.471,10.629 42.631,18.514 62.719,15 27.966,-4.891 46.849,-22.837 63.008,-43.74 15.094,-19.525 28.567,-42.016 46.302,-62.271 1.846,0.498 3.654,0.98 5.422,1.445 -1.64,8.025 -3.884,18.264 -6.758,29.475 -6.4,24.973 -16.2,54.243 -26.617,68.955 C 152.87,464.473 134.68,480.039 115.7,494 h 29.633 c 12.473,-10.292 23.685,-21.183 31.436,-32.129 13.547,-19.132 22.75,-49.092 29.36,-74.887 2.87,-11.197 5.128,-21.447 6.808,-29.619 4.463,1.019 8.713,1.911 12.763,2.655 -1.643,24.417 -5.836,78.135 -12.521,106.425 -1.844,7.804 -4.818,17.395 -8.285,27.555 h 19.058 c 2.725,-8.389 5.086,-16.396 6.744,-23.414 7.277,-30.79 11.324,-83.063 12.938,-108.104 4.323,0.371 8.553,0.564 12.777,0.551 1.95,43.763 2.743,87.742 5.139,130.967 h 18.027 c -2.096,-43.95 -3.693,-88.095 -5.195,-132.139 3.673,-0.452 7.44,-1.024 11.38,-1.738 0.38,5.529 0.842,11.73 1.497,18.799 1.818,19.612 4.637,42.788 9.638,59.08 5.076,16.534 13.858,36.316 23.649,55.998 h 20.203 c -11.208,-21.998 -21.476,-44.444 -26.644,-61.281 -4.1,-13.357 -7.15,-36.333 -8.922,-55.46 -0.641,-6.971 -1.187,-13.95 -1.637,-20.935 3.43,-0.826 6.853,-1.683 10.267,-2.572 3.057,9.82 8.226,25.34 15.202,42.2 11.633,28.113 27.316,59.935 49.884,75.462 22.168,15.252 56.768,18.44 86.559,19.238 10.42,0.28 20.164,0.147 28.543,-0.132 v -18.006 c -8.18,0.281 -17.8,0.42 -28.06,0.144 -28.52,-0.764 -61.584,-5.576 -76.838,-16.072 -15.656,-10.771 -32.309,-40.577 -43.456,-67.516 -6.583,-15.911 -11.488,-30.572 -14.445,-40.023 1.963,-0.545 4.33,-1.225 6.36,-1.793 4.641,9.226 11.72,22.387 20.34,35.209 7.687,11.437 16.456,22.577 26.468,30.44 10.012,7.861 23.045,12.843 35.332,7.3 6.99,-3.153 12.479,-8.084 15.666,-14.094 3.187,-6.01 4.078,-12.672 3.756,-19.267 -0.644,-13.19 -5.758,-26.93 -11.342,-41.164 -5.584,-14.234 -11.796,-28.855 -15.426,-42.14 -3.63,-13.287 -4.442,-24.843 -1.15,-33.306 9.78,-15.892 23.432,-29.033 36.545,-38.726 5.337,4.231 12.244,7.662 20.318,9.916 20.185,-25.045 23.679,-48.122 22.1,-65.059 -24.536,7.73 -42.168,26.434 -54.592,41.766 -16.116,12.277 -34.131,27.545 -41.146,45.576 -5.508,14.157 -3.544,29.547 0.562,44.576 4.106,15.03 10.589,30.097 16.031,43.97 5.443,13.875 9.69,26.662 10.12,35.468 0.214,4.402 -0.43,7.604 -1.678,9.957 -6.948,10.457 -17.25,6.263 -23.979,1.07 -7.397,-5.808 -15.532,-15.74 -22.646,-26.324 -14.228,-21.168 -24.639,-44.565 -24.639,-44.565 l -0.273,0.122 -8.707,-17.413 C 333.255,319.258 323.253,325 312,325 c -18.119,0 -33,-14.881 -33,-33 0,-9.453 4.055,-18.02 10.502,-24.057 C 279.092,266.037 267.532,265 256,265 c -9.084,0 -18.178,0.652 -26.72,1.857 7.15,6.071 11.72,15.108 11.72,25.143 0,18.119 -14.881,33 -33,33 -14.421,0 -26.782,-9.43 -31.23,-22.414 -8.236,18.35 -29.464,33.224 -42.288,42.51 -10.107,7.231 -20.993,13.59 -30.04,16.568 -9.049,2.977 -14.835,2.594 -18.717,-0.607 -7.893,-6.508 -8.85,-12.247 -6.766,-22.084 2.083,-9.837 8.706,-22.58 16.812,-36.198 16.213,-27.236 39.1,-57.896 35.336,-89.724 -1.284,-10.863 -7.458,-20.852 -12.984,-29.346 C 104.437,162.767 81.333,138.8 59.141,132.908 Z"
         inkscape:connector-curvature="0"
         style="fill:#f55123;fill-opacity:1" />
      <path
         id="path376"
         class=""
         d="m 208,277 c -8.39,0 -15,6.61 -15,15 0,8.39 6.61,15 15,15 8.39,0 15,-6.61 15,-15 0,-8.39 -6.61,-15 -15,-15 z"
         inkscape:connector-curvature="0"
         style="fill:#000000;fill-opacity:1" />
      <path
         id="path378"
         class="selected"
         d="m 312,277 c -8.39,0 -15,6.61 -15,15 0,8.39 6.61,15 15,15 8.39,0 15,-6.61 15,-15 0,-8.39 -6.61,-15 -15,-15 z"
         inkscape:connector-curvature="0"
         style="fill:#000000;fill-opacity:1" />
    </g>
  </g>
</svg>
