<?xml version="1.0" encoding="UTF-8" standalone="no"?>
<svg
   viewBox="0 0 512 512"
   style="height: 64px; width: 64px;"
   version="1.1"
   id="svg75"
   sodipodi:docname="pot-acide.svg"
   inkscape:version="1.1 (ce6663b3b7, 2021-05-25)"
   inkscape:export-filename="/home/plic/Téléchargements/pot-acide.png"
   inkscape:export-xdpi="24"
   inkscape:export-ydpi="24"
   xmlns:inkscape="http://www.inkscape.org/namespaces/inkscape"
   xmlns:sodipodi="http://sodipodi.sourceforge.net/DTD/sodipodi-0.dtd"
   xmlns="http://www.w3.org/2000/svg"
   xmlns:svg="http://www.w3.org/2000/svg">
  <sodipodi:namedview
     id="namedview77"
     pagecolor="#ffffff"
     bordercolor="#666666"
     borderopacity="1.0"
     inkscape:pageshadow="2"
     inkscape:pageopacity="0.0"
     inkscape:pagecheckerboard="0"
     showgrid="false"
     inkscape:zoom="0.60283615"
     inkscape:cx="99.529532"
     inkscape:cy="224.77086"
     inkscape:window-width="1559"
     inkscape:window-height="1082"
     inkscape:window-x="4503"
     inkscape:window-y="262"
     inkscape:window-maximized="0"
     inkscape:current-layer="svg75" />
  <defs
     id="defs57">
    <radialGradient
       id="delapouite-cloth-jar-gradient-1">
      <stop
         offset="0%"
         stop-color="#c9c9c9"
         stop-opacity="1"
         id="stop2" />
      <stop
         offset="100%"
         stop-color="#ffffff"
         stop-opacity="1"
         id="stop4" />
    </radialGradient>
    <radialGradient
       id="delapouite-cloth-jar-gradient-2">
      <stop
         offset="0%"
         stop-color="#8b572a"
         stop-opacity="1"
         id="stop7" />
      <stop
         offset="100%"
         stop-color="#8b572a"
         stop-opacity="1"
         id="stop9" />
    </radialGradient>
    <radialGradient
       id="delapouite-cloth-jar-gradient-3">
      <stop
         offset="0%"
         stop-color="#8b572a"
         stop-opacity="1"
         id="stop12" />
      <stop
         offset="100%"
         stop-color="#8b572a"
         stop-opacity="1"
         id="stop14" />
    </radialGradient>
    <radialGradient
       id="delapouite-cloth-jar-gradient-4">
      <stop
         offset="0%"
         stop-color="#417505"
         stop-opacity="1"
         id="stop17" />
      <stop
         offset="100%"
         stop-color="#7ed321"
         stop-opacity="1"
         id="stop19" />
    </radialGradient>
    <radialGradient
       id="delapouite-cloth-jar-gradient-5">
      <stop
         offset="0%"
         stop-color="#417505"
         stop-opacity="1"
         id="stop22" />
      <stop
         offset="100%"
         stop-color="#7ed321"
         stop-opacity="1"
         id="stop24" />
    </radialGradient>
    <radialGradient
       id="delapouite-cloth-jar-gradient-6">
      <stop
         offset="0%"
         stop-color="#4a4a4a"
         stop-opacity="1"
         id="stop27" />
      <stop
         offset="100%"
         stop-color="#000000"
         stop-opacity="1"
         id="stop29" />
    </radialGradient>
    <radialGradient
       id="delapouite-cloth-jar-gradient-7">
      <stop
         offset="0%"
         stop-color="#4a4a4a"
         stop-opacity="1"
         id="stop32" />
      <stop
         offset="100%"
         stop-color="#9b9b9b"
         stop-opacity="1"
         id="stop34" />
    </radialGradient>
    <radialGradient
       id="delapouite-cloth-jar-gradient-8">
      <stop
         offset="0%"
         stop-color="#407505"
         stop-opacity="1"
         id="stop37" />
      <stop
         offset="100%"
         stop-color="#1d3802"
         stop-opacity="1"
         id="stop39" />
    </radialGradient>
    <radialGradient
       id="delapouite-cloth-jar-gradient-9">
      <stop
         offset="0%"
         stop-color="#8b572a"
         stop-opacity="1"
         id="stop42" />
      <stop
         offset="100%"
         stop-color="#b57204"
         stop-opacity="1"
         id="stop44" />
    </radialGradient>
    <radialGradient
       id="delapouite-cloth-jar-gradient-10">
      <stop
         offset="0%"
         stop-color="#48baff"
         stop-opacity="1"
         id="stop47" />
      <stop
         offset="100%"
         stop-color="#c9c9c9"
         stop-opacity="1"
         id="stop49" />
    </radialGradient>
    <radialGradient
       id="delapouite-cloth-jar-gradient-11">
      <stop
         offset="0%"
         stop-color="#c9c9c9"
         stop-opacity="1"
         id="stop52" />
      <stop
         offset="100%"
         stop-color="#ffffff"
         stop-opacity="1"
         id="stop54" />
    </radialGradient>
    <radialGradient
       id="gradient-1">
      <stop
         id="stop142"
         stop-opacity="1"
         stop-color="#a0ee49"
         offset="0%" />
      <stop
         id="stop144"
         stop-opacity="1"
         stop-color="#417505"
         offset="100%" />
    </radialGradient>
    <radialGradient
       id="gradient-2"
       gradientTransform="scale(0.73425765,1.3619198)"
       cx="357.7593"
       cy="189.09484"
       fx="357.7593"
       fy="189.09484"
       r="159.47195"
       gradientUnits="userSpaceOnUse">
      <stop
         id="stop147"
         stop-opacity="1"
         stop-color="#98f23a"
         offset="0%" />
      <stop
         id="stop149"
         stop-opacity="1"
         stop-color="#386107"
         offset="100%" />
    </radialGradient>
    <radialGradient
       id="gradient-6">
      <stop
         id="stop152"
         stop-opacity="1"
         stop-color="#ffffff"
         offset="0%" />
      <stop
         id="stop154"
         stop-opacity="1"
         stop-color="#000000"
         offset="100%" />
    </radialGradient>
    <radialGradient
       id="gradient-8">
      <stop
         id="stop157"
         stop-opacity="1"
         stop-color="#ffffff"
         offset="0%" />
      <stop
         id="stop159"
         stop-opacity="1"
         stop-color="#000000"
         offset="100%" />
    </radialGradient>
    <radialGradient
       id="gradient-9">
      <stop
         id="stop162"
         stop-opacity="1"
         stop-color="#ffffff"
         offset="0%" />
      <stop
         id="stop164"
         stop-opacity="1"
         stop-color="#000000"
         offset="100%" />
    </radialGradient>
    <radialGradient
       id="gradient-10">
      <stop
         id="stop167"
         stop-opacity="1"
         stop-color="#ffffff"
         offset="0%" />
      <stop
         id="stop169"
         stop-opacity="1"
         stop-color="#000000"
         offset="100%" />
    </radialGradient>
    <radialGradient
       id="gradient-11">
      <stop
         id="stop172"
         stop-opacity="1"
         stop-color="#ffffff"
         offset="0%" />
      <stop
         id="stop174"
         stop-opacity="1"
         stop-color="#000000"
         offset="100%" />
    </radialGradient>
    <radialGradient
       id="gradient-12">
      <stop
         id="stop177"
         stop-opacity="1"
         stop-color="#ffffff"
         offset="0%" />
      <stop
         id="stop179"
         stop-opacity="1"
         stop-color="#000000"
         offset="100%" />
    </radialGradient>
    <radialGradient
       id="gradient-13">
      <stop
         id="stop182"
         stop-opacity="1"
         stop-color="#ffffff"
         offset="0%" />
      <stop
         id="stop184"
         stop-opacity="1"
         stop-color="#000000"
         offset="100%" />
    </radialGradient>
    <radialGradient
       id="gradient-14">
      <stop
         id="stop187"
         stop-opacity="1"
         stop-color="#ffffff"
         offset="0%" />
      <stop
         id="stop189"
         stop-opacity="1"
         stop-color="#000000"
         offset="100%" />
    </radialGradient>
    <radialGradient
       id="gradient-15">
      <stop
         id="stop192"
         stop-opacity="1"
         stop-color="#ffffff"
         offset="0%" />
      <stop
         id="stop194"
         stop-opacity="1"
         stop-color="#000000"
         offset="100%" />
    </radialGradient>
    <radialGradient
       id="gradient-16">
      <stop
         id="stop197"
         stop-opacity="1"
         stop-color="#ffffff"
         offset="0%" />
      <stop
         id="stop199"
         stop-opacity="1"
         stop-color="#000000"
         offset="100%" />
    </radialGradient>
  </defs>
  <g
     class=""
     transform="translate(0,0)"
     style=""
     id="g73">
    <g
       id="g71">
      <path
         d="M123.2 42L129.2 72L383.2 72L389.2 42Z"
         class=""
         fill="url(#delapouite-cloth-jar-gradient-2)"
         stroke="#4a4a4a"
         stroke-opacity="1"
         stroke-width="8"
         id="path59" />
      <path
         d="M132.8 90L135.6 104L376.8 104L379.6 90Z"
         class=""
         fill="url(#delapouite-cloth-jar-gradient-3)"
         stroke="#4a4a4a"
         stroke-opacity="1"
         stroke-width="8"
         id="path61" />
      <path
         d="M112.2 122C94.25 124.5 69.75 146.1 63.7 159.6C61.46 165.1 61.44 168.9 63.49 172.6C67.87 180.3 70.53 180.9 76.17 180.4C81.8 180 90.43 176.2 99.79 171.1C109.1 165.9 119.3 159.6 129.8 155.2C140.4 150.8 152.2 148 163.6 152.7C172.3 156.2 178.1 163.2 182.2 170.4C190.1 183.2 191.9 198.1 200.3 210C203.2 214.1 205.4 215.7 209.1 216.1L209.1 216C214.1 216.6 217.5 214.8 222.3 210.1C234.9 196 242.2 178.3 254.1 165.3C260.9 158.1 270 152 281.2 152C290.3 152 297.8 156.8 303.1 162.4C313.2 172.4 317.5 185.6 327.2 195.5C330.6 199 332.8 200.1 335.9 200C340.1 199 342.6 193.4 344.7 190C348.9 182.8 353.6 172.1 365.5 168.4C386.4 163.7 403.8 175.9 420.2 185C428 189.3 435.2 192.4 439.8 192.9C444.3 193.5 446 193.3 449.5 188C452.9 182.9 453.1 177.5 450.6 170.3C441.2 148.7 420.2 130.4 400.2 122Z"
         class=""
         fill="url(#delapouite-cloth-jar-gradient-4)"
         stroke="#4a4a4a"
         stroke-opacity="1"
         stroke-width="8"
         id="path63" />
      <path
         d="M150.6 168.3C137.8 169.5 126.4 176.7 116.2 182.4C102.1 248.3 108.4 333.4 169 366.3C147.4 307.7 155.8 252.9 176.1 201.5C171.1 189.7 166.3 173.9 156.8 169.3C155 168.6 152.9 168.2 150.6 168.3Z"
         class=""
         fill="url(#delapouite-cloth-jar-gradient-5)"
         stroke="#4a4a4a"
         stroke-opacity="1"
         stroke-width="8"
         id="path65" />
      <path
         d="M53.95 189.4C47.19 215 44.21 243.3 45.06 271.3C46.09 305.3 52.73 338.8 65.69 366.6C77.08 390.9 93.65 411 115.9 421.6L103.2 446.9L103.2 449C104 459.4 115.5 461.7 122.9 463.1C131.4 464.7 142.9 466 156.5 467C183.9 469 220 470 256.2 470C292.4 470 328.5 469 355.9 467C369.5 466 381 464.7 389.5 463.1C397.9 461.6 409 458.3 409.2 449C406 439.5 401 430.4 396.6 421.6C418.7 411 435.2 390.9 446.5 366.5C459.4 338.8 466 305.3 467 271.3C467.8 247.9 465.8 224.2 461.2 202.1C456.5 207 450.5 209.8 444.5 210.7C448.1 229.9 449.7 250.4 449.1 270.7C448.1 302.7 441.7 334.2 430.2 359C418.9 383.3 402.9 400.7 382.5 408L129.9 408C109.4 400.7 93.37 383.3 82 358.9C70.41 334.2 64.02 302.7 63.05 270.7C62.3 245.8 64.82 220.7 70.35 198C64.49 197 58.73 194.1 53.95 189.4Z"
         class=""
         fill="url(#delapouite-cloth-jar-gradient-6)"
         stroke="#4a4a4a"
         stroke-opacity="1"
         stroke-width="8"
         id="path67" />
      <path
         d="M133.8 426L378.6 426L388.1 444.9C376.8 447.2 364.1 448.3 354.5 449C327.9 451 292 452 256.2 452C220.4 452 184.5 451 157.9 449C142.7 448.2 134.5 447.7 124.3 444.9Z"
         class="selected"
         fill="url(#delapouite-cloth-jar-gradient-7)"
         stroke="#4a4a4a"
         stroke-opacity="1"
         stroke-width="8"
         id="path69" />
    </g>
  </g>
  <path
     style="fill:#67b016;stroke:#4a4a4a;stroke-width:8;stroke-linecap:butt;stroke-linejoin:miter;stroke-opacity:1;stroke-miterlimit:4;stroke-dasharray:none;fill-opacity:1"
     d="m 86.124284,196.94187 c -9.746224,16.65415 -9.936222,33.78829 -9.549542,50.95139 -2.307991,17.17653 -1.098226,33.7772 1.614405,50.13183 -3.114424,13.5835 3.710551,33.52073 9.575744,52.84443 l 18.864549,26.07636 16.44974,16.64211 85.92197,3.47641 166.95217,0.64622 c 18.31034,-2.02885 29.09933,-19.94162 41.24399,-34.99144 4.94419,2.30213 12.69086,-31.83495 14.37571,-36.61666 2.42547,-6.88363 9.257,-69.28989 3.37057,-76.14104 l -4.41395,-36.74366 c 2.7612,-9.58085 -3.82775,-16.36467 -18.5388,-20.71882 l -34.75788,-12.32432 c -12.70455,-4.27994 -17.11647,3.98738 -21.08376,12.92745 l -8.53021,20.70769 -22.76132,-4.56279 -27.42654,-27.0838 c -2.28402,-6.06756 -1.00988,-12.12938 -14.57947,-18.21513 -15.72073,3.02992 -24.77382,13.22098 -31.68986,25.70726 0,0 -10.87056,27.54943 -13.46549,28.0728 -2.59494,0.52338 -18.19645,9.48844 -21.06701,10.04131 -2.87057,0.55287 -32.29439,-15.51138 -32.29439,-15.51138 0,0 1.10853,10.4545 -4.11197,21.51421 -5.22051,11.05971 -11.84565,63.54131 -11.84565,63.54131 l 4.62543,51.27892 12.46635,32.6473 -30.20117,-4.84754 -25.87557,-25.73715 c -9.85305,-20.22352 -19.69189,-30.48711 -22.92798,-60.67057 -5.05996,-16.34633 -10.335154,-32.46706 -5.99485,-58.66645 l 1.92855,-39.39744 z"
     id="path112"
     sodipodi:nodetypes="cccccccccsccccccccccsscsccccccccc" />
  <g
     id="g210"
     class=""
     transform="matrix(0.37209159,0,0,0.37209159,173.30576,207.17377)"
     style="stroke:#4a4a4a;stroke-opacity:1;stroke-width:10.75004141;stroke-miterlimit:4;stroke-dasharray:none">
    <g
       id="g208"
       style="stroke:#4a4a4a;stroke-opacity:1;stroke-width:10.75004141;stroke-miterlimit:4;stroke-dasharray:none">
      <path
         id="path204"
         class=""
         d="M 263.844,40.344 C 234.1,213.202 145.594,248.03 145.594,369.22 c 0,60.804 60.106,105.5 118.25,105.5 59.45,0 115.937,-41.803 115.937,-99.533 0,-116.332 -85.2,-162.312 -115.936,-334.843 z"
         inkscape:connector-curvature="0"
         style="fill:url(#gradient-2);stroke:#4a4a4a;stroke-opacity:1;stroke-width:10.75004141;stroke-miterlimit:4;stroke-dasharray:none" />
      <path
         id="path206"
         class="selected"
         d="m 205.564,257.438 c -27.963,75.53 -5.105,154.567 54.25,179.375 15.185,6.348 31.724,7.714 47.905,6.28 C 191.585,492.88 121.883,363.277 205.561,257.437 Z"
         inkscape:connector-curvature="0"
         style="fill:#375f06;fill-opacity:1;stroke:#4a4a4a;stroke-opacity:1;stroke-width:10.75004141;stroke-miterlimit:4;stroke-dasharray:none" />
    </g>
  </g>
</svg>
