<?xml version="1.0" encoding="UTF-8" standalone="no"?>
<svg
   xmlns:dc="http://purl.org/dc/elements/1.1/"
   xmlns:cc="http://creativecommons.org/ns#"
   xmlns:rdf="http://www.w3.org/1999/02/22-rdf-syntax-ns#"
   xmlns:svg="http://www.w3.org/2000/svg"
   xmlns="http://www.w3.org/2000/svg"
   xmlns:sodipodi="http://sodipodi.sourceforge.net/DTD/sodipodi-0.dtd"
   xmlns:inkscape="http://www.inkscape.org/namespaces/inkscape"
   viewBox="0 0 512 512"
   style="height: 64px; width: 64px;"
   version="1.1"
   id="svg12"
   sodipodi:docname="potion-protection-contre-les-elements.svg"
   inkscape:export-filename="/home/plic/Téléchargements/potion-protection-contre-les-elements.png"
   inkscape:export-xdpi="24"
   inkscape:export-ydpi="24"
   inkscape:version="0.92.3 (2405546, 2018-03-11)">
  <metadata
     id="metadata18">
    <rdf:RDF>
      <cc:Work
         rdf:about="">
        <dc:format>image/svg+xml</dc:format>
        <dc:type
           rdf:resource="http://purl.org/dc/dcmitype/StillImage" />
        <dc:title></dc:title>
      </cc:Work>
    </rdf:RDF>
  </metadata>
  <defs
     id="defs16">
    <radialGradient
       id="gradient-1">
      <stop
         id="stop142"
         stop-opacity="1"
         stop-color="#a0ee49"
         offset="0%" />
      <stop
         id="stop144"
         stop-opacity="1"
         stop-color="#417505"
         offset="100%" />
    </radialGradient>
    <radialGradient
       id="gradient-2"
       gradientTransform="scale(0.73425765,1.3619198)"
       cx="357.7593"
       cy="189.09484"
       fx="357.7593"
       fy="189.09484"
       r="159.47195"
       gradientUnits="userSpaceOnUse">
      <stop
         id="stop147"
         stop-opacity="1"
         stop-color="#98f23a"
         offset="0%" />
      <stop
         id="stop149"
         stop-opacity="1"
         stop-color="#386107"
         offset="100%" />
    </radialGradient>
    <radialGradient
       id="gradient-6">
      <stop
         id="stop152"
         stop-opacity="1"
         stop-color="#ffffff"
         offset="0%" />
      <stop
         id="stop154"
         stop-opacity="1"
         stop-color="#000000"
         offset="100%" />
    </radialGradient>
    <radialGradient
       id="gradient-8">
      <stop
         id="stop157"
         stop-opacity="1"
         stop-color="#ffffff"
         offset="0%" />
      <stop
         id="stop159"
         stop-opacity="1"
         stop-color="#000000"
         offset="100%" />
    </radialGradient>
    <radialGradient
       id="gradient-9">
      <stop
         id="stop162"
         stop-opacity="1"
         stop-color="#ffffff"
         offset="0%" />
      <stop
         id="stop164"
         stop-opacity="1"
         stop-color="#000000"
         offset="100%" />
    </radialGradient>
    <radialGradient
       id="gradient-10">
      <stop
         id="stop167"
         stop-opacity="1"
         stop-color="#ffffff"
         offset="0%" />
      <stop
         id="stop169"
         stop-opacity="1"
         stop-color="#000000"
         offset="100%" />
    </radialGradient>
    <radialGradient
       id="gradient-11">
      <stop
         id="stop172"
         stop-opacity="1"
         stop-color="#ffffff"
         offset="0%" />
      <stop
         id="stop174"
         stop-opacity="1"
         stop-color="#000000"
         offset="100%" />
    </radialGradient>
    <radialGradient
       id="gradient-12">
      <stop
         id="stop177"
         stop-opacity="1"
         stop-color="#ffffff"
         offset="0%" />
      <stop
         id="stop179"
         stop-opacity="1"
         stop-color="#000000"
         offset="100%" />
    </radialGradient>
    <radialGradient
       id="gradient-13">
      <stop
         id="stop182"
         stop-opacity="1"
         stop-color="#ffffff"
         offset="0%" />
      <stop
         id="stop184"
         stop-opacity="1"
         stop-color="#000000"
         offset="100%" />
    </radialGradient>
    <radialGradient
       id="gradient-14">
      <stop
         id="stop187"
         stop-opacity="1"
         stop-color="#ffffff"
         offset="0%" />
      <stop
         id="stop189"
         stop-opacity="1"
         stop-color="#000000"
         offset="100%" />
    </radialGradient>
    <radialGradient
       id="gradient-15">
      <stop
         id="stop192"
         stop-opacity="1"
         stop-color="#ffffff"
         offset="0%" />
      <stop
         id="stop194"
         stop-opacity="1"
         stop-color="#000000"
         offset="100%" />
    </radialGradient>
    <radialGradient
       id="gradient-16">
      <stop
         id="stop197"
         stop-opacity="1"
         stop-color="#ffffff"
         offset="0%" />
      <stop
         id="stop199"
         stop-opacity="1"
         stop-color="#000000"
         offset="100%" />
    </radialGradient>
    <radialGradient
       gradientUnits="userSpaceOnUse"
       r="137.03193"
       fy="211.69845"
       fx="281.53078"
       cy="211.69845"
       cx="281.53078"
       gradientTransform="scale(0.92863027,1.0768548)"
       id="gradient-4">
      <stop
         offset="0%"
         stop-color="#48baff"
         stop-opacity="1"
         id="stop118" />
      <stop
         offset="100%"
         stop-color="#4a90e2"
         stop-opacity="1"
         id="stop120" />
    </radialGradient>
    <radialGradient
       gradientUnits="userSpaceOnUse"
       r="135.02366"
       fy="215.93944"
       fx="296.73908"
       cy="215.93944"
       cx="296.73908"
       gradientTransform="scale(0.85062581,1.1756051)"
       id="gradient-4-3">
      <stop
         offset="0%"
         stop-color="#f5a623"
         stop-opacity="1"
         id="stop152-6" />
      <stop
         offset="100%"
         stop-color="#d0021b"
         stop-opacity="1"
         id="stop154-7" />
    </radialGradient>
    <radialGradient
       id="gradient-4-5">
      <stop
         offset="0%"
         stop-color="#48baff"
         stop-opacity="1"
         id="stop183" />
      <stop
         offset="100%"
         stop-color="#4a90e2"
         stop-opacity="1"
         id="stop185" />
    </radialGradient>
  </defs>
  <sodipodi:namedview
     pagecolor="#ffffff"
     bordercolor="#666666"
     borderopacity="1"
     objecttolerance="10"
     gridtolerance="10"
     guidetolerance="10"
     inkscape:pageopacity="0"
     inkscape:pageshadow="2"
     inkscape:window-width="1313"
     inkscape:window-height="868"
     id="namedview14"
     showgrid="false"
     inkscape:zoom="0.66796875"
     inkscape:cx="345.30977"
     inkscape:cy="156.94331"
     inkscape:window-x="2518"
     inkscape:window-y="175"
     inkscape:window-maximized="0"
     inkscape:current-layer="svg12" />
  <g
     class=""
     transform="translate(0,0)"
     style="touch-action: none;"
     id="g10">
    <g
       id="g8">
      <path
         d="M196.336 18.547L235.822 111.145C251.25 116.335 266.288 116.105 281.957 111.148L316.203 18.548L196.336 18.548Z"
         class=""
         fill="#8b572a"
         fill-opacity="1"
         id="path2" />
      <path
         d="M163.73 35.12L168.31 47.67C176.595 70.375 189.89 93.59 197.268 115.354C204.644 137.118 206.368 155.736 194.128 173C180.448 192.295 155.54 212.036 133.506 235.426C111.472 258.816 91.95 286.95 91.95 323.506C91.95 414.502 165.813 489.113 256.86 489.113C347.906 489.113 422.467 414.551 422.467 323.506C422.467 287.153 403.834 258.531 382.121 234.779C360.409 211.027 335.274 191.207 319.891 172.474C310.711 161.298 311.808 138.338 319.011 113.526C326.213 88.714 338.276 63.489 344.919 48.186L350.589 35.12L330 35.12L297.018 124.307C292.39 146.27 292.218 168.227 305.448 184.337C322.942 205.639 348.034 225.189 368.328 247.389C388.623 269.587 403.778 293.496 403.778 323.505C403.778 404.357 337.714 470.425 256.858 470.425C176.005 470.425 110.638 404.41 110.638 323.505C110.638 293.557 126.392 270.23 147.108 248.239C167.828 226.249 193.148 206.689 209.371 183.809C225.455 161.124 223.323 135.209 215.661 111.505L191.399 54.612C191.283 54.347 191.157 54.074 191.042 53.81L191.059 53.81L183.089 35.12L163.73 35.12Z"
         class=""
         fill="#4a4a4a"
         fill-opacity="1"
         stroke="#4a4a4a"
         stroke-opacity="1"
         stroke-width="10"
         id="path4" />
      <path
         d="M256.955 237.354C227.429 237.354 200.711 241.929 182.203 248.854C172.949 252.316 165.789 256.404 161.471 260.224C157.543 263.7 156.208 266.427 155.997 268.644L155.73 268.644C155.73 283.991 163.538 298.634 176.646 310.531C176.141 310.314 175.621 310.104 175.123 309.881C164.396 305.101 155.441 299.503 148.736 292.929C146.506 290.742 144.496 288.397 142.799 285.909C135.319 298.049 130.384 311.497 130.384 327.049C130.384 396.819 187.129 454.181 256.901 454.181C326.673 454.181 384.031 396.821 384.031 327.051C384.031 311.328 379.108 297.567 371.641 285.121C369.839 287.903 367.641 290.511 365.175 292.929C358.47 299.503 349.515 305.099 338.788 309.882C338.344 310.08 337.88 310.267 337.432 310.462C350.492 298.577 358.269 283.962 358.269 268.645L357.915 268.645C357.705 266.429 356.369 263.702 352.44 260.227C348.123 256.407 340.963 252.317 331.71 248.857C313.2 241.931 286.48 237.357 256.955 237.357Z"
         class="selected"
         fill="#f2d9b5"
         fill-opacity="1"
         id="path6" />
    </g>
  </g>
  <g
     id="g116"
     transform="matrix(0.16647166,0,0,0.16647166,251.46485,357.57885)">
    <g
       id="g132"
       class="">
      <g
         id="g130">
        <path
           id="path122"
           class=""
           d="M 259.303,23.195 C 191.17,23.188 122.745,33.57 54.896,54.732 l -6.12,2.825 -0.303,6.52 c 0,95.313 9.696,178.568 40.297,249.96 30.6,71.392 82.32,130.185 165.277,174.62 l 4.672,2.337 4.087,-2.336 C 343.87,445.236 396.29,386.753 427.5,315.205 458.71,243.658 468.965,159.721 468.965,64.075 V 57.07 l -6.424,-2.336 C 395.381,33.596 327.437,23.204 259.304,23.197 Z"
           inkscape:connector-curvature="0"
           style="fill:#417505;fill-opacity:1" />
        <path
           id="path124"
           class=""
           d="m 259.303,41.885 c 63.658,0.006 127.43,10.16 190.388,29.2 -0.554,91.083 -10.827,170.314 -39.71,236.528 -29.03,66.545 -76.342,120.412 -151.26,161.772 C 181.681,427.003 134.197,373.5 105.706,307.029 77.424,241.044 68.248,161.951 67.746,71.085 c 63.81,-19.192 127.7,-29.208 191.558,-29.2 z"
           inkscape:connector-curvature="0"
           style="fill:#b8e986;fill-opacity:1" />
        <path
           id="path126"
           class=""
           d="m 261.688,80.405 -55.875,32.44 30.125,52.218 c -5.717,2.35 -11.042,5.44 -15.844,9.187 l -30.125,-52.188 -55.782,32.376 v 63.812 h 60.53 c -0.418,3.04 -0.655,6.156 -0.655,9.313 0,3.177 0.232,6.305 0.656,9.375 H 134.186 V 301.5 l 55.718,32.344 30.313,-52.5 c 4.787,3.774 10.088,6.905 15.78,9.28 l -30.25,52.438 55.938,32.47 55.906,-32.376 -30.344,-52.53 c 5.696,-2.38 10.99,-5.534 15.78,-9.313 L 333.44,334 388.69,302 V 236.937 H 328.5 c 0.424,-3.07 0.656,-6.197 0.656,-9.375 0,-3.156 -0.237,-6.27 -0.656,-9.312 h 60.188 v -64.344 l -55.313,-32 -30.22,52.375 c -4.803,-3.75 -10.123,-6.864 -15.842,-9.218 L 317.531,112.72 261.689,80.406 Z"
           inkscape:connector-curvature="0"
           style="fill:#d0021b;fill-opacity:0" />
        <path
           id="path128"
           class="selected"
           d="m 261.594,178.375 c 27.22,0 49.22,21.964 49.22,49.188 -0.002,27.224 -21.996,49.187 -49.22,49.187 -27.224,0 -49.188,-21.966 -49.188,-49.188 0,-27.22 21.967,-49.187 49.188,-49.187 z"
           inkscape:connector-curvature="0"
           style="fill:#b8e986;fill-opacity:1" />
      </g>
    </g>
    <g
       transform="matrix(0.55445336,0,0,0.55445336,109.83234,82.53991)"
       class=""
       id="g210">
      <g
         id="g208">
        <path
           style="fill:url(#gradient-2)"
           inkscape:connector-curvature="0"
           d="M 263.844,40.344 C 234.1,213.202 145.594,248.03 145.594,369.22 c 0,60.804 60.106,105.5 118.25,105.5 59.45,0 115.937,-41.803 115.937,-99.533 0,-116.332 -85.2,-162.312 -115.936,-334.843 z"
           class=""
           id="path204" />
        <path
           style="fill:#375f06;fill-opacity:1"
           inkscape:connector-curvature="0"
           d="m 205.564,257.438 c -27.963,75.53 -5.105,154.567 54.25,179.375 15.185,6.348 31.724,7.714 47.905,6.28 C 191.585,492.88 121.883,363.277 205.561,257.437 Z"
           class="selected"
           id="path206" />
      </g>
    </g>
  </g>
  <g
     id="g135"
     class=""
     transform="matrix(0.16647166,0,0,0.16647166,259.25274,271.88394)">
    <g
       id="g133">
      <path
         id="path125"
         class=""
         d="M 259.303,23.195 C 191.17,23.188 122.745,33.57 54.896,54.732 l -6.12,2.825 -0.303,6.52 c 0,95.313 9.696,178.568 40.297,249.96 30.6,71.392 82.32,130.185 165.277,174.62 l 4.672,2.337 4.087,-2.336 C 343.87,445.236 396.29,386.753 427.5,315.205 458.71,243.658 468.965,159.721 468.965,64.075 V 57.07 l -6.424,-2.336 C 395.381,33.596 327.437,23.204 259.304,23.197 Z"
         inkscape:connector-curvature="0"
         style="fill:#4a90e2;fill-opacity:1" />
      <path
         id="path127"
         class=""
         d="m 259.303,41.885 c 63.658,0.006 127.43,10.16 190.388,29.2 -0.554,91.083 -10.827,170.314 -39.71,236.528 -29.03,66.545 -76.342,120.412 -151.26,161.772 C 181.681,427.003 134.197,373.5 105.706,307.029 77.424,241.044 68.248,161.951 67.746,71.085 c 63.81,-19.192 127.7,-29.208 191.558,-29.2 z"
         inkscape:connector-curvature="0"
         style="fill:#bfe6fe;fill-opacity:1" />
      <path
         id="path129"
         class=""
         d="m 261.688,80.405 -55.875,32.44 30.125,52.218 c -5.717,2.35 -11.042,5.44 -15.844,9.187 l -30.125,-52.188 -55.782,32.376 v 63.812 h 60.53 c -0.418,3.04 -0.655,6.156 -0.655,9.313 0,3.177 0.232,6.305 0.656,9.375 H 134.186 V 301.5 l 55.718,32.344 30.313,-52.5 c 4.787,3.774 10.088,6.905 15.78,9.28 l -30.25,52.438 55.938,32.47 55.906,-32.376 -30.344,-52.53 c 5.696,-2.38 10.99,-5.534 15.78,-9.313 L 333.44,334 388.69,302 V 236.937 H 328.5 c 0.424,-3.07 0.656,-6.197 0.656,-9.375 0,-3.156 -0.237,-6.27 -0.656,-9.312 h 60.188 v -64.344 l -55.313,-32 -30.22,52.375 c -4.803,-3.75 -10.123,-6.864 -15.842,-9.218 L 317.531,112.72 261.689,80.406 Z"
         inkscape:connector-curvature="0"
         style="fill:url(#gradient-4)" />
      <path
         id="path131"
         class="selected"
         d="m 261.594,178.375 c 27.22,0 49.22,21.964 49.22,49.188 -0.002,27.224 -21.996,49.187 -49.22,49.187 -27.224,0 -49.188,-21.966 -49.188,-49.188 0,-27.22 21.967,-49.187 49.188,-49.187 z"
         inkscape:connector-curvature="0"
         style="fill:#50e3c2;fill-opacity:1" />
    </g>
  </g>
  <g
     id="g167"
     class=""
     transform="matrix(0.16929968,0,0,0.16929968,168.44877,261.58413)">
    <g
       id="g165">
      <path
         id="path159"
         class=""
         d="m 51.063,24.28 v 11.282 c 0,100.82 9.297,189.164 39.28,264.563 29.985,75.4 80.96,137.547 162.5,184.625 l 4.688,2.72 4.69,-2.72 C 341.9,438.745 392.977,376.788 423.56,301.22 454.145,225.65 464.53,136.725 464.53,35.562 V 24.407 l -11,1.97 c -127.69,22.82 -256.29,25.504 -391.407,0 L 51.062,24.28 Z"
         inkscape:connector-curvature="0"
         style="fill:#d0021b;fill-opacity:1" />
      <path
         id="path161"
         class=""
         d="M 445.688,46.53 C 444.932,141.734 434.382,224.71 406.25,294.22 377.642,364.904 331.183,422.012 257.53,465.78 182.022,420.96 135.72,363.71 107.688,293.22 80.158,223.99 70.571,141.605 69.875,46.72 c 129.47,23.027 253.39,20.565 375.813,-0.19 z"
         inkscape:connector-curvature="0"
         style="fill:#ffd899;fill-opacity:1" />
      <path
         style="fill:url(#gradient-4-3)"
         id="path163"
         class="selected"
         d="m 287.563,95.126 c -89.104,26.58 -40.383,91.028 -63.063,125.438 -23.757,36.044 -72.72,29.163 -56.656,-64.5 -70.924,81.05 -2.55,220.42 54.844,256.53 -16.13,-14.81 -26.75,-40.03 -26.75,-68.656 0,-8.276 0.91,-16.274 2.562,-23.812 7.277,19.842 24.264,33.78 44.063,33.78 26.426,0 47.843,-24.79 47.843,-55.374 0,-10.14 -2.356,-19.636 -6.47,-27.81 19.228,13.78 32.345,41.39 32.345,73.217 0,24.946 -8.07,47.3 -20.81,62.438 C 347.752,374.36 394.957,294.442 348,199.28 327.043,307.126 239.895,153.355 287.562,95.125 Z"
         inkscape:connector-curvature="0" />
    </g>
  </g>
  <g
     id="g196"
     class=""
     transform="matrix(0.16632017,0,0,0.16632017,160.35843,352.08007)">
    <g
       id="g194">
      <path
         id="path190"
         class=""
         d="m 464.188,21.844 -10.97,1.937 C 322.7,46.84 193.83,49.9 62.376,25.188 44.529,24.858 57.969,24.912 43.313,24.908 l 0.376,8.062 c 0,20.07 0.373,39.718 1.187,58.81 l 0.313,7.5 7.406,1.282 c 23.815,4.14 41.906,24.693 41.906,49.782 0,21.526 -12.815,39.36 -31.5,46.812 l -7.126,2.844 1.406,7.53 C 79.423,327.95 134.21,423.74 249.25,490.157 l 4.688,2.72 4.656,-2.72 C 371.38,425.04 426.936,328.466 450,207 l 1.406,-7.406 -6.937,-2.938 c -18.255,-7.72 -31.095,-25.293 -31.095,-46.312 0,-25.048 18.128,-45.617 41.906,-49.78 l 7.376,-1.283 0.344,-7.468 c 0.888,-19.207 1.188,-38.74 1.188,-58.843 V 21.843 Z"
         inkscape:connector-curvature="0"
         style="fill:#c6bb1c;fill-opacity:1" />
      <path
         id="path192"
         class="selected"
         d="m 445.406,43.906 c -0.08,13.617 -0.337,26.97 -0.844,40.063 -28.778,8.433 -49.875,34.948 -49.875,66.374 0,25.886 14.477,48.117 35.532,59.937 C 407.48,323.113 356.802,410 253.905,471.126 148.812,408.765 98.946,322.767 77.062,211.03 c 21.635,-11.7 36.126,-34.465 36.126,-60.686 0,-31.43 -21.077,-57.958 -49.876,-66.375 -0.476,-13 -0.747,-26.278 -0.843,-39.782 C 138.186,58.14 213.08,62.986 287.812,60.28 L 196.03,182.25 h 51.69 l -91.876,159.97 93.72,-96.064 H 289 L 193.47,393.312 376.563,208.687 h -90.47 l 60.25,-61.75 H 290 L 365.938,54.75 c 26.47,-2.762 52.955,-6.384 79.468,-10.844 z"
         inkscape:connector-curvature="0"
         style="fill:#fbf4ac;fill-opacity:1" />
    </g>
  </g>
</svg>
