<?xml version="1.0" encoding="UTF-8" standalone="no"?>
<svg
   xmlns:dc="http://purl.org/dc/elements/1.1/"
   xmlns:cc="http://creativecommons.org/ns#"
   xmlns:rdf="http://www.w3.org/1999/02/22-rdf-syntax-ns#"
   xmlns:svg="http://www.w3.org/2000/svg"
   xmlns="http://www.w3.org/2000/svg"
   xmlns:sodipodi="http://sodipodi.sourceforge.net/DTD/sodipodi-0.dtd"
   xmlns:inkscape="http://www.inkscape.org/namespaces/inkscape"
   viewBox="0 0 512 512"
   style="height: 64px; width: 64px;"
   version="1.1"
   id="svg12"
   sodipodi:docname="potion-chute-ralentie.svg"
   inkscape:export-filename="/home/plic/Téléchargements/potion-chute-ralentie.png"
   inkscape:export-xdpi="24"
   inkscape:export-ydpi="24"
   inkscape:version="0.92.3 (2405546, 2018-03-11)">
  <metadata
     id="metadata18">
    <rdf:RDF>
      <cc:Work
         rdf:about="">
        <dc:format>image/svg+xml</dc:format>
        <dc:type
           rdf:resource="http://purl.org/dc/dcmitype/StillImage" />
        <dc:title></dc:title>
      </cc:Work>
    </rdf:RDF>
  </metadata>
  <defs
     id="defs16" />
  <sodipodi:namedview
     pagecolor="#ffffff"
     bordercolor="#666666"
     borderopacity="1"
     objecttolerance="10"
     gridtolerance="10"
     guidetolerance="10"
     inkscape:pageopacity="0"
     inkscape:pageshadow="2"
     inkscape:window-width="1768"
     inkscape:window-height="889"
     id="namedview14"
     showgrid="false"
     inkscape:zoom="0.4609375"
     inkscape:cx="-59.504206"
     inkscape:cy="313.36607"
     inkscape:window-x="2064"
     inkscape:window-y="154"
     inkscape:window-maximized="0"
     inkscape:current-layer="svg12" />
  <g
     class=""
     transform="translate(0,0)"
     style="touch-action: none;"
     id="g10">
    <g
       id="g8">
      <path
         d="M196.336 18.547L235.822 111.145C251.25 116.335 266.288 116.105 281.957 111.148L316.203 18.548L196.336 18.548Z"
         class=""
         fill="#8b572a"
         fill-opacity="1"
         id="path2" />
      <path
         d="M163.73 35.12L168.31 47.67C176.595 70.375 189.89 93.59 197.268 115.354C204.644 137.118 206.368 155.736 194.128 173C180.448 192.295 155.54 212.036 133.506 235.426C111.472 258.816 91.95 286.95 91.95 323.506C91.95 414.502 165.813 489.113 256.86 489.113C347.906 489.113 422.467 414.551 422.467 323.506C422.467 287.153 403.834 258.531 382.121 234.779C360.409 211.027 335.274 191.207 319.891 172.474C310.711 161.298 311.808 138.338 319.011 113.526C326.213 88.714 338.276 63.489 344.919 48.186L350.589 35.12L330 35.12L297.018 124.307C292.39 146.27 292.218 168.227 305.448 184.337C322.942 205.639 348.034 225.189 368.328 247.389C388.623 269.587 403.778 293.496 403.778 323.505C403.778 404.357 337.714 470.425 256.858 470.425C176.005 470.425 110.638 404.41 110.638 323.505C110.638 293.557 126.392 270.23 147.108 248.239C167.828 226.249 193.148 206.689 209.371 183.809C225.455 161.124 223.323 135.209 215.661 111.505L191.399 54.612C191.283 54.347 191.157 54.074 191.042 53.81L191.059 53.81L183.089 35.12L163.73 35.12Z"
         class=""
         fill="#4a4a4a"
         fill-opacity="1"
         stroke="#4a4a4a"
         stroke-opacity="1"
         stroke-width="10"
         id="path4" />
      <path
         d="M256.955 237.354C227.429 237.354 200.711 241.929 182.203 248.854C172.949 252.316 165.789 256.404 161.471 260.224C157.543 263.7 156.208 266.427 155.997 268.644L155.73 268.644C155.73 283.991 163.538 298.634 176.646 310.531C176.141 310.314 175.621 310.104 175.123 309.881C164.396 305.101 155.441 299.503 148.736 292.929C146.506 290.742 144.496 288.397 142.799 285.909C135.319 298.049 130.384 311.497 130.384 327.049C130.384 396.819 187.129 454.181 256.901 454.181C326.673 454.181 384.031 396.821 384.031 327.051C384.031 311.328 379.108 297.567 371.641 285.121C369.839 287.903 367.641 290.511 365.175 292.929C358.47 299.503 349.515 305.099 338.788 309.882C338.344 310.08 337.88 310.267 337.432 310.462C350.492 298.577 358.269 283.962 358.269 268.645L357.915 268.645C357.705 266.429 356.369 263.702 352.44 260.227C348.123 256.407 340.963 252.317 331.71 248.857C313.2 241.931 286.48 237.357 256.955 237.357Z"
         class="selected"
         fill="#fff46d"
         fill-opacity="1"
         id="path6" />
    </g>
  </g>
  <g
     id="g834"
     class=""
     transform="matrix(0.31818918,0,0,0.31818918,178.2345,237.80003)">
    <g
       id="g832">
      <path
         id="path828"
         class="selected"
         d="m 221.313,16 c -13.079,-0.003 -23.684,10.602 -23.688,23.688 v 106.406 c 0.023,3.356 0.757,6.669 2.156,9.72 -0.38,4.818 0.722,9.636 3.157,13.81 l 41.75,71.626 -79,55.438 6.094,-48.625 c 0.976,-7.923 -2.101,-15.806 -8.186,-20.97 l -66.28,-81.937 c -8.232,-10.173 -23.149,-11.74 -33.314,-3.5 l -9.188,7.438 c -10.185,8.228 -11.766,23.163 -3.53,33.344 l 59.78,73.906 -11.25,89.937 c -1.209,9.779 3.756,19.286 12.47,23.876 l 37.468,53.47 c 0.708,0.996 1.491,1.937 2.344,2.812 0.511,8.676 5.728,16.375 13.594,20.062 L 262,491.53 c 3.122,1.457 6.525,2.214 9.97,2.22 7.651,3.554 16.614,2.768 23.53,-2.063 l 87.156,-60.937 c 10.723,-7.497 13.34,-22.273 5.844,-33 l -6.78,-9.688 c -7.484,-10.731 -22.244,-13.361 -32.97,-5.875 l -72.406,50.657 -59.063,-27.625 120.595,-84.626 c 2.135,-1.515 4.003,-3.374 5.53,-5.5 6.639,-2.154 11.991,-7.128 14.626,-13.594 l 37.22,-91.53 87.813,-44.845 c 11.657,-5.953 16.275,-20.227 10.312,-31.875 L 488,122.687 c -5.944,-11.655 -20.216,-16.286 -31.875,-10.343 l -94.688,48.375 c -4.135,2.113 -7.558,5.394 -9.843,9.436 -3.73,2.615 -6.627,6.25 -8.344,10.47 l -27.375,67.31 -5.22,-7.436 c -0.404,-3.118 -1.423,-6.124 -3,-8.844 l -50.81,-87.094 V 39.688 C 256.841,26.601 246.234,15.995 233.154,16 h -11.843 z"
         inkscape:connector-curvature="0"
         style="fill:#714622;fill-opacity:1;stroke:#4a4a4a;stroke-width:10;stroke-opacity:1" />
      <path
         id="path830"
         class=""
         d="M 77.75,376 C 43.933,375.01 15.986,402.165 16,436 c 0,46.193 50,75.063 90,51.967 18.564,-10.719 30,-30.529 30,-51.967 0.014,-32.468 -25.799,-59.056 -58.25,-60 z"
         inkscape:connector-curvature="0"
         style="fill:#cbae80;fill-opacity:1;stroke:#8b572a;stroke-width:10;stroke-opacity:1" />
    </g>
  </g>
  <g
     id="g900"
     class=""
     transform="matrix(0.1295671,-0.10285403,0.12858307,0.10364117,196.6491,402.86048)">
    <g
       id="g898">
      <path
         id="path888"
         class="selected"
         d="m 377.305,19.355 -5.21,20.52 -15.165,-14.771 -12.56,12.894 15.165,14.772 -20.375,5.748 4.889,17.324 20.375,-5.748 -5.21,20.52 17.446,4.429 5.211,-20.52 15.166,14.772 12.559,-12.895 -15.168,-14.773 20.377,-5.748 -4.887,-17.322 -20.375,5.748 5.209,-20.52 z"
         inkscape:connector-curvature="0"
         style="fill:#d0021b;fill-opacity:0" />
      <path
         id="path890"
         class=""
         d="m 205.387,75.765 c -28.067,-0.116 -49.927,56.533 -57.727,90.608 -11.26,49.19 -14.529,83.515 -0.828,133.059 l -17.348,4.798 c -15.463,-55.917 -8.245,-94.75 2.301,-142.341 10.547,-47.592 14.52,-70.403 -4.459,-74.182 C 85.244,79.328 82.04,178.17 79.57,222.604 c -1.396,25.808 0.71,57.017 6.54,77.552 l -16.901,6.196 C 54.779,253.002 62.552,208.395 67.516,155.582 70.009,140 65.729,129.905 48.414,130.416 32.581,130.883 21.399,273.778 35.139,309.457 43.852,362.518 66.386,440.029 46.094,462.223 L 18,494 h 205.973 l 19.986,-28.592 c 23.08,-5.008 28.42,-19.86 37.023,-33.787 25.291,-40.946 82.384,-83.166 129.114,-99.226 21.142,-7.51 -21.912,-48.546 -53.836,-32.782 -55.005,27.162 -81.646,56.298 -117.772,38.295 -55.855,-27.834 -47.245,-100.648 -35.861,-162.83 6.141,-33.544 40.41,-89.602 7.156,-98.824 -1.444,-0.316 -2.918,-0.479 -4.396,-0.488 z"
         inkscape:connector-curvature="0"
         style="fill:#8b572a;fill-opacity:1;stroke:#4a4a4a;stroke-width:10;stroke-opacity:1" />
      <path
         id="path892"
         class=""
         d="m 296.105,100.6 -30.718,29.39 23.394,25.104 c -4.628,3.41 -8.617,7.736 -11.758,12.75 l -24.132,-25.899 -23.29,22.285 7.204,38.215 32.65,-7.19 c 0.093,6.211 1.284,12.244 3.336,17.636 l -32.662,7.191 7.203,38.215 29.5,10.66 12.846,-34.066 c 4.69,3.307 9.918,5.625 15.406,6.832 l -12.426,32.953 38.91,14.058 30.72,-29.392 -23.395,-25.104 c 4.628,-3.41 8.617,-7.735 11.757,-12.748 l 24.133,25.897 23.291,-22.283 -7.203,-38.215 -32.652,7.19 c -0.094,-6.211 -1.283,-12.244 -3.334,-17.636 l 32.66,-7.193 -7.203,-38.215 -29.5,-10.66 -12.846,34.068 c -4.69,-3.307 -9.918,-5.626 -15.406,-6.834 l 12.426,-32.95 z"
         inkscape:connector-curvature="0"
         style="fill:#d0021b;fill-opacity:0" />
      <path
         id="path894"
         class=""
         d="m 443.643,150.46 -16.813,6.43 7.563,19.774 -20.909,-3.338 -2.838,17.776 20.907,3.337 -13.344,16.438 13.975,11.344 13.343,-16.438 7.563,19.776 16.812,-6.43 -7.56,-19.774 20.904,3.338 2.838,-17.775 -20.904,-3.338 13.341,-16.435 -13.972,-11.346 -13.344,16.435 z"
         inkscape:connector-curvature="0"
         style="fill:#d0021b;fill-opacity:0" />
      <path
         id="path896"
         class=""
         d="m 307.928,163.31 28.078,10.147 5.91,31.356 -22.168,21.208 -28.078,-10.144 -5.912,-31.356 z"
         inkscape:connector-curvature="0"
         style="fill:#9b9b9b;fill-opacity:0" />
    </g>
  </g>
</svg>
