<?xml version="1.0" encoding="UTF-8" standalone="no"?>
<svg
   xmlns:dc="http://purl.org/dc/elements/1.1/"
   xmlns:cc="http://creativecommons.org/ns#"
   xmlns:rdf="http://www.w3.org/1999/02/22-rdf-syntax-ns#"
   xmlns:svg="http://www.w3.org/2000/svg"
   xmlns="http://www.w3.org/2000/svg"
   xmlns:sodipodi="http://sodipodi.sourceforge.net/DTD/sodipodi-0.dtd"
   xmlns:inkscape="http://www.inkscape.org/namespaces/inkscape"
   viewBox="0 0 512 512"
   style="height: 64px; width: 64px;"
   version="1.1"
   id="svg12"
   sodipodi:docname="potion-clairvoyance.svg"
   inkscape:version="0.92.3 (2405546, 2018-03-11)"
   inkscape:export-filename="/home/plic/Téléchargements/potion-clairvoyance.png"
   inkscape:export-xdpi="24"
   inkscape:export-ydpi="24">
  <metadata
     id="metadata18">
    <rdf:RDF>
      <cc:Work
         rdf:about="">
        <dc:format>image/svg+xml</dc:format>
        <dc:type
           rdf:resource="http://purl.org/dc/dcmitype/StillImage" />
        <dc:title></dc:title>
      </cc:Work>
    </rdf:RDF>
  </metadata>
  <defs
     id="defs16" />
  <sodipodi:namedview
     pagecolor="#ffffff"
     bordercolor="#666666"
     borderopacity="1"
     objecttolerance="10"
     gridtolerance="10"
     guidetolerance="10"
     inkscape:pageopacity="0"
     inkscape:pageshadow="2"
     inkscape:window-width="1696"
     inkscape:window-height="858"
     id="namedview14"
     showgrid="false"
     inkscape:zoom="1.3222656"
     inkscape:cx="256"
     inkscape:cy="256"
     inkscape:window-x="2079"
     inkscape:window-y="46"
     inkscape:window-maximized="0"
     inkscape:current-layer="svg12" />
  <g
     class=""
     transform="translate(0,0)"
     style="touch-action: none;"
     id="g10">
    <g
       id="g8">
      <path
         d="M196.336 18.547L235.822 111.145C251.25 116.335 266.288 116.105 281.957 111.148L316.203 18.548L196.336 18.548Z"
         class=""
         fill="#8b572a"
         fill-opacity="1"
         id="path2" />
      <path
         d="M163.73 35.12L168.31 47.67C176.595 70.375 189.89 93.59 197.268 115.354C204.644 137.118 206.368 155.736 194.128 173C180.448 192.295 155.54 212.036 133.506 235.426C111.472 258.816 91.95 286.95 91.95 323.506C91.95 414.502 165.813 489.113 256.86 489.113C347.906 489.113 422.467 414.551 422.467 323.506C422.467 287.153 403.834 258.531 382.121 234.779C360.409 211.027 335.274 191.207 319.891 172.474C310.711 161.298 311.808 138.338 319.011 113.526C326.213 88.714 338.276 63.489 344.919 48.186L350.589 35.12L330 35.12L297.018 124.307C292.39 146.27 292.218 168.227 305.448 184.337C322.942 205.639 348.034 225.189 368.328 247.389C388.623 269.587 403.778 293.496 403.778 323.505C403.778 404.357 337.714 470.425 256.858 470.425C176.005 470.425 110.638 404.41 110.638 323.505C110.638 293.557 126.392 270.23 147.108 248.239C167.828 226.249 193.148 206.689 209.371 183.809C225.455 161.124 223.323 135.209 215.661 111.505L191.399 54.612C191.283 54.347 191.157 54.074 191.042 53.81L191.059 53.81L183.089 35.12L163.73 35.12Z"
         class=""
         fill="#4a4a4a"
         fill-opacity="1"
         stroke="#4a4a4a"
         stroke-opacity="1"
         stroke-width="10"
         id="path4" />
      <path
         d="M256.955 237.354C227.429 237.354 200.711 241.929 182.203 248.854C172.949 252.316 165.789 256.404 161.471 260.224C157.543 263.7 156.208 266.427 155.997 268.644L155.73 268.644C155.73 283.991 163.538 298.634 176.646 310.531C176.141 310.314 175.621 310.104 175.123 309.881C164.396 305.101 155.441 299.503 148.736 292.929C146.506 290.742 144.496 288.397 142.799 285.909C135.319 298.049 130.384 311.497 130.384 327.049C130.384 396.819 187.129 454.181 256.901 454.181C326.673 454.181 384.031 396.821 384.031 327.051C384.031 311.328 379.108 297.567 371.641 285.121C369.839 287.903 367.641 290.511 365.175 292.929C358.47 299.503 349.515 305.099 338.788 309.882C338.344 310.08 337.88 310.267 337.432 310.462C350.492 298.577 358.269 283.962 358.269 268.645L357.915 268.645C357.705 266.429 356.369 263.702 352.44 260.227C348.123 256.407 340.963 252.317 331.71 248.857C313.2 241.931 286.48 237.357 256.955 237.357Z"
         class="selected"
         fill="#adadad"
         fill-opacity="1"
         id="path6" />
    </g>
  </g>
  <g
     id="g894"
     class=""
     transform="matrix(0.34824099,0,0,0.34824099,168.37767,248.72014)">
    <g
       id="g892">
      <path
         id="path828"
         class=""
         d="M 18,18 V 33.797 L 179.434,215.41 188.918,198.986 28.04,18 Z"
         inkscape:connector-curvature="0"
         style="fill:#f5a623;fill-opacity:1" />
      <path
         id="path830"
         class=""
         d="m 95.705,18 96.95,174.512 10.493,-18.176 L 116.295,18 Z"
         inkscape:connector-curvature="0"
         style="fill:#f5a623;fill-opacity:1" />
      <path
         id="path832"
         class=""
         d="m 186.859,18 c 4.326,19.018 15.27,67.152 28.36,125.326 0.557,2.482 1.074,4.807 1.63,7.278 l 13.275,-22.993 C 219.105,78.687 209.9,38.14 205.32,18 h -18.46 z"
         inkscape:connector-curvature="0"
         style="fill:#f5a623;fill-opacity:1" />
      <path
         id="path834"
         class=""
         d="m 247,18 v 80.383 l 9,-15.588 7.795,13.5 1.205,2.088 V 18 Z"
         inkscape:connector-curvature="0"
         style="fill:#f5a623;fill-opacity:1" />
      <path
         id="path836"
         class=""
         d="M 306.78,18 282.27,128.297 295.584,151.355 325.22,18 Z"
         inkscape:connector-curvature="0"
         style="fill:#f5a623;fill-opacity:1" />
      <path
         id="path838"
         class=""
         d="M 395.705,18 308.852,174.336 319.346,192.512 416.296,18 h -20.59 z"
         inkscape:connector-curvature="0"
         style="fill:#f5a623;fill-opacity:1" />
      <path
         id="path840"
         class=""
         d="M 483.959,18 323.083,198.986 332.565,215.41 494,33.797 V 18 h -10.04 z"
         inkscape:connector-curvature="0"
         style="fill:#f5a623;fill-opacity:1" />
      <path
         id="path842"
         class=""
         d="m 18,98.25 v 22.5 l 150.79,113.094 9.067,-15.7 z"
         inkscape:connector-curvature="0"
         style="fill:#f5a623;fill-opacity:1" />
      <path
         id="path844"
         class=""
         d="m 494,98.25 -159.855,119.893 9.064,15.7 L 494,120.75 Z"
         inkscape:connector-curvature="0"
         style="fill:#f5a623;fill-opacity:1" />
      <path
         id="path846"
         class=""
         d="m 256,118.797 -74.656,129.308 c 20.297,-9.102 46.254,-14.35 74.656,-14.35 28.402,0 54.36,5.248 74.656,14.35 z"
         inkscape:connector-curvature="0"
         style="fill:#980012;fill-opacity:1" />
      <path
         id="path848"
         class=""
         d="m 18,189.137 v 19.226 l 136.05,51.018 9.122,-15.804 L 18,189.136 Z"
         inkscape:connector-curvature="0"
         style="fill:#f5a623;fill-opacity:1" />
      <path
         id="path850"
         class=""
         d="m 494,189.137 -145.172,54.44 9.123,15.804 L 494,208.364 v -19.226 z"
         inkscape:connector-curvature="0"
         style="fill:#f5a623;fill-opacity:1" />
      <path
         id="path852"
         class=""
         d="m 18,249.18 v 18.14 l 122.615,15.326 9.77,-16.92 z"
         inkscape:connector-curvature="0"
         style="fill:#f5a623;fill-opacity:1" />
      <path
         id="path854"
         class=""
         d="m 494,249.18 -132.383,16.547 9.768,16.92 L 494,267.32 Z"
         inkscape:connector-curvature="0"
         style="fill:#f5a623;fill-opacity:1" />
      <path
         id="path856"
         class=""
         d="m 256,251.756 c -14.737,0 -26.49,11.75 -26.49,26.488 0,8.536 3.948,16.065 10.13,20.895 -0.906,-2.778 -1.373,-5.681 -1.384,-8.603 0,-15.514 12.576,-28.09 28.09,-28.09 4.537,0.007 9.004,1.113 13.02,3.223 C 274.92,257.354 266.172,251.755 256,251.755 Z"
         inkscape:connector-curvature="0"
         style="fill:#ffffff;fill-opacity:1" />
      <path
         id="path858"
         class="selected"
         d="m 217.82,255.492 c -12.656,2.568 -23.93,6.328 -33.082,10.904 -17.63,8.815 -26.21,19.758 -26.21,29.594 0,9.837 8.58,20.777 26.21,29.592 17.63,8.815 43.077,14.643 71.262,14.643 28.185,0 53.632,-5.828 71.262,-14.643 17.63,-8.815 26.21,-19.755 26.21,-29.592 0,-9.836 -8.58,-20.78 -26.21,-29.594 -9.153,-4.576 -20.426,-8.336 -33.082,-10.904 4,6.67 6.31,14.453 6.31,22.752 0,24.465 -20.025,44.49 -44.49,44.49 -24.465,0 -44.49,-20.025 -44.49,-44.49 0,-8.3 2.31,-16.083 6.31,-22.752 z"
         inkscape:connector-curvature="0"
         style="fill:#ffffff;fill-opacity:1" />
      <path
         id="path860"
         class=""
         d="M 133.953,294.186 18,308.68 v 18.14 l 104.666,-13.082 z"
         inkscape:connector-curvature="0"
         style="fill:#f5a623;fill-opacity:1" />
      <path
         id="path862"
         class=""
         d="M 378.047,294.186 389.334,313.738 494,326.82 v -18.14 z"
         inkscape:connector-curvature="0"
         style="fill:#f5a623;fill-opacity:1" />
      <path
         id="path864"
         class=""
         d="m 144.289,312.286 -57.112,98.92 h 337.644 l -57.11,-98.92 c -5.763,12.078 -17.677,22.035 -32.4,29.398 -20.907,10.452 -48.695,16.54 -79.312,16.54 -30.617,0 -58.405,-6.088 -79.31,-16.54 -14.725,-7.363 -26.64,-17.32 -32.4,-29.4 z"
         inkscape:connector-curvature="0"
         style="fill:#980012;fill-opacity:1" />
      <path
         id="path866"
         class=""
         d="m 400.129,332.436 14.167,24.537 79.704,29.89 v -19.226 l -93.87,-35.2 z"
         inkscape:connector-curvature="0"
         style="fill:#f5a623;fill-opacity:1" />
      <path
         id="path868"
         class=""
         d="M 111.869,332.438 18,367.637 v 19.225 l 79.703,-29.888 14.166,-24.538 z"
         inkscape:connector-curvature="0"
         style="fill:#f5a623;fill-opacity:1" />
      <path
         id="path870"
         class=""
         d="M 80.224,387.246 18,426.136 v 21.227 l 43.05,-26.906 19.175,-33.21 z"
         inkscape:connector-curvature="0"
         style="fill:#f5a623;fill-opacity:1" />
      <path
         id="path872"
         class=""
         d="m 431.774,387.246 19.174,33.21 43.052,26.908 v -21.226 l -62.225,-38.89 z"
         inkscape:connector-curvature="0"
         style="fill:#f5a623;fill-opacity:1" />
      <path
         id="path874"
         class=""
         d="M 80.954,429.206 18,484.29 V 494 h 16.238 l 74.05,-64.795 H 80.956 Z"
         inkscape:connector-curvature="0"
         style="fill:#f5a623;fill-opacity:1" />
      <path
         id="path876"
         class=""
         d="M 123.112,429.206 67.573,494 h 23.71 l 55.537,-64.795 h -23.707 z"
         inkscape:connector-curvature="0"
         style="fill:#f5a623;fill-opacity:1" />
      <path
         id="path878"
         class=""
         d="M 164.944,429.206 127.92,494 h 20.732 l 37.026,-64.795 h -20.733 z"
         inkscape:connector-curvature="0"
         style="fill:#f5a623;fill-opacity:1" />
      <path
         id="path880"
         class=""
         d="m 207.696,429.206 c -8.665,28.96 -15.66,51.885 -19.61,64.794 h 18.82 c 4.678,-15.314 11.433,-37.537 19.573,-64.795 h -18.783 z"
         inkscape:connector-curvature="0"
         style="fill:#f5a623;fill-opacity:1" />
      <path
         id="path882"
         class=""
         d="M 246.999,429.206 V 494 h 18 v -64.795 h -18 z"
         inkscape:connector-curvature="0"
         style="fill:#f5a623;fill-opacity:1" />
      <path
         id="path884"
         class=""
         d="M 286.983,429.206 305.496,494 h 18.723 l -18.515,-64.795 h -18.72 z"
         inkscape:connector-curvature="0"
         style="fill:#f5a623;fill-opacity:1" />
      <path
         id="path886"
         class=""
         d="M 326.321,429.206 363.348,494 h 20.732 l -37.025,-64.795 h -20.733 z"
         inkscape:connector-curvature="0"
         style="fill:#f5a623;fill-opacity:1" />
      <path
         id="path888"
         class=""
         d="M 365.177,429.206 420.718,494 h 23.708 l -55.54,-64.795 H 365.18 Z"
         inkscape:connector-curvature="0"
         style="fill:#f5a623;fill-opacity:1" />
      <path
         id="path890"
         class=""
         d="M 403.71,429.206 477.763,494 H 494 v -9.71 L 431.045,429.205 H 403.71 Z"
         inkscape:connector-curvature="0"
         style="fill:#f5a623;fill-opacity:1" />
    </g>
  </g>
</svg>
