<?xml version="1.0" encoding="UTF-8" standalone="no"?>
<svg
   xmlns:dc="http://purl.org/dc/elements/1.1/"
   xmlns:cc="http://creativecommons.org/ns#"
   xmlns:rdf="http://www.w3.org/1999/02/22-rdf-syntax-ns#"
   xmlns:svg="http://www.w3.org/2000/svg"
   xmlns="http://www.w3.org/2000/svg"
   xmlns:sodipodi="http://sodipodi.sourceforge.net/DTD/sodipodi-0.dtd"
   xmlns:inkscape="http://www.inkscape.org/namespaces/inkscape"
   viewBox="0 0 512 512"
   style="height: 64px; width: 64px;"
   version="1.1"
   id="svg12"
   sodipodi:docname="potion-forme-gazeuse.svg"
   inkscape:export-filename="/home/plic/Téléchargements/potion-forme-gazeuse.png"
   inkscape:export-xdpi="24"
   inkscape:export-ydpi="24"
   inkscape:version="0.92.3 (2405546, 2018-03-11)">
  <metadata
     id="metadata18">
    <rdf:RDF>
      <cc:Work
         rdf:about="">
        <dc:format>image/svg+xml</dc:format>
        <dc:type
           rdf:resource="http://purl.org/dc/dcmitype/StillImage" />
        <dc:title />
      </cc:Work>
    </rdf:RDF>
  </metadata>
  <defs
     id="defs16" />
  <sodipodi:namedview
     pagecolor="#ffffff"
     bordercolor="#666666"
     borderopacity="1"
     objecttolerance="10"
     gridtolerance="10"
     guidetolerance="10"
     inkscape:pageopacity="0"
     inkscape:pageshadow="2"
     inkscape:window-width="1384"
     inkscape:window-height="871"
     id="namedview14"
     showgrid="false"
     inkscape:zoom="0.921875"
     inkscape:cx="175.39619"
     inkscape:cy="257.18414"
     inkscape:window-x="2100"
     inkscape:window-y="108"
     inkscape:window-maximized="0"
     inkscape:current-layer="svg12" />
  <g
     class=""
     transform="translate(0,0)"
     style="touch-action: none;"
     id="g10">
    <g
       id="g8">
      <path
         d="M196.336 18.547L235.822 111.145C251.25 116.335 266.288 116.105 281.957 111.148L316.203 18.548L196.336 18.548Z"
         class=""
         fill="#8b572a"
         fill-opacity="1"
         id="path2" />
      <path
         d="M163.73 35.12L168.31 47.67C176.595 70.375 189.89 93.59 197.268 115.354C204.644 137.118 206.368 155.736 194.128 173C180.448 192.295 155.54 212.036 133.506 235.426C111.472 258.816 91.95 286.95 91.95 323.506C91.95 414.502 165.813 489.113 256.86 489.113C347.906 489.113 422.467 414.551 422.467 323.506C422.467 287.153 403.834 258.531 382.121 234.779C360.409 211.027 335.274 191.207 319.891 172.474C310.711 161.298 311.808 138.338 319.011 113.526C326.213 88.714 338.276 63.489 344.919 48.186L350.589 35.12L330 35.12L297.018 124.307C292.39 146.27 292.218 168.227 305.448 184.337C322.942 205.639 348.034 225.189 368.328 247.389C388.623 269.587 403.778 293.496 403.778 323.505C403.778 404.357 337.714 470.425 256.858 470.425C176.005 470.425 110.638 404.41 110.638 323.505C110.638 293.557 126.392 270.23 147.108 248.239C167.828 226.249 193.148 206.689 209.371 183.809C225.455 161.124 223.323 135.209 215.661 111.505L191.399 54.612C191.283 54.347 191.157 54.074 191.042 53.81L191.059 53.81L183.089 35.12L163.73 35.12Z"
         class=""
         fill="#4a4a4a"
         fill-opacity="1"
         stroke="#4a4a4a"
         stroke-opacity="1"
         stroke-width="10"
         id="path4" />
      <path
         d="M256.955 237.354C227.429 237.354 200.711 241.929 182.203 248.854C172.949 252.316 165.789 256.404 161.471 260.224C157.543 263.7 156.208 266.427 155.997 268.644L155.73 268.644C155.73 283.991 163.538 298.634 176.646 310.531C176.141 310.314 175.621 310.104 175.123 309.881C164.396 305.101 155.441 299.503 148.736 292.929C146.506 290.742 144.496 288.397 142.799 285.909C135.319 298.049 130.384 311.497 130.384 327.049C130.384 396.819 187.129 454.181 256.901 454.181C326.673 454.181 384.031 396.821 384.031 327.051C384.031 311.328 379.108 297.567 371.641 285.121C369.839 287.903 367.641 290.511 365.175 292.929C358.47 299.503 349.515 305.099 338.788 309.882C338.344 310.08 337.88 310.267 337.432 310.462C350.492 298.577 358.269 283.962 358.269 268.645L357.915 268.645C357.705 266.429 356.369 263.702 352.44 260.227C348.123 256.407 340.963 252.317 331.71 248.857C313.2 241.931 286.48 237.357 256.955 237.357Z"
         class="selected"
         fill="#cafafe"
         fill-opacity="1"
         id="path6" />
    </g>
  </g>
  <g
     id="g34"
     class=""
     transform="matrix(0.45523088,0,0,0.45523088,152.33184,220.99154)">
    <g
       id="g32">
      <path
         id="path20"
         class=""
         d="m 82.055,26.807 c -33.127,0 -60.182,27.057 -60.182,60.183 0,33.126 27.055,60.182 60.182,60.182 33.126,0 60.18,-27.056 60.18,-60.182 0,-33.127 -27.054,-60.183 -60.18,-60.183 z"
         inkscape:connector-curvature="0"
         style="fill:#98daff;fill-opacity:1" />
      <path
         id="path22"
         class=""
         d="m 95.905,47.85 c 16.15,5.665 27.64,20.98 27.64,39.14 0,23.025 -18.465,41.49 -41.49,41.49 -23.025,0 -41.49,-18.465 -41.49,-41.49 0,-0.55 0.02,-1.097 0.04,-1.642 6.067,8.444 15.966,13.95 27.157,13.95 18.46,0 33.425,-14.966 33.425,-33.427 0,-6.638 -1.943,-12.82 -5.28,-18.02 z"
         inkscape:connector-curvature="0"
         style="fill:#4a90e2;fill-opacity:1" />
      <path
         id="path24"
         class=""
         d="m 253.963,59.705 c -58.15,0.002 -105.123,47.627 -105.123,105.71 0,48.528 32.96,89.51 77.738,101.726 -8.41,17.653 -13.498,37.277 -13.498,58.294 0,76.485 62.51,138.998 138.996,138.998 h 0.004 c 76.485,0 138.412,-62.562 138.412,-138.998 0,-38.083 -15.76,-72.427 -40.658,-97.454 16.358,-14.68 26.643,-36.147 26.643,-59.648 0,-43.695 -35.733,-79.426 -79.428,-79.426 -20.743,0 -39.395,8.335 -53.43,21.41 -18.555,-30.156 -51.717,-50.61 -89.657,-50.61 z"
         inkscape:connector-curvature="0"
         style="fill:#98daff;fill-opacity:1" />
      <path
         id="path26"
         class="selected"
         d="m 253.963,78.395 c 34.466,0 64.11,20.527 78.127,49.697 -2.174,5.54 -3.38,11.563 -3.38,17.873 0,27.04 21.918,48.96 48.958,48.96 27.04,0 48.96,-21.92 48.96,-48.96 0,-14.81 -6.586,-28.073 -16.978,-37.05 27.496,5.802 48.137,30.194 48.137,59.417 0,21.225 -10.98,40.403 -27.336,51.186 l -10.354,6.826 9.418,8.07 c 25.745,22.062 42.29,54.548 42.29,91.02 0,66.374 -53.402,120.308 -119.724,120.308 h -0.004 c -57.162,0 -105.154,-40.103 -117.322,-93.642 15.684,22.5 41.747,37.226 71.254,37.226 47.94,0 86.8,-38.862 86.8,-86.8 0,-47.94 -38.86,-86.8 -86.8,-86.8 -28.382,0 -53.578,13.625 -69.416,34.688 -39.414,-8.176 -69.063,-43.066 -69.063,-85 0,-0.494 0.01,-0.985 0.017,-1.476 9.545,23.694 32.734,40.425 59.846,40.425 35.627,0 64.51,-28.88 64.51,-64.508 0,-28.533 -18.534,-52.723 -44.214,-61.232 2.07,-0.148 4.162,-0.228 6.273,-0.228 z"
         inkscape:connector-curvature="0"
         style="fill:#4a90e2;fill-opacity:1" />
      <path
         id="path28"
         class=""
         d="m 105.945,241.835 c -7.16,-0.028 -14.436,0.883 -21.668,2.82 C 40.2,256.47 14.415,302.08 26.203,346.076 c 6.57,24.52 23.502,43.28 44.84,53.198 -6.084,12.932 -7.977,27.963 -3.982,42.87 9.028,33.693 44.24,53.447 77.813,44.45 33.573,-8.995 53.595,-43.677 44.6,-77.25 -3.488,-13.016 -10.86,-23.98 -20.496,-32.017 16.684,-19.844 24.108,-47.014 16.87,-74.027 v -0.003 c -9.596,-35.817 -41.55,-59.943 -76.84,-61.395 -1.017,-0.042 -2.04,-0.064 -3.062,-0.068 z"
         inkscape:connector-curvature="0"
         style="fill:#98daff;fill-opacity:1" />
      <path
         id="path30"
         class=""
         d="m 105.945,260.5 c 0.794,0.002 1.586,0.018 2.375,0.05 27.367,1.083 52.01,19.727 59.475,47.585 6.445,24.055 -2.003,47.964 -19.39,63.7 l -9.663,8.743 11.383,6.346 c 10.19,5.68 18.04,15.104 21.295,27.256 6.393,23.86 -7.526,47.97 -31.383,54.36 -20.92,5.606 -42.49,-4.383 -51.775,-22.935 6.85,3.057 14.754,3.877 22.564,1.784 18.086,-4.847 28.82,-23.438 23.973,-41.525 -4.847,-18.085 -23.437,-28.816 -41.523,-23.97 -2.766,0.74 -5.36,1.807 -7.752,3.14 -19.715,-6.628 -35.476,-22.17 -41.27,-43.797 -0.678,-2.524 -1.18,-5.05 -1.548,-7.572 10.962,18.105 32.915,27.61 54.387,21.857 26.044,-6.978 41.5,-33.75 34.52,-59.796 -4.7,-17.548 -18.392,-30.275 -34.788,-34.586 3.055,-0.432 6.1,-0.647 9.12,-0.64 z"
         inkscape:connector-curvature="0"
         style="fill:#4a90e2;fill-opacity:1" />
    </g>
  </g>
</svg>
