<?xml version="1.0" encoding="UTF-8" standalone="no"?>
<svg
   xmlns:dc="http://purl.org/dc/elements/1.1/"
   xmlns:cc="http://creativecommons.org/ns#"
   xmlns:rdf="http://www.w3.org/1999/02/22-rdf-syntax-ns#"
   xmlns:svg="http://www.w3.org/2000/svg"
   xmlns="http://www.w3.org/2000/svg"
   xmlns:sodipodi="http://sodipodi.sourceforge.net/DTD/sodipodi-0.dtd"
   xmlns:inkscape="http://www.inkscape.org/namespaces/inkscape"
   viewBox="0 0 512 512"
   style="height: 64px; width: 64px;"
   version="1.1"
   id="svg12"
   sodipodi:docname="potion-flou.svg"
   inkscape:export-filename="/home/plic/Téléchargements/potion-flou.png"
   inkscape:export-xdpi="24"
   inkscape:export-ydpi="24"
   inkscape:version="0.92.3 (2405546, 2018-03-11)">
  <metadata
     id="metadata18">
    <rdf:RDF>
      <cc:Work
         rdf:about="">
        <dc:format>image/svg+xml</dc:format>
        <dc:type
           rdf:resource="http://purl.org/dc/dcmitype/StillImage" />
        <dc:title></dc:title>
      </cc:Work>
    </rdf:RDF>
  </metadata>
  <defs
     id="defs16">
    <filter
       y="-100%"
       x="-100%"
       width="300%"
       height="300%"
       id="shadow-2">
      <feFlood
         id="feFlood992"
         result="flood"
         flood-color="rgba(74, 74, 74, 1)" />
      <feComposite
         id="feComposite994"
         result="composite"
         operator="atop"
         in2="SourceGraphic"
         in="flood" />
      <feGaussianBlur
         id="feGaussianBlur996"
         result="blur"
         stdDeviation="50"
         in="composite" />
      <feOffset
         id="feOffset998"
         result="offset"
         dy="50"
         dx="50" />
      <feComposite
         id="feComposite1000"
         operator="over"
         in2="offset"
         in="SourceGraphic" />
    </filter>
    <radialGradient
       id="gradient-3">
      <stop
         id="stop1003"
         stop-opacity="1"
         stop-color="#d0021b"
         offset="0%" />
      <stop
         id="stop1005"
         stop-opacity="1"
         stop-color="#f5a623"
         offset="100%" />
    </radialGradient>
    <radialGradient
       id="gradient-4">
      <stop
         id="stop1008"
         stop-opacity="1"
         stop-color="#f5a623"
         offset="0%" />
      <stop
         id="stop1010"
         stop-opacity="1"
         stop-color="#f8e71c"
         offset="100%" />
    </radialGradient>
    <radialGradient
       id="gradient-5">
      <stop
         id="stop1013"
         stop-opacity="1"
         stop-color="#417505"
         offset="0%" />
      <stop
         id="stop1015"
         stop-opacity="1"
         stop-color="#7ed321"
         offset="100%" />
    </radialGradient>
    <radialGradient
       id="gradient-6">
      <stop
         id="stop1018"
         stop-opacity="1"
         stop-color="#9013fe"
         offset="0%" />
      <stop
         id="stop1020"
         stop-opacity="1"
         stop-color="#bd10e0"
         offset="100%" />
    </radialGradient>
    <radialGradient
       id="gradient-7">
      <stop
         id="stop1023"
         stop-opacity="1"
         stop-color="#4a90e2"
         offset="0%" />
      <stop
         id="stop1025"
         stop-opacity="1"
         stop-color="#48baff"
         offset="100%" />
    </radialGradient>
    <radialGradient
       id="gradient-8">
      <stop
         id="stop1028"
         stop-opacity="1"
         stop-color="#8b572a"
         offset="0%" />
      <stop
         id="stop1030"
         stop-opacity="1"
         stop-color="#b57204"
         offset="100%" />
    </radialGradient>
  </defs>
  <sodipodi:namedview
     pagecolor="#ffffff"
     bordercolor="#666666"
     borderopacity="1"
     objecttolerance="10"
     gridtolerance="10"
     guidetolerance="10"
     inkscape:pageopacity="0"
     inkscape:pageshadow="2"
     inkscape:window-width="1508"
     inkscape:window-height="742"
     id="namedview14"
     showgrid="false"
     inkscape:zoom="0.70710678"
     inkscape:cx="187.78327"
     inkscape:cy="286.49242"
     inkscape:window-x="2284"
     inkscape:window-y="141"
     inkscape:window-maximized="0"
     inkscape:current-layer="svg12" />
  <g
     class=""
     transform="translate(0,0)"
     style="touch-action: none;"
     id="g10">
    <g
       id="g8">
      <path
         d="M196.336 18.547L235.822 111.145C251.25 116.335 266.288 116.105 281.957 111.148L316.203 18.548L196.336 18.548Z"
         class=""
         fill="#8b572a"
         fill-opacity="1"
         id="path2" />
      <path
         d="M163.73 35.12L168.31 47.67C176.595 70.375 189.89 93.59 197.268 115.354C204.644 137.118 206.368 155.736 194.128 173C180.448 192.295 155.54 212.036 133.506 235.426C111.472 258.816 91.95 286.95 91.95 323.506C91.95 414.502 165.813 489.113 256.86 489.113C347.906 489.113 422.467 414.551 422.467 323.506C422.467 287.153 403.834 258.531 382.121 234.779C360.409 211.027 335.274 191.207 319.891 172.474C310.711 161.298 311.808 138.338 319.011 113.526C326.213 88.714 338.276 63.489 344.919 48.186L350.589 35.12L330 35.12L297.018 124.307C292.39 146.27 292.218 168.227 305.448 184.337C322.942 205.639 348.034 225.189 368.328 247.389C388.623 269.587 403.778 293.496 403.778 323.505C403.778 404.357 337.714 470.425 256.858 470.425C176.005 470.425 110.638 404.41 110.638 323.505C110.638 293.557 126.392 270.23 147.108 248.239C167.828 226.249 193.148 206.689 209.371 183.809C225.455 161.124 223.323 135.209 215.661 111.505L191.399 54.612C191.283 54.347 191.157 54.074 191.042 53.81L191.059 53.81L183.089 35.12L163.73 35.12Z"
         class=""
         fill="#4a4a4a"
         fill-opacity="1"
         stroke="#4a4a4a"
         stroke-opacity="1"
         stroke-width="10"
         id="path4" />
      <path
         d="M256.955 237.354C227.429 237.354 200.711 241.929 182.203 248.854C172.949 252.316 165.789 256.404 161.471 260.224C157.543 263.7 156.208 266.427 155.997 268.644L155.73 268.644C155.73 283.991 163.538 298.634 176.646 310.531C176.141 310.314 175.621 310.104 175.123 309.881C164.396 305.101 155.441 299.503 148.736 292.929C146.506 290.742 144.496 288.397 142.799 285.909C135.319 298.049 130.384 311.497 130.384 327.049C130.384 396.819 187.129 454.181 256.901 454.181C326.673 454.181 384.031 396.821 384.031 327.051C384.031 311.328 379.108 297.567 371.641 285.121C369.839 287.903 367.641 290.511 365.175 292.929C358.47 299.503 349.515 305.099 338.788 309.882C338.344 310.08 337.88 310.267 337.432 310.462C350.492 298.577 358.269 283.962 358.269 268.645L357.915 268.645C357.705 266.429 356.369 263.702 352.44 260.227C348.123 256.407 340.963 252.317 331.71 248.857C313.2 241.931 286.48 237.357 256.955 237.357Z"
         class="selected"
         fill="#adadad"
         fill-opacity="1"
         id="path6" />
    </g>
  </g>
  <g
     id="g1039"
     transform="matrix(0.40949422,0,0,0.40949422,146.12112,235.29503)"
     class="">
    <g
       id="g1037">
      <path
         id="path1035"
         class="selected"
         d="m 164.594,21.625 c -0.537,0.012 -1.068,0.028 -1.563,0.094 -29.656,3.852 -52.56,35.847 -52.56,74.75 0,21.55 7.307,41.193 18.686,54.905 -61.678,11.594 -66.563,115.158 -66.562,188.063 h 43.218 l 11.094,152.437 H 179.97 L 168.905,340.03 h 21.47 l 11.343,152.158 h 108.686 l 10.03,-152.157 h 21.627 l -9.907,151.845 h 63.063 l 10.53,-152.438 h 40.28 c 0,-73.107 1.407,-178.78 -65.967,-189.218 10.89,-13.646 18.093,-32.734 18.093,-53.75 0,-41.496 -26.52,-74.75 -59,-74.75 -2.03,0 -4.43,-0.263 -6.406,0 -9.4,1.22 -17.562,5.455 -25.125,11.686 16.388,13.303 27.468,36.433 27.47,63.063 0,21.016 -7.236,40.104 -18.126,53.75 67.373,10.438 66,116.11 66,189.218 h -21.94 c 0.008,-73.086 1.29,-178.215 -65.905,-188.625 10.89,-13.647 17.906,-32.61 17.906,-53.625 0,-41.497 -26.457,-75 -58.936,-75 -2.03,0 -4.117,-0.262 -6.094,0 -29.657,3.85 -52.813,36.095 -52.813,75 0,21.547 7.373,40.788 18.75,54.5 -61.514,11.563 -66.318,114.874 -66.343,187.75 H 126.25 c -0.002,-72.905 4.322,-176.47 66,-188.063 -11.38,-13.712 -18.687,-33.356 -18.688,-54.906 0,-26.575 11.138,-49.632 27.438,-63.064 -9.148,-7.425 -19.896,-11.687 -31.53,-11.687 -1.525,0 -3.267,-0.132 -4.876,-0.095 z"
         inkscape:connector-curvature="0"
         style="fill:#4a4a4a;fill-opacity:1;filter:url(#shadow-2)" />
    </g>
  </g>
</svg>
