<?xml version="1.0" encoding="UTF-8" standalone="no"?>
<svg
   xmlns:dc="http://purl.org/dc/elements/1.1/"
   xmlns:cc="http://creativecommons.org/ns#"
   xmlns:rdf="http://www.w3.org/1999/02/22-rdf-syntax-ns#"
   xmlns:svg="http://www.w3.org/2000/svg"
   xmlns="http://www.w3.org/2000/svg"
   xmlns:sodipodi="http://sodipodi.sourceforge.net/DTD/sodipodi-0.dtd"
   xmlns:inkscape="http://www.inkscape.org/namespaces/inkscape"
   viewBox="0 0 512 512"
   style="height: 512px; width: 512px;"
   version="1.1"
   id="svg21"
   sodipodi:docname="rapiere-elfique-+1-en-argent.svg"
   inkscape:version="0.92.3 (2405546, 2018-03-11)"
   inkscape:export-filename="/home/plic/Documents/dev/cofbazar.github.io/images/resources/rapiere-elfique-+1-en-argent.png"
   inkscape:export-xdpi="90"
   inkscape:export-ydpi="90">
  <metadata
     id="metadata25">
    <rdf:RDF>
      <cc:Work
         rdf:about="">
        <dc:format>image/svg+xml</dc:format>
        <dc:type
           rdf:resource="http://purl.org/dc/dcmitype/StillImage" />
        <dc:title></dc:title>
      </cc:Work>
    </rdf:RDF>
  </metadata>
  <sodipodi:namedview
     pagecolor="#ffffff"
     bordercolor="#666666"
     borderopacity="1"
     objecttolerance="10"
     gridtolerance="10"
     guidetolerance="10"
     inkscape:pageopacity="0"
     inkscape:pageshadow="2"
     inkscape:window-width="1871"
     inkscape:window-height="1025"
     id="namedview23"
     showgrid="false"
     inkscape:zoom="0.94565316"
     inkscape:cx="260.59959"
     inkscape:cy="276.8861"
     inkscape:window-x="1969"
     inkscape:window-y="27"
     inkscape:window-maximized="1"
     inkscape:current-layer="svg21" />
  <defs
     id="defs7">
    <linearGradient
       x1="166.868"
       x2="479.278"
       y1="32.88"
       y2="345.29"
       id="gradient-4"
       gradientUnits="userSpaceOnUse">
      <stop
         offset="0%"
         stop-color="#9b9b9b"
         stop-opacity="1"
         id="stop2" />
      <stop
         offset="100%"
         stop-color="#c9c9c9"
         stop-opacity="1"
         id="stop4" />
    </linearGradient>
  </defs>
  <path
     d="m 38.748,473.09 c 11.162,11.188 30.25,6.097 34.358,-9.163 4.108,-15.261 -9.844,-29.246 -25.115,-25.174 -3.497,0.933 -6.686,2.774 -9.243,5.337 -8.034,7.998 -8.034,21.002 0,29 z"
     class=""
     id="path9"
     inkscape:connector-curvature="0"
     style="fill:#ff0000;fill-opacity:0" />
  <path
     d="m 442.928,58.28 c 8.78,-8.31 36.35,-25.4 36.35,-25.4 0,0 -17.08,27.56 -25.4,36.35 -58.39,61.66 -215.17,222.6 -267.3,276.06 l -19.71,-19.71 c 53.46,-52.13 214.4,-208.91 276.06,-267.3 z"
     class="selected"
     id="path13"
     style="fill:url(#gradient-4)"
     inkscape:connector-curvature="0" />
  <path
     d="m 106.138,383.81 c 8.8,-8.8 17.5,-16.88 25.68,-23.94 l 20.47,20.47 c -7.07,8.19 -15.14,16.88 -23.94,25.68 -13.147,13.299 -27.162,25.713 -41.95,37.16 -3.586,-7.667 -9.707,-13.862 -17.33,-17.54 11.423,-14.743 23.807,-28.717 37.07,-41.83 z"
     class=""
     id="path15"
     inkscape:connector-curvature="0"
     style="fill:#b57204;fill-opacity:1" />
  <path
     id="path832"
     class="selected"
     d="m 165.4843,197.46906 c -5.75214,0.0685 -10.62313,0.84335 -16.97916,3.40831 -1.12883,0.66784 -2.24562,1.37192 -3.34733,2.10822 0.0225,0.23492 0.0548,0.48594 0.10247,0.78664 0.18495,1.16787 0.68717,2.63778 1.39571,4.12178 -1.34803,1.40951 -2.63688,2.84116 -3.87011,4.29966 -0.99733,-1.84578 -1.79189,-3.80902 -2.26918,-5.83098 -3.89806,3.07171 -7.57391,6.58976 -10.96782,10.55047 0.0696,0.69334 0.28111,1.48065 0.64223,2.43307 0.67456,1.77866 1.93437,3.79961 3.51036,5.64204 -1.02747,1.74409 -1.98725,3.50228 -2.88512,5.28564 -2.23383,-2.41965 -4.10628,-5.22691 -5.26608,-8.2852 -0.002,-0.004 -0.007,-0.006 -0.008,-0.0101 -3.75257,5.13125 -7.06566,10.8572 -9.82144,17.14627 0.28439,1.03296 0.80388,2.10317 1.559,3.26199 1.4779,2.26863 3.87696,4.51578 6.60973,6.27095 -0.53619,2.04579 -1.00499,4.09494 -1.4042,6.15617 -3.62378,-2.12667 -6.90948,-4.99367 -9.20469,-8.51575 -0.0814,-0.12518 -0.15234,-0.26042 -0.23125,-0.38795 -2.38097,6.74045 -4.03039,13.64869 -4.99154,20.59687 0.5666,1.37124 1.52612,2.6304 2.86867,3.86942 2.38837,2.20554 5.94339,3.93856 9.72664,4.82453 0.0219,2.15252 0.11371,4.29563 0.26522,6.42868 -4.83674,-0.91718 -9.51566,-2.96499 -13.0748,-6.25047 -0.20275,-0.18727 -0.40276,-0.38795 -0.59894,-0.5873 -0.45208,7.48044 -0.13343,14.94208 0.91595,22.2131 0.9343,1.19539 2.21384,2.16124 3.84463,2.96734 3.25363,1.60986 7.74843,2.18473 12.22652,1.65718 0.53538,2.04377 1.12885,4.06272 1.77272,6.05079 -0.15179,0.0245 -0.30248,0.052 -0.45427,0.0738 -5.39761,0.77993 -10.9059,0.28291 -15.46318,-1.97163 -0.11233,-0.0557 -0.22303,-0.12014 -0.33426,-0.17786 1.81217,7.94255 4.50521,15.55655 8.00598,22.62085 1.16062,0.73898 2.55633,1.2115 4.19479,1.45783 3.65338,0.54903 8.29094,-0.33727 12.69806,-2.30722 1.01733,1.78469 2.07767,3.52711 3.18514,5.2118 -0.0997,0.0496 -0.19947,0.098 -0.29975,0.14699 -5.07895,2.48006 -10.52011,3.79493 -15.46317,3.25092 3.38378,5.45512 7.30129,10.46221 11.70431,14.90248 1.34802,0.35439 2.8673,0.36412 4.57207,0.0738 3.22293,-0.54903 6.90947,-2.33575 10.39462,-4.92923 4.57344,4.53994 9.55677,8.30667 14.82971,11.10621 l 2.03766,-5.75749 c -4.38575,-2.32903 -8.58054,-5.43128 -12.49229,-9.15505 3.63749,-3.65666 6.66343,-8.06035 8.28819,-12.24926 1.26939,-3.27206 1.72888,-6.19409 1.22474,-8.82047 -2.93827,-1.90954 -5.63872,-4.21341 -8.09093,-6.83777 -0.70251,2.54483 -1.87957,4.94333 -3.35638,7.06866 -2.26534,3.25931 -5.23594,6.07865 -8.55396,8.36909 -1.10418,-1.62327 -2.16945,-3.30427 -3.18513,-5.03393 3.1665,-2.09513 5.9475,-4.67654 7.84351,-7.40426 1.99464,-2.87036 3.00211,-5.61452 2.87689,-8.3899 -2.44125,-3.46201 -4.54001,-7.30324 -6.27601,-11.44181 -1.0187,1.51018 -2.2385,2.85659 -3.58763,3.9956 -2.64126,2.23071 -5.79762,3.87547 -9.16167,4.97119 -0.65758,-1.94378 -1.26118,-3.91305 -1.80642,-5.91489 3.0917,-0.96248 5.93051,-2.42367 8.06517,-4.22649 2.06424,-1.74275 3.41857,-3.61236 4.0156,-5.72594 -1.16994,-3.86875 -2.05411,-7.92677 -2.63716,-12.113 -1.03924,0.80811 -2.17,1.47394 -3.3476,1.98203 -2.85607,1.23231 -6.06203,1.7498 -9.34169,1.69912 -0.17481,-2.08338 -0.28166,-4.18153 -0.3255,-6.28236 2.93443,0.0805 5.74063,-0.3725 7.96297,-1.33231 1.99136,-0.85913 3.43692,-1.97096 4.3411,-3.44993 -0.2255,-4.23354 -0.15289,-8.55938 0.23124,-12.92045 -0.75073,0.20237 -1.51736,0.32956 -2.28617,0.38795 -2.83306,0.21478 -5.83982,-0.3564 -8.78494,-1.46823 0.36989,-2.0317 0.81211,-4.05467 1.32748,-6.07194 2.53824,0.96484 5.06662,1.43703 7.141,1.27963 1.44776,-0.10974 2.5903,-0.44064 3.47611,-1.02793 0.74717,-4.57485 1.83026,-9.15909 3.28788,-13.68561 -0.25481,-0.047 -0.51154,-0.094 -0.7617,-0.15773 -2.32178,-0.594 -4.63919,-1.81893 -6.80727,-3.44993 0.88306,-1.76859 1.83656,-3.51301 2.85991,-5.24402 1.71901,1.25413 3.47967,2.17265 4.99154,2.55926 0.7343,0.18793 1.36256,0.26847 1.90972,0.2517 1.56777,-3.89292 3.36733,-7.55964 5.35923,-10.96963 -1.41652,-0.91283 -2.73989,-2.13607 -3.94682,-3.55564 1.20967,-1.43635 2.48016,-2.85525 3.81038,-4.24731 0.89239,1.00108 1.81299,1.8233 2.64592,2.33844 0.26303,0.16243 0.49702,0.28257 0.71923,0.38794 1.24994,-1.8112 2.55632,-3.5449 3.90435,-5.18093 3.155,-3.92076 6.57521,-8.00899 9.50362,-12.84661 -0.39181,-0.001 -0.78088,-0.005 -1.16446,0 z"
     inkscape:connector-curvature="0"
     style="fill:#4a4a4a;fill-opacity:1;stroke-width:0.30323249" />
  <path
     id="path832-3"
     class="selected"
     d="m 315.73571,348.9278 c -0.17755,5.7498 -1.04463,10.60522 -3.72967,16.91147 -0.68912,1.11596 -1.41425,2.2192 -2.17131,3.30675 -0.23451,-0.0265 -0.48482,-0.064 -0.78456,-0.11737 -1.16415,-0.20706 -2.62427,-0.73707 -4.09457,-1.47362 -1.43481,1.32105 -2.89066,2.58252 -4.37227,3.78788 1.82653,1.03215 3.77435,1.86379 5.7869,2.37934 -3.14508,3.83911 -6.73219,7.44759 -10.75656,10.76578 -0.69184,-0.0832 -1.47505,-0.30913 -2.42045,-0.68826 -1.76555,-0.70816 -3.76225,-2.00607 -5.57445,-3.61671 -1.76328,0.99421 -3.53934,1.92048 -5.3394,2.78436 2.37686,2.27932 5.1481,4.20467 8.18385,5.42225 0.004,10e-4 0.006,0.008 0.01,0.008 -5.20149,3.6546 -10.98923,6.8585 -17.32943,9.49454 -1.02739,-0.30393 -2.08755,-0.84362 -3.23184,-1.62058 -2.2402,-1.52065 -4.44145,-3.9619 -6.14449,-6.72746 -2.05559,0.4973 -4.11326,0.92716 -6.18169,1.28722 2.05757,3.66346 4.86175,7.00293 8.33967,9.36451 0.12364,0.0837 0.25749,0.15725 0.3835,0.23856 -6.78439,2.25272 -13.72267,3.77085 -20.68782,4.60008 -1.36025,-0.59251 -2.60099,-1.57574 -3.81433,-2.94153 -2.15984,-2.42978 -3.82514,-6.01701 -4.63922,-9.81638 -2.15171,-0.0627 -4.29269,-0.19515 -6.42249,-0.38707 0.8253,4.85326 2.78401,9.57016 6.00141,13.19097 0.1834,0.20626 0.38024,0.41004 0.57584,0.60996 -7.48767,0.31015 -14.94192,-0.14993 -22.19174,-1.337 -1.17746,-0.9568 -2.11887,-2.25444 -2.8939,-3.90021 -1.54787,-3.28358 -2.0374,-7.78846 -1.42503,-12.25575 -2.03326,-0.57404 -4.04058,-1.20569 -6.01609,-1.88713 -0.0274,0.15127 -0.0578,0.30143 -0.0825,0.45277 -0.88214,5.38185 -0.48966,10.89858 1.67805,15.49779 0.054,0.11321 0.11588,0.22527 0.17145,0.33759 -7.90676,-1.96246 -15.46832,-4.7994 -22.46496,-8.43349 -0.71685,-1.17443 -1.16281,-2.57885 -1.37803,-4.22168 -0.47966,-3.66314 0.49443,-8.28306 2.5476,-12.65203 -1.76508,-1.051 -3.48708,-2.14418 -5.15046,-3.2834 -0.0515,0.0987 -0.10172,0.19758 -0.15265,0.2969 -2.57593,5.03102 -3.99374,10.44627 -3.54356,15.39876 -5.38998,-3.48662 -10.32188,-7.49837 -14.67786,-11.98481 -0.32876,-1.35448 -0.30968,-2.87368 0.0129,-4.57264 0.61004,-3.21193 2.46635,-6.86394 5.12545,-10.29929 -4.45241,-4.6587 -8.12396,-9.71257 -10.82299,-15.03764 l 5.79508,-1.92811 c 2.24544,4.42913 5.2676,8.68199 8.91651,12.66365 3.72499,-3.5675 8.18527,-6.50938 12.40423,-8.05442 3.29555,-1.20709 6.22576,-1.61112 8.84211,-1.05727 1.85348,2.97395 4.10573,5.71761 6.68312,8.21914 -2.55771,0.65413 -4.97808,1.78549 -7.13103,3.22174 -3.3017,2.20312 -6.17686,5.11973 -8.5298,8.39372 1.60204,1.13476 3.26254,2.23172 4.97263,3.28001 2.1548,-3.1262 4.78847,-5.85775 7.55166,-7.70169 2.90766,-1.93985 5.67044,-2.89511 8.44294,-2.71728 3.4151,2.50647 7.21584,4.67769 11.32074,6.49185 -1.52923,0.98988 -2.89853,2.18392 -4.06291,3.51122 -2.2804,2.59848 -3.98471,5.72308 -5.14403,9.06576 1.93096,0.69432 3.88843,1.33515 5.87957,1.91825 1.02094,-3.07289 2.5357,-5.88349 4.37867,-7.98357 1.78158,-2.03082 3.67654,-3.34945 5.80107,-3.90629 3.84585,1.24308 7.88638,2.20404 12.0608,2.86637 -0.82766,1.02373 -1.51482,2.14166 -2.04515,3.30941 -1.28625,2.83219 -1.86443,6.02776 -1.87595,9.30779 2.07967,0.21433 4.17544,0.36089 6.27505,0.44458 -0.0248,-2.93544 0.48129,-5.73254 1.48307,-7.93628 0.89674,-1.9747 2.03578,-3.39892 3.53163,-4.27489 4.2285,0.30573 8.55493,0.31517 12.92251,0.0138 -0.21656,0.74676 -0.35827,1.51085 -0.43122,2.2784 -0.26847,2.82848 0.24559,5.84553 1.30136,8.81121 2.03836,-0.3313 4.06935,-0.73508 6.09604,-1.21211 -0.91656,-2.55606 -1.3407,-5.09295 -1.144,-7.16397 0.13722,-1.44542 0.48968,-2.58148 1.09367,-3.456 4.58819,-0.66028 9.19215,-1.65625 13.7455,-3.02776 0.0421,0.25563 0.0843,0.51322 0.14325,0.76455 0.54987,2.33261 1.73063,4.67285 3.32022,6.87147 1.78502,-0.84937 3.54721,-1.76963 5.29731,-2.75996 -1.2213,-1.74248 -2.10627,-3.52024 -2.46414,-5.03917 -0.17398,-0.73774 -0.24259,-1.3674 -0.21544,-1.91416 3.92196,-1.49362 7.62212,-3.22337 11.06928,-5.15025 0.8858,1.43358 2.08373,2.77991 3.48016,4.01354 1.45903,-1.18222 2.90177,-2.42558 4.3188,-3.72915 -0.98398,-0.91121 -1.7886,-1.84724 -2.28784,-2.6898 -0.15741,-0.26605 -0.27308,-0.50229 -0.37424,-0.72645 1.83457,-1.21536 3.59274,-2.48864 5.25403,-3.8054 3.97988,-3.08008 8.13223,-6.42216 13.02451,-9.25831 -0.006,0.39176 -0.01,0.78083 -0.0221,1.16425 z"
     inkscape:connector-curvature="0"
     style="fill:#4a4a4a;fill-opacity:1;stroke-width:0.30323249" />
  <rect
     style="opacity:1;fill:#4a4a4a;fill-opacity:1;stroke:none;stroke-width:1.95521891;stroke-miterlimit:4;stroke-dasharray:none;stroke-opacity:1"
     id="rect881"
     width="29.653946"
     height="11.676953"
     x="344.57913"
     y="137.90749"
     transform="rotate(43.751857)" />
</svg>
