<svg xmlns="http://www.w3.org/2000/svg" viewBox="0 0 512 512" style="height: 64px; width: 64px;"><defs><radialGradient id="gradient-4"><stop offset="0%" stop-color="#f5a623" stop-opacity="1"></stop><stop offset="100%" stop-color="#d0021b" stop-opacity="1"></stop></radialGradient></defs><g class="" transform="translate(0,0)" style="touch-action: none;"><g><path d="M51.063 24.28L51.063 35.562C51.063 136.382 60.36 224.726 90.343 300.125C120.328 375.525 171.303 437.672 252.843 484.75L257.531 487.47L262.221 484.75C341.9 438.745 392.977 376.788 423.56 301.22C454.145 225.65 464.53 136.725 464.53 35.562L464.53 24.407L453.53 26.377C325.84 49.197 197.24 51.881 62.123 26.377L51.062 24.28Z" class="" fill="#d0021b" fill-opacity="1"></path><path d="M445.688 46.53C444.932 141.734 434.382 224.71 406.25 294.22C377.642 364.904 331.183 422.012 257.53 465.78C182.022 420.96 135.72 363.71 107.688 293.22C80.158 223.99 70.571 141.605 69.875 46.72C199.345 69.747 323.265 67.285 445.688 46.53Z" class="" fill="#ffd899" fill-opacity="1"></path><path d="M287.563 95.126C198.459 121.706 247.18 186.154 224.5 220.564C200.743 256.608 151.78 249.727 167.844 156.064C96.92 237.114 165.294 376.484 222.688 412.594C206.558 397.784 195.938 372.564 195.938 343.938C195.938 335.662 196.848 327.664 198.5 320.126C205.777 339.968 222.764 353.906 242.563 353.906C268.989 353.906 290.406 329.116 290.406 298.532C290.406 288.392 288.05 278.896 283.936 270.722C303.164 284.502 316.281 312.112 316.281 343.939C316.281 368.885 308.211 391.239 295.471 406.377C347.752 374.36 394.957 294.442 348 199.28C327.043 307.126 239.895 153.355 287.562 95.125Z" class="selected" fill="url(#gradient-4)"></path></g></g></svg>