<?xml version="1.0" encoding="UTF-8" standalone="no"?>
<svg
   xmlns:dc="http://purl.org/dc/elements/1.1/"
   xmlns:cc="http://creativecommons.org/ns#"
   xmlns:rdf="http://www.w3.org/1999/02/22-rdf-syntax-ns#"
   xmlns:svg="http://www.w3.org/2000/svg"
   xmlns="http://www.w3.org/2000/svg"
   xmlns:sodipodi="http://sodipodi.sourceforge.net/DTD/sodipodi-0.dtd"
   xmlns:inkscape="http://www.inkscape.org/namespaces/inkscape"
   viewBox="0 0 512 512"
   style="height: 64px; width: 64px;"
   version="1.1"
   id="svg12"
   sodipodi:docname="rd-acid.svg"
   inkscape:export-filename="/home/plic/Documents/dev/cofbazar.github.io/images/card/icon-special-property-rd-poison.png"
   inkscape:export-xdpi="12"
   inkscape:export-ydpi="12"
   inkscape:version="0.92.3 (2405546, 2018-03-11)">
  <metadata
     id="metadata18">
    <rdf:RDF>
      <cc:Work
         rdf:about="">
        <dc:format>image/svg+xml</dc:format>
        <dc:type
           rdf:resource="http://purl.org/dc/dcmitype/StillImage" />
        <dc:title></dc:title>
      </cc:Work>
    </rdf:RDF>
  </metadata>
  <defs
     id="defs16" />
  <sodipodi:namedview
     pagecolor="#ffffff"
     bordercolor="#666666"
     borderopacity="1"
     objecttolerance="10"
     gridtolerance="10"
     guidetolerance="10"
     inkscape:pageopacity="0"
     inkscape:pageshadow="2"
     inkscape:window-width="863"
     inkscape:window-height="480"
     id="namedview14"
     showgrid="false"
     inkscape:zoom="0.4609375"
     inkscape:cx="256"
     inkscape:cy="256"
     inkscape:window-x="2161"
     inkscape:window-y="410"
     inkscape:window-maximized="0"
     inkscape:current-layer="svg12" />
  <g
     class=""
     transform="translate(0,0)"
     style="touch-action: none;"
     id="g10">
    <g
       id="g8">
      <path
         d="M253.875 20.844C192.33 21.249 130.228 30.384 66.405 48.656L59.938 50.5L59.658 57.22C53.253 204.68 108.778 403.845 251.938 486.5L256.626 489.188L261.282 486.5C400.312 406.23 463.162 204.736 456.658 57.22L456.533 51.313L449.909 48.656C386.279 30.441 323.339 21.006 259.847 20.844C257.863 20.839 255.863 20.831 253.877 20.844Z"
         class=""
         fill="#000000"
         fill-opacity="1"
         id="path2" />
      <path
         d="M254.219 39.469C256.079 39.456 257.949 39.463 259.812 39.469C319.282 39.619 378.242 48.251 438.092 64.812C442.048 203.846 380.664 392.035 256.624 467.437C128.534 389.791 74.074 204.417 78.186 64.843C138.233 48.228 196.493 39.838 254.22 39.47Z"
         class=""
         fill="#b8e986"
         fill-opacity="1"
         id="path4" />
      <path
         d="M258 56.03L229.562 182.75L184.25 157.437L211.22 205.687L118.72 231.844L210.375 257.781L183.687 305.501L229.312 280.001L257.969 407.689L286.624 280.064L332.499 305.72L305.779 257.906L397.624 231.906L304.874 205.656L331.937 157.25L286.437 182.688L258 56.03Z"
         class="selected"
         fill="#b8e986"
         fill-opacity="1"
         id="path6" />
    </g>
  </g>
  <g
     id="g42"
     class=""
     transform="matrix(0.66534404,0,0,0.66534404,83.828788,32.66987)">
    <g
       id="g40">
      <path
         id="path20"
         class="selected"
         d="M 181.78,33 V 84.53 H 331.187 V 33 Z"
         inkscape:connector-curvature="0"
         style="fill:#8b572a;fill-opacity:1" />
      <path
         id="path22"
         class=""
         d="m 195.97,103.22 c -0.66,2.9 -1.554,5.263 -2.75,6.936 -2.684,3.75 -7.033,6.594 -19.5,6.594 -21.54,0 -40.804,5.862 -55.157,16.094 -14.353,10.232 -23.907,25.398 -23.907,42.5 V 426.75 c 0,32.34 26.255,58.625 58.594,58.625 h 213.47 c 32.338,0 58.592,-26.286 58.592,-58.625 V 175.344 c 0,-17.102 -9.527,-32.2 -23.593,-42.438 -14.067,-10.237 -32.83,-16.156 -53.44,-16.156 -16.69,0 -23.62,-3.488 -26.874,-7.188 -1.41,-1.604 -2.43,-3.698 -3.156,-6.343 h -19.125 c 1.073,6.658 3.37,13.137 8.25,18.686 8.11,9.223 21.523,13.53 40.906,13.53 16.978,0 32.056,5.008 42.44,12.564 10.38,7.556 15.905,17.1 15.905,27.344 V 426.75 c 0,22.355 -17.55,39.938 -39.906,39.938 H 153.25 c -22.355,0 -39.906,-17.583 -39.906,-39.938 V 175.344 c 0,-10.245 5.455,-19.72 16.062,-27.28 10.607,-7.563 26.22,-12.626 44.313,-12.626 15.962,0 28.056,-5.142 34.686,-14.407 3.904,-5.455 5.733,-11.545 6.625,-17.81 h -19.06 z"
         inkscape:connector-curvature="0"
         style="fill:#4a4a4a;fill-opacity:1" />
      <path
         id="path24"
         class=""
         d="m 262.063,148.625 c -30.545,0 -50.062,12.865 -63.282,32.313 -12.295,18.09 -18.387,42.315 -19.186,66.062 25.033,12.795 39.555,27.632 43.844,44.97 0.734,2.967 1.173,5.942 1.312,8.905 9.01,5.134 23.22,8.44 37.813,8.438 12.935,-0.002 26.08,-2.538 36.093,-6.875 0.152,-3.325 0.617,-6.662 1.47,-10 4.486,-17.583 19.028,-33.2 44.405,-45.563 -0.838,-22.46 -6.793,-46.595 -19,-64.938 -13.2,-19.84 -32.745,-33.312 -63.467,-33.312 z"
         inkscape:connector-curvature="0"
         style="fill:#417505;fill-opacity:1" />
      <path
         id="path26"
         class=""
         d="m 232.188,223.5 c 9.157,0 16.593,7.405 16.593,16.563 0,9.157 -7.435,16.593 -16.593,16.593 -9.157,0 -16.562,-7.436 -16.562,-16.594 0,-9.157 7.405,-16.562 16.563,-16.562 z"
         inkscape:connector-curvature="0"
         style="fill:#ffffff;fill-opacity:1" />
      <path
         id="path28"
         class=""
         d="m 287.625,223.5 c 9.158,0 16.594,7.405 16.594,16.563 0,9.157 -7.438,16.593 -16.595,16.593 -9.158,0 -16.563,-7.436 -16.563,-16.594 0,-9.157 7.405,-16.562 16.563,-16.562 z"
         inkscape:connector-curvature="0"
         style="fill:#ffffff;fill-opacity:1" />
      <path
         id="path30"
         class=""
         d="m 258.781,257.094 c 6.275,13.248 11.25,26.503 13.72,39.75 -9.148,-3.022 -18.29,-3.426 -27.438,0 3.34,-13.25 7.352,-26.504 13.72,-39.75 z"
         inkscape:connector-curvature="0"
         style="fill:#417505;fill-opacity:1" />
      <path
         id="path32"
         class=""
         d="m 221.751,320.564 c -2.136,6.42 -5.285,12.778 -9.188,19.03 11.93,7.99 31.58,12.81 50.875,12.594 18.97,-0.214 36.878,-5.57 46.22,-12.407 -3.55,-5.764 -6.412,-11.8 -8.344,-18 -11.947,4.416 -25.424,6.375 -38.75,6.376 -14.447,0.002 -28.77,-2.222 -40.813,-7.594 z"
         inkscape:connector-curvature="0"
         style="fill:#417505;fill-opacity:1" />
      <path
         id="path34"
         class=""
         d="m 151.095,337.624 c -8.9,11.268 -12.694,22.493 -10.03,36.313 68.925,5.54 164.194,31.92 226.686,60.75 9.16,-11.166 12.518,-22.67 9.97,-36.78 -67.77,-6.867 -164.135,-28.736 -226.626,-60.282 z"
         inkscape:connector-curvature="0"
         style="fill:#417505;fill-opacity:1" />
      <path
         id="path36"
         class=""
         d="m 367.689,337.624 c -20.79,10.496 -45.326,19.907 -71.313,28.063 20.298,4.434 40.253,8.04 58.72,10.688 7.782,-1.026 15.357,-1.853 22.624,-2.438 2.66,-13.82 -1.133,-25.045 -10.033,-36.312 z"
         inkscape:connector-curvature="0"
         style="fill:#417505;fill-opacity:1" />
      <path
         id="path38"
         class=""
         d="m 163.939,395.156 c -7.904,1.084 -15.56,2.01 -22.875,2.75 -2.55,14.11 0.81,25.615 9.968,36.78 21.375,-9.86 46.575,-19.447 73.25,-27.998 -20.87,-4.912 -41.385,-8.868 -60.343,-11.532 z"
         inkscape:connector-curvature="0"
         style="fill:#417505;fill-opacity:1" />
    </g>
  </g>
</svg>
