<?xml version="1.0" encoding="UTF-8" standalone="no"?>
<svg
   xmlns:dc="http://purl.org/dc/elements/1.1/"
   xmlns:cc="http://creativecommons.org/ns#"
   xmlns:rdf="http://www.w3.org/1999/02/22-rdf-syntax-ns#"
   xmlns:svg="http://www.w3.org/2000/svg"
   xmlns="http://www.w3.org/2000/svg"
   xmlns:sodipodi="http://sodipodi.sourceforge.net/DTD/sodipodi-0.dtd"
   xmlns:inkscape="http://www.inkscape.org/namespaces/inkscape"
   viewBox="0 0 512 512"
   style="height: 64px; width: 64px;"
   version="1.1"
   id="svg32"
   sodipodi:docname="ring-sous-tension.svg"
   inkscape:export-filename="/home/plic/Téléchargements/ring-sous-tension.png"
   inkscape:export-xdpi="24"
   inkscape:export-ydpi="24"
   inkscape:version="0.92.3 (2405546, 2018-03-11)">
  <metadata
     id="metadata36">
    <rdf:RDF>
      <cc:Work
         rdf:about="">
        <dc:format>image/svg+xml</dc:format>
        <dc:type
           rdf:resource="http://purl.org/dc/dcmitype/StillImage" />
        <dc:title></dc:title>
      </cc:Work>
    </rdf:RDF>
  </metadata>
  <sodipodi:namedview
     pagecolor="#ffffff"
     bordercolor="#666666"
     borderopacity="1"
     objecttolerance="10"
     gridtolerance="10"
     guidetolerance="10"
     inkscape:pageopacity="0"
     inkscape:pageshadow="2"
     inkscape:window-width="1670"
     inkscape:window-height="959"
     id="namedview34"
     showgrid="false"
     inkscape:zoom="0.53723543"
     inkscape:cx="81.303081"
     inkscape:cy="383.33611"
     inkscape:window-x="2165"
     inkscape:window-y="91"
     inkscape:window-maximized="0"
     inkscape:current-layer="svg32" />
  <defs
     id="defs22">
    <radialGradient
       id="gradient-2"
       gradientTransform="scale(1.8061831,0.55365374)"
       cx="141.26863"
       cy="317.16475"
       fx="141.26863"
       fy="317.16475"
       r="104.03514"
       gradientUnits="userSpaceOnUse">
      <stop
         offset="0%"
         stop-color="#9b9b9b"
         stop-opacity="1"
         id="stop2" />
      <stop
         offset="100%"
         stop-color="#c9c9c9"
         stop-opacity="1"
         id="stop4" />
    </radialGradient>
    <radialGradient
       id="gradient-3"
       gradientTransform="scale(1.4287286,0.69992299)"
       cx="179.16896"
       cy="412.16251"
       fx="179.16896"
       fy="412.16251"
       r="150.75656"
       gradientUnits="userSpaceOnUse">
      <stop
         offset="0%"
         stop-color="#9b9b9b"
         stop-opacity="1"
         id="stop7" />
      <stop
         offset="100%"
         stop-color="#4a4a4a"
         stop-opacity="1"
         id="stop9" />
    </radialGradient>
    <radialGradient
       id="gradient-7">
      <stop
         offset="0%"
         stop-color="#c9c9c9"
         stop-opacity="1"
         id="stop12" />
      <stop
         offset="100%"
         stop-color="#e7e7e7"
         stop-opacity="1"
         id="stop14" />
    </radialGradient>
    <radialGradient
       id="gradient-8">
      <stop
         offset="0%"
         stop-color="#c9c9c9"
         stop-opacity="1"
         id="stop17" />
      <stop
         offset="100%"
         stop-color="#e5e5e5"
         stop-opacity="1"
         id="stop19" />
    </radialGradient>
  </defs>
  <g
     id="g888"
     transform="matrix(1.1430074,0,0,1.1815677,-39.131334,-77.460558)">
    <g
       id="g30"
       class="">
      <g
         id="g28">
        <path
           id="path24"
           class=""
           d="m 255.157,123 c -68.66,0 -137.1,18.922 -182.867,55.275 0.234,14.35 1.818,35.624 9.332,48.23 110.634,-60.336 236.436,-60.336 347.07,0 7.513,-12.606 9.098,-33.88 9.332,-48.23 C 392.257,141.922 323.817,123 255.157,123 Z"
           style="fill:url(#gradient-2);stroke:#4a4a4a;stroke-width:10;stroke-opacity:1"
           inkscape:connector-curvature="0" />
        <path
           id="path26"
           class="selected"
           d="m 454.967,199.057 c -0.324,2.98 -0.718,6.02 -1.246,9.082 -2.226,12.93 -6.213,26.458 -15.99,35.98 -14.436,18.637 -40.806,30.462 -72.858,38.603 C 332.392,290.973 293.79,295 255.157,295 c -38.632,0 -77.235,-4.028 -109.715,-12.277 -31.907,-8.104 -58.17,-19.868 -72.648,-38.36 -11.983,-11.982 -16.234,-28.786 -17.77,-43.857 -13.73,27.256 -11.503,62.122 0.672,98.648 14.292,42.876 73.71,89.846 199.46,89.846 125.75,0 185.17,-46.97 199.462,-89.846 l 0.1,-0.297 0.12,-0.287 c 15.134,-36.712 15.61,-71.983 0.13,-99.513 z"
           style="fill:url(#gradient-3);stroke:#4a4a4a;stroke-width:10;stroke-opacity:1"
           inkscape:connector-curvature="0" />
      </g>
    </g>
    <g
       transform="matrix(-1.0547135,0,0,-0.33530286,512.29903,386.38178)"
       class=""
       id="g859">
      <g
         id="g857">
        <path
           sodipodi:nodetypes="ccccccccccccccccccccccc"
           style="fill:#ddc245;fill-opacity:1"
           inkscape:connector-curvature="0"
           d="M 184.42697,28.381519 124.16628,201.29077 103.18525,78.973865 75.319312,176.04732 47.25037,434.92398 100.47555,129.36365 118.5412,312.58147 180.876,101.845 l 17.093,159.437 88.874,-159.936 7.906,138.22 73.76462,-97.64483 21.93262,192.86115 L 402.906,359.375 428.04231,227.23616 422.6266,221.50478 401.96765,317.1271 370.50724,49.256317 311.03,142.315 300.657,27.28 216.75,153.657 199.33441,-10.505288 Z"
           class=""
           id="path851" />
        <path
           style="fill:#ddc245;fill-opacity:0"
           inkscape:connector-curvature="0"
           d="m 61.25,100.813 c -22.213,0 -40.03,17.785 -40.03,40 0,22.214 17.817,40.03 40.03,40.03 0.558,0 1.104,-0.04 1.656,-0.062 l 19.5,72.814 -27.812,7.437 4.843,18.064 27.813,-7.47 6.656,24.876 -27.812,7.438 4.844,18.06 27.812,-7.438 7.156,26.782 -27.78,7.437 4.81,18.033 27.814,-7.438 6.906,25.813 -27.78,7.437 4.843,18.063 27.78,-7.438 7.188,26.75 -27.813,7.47 4.844,18.06 27.81,-7.467 12.25,45.78 h 19.345 l -13.563,-50.593 27.813,-7.47 -4.844,-18.06 -27.81,7.467 -7.157,-26.78 27.78,-7.438 -4.812,-18.064 -27.81,7.438 -6.907,-25.813 27.78,-7.436 -4.812,-18.063 -27.81,7.47 -7.157,-26.78 27.78,-7.44 -4.843,-18.06 -27.78,7.436 -6.657,-24.875 27.78,-7.436 -4.843,-18.03 -27.78,7.436 -19.564,-73.03 c 12.173,-6.842 20.344,-19.858 20.344,-34.907 0,-22.215 -17.787,-40 -40,-40 z"
           class="selected"
           id="path853" />
        <path
           style="fill:#ddc245;fill-opacity:0"
           inkscape:connector-curvature="0"
           d="m 452.438,100.813 c -22.213,0 -40.032,17.785 -40.032,40 0,15.052 8.19,28.066 20.375,34.906 l -19.56,73.03 -27.814,-7.438 -4.844,18.032 27.813,7.47 -6.656,24.842 -27.814,-7.437 -4.844,18.06 27.813,7.44 -7.156,26.78 -27.814,-7.47 -4.844,18.064 27.813,7.437 -6.906,25.814 -27.814,-7.438 -4.844,18.063 27.813,7.436 -7.156,26.78 -27.845,-7.467 -4.813,18.06 27.813,7.47 -13.563,50.594 h 19.313 l 12.25,-45.78 27.813,7.467 4.843,-18.06 -27.81,-7.47 7.186,-26.75 27.813,7.438 4.842,-18.063 -27.809,-7.436 6.906,-25.812 27.813,7.438 4.842,-18.032 -27.812,-7.467 7.156,-26.75 27.815,7.436 4.842,-18.063 -27.812,-7.437 6.656,-24.875 27.813,7.47 4.842,-18.064 -27.812,-7.436 19.5,-72.813 c 0.562,0.024 1.12,0.064 1.688,0.064 22.212,0 40,-17.817 40,-40.03 0,-22.216 -17.788,-40 -40,-40 z"
           class=""
           id="path855" />
      </g>
    </g>
  </g>
</svg>
