<?xml version="1.0" encoding="UTF-8" standalone="no"?>
<svg
   xmlns:dc="http://purl.org/dc/elements/1.1/"
   xmlns:cc="http://creativecommons.org/ns#"
   xmlns:rdf="http://www.w3.org/1999/02/22-rdf-syntax-ns#"
   xmlns:svg="http://www.w3.org/2000/svg"
   xmlns="http://www.w3.org/2000/svg"
   xmlns:sodipodi="http://sodipodi.sourceforge.net/DTD/sodipodi-0.dtd"
   xmlns:inkscape="http://www.inkscape.org/namespaces/inkscape"
   inkscape:version="1.0 (6e3e5246a0, 2020-05-07)"
   sodipodi:docname="ring-face-orque.svg"
   id="svg51"
   version="1.1"
   style="height: 64px; width: 64px;"
   viewBox="0 0 512 512">
  <metadata
     id="metadata55">
    <rdf:RDF>
      <cc:Work
         rdf:about="">
        <dc:format>image/svg+xml</dc:format>
        <dc:type
           rdf:resource="http://purl.org/dc/dcmitype/StillImage" />
        <dc:title></dc:title>
      </cc:Work>
    </rdf:RDF>
  </metadata>
  <sodipodi:namedview
     inkscape:current-layer="svg51"
     inkscape:window-maximized="0"
     inkscape:window-y="179"
     inkscape:window-x="2035"
     inkscape:cy="204.80637"
     inkscape:cx="-6.0791905"
     inkscape:zoom="0.42480469"
     showgrid="false"
     id="namedview53"
     inkscape:window-height="776"
     inkscape:window-width="1781"
     inkscape:pageshadow="2"
     inkscape:pageopacity="0"
     guidetolerance="10"
     gridtolerance="10"
     objecttolerance="10"
     borderopacity="1"
     bordercolor="#666666"
     pagecolor="#ffffff" />
  <defs
     id="defs27">
    <radialGradient
       gradientUnits="userSpaceOnUse"
       r="29.461717"
       fy="50.537778"
       fx="156.6133"
       cy="50.537778"
       cx="156.6133"
       gradientTransform="scale(1.3172538,0.75915515)"
       id="gradient-2">
      <stop
         id="stop2"
         stop-opacity="1"
         stop-color="#4a4a4a"
         offset="0%" />
      <stop
         id="stop4"
         stop-opacity="1"
         stop-color="#9b9b9b"
         offset="100%" />
    </radialGradient>
    <radialGradient
       gradientUnits="userSpaceOnUse"
       r="28.989696"
       fy="50.008211"
       fx="232.13975"
       cy="50.008211"
       cx="232.13975"
       gradientTransform="scale(1.3136572,0.76123361)"
       id="gradient-3">
      <stop
         id="stop7"
         stop-opacity="1"
         stop-color="#643d1a"
         offset="0%" />
      <stop
         id="stop9"
         stop-opacity="1"
         stop-color="#56371c"
         offset="100%" />
    </radialGradient>
    <radialGradient
       gradientUnits="userSpaceOnUse"
       r="27.959907"
       fy="53.19895"
       fx="278.43739"
       cy="53.19895"
       cx="278.43739"
       gradientTransform="scale(1.2648462,0.79060996)"
       id="gradient-5">
      <stop
         id="stop12"
         stop-opacity="1"
         stop-color="#8b572a"
         offset="0%" />
      <stop
         id="stop14"
         stop-opacity="1"
         stop-color="#8b572a"
         offset="100%" />
    </radialGradient>
    <radialGradient
       gradientUnits="userSpaceOnUse"
       r="26.84292"
       fy="51.761124"
       fx="131.83638"
       cy="51.761124"
       cx="131.83638"
       gradientTransform="scale(1.224591,0.8165992)"
       id="gradient-6">
      <stop
         id="stop17"
         stop-opacity="1"
         stop-color="#8b572a"
         offset="0%" />
      <stop
         id="stop19"
         stop-opacity="1"
         stop-color="#8b572a"
         offset="100%" />
    </radialGradient>
    <radialGradient
       gradientUnits="userSpaceOnUse"
       r="194.6816"
       fy="317.26962"
       fx="248.02412"
       cy="317.26962"
       cx="248.02412"
       gradientTransform="scale(1.0321597,0.96884232)"
       id="gradient-10">
      <stop
         id="stop22"
         stop-opacity="1"
         stop-color="#d4af37"
         offset="0%" />
      <stop
         id="stop24"
         stop-opacity="1"
         stop-color="#dbb126"
         offset="100%" />
    </radialGradient>
    <radialGradient
       id="gradient-2-3">
      <stop
         offset="0%"
         stop-color="#4a4a4a"
         stop-opacity="1"
         id="stop899" />
      <stop
         offset="100%"
         stop-color="#9b9b9b"
         stop-opacity="1"
         id="stop901" />
    </radialGradient>
    <radialGradient
       id="gradient-3-6">
      <stop
         offset="0%"
         stop-color="#643d1a"
         stop-opacity="1"
         id="stop904" />
      <stop
         offset="100%"
         stop-color="#56371c"
         stop-opacity="1"
         id="stop906" />
    </radialGradient>
    <radialGradient
       id="gradient-5-7">
      <stop
         offset="0%"
         stop-color="#8b572a"
         stop-opacity="1"
         id="stop909" />
      <stop
         offset="100%"
         stop-color="#8b572a"
         stop-opacity="1"
         id="stop911" />
    </radialGradient>
    <radialGradient
       id="gradient-6-5">
      <stop
         offset="0%"
         stop-color="#8b572a"
         stop-opacity="1"
         id="stop914" />
      <stop
         offset="100%"
         stop-color="#8b572a"
         stop-opacity="1"
         id="stop916" />
    </radialGradient>
    <radialGradient
       id="gradient-10-3">
      <stop
         offset="0%"
         stop-color="#d4af37"
         stop-opacity="1"
         id="stop919" />
      <stop
         offset="100%"
         stop-color="#dbb126"
         stop-opacity="1"
         id="stop921" />
    </radialGradient>
  </defs>
  <path
     style="fill:url(#gradient-10)"
     id="path45"
     stroke-width="10"
     stroke-opacity="1"
     stroke="#4a4a4a"
     fill="url(#gradient-10)"
     class="selected"
     d="m 353.435,125.067 -29.059,31.838 c 52.501,26.017 85.735,79.526 85.786,138.119 -0.022,84.984 -69.167,154.173 -154.162,154.173 -84.995,0 -154.14,-69.144 -154.14,-154.14 0.051,-58.594 33.286,-112.102 85.787,-138.119 L 158.588,125.1 C 97.691,160.016 60.111,224.827 60.058,295.024 60.057,403.056 147.955,491 256,491 c 108.044,0 195.943,-87.899 195.943,-195.943 -0.032,-70.223 -37.62,-135.065 -98.542,-169.99 z" />
  <path
     style="stroke-width:0.486731"
     id="path926"
     fill-opacity="1"
     fill="#000000"
     d="m 257.1051,0.944499 c -0.59187,0.563148 -1.57458,1.797985 -2.72326,3.635882 -2.2156,3.544863 -5.15643,9.3613 -8.94758,16.938243 v 4.838108 c 3.01286,2.312946 7.25521,3.711811 11.67084,3.711811 4.41562,0 8.65748,-1.398865 11.67084,-3.712298 V 21.518137 C 264.9843,13.941194 262.04445,8.124757 259.82836,4.579894 258.67967,2.741998 257.69648,1.507161 257.1051,0.944013 Z m -20.80435,26.422686 c -13.71122,3.356012 -27.19367,10.036396 -39.99713,20.020225 -7.80717,39.28213 -15.18601,85.58194 -8.22089,123.90471 3.01189,1.13019 6.17516,2.16109 9.44404,3.11411 l -1.49037,-5.96586 -2.09537,-3.14185 3.79991,-2.53295 c 3.06835,-2.04573 6.59034,-3.82084 10.45839,-5.34918 -2.44729,-3.29857 -4.05253,-7.51513 -5.61931,-11.82075 -2.65756,-7.30729 -4.70183,-15.49752 -6.64583,-21.4298 l -4.76607,-14.53866 11.95655,9.54772 c 11.91031,9.51219 23.91407,15.91806 40.35877,27.40978 l 4.90138,3.42513 c 2.89313,-0.12655 5.80573,-0.18983 8.72076,-0.18983 2.91552,0 5.82764,0.0633 8.72028,0.18983 l 4.90138,-3.42513 c 16.44519,-11.49172 28.44944,-17.8971 40.35975,-27.40978 l 11.95557,-9.54772 -4.76655,14.53866 c -1.9445,5.93326 -3.98779,14.12251 -6.64583,21.4298 -1.56728,4.30611 -3.17203,8.52266 -5.61931,11.82124 3.86854,1.52736 7.39004,3.30296 10.45839,5.34917 l 3.79991,2.53247 -2.09538,3.14185 -1.49037,5.96635 c 3.26889,-0.95205 6.43215,-1.98343 9.44356,-3.11362 6.96512,-38.32326 -0.41372,-84.62308 -8.22089,-123.90472 -12.80346,-9.982852 -26.28543,-16.66421 -39.99664,-20.020221 v 3.071273 l -1.33851,1.336564 c -5.13502,5.135987 -12.362,7.427517 -19.46584,7.427517 -7.10384,0 -14.33034,-2.29153 -19.46633,-7.427517 l -1.33851,-1.336564 v -3.071273 z m 36.98183,27.196585 6.51733,6.39808 -3.1988,3.25867 c -6.2837,6.39905 -13.22351,9.54188 -20.0908,9.18219 -6.8668,-0.36019 -13.04098,-3.93133 -18.68561,-8.9763 l -3.40468,-3.04353 6.08609,-6.80937 3.40517,3.04207 c 4.75731,4.25159 9.1447,6.46039 13.077,6.66627 3.93279,0.20588 8.02863,-1.29957 13.0955,-6.4599 l 3.19929,-3.25818 z m -73.0087,1.89096 c 9.64069,0 20.13315,4.43898 29.61857,9.70833 9.48493,5.26936 17.7248,11.38806 22.32246,15.98572 l -6.45795,6.45746 c -3.52101,-3.52102 -11.51849,-9.58033 -20.30058,-14.45933 -8.78209,-4.87899 -18.58632,-8.55868 -25.18347,-8.55868 v -9.1335 z m 113.66146,0 v 9.1335 c -6.59618,0 -16.40041,3.67969 -25.1825,8.55868 -8.78209,4.879 -16.77957,10.93831 -20.30058,14.45933 l -6.45795,-6.45746 c 4.59766,-4.59766 12.83754,-10.71636 22.32246,-15.98572 9.48542,-5.26983 19.97788,-9.70833 29.61905,-9.70833 z M 203.50237,74.03059 c 8.11868,8.11868 23.15721,23.01752 45.48357,23.01752 v 0.1538 l 8.15615,-11.78571 8.0812,11.91275 v -0.28133 c 22.32635,0 37.36488,-14.89884 45.48356,-23.01752 l 6.45795,6.45697 c -4.00775,4.00727 -10.2895,10.31725 -18.79269,15.68151 2.39277,2.31441 3.89288,5.54728 3.89288,9.10041 0,6.95198 -5.7337,12.68568 -12.68568,12.68568 -6.95149,0 -12.68518,-5.7337 -12.68518,-12.68568 0,-0.0891 0.005,-0.17717 0.007,-0.26575 -1.89825,0.38841 -3.85588,0.68872 -5.86998,0.88974 l 13.66449,20.14386 -1.84471,2.58697 c -3.4811,4.87997 -8.10748,7.63195 -12.67107,8.86046 -4.56359,1.22899 -9.01572,1.17302 -13.07506,1.17302 -4.05934,0 -8.51585,0.0521 -13.11448,-1.16816 -4.59864,-1.22023 -9.27953,-3.91818 -12.98112,-8.73682 l -2.02967,-2.64052 14.00471,-20.23828 c -1.94692,-0.19956 -3.83884,-0.495 -5.67625,-0.87124 0.002,0.0891 0.007,0.17717 0.007,0.26624 0,6.95198 -5.73369,12.68567 -12.68519,12.68567 -6.95198,0 -12.68567,-5.73369 -12.68567,-12.68567 0,-3.55314 1.50011,-6.78601 3.89288,-9.09993 -8.5032,-5.36378 -14.78495,-11.67376 -18.79269,-15.68101 l 6.45795,-6.45747 z m -62.33857,7.84123 c 1.43585,3.37403 4.07248,7.65628 8.05053,13.34277 6.06224,8.66381 14.38582,20.26505 22.6695,36.83289 0.89948,1.79945 2.23264,2.95933 4.20536,3.78385 0.0341,-6.7203 0.32952,-13.49511 0.82744,-20.27527 l -12.10792,-10.48906 5.97998,-6.90379 7.12477,6.17175 c 0.45655,-4.38837 0.98611,-8.76457 1.57214,-13.11644 -3.86465,-3.03233 -8.62634,-5.06979 -13.90299,-6.50905 -8.09337,-2.20732 -17.00785,-2.71596 -24.4193,-2.83765 z m 231.88163,0 c -7.41097,0.12169 -16.32497,0.63033 -24.41931,2.83765 -5.27616,1.43926 -10.03785,3.47623 -13.90201,6.50905 0.58602,4.35138 1.11559,8.72807 1.57214,13.11595 l 7.12477,-6.17175 5.97998,6.90428 -12.10744,10.48906 c 0.49647,6.78016 0.7924,13.55448 0.82745,20.27527 1.97126,-0.82452 3.3049,-1.9844 4.20438,-3.78385 8.28416,-16.56833 16.60727,-28.16859 22.6695,-36.83289 3.97806,-5.686 6.61468,-9.96825 8.05054,-13.34228 z m -115.9783,19.70288 -16.60337,23.99244 c 1.82038,1.62909 3.70305,2.51884 5.86998,3.09366 3.04937,0.80944 6.71202,0.86249 10.77136,0.86249 4.05934,0 7.72637,-0.057 10.69932,-0.85762 2.11485,-0.56947 3.89872,-1.43099 5.58573,-3.02552 l -16.32253,-24.06496 z m -32.43722,0.14213 c -2.01604,0 -3.55216,1.53563 -3.55216,3.55168 0,2.01506 1.53612,3.55167 3.55216,3.55167 2.01507,0 3.55168,-1.53612 3.55168,-3.55167 0,-2.01605 -1.53613,-3.55217 -3.55168,-3.55217 z m 64.9494,0 c -2.01506,0 -3.55168,1.53563 -3.55168,3.55168 0,2.01506 1.53613,3.55167 3.55168,3.55167 2.01604,0 3.55217,-1.53612 3.55217,-3.55167 0,-2.01605 -1.53613,-3.55217 -3.55217,-3.55217 z m -80.95409,32.77647 c 0.81965,2.72765 1.63298,5.49033 2.53781,7.9785 1.97272,5.42219 4.50227,9.3355 6.08317,10.91446 l 13.36466,-4.45505 c -7.97265,-5.28444 -15.14415,-9.77356 -21.98564,-14.43742 z m 96.95878,0 c -6.84149,4.66435 -14.01298,9.15347 -21.98564,14.43791 l 13.36466,4.45505 c 1.58042,-1.57944 4.11045,-5.49179 6.08317,-10.91446 0.90532,-2.48817 1.71816,-5.25085 2.53781,-7.97752 z m -48.4789,24.46068 c -20.05917,0 -40.22346,3.67871 -51.5789,9.79303 l 6.60981,26.43923 c 30.01573,7.09167 59.92244,7.09167 89.93818,0 l 6.60981,-26.43923 c -11.35544,-6.11432 -31.51974,-9.79303 -51.5789,-9.79303 z m -0.009,5.1316 c 11.38951,-0.0389 22.79167,2.02821 34.10719,6.32994 l 4.26864,1.62276 -3.2465,8.53824 -4.26863,-1.62373 c -20.66953,-7.85779 -40.99396,-7.57938 -61.75645,0.0195 l -4.29005,1.5702 -3.13844,-8.57766 4.2881,-1.56874 c 11.2688,-4.12407 22.64614,-6.27056 34.03614,-6.30998 z" />
</svg>
