<?xml version="1.0" encoding="UTF-8" standalone="no"?>
<svg
   xmlns:dc="http://purl.org/dc/elements/1.1/"
   xmlns:cc="http://creativecommons.org/ns#"
   xmlns:rdf="http://www.w3.org/1999/02/22-rdf-syntax-ns#"
   xmlns:svg="http://www.w3.org/2000/svg"
   xmlns="http://www.w3.org/2000/svg"
   xmlns:sodipodi="http://sodipodi.sourceforge.net/DTD/sodipodi-0.dtd"
   xmlns:inkscape="http://www.inkscape.org/namespaces/inkscape"
   viewBox="0 0 512 512"
   style="height: 64px; width: 64px;"
   version="1.1"
   id="svg33"
   sodipodi:docname="robe-charisme.svg"
   inkscape:version="0.92.3 (2405546, 2018-03-11)"
   inkscape:export-filename="/home/plic/Documents/dev/cofbazar.github.io/images/resources/robe-charisme.png"
   inkscape:export-xdpi="24"
   inkscape:export-ydpi="24">
  <metadata
     id="metadata37">
    <rdf:RDF>
      <cc:Work
         rdf:about="">
        <dc:format>image/svg+xml</dc:format>
        <dc:type
           rdf:resource="http://purl.org/dc/dcmitype/StillImage" />
        <dc:title />
      </cc:Work>
    </rdf:RDF>
  </metadata>
  <sodipodi:namedview
     pagecolor="#ffffff"
     bordercolor="#666666"
     borderopacity="1"
     objecttolerance="10"
     gridtolerance="10"
     guidetolerance="10"
     inkscape:pageopacity="0"
     inkscape:pageshadow="2"
     inkscape:window-width="1601"
     inkscape:window-height="963"
     id="namedview35"
     showgrid="false"
     inkscape:zoom="0.41224878"
     inkscape:cx="190.86453"
     inkscape:cy="647.54103"
     inkscape:window-x="2046"
     inkscape:window-y="63"
     inkscape:window-maximized="0"
     inkscape:current-layer="svg33" />
  <defs
     id="defs17">
    <radialGradient
       id="gradient-2"
       gradientTransform="scale(0.99923127,1.0007693)"
       cx="255.20759"
       cy="96.784075"
       fx="255.20759"
       fy="96.784075"
       r="79.725106"
       gradientUnits="userSpaceOnUse">
      <stop
         offset="0%"
         stop-color="#a67851"
         stop-opacity="1"
         id="stop2" />
      <stop
         offset="100%"
         stop-color="#b57204"
         stop-opacity="1"
         id="stop4" />
    </radialGradient>
    <radialGradient
       id="gradient-3"
       gradientTransform="scale(0.95687199,1.0450719)"
       cx="136.59109"
       cy="163.449"
       fx="136.59109"
       fy="163.449"
       r="126.70764"
       gradientUnits="userSpaceOnUse">
      <stop
         offset="0%"
         stop-color="#8b572a"
         stop-opacity="1"
         id="stop7" />
      <stop
         offset="100%"
         stop-color="#b57204"
         stop-opacity="1"
         id="stop9" />
    </radialGradient>
    <radialGradient
       id="gradient-4"
       gradientTransform="scale(1.0389113,0.96254609)"
       cx="347.69076"
       cy="179.00394"
       fx="347.69076"
       fy="179.00394"
       r="136.02985"
       gradientUnits="userSpaceOnUse">
      <stop
         offset="0%"
         stop-color="#b57204"
         stop-opacity="1"
         id="stop12" />
      <stop
         offset="100%"
         stop-color="#8b572a"
         stop-opacity="1"
         id="stop14" />
    </radialGradient>
  </defs>
  <path
     style="fill:#000000;stroke:#000000;stroke-width:1px;stroke-linecap:butt;stroke-linejoin:miter;stroke-opacity:1;fill-opacity:1"
     d="m 188.68965,318.70817 26.84609,0.76703 -46.7889,92.42724 h 42.57022 l 44.48781,-88.9756 45.63835,89.35912 41.03616,-0.38352 -46.7889,-95.49537 90.89319,0.76703 -4.60219,-43.33725 -90.50967,0.76703 0.38352,-16.87468 -71.33389,0.76703 z"
     id="path852"
     inkscape:connector-curvature="0" />
  <g
     id="g850"
     style="fill:#000000;fill-opacity:1"
     transform="matrix(1.4174379,0,0,1,-58.700947,0)">
    <path
       inkscape:connector-curvature="0"
       id="path844"
       d="m 134.842,271 65.31824,1.72582 -24.1407,48.1783"
       style="fill:#000000;fill-opacity:1;stroke:#000000;stroke-width:1px;stroke-linecap:butt;stroke-linejoin:miter;stroke-opacity:1"
       sodipodi:nodetypes="ccc" />
    <path
       inkscape:connector-curvature="0"
       id="path846"
       d="m 134.842,271 -5.264,50 h 47.39197"
       style="fill:#000000;fill-opacity:1;stroke:#000000;stroke-width:1px;stroke-linecap:butt;stroke-linejoin:miter;stroke-opacity:1"
       sodipodi:nodetypes="ccc" />
  </g>
  <path
     style="fill:#ffffff;stroke:none;stroke-width:1px;stroke-linecap:butt;stroke-linejoin:miter;stroke-opacity:1;fill-opacity:1"
     d="m 219.03491,257.14782 -4.88934,7.99729 5.87479,0.30322 4.69983,-7.80779 -5.60947,-0.30321"
     id="path861"
     inkscape:connector-curvature="0" />
  <g
     class=""
     transform="translate(0.5306262,0.60642994)"
     id="g31">
    <g
       id="g29">
      <path
         d="m 192,24 -9.617,9.617 c 0.586,0.598 1.085,1.276 1.484,2.012 l 72.596,130.67 71.647,-130.626 c 0.128,-0.237 0.266,-0.467 0.415,-0.692 L 320,24 c -32,23.71 -96,21.265 -128,0 z"
         class="selected"
         id="path19"
         style="fill:url(#gradient-2);stroke:#4a4a4a;stroke-width:10;stroke-opacity:1"
         inkscape:connector-curvature="0" />
      <path
         d="M 169.38,46.62 160,56 c -16,0 -48,16 -64,32 l -80,160 80,48 48,-112 -9.158,87 h 64.195 l 47.195,-86.05 z"
         class=""
         id="path21"
         style="fill:url(#gradient-3);stroke:#4a4a4a;stroke-width:10;stroke-opacity:1"
         inkscape:connector-curvature="0" />
      <path
         d="M 340.535,50.447 228.342,255 H 297 v 16 h 80.158 L 368,184 416,296 496,248 416,88 C 402.678,75.868 368,56 344.846,56 Z"
         class=""
         id="path23"
         style="fill:url(#gradient-4);stroke:#4a4a4a;stroke-width:10;stroke-opacity:1"
         inkscape:connector-curvature="0" />
      <path
         d="M 129.578,321 119.596,415.84 171.613,321 Z"
         class=""
         id="path25"
         inkscape:connector-curvature="0"
         style="fill:#8b572a;fill-opacity:1;stroke:#4a4a4a;stroke-width:10;stroke-opacity:1" />
      <path
         d="M 192.143,321 115.275,456.88 C 114.277,458.763 112,488 112,488 H 400 L 382.422,321 h -79.86 l 48,96 H 298.437 L 256,332.127 213.562,417 h -52.087 c 15.955,-32.003 31.827,-64.05 47.884,-96 z"
         class=""
         id="path27"
         inkscape:connector-curvature="0"
         style="fill:#8b572a;fill-opacity:1;stroke:#4a4a4a;stroke-width:10;stroke-opacity:1" />
    </g>
  </g>
  <path
     style="fill:none;stroke:#000000;stroke-width:1px;stroke-linecap:butt;stroke-linejoin:miter;stroke-opacity:1"
     d="m 173.88275,326.11055 9.43383,-0.2144"
     id="path836"
     inkscape:connector-curvature="0" />
  <path
     style="fill:#4a4a4a;fill-opacity:1;stroke:none;stroke-width:1.3384558px;stroke-linecap:butt;stroke-linejoin:miter;stroke-opacity:1"
     d="m 173.14665,327.68441 3.89599,-11.49897 12.92022,-0.17762 -6.10221,11.33839"
     id="path838"
     inkscape:connector-curvature="0" />
  <path
     style="fill:#4a4a4a;fill-opacity:1;stroke:none;stroke-width:1.66633666px;stroke-linecap:butt;stroke-linejoin:miter;stroke-opacity:1"
     d="m 201.94578,276.00675 5.95819,-11.63297 21.09771,-0.0704 -6.0631,11.81921"
     id="path838-3"
     inkscape:connector-curvature="0"
     sodipodi:nodetypes="cccc" />
  <path
     style="fill:#4a4a4a;fill-opacity:1;stroke:none;stroke-width:1px;stroke-linecap:butt;stroke-linejoin:miter;stroke-opacity:1"
     d="m 220.75945,260.00941 -2.40677,4.37767 10.649,-0.0837 2.45854,-4.68541 z"
     id="path857"
     inkscape:connector-curvature="0"
     sodipodi:nodetypes="ccccc" />
</svg>
