<?xml version="1.0" encoding="UTF-8" standalone="no"?>
<svg
   xmlns:dc="http://purl.org/dc/elements/1.1/"
   xmlns:cc="http://creativecommons.org/ns#"
   xmlns:rdf="http://www.w3.org/1999/02/22-rdf-syntax-ns#"
   xmlns:svg="http://www.w3.org/2000/svg"
   xmlns="http://www.w3.org/2000/svg"
   xmlns:sodipodi="http://sodipodi.sourceforge.net/DTD/sodipodi-0.dtd"
   xmlns:inkscape="http://www.inkscape.org/namespaces/inkscape"
   viewBox="0 0 512 512"
   style="height: 64px; width: 64px;"
   version="1.1"
   id="svg18"
   sodipodi:docname="roue-de-chariot.svg"
   inkscape:export-filename="/home/plic/Téléchargements/roue-de-chariot.png"
   inkscape:export-xdpi="24"
   inkscape:export-ydpi="24"
   inkscape:version="0.92.3 (2405546, 2018-03-11)">
  <metadata
     id="metadata22">
    <rdf:RDF>
      <cc:Work
         rdf:about="">
        <dc:format>image/svg+xml</dc:format>
        <dc:type
           rdf:resource="http://purl.org/dc/dcmitype/StillImage" />
        <dc:title></dc:title>
      </cc:Work>
    </rdf:RDF>
  </metadata>
  <sodipodi:namedview
     pagecolor="#ffffff"
     bordercolor="#666666"
     borderopacity="1"
     objecttolerance="10"
     gridtolerance="10"
     guidetolerance="10"
     inkscape:pageopacity="0"
     inkscape:pageshadow="2"
     inkscape:window-width="1871"
     inkscape:window-height="1025"
     id="namedview20"
     showgrid="false"
     inkscape:zoom="0.64746094"
     inkscape:cx="306.6268"
     inkscape:cy="490.00195"
     inkscape:window-x="1969"
     inkscape:window-y="27"
     inkscape:window-maximized="1"
     inkscape:current-layer="svg18" />
  <defs
     id="defs12">
    <radialGradient
       id="gradient-3">
      <stop
         offset="0%"
         stop-color="#8b572a"
         stop-opacity="1"
         id="stop2" />
      <stop
         offset="100%"
         stop-color="#b57204"
         stop-opacity="1"
         id="stop4" />
    </radialGradient>
    <linearGradient
       x1="0"
       x2="0"
       y1="0"
       y2="1"
       id="gradient-4">
      <stop
         offset="0%"
         stop-color="#8b572a"
         stop-opacity="1"
         id="stop7" />
      <stop
         offset="100%"
         stop-color="#b57204"
         stop-opacity="1"
         id="stop9" />
    </linearGradient>
    <clipPath
       clipPathUnits="userSpaceOnUse"
       id="clipPath1477">
      <ellipse
         style="opacity:0.98000004;fill:#552200;fill-opacity:1;stroke:none;stroke-width:2.11540103;stroke-miterlimit:4;stroke-dasharray:none;stroke-opacity:1"
         id="ellipse1479"
         cx="259.9252"
         cy="253.16692"
         rx="161.63416"
         ry="159.44992" />
    </clipPath>
    <clipPath
       clipPathUnits="userSpaceOnUse"
       id="clipPath1481">
      <ellipse
         style="opacity:0.98000004;fill:#552200;fill-opacity:1;stroke:none;stroke-width:2.11540103;stroke-miterlimit:4;stroke-dasharray:none;stroke-opacity:1"
         id="ellipse1483"
         cx="259.9252"
         cy="253.16692"
         rx="161.63416"
         ry="159.44992" />
    </clipPath>
    <clipPath
       clipPathUnits="userSpaceOnUse"
       id="clipPath1485">
      <ellipse
         style="opacity:0.98000004;fill:#552200;fill-opacity:1;stroke:none;stroke-width:2.11540103;stroke-miterlimit:4;stroke-dasharray:none;stroke-opacity:1"
         id="ellipse1487"
         cx="259.9252"
         cy="253.16692"
         rx="161.63416"
         ry="159.44992"
         transform="rotate(47.094238)" />
    </clipPath>
    <clipPath
       clipPathUnits="userSpaceOnUse"
       id="clipPath1489">
      <ellipse
         style="opacity:0.98000004;fill:#552200;fill-opacity:1;stroke:none;stroke-width:2.11540103;stroke-miterlimit:4;stroke-dasharray:none;stroke-opacity:1"
         id="ellipse1491"
         cx="259.9252"
         cy="253.16692"
         rx="161.63416"
         ry="159.44992"
         transform="rotate(47.094238)" />
    </clipPath>
    <clipPath
       clipPathUnits="userSpaceOnUse"
       id="clipPath1493">
      <ellipse
         style="opacity:0.98000004;fill:#552200;fill-opacity:1;stroke:none;stroke-width:2.11540103;stroke-miterlimit:4;stroke-dasharray:none;stroke-opacity:1"
         id="ellipse1495"
         cx="259.9252"
         cy="253.16692"
         rx="161.63416"
         ry="159.44992"
         transform="rotate(-43.285185)" />
    </clipPath>
    <clipPath
       clipPathUnits="userSpaceOnUse"
       id="clipPath1497">
      <ellipse
         style="opacity:0.98000004;fill:#552200;fill-opacity:1;stroke:none;stroke-width:2.11540103;stroke-miterlimit:4;stroke-dasharray:none;stroke-opacity:1"
         id="ellipse1499"
         cx="259.9252"
         cy="253.16692"
         rx="161.63416"
         ry="159.44992"
         transform="rotate(-43.285185)" />
    </clipPath>
    <clipPath
       clipPathUnits="userSpaceOnUse"
       id="clipPath1501">
      <ellipse
         style="opacity:0.98000004;fill:#552200;fill-opacity:1;stroke:none;stroke-width:2.11540103;stroke-miterlimit:4;stroke-dasharray:none;stroke-opacity:1"
         id="ellipse1503"
         cx="259.9252"
         cy="253.16692"
         rx="161.63416"
         ry="159.44992" />
    </clipPath>
    <clipPath
       clipPathUnits="userSpaceOnUse"
       id="clipPath1505">
      <ellipse
         style="opacity:0.98000004;fill:#552200;fill-opacity:1;stroke:none;stroke-width:2.11540103;stroke-miterlimit:4;stroke-dasharray:none;stroke-opacity:1"
         id="ellipse1507"
         cx="259.9252"
         cy="253.16692"
         rx="161.63416"
         ry="159.44992" />
    </clipPath>
    <clipPath
       clipPathUnits="userSpaceOnUse"
       id="clipPath1509">
      <ellipse
         style="opacity:0.98000004;fill:#552200;fill-opacity:1;stroke:none;stroke-width:2.11540103;stroke-miterlimit:4;stroke-dasharray:none;stroke-opacity:1"
         id="ellipse1511"
         cx="259.9252"
         cy="253.16692"
         rx="161.63416"
         ry="159.44992" />
    </clipPath>
    <clipPath
       clipPathUnits="userSpaceOnUse"
       id="clipPath1513">
      <ellipse
         style="opacity:0.98000004;fill:#552200;fill-opacity:1;stroke:none;stroke-width:2.11540103;stroke-miterlimit:4;stroke-dasharray:none;stroke-opacity:1"
         id="ellipse1515"
         cx="259.9252"
         cy="253.16692"
         rx="161.63416"
         ry="159.44992" />
    </clipPath>
    <clipPath
       clipPathUnits="userSpaceOnUse"
       id="clipPath1517">
      <ellipse
         style="opacity:0.98000004;fill:#552200;fill-opacity:1;stroke:none;stroke-width:2.11540103;stroke-miterlimit:4;stroke-dasharray:none;stroke-opacity:1"
         id="ellipse1519"
         cx="259.9252"
         cy="253.16692"
         rx="161.63416"
         ry="159.44992" />
    </clipPath>
    <clipPath
       clipPathUnits="userSpaceOnUse"
       id="clipPath1521">
      <ellipse
         style="opacity:0.98000004;fill:#552200;fill-opacity:1;stroke:none;stroke-width:2.11540103;stroke-miterlimit:4;stroke-dasharray:none;stroke-opacity:1"
         id="ellipse1523"
         cx="259.9252"
         cy="253.16692"
         rx="161.63416"
         ry="159.44992" />
    </clipPath>
    <clipPath
       clipPathUnits="userSpaceOnUse"
       id="clipPath1525">
      <ellipse
         style="opacity:0.98000004;fill:#552200;fill-opacity:1;stroke:none;stroke-width:2.11937642;stroke-miterlimit:4;stroke-dasharray:none;stroke-opacity:1"
         id="ellipse1527"
         cx="271.77835"
         cy="243.03635"
         rx="169.00502"
         ry="153.06947"
         transform="matrix(-0.74558842,0.66640672,-0.65854525,-0.75254113,0,0)" />
    </clipPath>
    <clipPath
       clipPathUnits="userSpaceOnUse"
       id="clipPath1529">
      <ellipse
         style="opacity:0.98000004;fill:#552200;fill-opacity:1;stroke:none;stroke-width:2.11937642;stroke-miterlimit:4;stroke-dasharray:none;stroke-opacity:1"
         id="ellipse1531"
         cx="271.77835"
         cy="243.03635"
         rx="169.00502"
         ry="153.06947"
         transform="matrix(-0.74558842,0.66640672,-0.65854525,-0.75254113,0,0)" />
    </clipPath>
    <clipPath
       clipPathUnits="userSpaceOnUse"
       id="clipPath1533">
      <ellipse
         style="opacity:0.98000004;fill:#552200;fill-opacity:1;stroke:none;stroke-width:2.12321568;stroke-miterlimit:4;stroke-dasharray:none;stroke-opacity:1"
         id="ellipse1535"
         cx="259.96564"
         cy="255.00121"
         rx="161.6593"
         ry="160.60519"
         transform="matrix(0.99999836,-0.00181128,-0.0837692,0.99648518,0,0)" />
    </clipPath>
    <clipPath
       clipPathUnits="userSpaceOnUse"
       id="clipPath1537">
      <ellipse
         style="opacity:0.98000004;fill:#552200;fill-opacity:1;stroke:none;stroke-width:2.12321568;stroke-miterlimit:4;stroke-dasharray:none;stroke-opacity:1"
         id="ellipse1539"
         cx="259.96564"
         cy="255.00121"
         rx="161.6593"
         ry="160.60519"
         transform="matrix(0.99999836,-0.00181128,-0.0837692,0.99648518,0,0)" />
    </clipPath>
    <clipPath
       clipPathUnits="userSpaceOnUse"
       id="clipPath1541">
      <ellipse
         style="opacity:0.98000004;fill:#552200;fill-opacity:1;stroke:none;stroke-width:2.11931801;stroke-miterlimit:4;stroke-dasharray:none;stroke-opacity:1"
         id="ellipse1543"
         cx="249.43712"
         cy="264.78973"
         rx="155.11215"
         ry="166.7702"
         transform="matrix(0.70544276,0.7087669,-0.70850462,0.70570618,0,0)" />
    </clipPath>
    <clipPath
       clipPathUnits="userSpaceOnUse"
       id="clipPath1545">
      <ellipse
         style="opacity:0.98000004;fill:#552200;fill-opacity:1;stroke:none;stroke-width:2.11931801;stroke-miterlimit:4;stroke-dasharray:none;stroke-opacity:1"
         id="ellipse1547"
         cx="249.43712"
         cy="264.78973"
         rx="155.11215"
         ry="166.7702"
         transform="matrix(0.70544276,0.7087669,-0.70850461,0.70570618,0,0)" />
    </clipPath>
    <clipPath
       clipPathUnits="userSpaceOnUse"
       id="clipPath1549">
      <ellipse
         style="opacity:0.98000004;fill:#552200;fill-opacity:1;stroke:none;stroke-width:2.11540103;stroke-miterlimit:4;stroke-dasharray:none;stroke-opacity:1"
         id="ellipse1551"
         cx="259.9252"
         cy="253.16692"
         rx="161.63416"
         ry="159.44992" />
    </clipPath>
  </defs>
  <g
     class=""
     transform="matrix(1.5884394,0,0,1.5884394,-148.853,-151.06933)"
     id="g16"
     clip-path="url(#clipPath1549)">
    <path
       d="m 256,16 a 16,32 0 0 0 -16,32 16,32 0 0 0 4.67,22.57 c -1.56,0.12 -3.117,0.26 -4.67,0.43 -3.055,0.335 -9,2 -9,2 v 15.85 c 8.16,-1.214 16.506,-1.85 25,-1.85 8.494,0 16.84,0.636 25,1.85 V 73 c 0,0 -5.945,-1.665 -9,-2 -1.554,-0.17 -3.113,-0.31 -4.674,-0.43 A 16,32 0 0 0 272,48 16,32 0 0 0 256,16 Z M 93.89,83.623 a 32,16 45 0 0 -7.595,2.672 32,16 45 0 0 11.312,33.94 32,16 45 0 0 19.262,12.658 c -1.018,1.188 -2.022,2.387 -3,3.605 -1.922,2.397 -4.948,7.78 -4.948,7.78 l 11.248,11.247 c 9.976,-13.455 21.9,-25.38 35.355,-35.355 l -11.248,-11.248 c 0,0 -5.382,3.026 -7.78,4.95 -1.218,0.977 -2.417,1.983 -3.606,3 A 32,16 45 0 0 120.236,97.607 32,16 45 0 0 93.89,83.623 Z m 323.622,0.018 a 16,32 45 0 0 -25.748,13.967 16,32 45 0 0 -12.657,19.262 c -1.188,-1.018 -2.387,-2.022 -3.605,-3 -2.397,-1.922 -7.78,-4.948 -7.78,-4.948 l -11.247,11.248 c 13.455,9.976 25.38,21.9 35.355,35.355 l 11.248,-11.248 c 0,0 -3.026,-5.382 -4.95,-7.78 -0.977,-1.218 -1.983,-2.417 -3,-3.606 a 16,32 45 0 0 19.265,-12.654 16,32 45 0 0 11.312,-33.94 16,32 45 0 0 -8.193,-2.655 z M 256,105 c -1.12,0 -2.238,0.014 -3.352,0.04 -1.057,0.024 -2.11,0.064 -3.162,0.108 -36.83,1.558 -70.215,16.253 -95.59,39.538 -0.01,0.007 -0.018,0.015 -0.027,0.023 -3.193,2.93 -6.257,5.995 -9.186,9.188 -23.297,25.392 -37.997,58.8 -39.54,95.657 v 0.076 c -0.044,1.023 -0.08,2.046 -0.103,3.073 -0.025,1.096 -0.04,2.194 -0.04,3.297 0,1.107 0.015,2.21 0.04,3.31 0.024,1.094 0.064,2.184 0.11,3.272 1.574,36.828 16.285,70.205 39.58,95.572 0.03,0.03 0.058,0.06 0.086,0.092 2.913,3.166 5.958,6.208 9.13,9.115 25.37,23.26 58.735,37.937 95.542,39.494 l 0.2,0.005 c 0.985,0.04 1.972,0.077 2.962,0.1 1.114,0.025 2.23,0.04 3.35,0.04 1.12,0 2.238,-0.014 3.352,-0.04 1.057,-0.024 2.11,-0.064 3.162,-0.108 36.83,-1.558 70.215,-16.253 95.59,-39.538 0.01,-0.007 0.018,-0.015 0.027,-0.023 3.193,-2.93 6.257,-5.995 9.186,-9.188 23.283,-25.377 37.98,-58.76 39.538,-95.59 l 0.005,-0.2 c 0.04,-0.985 0.077,-1.972 0.1,-2.962 0.025,-1.114 0.04,-2.23 0.04,-3.35 0,-1.12 -0.014,-2.238 -0.04,-3.352 -0.024,-1.057 -0.064,-2.11 -0.108,-3.162 -1.558,-36.83 -16.253,-70.215 -39.538,-95.59 -0.007,-0.01 -0.015,-0.018 -0.023,-0.027 -2.93,-3.193 -5.995,-6.257 -9.188,-9.186 -25.377,-23.283 -58.76,-37.98 -95.59,-39.538 l -0.2,-0.005 c -0.985,-0.04 -1.972,-0.078 -2.962,-0.1 -1.114,-0.025 -2.23,-0.04 -3.35,-0.04 z m 0,10.752 a 8,8 0 0 1 8,8 8,8 0 0 1 -8,8 8,8 0 0 1 -8,-8 8,8 0 0 1 8,-8 z M 256,144 c 1.128,0 2.25,0.02 3.37,0.055 0.09,0.002 0.18,0.01 0.27,0.01 1.08,0.038 2.156,0.087 3.23,0.152 25.756,1.56 49.166,11.83 67.325,27.908 3.426,3.033 6.664,6.27 9.696,9.697 16.073,18.162 26.34,41.574 27.895,67.332 0.066,1.084 0.114,2.17 0.15,3.262 l 0.008,0.205 c 0.036,1.123 0.057,2.25 0.057,3.38 0,1.128 -0.02,2.25 -0.055,3.37 -0.002,0.09 -0.01,0.18 -0.01,0.27 -0.038,1.08 -0.087,2.156 -0.152,3.23 -1.56,25.756 -11.83,49.166 -27.908,67.325 -3.033,3.426 -6.27,6.664 -9.697,9.696 -18.162,16.073 -41.574,26.34 -67.332,27.895 -1.084,0.066 -2.17,0.114 -3.262,0.15 l -0.205,0.008 c -1.123,0.036 -2.25,0.057 -3.38,0.057 -1.128,0 -2.25,-0.02 -3.37,-0.055 -0.09,-0.002 -0.18,-0.01 -0.27,-0.01 -1.08,-0.038 -2.156,-0.087 -3.23,-0.152 -25.734,-1.56 -49.126,-11.813 -67.278,-27.865 l -0.028,-0.023 c -3.416,-3.024 -6.644,-6.252 -9.67,-9.666 -16.085,-18.155 -26.365,-41.563 -27.935,-67.32 v -0.004 c -0.065,-1.05 -0.113,-2.103 -0.15,-3.16 l -0.015,-0.392 c -0.035,-1.114 -0.055,-2.232 -0.055,-3.354 0,-1.107 0.02,-2.21 0.053,-3.31 l 0.015,-0.387 c 0.035,-1.018 0.08,-2.034 0.14,-3.045 l 0.003,-0.06 c 1.547,-25.783 11.824,-49.218 27.915,-67.393 3.033,-3.426 6.27,-6.664 9.697,-9.696 18.162,-16.073 41.574,-26.34 67.332,-27.895 1.084,-0.066 2.17,-0.114 3.262,-0.15 l 0.205,-0.008 c 1.123,-0.036 2.25,-0.057 3.38,-0.057 z m -93.396,10.486 a 8,8 0 0 1 5.54,2.344 8,8 0 0 1 0,11.313 8,8 0 0 1 -11.314,0 8,8 0 0 1 0,-11.313 8,8 0 0 1 5.774,-2.344 z m 187.027,0 a 8,8 0 0 1 5.54,2.344 8,8 0 0 1 0,11.313 8,8 0 0 1 -11.313,0 8,8 0 0 1 0,-11.313 8,8 0 0 1 5.774,-2.344 z M 256,162 c -5.46,0 -10.803,0.465 -16,1.346 V 172 c 0,0 3.21,4.913 5.76,6 0.666,0.284 1.355,0.532 2.054,0.756 -0.686,12.47 -1.63,25.145 -2.86,37.78 3.52,-0.994 7.22,-1.536 11.046,-1.536 3.843,0 7.563,0.548 11.098,1.55 -1.233,-12.675 -2.18,-25.358 -2.87,-37.808 0.684,-0.22 1.36,-0.463 2.012,-0.742 2.55,-1.087 5.76,-6 5.76,-6 v -8.654 C 266.803,162.466 261.46,162 256,162 Z m -54.268,17.105 c -8.78,6.19 -16.438,13.847 -22.627,22.627 l 6.184,6.184 c 0,0 5.743,1.205 8.315,0.17 0.673,-0.27 1.334,-0.582 1.987,-0.918 8.338,9.31 16.643,18.947 24.71,28.76 3.7,-6.53 9.135,-11.96 15.67,-15.65 -9.842,-8.098 -19.484,-16.405 -28.785,-24.725 0.33,-0.64 0.634,-1.288 0.9,-1.948 1.034,-2.572 -0.17,-8.316 -0.17,-8.316 l -6.185,-6.185 z m 108.536,0 -6.184,6.184 c 0,0 -1.205,5.743 -0.17,8.315 0.27,0.673 0.582,1.334 0.918,1.987 -9.31,8.338 -18.95,16.642 -28.762,24.71 6.532,3.7 11.96,9.135 15.653,15.67 8.097,-9.842 16.404,-19.484 24.724,-28.785 0.64,0.33 1.288,0.634 1.948,0.9 2.572,1.034 8.316,-0.17 8.316,-0.17 l 6.185,-6.185 c -6.19,-8.78 -13.847,-16.438 -22.627,-22.627 z M 423.15,231 c 1.214,8.16 1.85,16.506 1.85,25 0,8.494 -0.636,16.84 -1.85,25 H 439 c 0,0 1.665,-5.945 2,-9 0.17,-1.554 0.31,-3.113 0.43,-4.674 A 32,16 0 0 0 464,272 a 32,16 0 0 0 32,-16 32,16 0 0 0 -32,-16 32,16 0 0 0 -22.57,4.67 c -0.12,-1.56 -0.26,-3.117 -0.43,-4.67 -0.335,-3.055 -2,-9 -2,-9 z m -350.084,0.066 c 0,0 -1.664,5.946 -2,9 -0.17,1.554 -0.31,3.113 -0.43,4.674 a 32,16 0 0 0 -22.57,-4.674 32,16 0 0 0 -32,16 32,16 0 0 0 32,16 32,16 0 0 0 22.57,-4.67 c 0.12,1.56 0.26,3.118 0.43,4.67 0.336,3.055 2,9 2,9 H 88.86 C 87.64,272.886 87,264.516 87,256 c 0,-8.47 0.633,-16.795 1.84,-24.934 z M 256,233 c -12.81,0 -23,10.19 -23,23 0,12.81 10.19,23 23,23 12.81,0 23,-10.19 23,-23 0,-12.81 -10.19,-23 -23,-23 z m 84,7 c 0,0 -4.913,3.21 -6,5.76 -0.284,0.666 -0.532,1.355 -0.756,2.054 -12.47,-0.686 -25.145,-1.63 -37.78,-2.86 0.994,3.52 1.536,7.22 1.536,11.046 0,3.843 -0.548,7.563 -1.55,11.098 12.675,-1.233 25.358,-2.18 37.808,-2.87 0.22,0.684 0.463,1.36 0.742,2.012 1.087,2.55 6,5.76 6,5.76 h 8.654 c 0.88,-5.197 1.346,-10.54 1.346,-16 0,-5.46 -0.465,-10.803 -1.346,-16 z m -176.666,0.066 C 162.46,245.242 162,250.566 162,256 c 0,5.482 0.47,10.85 1.357,16.066 h 8.71 c 0,0 4.912,-3.21 6,-5.76 0.284,-0.666 0.53,-1.354 0.755,-2.054 12.454,0.686 25.115,1.627 37.733,2.857 C 215.55,263.57 215,259.846 215,256 c 0,-3.816 0.54,-7.51 1.53,-11.02 -12.648,1.227 -25.3,2.17 -37.72,2.86 -0.222,-0.686 -0.465,-1.36 -0.744,-2.014 -1.087,-2.55 -6,-5.76 -6,-5.76 z M 388.248,248 a 8,8 0 0 1 8,8 8,8 0 0 1 -8,8 8,8 0 0 1 -8,-8 8,8 0 0 1 8,-8 z m -264.43,0.066 a 8,8 0 0 1 8,8 8,8 0 0 1 -8,8 8,8 0 0 1 -8,-8 8,8 0 0 1 8,-8 z m 167.88,28.004 c -3.7,6.532 -9.135,11.96 -15.67,15.653 9.842,8.097 19.484,16.404 28.784,24.724 -0.328,0.64 -0.633,1.288 -0.898,1.948 -1.035,2.572 0.17,8.316 0.17,8.316 l 6.184,6.185 c 8.78,-6.19 16.438,-13.847 22.627,-22.627 l -6.184,-6.184 c 0,0 -5.743,-1.205 -8.315,-0.17 -0.673,0.27 -1.334,0.582 -1.987,0.918 -8.338,-9.31 -16.642,-18.95 -24.71,-28.762 z m -71.384,0.024 c -8.08,9.82 -16.367,19.44 -24.668,28.72 -0.64,-0.33 -1.29,-0.635 -1.95,-0.9 -2.57,-1.035 -8.313,0.17 -8.313,0.17 l -6.24,6.238 c 6.194,8.776 13.86,16.43 22.644,22.612 l 6.223,-6.223 c 0,0 1.204,-5.743 0.17,-8.315 -0.27,-0.673 -0.582,-1.334 -0.918,-1.987 9.298,-8.327 18.923,-16.62 28.722,-24.678 -6.534,-3.687 -11.968,-9.11 -15.67,-15.636 z m 24.588,19.355 c 1.233,12.675 2.18,25.358 2.87,37.808 -0.684,0.22 -1.36,0.463 -2.012,0.742 -2.55,1.087 -5.76,6 -5.76,6 v 8.654 c 5.197,0.88 10.54,1.346 16,1.346 5.46,0 10.803,-0.465 16,-1.346 V 340 c 0,0 -3.21,-4.913 -5.76,-6 -0.666,-0.284 -1.355,-0.532 -2.054,-0.756 0.686,-12.47 1.63,-25.145 2.86,-37.78 -3.52,0.994 -7.22,1.536 -11.046,1.536 -3.843,0 -7.563,-0.548 -11.098,-1.55 z m -82.207,46.064 a 8,8 0 0 1 5.54,2.343 8,8 0 0 1 0,11.313 8,8 0 0 1 -11.313,0 8,8 0 0 1 0,-11.313 8,8 0 0 1 5.773,-2.343 z m 186.936,0 a 8,8 0 0 1 5.54,2.343 8,8 0 0 1 0,11.313 8,8 0 0 1 -11.313,0 8,8 0 0 1 0,-11.313 8,8 0 0 1 5.774,-2.343 z m 42.2,14.96 c -9.976,13.456 -21.9,25.38 -35.355,35.356 l 11.248,11.248 c 0,0 5.382,-3.026 7.78,-4.95 1.218,-0.977 2.417,-1.983 3.606,-3 a 32,16 45 0 0 12.654,19.265 32,16 45 0 0 33.94,11.312 32,16 45 0 0 -11.31,-33.94 32,16 45 0 0 -19.263,-12.658 c 1.018,-1.188 2.022,-2.387 3,-3.605 1.922,-2.397 4.948,-7.78 4.948,-7.78 l -11.248,-11.247 z m -271.62,0.053 -11.194,11.196 c 0,0 3.026,5.382 4.95,7.78 0.977,1.218 1.98,2.417 3,3.606 a 16,32 45 0 0 -19.267,12.655 16,32 45 0 0 -11.313,33.94 16,32 45 0 0 33.94,-11.31 16,32 45 0 0 12.66,-19.263 c 1.187,1.018 2.386,2.022 3.605,3 2.397,1.922 7.78,4.948 7.78,4.948 l 11.208,-11.21 c -13.46,-9.97 -25.39,-21.89 -35.37,-35.34 z M 256,380.247 a 8,8 0 0 1 8,8 8,8 0 0 1 -8,8 8,8 0 0 1 -8,-8 8,8 0 0 1 8,-8 z M 231,423.15 V 439 c 0,0 5.945,1.665 9,2 1.554,0.17 3.113,0.31 4.674,0.43 A 16,32 0 0 0 240,464 a 16,32 0 0 0 16,32 16,32 0 0 0 16,-32 16,32 0 0 0 -4.67,-22.57 c 1.56,-0.12 3.117,-0.26 4.67,-0.43 3.055,-0.335 9,-2 9,-2 v -15.85 c -8.16,1.214 -16.506,1.85 -25,1.85 -8.494,0 -16.84,-0.636 -25,-1.85 z"
       id="path14"
       inkscape:connector-curvature="0"
       style="fill:#8b572a;fill-opacity:1" />
  </g>
  <rect
     style="opacity:0.98000004;fill:#8b572a;fill-opacity:1;stroke:none;stroke-width:1.71009243;stroke-miterlimit:4;stroke-dasharray:none;stroke-opacity:1"
     id="rect1231"
     width="54.392612"
     height="30.011517"
     x="-158.91791"
     y="352.03839"
     transform="matrix(1.1681051,-1.0764155,1.1727372,1.0713671,-148.853,-151.06933)"
     clip-path="url(#clipPath1545)" />
  <rect
     style="opacity:0.98000004;fill:#8b572a;fill-opacity:1;stroke:none;stroke-width:1.71009243;stroke-miterlimit:4;stroke-dasharray:none;stroke-opacity:1"
     id="rect1231-3"
     width="54.392612"
     height="30.011517"
     x="75.792908"
     y="344.08575"
     transform="matrix(1.1681051,-1.0764155,1.1727372,1.0713671,-148.853,-151.06933)"
     clip-path="url(#clipPath1541)" />
  <rect
     style="opacity:0.98000004;fill:#8b572a;fill-opacity:1;stroke:none;stroke-width:1.71009243;stroke-miterlimit:4;stroke-dasharray:none;stroke-opacity:1"
     id="rect1231-3-6"
     width="54.392612"
     height="30.011517"
     x="325.7504"
     y="241.29907"
     transform="matrix(1.5884368,0.00286693,0.13353142,1.5828168,-148.853,-151.06933)"
     clip-path="url(#clipPath1537)" />
  <rect
     style="opacity:0.98000004;fill:#8b572a;fill-opacity:1;stroke:none;stroke-width:1.71009243;stroke-miterlimit:4;stroke-dasharray:none;stroke-opacity:1"
     id="rect1231-3-6-7"
     width="54.392612"
     height="30.011517"
     x="88.356987"
     y="241.61922"
     transform="matrix(1.5884368,0.00286693,0.13353142,1.5828168,-148.853,-151.06933)"
     clip-path="url(#clipPath1533)" />
  <rect
     style="opacity:0.98000004;fill:#8b572a;fill-opacity:1;stroke:none;stroke-width:1.71009243;stroke-miterlimit:4;stroke-dasharray:none;stroke-opacity:1"
     id="rect1231-3-6-7-3"
     width="54.392612"
     height="30.011517"
     x="-504.30945"
     y="-23.302008"
     transform="matrix(-1.1432951,-1.1027313,1.0004922,-1.2337565,-148.853,-151.06933)"
     clip-path="url(#clipPath1529)" />
  <rect
     style="opacity:0.98000004;fill:#8b572a;fill-opacity:1;stroke:none;stroke-width:1.71009243;stroke-miterlimit:4;stroke-dasharray:none;stroke-opacity:1"
     id="rect1231-3-6-7-3-5"
     width="54.392612"
     height="30.011517"
     x="-272.8717"
     y="-19.942726"
     transform="matrix(-1.1432951,-1.1027313,1.0004922,-1.2337565,-148.853,-151.06933)"
     clip-path="url(#clipPath1525)" />
  <rect
     style="opacity:0.98000004;fill:#8b572a;fill-opacity:1;stroke:none;stroke-width:2.16506362;stroke-miterlimit:4;stroke-dasharray:none;stroke-opacity:1"
     id="rect1325"
     width="28.959276"
     height="57.918552"
     x="241.71342"
     y="344.03619"
     clip-path="url(#clipPath1521)"
     transform="matrix(1.5884394,0,0,1.5884394,-148.853,-151.06933)" />
  <rect
     style="opacity:0.98000004;fill:#8b572a;fill-opacity:1;stroke:none;stroke-width:2.16506362;stroke-miterlimit:4;stroke-dasharray:none;stroke-opacity:1"
     id="rect1325-6"
     width="28.959276"
     height="57.918552"
     x="241.55888"
     y="111.63638"
     clip-path="url(#clipPath1517)"
     transform="matrix(1.5884394,0,0,1.5884394,-148.853,-151.06933)" />
  <circle
     style="opacity:0.98000004;fill:#784421;fill-opacity:1;stroke:none;stroke-width:13.80581188;stroke-miterlimit:4;stroke-dasharray:none;stroke-opacity:1"
     id="path1456"
     cx="257"
     cy="255"
     r="42.5"
     clip-path="url(#clipPath1481)"
     transform="matrix(1.5884394,0,0,1.5884394,-148.853,-151.06933)" />
  <circle
     style="opacity:0.98000004;fill:#552200;fill-opacity:1;stroke:none;stroke-width:9.74527931;stroke-miterlimit:4;stroke-dasharray:none;stroke-opacity:1"
     id="path1456-6"
     cx="256.77603"
     cy="254.3703"
     r="30"
     clip-path="url(#clipPath1477)"
     transform="matrix(1.5884394,0,0,1.5884394,-148.853,-151.06933)" />
</svg>
