<svg xmlns="http://www.w3.org/2000/svg" viewBox="0 0 512 512" style="height: 64px; width: 64px;"><g class="" transform="translate(0,0)" style="touch-action: none;"><g><path d="M230.125 18.156L230.125 247L279.438 247L279.438 18.156L230.125 18.156Z" class="selected" fill="#b57204" fill-opacity="1" stroke="#4a4a4a" stroke-opacity="1" stroke-width="10"></path><path d="M78.812 21.438L62.812 158.344C111.519 188.456 160.449 206.187 211.437 211.438L211.437 33.125C167.193 31.303 122.977 27.235 78.812 21.437Z" class="" fill="#8b572a" fill-opacity="1" stroke="#4a4a4a" stroke-opacity="1" stroke-width="10"></path><path d="M428.25 21.718C384.852 28.532 341.466 32.365 298.125 33.688L298.125 208.688C344.857 201.23 393.941 184.313 446.563 157.844L428.25 21.72Z" class="" fill="#8b572a" fill-opacity="1" stroke="#4a4a4a" stroke-opacity="1" stroke-width="10"></path><path d="M426.312 188.25C381.838 208.097 339.252 221.086 298.125 227.22L298.125 247L335.156 247L335.156 390.188L298.125 390.188L298.125 398.906C298.125 433.316 277.609 454.99 254.875 455.186C232.141 455.386 211.437 433.846 211.437 398.906L211.437 390.186L183.781 390.188L174.438 390.188L174.438 247L211.439 247L211.439 229.812C167.665 225.648 125.299 212.955 83.752 191.75C88.792 284.44 87.412 377.12 78.689 469.813C196.091 501.86 313.477 500.815 430.877 469.813C424.024 375.955 421.654 282.107 426.314 188.25Z" class="" fill="#8b572a" fill-opacity="1" stroke="#4a4a4a" stroke-opacity="1" stroke-width="10"></path><path d="M193.125 265.688L193.125 371.5L316.47 371.5L316.47 265.687L193.124 265.687Z" class="" fill="#4a4a4a" fill-opacity="1" stroke="#4a4a4a" stroke-opacity="1" stroke-width="10"></path><path d="M213.595 283.844L296 283.844L296 351.344L213.594 351.344L213.594 283.844Z" class="" fill="#9b9b9b" fill-opacity="1" stroke="#4a4a4a" stroke-opacity="1" stroke-width="10"></path><path d="M232.281 302.531L232.281 332.657L277.313 332.657L277.313 302.53L232.283 302.53Z" class="" fill="#b57204" fill-opacity="1" stroke="#4a4a4a" stroke-opacity="1" stroke-width="10"></path><path d="M230.126 390.189L230.126 398.907C230.126 427.137 243.446 436.599 254.72 436.501C265.99 436.403 279.438 426.483 279.438 398.907L279.438 390.187L230.125 390.189Z" class="" fill="#b57204" fill-opacity="1" stroke="#4a4a4a" stroke-opacity="1" stroke-width="10"></path></g></g></svg>