<svg xmlns="http://www.w3.org/2000/svg" viewBox="0 0 512 512" style="height: 64px; width: 64px;"><defs><radialGradient id="gradient-3"><stop offset="0%" stop-color="#7ed321" stop-opacity="1"></stop><stop offset="100%" stop-color="#417505" stop-opacity="1"></stop></radialGradient></defs><g class="" transform="translate(0,0)" style="touch-action: none;"><g><path d="M256 27.88L247.9 43.97C239.7 60.51 227.7 88.61 217.5 117C207.4 145.3 199 173 199 192C199 214 205.1 235.4 213.4 253.2C211.9 253.3 210.5 253.4 209.1 253.5C194.1 246.7 179.6 238.5 167.6 229C148.9 214 137 196.5 137 176C137 161.5 140.7 154.2 144 151C147.3 147.8 150.9 147.3 155.5 148.7C160.1 150 165 153.7 167.5 158C170 162.3 170.6 166.7 167.9 172L184.1 180C189.4 169.3 188 157.7 183 149C178 140.3 169.9 134 160.5 131.3C158.1 130.7 155.7 130.3 153.1 130.2C145.6 129.8 137.7 132.1 131.5 138C123.3 145.8 119 158.5 119 176C119 203.5 135.1 226 156.4 243C162.4 247.8 168.8 252.2 175.5 256.2C161.2 257.8 147.5 259.8 134.7 262.1C124.8 260.8 113.7 258.2 104.3 254.5C97.13 251.7 90.93 248.1 87.13 244.5C83.23 240.9 81.73 237.9 81.63 234.6L81.63 234.5C81.43 224.6 88.83 219.2 95.03 218.5C98.13 218.1 100.4 218.9 102.2 220.7C103.9 222.5 105.8 226.1 105.4 233.6L123.4 234.6C124 223.5 121 214.2 115.1 208.1C110.6 203.5 104.8 201.1 98.93 200.6C96.93 200.4 95.03 200.4 93.03 200.6C77.83 202.2 63.33 215.7 63.63 234.9C63.83 244 68.63 251.9 74.83 257.7C80.93 263.4 88.43 267.4 96.63 270.8L95.43 271.1C79.63 275.6 66.03 280.7 54.93 286.6C51.83 286.8 48.93 287 46.63 286.7C43.83 286.4 42.03 285.7 40.73 284.7C39.43 283.8 38.33 282.4 37.23 279C36.63 277 38.93 272.9 42.03 271.4C43.63 270.6 44.73 270.6 45.33 270.9C46.03 271.1 47.13 271.6 48.53 275.2L65.33 268.8C62.63 261.7 57.73 256.2 51.63 254C48.53 252.8 45.43 252.5 42.43 252.8C39.53 253.1 36.63 254 34.13 255.2C24.03 260.2 16.23 271.6 20.03 284.2C21.93 290.6 25.43 295.8 30.03 299.2C31.83 300.6 33.73 301.6 35.73 302.4C28.53 312.8 24.03 326.9 24.03 336C24.03 348.6 32.73 359.1 45.13 367.5C57.63 376 74.63 383 95.43 388.9C122.2 396.6 155.2 402.3 192 405.4C208 400 208 400 192 389.3C156.6 386.2 124.9 380.7 99.83 373.6C80.13 367.9 64.33 361.2 54.13 354.3C43.93 347.4 40.03 341.1 40.03 336C40.03 330.9 43.93 324.6 54.13 317.7C64.33 310.8 80.13 304.1 99.83 298.4C133.4 288.9 178.6 282.2 229.1 280.4C229.1 280.5 229.2 280.5 229.2 280.5L229.2 280.4L230.3 280.4C231.9 282.5 233.7 284.4 235.4 286.1C241.4 292.2 247.5 297 256 297C264.5 297 270.6 292.2 276.6 286.1C278.3 284.4 280.1 282.5 281.7 280.4L282.8 280.4L282.8 280.5C282.8 280.5 282.9 280.5 282.9 280.4C333.4 282.2 378.6 288.9 412.2 298.4C431.9 304.1 447.7 310.8 457.9 317.7C468.1 324.6 472 330.9 472 336C472 341.1 468.1 347.4 457.9 354.3C447.7 361.2 431.9 367.9 412.2 373.6C387.1 380.7 355.4 386.2 320 389.3C304 400 304 400 320 405.4C356.8 402.3 389.8 396.6 416.6 388.9C437.4 383 454.4 376 466.9 367.5C479.3 359.1 488 348.6 488 336C488 326.9 483.5 312.7 476.3 302.4C478.2 301.6 480.1 300.5 481.9 299.2C486.5 295.8 490 290.6 491.9 284.2C495.7 271.6 487.9 260.2 477.8 255.2C475.3 254 472.5 253.1 469.5 252.8C466.5 252.5 463.4 252.8 460.3 254C454.2 256.2 449.3 261.7 446.6 268.8L463.4 275.2C464.8 271.6 465.9 271.1 466.6 270.9C467.2 270.6 468.3 270.6 469.9 271.4C473 272.9 475.3 277 474.7 279C473.6 282.4 472.5 283.8 471.2 284.7C469.9 285.7 468.1 286.4 465.3 286.7C463 286.9 460.2 286.8 457.1 286.6C446 280.7 432.4 275.6 416.6 271.1L415.4 270.8C423.6 267.4 431.1 263.4 437.1 257.7C443.4 251.9 448.2 244 448.3 234.8C448.6 215.7 434.2 202.2 418.9 200.6C417 200.4 415 200.4 413.1 200.6C407.2 201.1 401.4 203.5 396.9 208.1C391 214.2 388 223.5 388.6 234.6L406.6 233.6C406.2 226.1 408.1 222.5 409.8 220.7C411.6 218.9 413.9 218.1 417 218.5C423.1 219.2 430.5 224.6 430.3 234.5L430.3 234.6C430.2 237.9 428.7 240.9 424.9 244.5C421 248.1 414.8 251.7 407.7 254.5C398.3 258.2 387.2 260.8 377.3 262.1C364.5 259.8 350.8 257.8 336.5 256.2C343.2 252.2 349.6 247.8 355.6 243C376.9 226 393 203.5 393 176C393 158.5 388.7 145.8 380.5 138C374.3 132.1 366.4 129.8 358.9 130.2C356.3 130.3 353.9 130.7 351.5 131.3C342.1 134 334 140.3 329 149C324 157.7 322.6 169.3 327.9 180L344.1 172C341.4 166.7 342 162.3 344.5 158C347 153.7 351.9 150 356.5 148.7C361.1 147.3 364.7 147.8 368 151C371.3 154.2 375 161.5 375 176C375 196.5 363.1 214 344.4 229C332.4 238.5 317.9 246.7 302.9 253.5C301.5 253.4 300.1 253.3 298.6 253.2C306.9 235.4 313 214 313 192C313 173 304.6 145.3 294.5 117C284.3 88.61 272.3 60.51 264.1 43.97Z" class="selected" fill="#d4af37" fill-opacity="1" stroke="#4a4a4a" stroke-opacity="1" stroke-width="10"></path><path d="M256 69.33C262.8 84.56 270.6 103.7 277.5 123C287.4 150.7 295 179 295 192C295 214 287.5 236.8 278.1 253.6C273.5 262 268.3 268.9 263.9 273.4C259.9 277.3 256.4 278.7 256 278.9C256 279 256.1 279 256 279C255.9 279 256 279 256 278.9C255.6 278.7 252.1 277.3 248.1 273.4C243.7 268.9 238.5 262 233.9 253.6C224.5 236.8 217 214 217 192C217 179 224.6 150.7 234.5 123C241.4 103.7 249.2 84.56 256 69.33Z" class="" fill="url(#gradient-3)" stroke="#4a4a4a" stroke-opacity="1" stroke-width="10"></path></g></g></svg>