<svg xmlns="http://www.w3.org/2000/svg" viewBox="0 0 512 512" style="height: 64px; width: 64px;"><defs><radialGradient id="gradient-7"><stop offset="0%" stop-color="#417505" stop-opacity="1"></stop><stop offset="100%" stop-color="#528617" stop-opacity="1"></stop></radialGradient><radialGradient id="gradient-11"><stop offset="0%" stop-color="#fc88fc" stop-opacity="1"></stop><stop offset="100%" stop-color="#c85dc8" stop-opacity="1"></stop></radialGradient></defs><g class="" transform="translate(0,0)" style="touch-action: none;"><g><path d="M405.3 64.85L407.7 64.85C425.3 65.05 443.5 73.35 459.9 90.35C583.4 224.7 304.2 294.7 318.6 447.2C299.8 435.7 286.7 422.5 278.4 408.3L320.4 384.1L320.4 309.7L296.9 296.1C316.8 271.9 345.7 250.3 379.8 235.3C469.3 195.6 452 48.46 340 112.5C356.5 82.04 380.3 65.32 405.3 64.85Z" class="selected" fill="#9b9b9b" fill-opacity="1" stroke="#4a4a4a" stroke-opacity="1" stroke-width="10"></path><path d="M106.7 64.85C131.7 65.32 155.5 82.04 172 112.5C60 48.46 42.7 195.6 132.2 235.3C166.3 250.3 195.2 271.9 215.1 296.1L191.6 309.7L191.6 384.1L233.6 408.3C225.3 422.5 212.2 435.7 193.4 447.2C207.8 294.7 -71.4 224.7 52.1 90.36C68.5 73.36 86.7 65.06 104.3 64.86L106.7 64.86Z" class="" fill="#9b9b9b" fill-opacity="1" stroke="#4a4a4a" stroke-opacity="1" stroke-width="10"></path><path d="M312.5 123.5L327.5 133.5C310 159.8 283 173.5 256 173.5C229 173.5 202 159.8 184.5 133.5L199.5 123.5C214 145.2 235 155.5 256 155.5C277 155.5 298 145.2 312.5 123.5Z" class="" fill="#4a4a4a" fill-opacity="1" stroke="#4a4a4a" stroke-opacity="1" stroke-width="10"></path><path d="M437.4 283.7C413.3 331.5 388 368.5 374.5 440C369.7 423.4 366.4 405.8 365.2 387C376.3 350 403.9 313.8 437.4 283.7Z" class="" fill="#9b9b9b" fill-opacity="1" stroke="#4a4a4a" stroke-opacity="1" stroke-width="10"></path><path d="M74.6 283.7C108.1 313.8 135.7 350 146.8 387C145.6 405.8 142.3 423.4 137.5 440C124 368.5 98.7 331.5 74.6 283.7Z" class="" fill="#9b9b9b" fill-opacity="1" stroke="#4a4a4a" stroke-opacity="1" stroke-width="10"></path><path d="M256 293.3L302.4 320.1L302.4 373.7L256 400.5L209.6 373.7L209.6 320.1Z" class="" fill="url(#gradient-7)" stroke="#4a4a4a" stroke-opacity="1" stroke-width="10"></path></g></g></svg>