<svg xmlns="http://www.w3.org/2000/svg" viewBox="0 0 512 512" style="height: 64px; width: 64px;"><g class="" transform="translate(0,0)" style="touch-action: none;"><g><path d="M271.9 25.85C253.5 25.85 235.9 42.58 232.7 66.82C229.3 92.65 244 114.3 263.6 116.7C283.3 119.1 303.1 101.8 306.6 75.93C310.1 50.07 295.1 28.5 275.6 26.08C274.4 25.93 273.1 25.85 271.9 25.85Z" class="" fill="#b57204" fill-opacity="1"></path><path d="M233.7 121.6C195.7 127.9 158.5 163.5 139.7 187.6C128.2 221 125.2 254.3 119 287.6L147.2 286.8C153.8 261.6 155.4 234.9 168.2 211.4C183 203.2 195.1 190.8 206.6 177.6C200.2 210.5 192.6 249.9 193.4 279.4C223.2 350.3 289.1 419.8 326.4 485.8L356.3 461.5C327.5 405.8 298.8 355.1 262 301.3C264.1 294.2 305.3 137.8 290 129.4C269.8 138.4 249.1 135.4 233.7 121.6Z" class="" fill="#8b572a" fill-opacity="1"></path><path d="M305.6 180.2C302.5 198 300.3 215.3 295.6 233C300.1 238.4 303.1 243.5 309.9 248.3C335.9 263.6 361.9 274.6 387.9 285L397.1 255.1L319.6 217.5C315.3 205 311.7 192.3 305.6 180.2Z" class="" fill="#b57204" fill-opacity="1"></path><path d="M187.1 310.1C182 335.1 177.3 360.3 175.5 386.6C159.6 418.3 139.8 438.2 115 463L145 486.2C168.1 461.2 194.9 439.2 211.7 412.4L225.7 369.8C210 350.8 197.3 331 187.1 310.1Z" class="selected" fill="#b57204" fill-opacity="1"></path></g></g><g class="" transform="translate(322,273)" style="touch-action: none;"><g transform="translate(9.6, 9.6) scale(0.7, 0.7) rotate(90, 128, 128)"><circle cx="128" cy="128" r="128" fill="#d0021b" fill-opacity="1"></circle><circle stroke="#ffffff" stroke-opacity="1" fill="#d0021b" fill-opacity="1" stroke-width="18" cx="128" cy="128" r="101"></circle><path fill="#ffffff" fill-opacity="1" d="M96 60h64v56h36l-68 88-68-88h36z"></path></g></g></svg>