<?xml version="1.0" encoding="UTF-8" standalone="no"?>
<svg
   xmlns:dc="http://purl.org/dc/elements/1.1/"
   xmlns:cc="http://creativecommons.org/ns#"
   xmlns:rdf="http://www.w3.org/1999/02/22-rdf-syntax-ns#"
   xmlns:svg="http://www.w3.org/2000/svg"
   xmlns="http://www.w3.org/2000/svg"
   xmlns:sodipodi="http://sodipodi.sourceforge.net/DTD/sodipodi-0.dtd"
   xmlns:inkscape="http://www.inkscape.org/namespaces/inkscape"
   viewBox="0 0 512 512"
   style="height: 64px; width: 64px;"
   version="1.1"
   id="svg16"
   sodipodi:docname="spell-agrandissement.svg"
   inkscape:version="0.92.3 (2405546, 2018-03-11)"
   inkscape:export-filename="/home/plic/Téléchargements/spell-agrandissement.png"
   inkscape:export-xdpi="24"
   inkscape:export-ydpi="24">
  <metadata
     id="metadata22">
    <rdf:RDF>
      <cc:Work
         rdf:about="">
        <dc:format>image/svg+xml</dc:format>
        <dc:type
           rdf:resource="http://purl.org/dc/dcmitype/StillImage" />
        <dc:title></dc:title>
      </cc:Work>
    </rdf:RDF>
  </metadata>
  <defs
     id="defs20" />
  <sodipodi:namedview
     pagecolor="#ffffff"
     bordercolor="#666666"
     borderopacity="1"
     objecttolerance="10"
     gridtolerance="10"
     guidetolerance="10"
     inkscape:pageopacity="0"
     inkscape:pageshadow="2"
     inkscape:window-width="1369"
     inkscape:window-height="818"
     id="namedview18"
     showgrid="false"
     inkscape:zoom="0.91396413"
     inkscape:cx="177.13963"
     inkscape:cy="227.86647"
     inkscape:window-x="2444"
     inkscape:window-y="231"
     inkscape:window-maximized="0"
     inkscape:current-layer="svg16" />
  <g
     class=""
     transform="matrix(1.0412757,0,0,1.0412757,-9.0713045,-9.2080722)"
     id="g14">
    <g
       id="g12">
      <path
         d="m 103.432,17.844 c -1.118,0.005 -2.234,0.032 -3.348,0.08 -2.547,0.11 -5.083,0.334 -7.604,0.678 -20.167,2.747 -39.158,13.667 -52.324,33.67 -24.613,37.4 2.194,98.025 56.625,98.025 0.536,0 1.058,-0.012 1.583,-0.022 v 0.704 h 60.565 c -10.758,31.994 -30.298,66.596 -52.448,101.43 -2.162,3.4 -4.254,6.878 -6.29,10.406 l 34.878,35.733 -56.263,9.423 c -32.728,85.966 -27.42,182.074 48.277,182.074 v -0.002 l 9.31,0.066 c 23.83,-0.57 46.732,-4.298 61.325,-12.887 4.174,-2.458 7.63,-5.237 10.467,-8.42 h -32.446 c -20.33,5.95 -40.8,-6.94 -47.396,-25.922 -8.956,-25.77 7.52,-52.36 31.867,-60.452 5.803,-1.93 11.723,-2.834 17.565,-2.834 v -0.406 h 178.33 c -0.57,-44.403 16.35,-90.125 49.184,-126 23.955,-26.176 42.03,-60.624 51.3,-94.846 l -41.225,-24.932 38.272,-6.906 -43.37,-25.807 h -0.005 l 0.002,-0.002 0.002,0.002 52.127,-8.85 C 457.16,52.713 433.552,23.734 385.022,23.734 341.14,32.26 222.11,35.29 149.34,28.496 134.452,21.733 118.793,17.773 103.432,17.844 Z"
         class=""
         id="path2"
         inkscape:connector-curvature="0"
         style="fill:#fff79c;fill-opacity:1;stroke:#4a4a4a;stroke-width:10;stroke-opacity:1" />
      <path
         d="m 103.896,36.547 c 13.137,0.043 27.407,3.804 41.247,10.63 l 0.033,-0.07 c 4.667,4.735 8.542,9.737 11.68,14.985 H 82.92 l 10.574,14.78 c 10.608,14.83 19.803,31.99 21.09,42.024 0.643,5.017 -0.11,7.167 -1.814,8.836 -1.705,1.67 -6.228,3.875 -15.99,3.875 -40.587,0 -56.878,-44.952 -41.012,-69.06 C 66.238,46.64 79.582,39.22 95.002,37.12 c 2.89,-0.395 5.863,-0.583 8.894,-0.573 z"
         class=""
         id="path4"
         inkscape:connector-curvature="0"
         style="fill:#f8e71c;fill-opacity:1;stroke:#4a4a4a;stroke-width:10;stroke-opacity:1" />
      <path
         d="m 118.5,80.78 h 46.28 c 4.275,15.734 3.656,33.07 -0.544,51.51 H 131.52 c 1.9,-5.027 2.268,-10.574 1.6,-15.77 -1.527,-11.913 -7.405,-24.065 -14.62,-35.74 z"
         class=""
         id="path6"
         inkscape:connector-curvature="0"
         style="fill:#fff79c;fill-opacity:1;stroke:#4a4a4a;stroke-width:10;stroke-opacity:1" />
      <path
         d="m 220.053,397.875 c 6.44,6.84 11.192,15.31 13.37,24.914 3.797,16.736 3.092,31.208 -1.767,43.204 -4.526,11.175 -12.576,19.79 -22.29,26 h 237.19 c 14.448,0 24.887,-5.678 32.2,-14.318 7.312,-8.64 11.2,-20.514 10.705,-32.352 -0.186,-4.473 -0.978,-8.913 -2.407,-13.18 l -69.91,-8.205 42.017,-20.528 c -8.32,-3.442 -18.64,-5.537 -31.375,-5.537 H 220.053 Z"
         class=""
         id="path8"
         inkscape:connector-curvature="0"
         style="fill:#fff79c;fill-opacity:1;stroke:#4a4a4a;stroke-width:10;stroke-opacity:1" />
      <path
         d="m 177.385,398.381 c -1.152,-0.003 -2.306,0.048 -3.457,0.153 -2.633,0.242 -5.256,0.775 -7.824,1.63 -15.11,5.02 -25.338,21.54 -20.11,36.583 3.673,10.57 15.347,17.71 25.654,13.938 l 1.555,-0.57 h 43.354 c 0.946,-6.36 0.754,-13.882 -1.358,-23.192 -3.71,-16.358 -20.543,-28.483 -37.815,-28.54 z"
         class="selected"
         id="path10"
         inkscape:connector-curvature="0"
         style="fill:#f8e71c;fill-opacity:1;stroke:#4a4a4a;stroke-width:10;stroke-opacity:1" />
    </g>
  </g>
  <path
     id="path818"
     class=""
     d="m 330.9465,85.747217 c -0.41591,-0.0059 -0.83182,-0.005 -1.24774,0.0017 -1.56057,0.02785 -3.21391,0.149752 -4.97335,0.376503 -2.82711,2.108052 -2.75132,8.030853 -5.42747,11.49153 -5.99495,-1.319282 -10.42022,3.52252 -10.17285,8.35279 l 8.24547,5.41413 c -8.20061,13.54743 -20.50456,23.92764 -23.65845,38.19594 -10.04372,-1.74912 -23.05702,-2.97261 -32.88005,-1.97406 -0.19219,0.43229 -0.38317,0.86456 -0.58627,1.29564 -4.82664,10.22499 -11.95352,18.26312 -20.03106,23.07762 -8.07753,4.81452 -17.54952,6.41814 -25.77559,2.48457 -7.34636,-3.51343 -11.91108,-10.59544 -13.79724,-18.72512 -17.04752,-2.19354 -36.4456,20.85863 -54.38861,36.80696 -11.5764,16.45093 2.47183,48.81806 -1.28896,59.63419 -2.26811,6.5212 2.9617,20.06803 12.45552,21.98571 9.29798,1.87827 15.83737,-5.69726 20.44817,-13.21641 1.21621,-1.98254 -15.63123,-11.73767 -16.56734,-17.03539 -1.11799,-6.32355 -0.43471,-25.29543 1.53087,-36.5414 11.50911,-1.15983 21.28666,-10.47176 27.14217,-15.22261 4.89333,22.30705 8.93542,48.54524 18.04183,70.97476 -5.24134,31.00541 -11.50972,59.73119 -10.19711,91.45809 l -27.21856,4.69871 c -2.80103,4.70052 -4.1488,10.25227 -0.0121,15.37841 0,0 45.10639,0.24979 46.80944,0.24979 1.01431,-0.19401 1.51753,-12.43794 0.88214,-18.55899 1.42719,-19.15133 13.42679,-42.4157 23.07218,-62.08297 16.70072,-22.70659 38.66764,-27.94489 56.53849,-52.57037 17.73384,13.61776 28.46691,27.46047 36.10124,46.68879 17.13665,-21.36123 20.34511,-22.04755 38.58277,-33.8501 -1.1283,-5.16312 -1.49752,-10.61241 -8.81357,-13.45528 -12.45308,4.52531 -7.06322,1.01856 -23.9234,11.41998 -8.92451,-13.27885 -17.63076,-30.76775 -35.07358,-37.65878 -2.34026,-0.55597 -27.34406,6.78736 -46.46326,23.13462 2.85378,-14.11553 5.88824,-34.0805 6.92014,-53.3064 12.69561,-2.98898 27.83576,-12.23361 39.88749,-17.40704 22.0039,-17.77204 18.32799,-32.83458 25.9975,-50.60661 l 4.51682,-1.20651 c 5.39594,-8.68261 8.82933,-17.260334 10.24258,-25.942937 -4.11,-2.115935 -8.77901,-3.673486 -14.91824,-3.759573 z"
     inkscape:connector-curvature="0"
     style="fill:#634124;fill-opacity:1;stroke-width:0.60628498" />
  <path
     id="path820"
     class="selected"
     d="m 241.10537,105.7037 c -3.13813,-0.0267 -6.62427,1.01128 -10.29776,3.20057 -5.87672,3.50312 -11.78496,9.94186 -15.76764,18.37893 -3.9833,8.43706 -5.21103,17.11482 -4.19672,23.91309 1.01372,6.79827 3.99664,11.36178 8.25458,13.3989 4.25794,2.0359 9.65812,1.47994 15.53484,-2.02317 5.87672,-3.50312 11.78557,-9.94187 15.76826,-18.37893 3.98268,-8.43706 5.21041,-17.11482 4.1967,-23.91309 -1.01431,-6.79827 -3.99844,-11.36117 -8.25639,-13.39708 -1.59634,-0.76392 -3.35336,-1.16407 -5.23587,-1.17922 z"
     inkscape:connector-curvature="0"
     style="fill:#c49f61;fill-opacity:1;stroke:#8b572a;stroke-width:6.06285;stroke-opacity:1" />
  <path
     id="path822"
     class=""
     d="m 350.92906,279.17322 c -2.29116,0.0837 -4.77025,1.19438 -7.23298,3.53465 -2.43849,2.3639 -4.25673,5.47232 -5.48324,9.11852 -1.22652,3.6468 -1.9583,7.28936 -1.15134,10.60695 2.3639,9.71027 -1.78793,0.76514 -2.34086,-3.25089 -0.34984,-2.65068 -0.33043,-6.00162 -0.72937,-10.79672 l -10.87554,0.90457 c 0.23403,2.80831 0.29648,5.19162 0.44259,7.54885 l -9.93943,0.68208 c 3.08478,12.83505 2.39543,29.98806 20.03226,28.56814 -4.81754,13.57655 -12.82536,27.84243 -22.21671,43.2645 l 9.32042,5.67604 c 5.01519,-8.23517 9.78301,-16.28906 13.94334,-24.25868 3.02536,8.92512 7.9775,16.62434 11.94806,24.00525 l 9.61022,-5.16979 c -5.42018,-10.07646 -11.055,-18.81666 -12.8302,-28.64697 3.09872,-9.73208 6.06588,-19.84795 7.00259,-30.23846 4.55623,-2.34026 7.57795,-7.50823 8.99121,-11.60975 1.22591,-3.6462 1.65879,-7.22995 1.15072,-10.60635 -1.57755,-5.91128 -5.2674,-9.49261 -9.64174,-9.33194 z"
     inkscape:connector-curvature="0"
     style="fill:#b57204;fill-opacity:1;stroke-width:0.60628498" />
</svg>
