<?xml version="1.0" encoding="UTF-8" standalone="no"?>
<svg
   xmlns:dc="http://purl.org/dc/elements/1.1/"
   xmlns:cc="http://creativecommons.org/ns#"
   xmlns:rdf="http://www.w3.org/1999/02/22-rdf-syntax-ns#"
   xmlns:svg="http://www.w3.org/2000/svg"
   xmlns="http://www.w3.org/2000/svg"
   xmlns:sodipodi="http://sodipodi.sourceforge.net/DTD/sodipodi-0.dtd"
   xmlns:inkscape="http://www.inkscape.org/namespaces/inkscape"
   viewBox="0 0 512 512"
   style="height: 64px; width: 64px;"
   version="1.1"
   id="svg42"
   sodipodi:docname="spell-forme-etheree.svg"
   inkscape:version="0.92.3 (2405546, 2018-03-11)"
   inkscape:export-filename="/home/plic/Téléchargements/spell-forme-etheree.png"
   inkscape:export-xdpi="24"
   inkscape:export-ydpi="24">
  <metadata
     id="metadata48">
    <rdf:RDF>
      <cc:Work
         rdf:about="">
        <dc:format>image/svg+xml</dc:format>
        <dc:type
           rdf:resource="http://purl.org/dc/dcmitype/StillImage" />
        <dc:title></dc:title>
      </cc:Work>
    </rdf:RDF>
  </metadata>
  <defs
     id="defs46" />
  <sodipodi:namedview
     pagecolor="#ffffff"
     bordercolor="#666666"
     borderopacity="1"
     objecttolerance="10"
     gridtolerance="10"
     guidetolerance="10"
     inkscape:pageopacity="0"
     inkscape:pageshadow="2"
     inkscape:window-width="1373"
     inkscape:window-height="895"
     id="namedview44"
     showgrid="false"
     inkscape:zoom="1.3945312"
     inkscape:cx="256"
     inkscape:cy="256"
     inkscape:window-x="2455"
     inkscape:window-y="151"
     inkscape:window-maximized="0"
     inkscape:current-layer="svg42" />
  <g
     class=""
     transform="matrix(1.047396,0,0,1.047396,-11.639853,-11.365012)"
     id="g14">
    <g
       id="g12">
      <path
         d="m 103.432,17.844 c -1.118,0.005 -2.234,0.032 -3.348,0.08 -2.547,0.11 -5.083,0.334 -7.604,0.678 -20.167,2.747 -39.158,13.667 -52.324,33.67 -24.613,37.4 2.194,98.025 56.625,98.025 0.536,0 1.058,-0.012 1.583,-0.022 v 0.704 h 60.565 c -10.758,31.994 -30.298,66.596 -52.448,101.43 -2.162,3.4 -4.254,6.878 -6.29,10.406 l 34.878,35.733 -56.263,9.423 c -32.728,85.966 -27.42,182.074 48.277,182.074 v -0.002 l 9.31,0.066 c 23.83,-0.57 46.732,-4.298 61.325,-12.887 4.174,-2.458 7.63,-5.237 10.467,-8.42 h -32.446 c -20.33,5.95 -40.8,-6.94 -47.396,-25.922 -8.956,-25.77 7.52,-52.36 31.867,-60.452 5.803,-1.93 11.723,-2.834 17.565,-2.834 v -0.406 h 178.33 c -0.57,-44.403 16.35,-90.125 49.184,-126 23.955,-26.176 42.03,-60.624 51.3,-94.846 l -41.225,-24.932 38.272,-6.906 -43.37,-25.807 h -0.005 l 0.002,-0.002 0.002,0.002 52.127,-8.85 C 457.16,52.713 433.552,23.734 385.022,23.734 341.14,32.26 222.11,35.29 149.34,28.496 134.452,21.733 118.793,17.773 103.432,17.844 Z"
         class=""
         id="path2"
         inkscape:connector-curvature="0"
         style="fill:#facdd2;fill-opacity:1;stroke:#4a4a4a;stroke-width:10;stroke-opacity:1" />
      <path
         d="m 103.896,36.547 c 13.137,0.043 27.407,3.804 41.247,10.63 l 0.033,-0.07 c 4.667,4.735 8.542,9.737 11.68,14.985 H 82.92 l 10.574,14.78 c 10.608,14.83 19.803,31.99 21.09,42.024 0.643,5.017 -0.11,7.167 -1.814,8.836 -1.705,1.67 -6.228,3.875 -15.99,3.875 -40.587,0 -56.878,-44.952 -41.012,-69.06 C 66.238,46.64 79.582,39.22 95.002,37.12 c 2.89,-0.395 5.863,-0.583 8.894,-0.573 z"
         class=""
         id="path4"
         inkscape:connector-curvature="0"
         style="fill:#d0021b;fill-opacity:1;stroke:#4a4a4a;stroke-width:10;stroke-opacity:1" />
      <path
         d="m 118.5,80.78 h 46.28 c 4.275,15.734 3.656,33.07 -0.544,51.51 H 131.52 c 1.9,-5.027 2.268,-10.574 1.6,-15.77 -1.527,-11.913 -7.405,-24.065 -14.62,-35.74 z"
         class=""
         id="path6"
         inkscape:connector-curvature="0"
         style="fill:#facdd2;fill-opacity:1;stroke:#4a4a4a;stroke-width:10;stroke-opacity:1" />
      <path
         d="m 220.053,397.875 c 6.44,6.84 11.192,15.31 13.37,24.914 3.797,16.736 3.092,31.208 -1.767,43.204 -4.526,11.175 -12.576,19.79 -22.29,26 h 237.19 c 14.448,0 24.887,-5.678 32.2,-14.318 7.312,-8.64 11.2,-20.514 10.705,-32.352 -0.186,-4.473 -0.978,-8.913 -2.407,-13.18 l -69.91,-8.205 42.017,-20.528 c -8.32,-3.442 -18.64,-5.537 -31.375,-5.537 H 220.053 Z"
         class=""
         id="path8"
         inkscape:connector-curvature="0"
         style="fill:#facdd2;fill-opacity:1;stroke:#4a4a4a;stroke-width:10;stroke-opacity:1" />
      <path
         d="m 177.385,398.381 c -1.152,-0.003 -2.306,0.048 -3.457,0.153 -2.633,0.242 -5.256,0.775 -7.824,1.63 -15.11,5.02 -25.338,21.54 -20.11,36.583 3.673,10.57 15.347,17.71 25.654,13.938 l 1.555,-0.57 h 43.354 c 0.946,-6.36 0.754,-13.882 -1.358,-23.192 -3.71,-16.358 -20.543,-28.483 -37.815,-28.54 z"
         class="selected"
         id="path10"
         inkscape:connector-curvature="0"
         style="fill:#d0021b;fill-opacity:1;stroke:#4a4a4a;stroke-width:10;stroke-opacity:1" />
    </g>
  </g>
  <g
     id="g891"
     transform="matrix(0.56172272,0,0,0.56172272,140.24147,18.706703)"
     class="">
    <g
       id="g889">
      <path
         id="path877"
         class="selected"
         d="m 282.83,18.877 c 21.567,6.146 36.328,15.205 40.572,28.77 -1.367,0.74 -2.725,1.518 -4.066,2.363 -25.655,5.807 -53.084,18.634 -81.047,34.363 20.225,-4.69 36.705,-4.42 47.544,3.324 -5.712,10.3 -10.797,22.294 -15.123,36.06 C 249.367,191.679 145.032,43.18 81.645,118.502 41.47,166.24 92.702,212.342 26.5,294.29 c 35.583,-4.14 45.11,-9.47 62.416,-36.21 10.44,-16.13 28.52,-22.1 44.668,-21.45 -12.718,11.206 -25.786,30.354 -38.21,59.895 19.832,-18.528 44.927,-38.68 71.603,-40.005 0.912,6.354 -2.408,13.74 -12.008,21.418 C 93.21,327.327 15.58,364.185 19.83,476.504 c 5.558,-11.267 11.646,-20.31 17.574,-28.617 5.98,29.582 28.2,53.8 92.99,40.482 -46.928,-6.407 -76.268,-59.586 -45.355,-82.528 62.716,-46.544 128.82,1.436 269.9,-75.342 2.475,-1.346 4.86,-2.49 7.164,-3.46 -2.246,19.6 -12.367,39.84 -22.362,57.14 14.26,-10.38 25.415,-20.147 33.928,-29.262 2.14,26.14 -11.748,54.65 -25.393,78.268 43.26,-31.49 61.19,-57.976 63.207,-78.422 9.334,36.678 -1.895,95.547 -25.03,123.492 77.553,-39.433 106.608,-77.127 109.76,-190.664 1.662,-59.824 -66.23,-60.536 -56.435,-101.344 11.945,-49.756 6.768,-84.69 -7.565,-107.947 -19.6,-49.73 -79.99,-59.74 -149.385,-59.423 z"
         inkscape:connector-curvature="0"
         style="fill:#c9c9c9;fill-opacity:1" />
      <path
         id="path879"
         class=""
         d="M 89.8,47.684 C 54.69,47.534 45.233,83.056 55.724,117 72.87,65.496 126.138,72.76 166.894,82.633 133.612,57.628 108.187,47.763 89.798,47.683 Z"
         inkscape:connector-curvature="0"
         style="fill:#9b9b9b;fill-opacity:1" />
      <path
         id="path881"
         class=""
         d="m 344.395,78.426 c 18.643,21.37 29.373,43.02 10.105,65.732 -26.562,-16.677 -26.985,-39.252 -10.105,-65.732 z"
         inkscape:connector-curvature="0"
         style="fill:#9b9b9b;fill-opacity:1" />
      <path
         id="path883"
         class=""
         d="m 418.889,127.026 c 3.655,-0.013 7.78,0.35 12.473,1.09 -1.706,30.506 -14.4,33 -46.634,32.154 8.335,-22.146 14.416,-33.176 34.16,-33.245 z"
         inkscape:connector-curvature="0"
         style="fill:#9b9b9b;fill-opacity:1" />
      <path
         id="path885"
         class=""
         d="m 334.212,167.342 c 9.652,0.1 20.258,2.84 30.598,8.918 44.65,26.246 21.934,73.314 -4.1,74.78 -15.174,0.855 1.443,-23.842 -16.17,-38.476 -15.258,-12.678 -38.596,12.53 -45.204,-5.78 -8.218,-22.693 10.21,-39.696 34.877,-39.442 z"
         inkscape:connector-curvature="0"
         style="fill:#9b9b9b;fill-opacity:1" />
      <path
         id="path887"
         class=""
         d="m 394.392,413.51 c -24.195,27.825 -58.89,60.1 -99.444,31.41 16.625,45.643 68.87,70.465 99.443,-31.41 z"
         inkscape:connector-curvature="0"
         style="fill:#9b9b9b;fill-opacity:1" />
    </g>
  </g>
</svg>
