<?xml version="1.0" encoding="UTF-8" standalone="no"?>
<svg
   xmlns:dc="http://purl.org/dc/elements/1.1/"
   xmlns:cc="http://creativecommons.org/ns#"
   xmlns:rdf="http://www.w3.org/1999/02/22-rdf-syntax-ns#"
   xmlns:svg="http://www.w3.org/2000/svg"
   xmlns="http://www.w3.org/2000/svg"
   xmlns:sodipodi="http://sodipodi.sourceforge.net/DTD/sodipodi-0.dtd"
   xmlns:inkscape="http://www.inkscape.org/namespaces/inkscape"
   viewBox="0 0 512 512"
   style="height: 64px; width: 64px;"
   version="1.1"
   id="svg42"
   sodipodi:docname="spell-animation-dun-arbre.svg"
   inkscape:version="0.92.3 (2405546, 2018-03-11)"
   inkscape:export-filename="/home/plic/Téléchargements/spell-animation-dun-arbre.png"
   inkscape:export-xdpi="24"
   inkscape:export-ydpi="24">
  <metadata
     id="metadata48">
    <rdf:RDF>
      <cc:Work
         rdf:about="">
        <dc:format>image/svg+xml</dc:format>
        <dc:type
           rdf:resource="http://purl.org/dc/dcmitype/StillImage" />
        <dc:title></dc:title>
      </cc:Work>
    </rdf:RDF>
  </metadata>
  <defs
     id="defs46">
    <clipPath
       clipPathUnits="userSpaceOnUse"
       id="clipPath1029">
      <rect
         style="opacity:0.522;fill:none;fill-opacity:1;stroke:#000000;stroke-width:4.22469854;stroke-miterlimit:4;stroke-dasharray:none;stroke-opacity:1"
         id="rect1031"
         width="794.11511"
         height="533.14423"
         x="-109.31892"
         y="-75.958313" />
    </clipPath>
  </defs>
  <sodipodi:namedview
     pagecolor="#ffffff"
     bordercolor="#666666"
     borderopacity="1"
     objecttolerance="10"
     gridtolerance="10"
     guidetolerance="10"
     inkscape:pageopacity="0"
     inkscape:pageshadow="2"
     inkscape:window-width="1215"
     inkscape:window-height="717"
     id="namedview44"
     showgrid="false"
     inkscape:zoom="0.5234375"
     inkscape:cx="159.56016"
     inkscape:cy="288.73668"
     inkscape:window-x="2361"
     inkscape:window-y="146"
     inkscape:window-maximized="0"
     inkscape:current-layer="svg42" />
  <g
     class=""
     transform="matrix(1.0453788,0,0,1.0453788,-13.195561,-10.135042)"
     id="g14">
    <g
       id="g12">
      <path
         d="m 103.432,17.844 c -1.118,0.005 -2.234,0.032 -3.348,0.08 -2.547,0.11 -5.083,0.334 -7.604,0.678 -20.167,2.747 -39.158,13.667 -52.324,33.67 -24.613,37.4 2.194,98.025 56.625,98.025 0.536,0 1.058,-0.012 1.583,-0.022 v 0.704 h 60.565 c -10.758,31.994 -30.298,66.596 -52.448,101.43 -2.162,3.4 -4.254,6.878 -6.29,10.406 l 34.878,35.733 -56.263,9.423 c -32.728,85.966 -27.42,182.074 48.277,182.074 v -0.002 l 9.31,0.066 c 23.83,-0.57 46.732,-4.298 61.325,-12.887 4.174,-2.458 7.63,-5.237 10.467,-8.42 h -32.446 c -20.33,5.95 -40.8,-6.94 -47.396,-25.922 -8.956,-25.77 7.52,-52.36 31.867,-60.452 5.803,-1.93 11.723,-2.834 17.565,-2.834 v -0.406 h 178.33 c -0.57,-44.403 16.35,-90.125 49.184,-126 23.955,-26.176 42.03,-60.624 51.3,-94.846 l -41.225,-24.932 38.272,-6.906 -43.37,-25.807 h -0.005 l 0.002,-0.002 0.002,0.002 52.127,-8.85 C 457.16,52.713 433.552,23.734 385.022,23.734 341.14,32.26 222.11,35.29 149.34,28.496 134.452,21.733 118.793,17.773 103.432,17.844 Z"
         class=""
         id="path2"
         inkscape:connector-curvature="0"
         style="fill:#ffe0af;fill-opacity:1;stroke:#4a4a4a;stroke-width:10;stroke-opacity:1" />
      <path
         d="m 103.896,36.547 c 13.137,0.043 27.407,3.804 41.247,10.63 l 0.033,-0.07 c 4.667,4.735 8.542,9.737 11.68,14.985 H 82.92 l 10.574,14.78 c 10.608,14.83 19.803,31.99 21.09,42.024 0.643,5.017 -0.11,7.167 -1.814,8.836 -1.705,1.67 -6.228,3.875 -15.99,3.875 -40.587,0 -56.878,-44.952 -41.012,-69.06 C 66.238,46.64 79.582,39.22 95.002,37.12 c 2.89,-0.395 5.863,-0.583 8.894,-0.573 z"
         class=""
         id="path4"
         inkscape:connector-curvature="0"
         style="fill:#b57204;fill-opacity:1;stroke:#4a4a4a;stroke-width:10;stroke-opacity:1" />
      <path
         d="m 118.5,80.78 h 46.28 c 4.275,15.734 3.656,33.07 -0.544,51.51 H 131.52 c 1.9,-5.027 2.268,-10.574 1.6,-15.77 -1.527,-11.913 -7.405,-24.065 -14.62,-35.74 z"
         class=""
         id="path6"
         inkscape:connector-curvature="0"
         style="fill:#ffe0af;fill-opacity:1;stroke:#4a4a4a;stroke-width:10;stroke-opacity:1" />
      <path
         d="m 220.053,397.875 c 6.44,6.84 11.192,15.31 13.37,24.914 3.797,16.736 3.092,31.208 -1.767,43.204 -4.526,11.175 -12.576,19.79 -22.29,26 h 237.19 c 14.448,0 24.887,-5.678 32.2,-14.318 7.312,-8.64 11.2,-20.514 10.705,-32.352 -0.186,-4.473 -0.978,-8.913 -2.407,-13.18 l -69.91,-8.205 42.017,-20.528 c -8.32,-3.442 -18.64,-5.537 -31.375,-5.537 H 220.053 Z"
         class=""
         id="path8"
         inkscape:connector-curvature="0"
         style="fill:#ffe0af;fill-opacity:1;stroke:#4a4a4a;stroke-width:10;stroke-opacity:1" />
      <path
         d="m 177.385,398.381 c -1.152,-0.003 -2.306,0.048 -3.457,0.153 -2.633,0.242 -5.256,0.775 -7.824,1.63 -15.11,5.02 -25.338,21.54 -20.11,36.583 3.673,10.57 15.347,17.71 25.654,13.938 l 1.555,-0.57 h 43.354 c 0.946,-6.36 0.754,-13.882 -1.358,-23.192 -3.71,-16.358 -20.543,-28.483 -37.815,-28.54 z"
         class="selected"
         id="path10"
         inkscape:connector-curvature="0"
         style="fill:#b57204;fill-opacity:1;stroke:#4a4a4a;stroke-width:10;stroke-opacity:1" />
    </g>
  </g>
  <g
     id="g1043"
     transform="matrix(0.51458506,0,0,0.51458506,769.18713,41.050895)">
    <g
       style="fill:#684222;fill-opacity:1"
       transform="translate(-1194.5206,162.90702)"
       class=""
       id="g981">
      <g
         style="fill:#684222;fill-opacity:1"
         id="g979">
        <path
           style="fill:#684222;fill-opacity:1;stroke:#4a4a4a;stroke-width:10;stroke-opacity:1"
           inkscape:connector-curvature="0"
           d="m 233.7,121.6 c -38,6.3 -75.2,41.9 -94,66 -11.5,33.4 -14.5,66.7 -20.7,100 l 28.2,-0.8 c 6.6,-25.2 8.2,-51.9 21,-75.4 14.8,-8.2 26.9,-20.6 38.4,-33.8 -6.4,32.9 -14,72.3 -13.2,101.8 29.8,70.9 95.7,140.4 133,206.4 l 29.9,-24.3 C 327.5,405.8 298.8,355.1 262,301.3 c 2.1,-7.1 43.3,-163.5 28,-171.9 -20.2,9 -40.9,6 -56.3,-7.8 z"
           class="selected"
           id="path973" />
        <path
           style="fill:#684222;fill-opacity:1;stroke:#4a4a4a;stroke-width:10;stroke-miterlimit:4;stroke-dasharray:none;stroke-opacity:1"
           inkscape:connector-curvature="0"
           d="m 305.6,180.2 c -3.1,17.8 -5.3,35.1 -10,52.8 4.5,5.4 7.5,10.5 14.3,15.3 26,15.3 52,26.3 78,36.7 l 9.2,-29.9 -77.5,-37.6 c -4.3,-12.5 -7.9,-25.2 -14,-37.3 z"
           class=""
           id="path975" />
        <path
           style="fill:#684222;fill-opacity:1;stroke:#4a4a4a;stroke-width:10;stroke-miterlimit:4;stroke-dasharray:none;stroke-opacity:1"
           inkscape:connector-curvature="0"
           d="m 187.1,310.1 c -5.1,25 -9.8,50.2 -11.6,76.5 -15.9,31.7 -35.7,51.6 -60.5,76.4 l 30,23.2 c 23.1,-25 49.9,-47 66.7,-73.8 l 14,-42.6 C 210,350.8 197.3,331 187.1,310.1 Z"
           class=""
           id="path977" />
      </g>
    </g>
    <g
       clip-path="url(#clipPath1029)"
       transform="translate(-1186.9516,8.41202)"
       class=""
       id="g1003">
      <path
         id="path997"
         class=""
         d="m 222.156,20.72 c -1.423,0.01 -2.843,0.065 -4.25,0.155 -20.084,1.29 -37.527,10.342 -46.375,27.03 l 17.626,12.532 H 159.845 C 149.512,55.181 160.257,60.171 148.47,55.157 125.312,42.039 99.683,45.517 81.22,57.969 61.158,71.496 50.486,93.775 60.97,118.062 l 3.093,7.156 -6.47,4.31 C 36.158,143.888 24.596,159.921 20.469,177.654 16.34,195.39 19.65,215.64 31,238.5 l 2.47,5.03 -3.25,4.564 c -13.796,19.38 -8.88,38.668 5.968,51.03 10.043,8.364 19.48,9.982 29.656,7.407 10.177,-2.574 21.15,-10.15 30.72,-21.874 l 2.655,-3.25 4.155,-0.187 c 27.728,-1.2 49.69,-11.635 63.97,-27.72 14.28,-16.085 21.22,-37.98 17.718,-63.906 L 184.03,182 l 7.25,-2.5 c 8.066,-2.768 14.73,-8.15 18.814,-15.53 l 5.28,-9.564 8.626,6.72 c 6.39,4.976 22.988,8.397 31.375,5.968 l 10.28,-2.97 1.564,10.595 c 4.3,29.362 24.393,52.534 50.06,60.155 l 8.25,2.438 -1.75,8.437 c -3.162,14.99 1.497,26.075 10.44,33.406 8.94,7.332 22.793,10.683 38.75,6.438 l 6.217,-1.656 3.782,5.25 c 13.513,18.845 29.945,28.087 46.342,29.562 16.398,1.475 33.29,-4.745 48.032,-19.594 12.624,-12.716 16.654,-26.51 15.062,-40.437 -1.59,-13.93 -9.318,-28.12 -21.75,-39.533 l -8.5,-7.812 9.406,-6.688 c 7.878,-5.6 10.74,-15.92 8.907,-25.5 -1.833,-9.58 -7.527,-16.677 -16.345,-17.78 l -9.375,-1.157 1.28,-9.375 C 461.869,108.306 442.407,73.225 410.685,53.217 378.962,33.207 335.012,28.731 291.903,50.122 l -6.72,3.344 -4.717,-5.876 C 267.002,30.794 246.443,21.822 226.433,20.808 c -1.43,-0.072 -2.857,-0.104 -4.28,-0.093 z"
         inkscape:connector-curvature="0"
         style="fill:#417505;fill-opacity:1;stroke:#4a4a4a;stroke-width:10;stroke-opacity:1" />
      <path
         id="path999"
         class="selected"
         d="m 220.936,181.03 c -4.003,4.804 -8.867,8.724 -14.25,11.782 11.968,29.99 18.83,60.783 23.033,93.532 -4.555,11.237 -9.676,22.38 -15.5,33.437 l -0.157,0.064 c -8.54,-19.537 -18.073,-38.957 -31.188,-55.75 -0.51,0.607 -1.035,1.218 -1.563,1.812 -3.628,4.088 -7.652,7.838 -12,11.25 12.034,15.867 21.048,34.83 29.72,54.938 7.724,43.39 6.386,91.267 -2.782,134.812 -26.727,5.073 -55.198,15.22 -88.594,30.5 h 252.938 c -32.428,-15.282 -60.268,-25.46 -86.688,-30.53 -13.95,-24.116 -21.036,-50.13 -23.25,-76 9.692,-45.174 28.504,-71.692 57,-99.282 -19.276,7.68 -37.422,17.31 -52.687,31.937 0.702,-3.41 1.488,-6.766 2.31,-10.092 9.476,-24.123 23.87,-45.82 42.94,-65.407 -5.784,-2.705 -11.25,-5.994 -16.283,-9.874 -12.71,13.552 -23.555,28.128 -32.312,43.78 7.156,-19.187 12.88,-38.422 18.063,-57.592 -5.443,-6.556 -10.03,-13.933 -13.563,-21.938 -4.167,16.03 -8.512,31.946 -13.5,47.72 -4.637,-23.334 -11.12,-46.08 -20.375,-68.47 -0.438,-0.204 -0.88,-0.41 -1.313,-0.625 z"
         inkscape:connector-curvature="0"
         style="fill:#684222;fill-opacity:1;stroke:#4a4a4a;stroke-width:10;stroke-opacity:1" />
    </g>
  </g>
</svg>
