<?xml version="1.0" encoding="UTF-8" standalone="no"?>
<svg
   xmlns:dc="http://purl.org/dc/elements/1.1/"
   xmlns:cc="http://creativecommons.org/ns#"
   xmlns:rdf="http://www.w3.org/1999/02/22-rdf-syntax-ns#"
   xmlns:svg="http://www.w3.org/2000/svg"
   xmlns="http://www.w3.org/2000/svg"
   xmlns:sodipodi="http://sodipodi.sourceforge.net/DTD/sodipodi-0.dtd"
   xmlns:inkscape="http://www.inkscape.org/namespaces/inkscape"
   viewBox="0 0 512 512"
   style="height: 64px; width: 64px;"
   version="1.1"
   id="svg42"
   sodipodi:docname="spell-mirage.svg"
   inkscape:version="0.92.3 (2405546, 2018-03-11)"
   inkscape:export-filename="/home/plic/Téléchargements/spell-mirage.png"
   inkscape:export-xdpi="90"
   inkscape:export-ydpi="90">
  <metadata
     id="metadata48">
    <rdf:RDF>
      <cc:Work
         rdf:about="">
        <dc:format>image/svg+xml</dc:format>
        <dc:type
           rdf:resource="http://purl.org/dc/dcmitype/StillImage" />
        <dc:title></dc:title>
      </cc:Work>
    </rdf:RDF>
  </metadata>
  <defs
     id="defs46">
    <radialGradient
       id="gradient-2"
       gradientTransform="scale(1.1771118,0.84953699)"
       cx="217.48147"
       cy="259.69878"
       fx="217.48147"
       fy="259.69878"
       r="206.43749"
       gradientUnits="userSpaceOnUse">
      <stop
         id="stop818"
         stop-opacity="1"
         stop-color="#d4af37"
         offset="0%" />
      <stop
         id="stop820"
         stop-opacity="1"
         stop-color="#dcbb4e"
         offset="100%" />
    </radialGradient>
  </defs>
  <sodipodi:namedview
     pagecolor="#ffffff"
     bordercolor="#666666"
     borderopacity="1"
     objecttolerance="10"
     gridtolerance="10"
     guidetolerance="10"
     inkscape:pageopacity="0"
     inkscape:pageshadow="2"
     inkscape:window-width="1373"
     inkscape:window-height="895"
     id="namedview44"
     showgrid="false"
     inkscape:zoom="0.6972656"
     inkscape:cx="100.07967"
     inkscape:cy="294.82911"
     inkscape:window-x="2455"
     inkscape:window-y="151"
     inkscape:window-maximized="0"
     inkscape:current-layer="svg42" />
  <g
     class=""
     transform="matrix(1.047396,0,0,1.047396,-11.639853,-11.365012)"
     id="g14">
    <g
       id="g12">
      <path
         d="m 103.432,17.844 c -1.118,0.005 -2.234,0.032 -3.348,0.08 -2.547,0.11 -5.083,0.334 -7.604,0.678 -20.167,2.747 -39.158,13.667 -52.324,33.67 -24.613,37.4 2.194,98.025 56.625,98.025 0.536,0 1.058,-0.012 1.583,-0.022 v 0.704 h 60.565 c -10.758,31.994 -30.298,66.596 -52.448,101.43 -2.162,3.4 -4.254,6.878 -6.29,10.406 l 34.878,35.733 -56.263,9.423 c -32.728,85.966 -27.42,182.074 48.277,182.074 v -0.002 l 9.31,0.066 c 23.83,-0.57 46.732,-4.298 61.325,-12.887 4.174,-2.458 7.63,-5.237 10.467,-8.42 h -32.446 c -20.33,5.95 -40.8,-6.94 -47.396,-25.922 -8.956,-25.77 7.52,-52.36 31.867,-60.452 5.803,-1.93 11.723,-2.834 17.565,-2.834 v -0.406 h 178.33 c -0.57,-44.403 16.35,-90.125 49.184,-126 23.955,-26.176 42.03,-60.624 51.3,-94.846 l -41.225,-24.932 38.272,-6.906 -43.37,-25.807 h -0.005 l 0.002,-0.002 0.002,0.002 52.127,-8.85 C 457.16,52.713 433.552,23.734 385.022,23.734 341.14,32.26 222.11,35.29 149.34,28.496 134.452,21.733 118.793,17.773 103.432,17.844 Z"
         class=""
         id="path2"
         inkscape:connector-curvature="0"
         style="fill:#facdd2;fill-opacity:1;stroke:#4a4a4a;stroke-width:10;stroke-opacity:1" />
      <path
         d="m 103.896,36.547 c 13.137,0.043 27.407,3.804 41.247,10.63 l 0.033,-0.07 c 4.667,4.735 8.542,9.737 11.68,14.985 H 82.92 l 10.574,14.78 c 10.608,14.83 19.803,31.99 21.09,42.024 0.643,5.017 -0.11,7.167 -1.814,8.836 -1.705,1.67 -6.228,3.875 -15.99,3.875 -40.587,0 -56.878,-44.952 -41.012,-69.06 C 66.238,46.64 79.582,39.22 95.002,37.12 c 2.89,-0.395 5.863,-0.583 8.894,-0.573 z"
         class=""
         id="path4"
         inkscape:connector-curvature="0"
         style="fill:#d0021b;fill-opacity:1;stroke:#4a4a4a;stroke-width:10;stroke-opacity:1" />
      <path
         d="m 118.5,80.78 h 46.28 c 4.275,15.734 3.656,33.07 -0.544,51.51 H 131.52 c 1.9,-5.027 2.268,-10.574 1.6,-15.77 -1.527,-11.913 -7.405,-24.065 -14.62,-35.74 z"
         class=""
         id="path6"
         inkscape:connector-curvature="0"
         style="fill:#facdd2;fill-opacity:1;stroke:#4a4a4a;stroke-width:10;stroke-opacity:1" />
      <path
         d="m 220.053,397.875 c 6.44,6.84 11.192,15.31 13.37,24.914 3.797,16.736 3.092,31.208 -1.767,43.204 -4.526,11.175 -12.576,19.79 -22.29,26 h 237.19 c 14.448,0 24.887,-5.678 32.2,-14.318 7.312,-8.64 11.2,-20.514 10.705,-32.352 -0.186,-4.473 -0.978,-8.913 -2.407,-13.18 l -69.91,-8.205 42.017,-20.528 c -8.32,-3.442 -18.64,-5.537 -31.375,-5.537 H 220.053 Z"
         class=""
         id="path8"
         inkscape:connector-curvature="0"
         style="fill:#facdd2;fill-opacity:1;stroke:#4a4a4a;stroke-width:10;stroke-opacity:1" />
      <path
         d="m 177.385,398.381 c -1.152,-0.003 -2.306,0.048 -3.457,0.153 -2.633,0.242 -5.256,0.775 -7.824,1.63 -15.11,5.02 -25.338,21.54 -20.11,36.583 3.673,10.57 15.347,17.71 25.654,13.938 l 1.555,-0.57 h 43.354 c 0.946,-6.36 0.754,-13.882 -1.358,-23.192 -3.71,-16.358 -20.543,-28.483 -37.815,-28.54 z"
         class="selected"
         id="path10"
         inkscape:connector-curvature="0"
         style="fill:#d0021b;fill-opacity:1;stroke:#4a4a4a;stroke-width:10;stroke-opacity:1" />
    </g>
  </g>
  <g
     id="g897"
     class=""
     transform="matrix(0.46943679,0,0,0.46943679,142.01577,81.780211)">
    <g
       id="g895">
      <path
         id="path825"
         class=""
         d="M 313.824,61.625 245.959,179.865 176,96 171.92,225.77 56.162,105.264 112,272 30.014,208.885 49.879,322.655 18,311.724 V 391 h 7.514 l 16,-48 h 40 l 16,-48 h 40 l 16,-48 h 40 l 16,-48 h 92.972 l 16,48 h 40 l 16,48 h 40 l 16,48 h 40 l 16,48 H 494 V 241.285 L 416.217,280.832 480,144 354.203,227.758 400,128 325.074,194.87 Z"
         inkscape:connector-curvature="0"
         style="fill:url(#gradient-2);stroke:#4a4a4a;stroke-width:10;stroke-opacity:1" />
      <path
         id="path827"
         class=""
         d="m 222.486,217 -10,30 h 87.028 l -10,-30 z"
         inkscape:connector-curvature="0"
         style="fill:#d4af37;fill-opacity:1;stroke:#4a4a4a;stroke-width:10;stroke-opacity:1" />
      <path
         id="path829"
         class=""
         d="m 166.486,265 -10,30 h 87.028 l -10,-30 z"
         inkscape:connector-curvature="0"
         style="fill:#d4af37;fill-opacity:1;stroke:#4a4a4a;stroke-width:10;stroke-opacity:1" />
      <path
         id="path831"
         class=""
         d="M 252.486,265 256,275.54 259.514,265 Z"
         inkscape:connector-curvature="0"
         style="fill:#d4af37;fill-opacity:1" />
      <path
         id="path833"
         class=""
         d="m 278.486,265 -10,30 h 87.028 l -10,-30 z"
         inkscape:connector-curvature="0"
         style="fill:#d4af37;fill-opacity:1;stroke:#4a4a4a;stroke-width:10;stroke-opacity:1" />
      <path
         id="path835"
         class=""
         d="m 110.486,313 -10,30 h 87.028 l -10,-30 z"
         inkscape:connector-curvature="0"
         style="fill:#d4af37;fill-opacity:1;stroke:#4a4a4a;stroke-width:10;stroke-opacity:1" />
      <path
         id="path837"
         class=""
         d="M 196.486,313 200,323.54 203.514,313 Z"
         inkscape:connector-curvature="0"
         style="fill:#d4af37;fill-opacity:1;stroke:#4a4a4a;stroke-width:10;stroke-opacity:1" />
      <path
         id="path839"
         class=""
         d="m 222.486,313 -10,30 h 87.028 l -10,-30 z"
         inkscape:connector-curvature="0"
         style="fill:#d4af37;fill-opacity:1;stroke:#4a4a4a;stroke-width:10;stroke-opacity:1" />
      <path
         id="path841"
         class=""
         d="M 308.486,313 312,323.54 315.514,313 Z"
         inkscape:connector-curvature="0"
         style="fill:#d4af37;fill-opacity:1;stroke:#4a4a4a;stroke-width:10;stroke-opacity:1" />
      <path
         id="path843"
         class=""
         d="m 334.486,313 -10,30 h 87.028 l -10,-30 z"
         inkscape:connector-curvature="0"
         style="fill:#d4af37;fill-opacity:1;stroke:#4a4a4a;stroke-width:10;stroke-opacity:1" />
      <path
         id="path845"
         class=""
         d="m 54.486,361 -10,30 h 87.028 l -10,-30 z"
         inkscape:connector-curvature="0"
         style="fill:#d4af37;fill-opacity:1;stroke:#4a4a4a;stroke-width:10;stroke-opacity:1" />
      <path
         id="path847"
         class=""
         d="M 140.486,361 144,371.54 147.514,361 Z"
         inkscape:connector-curvature="0"
         style="fill:#d4af37;fill-opacity:1;stroke:#4a4a4a;stroke-width:10;stroke-opacity:1" />
      <path
         id="path849"
         class=""
         d="m 166.486,361 -10,30 h 87.028 l -10,-30 z"
         inkscape:connector-curvature="0"
         style="fill:#d4af37;fill-opacity:1;stroke:#4a4a4a;stroke-width:10;stroke-opacity:1" />
      <path
         id="path851"
         class=""
         d="M 252.486,361 256,371.54 259.514,361 Z"
         inkscape:connector-curvature="0"
         style="fill:#d4af37;fill-opacity:1;stroke:#4a4a4a;stroke-width:10;stroke-opacity:1" />
      <path
         id="path853"
         class=""
         d="m 278.486,361 -10,30 h 87.028 l -10,-30 z"
         inkscape:connector-curvature="0"
         style="fill:#d4af37;fill-opacity:1;stroke:#4a4a4a;stroke-width:10;stroke-opacity:1" />
      <path
         id="path855"
         class=""
         d="M 364.486,361 368,371.54 371.514,361 Z"
         inkscape:connector-curvature="0"
         style="fill:#d4af37;fill-opacity:1;stroke:#4a4a4a;stroke-width:10;stroke-opacity:1" />
      <path
         id="path857"
         class=""
         d="m 390.486,361 -10,30 h 87.028 l -10,-30 z"
         inkscape:connector-curvature="0"
         style="fill:#d4af37;fill-opacity:1;stroke:#4a4a4a;stroke-width:10;stroke-opacity:1" />
      <path
         id="path859"
         class=""
         d="m 18,409 v 30 h 57.514 l -10,-30 z"
         inkscape:connector-curvature="0"
         style="fill:#d4af37;fill-opacity:1;stroke:#4a4a4a;stroke-width:10;stroke-opacity:1" />
      <path
         id="path861"
         class=""
         d="M 84.486,409 88,419.54 91.514,409 Z"
         inkscape:connector-curvature="0"
         style="fill:#d4af37;fill-opacity:1;stroke:#4a4a4a;stroke-width:10;stroke-opacity:1" />
      <path
         id="path863"
         class=""
         d="m 110.486,409 -10,30 h 87.028 l -10,-30 z"
         inkscape:connector-curvature="0"
         style="fill:#d4af37;fill-opacity:1;stroke:#4a4a4a;stroke-width:10;stroke-opacity:1" />
      <path
         id="path865"
         class=""
         d="M 196.486,409 200,419.54 203.514,409 Z"
         inkscape:connector-curvature="0"
         style="fill:#d4af37;fill-opacity:1;stroke:#4a4a4a;stroke-width:10;stroke-opacity:1" />
      <path
         id="path867"
         class=""
         d="m 222.486,409 -10,30 h 87.028 l -10,-30 z"
         inkscape:connector-curvature="0"
         style="fill:#d4af37;fill-opacity:1;stroke:#4a4a4a;stroke-width:10;stroke-opacity:1" />
      <path
         id="path869"
         class=""
         d="M 308.486,409 312,419.54 315.514,409 Z"
         inkscape:connector-curvature="0"
         style="fill:#d4af37;fill-opacity:1;stroke:#4a4a4a;stroke-width:10;stroke-opacity:1" />
      <path
         id="path871"
         class=""
         d="m 334.486,409 -10,30 h 87.028 l -10,-30 z"
         inkscape:connector-curvature="0"
         style="fill:#d4af37;fill-opacity:1;stroke:#4a4a4a;stroke-width:10;stroke-opacity:1" />
      <path
         id="path873"
         class=""
         d="M 420.486,409 424,419.54 427.514,409 Z"
         inkscape:connector-curvature="0"
         style="fill:#d4af37;fill-opacity:1;stroke:#4a4a4a;stroke-width:10;stroke-opacity:1" />
      <path
         id="path875"
         class=""
         d="m 446.486,409 -10,30 H 494 v -30 z"
         inkscape:connector-curvature="0"
         style="fill:#d4af37;fill-opacity:1;stroke:#4a4a4a;stroke-width:10;stroke-opacity:1" />
      <path
         id="path877"
         class=""
         d="M 28.486,457 32,467.54 35.514,457 Z"
         inkscape:connector-curvature="0"
         style="fill:#d4af37;fill-opacity:1;stroke:#4a4a4a;stroke-width:10;stroke-opacity:1" />
      <path
         id="path879"
         class=""
         d="m 54.486,457 -10,30 h 87.028 l -10,-30 z"
         inkscape:connector-curvature="0"
         style="fill:#d4af37;fill-opacity:1;stroke:#4a4a4a;stroke-width:10;stroke-opacity:1" />
      <path
         id="path881"
         class=""
         d="M 140.486,457 144,467.54 147.514,457 Z"
         inkscape:connector-curvature="0"
         style="fill:#d4af37;fill-opacity:1;stroke:#4a4a4a;stroke-width:10;stroke-opacity:1" />
      <path
         id="path883"
         class=""
         d="m 166.486,457 -10,30 h 87.028 l -10,-30 z"
         inkscape:connector-curvature="0"
         style="fill:#d4af37;fill-opacity:1;stroke:#4a4a4a;stroke-width:10;stroke-opacity:1" />
      <path
         id="path885"
         class=""
         d="M 252.486,457 256,467.54 259.514,457 Z"
         inkscape:connector-curvature="0"
         style="fill:#d4af37;fill-opacity:1;stroke:#4a4a4a;stroke-width:10;stroke-opacity:1" />
      <path
         id="path887"
         class=""
         d="m 278.486,457 -10,30 h 87.028 l -10,-30 z"
         inkscape:connector-curvature="0"
         style="fill:#d4af37;fill-opacity:1;stroke:#4a4a4a;stroke-width:10;stroke-opacity:1" />
      <path
         id="path889"
         class=""
         d="m 364.486,457 3.344,10.033 0.342,-0.01 3.342,-10.023 z"
         inkscape:connector-curvature="0"
         style="fill:#d4af37;fill-opacity:1;stroke:#4a4a4a;stroke-width:10;stroke-opacity:1" />
      <path
         id="path891"
         class=""
         d="m 390.486,457 -10,30 h 87.028 l -10,-30 z"
         inkscape:connector-curvature="0"
         style="fill:#d4af37;fill-opacity:1;stroke:#4a4a4a;stroke-width:10;stroke-opacity:1" />
      <path
         id="path893"
         class="selected"
         d="m 476.486,457 2.287,6.863 2.477,-0.07 2.264,-6.793 z"
         inkscape:connector-curvature="0"
         style="fill:#d4af37;fill-opacity:1;stroke:#4a4a4a;stroke-width:10;stroke-opacity:1" />
    </g>
  </g>
</svg>
