<?xml version="1.0" encoding="UTF-8" standalone="no"?>
<svg
   xmlns:dc="http://purl.org/dc/elements/1.1/"
   xmlns:cc="http://creativecommons.org/ns#"
   xmlns:rdf="http://www.w3.org/1999/02/22-rdf-syntax-ns#"
   xmlns:svg="http://www.w3.org/2000/svg"
   xmlns="http://www.w3.org/2000/svg"
   xmlns:sodipodi="http://sodipodi.sourceforge.net/DTD/sodipodi-0.dtd"
   xmlns:inkscape="http://www.inkscape.org/namespaces/inkscape"
   viewBox="0 0 512 512"
   style="height: 64px; width: 64px;"
   version="1.1"
   id="svg42"
   sodipodi:docname="spell-pattes-daraignee.svg"
   inkscape:version="0.92.3 (2405546, 2018-03-11)"
   inkscape:export-filename="/home/plic/Documents/dev/cofbazar.github.io/images/resources/spell-pattes-daraignee.png"
   inkscape:export-xdpi="12"
   inkscape:export-ydpi="12">
  <metadata
     id="metadata48">
    <rdf:RDF>
      <cc:Work
         rdf:about="">
        <dc:format>image/svg+xml</dc:format>
        <dc:type
           rdf:resource="http://purl.org/dc/dcmitype/StillImage" />
        <dc:title></dc:title>
      </cc:Work>
    </rdf:RDF>
  </metadata>
  <defs
     id="defs46" />
  <sodipodi:namedview
     pagecolor="#ffffff"
     bordercolor="#666666"
     borderopacity="1"
     objecttolerance="10"
     gridtolerance="10"
     guidetolerance="10"
     inkscape:pageopacity="0"
     inkscape:pageshadow="2"
     inkscape:window-width="1572"
     inkscape:window-height="1005"
     id="namedview44"
     showgrid="false"
     inkscape:zoom="0.8046875"
     inkscape:cx="245.50997"
     inkscape:cy="264.12703"
     inkscape:window-x="2039"
     inkscape:window-y="45"
     inkscape:window-maximized="0"
     inkscape:current-layer="svg42" />
  <g
     class=""
     transform="matrix(1.0482978,0,0,1.0482978,-12.077625,-11.804758)"
     id="g14">
    <g
       id="g12">
      <path
         d="m 103.432,17.844 c -1.118,0.005 -2.234,0.032 -3.348,0.08 -2.547,0.11 -5.083,0.334 -7.604,0.678 -20.167,2.747 -39.158,13.667 -52.324,33.67 -24.613,37.4 2.194,98.025 56.625,98.025 0.536,0 1.058,-0.012 1.583,-0.022 v 0.704 h 60.565 c -10.758,31.994 -30.298,66.596 -52.448,101.43 -2.162,3.4 -4.254,6.878 -6.29,10.406 l 34.878,35.733 -56.263,9.423 c -32.728,85.966 -27.42,182.074 48.277,182.074 v -0.002 l 9.31,0.066 c 23.83,-0.57 46.732,-4.298 61.325,-12.887 4.174,-2.458 7.63,-5.237 10.467,-8.42 h -32.446 c -20.33,5.95 -40.8,-6.94 -47.396,-25.922 -8.956,-25.77 7.52,-52.36 31.867,-60.452 5.803,-1.93 11.723,-2.834 17.565,-2.834 v -0.406 h 178.33 c -0.57,-44.403 16.35,-90.125 49.184,-126 23.955,-26.176 42.03,-60.624 51.3,-94.846 l -41.225,-24.932 38.272,-6.906 -43.37,-25.807 h -0.005 l 0.002,-0.002 0.002,0.002 52.127,-8.85 C 457.16,52.713 433.552,23.734 385.022,23.734 341.14,32.26 222.11,35.29 149.34,28.496 134.452,21.733 118.793,17.773 103.432,17.844 Z"
         class="selected"
         id="path2"
         inkscape:connector-curvature="0"
         style="fill:#d9fdb2;fill-opacity:1;stroke:#4a4a4a;stroke-width:10;stroke-opacity:1" />
      <path
         d="m 103.896,36.547 c 13.137,0.043 27.407,3.804 41.247,10.63 l 0.033,-0.07 c 4.667,4.735 8.542,9.737 11.68,14.985 H 82.92 l 10.574,14.78 c 10.608,14.83 19.803,31.99 21.09,42.024 0.643,5.017 -0.11,7.167 -1.814,8.836 -1.705,1.67 -6.228,3.875 -15.99,3.875 -40.587,0 -56.878,-44.952 -41.012,-69.06 C 66.238,46.64 79.582,39.22 95.002,37.12 c 2.89,-0.395 5.863,-0.583 8.894,-0.573 z"
         class=""
         id="path4"
         inkscape:connector-curvature="0"
         style="fill:#7ed321;fill-opacity:1;stroke:#4a4a4a;stroke-width:10;stroke-opacity:1" />
      <path
         d="m 118.5,80.78 h 46.28 c 4.275,15.734 3.656,33.07 -0.544,51.51 H 131.52 c 1.9,-5.027 2.268,-10.574 1.6,-15.77 -1.527,-11.913 -7.405,-24.065 -14.62,-35.74 z"
         class=""
         id="path6"
         inkscape:connector-curvature="0"
         style="fill:#d9fdb2;fill-opacity:1;stroke:#4a4a4a;stroke-width:10;stroke-opacity:1" />
      <path
         d="m 220.053,397.875 c 6.44,6.84 11.192,15.31 13.37,24.914 3.797,16.736 3.092,31.208 -1.767,43.204 -4.526,11.175 -12.576,19.79 -22.29,26 h 237.19 c 14.448,0 24.887,-5.678 32.2,-14.318 7.312,-8.64 11.2,-20.514 10.705,-32.352 -0.186,-4.473 -0.978,-8.913 -2.407,-13.18 l -69.91,-8.205 42.017,-20.528 c -8.32,-3.442 -18.64,-5.537 -31.375,-5.537 H 220.053 Z"
         class=""
         id="path8"
         inkscape:connector-curvature="0"
         style="fill:#d9fdb2;fill-opacity:1;stroke:#4a4a4a;stroke-width:10;stroke-opacity:1" />
      <path
         d="m 177.385,398.381 c -1.152,-0.003 -2.306,0.048 -3.457,0.153 -2.633,0.242 -5.256,0.775 -7.824,1.63 -15.11,5.02 -25.338,21.54 -20.11,36.583 3.673,10.57 15.347,17.71 25.654,13.938 l 1.555,-0.57 h 43.354 c 0.946,-6.36 0.754,-13.882 -1.358,-23.192 -3.71,-16.358 -20.543,-28.483 -37.815,-28.54 z"
         class=""
         id="path10"
         inkscape:connector-curvature="0"
         style="fill:#7ed321;fill-opacity:1;stroke:#4a4a4a;stroke-width:10;stroke-opacity:1" />
    </g>
  </g>
  <g
     id="g830"
     class=""
     transform="matrix(0.54106979,0,0,0.54106979,107.28165,106.93468)">
    <g
       id="g828">
      <path
         id="path818"
         class="selected"
         d="m 245.625,14.656 v 141.53 c -27.713,6.03 -48.875,38.405 -48.875,77.47 0,15.552 3.366,30.034 9.156,42.22 -3.25,-3.28 -6.404,-6.91 -9.406,-10.97 -33.54,-45.34 -33.54,-121.904 0,-167.25 l -15,-11.125 c -39.288,53.12 -39.292,136.387 0,189.5 2.543,3.44 5.202,6.67 7.97,9.69 C 134.18,263.356 96.063,213.569 96.063,156.313 H 77.374 c 0,61.73 38.437,115.01 94.438,141.938 -21.208,7.248 -40.477,17.198 -57,29.344 -36.29,26.675 -59.594,64.432 -59.594,106.5 h 18.686 c 0,-35.19 19.332,-67.448 51.97,-91.438 16.31,-11.99 35.903,-21.796 57.75,-28.594 -2.178,2.024 -4.292,4.167 -6.345,6.407 -42.477,46.365 -42.477,120.787 0,167.155 L 191.063,475 c -32.263,-35.218 -35.342,-90.954 -9.25,-130.094 4.213,13.518 16.883,23.438 31.72,23.438 3.25,0 6.396,-0.49 9.374,-1.375 0.453,1.81 1.043,3.564 1.78,5.25 -4.572,6.227 -7.28,13.926 -7.28,22.25 0,14.788 8.532,27.58 20.938,33.717 -0.826,-4.1 -1.28,-8.56 -1.28,-13.25 0,-19.7 8.013,-35.687 17.905,-35.687 9.89,0 17.905,15.987 17.905,35.688 0,4.69 -0.456,9.15 -1.28,13.25 12.404,-6.14 20.936,-18.93 20.936,-33.72 0,-8.215 -2.657,-15.814 -7.124,-22 0.776,-1.73 1.402,-3.54 1.875,-5.406 2.88,0.824 5.904,1.282 9.033,1.282 14.87,0 27.566,-9.965 31.75,-23.53 26.16,39.143 23.102,94.94 -9.188,130.186 l 13.78,12.625 c 42.48,-46.368 42.48,-120.79 0,-167.156 -2.05,-2.24 -4.166,-4.384 -6.342,-6.408 21.845,6.798 41.438,16.604 57.75,28.594 32.637,23.99 51.968,56.25 51.968,91.438 h 18.69 c 0,-42.068 -23.305,-79.825 -59.595,-106.5 -16.524,-12.146 -35.792,-22.096 -57,-29.344 56,-26.93 94.438,-80.208 94.438,-141.938 h -18.688 c 0,57.256 -38.118,107.043 -93.406,129.407 2.765,-3.02 5.424,-6.25 7.967,-9.69 39.292,-53.11 39.292,-136.38 0,-189.5 l -15,11.126 c 33.542,45.345 33.54,121.913 0,167.25 -2.987,4.04 -6.14,7.64 -9.375,10.906 5.77,-12.18 9.125,-26.627 9.125,-42.156 0,-39.065 -21.162,-71.44 -48.875,-77.47 V 14.657 h -18.687 z"
         inkscape:connector-curvature="0"
         style="fill:#000000;fill-opacity:1;stroke:#8b572a;stroke-width:10;stroke-opacity:1" />
      <path
         id="path820"
         class=""
         d="m 255.095,296.156 c 8.137,0 14.53,6.398 14.53,14.53 0,8.135 -6.393,14.533 -14.53,14.533 -8.14,0 -14.5,-6.398 -14.5,-14.533 0,-8.133 6.366,-14.53 14.5,-14.53 z"
         inkscape:connector-curvature="0"
         style="fill:#c9c9c9;fill-opacity:1;stroke:#4a4a4a;stroke-width:10;stroke-opacity:1" />
      <path
         id="path822"
         class=""
         d="m 213.531,320.594 c 8.14,0 14.532,6.398 14.532,14.53 0,8.134 -6.393,14.532 -14.53,14.532 -8.14,0 -14.532,-6.396 -14.532,-14.53 0,-8.134 6.398,-14.532 14.53,-14.532 z"
         inkscape:connector-curvature="0"
         style="fill:#c9c9c9;fill-opacity:1;stroke:#4a4a4a;stroke-width:10;stroke-opacity:1" />
      <path
         id="path824"
         class=""
         d="m 296.313,320.594 c 8.138,0 14.532,6.398 14.532,14.53 0,8.134 -6.394,14.532 -14.53,14.532 -8.14,0 -14.533,-6.396 -14.533,-14.53 0,-8.134 6.4,-14.532 14.533,-14.532 z"
         inkscape:connector-curvature="0"
         style="fill:#c9c9c9;fill-opacity:1;stroke:#4a4a4a;stroke-width:10;stroke-opacity:1" />
      <path
         id="path826"
         class=""
         d="m 255.095,344.469 c 8.138,0 14.53,6.397 14.53,14.53 0,8.133 -6.392,14.53 -14.53,14.53 -8.138,0 -14.5,-6.395 -14.5,-14.53 0,-8.133 6.367,-14.53 14.5,-14.53 z"
         inkscape:connector-curvature="0"
         style="fill:#c9c9c9;fill-opacity:1;stroke:#4a4a4a;stroke-width:10;stroke-opacity:1" />
    </g>
  </g>
</svg>
