<?xml version="1.0" encoding="UTF-8" standalone="no"?>
<svg
   xmlns:dc="http://purl.org/dc/elements/1.1/"
   xmlns:cc="http://creativecommons.org/ns#"
   xmlns:rdf="http://www.w3.org/1999/02/22-rdf-syntax-ns#"
   xmlns:svg="http://www.w3.org/2000/svg"
   xmlns="http://www.w3.org/2000/svg"
   xmlns:sodipodi="http://sodipodi.sourceforge.net/DTD/sodipodi-0.dtd"
   xmlns:inkscape="http://www.inkscape.org/namespaces/inkscape"
   viewBox="0 0 512 512"
   style="height: 64px; width: 64px;"
   version="1.1"
   id="svg42"
   sodipodi:docname="spell-strangulation.svg"
   inkscape:version="0.92.3 (2405546, 2018-03-11)"
   inkscape:export-filename="/home/plic/Documents/dev/cofbazar.github.io/images/resources/spell-strangulation.png"
   inkscape:export-xdpi="24"
   inkscape:export-ydpi="24">
  <metadata
     id="metadata48">
    <rdf:RDF>
      <cc:Work
         rdf:about="">
        <dc:format>image/svg+xml</dc:format>
        <dc:type
           rdf:resource="http://purl.org/dc/dcmitype/StillImage" />
        <dc:title></dc:title>
      </cc:Work>
    </rdf:RDF>
  </metadata>
  <defs
     id="defs46">
    <filter
       y="-100%"
       x="-100%"
       width="300%"
       height="300%"
       id="shadow-4">
      <feFlood
         id="feFlood818"
         result="flood"
         flood-color="rgba(74, 74, 74, 1)" />
      <feComposite
         id="feComposite820"
         result="composite"
         operator="atop"
         in2="SourceGraphic"
         in="flood" />
      <feGaussianBlur
         id="feGaussianBlur822"
         result="blur"
         stdDeviation="15"
         in="composite" />
      <feOffset
         id="feOffset824"
         result="offset"
         dy="0"
         dx="0" />
      <feComposite
         id="feComposite826"
         operator="over"
         in2="offset"
         in="SourceGraphic" />
    </filter>
    <filter
       y="-100%"
       x="-100%"
       width="300%"
       height="300%"
       id="shadow-5">
      <feFlood
         id="feFlood829"
         result="flood"
         flood-color="rgba(74, 74, 74, 1)" />
      <feComposite
         id="feComposite831"
         result="composite"
         operator="atop"
         in2="SourceGraphic"
         in="flood" />
      <feGaussianBlur
         id="feGaussianBlur833"
         result="blur"
         stdDeviation="15"
         in="composite" />
      <feOffset
         id="feOffset835"
         result="offset"
         dy="0"
         dx="0" />
      <feComposite
         id="feComposite837"
         operator="over"
         in2="offset"
         in="SourceGraphic" />
    </filter>
    <filter
       y="-100%"
       x="-100%"
       width="300%"
       height="300%"
       id="shadow-6">
      <feFlood
         id="feFlood840"
         result="flood"
         flood-color="rgba(74, 74, 74, 1)" />
      <feComposite
         id="feComposite842"
         result="composite"
         operator="atop"
         in2="SourceGraphic"
         in="flood" />
      <feGaussianBlur
         id="feGaussianBlur844"
         result="blur"
         stdDeviation="15"
         in="composite" />
      <feOffset
         id="feOffset846"
         result="offset"
         dy="0"
         dx="0" />
      <feComposite
         id="feComposite848"
         operator="over"
         in2="offset"
         in="SourceGraphic" />
    </filter>
    <filter
       y="-100%"
       x="-100%"
       width="300%"
       height="300%"
       id="shadow-7">
      <feFlood
         id="feFlood851"
         result="flood"
         flood-color="rgba(74, 74, 74, 1)" />
      <feComposite
         id="feComposite853"
         result="composite"
         operator="atop"
         in2="SourceGraphic"
         in="flood" />
      <feGaussianBlur
         id="feGaussianBlur855"
         result="blur"
         stdDeviation="15"
         in="composite" />
      <feOffset
         id="feOffset857"
         result="offset"
         dy="0"
         dx="0" />
      <feComposite
         id="feComposite859"
         operator="over"
         in2="offset"
         in="SourceGraphic" />
    </filter>
    <filter
       y="-100%"
       x="-100%"
       width="300%"
       height="300%"
       id="shadow-8">
      <feFlood
         id="feFlood862"
         result="flood"
         flood-color="rgba(74, 74, 74, 1)" />
      <feComposite
         id="feComposite864"
         result="composite"
         operator="atop"
         in2="SourceGraphic"
         in="flood" />
      <feGaussianBlur
         id="feGaussianBlur866"
         result="blur"
         stdDeviation="15"
         in="composite" />
      <feOffset
         id="feOffset868"
         result="offset"
         dy="0"
         dx="0" />
      <feComposite
         id="feComposite870"
         operator="over"
         in2="offset"
         in="SourceGraphic" />
    </filter>
    <radialGradient
       id="gradient-1">
      <stop
         id="stop873"
         stop-opacity="1"
         stop-color="#ffe0af"
         offset="0%" />
      <stop
         id="stop875"
         stop-opacity="1"
         stop-color="#e6ceaa"
         offset="100%" />
    </radialGradient>
    <filter
       y="-100%"
       x="-100%"
       width="300%"
       height="300%"
       id="shadow-7-3">
      <feFlood
         id="feFlood955"
         result="flood"
         flood-color="rgba(74, 74, 74, 1)" />
      <feComposite
         id="feComposite957"
         result="composite"
         operator="atop"
         in2="SourceGraphic"
         in="flood" />
      <feGaussianBlur
         id="feGaussianBlur959"
         result="blur"
         stdDeviation="15"
         in="composite" />
      <feOffset
         id="feOffset961"
         result="offset"
         dy="0"
         dx="0" />
      <feComposite
         id="feComposite963"
         operator="over"
         in2="offset"
         in="SourceGraphic" />
    </filter>
    <filter
       y="-100%"
       x="-100%"
       width="300%"
       height="300%"
       id="shadow-8-5">
      <feFlood
         id="feFlood966"
         result="flood"
         flood-color="rgba(74, 74, 74, 1)" />
      <feComposite
         id="feComposite968"
         result="composite"
         operator="atop"
         in2="SourceGraphic"
         in="flood" />
      <feGaussianBlur
         id="feGaussianBlur970"
         result="blur"
         stdDeviation="15"
         in="composite" />
      <feOffset
         id="feOffset972"
         result="offset"
         dy="0"
         dx="0" />
      <feComposite
         id="feComposite974"
         operator="over"
         in2="offset"
         in="SourceGraphic" />
    </filter>
    <radialGradient
       id="gradient-1-6">
      <stop
         id="stop977"
         stop-opacity="1"
         stop-color="#ffe0af"
         offset="0%" />
      <stop
         id="stop979"
         stop-opacity="1"
         stop-color="#e6ceaa"
         offset="100%" />
    </radialGradient>
    <filter
       y="-100%"
       x="-100%"
       width="300%"
       height="300%"
       id="shadow-7-0">
      <feFlood
         id="feFlood1084"
         result="flood"
         flood-color="rgba(74, 74, 74, 1)" />
      <feComposite
         id="feComposite1086"
         result="composite"
         operator="atop"
         in2="SourceGraphic"
         in="flood" />
      <feGaussianBlur
         id="feGaussianBlur1088"
         result="blur"
         stdDeviation="15"
         in="composite" />
      <feOffset
         id="feOffset1090"
         result="offset"
         dy="0"
         dx="0" />
      <feComposite
         id="feComposite1092"
         operator="over"
         in2="offset"
         in="SourceGraphic" />
    </filter>
    <filter
       y="-100%"
       x="-100%"
       width="300%"
       height="300%"
       id="shadow-8-9">
      <feFlood
         id="feFlood1095"
         result="flood"
         flood-color="rgba(74, 74, 74, 1)" />
      <feComposite
         id="feComposite1097"
         result="composite"
         operator="atop"
         in2="SourceGraphic"
         in="flood" />
      <feGaussianBlur
         id="feGaussianBlur1099"
         result="blur"
         stdDeviation="15"
         in="composite" />
      <feOffset
         id="feOffset1101"
         result="offset"
         dy="0"
         dx="0" />
      <feComposite
         id="feComposite1103"
         operator="over"
         in2="offset"
         in="SourceGraphic" />
    </filter>
    <radialGradient
       id="gradient-1-3">
      <stop
         id="stop1106"
         stop-opacity="1"
         stop-color="#ffe0af"
         offset="0%" />
      <stop
         id="stop1108"
         stop-opacity="1"
         stop-color="#e6ceaa"
         offset="100%" />
    </radialGradient>
  </defs>
  <sodipodi:namedview
     pagecolor="#ffffff"
     bordercolor="#666666"
     borderopacity="1"
     objecttolerance="10"
     gridtolerance="10"
     guidetolerance="10"
     inkscape:pageopacity="0"
     inkscape:pageshadow="2"
     inkscape:window-width="1373"
     inkscape:window-height="895"
     id="namedview44"
     showgrid="false"
     inkscape:zoom="0.84515507"
     inkscape:cx="181.91431"
     inkscape:cy="317.97151"
     inkscape:window-x="2455"
     inkscape:window-y="151"
     inkscape:window-maximized="0"
     inkscape:current-layer="svg42" />
  <g
     class=""
     transform="matrix(1.047396,0,0,1.047396,-11.639853,-11.365012)"
     id="g14">
    <g
       id="g12">
      <path
         d="m 103.432,17.844 c -1.118,0.005 -2.234,0.032 -3.348,0.08 -2.547,0.11 -5.083,0.334 -7.604,0.678 -20.167,2.747 -39.158,13.667 -52.324,33.67 -24.613,37.4 2.194,98.025 56.625,98.025 0.536,0 1.058,-0.012 1.583,-0.022 v 0.704 h 60.565 c -10.758,31.994 -30.298,66.596 -52.448,101.43 -2.162,3.4 -4.254,6.878 -6.29,10.406 l 34.878,35.733 -56.263,9.423 c -32.728,85.966 -27.42,182.074 48.277,182.074 v -0.002 l 9.31,0.066 c 23.83,-0.57 46.732,-4.298 61.325,-12.887 4.174,-2.458 7.63,-5.237 10.467,-8.42 h -32.446 c -20.33,5.95 -40.8,-6.94 -47.396,-25.922 -8.956,-25.77 7.52,-52.36 31.867,-60.452 5.803,-1.93 11.723,-2.834 17.565,-2.834 v -0.406 h 178.33 c -0.57,-44.403 16.35,-90.125 49.184,-126 23.955,-26.176 42.03,-60.624 51.3,-94.846 l -41.225,-24.932 38.272,-6.906 -43.37,-25.807 h -0.005 l 0.002,-0.002 0.002,0.002 52.127,-8.85 C 457.16,52.713 433.552,23.734 385.022,23.734 341.14,32.26 222.11,35.29 149.34,28.496 134.452,21.733 118.793,17.773 103.432,17.844 Z"
         class=""
         id="path2"
         inkscape:connector-curvature="0"
         style="fill:#facdd2;fill-opacity:1;stroke:#4a4a4a;stroke-width:10;stroke-opacity:1" />
      <path
         d="m 103.896,36.547 c 13.137,0.043 27.407,3.804 41.247,10.63 l 0.033,-0.07 c 4.667,4.735 8.542,9.737 11.68,14.985 H 82.92 l 10.574,14.78 c 10.608,14.83 19.803,31.99 21.09,42.024 0.643,5.017 -0.11,7.167 -1.814,8.836 -1.705,1.67 -6.228,3.875 -15.99,3.875 -40.587,0 -56.878,-44.952 -41.012,-69.06 C 66.238,46.64 79.582,39.22 95.002,37.12 c 2.89,-0.395 5.863,-0.583 8.894,-0.573 z"
         class=""
         id="path4"
         inkscape:connector-curvature="0"
         style="fill:#d0021b;fill-opacity:1;stroke:#4a4a4a;stroke-width:10;stroke-opacity:1" />
      <path
         d="m 118.5,80.78 h 46.28 c 4.275,15.734 3.656,33.07 -0.544,51.51 H 131.52 c 1.9,-5.027 2.268,-10.574 1.6,-15.77 -1.527,-11.913 -7.405,-24.065 -14.62,-35.74 z"
         class=""
         id="path6"
         inkscape:connector-curvature="0"
         style="fill:#facdd2;fill-opacity:1;stroke:#4a4a4a;stroke-width:10;stroke-opacity:1" />
      <path
         d="m 220.053,397.875 c 6.44,6.84 11.192,15.31 13.37,24.914 3.797,16.736 3.092,31.208 -1.767,43.204 -4.526,11.175 -12.576,19.79 -22.29,26 h 237.19 c 14.448,0 24.887,-5.678 32.2,-14.318 7.312,-8.64 11.2,-20.514 10.705,-32.352 -0.186,-4.473 -0.978,-8.913 -2.407,-13.18 l -69.91,-8.205 42.017,-20.528 c -8.32,-3.442 -18.64,-5.537 -31.375,-5.537 H 220.053 Z"
         class=""
         id="path8"
         inkscape:connector-curvature="0"
         style="fill:#facdd2;fill-opacity:1;stroke:#4a4a4a;stroke-width:10;stroke-opacity:1" />
      <path
         d="m 177.385,398.381 c -1.152,-0.003 -2.306,0.048 -3.457,0.153 -2.633,0.242 -5.256,0.775 -7.824,1.63 -15.11,5.02 -25.338,21.54 -20.11,36.583 3.673,10.57 15.347,17.71 25.654,13.938 l 1.555,-0.57 h 43.354 c 0.946,-6.36 0.754,-13.882 -1.358,-23.192 -3.71,-16.358 -20.543,-28.483 -37.815,-28.54 z"
         class="selected"
         id="path10"
         inkscape:connector-curvature="0"
         style="fill:#d0021b;fill-opacity:1;stroke:#4a4a4a;stroke-width:10;stroke-opacity:1" />
    </g>
  </g>
  <g
     id="g1165"
     transform="matrix(1.1169186,0,0,1.1169186,-27.388228,-26.001635)">
    <g
       style="fill:#ff9955"
       transform="matrix(0.29454046,0.04593959,-0.04988888,0.31986124,278.00883,487.97972)"
       id="g1058">
      <path
         id="path984"
         class=""
         d="m -115.92244,-829.77239 c -53.208,3.518 -101.284,8.091 -139.14,50.18 9.869,29.563 26.168,65.884 46.613,95.234 20.504,29.436 44.758,50.59 68.61,53.297 35.265,-33.057 53.699,-112.599 23.917,-198.711 z"
         inkscape:connector-curvature="0"
         style="fill:#ff9955;fill-opacity:0" />
      <path
         id="path986"
         class=""
         d="m -393.96044,-819.60039 c -5.614,0.197 -11.003,1.423 -15.987,3.638 -27.47,12.208 -36.841,51.127 -20.931,86.928 10.621,23.878 30.455,41.339 51.62,45.443 2.392,57.507 -19.428,43.883 -70.534,73.606 l 15.888,31.69 c 35.566,-13.731 51.844,-19.703 69.27,-44.317 32.586,93.92 -1.874,157.236 -23.688,247.078 l 33.711,4.916 c 23.698,-57.247 55.114,-122.355 62.438,-181.422 48.937,51.134 77.498,114.641 114.65,169.143 l 35.82,-14.75 c -45.81,-80.724 -65.633,-128.371 -150.591,-262.19 26.819,-0.194 49.826,-6.592 70.683,-15.422 -7.036,-10.105 -13.565,-20.882 -19.529,-31.886 -28.223,12.083 -59.028,16.997 -90.14,0.855 10.151,-18.386 10.106,-43.882 -0.118,-66.955 -12.631,-28.422 -37.995,-47.215 -62.562,-46.355 z"
         inkscape:connector-curvature="0"
         style="fill:#ff9955;fill-opacity:1;stroke:#4a4a4a;stroke-width:10;stroke-opacity:1" />
      <path
         id="path988"
         class=""
         d="m -568.29044,-778.31139 3.287,34.09 52.6,107.77 21.568,-10.526 -52.383,-107.325 -25.072,-24.01 z"
         inkscape:connector-curvature="0"
         style="fill:#ff9955;fill-opacity:0" />
      <path
         id="path990"
         class=""
         d="m -471.22444,-638.74539 -46.756,22.822 3.137,18.496 56.271,-27.464 z"
         inkscape:connector-curvature="0"
         style="fill:#ff9955;fill-opacity:0" />
      <path
         id="path992"
         class="selected"
         d="m -468.90644,-602.04439 -21.568,10.528 16.668,34.15 21.568,-10.527 -16.668,-34.15 z"
         inkscape:connector-curvature="0"
         style="fill:#ff9955;fill-opacity:1;stroke:#4a4a4a;stroke-width:10;stroke-opacity:1" />
      <path
         id="path992-2"
         class="selected"
         d="m -199.57244,-729.67339 -21.568,10.528 16.668,34.15 21.568,-10.527 -16.668,-34.15 z"
         inkscape:connector-curvature="0"
         style="fill:#ff9955;fill-opacity:1;stroke:#4a4a4a;stroke-width:10;stroke-opacity:1" />
    </g>
    <g
       transform="matrix(0.45392998,0,0,0.45392998,145.84343,87.961474)"
       class=""
       id="g1123">
      <g
         id="g1121">
        <path
           style="fill:#6a3910;fill-opacity:1;stroke:#4a4a4a;stroke-width:10;stroke-opacity:1"
           inkscape:connector-curvature="0"
           d="m 82.063,22.97 v 55.468 h 10.624 v -0.157 h 85.907 v 0.157 h 67.22 L 356.5,189.03 v 303.876 h 88.313 V 22.97 Z"
           class=""
           id="path1113" />
        <path
           style="fill:#c9c9c9;fill-opacity:1;stroke:#4a4a4a;stroke-width:10;stroke-opacity:1"
           inkscape:connector-curvature="0"
           d="M 307.188,78.438 H 356.5 v 49.28 l -49.313,-49.28 z"
           class=""
           id="path1115" />
        <path
           style="fill:#c9c9c9;fill-opacity:0;stroke:#4a4a4a;stroke-width:20;stroke-opacity:1"
           inkscape:connector-curvature="0"
           d="m 118.718,96.968 v 119.313 c -6.382,11.06 -15.59,27.544 -23.374,45.032 -7.905,17.757 -14.563,36.232 -14.563,52.782 0,15.672 4.607,30.03 12.657,40.906 8.05,10.876 20.057,18.438 33.688,18.438 13.63,0 25.637,-7.562 33.688,-18.438 8.05,-10.876 12.687,-25.234 12.687,-40.906 0,-16.68 -6.99,-35.573 -15.03,-53.563 -7.144,-15.975 -15.21,-30.695 -21.032,-40.905 V 96.97 h -18.72 z"
           class=""
           id="path1117" />
        <path
           style="fill:#8b572a;fill-opacity:0"
           inkscape:connector-curvature="0"
           d="m 126.844,240.156 h 0.562 c 4.58,8.437 9.43,17.778 14,28 7.59,16.977 13.406,35.015 13.406,45.938 0,11.93 -3.682,22.556 -9.03,29.78 -5.35,7.226 -11.856,10.876 -18.657,10.876 -6.8,0 -13.308,-3.65 -18.656,-10.875 -5.35,-7.225 -9,-17.85 -9,-29.78 0,-11.054 5.498,-28.48 12.936,-45.19 4.603,-10.34 9.635,-19.947 14.438,-28.75 z"
           class="selected"
           id="path1119" />
      </g>
    </g>
  </g>
</svg>
