<?xml version="1.0" encoding="UTF-8" standalone="no"?>
<svg
   xmlns:dc="http://purl.org/dc/elements/1.1/"
   xmlns:cc="http://creativecommons.org/ns#"
   xmlns:rdf="http://www.w3.org/1999/02/22-rdf-syntax-ns#"
   xmlns:svg="http://www.w3.org/2000/svg"
   xmlns="http://www.w3.org/2000/svg"
   xmlns:sodipodi="http://sodipodi.sourceforge.net/DTD/sodipodi-0.dtd"
   xmlns:inkscape="http://www.inkscape.org/namespaces/inkscape"
   viewBox="0 0 512 512"
   style="height: 64px; width: 64px;"
   version="1.1"
   id="svg42"
   sodipodi:docname="spell-forme-gazeuse.svg"
   inkscape:version="0.92.3 (2405546, 2018-03-11)"
   inkscape:export-filename="/home/plic/Documents/dev/cofbazar.github.io/images/resources/spell-forme-gazeuse.png"
   inkscape:export-xdpi="24"
   inkscape:export-ydpi="24">
  <metadata
     id="metadata48">
    <rdf:RDF>
      <cc:Work
         rdf:about="">
        <dc:format>image/svg+xml</dc:format>
        <dc:type
           rdf:resource="http://purl.org/dc/dcmitype/StillImage" />
        <dc:title></dc:title>
      </cc:Work>
    </rdf:RDF>
  </metadata>
  <defs
     id="defs46" />
  <sodipodi:namedview
     pagecolor="#ffffff"
     bordercolor="#666666"
     borderopacity="1"
     objecttolerance="10"
     gridtolerance="10"
     guidetolerance="10"
     inkscape:pageopacity="0"
     inkscape:pageshadow="2"
     inkscape:window-width="1441"
     inkscape:window-height="1025"
     id="namedview44"
     showgrid="false"
     inkscape:zoom="0.5234375"
     inkscape:cx="125.98672"
     inkscape:cy="323.98878"
     inkscape:window-x="2399"
     inkscape:window-y="27"
     inkscape:window-maximized="0"
     inkscape:current-layer="svg42" />
  <g
     class=""
     transform="matrix(1.0453788,0,0,1.0453788,-13.195561,-10.135042)"
     id="g14">
    <g
       id="g12">
      <path
         d="m 103.432,17.844 c -1.118,0.005 -2.234,0.032 -3.348,0.08 -2.547,0.11 -5.083,0.334 -7.604,0.678 -20.167,2.747 -39.158,13.667 -52.324,33.67 -24.613,37.4 2.194,98.025 56.625,98.025 0.536,0 1.058,-0.012 1.583,-0.022 v 0.704 h 60.565 c -10.758,31.994 -30.298,66.596 -52.448,101.43 -2.162,3.4 -4.254,6.878 -6.29,10.406 l 34.878,35.733 -56.263,9.423 c -32.728,85.966 -27.42,182.074 48.277,182.074 v -0.002 l 9.31,0.066 c 23.83,-0.57 46.732,-4.298 61.325,-12.887 4.174,-2.458 7.63,-5.237 10.467,-8.42 h -32.446 c -20.33,5.95 -40.8,-6.94 -47.396,-25.922 -8.956,-25.77 7.52,-52.36 31.867,-60.452 5.803,-1.93 11.723,-2.834 17.565,-2.834 v -0.406 h 178.33 c -0.57,-44.403 16.35,-90.125 49.184,-126 23.955,-26.176 42.03,-60.624 51.3,-94.846 l -41.225,-24.932 38.272,-6.906 -43.37,-25.807 h -0.005 l 0.002,-0.002 0.002,0.002 52.127,-8.85 C 457.16,52.713 433.552,23.734 385.022,23.734 341.14,32.26 222.11,35.29 149.34,28.496 134.452,21.733 118.793,17.773 103.432,17.844 Z"
         class=""
         id="path2"
         inkscape:connector-curvature="0"
         style="fill:#ffe0af;fill-opacity:1;stroke:#4a4a4a;stroke-width:10;stroke-opacity:1" />
      <path
         d="m 103.896,36.547 c 13.137,0.043 27.407,3.804 41.247,10.63 l 0.033,-0.07 c 4.667,4.735 8.542,9.737 11.68,14.985 H 82.92 l 10.574,14.78 c 10.608,14.83 19.803,31.99 21.09,42.024 0.643,5.017 -0.11,7.167 -1.814,8.836 -1.705,1.67 -6.228,3.875 -15.99,3.875 -40.587,0 -56.878,-44.952 -41.012,-69.06 C 66.238,46.64 79.582,39.22 95.002,37.12 c 2.89,-0.395 5.863,-0.583 8.894,-0.573 z"
         class=""
         id="path4"
         inkscape:connector-curvature="0"
         style="fill:#b57204;fill-opacity:1;stroke:#4a4a4a;stroke-width:10;stroke-opacity:1" />
      <path
         d="m 118.5,80.78 h 46.28 c 4.275,15.734 3.656,33.07 -0.544,51.51 H 131.52 c 1.9,-5.027 2.268,-10.574 1.6,-15.77 -1.527,-11.913 -7.405,-24.065 -14.62,-35.74 z"
         class=""
         id="path6"
         inkscape:connector-curvature="0"
         style="fill:#ffe0af;fill-opacity:1;stroke:#4a4a4a;stroke-width:10;stroke-opacity:1" />
      <path
         d="m 220.053,397.875 c 6.44,6.84 11.192,15.31 13.37,24.914 3.797,16.736 3.092,31.208 -1.767,43.204 -4.526,11.175 -12.576,19.79 -22.29,26 h 237.19 c 14.448,0 24.887,-5.678 32.2,-14.318 7.312,-8.64 11.2,-20.514 10.705,-32.352 -0.186,-4.473 -0.978,-8.913 -2.407,-13.18 l -69.91,-8.205 42.017,-20.528 c -8.32,-3.442 -18.64,-5.537 -31.375,-5.537 H 220.053 Z"
         class=""
         id="path8"
         inkscape:connector-curvature="0"
         style="fill:#ffe0af;fill-opacity:1;stroke:#4a4a4a;stroke-width:10;stroke-opacity:1" />
      <path
         d="m 177.385,398.381 c -1.152,-0.003 -2.306,0.048 -3.457,0.153 -2.633,0.242 -5.256,0.775 -7.824,1.63 -15.11,5.02 -25.338,21.54 -20.11,36.583 3.673,10.57 15.347,17.71 25.654,13.938 l 1.555,-0.57 h 43.354 c 0.946,-6.36 0.754,-13.882 -1.358,-23.192 -3.71,-16.358 -20.543,-28.483 -37.815,-28.54 z"
         class="selected"
         id="path10"
         inkscape:connector-curvature="0"
         style="fill:#b57204;fill-opacity:1;stroke:#4a4a4a;stroke-width:10;stroke-opacity:1" />
    </g>
  </g>
  <g
     id="g882"
     transform="translate(545.15746,-71.019143)">
    <path
       id="path6-7"
       class="selected"
       d="m -285.58907,209.2225 c -29.526,0 -56.244,4.575 -74.752,11.5 -9.254,3.462 -16.414,7.55 -20.732,11.37 -3.928,3.476 -5.263,6.203 -5.474,8.42 h -0.267 c 0,15.347 7.808,29.99 20.916,41.887 -0.505,-0.217 -1.025,-0.427 -1.523,-0.65 -10.727,-4.78 -19.682,-10.378 -26.387,-16.952 -2.23,-2.187 -4.24,-4.532 -5.937,-7.02 -7.48,12.14 -12.415,25.588 -12.415,41.14 0,69.77 56.745,127.132 126.517,127.132 69.772,0 127.13,-57.36 127.13,-127.13 0,-15.723 -4.923,-29.484 -12.39,-41.93 -1.802,2.782 -4,5.39 -6.466,7.808 -6.705,6.574 -15.66,12.17 -26.387,16.953 -0.444,0.198 -0.908,0.385 -1.356,0.58 13.06,-11.885 20.837,-26.5 20.837,-41.817 h -0.354 c -0.21,-2.216 -1.546,-4.943 -5.475,-8.418 -4.317,-3.82 -11.477,-7.91 -20.73,-11.37 -18.51,-6.926 -45.23,-11.5 -74.755,-11.5 z"
       inkscape:connector-curvature="0"
       style="fill:#cafafe;fill-opacity:1" />
    <g
       transform="matrix(0.45523088,0,0,0.45523088,-390.21223,192.86004)"
       class=""
       id="g34">
      <g
         id="g32">
        <path
           style="fill:#98daff;fill-opacity:1"
           inkscape:connector-curvature="0"
           d="m 82.055,26.807 c -33.127,0 -60.182,27.057 -60.182,60.183 0,33.126 27.055,60.182 60.182,60.182 33.126,0 60.18,-27.056 60.18,-60.182 0,-33.127 -27.054,-60.183 -60.18,-60.183 z"
           class=""
           id="path20" />
        <path
           style="fill:#4a90e2;fill-opacity:1"
           inkscape:connector-curvature="0"
           d="m 95.905,47.85 c 16.15,5.665 27.64,20.98 27.64,39.14 0,23.025 -18.465,41.49 -41.49,41.49 -23.025,0 -41.49,-18.465 -41.49,-41.49 0,-0.55 0.02,-1.097 0.04,-1.642 6.067,8.444 15.966,13.95 27.157,13.95 18.46,0 33.425,-14.966 33.425,-33.427 0,-6.638 -1.943,-12.82 -5.28,-18.02 z"
           class=""
           id="path22" />
        <path
           style="fill:#98daff;fill-opacity:1"
           inkscape:connector-curvature="0"
           d="m 253.963,59.705 c -58.15,0.002 -105.123,47.627 -105.123,105.71 0,48.528 32.96,89.51 77.738,101.726 -8.41,17.653 -13.498,37.277 -13.498,58.294 0,76.485 62.51,138.998 138.996,138.998 h 0.004 c 76.485,0 138.412,-62.562 138.412,-138.998 0,-38.083 -15.76,-72.427 -40.658,-97.454 16.358,-14.68 26.643,-36.147 26.643,-59.648 0,-43.695 -35.733,-79.426 -79.428,-79.426 -20.743,0 -39.395,8.335 -53.43,21.41 -18.555,-30.156 -51.717,-50.61 -89.657,-50.61 z"
           class=""
           id="path24" />
        <path
           style="fill:#4a90e2;fill-opacity:1"
           inkscape:connector-curvature="0"
           d="m 253.963,78.395 c 34.466,0 64.11,20.527 78.127,49.697 -2.174,5.54 -3.38,11.563 -3.38,17.873 0,27.04 21.918,48.96 48.958,48.96 27.04,0 48.96,-21.92 48.96,-48.96 0,-14.81 -6.586,-28.073 -16.978,-37.05 27.496,5.802 48.137,30.194 48.137,59.417 0,21.225 -10.98,40.403 -27.336,51.186 l -10.354,6.826 9.418,8.07 c 25.745,22.062 42.29,54.548 42.29,91.02 0,66.374 -53.402,120.308 -119.724,120.308 h -0.004 c -57.162,0 -105.154,-40.103 -117.322,-93.642 15.684,22.5 41.747,37.226 71.254,37.226 47.94,0 86.8,-38.862 86.8,-86.8 0,-47.94 -38.86,-86.8 -86.8,-86.8 -28.382,0 -53.578,13.625 -69.416,34.688 -39.414,-8.176 -69.063,-43.066 -69.063,-85 0,-0.494 0.01,-0.985 0.017,-1.476 9.545,23.694 32.734,40.425 59.846,40.425 35.627,0 64.51,-28.88 64.51,-64.508 0,-28.533 -18.534,-52.723 -44.214,-61.232 2.07,-0.148 4.162,-0.228 6.273,-0.228 z"
           class="selected"
           id="path26" />
        <path
           style="fill:#98daff;fill-opacity:1"
           inkscape:connector-curvature="0"
           d="m 105.945,241.835 c -7.16,-0.028 -14.436,0.883 -21.668,2.82 C 40.2,256.47 14.415,302.08 26.203,346.076 c 6.57,24.52 23.502,43.28 44.84,53.198 -6.084,12.932 -7.977,27.963 -3.982,42.87 9.028,33.693 44.24,53.447 77.813,44.45 33.573,-8.995 53.595,-43.677 44.6,-77.25 -3.488,-13.016 -10.86,-23.98 -20.496,-32.017 16.684,-19.844 24.108,-47.014 16.87,-74.027 v -0.003 c -9.596,-35.817 -41.55,-59.943 -76.84,-61.395 -1.017,-0.042 -2.04,-0.064 -3.062,-0.068 z"
           class=""
           id="path28" />
        <path
           style="fill:#4a90e2;fill-opacity:1"
           inkscape:connector-curvature="0"
           d="m 105.945,260.5 c 0.794,0.002 1.586,0.018 2.375,0.05 27.367,1.083 52.01,19.727 59.475,47.585 6.445,24.055 -2.003,47.964 -19.39,63.7 l -9.663,8.743 11.383,6.346 c 10.19,5.68 18.04,15.104 21.295,27.256 6.393,23.86 -7.526,47.97 -31.383,54.36 -20.92,5.606 -42.49,-4.383 -51.775,-22.935 6.85,3.057 14.754,3.877 22.564,1.784 18.086,-4.847 28.82,-23.438 23.973,-41.525 -4.847,-18.085 -23.437,-28.816 -41.523,-23.97 -2.766,0.74 -5.36,1.807 -7.752,3.14 -19.715,-6.628 -35.476,-22.17 -41.27,-43.797 -0.678,-2.524 -1.18,-5.05 -1.548,-7.572 10.962,18.105 32.915,27.61 54.387,21.857 26.044,-6.978 41.5,-33.75 34.52,-59.796 -4.7,-17.548 -18.392,-30.275 -34.788,-34.586 3.055,-0.432 6.1,-0.647 9.12,-0.64 z"
           class=""
           id="path30" />
      </g>
    </g>
  </g>
</svg>
