<?xml version="1.0" encoding="UTF-8" standalone="no"?>
<svg
   xmlns:dc="http://purl.org/dc/elements/1.1/"
   xmlns:cc="http://creativecommons.org/ns#"
   xmlns:rdf="http://www.w3.org/1999/02/22-rdf-syntax-ns#"
   xmlns:svg="http://www.w3.org/2000/svg"
   xmlns="http://www.w3.org/2000/svg"
   xmlns:sodipodi="http://sodipodi.sourceforge.net/DTD/sodipodi-0.dtd"
   xmlns:inkscape="http://www.inkscape.org/namespaces/inkscape"
   viewBox="0 0 512 512"
   style="height: 64px; width: 64px;"
   version="1.1"
   id="svg42"
   sodipodi:docname="spell-6eme-sens.svg"
   inkscape:version="0.92.3 (2405546, 2018-03-11)"
   inkscape:export-filename="/home/plic/Téléchargements/spell-6eme-sens.png"
   inkscape:export-xdpi="24"
   inkscape:export-ydpi="24">
  <metadata
     id="metadata48">
    <rdf:RDF>
      <cc:Work
         rdf:about="">
        <dc:format>image/svg+xml</dc:format>
        <dc:type
           rdf:resource="http://purl.org/dc/dcmitype/StillImage" />
        <dc:title></dc:title>
      </cc:Work>
    </rdf:RDF>
  </metadata>
  <defs
     id="defs46" />
  <sodipodi:namedview
     pagecolor="#ffffff"
     bordercolor="#666666"
     borderopacity="1"
     objecttolerance="10"
     gridtolerance="10"
     guidetolerance="10"
     inkscape:pageopacity="0"
     inkscape:pageshadow="2"
     inkscape:window-width="1489"
     inkscape:window-height="911"
     id="namedview44"
     showgrid="false"
     inkscape:zoom="0.65186406"
     inkscape:cx="375.51965"
     inkscape:cy="281.18457"
     inkscape:window-x="2181"
     inkscape:window-y="128"
     inkscape:window-maximized="0"
     inkscape:current-layer="svg42" />
  <path
     d="m 97.286186,7.3441808 c -1.171344,0.00521 -2.340593,0.033523 -3.507738,0.083821 C 91.109915,7.5432502 88.452912,7.7779379 85.811624,8.1383516 64.682373,11.016422 44.785234,22.457462 30.991029,43.414888 5.2036408,82.599396 33.289714,146.11707 90.317843,146.11707 c 0.561575,0 1.108481,-0.0126 1.658536,-0.0231 v 0.73758 h 63.454811 c -11.27132,33.52057 -31.74365,69.77358 -54.95052,106.26965 -2.265153,3.56223 -4.456975,7.20617 -6.59012,10.90251 l 36.54217,37.43797 -58.947539,9.87261 C 37.195593,401.38214 42.756859,502.07585 122.06567,502.07585 v -0.002 l 9.75423,0.0692 c 24.96703,-0.5972 48.96178,-4.50307 64.25107,-13.50189 4.37316,-2.57528 7.99406,-5.48688 10.96642,-8.82176 h -33.99413 c -21.30003,6.2339 -42.74674,-7.27114 -49.65746,-27.15884 -9.38333,-26.9996 7.8788,-54.85832 33.3875,-63.33642 6.07989,-2.02209 12.28236,-2.96923 18.4031,-2.96923 v -0.42537 h 186.83887 c -0.5972,-46.52165 17.13012,-94.42523 51.53077,-132.01198 25.09799,-27.42497 44.03543,-63.51662 53.74773,-99.3715 l -43.19201,-26.12161 40.09812,-7.23551 -45.43936,-27.038355 h -0.005 l 0.002,-0.002 0.002,0.002 54.6142,-9.272272 C 467.89202,43.876925 443.15759,13.515217 392.31202,13.515217 346.33623,22.448028 221.62681,25.622602 145.38465,18.504432 129.78629,11.418741 113.38012,7.2697929 97.286186,7.3441808 Z"
     class=""
     id="path2"
     inkscape:connector-curvature="0"
     style="fill:#c8e0ff;fill-opacity:1;stroke:#4a4a4a;stroke-width:10.47714138;stroke-opacity:1" />
  <path
     d="m 103.896,36.547 c 13.137,0.043 27.407,3.804 41.247,10.63 l 0.033,-0.07 c 4.667,4.735 8.542,9.737 11.68,14.985 H 82.92 l 10.574,14.78 c 10.608,14.83 19.803,31.99 21.09,42.024 0.643,5.017 -0.11,7.167 -1.814,8.836 -1.705,1.67 -6.228,3.875 -15.99,3.875 -40.587,0 -56.878,-44.952 -41.012,-69.06 C 66.238,46.64 79.582,39.22 95.002,37.12 c 2.89,-0.395 5.863,-0.583 8.894,-0.573 z"
     class=""
     id="path4"
     inkscape:connector-curvature="0"
     style="fill:#4a90e2;fill-opacity:1;stroke:#4a4a4a;stroke-width:10;stroke-opacity:1" />
  <path
     d="m 118.5,80.78 h 46.28 c 4.275,15.734 3.656,33.07 -0.544,51.51 H 131.52 c 1.9,-5.027 2.268,-10.574 1.6,-15.77 -1.527,-11.913 -7.405,-24.065 -14.62,-35.74 z"
     class=""
     id="path6"
     inkscape:connector-curvature="0"
     style="fill:#c8e0ff;fill-opacity:1;stroke:#4a4a4a;stroke-width:10;stroke-opacity:1" />
  <path
     d="m 220.053,397.875 c 6.44,6.84 11.192,15.31 13.37,24.914 3.797,16.736 3.092,31.208 -1.767,43.204 -4.526,11.175 -12.576,19.79 -22.29,26 h 237.19 c 14.448,0 24.887,-5.678 32.2,-14.318 7.312,-8.64 11.2,-20.514 10.705,-32.352 -0.186,-4.473 -0.978,-8.913 -2.407,-13.18 l -69.91,-8.205 42.017,-20.528 c -8.32,-3.442 -18.64,-5.537 -31.375,-5.537 H 220.053 Z"
     class="selected"
     id="path8"
     inkscape:connector-curvature="0"
     style="fill:#c8e0ff;fill-opacity:1;stroke:#4a4a4a;stroke-width:10;stroke-opacity:1" />
  <path
     d="m 177.385,398.381 c -1.152,-0.003 -2.306,0.048 -3.457,0.153 -2.633,0.242 -5.256,0.775 -7.824,1.63 -15.11,5.02 -25.338,21.54 -20.11,36.583 3.673,10.57 15.347,17.71 25.654,13.938 l 1.555,-0.57 h 43.354 c 0.946,-6.36 0.754,-13.882 -1.358,-23.192 -3.71,-16.358 -20.543,-28.483 -37.815,-28.54 z"
     class=""
     id="path10"
     inkscape:connector-curvature="0"
     style="fill:#4a90e2;fill-opacity:1;stroke:#4a4a4a;stroke-width:10;stroke-opacity:1" />
  <g
     font-size="42"
     font-style="normal"
     font-weight="bold"
     class=""
     transform="translate(620.5904,120.64171)"
     style="font-style:normal;font-weight:bold;font-size:42px;font-family:Arial, Helvetica, sans-serif;text-anchor:middle"
     id="g40">
    <flowRoot
       xml:space="preserve"
       id="flowRoot858"
       style="font-style:normal;font-weight:normal;font-size:40px;line-height:1.25;font-family:sans-serif;letter-spacing:0px;word-spacing:0px;fill:#000000;fill-opacity:1;stroke:none"
       transform="translate(-290,-103)"><flowRegion
         id="flowRegion860"><rect
           id="rect862"
           width="95.111855"
           height="106.61732"
           x="265.39276"
           y="137.68883" /></flowRegion><flowPara
         id="flowPara864"></flowPara></flowRoot>  </g>
  <g
     id="g930"
     class=""
     transform="matrix(0.54977738,0,0,0.54977738,151.42731,103.73016)">
    <g
       id="g928">
      <path
         id="path914"
         class=""
         d="m 121.406,18.313 c -57.98,16.562 -98.06,51.613 -98.062,92.28 -0.003,40.518 39.805,75.616 97.437,92.25 -33.653,-22.005 -55.22,-55.224 -55.218,-92.25 0,-37.237 21.85,-70.277 55.844,-92.28 z"
         inkscape:connector-curvature="0"
         style="fill:#c9c9c9;fill-opacity:1;stroke:#4a4a4a;stroke-width:10;stroke-opacity:1" />
      <path
         id="path916"
         class=""
         d="m 397.937,18.313 c 33.995,22.003 55.844,55.043 55.844,92.28 0.004,37.026 -21.563,70.245 -55.217,92.25 57.632,-16.634 97.44,-51.732 97.437,-92.25 -0.003,-40.667 -40.082,-75.718 -98.063,-92.28 z"
         inkscape:connector-curvature="0"
         style="fill:#c9c9c9;fill-opacity:1;stroke:#4a4a4a;stroke-width:10;stroke-opacity:1" />
      <path
         id="path918"
         class=""
         d="m 163.28,41.656 c -43.303,12.368 -73.215,38.565 -73.218,68.938 -0.002,30.26 29.707,56.482 72.75,68.906 -25.135,-16.434 -41.25,-41.255 -41.25,-68.906 0,-27.813 16.328,-52.503 41.72,-68.938 z"
         inkscape:connector-curvature="0"
         style="fill:#c9c9c9;fill-opacity:1;stroke:#4a4a4a;stroke-width:10;stroke-opacity:1" />
      <path
         id="path920"
         class=""
         d="m 356.062,41.656 c 25.39,16.435 41.72,41.125 41.72,68.938 0,27.65 -16.115,52.472 -41.25,68.906 43.043,-12.424 72.752,-38.645 72.75,-68.906 -0.004,-30.373 -29.915,-56.57 -73.22,-68.938 z"
         inkscape:connector-curvature="0"
         style="fill:#c9c9c9;fill-opacity:1;stroke:#4a4a4a;stroke-width:10;stroke-opacity:1" />
      <path
         id="path922"
         class="selected"
         d="m 255.032,48.469 c -23.457,3.027 -44.22,30.026 -44.22,64.655 0,19.094 6.635,36.007 16.438,47.75 l 10.22,12.25 -15.69,2.938 c -12.834,2.4 -22.282,9.19 -30.25,20.062 -7.965,10.872 -14,25.903 -18.218,43.156 -7.727,31.62 -9.362,70.17 -9.593,103.94 h 41.655 l 0.625,8.655 10.625,141.375 h 90.344 l 9.374,-141.313 0.594,-8.718 h 39.625 c -0.017,-34.152 -0.373,-73.232 -7.375,-105.095 -3.818,-17.37 -9.612,-32.392 -17.688,-43.156 -8.076,-10.765 -17.99,-17.51 -32.344,-19.72 l -16,-2.47 10.125,-12.624 c 9.38,-11.682 15.69,-28.4 15.69,-47.03 0,-36.92 -23.274,-64.564 -49.095,-64.564 -2.8,0 -4.505,-0.137 -4.844,-0.093 z"
         inkscape:connector-curvature="0"
         style="fill:#8b572a;fill-opacity:1;stroke:#4a4a4a;stroke-width:10;stroke-opacity:1" />
      <path
         id="path924"
         class=""
         d="m 203.594,60.624 c -31.38,8.964 -53.063,27.96 -53.063,49.97 0,21.927 21.53,40.935 52.72,49.936 -18.212,-11.908 -29.875,-29.898 -29.875,-49.936 0.003,-20.153 11.82,-38.06 30.22,-49.97 z"
         inkscape:connector-curvature="0"
         style="fill:#c9c9c9;fill-opacity:1;stroke:#4a4a4a;stroke-width:10;stroke-opacity:1" />
      <path
         id="path926"
         class=""
         d="m 315.75,60.624 c 18.398,11.91 30.216,29.816 30.22,49.97 0,20.037 -11.664,38.027 -29.876,49.936 31.19,-9 52.72,-28.008 52.72,-49.936 -0.002,-22.01 -21.686,-41.005 -53.064,-49.97 z"
         inkscape:connector-curvature="0"
         style="fill:#c9c9c9;fill-opacity:1;stroke:#4a4a4a;stroke-width:10;stroke-opacity:1" />
    </g>
  </g>
</svg>
