<?xml version="1.0" encoding="UTF-8" standalone="no"?>
<svg
   xmlns:dc="http://purl.org/dc/elements/1.1/"
   xmlns:cc="http://creativecommons.org/ns#"
   xmlns:rdf="http://www.w3.org/1999/02/22-rdf-syntax-ns#"
   xmlns:svg="http://www.w3.org/2000/svg"
   xmlns="http://www.w3.org/2000/svg"
   xmlns:sodipodi="http://sodipodi.sourceforge.net/DTD/sodipodi-0.dtd"
   xmlns:inkscape="http://www.inkscape.org/namespaces/inkscape"
   viewBox="0 0 512 512"
   style="height: 64px; width: 64px;"
   version="1.1"
   id="svg16"
   sodipodi:docname="spell-message-lointain.svg"
   inkscape:version="0.92.3 (2405546, 2018-03-11)"
   inkscape:export-filename="/home/plic/Téléchargements/spell-message-lointain.png"
   inkscape:export-xdpi="24"
   inkscape:export-ydpi="24">
  <metadata
     id="metadata22">
    <rdf:RDF>
      <cc:Work
         rdf:about="">
        <dc:format>image/svg+xml</dc:format>
        <dc:type
           rdf:resource="http://purl.org/dc/dcmitype/StillImage" />
        <dc:title></dc:title>
      </cc:Work>
    </rdf:RDF>
  </metadata>
  <defs
     id="defs20" />
  <sodipodi:namedview
     pagecolor="#ffffff"
     bordercolor="#666666"
     borderopacity="1"
     objecttolerance="10"
     gridtolerance="10"
     guidetolerance="10"
     inkscape:pageopacity="0"
     inkscape:pageshadow="2"
     inkscape:window-width="1369"
     inkscape:window-height="818"
     id="namedview18"
     showgrid="false"
     inkscape:zoom="0.43987014"
     inkscape:cx="-36.886141"
     inkscape:cy="441.04106"
     inkscape:window-x="2444"
     inkscape:window-y="231"
     inkscape:window-maximized="0"
     inkscape:current-layer="svg16" />
  <g
     class=""
     transform="matrix(1.0412757,0,0,1.0412757,-9.0713045,-9.2080722)"
     id="g14">
    <g
       id="g12">
      <path
         d="m 103.432,17.844 c -1.118,0.005 -2.234,0.032 -3.348,0.08 -2.547,0.11 -5.083,0.334 -7.604,0.678 -20.167,2.747 -39.158,13.667 -52.324,33.67 -24.613,37.4 2.194,98.025 56.625,98.025 0.536,0 1.058,-0.012 1.583,-0.022 v 0.704 h 60.565 c -10.758,31.994 -30.298,66.596 -52.448,101.43 -2.162,3.4 -4.254,6.878 -6.29,10.406 l 34.878,35.733 -56.263,9.423 c -32.728,85.966 -27.42,182.074 48.277,182.074 v -0.002 l 9.31,0.066 c 23.83,-0.57 46.732,-4.298 61.325,-12.887 4.174,-2.458 7.63,-5.237 10.467,-8.42 h -32.446 c -20.33,5.95 -40.8,-6.94 -47.396,-25.922 -8.956,-25.77 7.52,-52.36 31.867,-60.452 5.803,-1.93 11.723,-2.834 17.565,-2.834 v -0.406 h 178.33 c -0.57,-44.403 16.35,-90.125 49.184,-126 23.955,-26.176 42.03,-60.624 51.3,-94.846 l -41.225,-24.932 38.272,-6.906 -43.37,-25.807 h -0.005 l 0.002,-0.002 0.002,0.002 52.127,-8.85 C 457.16,52.713 433.552,23.734 385.022,23.734 341.14,32.26 222.11,35.29 149.34,28.496 134.452,21.733 118.793,17.773 103.432,17.844 Z"
         class=""
         id="path2"
         inkscape:connector-curvature="0"
         style="fill:#fff79c;fill-opacity:1;stroke:#4a4a4a;stroke-width:10;stroke-opacity:1" />
      <path
         d="m 103.896,36.547 c 13.137,0.043 27.407,3.804 41.247,10.63 l 0.033,-0.07 c 4.667,4.735 8.542,9.737 11.68,14.985 H 82.92 l 10.574,14.78 c 10.608,14.83 19.803,31.99 21.09,42.024 0.643,5.017 -0.11,7.167 -1.814,8.836 -1.705,1.67 -6.228,3.875 -15.99,3.875 -40.587,0 -56.878,-44.952 -41.012,-69.06 C 66.238,46.64 79.582,39.22 95.002,37.12 c 2.89,-0.395 5.863,-0.583 8.894,-0.573 z"
         class=""
         id="path4"
         inkscape:connector-curvature="0"
         style="fill:#f8e71c;fill-opacity:1;stroke:#4a4a4a;stroke-width:10;stroke-opacity:1" />
      <path
         d="m 118.5,80.78 h 46.28 c 4.275,15.734 3.656,33.07 -0.544,51.51 H 131.52 c 1.9,-5.027 2.268,-10.574 1.6,-15.77 -1.527,-11.913 -7.405,-24.065 -14.62,-35.74 z"
         class=""
         id="path6"
         inkscape:connector-curvature="0"
         style="fill:#fff79c;fill-opacity:1;stroke:#4a4a4a;stroke-width:10;stroke-opacity:1" />
      <path
         d="m 220.053,397.875 c 6.44,6.84 11.192,15.31 13.37,24.914 3.797,16.736 3.092,31.208 -1.767,43.204 -4.526,11.175 -12.576,19.79 -22.29,26 h 237.19 c 14.448,0 24.887,-5.678 32.2,-14.318 7.312,-8.64 11.2,-20.514 10.705,-32.352 -0.186,-4.473 -0.978,-8.913 -2.407,-13.18 l -69.91,-8.205 42.017,-20.528 c -8.32,-3.442 -18.64,-5.537 -31.375,-5.537 H 220.053 Z"
         class=""
         id="path8"
         inkscape:connector-curvature="0"
         style="fill:#fff79c;fill-opacity:1;stroke:#4a4a4a;stroke-width:10;stroke-opacity:1" />
      <path
         d="m 177.385,398.381 c -1.152,-0.003 -2.306,0.048 -3.457,0.153 -2.633,0.242 -5.256,0.775 -7.824,1.63 -15.11,5.02 -25.338,21.54 -20.11,36.583 3.673,10.57 15.347,17.71 25.654,13.938 l 1.555,-0.57 h 43.354 c 0.946,-6.36 0.754,-13.882 -1.358,-23.192 -3.71,-16.358 -20.543,-28.483 -37.815,-28.54 z"
         class="selected"
         id="path10"
         inkscape:connector-curvature="0"
         style="fill:#f8e71c;fill-opacity:1;stroke:#4a4a4a;stroke-width:10;stroke-opacity:1" />
    </g>
  </g>
  <g
     id="g828"
     class=""
     transform="matrix(-0.19269361,0,0,0.19269361,388.51636,226.96723)">
    <g
       id="g826">
      <path
         id="path818"
         class=""
         d="m 182.78,80.125 c 3.367,19.498 10.608,52.67 19.126,84.813 8.126,30.663 17.73,60.122 25.063,75.062 57.968,-0.962 148.212,-16.707 252.343,-46.344 C 387.556,123.633 290.826,94.28 182.78,80.126 Z"
         inkscape:connector-curvature="0"
         style="fill:#9b9b9b;fill-opacity:1;stroke:#4a4a4a;stroke-width:10;stroke-opacity:1" />
      <path
         id="path820"
         class=""
         d="m 164.657,85 c -65.62,51.243 -106.43,120.106 -138.5,196.25 54.866,-38.51 111.644,-60.42 169.313,-70.906 -3.995,-12.636 -7.88,-26.486 -11.626,-40.625 -8.425,-31.79 -15.554,-64.12 -19.188,-84.72 z"
         inkscape:connector-curvature="0"
         style="fill:#c9c9c9;fill-opacity:1;stroke:#4a4a4a;stroke-width:10;stroke-opacity:1" />
      <path
         id="path822"
         class=""
         d="m 486.938,210.906 c -74.123,21.218 -141.43,35.68 -196.25,42.813 24.018,51.794 36.448,106.688 43.688,160.936 70.634,-58.76 125.36,-118.495 152.563,-203.75 z"
         inkscape:connector-curvature="0"
         style="fill:#c9c9c9;fill-opacity:1;stroke:#4a4a4a;stroke-width:10;stroke-opacity:1" />
      <path
         id="path824"
         class="selected"
         d="m 201.53,228.28 c -56.563,9.917 -111.78,30.946 -165.56,68.907 89.478,61.396 189.91,97.037 279.874,119.844 -7.362,-55.057 -20.104,-109.997 -44.75,-161.03 -18.39,1.897 -35.134,2.875 -49.938,2.875 h -5.344 l -2.718,-4.625 c -3.898,-6.69 -7.77,-15.598 -11.563,-25.97 z"
         inkscape:connector-curvature="0"
         style="fill:#c9c9c9;fill-opacity:1;stroke:#4a4a4a;stroke-width:10;stroke-opacity:1" />
    </g>
  </g>
  <g
     id="g854"
     class=""
     transform="matrix(0.49331549,0,0,0.49331549,101.08638,135.2296)">
    <g
       id="g852">
      <path
         id="path844"
         class=""
         d="m 372,22.41 c -6.4,33.89 6.8,54.39 32.6,66.3 4.6,8.17 8.4,16.29 11.4,24.39 -15.3,-17.02 -33.3,-25.31 -58,-13.12 14.1,27.62 35.6,32.42 61.5,23.42 6.2,21 7.7,41.6 6.3,62.4 0,0.2 0,0.4 -0.1,0.6 1,0.6 2,1.1 2.9,1.7 4.9,2.9 9.7,5.9 14.3,8.9 0.4,-3.3 0.7,-6.7 0.9,-10 1.2,-17.6 0.4,-35.4 -3.3,-53.5 26.8,5.1 43,-8.6 52.8,-33.62 -24.2,-2.6 -44.9,1.22 -55.3,22.92 -2.6,-9.4 -6,-18.9 -10.3,-28.46 23.7,-15.85 37.7,-36.07 26,-67.62 -22.5,8.53 -33.5,22.13 -36.3,39.47 C 412.8,44.33 400.3,28 372,22.41 Z"
         inkscape:connector-curvature="0"
         style="fill:#c9c9c9;fill-opacity:0" />
      <path
         id="path846"
         class=""
         d="M 185.81205,74.035224 C 178.51205,94.295224 176.4,110 172,136.8 c -3.2,19.9 -5.3,39.7 -5.7,56.9 30.4,25.9 63.3,44.6 99.8,46.3 -33.2,-52.5 -58.41954,-89.65795 -80.28795,-165.964776 z"
         inkscape:connector-curvature="0"
         style="fill:#b57204;fill-opacity:1;stroke:#4a4a4a;stroke-width:10;stroke-opacity:1"
         sodipodi:nodetypes="ccccc" />
      <path
         id="path848"
         class="selected"
         d="M 78.00113,136.41567 C 81.08113,211.81567 88.85,280.9 167.5,335.4 l 5.5,3.8 -2,6.3 c -3.2,10.1 -7.8,19 -15,25.8 -7.3,6.8 -16.9,11.2 -28.7,13.3 -22.5,4 -54.14,0.8 -101.89,-7.7 -9.6,24.1 -8.29,50.6 0.43,72.1 8.72,21.3 24.29,36.6 42.1,40.6 24.85,-31.8 62.26,-70.4 113.56,-68.1 52,2.3 111.5,-12.1 146.9,-47.6 12.5,-12.4 23.2,-42.3 29.4,-68.6 6.2,-26.3 8.7,-49 8.7,-49 l 0.6,-6.1 6,-1.6 c 21.6,-5.6 47.6,-10.7 76.7,-25.4 -8.6,-5.8 -18.7,-12.6 -30.4,-19.6 -17.9,-10.6 -37.6,-19.8 -47.3,-20.9 -16.6,-1.7 -26,1.3 -32.5,6.1 -6.4,4.8 -10.6,12.2 -14.3,21.1 -3.6,8.9 -6.4,19 -11.4,28.1 -5.1,9.2 -14,17.8 -26.8,19.2 -56,6.5 -103.8,-22.9 -143.9,-60.1 -33,-30.6 -40.39887,-32.58433 -65.19887,-60.68433 z"
         inkscape:connector-curvature="0"
         style="fill:#8b572a;fill-opacity:1;stroke:#4a4a4a;stroke-width:10;stroke-opacity:1"
         sodipodi:nodetypes="cccccccccccscccccccccccc" />
      <path
         id="path850"
         class=""
         d="m 432.9,250.2 c -7.1,2.6 -13.9,4.9 -20.4,6.8 -1.8,6.9 -3.7,13.8 -5.6,20.7 l 17.4,4.8 c 3,-10.7 5.9,-21.5 8.6,-32.3 z"
         inkscape:connector-curvature="0"
         style="fill:#8b572a;fill-opacity:0" />
    </g>
  </g>
</svg>
