<?xml version="1.0" encoding="UTF-8" standalone="no"?>
<svg
   xmlns:dc="http://purl.org/dc/elements/1.1/"
   xmlns:cc="http://creativecommons.org/ns#"
   xmlns:rdf="http://www.w3.org/1999/02/22-rdf-syntax-ns#"
   xmlns:svg="http://www.w3.org/2000/svg"
   xmlns="http://www.w3.org/2000/svg"
   xmlns:sodipodi="http://sodipodi.sourceforge.net/DTD/sodipodi-0.dtd"
   xmlns:inkscape="http://www.inkscape.org/namespaces/inkscape"
   viewBox="0 0 512 512"
   style="height: 64px; width: 64px;"
   version="1.1"
   id="svg42"
   sodipodi:docname="spell-detection-de-la-magie.svg"
   inkscape:version="0.92.3 (2405546, 2018-03-11)"
   inkscape:export-filename="/home/plic/Téléchargements/spell-detection-de-la-magie.png"
   inkscape:export-xdpi="24"
   inkscape:export-ydpi="24">
  <metadata
     id="metadata48">
    <rdf:RDF>
      <cc:Work
         rdf:about="">
        <dc:format>image/svg+xml</dc:format>
        <dc:type
           rdf:resource="http://purl.org/dc/dcmitype/StillImage" />
        <dc:title></dc:title>
      </cc:Work>
    </rdf:RDF>
  </metadata>
  <defs
     id="defs46" />
  <sodipodi:namedview
     pagecolor="#ffffff"
     bordercolor="#666666"
     borderopacity="1"
     objecttolerance="10"
     gridtolerance="10"
     guidetolerance="10"
     inkscape:pageopacity="0"
     inkscape:pageshadow="2"
     inkscape:window-width="1373"
     inkscape:window-height="895"
     id="namedview44"
     showgrid="false"
     inkscape:zoom="0.3486328"
     inkscape:cx="-502.71022"
     inkscape:cy="93.110118"
     inkscape:window-x="2455"
     inkscape:window-y="151"
     inkscape:window-maximized="0"
     inkscape:current-layer="svg42" />
  <g
     class=""
     transform="matrix(1.047396,0,0,1.047396,-11.639853,-11.365012)"
     id="g14">
    <g
       id="g12">
      <path
         d="m 103.432,17.844 c -1.118,0.005 -2.234,0.032 -3.348,0.08 -2.547,0.11 -5.083,0.334 -7.604,0.678 -20.167,2.747 -39.158,13.667 -52.324,33.67 -24.613,37.4 2.194,98.025 56.625,98.025 0.536,0 1.058,-0.012 1.583,-0.022 v 0.704 h 60.565 c -10.758,31.994 -30.298,66.596 -52.448,101.43 -2.162,3.4 -4.254,6.878 -6.29,10.406 l 34.878,35.733 -56.263,9.423 c -32.728,85.966 -27.42,182.074 48.277,182.074 v -0.002 l 9.31,0.066 c 23.83,-0.57 46.732,-4.298 61.325,-12.887 4.174,-2.458 7.63,-5.237 10.467,-8.42 h -32.446 c -20.33,5.95 -40.8,-6.94 -47.396,-25.922 -8.956,-25.77 7.52,-52.36 31.867,-60.452 5.803,-1.93 11.723,-2.834 17.565,-2.834 v -0.406 h 178.33 c -0.57,-44.403 16.35,-90.125 49.184,-126 23.955,-26.176 42.03,-60.624 51.3,-94.846 l -41.225,-24.932 38.272,-6.906 -43.37,-25.807 h -0.005 l 0.002,-0.002 0.002,0.002 52.127,-8.85 C 457.16,52.713 433.552,23.734 385.022,23.734 341.14,32.26 222.11,35.29 149.34,28.496 134.452,21.733 118.793,17.773 103.432,17.844 Z"
         class=""
         id="path2"
         inkscape:connector-curvature="0"
         style="fill:#facdd2;fill-opacity:1;stroke:#4a4a4a;stroke-width:10;stroke-opacity:1" />
      <path
         d="m 103.896,36.547 c 13.137,0.043 27.407,3.804 41.247,10.63 l 0.033,-0.07 c 4.667,4.735 8.542,9.737 11.68,14.985 H 82.92 l 10.574,14.78 c 10.608,14.83 19.803,31.99 21.09,42.024 0.643,5.017 -0.11,7.167 -1.814,8.836 -1.705,1.67 -6.228,3.875 -15.99,3.875 -40.587,0 -56.878,-44.952 -41.012,-69.06 C 66.238,46.64 79.582,39.22 95.002,37.12 c 2.89,-0.395 5.863,-0.583 8.894,-0.573 z"
         class=""
         id="path4"
         inkscape:connector-curvature="0"
         style="fill:#d0021b;fill-opacity:1;stroke:#4a4a4a;stroke-width:10;stroke-opacity:1" />
      <path
         d="m 118.5,80.78 h 46.28 c 4.275,15.734 3.656,33.07 -0.544,51.51 H 131.52 c 1.9,-5.027 2.268,-10.574 1.6,-15.77 -1.527,-11.913 -7.405,-24.065 -14.62,-35.74 z"
         class=""
         id="path6"
         inkscape:connector-curvature="0"
         style="fill:#facdd2;fill-opacity:1;stroke:#4a4a4a;stroke-width:10;stroke-opacity:1" />
      <path
         d="m 220.053,397.875 c 6.44,6.84 11.192,15.31 13.37,24.914 3.797,16.736 3.092,31.208 -1.767,43.204 -4.526,11.175 -12.576,19.79 -22.29,26 h 237.19 c 14.448,0 24.887,-5.678 32.2,-14.318 7.312,-8.64 11.2,-20.514 10.705,-32.352 -0.186,-4.473 -0.978,-8.913 -2.407,-13.18 l -69.91,-8.205 42.017,-20.528 c -8.32,-3.442 -18.64,-5.537 -31.375,-5.537 H 220.053 Z"
         class=""
         id="path8"
         inkscape:connector-curvature="0"
         style="fill:#facdd2;fill-opacity:1;stroke:#4a4a4a;stroke-width:10;stroke-opacity:1" />
      <path
         d="m 177.385,398.381 c -1.152,-0.003 -2.306,0.048 -3.457,0.153 -2.633,0.242 -5.256,0.775 -7.824,1.63 -15.11,5.02 -25.338,21.54 -20.11,36.583 3.673,10.57 15.347,17.71 25.654,13.938 l 1.555,-0.57 h 43.354 c 0.946,-6.36 0.754,-13.882 -1.358,-23.192 -3.71,-16.358 -20.543,-28.483 -37.815,-28.54 z"
         class="selected"
         id="path10"
         inkscape:connector-curvature="0"
         style="fill:#d0021b;fill-opacity:1;stroke:#4a4a4a;stroke-width:10;stroke-opacity:1" />
    </g>
  </g>
  <g
     id="g848"
     class=""
     transform="matrix(0.48770882,0,0,0.48770882,123.73986,157.26792)">
    <g
       id="g846">
      <path
         id="path818"
         class=""
         d="m 237.4,20.73 c -6.1,42.1 -26.8,64.2 -63.9,64 31.6,4.5 63.8,8 63.9,64.07 -0.6,-46.1 24.5,-63.07 64.1,-64.07 -38,-1.5 -64.9,-16.3 -64.1,-64 z"
         inkscape:connector-curvature="0"
         style="fill:#d0021b;fill-opacity:1;stroke:#4a4a4a;stroke-width:10;stroke-opacity:1" />
      <path
         id="path820"
         class=""
         d="m 365.2,32.31 c -9.1,14.25 -20.8,21.29 -38.9,10.28 14.9,11.79 18.6,24.76 10.2,38.97 8.9,-11.18 17.5,-22.73 39,-10.27 C 357.7,61.23 356.7,47.72 365.2,32.31 Z"
         inkscape:connector-curvature="0"
         style="fill:#f5a623;fill-opacity:1;stroke:#4a4a4a;stroke-width:10;stroke-opacity:1" />
      <path
         id="path822"
         class=""
         d="m 59.68,41.69 c -2.7,18.8 -12,28.6 -28.5,28.5 14.1,2 28.4,3.6 28.5,28.52 -0.3,-20.5 10.9,-28.12 28.5,-28.52 -16.9,-0.7 -28.9,-7.3 -28.5,-28.5 z"
         inkscape:connector-curvature="0"
         style="fill:#f8e71c;fill-opacity:1;stroke:#4a4a4a;stroke-width:10;stroke-opacity:1" />
      <path
         id="path824"
         class=""
         d="m 431,66.28 c -2.7,18.8 -12,28.6 -28.5,28.5 14.1,2 28.4,3.6 28.5,28.52 -0.3,-20.5 10.9,-28.12 28.5,-28.52 -16.9,-0.7 -28.9,-7.3 -28.5,-28.5 z"
         inkscape:connector-curvature="0"
         style="fill:#417505;fill-opacity:1;stroke:#4a4a4a;stroke-width:10;stroke-opacity:1" />
      <path
         id="path826"
         class=""
         d="m 120.3,116.4 c -15.8,53.7 -47.76,48 -79.35,43.4 35.65,10.2 49.35,37.3 43.33,79.4 12.66,-46 42.62,-52.6 79.42,-43.4 -37.6,-12.1 -56.9,-35.4 -43.4,-79.4 z"
         inkscape:connector-curvature="0"
         style="fill:#50e3c2;fill-opacity:1;stroke:#4a4a4a;stroke-width:10;stroke-opacity:1" />
      <path
         id="path828"
         class=""
         d="m 307.3,121.4 c -8.8,61.6 -39.3,94 -93.6,93.7 46.2,6.5 93.6,11.7 93.6,93.7 -0.8,-67.3 35.9,-92.2 93.8,-93.7 -55.5,-2.2 -94.9,-23.9 -93.8,-93.7 z"
         inkscape:connector-curvature="0"
         style="fill:#bd10e0;fill-opacity:1;stroke:#4a4a4a;stroke-width:10;stroke-opacity:1" />
      <path
         id="path830"
         class=""
         d="m 444.1,159.7 c -13.1,21.6 -29.5,28.8 -49.7,20.1 16.3,9.7 33,19.1 20.1,49.6 10.3,-25.2 27.9,-28.7 49.7,-20 -20.3,-9.7 -31.6,-23.9 -20.1,-49.7 z"
         inkscape:connector-curvature="0"
         style="fill:#b57204;fill-opacity:1;stroke:#4a4a4a;stroke-width:10;stroke-opacity:1" />
      <path
         id="path832"
         class=""
         d="m 50.7,243.2 c 9.16,16.7 7.63,30.1 -5.61,40 12.46,-6.9 24.85,-14.3 39.91,5.6 -12.57,-16.2 -8.2,-29 5.61,-40 -13.92,9.7 -27.47,11.6 -39.91,-5.6 z"
         inkscape:connector-curvature="0"
         style="fill:#fc88fc;fill-opacity:1" />
      <path
         id="path834"
         class=""
         d="m 187.9,243.5 c 11.4,26.8 -0.5,41.3 -21.7,50.9 22.7,-8.5 40.8,-4.5 50.9,21.7 -12.7,-31.8 4.8,-41.2 21.7,-50.9 -21,8.5 -37.8,0.9 -50.9,-21.7 z"
         inkscape:connector-curvature="0"
         style="fill:#4a90e2;fill-opacity:1" />
      <path
         id="path836"
         class=""
         d="m 415.9,256.1 c -26.6,64.7 -68.7,91.7 -127.8,76.4 48.6,19.8 98.8,38.5 76.4,127.9 17.5,-73.7 64.4,-90.7 127.9,-76.5 -59.9,-17.5 -96.9,-52 -76.5,-127.8 z"
         inkscape:connector-curvature="0"
         style="fill:#417505;fill-opacity:1" />
      <path
         id="path838"
         class=""
         d="M 99.94,295.5 C 115.6,353.3 100.8,393.6 52.62,414 96.08,402.2 140,388.8 171.3,461.4 144.9,402.1 167.9,366 218.6,342.6 c -50,19.2 -93.1,15 -118.66,-47.1 z"
         inkscape:connector-curvature="0"
         style="fill:#f8e71c;fill-opacity:1" />
      <path
         id="path840"
         class="selected"
         d="m 269.3,356.5 c -21.8,20.6 -43,23.6 -63.2,7.3 15.5,16.3 31.6,32.4 7.2,63.3 19.8,-25.6 41.2,-24.1 63.3,-7.3 -20.2,-17.4 -28.6,-37.5 -7.3,-63.3 z"
         inkscape:connector-curvature="0"
         style="fill:#8b572a;fill-opacity:1" />
      <path
         id="path842"
         class=""
         d="m 443.2,404 c -2.7,18.8 -12,28.6 -28.5,28.5 14.1,2 28.4,3.6 28.5,28.5 -0.3,-20.5 10.9,-28.1 28.5,-28.5 -16.9,-0.7 -28.9,-7.3 -28.5,-28.5 z"
         inkscape:connector-curvature="0"
         style="fill:#ffe0af;fill-opacity:1" />
      <path
         id="path844"
         class=""
         d="m 273.5,440 c -2.7,18.8 -12,28.6 -28.5,28.5 14.1,2 28.4,3.6 28.5,28.5 -0.3,-20.5 10.9,-28.1 28.5,-28.5 -16.9,-0.7 -28.9,-7.3 -28.5,-28.5 z"
         inkscape:connector-curvature="0"
         style="fill:#ffffff;fill-opacity:1" />
    </g>
  </g>
  <g
     id="g890"
     class=""
     transform="matrix(0.52732013,0,0,0.52732013,158.41396,101.98653)">
    <g
       id="g888">
      <path
         id="path874"
         class=""
         d="m 255.47,18.156 c -84.31,0 -168.623,24.647 -236.574,73.918 v 23.438 c 50.19,-39.58 111.385,-64.135 175.24,-73.674 -51.622,23.514 -87.51,75.554 -87.51,135.974 0,40.735 16.32,77.648 42.767,104.584 -47.456,-11.63 -92.198,-31.25 -130.497,-58.86 v 22.757 c 44.69,29.778 96.406,49.772 150.534,60.012 1.995,-3.625 4.2,-7.076 6.654,-10.32 6.292,-8.323 14.39,-15.157 24.113,-19.692 -5.343,-11.957 -8.326,-25.697 -8.326,-40.293 0,-3.03 0.143,-6.017 0.394,-8.965 C 183.252,214.31 177.938,198.78 177.938,182 c 0,-43.095 34.937,-78.03 78.032,-78.03 3.037,0 6.02,0.192 8.968,0.53 -9.23,8.076 -15.063,19.928 -15.063,33.156 0,6.005 1.205,11.727 3.38,16.944 0.903,-0.048 1.81,-0.08 2.722,-0.08 0.833,0 1.66,0.028 2.484,0.068 0.068,-0.003 0.082,-0.007 0.15,-0.01 1.08,-0.038 2.476,-0.007 4.167,0.233 16.587,2.16 30.802,11.81 40.832,25.82 11.56,-2.593 21.395,-9.72 27.546,-19.442 1.83,6.626 2.844,13.601 2.844,20.811 0,16.768 -5.313,32.282 -14.314,45.002 0.252,2.96 0.394,5.958 0.394,8.998 0,15.06 -3.165,29.22 -8.834,41.44 8.956,4.67 16.493,11.467 22.47,19.61 2.246,3.063 4.297,6.308 6.182,9.704 55.55,-10.205 108.627,-30.672 154.276,-61.41 V 222.53 c -38.516,28.083 -83.647,48.018 -131.56,59.796 26.408,-26.93 42.7,-63.814 42.7,-104.514 -0.002,-60.238 -35.678,-112.143 -87.048,-135.757 64.23,9.828 125.71,34.86 175.908,75.13 V 93.595 C 425.86,43.295 340.662,18.155 255.469,18.155 Z"
         inkscape:connector-curvature="0"
         style="fill:#000000;fill-opacity:1;stroke:#4a4a4a;stroke-width:10;stroke-opacity:1" />
      <path
         id="path876"
         class=""
         d="m 0.206,106.598 c -0.162,0.135 -0.326,0.267 -0.488,0.402 l 0.487,0.586 v -0.988 z"
         inkscape:connector-curvature="0"
         style="fill:#8b572a;fill-opacity:1;stroke:#4a4a4a;stroke-width:10;stroke-opacity:1" />
      <path
         id="path878"
         class="selected"
         d="m 255.976,173.208 c -11.795,0 -22.754,6.205 -31.28,17.437 C 216.172,201.875 210.56,218 210.56,236 c 0,18 5.612,34.123 14.137,45.354 8.526,11.23 19.485,17.433 31.28,17.433 11.795,0 22.75,-6.203 31.277,-17.433 C 295.78,270.124 301.39,254 301.39,236 c 0,-18.002 -5.61,-34.127 -14.136,-45.357 -8.526,-11.23 -19.482,-17.434 -31.277,-17.434 z"
         inkscape:connector-curvature="0"
         style="fill:#c1a882;fill-opacity:1;stroke:#4a4a4a;stroke-width:10;stroke-opacity:1" />
      <path
         id="path880"
         class=""
         d="m 237.728,213.602 c 5.636,0 10.206,10.467 10.206,23.378 0,12.912 -4.57,23.38 -10.207,23.38 -5.64,0 -10.21,-10.468 -10.21,-23.38 0,-12.91 4.57,-23.378 10.21,-23.378 z"
         inkscape:connector-curvature="0"
         style="fill:#000000;fill-opacity:1;stroke:#4a4a4a;stroke-width:10;stroke-opacity:1" />
      <path
         id="path882"
         class=""
         d="m 274.912,213.602 c 5.637,0 10.207,10.467 10.207,23.378 0,12.912 -4.57,23.38 -10.206,23.38 -5.637,0 -10.207,-10.468 -10.207,-23.38 0,-12.91 4.57,-23.378 10.207,-23.378 z"
         inkscape:connector-curvature="0"
         style="fill:#000000;fill-opacity:1;stroke:#4a4a4a;stroke-width:10;stroke-opacity:1" />
      <path
         id="path884"
         class=""
         d="m 0.207,232.584 -0.176,0.228 0.177,0.133 v -0.36 z"
         inkscape:connector-curvature="0"
         style="fill:#000000;fill-opacity:1;stroke:#4a4a4a;stroke-width:10;stroke-opacity:1" />
      <path
         id="path886"
         class=""
         d="m 209.627,292.396 c -7.57,3.072 -13.498,8.063 -18.635,14.858 -7.33,9.696 -12.63,23.298 -16.13,39.092 -6.996,31.587 -6.803,71.397 -6.803,104.47 V 493.1 h 22.008 v -99.274 h 18.69 V 493.1 h 93.666 v -99.274 h 18.69 V 493.1 h 22.738 v -42.284 c 0,-32.736 -1.074,-72.096 -8.71,-103.533 -3.82,-15.718 -9.29,-29.36 -16.494,-39.176 -4.895,-6.67 -10.388,-11.61 -17.052,-14.773 -11.274,14.492 -27.46,24.14 -45.62,24.14 -18.447,0 -34.87,-9.945 -46.163,-24.822 -0.064,-0.083 -0.123,-0.172 -0.186,-0.256 z"
         inkscape:connector-curvature="0"
         style="fill:#8b572a;fill-opacity:1;stroke:#4a4a4a;stroke-width:10;stroke-opacity:1" />
    </g>
  </g>
</svg>
