<?xml version="1.0" encoding="UTF-8" standalone="no"?>
<svg
   xmlns:dc="http://purl.org/dc/elements/1.1/"
   xmlns:cc="http://creativecommons.org/ns#"
   xmlns:rdf="http://www.w3.org/1999/02/22-rdf-syntax-ns#"
   xmlns:svg="http://www.w3.org/2000/svg"
   xmlns="http://www.w3.org/2000/svg"
   xmlns:sodipodi="http://sodipodi.sourceforge.net/DTD/sodipodi-0.dtd"
   xmlns:inkscape="http://www.inkscape.org/namespaces/inkscape"
   viewBox="0 0 512 512"
   style="height: 64px; width: 64px;"
   version="1.1"
   id="svg42"
   sodipodi:docname="spell-aspect-de-la-succube.svg"
   inkscape:version="0.92.3 (2405546, 2018-03-11)"
   inkscape:export-filename="/home/plic/Téléchargements/spell-aspect-de-la-succube.png"
   inkscape:export-xdpi="24"
   inkscape:export-ydpi="24">
  <metadata
     id="metadata48">
    <rdf:RDF>
      <cc:Work
         rdf:about="">
        <dc:format>image/svg+xml</dc:format>
        <dc:type
           rdf:resource="http://purl.org/dc/dcmitype/StillImage" />
        <dc:title></dc:title>
      </cc:Work>
    </rdf:RDF>
  </metadata>
  <defs
     id="defs46" />
  <sodipodi:namedview
     pagecolor="#ffffff"
     bordercolor="#666666"
     borderopacity="1"
     objecttolerance="10"
     gridtolerance="10"
     guidetolerance="10"
     inkscape:pageopacity="0"
     inkscape:pageshadow="2"
     inkscape:window-width="1673"
     inkscape:window-height="1023"
     id="namedview44"
     showgrid="false"
     inkscape:zoom="1.138"
     inkscape:cx="185.67645"
     inkscape:cy="255.74262"
     inkscape:window-x="2167"
     inkscape:window-y="27"
     inkscape:window-maximized="0"
     inkscape:current-layer="svg42" />
  <g
     class=""
     transform="matrix(1.0482978,0,0,1.0482978,-12.077625,-11.804758)"
     id="g14">
    <g
       id="g12">
      <path
         d="m 103.432,17.844 c -1.118,0.005 -2.234,0.032 -3.348,0.08 -2.547,0.11 -5.083,0.334 -7.604,0.678 -20.167,2.747 -39.158,13.667 -52.324,33.67 -24.613,37.4 2.194,98.025 56.625,98.025 0.536,0 1.058,-0.012 1.583,-0.022 v 0.704 h 60.565 c -10.758,31.994 -30.298,66.596 -52.448,101.43 -2.162,3.4 -4.254,6.878 -6.29,10.406 l 34.878,35.733 -56.263,9.423 c -32.728,85.966 -27.42,182.074 48.277,182.074 v -0.002 l 9.31,0.066 c 23.83,-0.57 46.732,-4.298 61.325,-12.887 4.174,-2.458 7.63,-5.237 10.467,-8.42 h -32.446 c -20.33,5.95 -40.8,-6.94 -47.396,-25.922 -8.956,-25.77 7.52,-52.36 31.867,-60.452 5.803,-1.93 11.723,-2.834 17.565,-2.834 v -0.406 h 178.33 c -0.57,-44.403 16.35,-90.125 49.184,-126 23.955,-26.176 42.03,-60.624 51.3,-94.846 l -41.225,-24.932 38.272,-6.906 -43.37,-25.807 h -0.005 l 0.002,-0.002 0.002,0.002 52.127,-8.85 C 457.16,52.713 433.552,23.734 385.022,23.734 341.14,32.26 222.11,35.29 149.34,28.496 134.452,21.733 118.793,17.773 103.432,17.844 Z"
         class="selected"
         id="path2"
         inkscape:connector-curvature="0"
         style="fill:#d9fdb2;fill-opacity:1;stroke:#4a4a4a;stroke-width:10;stroke-opacity:1" />
      <path
         d="m 103.896,36.547 c 13.137,0.043 27.407,3.804 41.247,10.63 l 0.033,-0.07 c 4.667,4.735 8.542,9.737 11.68,14.985 H 82.92 l 10.574,14.78 c 10.608,14.83 19.803,31.99 21.09,42.024 0.643,5.017 -0.11,7.167 -1.814,8.836 -1.705,1.67 -6.228,3.875 -15.99,3.875 -40.587,0 -56.878,-44.952 -41.012,-69.06 C 66.238,46.64 79.582,39.22 95.002,37.12 c 2.89,-0.395 5.863,-0.583 8.894,-0.573 z"
         class=""
         id="path4"
         inkscape:connector-curvature="0"
         style="fill:#7ed321;fill-opacity:1;stroke:#4a4a4a;stroke-width:10;stroke-opacity:1" />
      <path
         d="m 118.5,80.78 h 46.28 c 4.275,15.734 3.656,33.07 -0.544,51.51 H 131.52 c 1.9,-5.027 2.268,-10.574 1.6,-15.77 -1.527,-11.913 -7.405,-24.065 -14.62,-35.74 z"
         class=""
         id="path6"
         inkscape:connector-curvature="0"
         style="fill:#d9fdb2;fill-opacity:1;stroke:#4a4a4a;stroke-width:10;stroke-opacity:1" />
      <path
         d="m 220.053,397.875 c 6.44,6.84 11.192,15.31 13.37,24.914 3.797,16.736 3.092,31.208 -1.767,43.204 -4.526,11.175 -12.576,19.79 -22.29,26 h 237.19 c 14.448,0 24.887,-5.678 32.2,-14.318 7.312,-8.64 11.2,-20.514 10.705,-32.352 -0.186,-4.473 -0.978,-8.913 -2.407,-13.18 l -69.91,-8.205 42.017,-20.528 c -8.32,-3.442 -18.64,-5.537 -31.375,-5.537 H 220.053 Z"
         class=""
         id="path8"
         inkscape:connector-curvature="0"
         style="fill:#d9fdb2;fill-opacity:1;stroke:#4a4a4a;stroke-width:10;stroke-opacity:1" />
      <path
         d="m 177.385,398.381 c -1.152,-0.003 -2.306,0.048 -3.457,0.153 -2.633,0.242 -5.256,0.775 -7.824,1.63 -15.11,5.02 -25.338,21.54 -20.11,36.583 3.673,10.57 15.347,17.71 25.654,13.938 l 1.555,-0.57 h 43.354 c 0.946,-6.36 0.754,-13.882 -1.358,-23.192 -3.71,-16.358 -20.543,-28.483 -37.815,-28.54 z"
         class=""
         id="path10"
         inkscape:connector-curvature="0"
         style="fill:#7ed321;fill-opacity:1;stroke:#4a4a4a;stroke-width:10;stroke-opacity:1" />
    </g>
  </g>
  <g
     id="g838"
     class=""
     transform="matrix(-0.58861252,0,0,0.58861252,406.44137,85.307013)">
    <g
       id="g836">
      <path
         id="path818"
         class=""
         d="m 193.469,28.412 c -17.378,4.426 -17.777,17.713 -24.166,28.545 15.713,3.49 31.499,5.431 47.31,6.824 -19.026,2.612 -37.99,5.671 -57.69,3.434 -3.78,2.08 -8.637,3.668 -15.062,4.521 -38.245,5.079 -85.586,-7.08 -85.586,-7.08 14.725,13.872 31.663,25.12 49.967,33.897 20.597,2.879 41.542,4.01 62.596,4.605 -14.231,1.502 -28.446,3.14 -42.775,3.756 32.652,11.983 65.808,17.573 100.643,15.921 -6.721,12.789 -23.731,33.608 -33.272,39.397 -31.955,-3.837 -47.598,-15.35 -68.774,-31.885 l -11.078,14.184 c 25.514,18.283 58.257,33.97 83.658,36.12 12.047,-5.934 21.5,-16.053 29.97,-26.266 l -0.044,1.138 c 19.632,8.81 23.686,9.035 41.809,0.64 12.495,8.096 28.717,9.24 32.097,-6.782 17.973,16.734 25.381,23.735 43.123,32.507 28.711,-11.692 55.616,-30.207 76.448,-46.279 l -11.014,-14.234 c -21.06,15.793 -43.916,32.285 -64.316,40.746 -17.586,-9.322 -21.863,-16.197 -34.504,-28.453 -4.613,-9.585 -14.124,-13.605 -22.29,-14.487 -6.373,5.265 -14.388,8.419 -22.765,7.182 -10.082,-1.488 -17.546,-8.862 -21.58,-17.723 -4.034,-8.86 -5.23,-19.638 -3.299,-30.898 1.932,-11.26 6.675,-21.16 13.475,-28.422 6.8,-7.261 16.363,-12.121 26.445,-10.633 10.082,1.489 17.55,8.862 21.584,17.723 1.473,3.235 2.563,6.728 3.266,10.404 0.964,-2.271 1.832,-4.582 2.601,-6.926 7.034,-29.675 -21.68,-38.714 -54.35,-39.08 -20.574,0.29 -43.074,2.777 -62.427,7.604 z"
         inkscape:connector-curvature="0"
         style="fill:#f5a623;fill-opacity:1;stroke:#4a4a4a;stroke-width:10;stroke-opacity:1" />
      <path
         id="path820"
         class=""
         d="m 381.047,35.912 c -8.284,0 -15,6.716 -15,15 0,8.284 6.716,15 15,15 8.284,0 15,-6.716 15,-15 0,-8.284 -6.716,-15 -15,-15 z"
         inkscape:connector-curvature="0"
         style="fill:#4a4a4a;fill-opacity:0" />
      <path
         id="path822"
         class=""
         d="m 269.453,61.375 c -3.875,4.138 -7.39,10.945 -8.771,18.996 -1.382,8.05 -0.317,15.534 1.982,20.584 2.3,5.05 5.24,7.239 8.135,7.666 2.895,0.427 6.421,-0.807 10.297,-4.945 3.875,-4.139 7.392,-10.944 8.773,-18.995 1.381,-8.05 0.317,-15.535 -1.982,-20.585 -2.3,-5.05 -5.24,-7.237 -8.135,-7.665 -4.243,-0.231 -8.269,2.82 -10.299,4.944 z"
         inkscape:connector-curvature="0"
         style="fill:#c5a572;fill-opacity:1;stroke:#4a4a4a;stroke-width:10;stroke-opacity:1" />
      <path
         id="path824"
         class=""
         d="m 349.683,84.165 c -6.928,0 -11.258,7.5 -7.794,13.5 1.607,2.785 4.579,4.5 7.794,4.5 6.928,0 11.258,-7.5 7.794,-13.5 -1.607,-2.785 -4.579,-4.5 -7.794,-4.5 z"
         inkscape:connector-curvature="0"
         style="fill:#4a4a4a;fill-opacity:0" />
      <path
         id="path826"
         class="selected"
         d="m 270.461,176.019 c -14.977,6.472 -25.22,5.696 -39.422,0.01 1.657,6.73 4.533,13.244 9.236,19.672 -7.69,7.912 -9.967,15.823 -12.443,23.735 9.483,-6.672 20.662,-11.111 31.904,-13.77 11.493,-2.718 23.226,-3.79 34.174,-3.5 6.357,0.169 12.435,0.81 18.06,1.842 -4.633,-6.1 -10.807,-12.073 -19.199,-16.899 0.955,-2.053 1.832,-4.141 2.631,-6.26 -8.403,1.84 -18.083,-1.48 -24.941,-4.83 z"
         inkscape:connector-curvature="0"
         style="fill:#8b572a;fill-opacity:1;stroke:#4a4a4a;stroke-width:10;stroke-opacity:1" />
      <path
         id="path828"
         class=""
         d="m 286.986,219.512 c -19.483,0.122 -39.377,5.801 -53.25,17.898 -10.861,9.47 -16.423,26.89 -13.629,41.027 11.581,58.596 119.687,76.114 116.93,135.78 -1.093,23.664 -27.954,44.51 -51.144,49.345 -24.584,5.126 -70.604,-26.283 -70.604,-26.283 28.785,-55.458 -0.113,-92.09 -25.201,-113.807 -2.41,30.637 -14.38,61.716 -5.627,91.172 -38.792,-3.27 -54.86,4.952 -98.57,-3.873 18.825,25.928 63.62,59.958 116.382,40.276 0,0 40.045,37.29 65.422,39.492 45.336,3.934 105.162,-9.596 127.28,-49.365 29.11,-52.343 -3.15,-124.766 -33.178,-176.588 -10.785,-18.612 -28.317,-36.327 -49.1,-41.88 -8.083,-2.158 -16.854,-3.25 -25.71,-3.194 z"
         inkscape:connector-curvature="0"
         style="fill:#8b3c00;fill-opacity:1;stroke:#4a4a4a;stroke-width:10;stroke-opacity:1" />
      <path
         id="path830"
         class=""
         d="m 72.008,237.058 c -8.284,0 -15,6.716 -15,15 0,8.285 6.716,15 15,15 8.284,0 15,-6.715 15,-15 0,-8.284 -6.716,-15 -15,-15 z"
         inkscape:connector-curvature="0"
         style="fill:#d0021b;fill-opacity:0" />
      <path
         id="path832"
         class=""
         d="m 56.326,313.355 c -6.928,0 -11.258,7.5 -7.794,13.5 1.607,2.785 4.579,4.5 7.794,4.5 6.928,0 11.258,-7.5 7.794,-13.5 -1.607,-2.785 -4.579,-4.5 -7.794,-4.5 z"
         inkscape:connector-curvature="0"
         style="fill:#d0021b;fill-opacity:0" />
      <path
         id="path834"
         class=""
         d="m 92.707,352.375 c -6.928,0 -11.258,7.5 -7.794,13.5 1.607,2.785 4.579,4.5 7.794,4.5 6.928,0 11.258,-7.5 7.794,-13.5 -1.607,-2.785 -4.579,-4.5 -7.794,-4.5 z"
         inkscape:connector-curvature="0"
         style="fill:#ffffff;fill-opacity:1" />
    </g>
  </g>
</svg>
