<?xml version="1.0" encoding="UTF-8" standalone="no"?>
<svg
   xmlns:dc="http://purl.org/dc/elements/1.1/"
   xmlns:cc="http://creativecommons.org/ns#"
   xmlns:rdf="http://www.w3.org/1999/02/22-rdf-syntax-ns#"
   xmlns:svg="http://www.w3.org/2000/svg"
   xmlns="http://www.w3.org/2000/svg"
   xmlns:sodipodi="http://sodipodi.sourceforge.net/DTD/sodipodi-0.dtd"
   xmlns:inkscape="http://www.inkscape.org/namespaces/inkscape"
   viewBox="0 0 512 512"
   style="height: 64px; width: 64px;"
   version="1.1"
   id="svg42"
   sodipodi:docname="spell-boule-de-feu.svg"
   inkscape:version="0.92.3 (2405546, 2018-03-11)"
   inkscape:export-filename="/home/plic/Téléchargements/spell-boule-de-feu.png"
   inkscape:export-xdpi="24"
   inkscape:export-ydpi="24">
  <metadata
     id="metadata48">
    <rdf:RDF>
      <cc:Work
         rdf:about="">
        <dc:format>image/svg+xml</dc:format>
        <dc:type
           rdf:resource="http://purl.org/dc/dcmitype/StillImage" />
        <dc:title></dc:title>
      </cc:Work>
    </rdf:RDF>
  </metadata>
  <defs
     id="defs46">
    <radialGradient
       id="gradient-2"
       gradientTransform="scale(0.99730599,1.0027013)"
       cx="265.71103"
       cy="259.12267"
       fx="265.71103"
       fy="259.12267"
       r="239.51962"
       gradientUnits="userSpaceOnUse">
      <stop
         id="stop818"
         stop-opacity="1"
         stop-color="#d0021b"
         offset="0%" />
      <stop
         id="stop820"
         stop-opacity="1"
         stop-color="#f5a623"
         offset="100%" />
    </radialGradient>
    <radialGradient
       id="gradient-3"
       gradientTransform="scale(1.0701786,0.93442349)"
       cx="310.52306"
       cy="309.45111"
       fx="310.52306"
       fy="309.45111"
       r="54.621731"
       gradientUnits="userSpaceOnUse">
      <stop
         id="stop823"
         stop-opacity="1"
         stop-color="#d0021b"
         offset="0%" />
      <stop
         id="stop825"
         stop-opacity="1"
         stop-color="#f5a623"
         offset="100%" />
    </radialGradient>
    <radialGradient
       id="gradient-4"
       gradientTransform="scale(0.78611318,1.2720815)"
       cx="544.91275"
       cy="254.80429"
       fx="544.91275"
       fy="254.80429"
       r="66.243526"
       gradientUnits="userSpaceOnUse">
      <stop
         id="stop828"
         stop-opacity="1"
         stop-color="#d0021b"
         offset="0%" />
      <stop
         id="stop830"
         stop-opacity="1"
         stop-color="#f5a623"
         offset="100%" />
    </radialGradient>
    <radialGradient
       id="gradient-5"
       gradientTransform="scale(0.86976044,1.1497419)"
       cx="317.93494"
       cy="286.30618"
       fx="317.93494"
       fy="286.30618"
       r="41.781893"
       gradientUnits="userSpaceOnUse">
      <stop
         id="stop833"
         stop-opacity="1"
         stop-color="#d0021b"
         offset="0%" />
      <stop
         id="stop835"
         stop-opacity="1"
         stop-color="#f5a623"
         offset="100%" />
    </radialGradient>
    <radialGradient
       id="gradient-6"
       gradientTransform="scale(0.8166824,1.2244662)"
       cx="468.88443"
       cy="300.20756"
       fx="468.88443"
       fy="300.20756"
       r="48.43909"
       gradientUnits="userSpaceOnUse">
      <stop
         id="stop838"
         stop-opacity="1"
         stop-color="#d0021b"
         offset="0%" />
      <stop
         id="stop840"
         stop-opacity="1"
         stop-color="#f5a623"
         offset="100%" />
    </radialGradient>
    <radialGradient
       id="gradient-7"
       gradientTransform="scale(0.94944814,1.0532434)"
       cx="319.02458"
       cy="364.52817"
       fx="319.02458"
       fy="364.52817"
       r="62.502533"
       gradientUnits="userSpaceOnUse">
      <stop
         id="stop843"
         stop-opacity="1"
         stop-color="#d0021b"
         offset="0%" />
      <stop
         id="stop845"
         stop-opacity="1"
         stop-color="#f5a623"
         offset="100%" />
    </radialGradient>
    <radialGradient
       id="gradient-8"
       gradientTransform="scale(1.4226614,0.70290795)"
       cx="267.82716"
       cy="614.7519"
       fx="267.82716"
       fy="614.7519"
       r="65.812317"
       gradientUnits="userSpaceOnUse">
      <stop
         id="stop848"
         stop-opacity="1"
         stop-color="#d0021b"
         offset="0%" />
      <stop
         id="stop850"
         stop-opacity="1"
         stop-color="#f5a623"
         offset="100%" />
    </radialGradient>
  </defs>
  <sodipodi:namedview
     pagecolor="#ffffff"
     bordercolor="#666666"
     borderopacity="1"
     objecttolerance="10"
     gridtolerance="10"
     guidetolerance="10"
     inkscape:pageopacity="0"
     inkscape:pageshadow="2"
     inkscape:window-width="1622"
     inkscape:window-height="830"
     id="namedview44"
     showgrid="false"
     inkscape:zoom="1.1083927"
     inkscape:cx="265.16816"
     inkscape:cy="381.6808"
     inkscape:window-x="2119"
     inkscape:window-y="130"
     inkscape:window-maximized="0"
     inkscape:current-layer="svg42" />
  <g
     class=""
     transform="matrix(1.0453788,0,0,1.0453788,-13.195561,-10.135042)"
     id="g14">
    <g
       id="g12">
      <path
         d="m 103.432,17.844 c -1.118,0.005 -2.234,0.032 -3.348,0.08 -2.547,0.11 -5.083,0.334 -7.604,0.678 -20.167,2.747 -39.158,13.667 -52.324,33.67 -24.613,37.4 2.194,98.025 56.625,98.025 0.536,0 1.058,-0.012 1.583,-0.022 v 0.704 h 60.565 c -10.758,31.994 -30.298,66.596 -52.448,101.43 -2.162,3.4 -4.254,6.878 -6.29,10.406 l 34.878,35.733 -56.263,9.423 c -32.728,85.966 -27.42,182.074 48.277,182.074 v -0.002 l 9.31,0.066 c 23.83,-0.57 46.732,-4.298 61.325,-12.887 4.174,-2.458 7.63,-5.237 10.467,-8.42 h -32.446 c -20.33,5.95 -40.8,-6.94 -47.396,-25.922 -8.956,-25.77 7.52,-52.36 31.867,-60.452 5.803,-1.93 11.723,-2.834 17.565,-2.834 v -0.406 h 178.33 c -0.57,-44.403 16.35,-90.125 49.184,-126 23.955,-26.176 42.03,-60.624 51.3,-94.846 l -41.225,-24.932 38.272,-6.906 -43.37,-25.807 h -0.005 l 0.002,-0.002 0.002,0.002 52.127,-8.85 C 457.16,52.713 433.552,23.734 385.022,23.734 341.14,32.26 222.11,35.29 149.34,28.496 134.452,21.733 118.793,17.773 103.432,17.844 Z"
         class=""
         id="path2"
         inkscape:connector-curvature="0"
         style="fill:#ffe0af;fill-opacity:1;stroke:#4a4a4a;stroke-width:10;stroke-opacity:1" />
      <path
         d="m 103.896,36.547 c 13.137,0.043 27.407,3.804 41.247,10.63 l 0.033,-0.07 c 4.667,4.735 8.542,9.737 11.68,14.985 H 82.92 l 10.574,14.78 c 10.608,14.83 19.803,31.99 21.09,42.024 0.643,5.017 -0.11,7.167 -1.814,8.836 -1.705,1.67 -6.228,3.875 -15.99,3.875 -40.587,0 -56.878,-44.952 -41.012,-69.06 C 66.238,46.64 79.582,39.22 95.002,37.12 c 2.89,-0.395 5.863,-0.583 8.894,-0.573 z"
         class=""
         id="path4"
         inkscape:connector-curvature="0"
         style="fill:#b57204;fill-opacity:1;stroke:#4a4a4a;stroke-width:10;stroke-opacity:1" />
      <path
         d="m 118.5,80.78 h 46.28 c 4.275,15.734 3.656,33.07 -0.544,51.51 H 131.52 c 1.9,-5.027 2.268,-10.574 1.6,-15.77 -1.527,-11.913 -7.405,-24.065 -14.62,-35.74 z"
         class=""
         id="path6"
         inkscape:connector-curvature="0"
         style="fill:#ffe0af;fill-opacity:1;stroke:#4a4a4a;stroke-width:10;stroke-opacity:1" />
      <path
         d="m 220.053,397.875 c 6.44,6.84 11.192,15.31 13.37,24.914 3.797,16.736 3.092,31.208 -1.767,43.204 -4.526,11.175 -12.576,19.79 -22.29,26 h 237.19 c 14.448,0 24.887,-5.678 32.2,-14.318 7.312,-8.64 11.2,-20.514 10.705,-32.352 -0.186,-4.473 -0.978,-8.913 -2.407,-13.18 l -69.91,-8.205 42.017,-20.528 c -8.32,-3.442 -18.64,-5.537 -31.375,-5.537 H 220.053 Z"
         class=""
         id="path8"
         inkscape:connector-curvature="0"
         style="fill:#ffe0af;fill-opacity:1;stroke:#4a4a4a;stroke-width:10;stroke-opacity:1" />
      <path
         d="m 177.385,398.381 c -1.152,-0.003 -2.306,0.048 -3.457,0.153 -2.633,0.242 -5.256,0.775 -7.824,1.63 -15.11,5.02 -25.338,21.54 -20.11,36.583 3.673,10.57 15.347,17.71 25.654,13.938 l 1.555,-0.57 h 43.354 c 0.946,-6.36 0.754,-13.882 -1.358,-23.192 -3.71,-16.358 -20.543,-28.483 -37.815,-28.54 z"
         class="selected"
         id="path10"
         inkscape:connector-curvature="0"
         style="fill:#b57204;fill-opacity:1;stroke:#4a4a4a;stroke-width:10;stroke-opacity:1" />
    </g>
  </g>
  <g
     id="g871"
     class=""
     transform="matrix(-0.56561453,0,0,0.56561453,418.63195,79.767045)">
    <g
       id="g869">
      <path
         id="path855"
         class=""
         d="m 51,24.656 c -66.505,105.062 49.65,121.762 116.97,130.563 84.404,11.032 37.33,166.2 -71.814,84.405 0.045,58.045 58.398,82.567 95.063,94.625 40.878,13.43 -3.76,79.175 -83.25,61.22 327.925,246.796 476.227,-18.285 340.905,-223 -22.38,-33.857 -73.925,-67.47 -126.72,-63.47 126.32,83.08 -47.533,116.238 -80.436,-6.563 -20.76,-77.47 -143.593,17.79 -190.72,-77.78 z"
         inkscape:connector-curvature="0"
         style="fill:url(#gradient-2);stroke:#4a4a4a;stroke-width:10;stroke-opacity:1" />
      <path
         id="path857"
         class=""
         d="m 360.188,243.126 24.968,47.124 -20.906,42.47 -82.5,-58.626 c 20.543,-19.186 48.118,-30.937 78.438,-30.97 z"
         inkscape:connector-curvature="0"
         style="fill:url(#gradient-3);stroke:#4a4a4a;stroke-width:10;stroke-opacity:1" />
      <path
         id="path859"
         class=""
         d="m 382.438,245.281 c 52.99,10.323 93,56.96 93,112.97 0,3.995 -0.197,7.953 -0.594,11.844 l -50.938,28.25 12.25,-46.5 0.938,-3.53 -1.72,-3.22 -52.937,-99.813 z"
         inkscape:connector-curvature="0"
         style="fill:url(#gradient-4);stroke:#4a4a4a;stroke-width:10;stroke-opacity:1" />
      <path
         id="path861"
         class=""
         d="m 269.125,288 35.75,25.406 -59.375,53.28 c -0.202,-2.783 -0.313,-5.6 -0.313,-8.436 0,-26.456 8.937,-50.81 23.938,-70.25 z"
         inkscape:connector-curvature="0"
         style="fill:url(#gradient-5);stroke:#4a4a4a;stroke-width:10;stroke-opacity:1" />
      <path
         id="path863"
         class=""
         d="m 395.938,310.625 21.218,40 -15.875,60.25 -18.655,10.344 L 350,403.936 395.938,310.624 Z"
         inkscape:connector-curvature="0"
         style="fill:url(#gradient-6);stroke:#4a4a4a;stroke-width:10;stroke-opacity:1" />
      <path
         id="path865"
         class=""
         d="m 320.468,324.5 35.407,25.188 -22.406,45.5 -14.94,-7.907 -8.436,-4.5 -4.28,8.564 -25.064,50.125 c -14.917,-14.267 -26.003,-32.49 -31.563,-53 z"
         inkscape:connector-curvature="0"
         style="fill:url(#gradient-7);stroke:#4a4a4a;stroke-width:10;stroke-opacity:1" />
      <path
         id="path867"
         class="selected"
         d="m 469.656,394.344 c -15.138,45.91 -58.363,79.03 -109.344,79.03 -26.287,0 -50.495,-8.827 -69.875,-23.655 l 5.657,2.842 22.156,-44.28 60.094,31.843 4.47,2.375 4.436,-2.47 82.406,-45.686 z"
         inkscape:connector-curvature="0"
         style="fill:url(#gradient-8);stroke:#4a4a4a;stroke-width:10;stroke-opacity:1" />
    </g>
  </g>
</svg>
