<?xml version="1.0" encoding="UTF-8" standalone="no"?>
<svg
   xmlns:dc="http://purl.org/dc/elements/1.1/"
   xmlns:cc="http://creativecommons.org/ns#"
   xmlns:rdf="http://www.w3.org/1999/02/22-rdf-syntax-ns#"
   xmlns:svg="http://www.w3.org/2000/svg"
   xmlns="http://www.w3.org/2000/svg"
   xmlns:sodipodi="http://sodipodi.sourceforge.net/DTD/sodipodi-0.dtd"
   xmlns:inkscape="http://www.inkscape.org/namespaces/inkscape"
   viewBox="0 0 512 512"
   style="height: 64px; width: 64px;"
   version="1.1"
   id="svg42"
   sodipodi:docname="spell-ombre-mortelle.svg"
   inkscape:version="0.92.3 (2405546, 2018-03-11)"
   inkscape:export-filename="/home/plic/Téléchargements/spell-ombre-mortelle.png"
   inkscape:export-xdpi="24"
   inkscape:export-ydpi="24">
  <metadata
     id="metadata48">
    <rdf:RDF>
      <cc:Work
         rdf:about="">
        <dc:format>image/svg+xml</dc:format>
        <dc:type
           rdf:resource="http://purl.org/dc/dcmitype/StillImage" />
        <dc:title></dc:title>
      </cc:Work>
    </rdf:RDF>
  </metadata>
  <defs
     id="defs46" />
  <sodipodi:namedview
     pagecolor="#ffffff"
     bordercolor="#666666"
     borderopacity="1"
     objecttolerance="10"
     gridtolerance="10"
     guidetolerance="10"
     inkscape:pageopacity="0"
     inkscape:pageshadow="2"
     inkscape:window-width="1673"
     inkscape:window-height="1023"
     id="namedview44"
     showgrid="false"
     inkscape:zoom="0.40234375"
     inkscape:cx="-538.38837"
     inkscape:cy="258.90604"
     inkscape:window-x="2167"
     inkscape:window-y="27"
     inkscape:window-maximized="0"
     inkscape:current-layer="svg42" />
  <g
     class=""
     transform="matrix(1.0482978,0,0,1.0482978,-12.077625,-11.804758)"
     id="g14">
    <g
       id="g12">
      <path
         d="m 103.432,17.844 c -1.118,0.005 -2.234,0.032 -3.348,0.08 -2.547,0.11 -5.083,0.334 -7.604,0.678 -20.167,2.747 -39.158,13.667 -52.324,33.67 -24.613,37.4 2.194,98.025 56.625,98.025 0.536,0 1.058,-0.012 1.583,-0.022 v 0.704 h 60.565 c -10.758,31.994 -30.298,66.596 -52.448,101.43 -2.162,3.4 -4.254,6.878 -6.29,10.406 l 34.878,35.733 -56.263,9.423 c -32.728,85.966 -27.42,182.074 48.277,182.074 v -0.002 l 9.31,0.066 c 23.83,-0.57 46.732,-4.298 61.325,-12.887 4.174,-2.458 7.63,-5.237 10.467,-8.42 h -32.446 c -20.33,5.95 -40.8,-6.94 -47.396,-25.922 -8.956,-25.77 7.52,-52.36 31.867,-60.452 5.803,-1.93 11.723,-2.834 17.565,-2.834 v -0.406 h 178.33 c -0.57,-44.403 16.35,-90.125 49.184,-126 23.955,-26.176 42.03,-60.624 51.3,-94.846 l -41.225,-24.932 38.272,-6.906 -43.37,-25.807 h -0.005 l 0.002,-0.002 0.002,0.002 52.127,-8.85 C 457.16,52.713 433.552,23.734 385.022,23.734 341.14,32.26 222.11,35.29 149.34,28.496 134.452,21.733 118.793,17.773 103.432,17.844 Z"
         class="selected"
         id="path2"
         inkscape:connector-curvature="0"
         style="fill:#d9fdb2;fill-opacity:1;stroke:#4a4a4a;stroke-width:10;stroke-opacity:1" />
      <path
         d="m 103.896,36.547 c 13.137,0.043 27.407,3.804 41.247,10.63 l 0.033,-0.07 c 4.667,4.735 8.542,9.737 11.68,14.985 H 82.92 l 10.574,14.78 c 10.608,14.83 19.803,31.99 21.09,42.024 0.643,5.017 -0.11,7.167 -1.814,8.836 -1.705,1.67 -6.228,3.875 -15.99,3.875 -40.587,0 -56.878,-44.952 -41.012,-69.06 C 66.238,46.64 79.582,39.22 95.002,37.12 c 2.89,-0.395 5.863,-0.583 8.894,-0.573 z"
         class=""
         id="path4"
         inkscape:connector-curvature="0"
         style="fill:#7ed321;fill-opacity:1;stroke:#4a4a4a;stroke-width:10;stroke-opacity:1" />
      <path
         d="m 118.5,80.78 h 46.28 c 4.275,15.734 3.656,33.07 -0.544,51.51 H 131.52 c 1.9,-5.027 2.268,-10.574 1.6,-15.77 -1.527,-11.913 -7.405,-24.065 -14.62,-35.74 z"
         class=""
         id="path6"
         inkscape:connector-curvature="0"
         style="fill:#d9fdb2;fill-opacity:1;stroke:#4a4a4a;stroke-width:10;stroke-opacity:1" />
      <path
         d="m 220.053,397.875 c 6.44,6.84 11.192,15.31 13.37,24.914 3.797,16.736 3.092,31.208 -1.767,43.204 -4.526,11.175 -12.576,19.79 -22.29,26 h 237.19 c 14.448,0 24.887,-5.678 32.2,-14.318 7.312,-8.64 11.2,-20.514 10.705,-32.352 -0.186,-4.473 -0.978,-8.913 -2.407,-13.18 l -69.91,-8.205 42.017,-20.528 c -8.32,-3.442 -18.64,-5.537 -31.375,-5.537 H 220.053 Z"
         class=""
         id="path8"
         inkscape:connector-curvature="0"
         style="fill:#d9fdb2;fill-opacity:1;stroke:#4a4a4a;stroke-width:10;stroke-opacity:1" />
      <path
         d="m 177.385,398.381 c -1.152,-0.003 -2.306,0.048 -3.457,0.153 -2.633,0.242 -5.256,0.775 -7.824,1.63 -15.11,5.02 -25.338,21.54 -20.11,36.583 3.673,10.57 15.347,17.71 25.654,13.938 l 1.555,-0.57 h 43.354 c 0.946,-6.36 0.754,-13.882 -1.358,-23.192 -3.71,-16.358 -20.543,-28.483 -37.815,-28.54 z"
         class=""
         id="path10"
         inkscape:connector-curvature="0"
         style="fill:#7ed321;fill-opacity:1;stroke:#4a4a4a;stroke-width:10;stroke-opacity:1" />
    </g>
  </g>
  <g
     id="g937"
     class=""
     transform="matrix(0.62621301,0,0,0.62621301,81.415327,83.606033)">
    <g
       id="g935">
      <path
         id="path929"
         class="selected"
         d="m 332.031,66.13 c -28.807,-0.01 -55.439,14.149 -67.88,40.65 20.79,1.744 16,55.07 16,55.07 -11.814,16.687 -24.73,33.186 -36.589,50.146 0,0 -99.046,132.283 -178.378,168.025 -28.049,22.593 -33.305,36.532 -44.137,52.649 -4.877,9.54 9.257,14.324 11.701,13.2 22.726,-10.461 25.176,-20.866 47.07,-35.675 12.805,-5.026 23.839,-15.9 31.854,-11.049 34.962,20.86 107.556,44.28 118.271,38.706 17.857,-9.263 -5.78,-43.585 16.174,-89.057 31.97,-3.352 58.916,-0.885 88.332,-12.094 3.483,50.279 10.106,54.59 6.766,107.092 l 71.2,1.045 0.698,-14.61 -41.814,-11.105 c 11.528,-56.054 11.816,-78.996 4.672,-127.996 -0.956,-6.622 -53.746,-8.275 -81.012,-3.79 24.449,-24.202 40.274,-45.24 47.506,-68.44 l 0.027,0.189 c 7.637,15.923 30.083,33.958 35.336,37.125 27.704,11.048 38.214,7.982 62.955,3.887 4.907,-0.784 27.47,24.537 44.807,9.597 2.642,-20.238 16.522,-20.369 -4.938,-32.71 -4.847,-2.73 -27.063,7.462 -31.418,6.898 -20.21,-2.481 -30.954,-5.211 -58.45,-12.703 -10.23,-13.187 -32.676,-56.136 -55.43,-59.744 6.535,-14.15 28.226,-53.108 73.664,-66.237 -20.943,-26.54 -49.925,-39.057 -76.987,-39.068 z"
         inkscape:connector-curvature="0"
         style="fill:#9b9b9b;fill-opacity:1;stroke:#4a4a4a;stroke-width:10;stroke-opacity:1" />
      <path
         id="path931"
         class=""
         d="m 414.436,112.852 c -46.658,19.516 -58.266,50.4 -58.266,50.4 l 9.916,7.644 c 0,0 9.646,-4.765 48.35,-58.044 z"
         inkscape:connector-curvature="0"
         style="fill:#4a4a4a;fill-opacity:1;stroke:#4a4a4a;stroke-width:10;stroke-opacity:1" />
      <path
         id="path933"
         class=""
         d="m 437.476,272.857 -4.658,11.418 c 5.233,-0.083 10.425,0.47 15.328,1.608 -12.774,30.856 -23.938,59.635 -28.181,93.094 l -0.908,7.558 4.863,-5.889 c 20.805,-25.671 32.303,-55.25 44.95,-85.78 4.203,2.656 8.24,5.885 12.071,9.35 l 4.78,-11.374 -20.518,-8.526 -31.767,66.579 24.062,-69.713 -20.021,-8.325 z"
         inkscape:connector-curvature="0"
         style="fill:#4a4a4a;fill-opacity:1;stroke:#4a4a4a;stroke-width:10;stroke-opacity:1" />
    </g>
  </g>
</svg>
