<?xml version="1.0" encoding="UTF-8" standalone="no"?>
<svg
   xmlns:dc="http://purl.org/dc/elements/1.1/"
   xmlns:cc="http://creativecommons.org/ns#"
   xmlns:rdf="http://www.w3.org/1999/02/22-rdf-syntax-ns#"
   xmlns:svg="http://www.w3.org/2000/svg"
   xmlns="http://www.w3.org/2000/svg"
   xmlns:sodipodi="http://sodipodi.sourceforge.net/DTD/sodipodi-0.dtd"
   xmlns:inkscape="http://www.inkscape.org/namespaces/inkscape"
   viewBox="0 0 512 512"
   style="height: 64px; width: 64px;"
   version="1.1"
   id="svg42"
   sodipodi:docname="spell-animation-des-morts.svg"
   inkscape:version="0.92.3 (2405546, 2018-03-11)"
   inkscape:export-filename="/home/plic/Téléchargements/spell-animation-des-morts.png"
   inkscape:export-xdpi="24"
   inkscape:export-ydpi="24">
  <metadata
     id="metadata48">
    <rdf:RDF>
      <cc:Work
         rdf:about="">
        <dc:format>image/svg+xml</dc:format>
        <dc:type
           rdf:resource="http://purl.org/dc/dcmitype/StillImage" />
        <dc:title></dc:title>
      </cc:Work>
    </rdf:RDF>
  </metadata>
  <defs
     id="defs46">
    <radialGradient
       id="gradient-7">
      <stop
         id="stop818"
         stop-opacity="1"
         stop-color="#4a4a4a"
         offset="0%" />
      <stop
         id="stop820"
         stop-opacity="1"
         stop-color="#8b572a"
         offset="100%" />
    </radialGradient>
    <radialGradient
       id="gradient-7-3"
       gradientTransform="scale(0.89849695,1.1129698)"
       cx="320.72344"
       cy="272.9664"
       fx="320.72344"
       fy="272.9664"
       r="177.43532"
       gradientUnits="userSpaceOnUse">
      <stop
         id="stop849"
         stop-opacity="1"
         stop-color="#4a4a4a"
         offset="0%" />
      <stop
         id="stop851"
         stop-opacity="1"
         stop-color="#8b572a"
         offset="100%" />
    </radialGradient>
    <clipPath
       clipPathUnits="userSpaceOnUse"
       id="clipPath907">
      <rect
         style="opacity:0.522;fill:none;fill-opacity:1;stroke:#000000;stroke-width:7.66911602;stroke-miterlimit:4;stroke-dasharray:none;stroke-opacity:1"
         id="rect909"
         width="391.728"
         height="924.06183"
         x="52.137589"
         y="-353.29102" />
    </clipPath>
  </defs>
  <sodipodi:namedview
     pagecolor="#ffffff"
     bordercolor="#666666"
     borderopacity="1"
     objecttolerance="10"
     gridtolerance="10"
     guidetolerance="10"
     inkscape:pageopacity="0"
     inkscape:pageshadow="2"
     inkscape:window-width="1373"
     inkscape:window-height="895"
     id="namedview44"
     showgrid="false"
     inkscape:zoom="0.78639947"
     inkscape:cx="455.07062"
     inkscape:cy="210.30057"
     inkscape:window-x="2455"
     inkscape:window-y="151"
     inkscape:window-maximized="0"
     inkscape:current-layer="svg42" />
  <g
     class=""
     transform="matrix(1.047396,0,0,1.047396,-11.639853,-11.365012)"
     id="g14">
    <g
       id="g12">
      <path
         d="m 103.432,17.844 c -1.118,0.005 -2.234,0.032 -3.348,0.08 -2.547,0.11 -5.083,0.334 -7.604,0.678 -20.167,2.747 -39.158,13.667 -52.324,33.67 -24.613,37.4 2.194,98.025 56.625,98.025 0.536,0 1.058,-0.012 1.583,-0.022 v 0.704 h 60.565 c -10.758,31.994 -30.298,66.596 -52.448,101.43 -2.162,3.4 -4.254,6.878 -6.29,10.406 l 34.878,35.733 -56.263,9.423 c -32.728,85.966 -27.42,182.074 48.277,182.074 v -0.002 l 9.31,0.066 c 23.83,-0.57 46.732,-4.298 61.325,-12.887 4.174,-2.458 7.63,-5.237 10.467,-8.42 h -32.446 c -20.33,5.95 -40.8,-6.94 -47.396,-25.922 -8.956,-25.77 7.52,-52.36 31.867,-60.452 5.803,-1.93 11.723,-2.834 17.565,-2.834 v -0.406 h 178.33 c -0.57,-44.403 16.35,-90.125 49.184,-126 23.955,-26.176 42.03,-60.624 51.3,-94.846 l -41.225,-24.932 38.272,-6.906 -43.37,-25.807 h -0.005 l 0.002,-0.002 0.002,0.002 52.127,-8.85 C 457.16,52.713 433.552,23.734 385.022,23.734 341.14,32.26 222.11,35.29 149.34,28.496 134.452,21.733 118.793,17.773 103.432,17.844 Z"
         class=""
         id="path2"
         inkscape:connector-curvature="0"
         style="fill:#facdd2;fill-opacity:1;stroke:#4a4a4a;stroke-width:10;stroke-opacity:1" />
      <path
         d="m 103.896,36.547 c 13.137,0.043 27.407,3.804 41.247,10.63 l 0.033,-0.07 c 4.667,4.735 8.542,9.737 11.68,14.985 H 82.92 l 10.574,14.78 c 10.608,14.83 19.803,31.99 21.09,42.024 0.643,5.017 -0.11,7.167 -1.814,8.836 -1.705,1.67 -6.228,3.875 -15.99,3.875 -40.587,0 -56.878,-44.952 -41.012,-69.06 C 66.238,46.64 79.582,39.22 95.002,37.12 c 2.89,-0.395 5.863,-0.583 8.894,-0.573 z"
         class=""
         id="path4"
         inkscape:connector-curvature="0"
         style="fill:#d0021b;fill-opacity:1;stroke:#4a4a4a;stroke-width:10;stroke-opacity:1" />
      <path
         d="m 118.5,80.78 h 46.28 c 4.275,15.734 3.656,33.07 -0.544,51.51 H 131.52 c 1.9,-5.027 2.268,-10.574 1.6,-15.77 -1.527,-11.913 -7.405,-24.065 -14.62,-35.74 z"
         class=""
         id="path6"
         inkscape:connector-curvature="0"
         style="fill:#facdd2;fill-opacity:1;stroke:#4a4a4a;stroke-width:10;stroke-opacity:1" />
      <path
         d="m 220.053,397.875 c 6.44,6.84 11.192,15.31 13.37,24.914 3.797,16.736 3.092,31.208 -1.767,43.204 -4.526,11.175 -12.576,19.79 -22.29,26 h 237.19 c 14.448,0 24.887,-5.678 32.2,-14.318 7.312,-8.64 11.2,-20.514 10.705,-32.352 -0.186,-4.473 -0.978,-8.913 -2.407,-13.18 l -69.91,-8.205 42.017,-20.528 c -8.32,-3.442 -18.64,-5.537 -31.375,-5.537 H 220.053 Z"
         class=""
         id="path8"
         inkscape:connector-curvature="0"
         style="fill:#facdd2;fill-opacity:1;stroke:#4a4a4a;stroke-width:10;stroke-opacity:1" />
      <path
         d="m 177.385,398.381 c -1.152,-0.003 -2.306,0.048 -3.457,0.153 -2.633,0.242 -5.256,0.775 -7.824,1.63 -15.11,5.02 -25.338,21.54 -20.11,36.583 3.673,10.57 15.347,17.71 25.654,13.938 l 1.555,-0.57 h 43.354 c 0.946,-6.36 0.754,-13.882 -1.358,-23.192 -3.71,-16.358 -20.543,-28.483 -37.815,-28.54 z"
         class="selected"
         id="path10"
         inkscape:connector-curvature="0"
         style="fill:#d0021b;fill-opacity:1;stroke:#4a4a4a;stroke-width:10;stroke-opacity:1" />
    </g>
  </g>
  <g
     id="g833"
     class=""
     transform="matrix(0.61144235,0,0,0.61144235,81.319355,69.297552)"
     clip-path="url(#clipPath907)">
    <g
       id="g831">
      <path
         id="path825"
         class="selected"
         d="m 30.653,470.114 55.34,-20.32 84.09,-19.62 10.78,18.22 25,15.92 41.34,-5.41 27.86,8.41 39.41,1.4 36.71,-34.72 46.68,19.3 37.84,9.11 58.628,32.737 H 17.67 Z"
         inkscape:connector-curvature="0"
         style="fill:#8b572a;fill-opacity:1;stroke:#4a4a4a;stroke-width:10;stroke-opacity:1" />
      <path
         id="path827"
         class=""
         d="m 269.253,267.344 -6,10 c 10.09,6.1 21.58,6.39 32.88,3.21 5.419,-1.588 10.681,-3.67 15.72,-6.22 -0.31,6.28 -0.36,16.58 -0.19,29.29 l -18.82,-2.87 3.86,115 19.72,-0.85 c 0.69,9.53 1.45,18.47 2.27,26.44 l -10.72,10.14 -30.09,-1.07 -25.79,-7.77 -3.5,-1.06 -3.62,0.47 -35.2,4.59 -4.89,-3.12 c 8.11,-37.88 17.45,-123.11 19.51,-141.7 0.89,-7.27 1.226,-14.6 1,-21.92 l 9.89,-5.34 0.7,-6.39 -3,-6.52 h -8.88 l -4.65,-9.13 -1.83,0.63 c -0.805,-1.095 -1.684,-2.134 -2.63,-3.11 l -0.08,-0.08 -24,-25.88 2.36,-6 -1.18,-7.08 -8.51,-2.36 -2.07,-10 -13.35,0.87 -30.95,-33.39 c 0.53,-4.33 3,-9.83 6.9,-14.16 3.7,-4.16 8.26,-6.81 11.88,-7.54 l 59,62.41 9.49,-6.55 -43.09,-89.08 c 1.73,-4 5.71,-8.14 10.73,-10.83 4.84,-2.6 10.11,-3.49 13.75,-3 l 45.5,92.27 11,-3.53 -16.29,-98.92 c 2.68,-2.68 7.66,-5.23 13,-6 1.176,-0.168 2.362,-0.258 3.55,-0.27 h 1.17 c 3.472,0.041 6.881,0.93 9.93,2.59 l 15.06,94.32 11.43,0.35 17.77,-80.41 c 5.89,4.64 19.24,15.77 19.24,15.77 l 7.25,-2.3 -19.62,89.33 h 0.06 l -1.44,6.31 -0.64,2.88 8.88,5.78 c 14.3,-8.86 28.38,-18 40.27,-22.17 7.78,-2.7 14.2,-3.2 19.36,-1.17 4.25,1.67 8.26,5.37 11.9,12.43 -29.73,14.51 -55.85,34.55 -78.25,48.74 -11.87,7.52 -22.69,13.34 -32,16 -9.31,2.66 -16.73,2.22 -23.75,-2.03 z"
         inkscape:connector-curvature="0"
         style="fill:#c4a471;fill-opacity:1;stroke:#4a4a4a;stroke-width:10;stroke-opacity:1" />
      <path
         id="path829"
         class=""
         d="m 259.413,332.734 v 26 l 11.38,9.15 -4.78,6.2 0.28,18.89 8.3,9.15 11.94,9.9 -3.6,-107.26 -8.34,5.56 -7.74,22.43 h -7.44 z"
         inkscape:connector-curvature="0"
         style="fill:#8b572a;fill-opacity:1;stroke:#4a4a4a;stroke-width:10;stroke-opacity:1" />
    </g>
  </g>
</svg>
