<?xml version="1.0" encoding="UTF-8" standalone="no"?>
<svg
   xmlns:dc="http://purl.org/dc/elements/1.1/"
   xmlns:cc="http://creativecommons.org/ns#"
   xmlns:rdf="http://www.w3.org/1999/02/22-rdf-syntax-ns#"
   xmlns:svg="http://www.w3.org/2000/svg"
   xmlns="http://www.w3.org/2000/svg"
   xmlns:sodipodi="http://sodipodi.sourceforge.net/DTD/sodipodi-0.dtd"
   xmlns:inkscape="http://www.inkscape.org/namespaces/inkscape"
   viewBox="0 0 512 512"
   style="height: 64px; width: 64px;"
   version="1.1"
   id="svg16"
   sodipodi:docname="spell-vol.svg"
   inkscape:version="0.92.3 (2405546, 2018-03-11)"
   inkscape:export-filename="/home/plic/Documents/dev/cofbazar.github.io/images/resources/spell-.png"
   inkscape:export-xdpi="24"
   inkscape:export-ydpi="24">
  <metadata
     id="metadata22">
    <rdf:RDF>
      <cc:Work
         rdf:about="">
        <dc:format>image/svg+xml</dc:format>
        <dc:type
           rdf:resource="http://purl.org/dc/dcmitype/StillImage" />
        <dc:title></dc:title>
      </cc:Work>
    </rdf:RDF>
  </metadata>
  <defs
     id="defs20" />
  <sodipodi:namedview
     pagecolor="#ffffff"
     bordercolor="#666666"
     borderopacity="1"
     objecttolerance="10"
     gridtolerance="10"
     guidetolerance="10"
     inkscape:pageopacity="0"
     inkscape:pageshadow="2"
     inkscape:window-width="1369"
     inkscape:window-height="818"
     id="namedview18"
     showgrid="false"
     inkscape:zoom="0.91396413"
     inkscape:cx="175.67206"
     inkscape:cy="285.7603"
     inkscape:window-x="2444"
     inkscape:window-y="231"
     inkscape:window-maximized="0"
     inkscape:current-layer="svg16" />
  <g
     class=""
     transform="matrix(1.0412757,0,0,1.0412757,-9.0713045,-9.2080722)"
     id="g14">
    <g
       id="g12">
      <path
         d="m 103.432,17.844 c -1.118,0.005 -2.234,0.032 -3.348,0.08 -2.547,0.11 -5.083,0.334 -7.604,0.678 -20.167,2.747 -39.158,13.667 -52.324,33.67 -24.613,37.4 2.194,98.025 56.625,98.025 0.536,0 1.058,-0.012 1.583,-0.022 v 0.704 h 60.565 c -10.758,31.994 -30.298,66.596 -52.448,101.43 -2.162,3.4 -4.254,6.878 -6.29,10.406 l 34.878,35.733 -56.263,9.423 c -32.728,85.966 -27.42,182.074 48.277,182.074 v -0.002 l 9.31,0.066 c 23.83,-0.57 46.732,-4.298 61.325,-12.887 4.174,-2.458 7.63,-5.237 10.467,-8.42 h -32.446 c -20.33,5.95 -40.8,-6.94 -47.396,-25.922 -8.956,-25.77 7.52,-52.36 31.867,-60.452 5.803,-1.93 11.723,-2.834 17.565,-2.834 v -0.406 h 178.33 c -0.57,-44.403 16.35,-90.125 49.184,-126 23.955,-26.176 42.03,-60.624 51.3,-94.846 l -41.225,-24.932 38.272,-6.906 -43.37,-25.807 h -0.005 l 0.002,-0.002 0.002,0.002 52.127,-8.85 C 457.16,52.713 433.552,23.734 385.022,23.734 341.14,32.26 222.11,35.29 149.34,28.496 134.452,21.733 118.793,17.773 103.432,17.844 Z"
         class=""
         id="path2"
         inkscape:connector-curvature="0"
         style="fill:#fff79c;fill-opacity:1;stroke:#4a4a4a;stroke-width:10;stroke-opacity:1" />
      <path
         d="m 103.896,36.547 c 13.137,0.043 27.407,3.804 41.247,10.63 l 0.033,-0.07 c 4.667,4.735 8.542,9.737 11.68,14.985 H 82.92 l 10.574,14.78 c 10.608,14.83 19.803,31.99 21.09,42.024 0.643,5.017 -0.11,7.167 -1.814,8.836 -1.705,1.67 -6.228,3.875 -15.99,3.875 -40.587,0 -56.878,-44.952 -41.012,-69.06 C 66.238,46.64 79.582,39.22 95.002,37.12 c 2.89,-0.395 5.863,-0.583 8.894,-0.573 z"
         class=""
         id="path4"
         inkscape:connector-curvature="0"
         style="fill:#f8e71c;fill-opacity:1;stroke:#4a4a4a;stroke-width:10;stroke-opacity:1" />
      <path
         d="m 118.5,80.78 h 46.28 c 4.275,15.734 3.656,33.07 -0.544,51.51 H 131.52 c 1.9,-5.027 2.268,-10.574 1.6,-15.77 -1.527,-11.913 -7.405,-24.065 -14.62,-35.74 z"
         class=""
         id="path6"
         inkscape:connector-curvature="0"
         style="fill:#fff79c;fill-opacity:1;stroke:#4a4a4a;stroke-width:10;stroke-opacity:1" />
      <path
         d="m 220.053,397.875 c 6.44,6.84 11.192,15.31 13.37,24.914 3.797,16.736 3.092,31.208 -1.767,43.204 -4.526,11.175 -12.576,19.79 -22.29,26 h 237.19 c 14.448,0 24.887,-5.678 32.2,-14.318 7.312,-8.64 11.2,-20.514 10.705,-32.352 -0.186,-4.473 -0.978,-8.913 -2.407,-13.18 l -69.91,-8.205 42.017,-20.528 c -8.32,-3.442 -18.64,-5.537 -31.375,-5.537 H 220.053 Z"
         class=""
         id="path8"
         inkscape:connector-curvature="0"
         style="fill:#fff79c;fill-opacity:1;stroke:#4a4a4a;stroke-width:10;stroke-opacity:1" />
      <path
         d="m 177.385,398.381 c -1.152,-0.003 -2.306,0.048 -3.457,0.153 -2.633,0.242 -5.256,0.775 -7.824,1.63 -15.11,5.02 -25.338,21.54 -20.11,36.583 3.673,10.57 15.347,17.71 25.654,13.938 l 1.555,-0.57 h 43.354 c 0.946,-6.36 0.754,-13.882 -1.358,-23.192 -3.71,-16.358 -20.543,-28.483 -37.815,-28.54 z"
         class="selected"
         id="path10"
         inkscape:connector-curvature="0"
         style="fill:#f8e71c;fill-opacity:1;stroke:#4a4a4a;stroke-width:10;stroke-opacity:1" />
    </g>
  </g>
  <g
     id="g838"
     class=""
     transform="matrix(0.55725422,0,0,0.55725422,173.35623,80.481261)">
    <g
       id="g836"
       transform="rotate(90,256,256)">
      <path
         id="path828"
         class=""
         d="m 302.4,16 -86.31,19.338 154.303,0.508 c -23.036,14.658 -42.405,26.662 -42.405,26.662 l 72.971,-15.494 -106.158,74.888 108.23,-42.664 c -26.617,38.024 -66.965,98.803 -66.965,98.803 l 93.135,-93.73 -37.039,129.697 72.49,-101.764 -8.84,42.97 24.393,-35.946 0.51,144.587 L 496,194.525 V 16 Z"
         inkscape:connector-curvature="0"
         style="fill:#8b572a;fill-opacity:0" />
      <path
         id="path830"
         class=""
         d="m 253.76,58.293 c -45.38,14.758 -78.855,73.772 -87.635,123.473 -2.227,12.608 -0.143,25.4 3.879,37.95 6.236,4.847 11.868,10.48 15.832,17.346 14.103,-8.238 27.262,-16.72 37.768,-26.447 0.21,-10.789 1.005,-22.01 2.275,-33.388 -5.121,6.429 -9.29,13.13 -14.697,19.478 1.67,-16.455 5.557,-27.424 13.084,-38.539 l -22.545,10.73 c 7.886,-17.055 18.37,-29.314 30.838,-39.171 -10.797,3.067 -20.605,8.771 -30.946,13.052 9.58,-19.93 23.921,-30.338 38.432,-40.406 4.204,-16.017 8.897,-31.028 13.715,-44.078 z"
         inkscape:connector-curvature="0"
         style="fill:#dcc193;fill-opacity:1;stroke:#4a4a4a;stroke-width:10;stroke-opacity:1" />
      <path
         id="path832"
         class=""
         d="m 289.42,184.627 -22.522,0.709 -39.8,44.264 -37.713,25.699 0.138,0.017 c -4.006,0.269 -8.01,0.574 -12.011,0.914 -1.793,-9.724 -8.403,-19.86 -17.908,-27.464 -17.01,-13.597 -38.213,-15.324 -47.358,-3.858 -9.146,11.466 -2.77,31.783 14.24,45.381 10.738,8.566 23.695,12.746 34.203,11.031 -30.645,33.666 -26.294,65.218 -29.359,109.518 l 21.49,-0.803 c -3.118,-33.882 0.277,-53.678 14.743,-81.672 5.324,-5.143 10.863,-9.893 16.644,-14.156 51.185,19.768 47.438,26.427 71.063,78.158 l -30.643,38.569 -8.4,36.52 13.982,4.317 16.227,-33.095 c 3.219,-6.566 34.38,-42.514 34.625,-47.746 -3.829,-20.89 -12.152,-32.555 -21.055,-54.55 l 39.103,46.487 c -4.567,19.966 -5.499,42.743 -9.773,56.881 l 8.135,31.547 19.716,-5.38 -8.787,-30.32 c 12.776,-21.065 15.275,-40.373 15.36,-63.714 -28.884,-39.892 -55.997,-88.098 -96.14,-93.781 -0.072,-0.313 -0.143,-0.627 -0.212,-0.942 l 26.13,-21.785 z"
         inkscape:connector-curvature="0"
         style="fill:#724926;fill-opacity:1;stroke:#4a4a4a;stroke-width:10;stroke-opacity:1" />
      <path
         id="path834"
         class="selected"
         d="m 122.578,287.049 c -7.988,2.306 -15.02,5.596 -20.08,10.213 -50.032,45.65 -56.446,152.635 -44.68,198.21 6.204,-11.83 12.511,-25.025 19.075,-38.888 -2.228,-18.17 -2.482,-36.92 2.24,-57.135 1.136,11.92 2.746,23.641 9.021,33.444 0.233,-0.486 0.464,-0.97 0.698,-1.455 -2.113,-17.38 0.353,-38.04 9.316,-56.711 -1.75,11.64 0.502,21.612 3.107,31.437 4.184,-8.257 8.528,-16.431 13.028,-24.52 -0.081,-16.2 1.957,-36.697 7.113,-57.306 2.703,-10.802 6.242,-21.646 10.895,-31.826 -3.438,-1.649 -6.688,-3.522 -9.733,-5.463 z"
         inkscape:connector-curvature="0"
         style="fill:#dcc193;fill-opacity:1;stroke:#4a4a4a;stroke-width:10;stroke-opacity:1" />
    </g>
  </g>
</svg>
