<?xml version="1.0" encoding="UTF-8" standalone="no"?>
<svg
   xmlns:dc="http://purl.org/dc/elements/1.1/"
   xmlns:cc="http://creativecommons.org/ns#"
   xmlns:rdf="http://www.w3.org/1999/02/22-rdf-syntax-ns#"
   xmlns:svg="http://www.w3.org/2000/svg"
   xmlns="http://www.w3.org/2000/svg"
   xmlns:sodipodi="http://sodipodi.sourceforge.net/DTD/sodipodi-0.dtd"
   xmlns:inkscape="http://www.inkscape.org/namespaces/inkscape"
   viewBox="0 0 512 512"
   style="height: 64px; width: 64px;"
   version="1.1"
   id="svg16"
   sodipodi:docname="spell-amitie.svg"
   inkscape:version="0.92.3 (2405546, 2018-03-11)">
  <metadata
     id="metadata22">
    <rdf:RDF>
      <cc:Work
         rdf:about="">
        <dc:format>image/svg+xml</dc:format>
        <dc:type
           rdf:resource="http://purl.org/dc/dcmitype/StillImage" />
        <dc:title></dc:title>
      </cc:Work>
    </rdf:RDF>
  </metadata>
  <defs
     id="defs20" />
  <sodipodi:namedview
     pagecolor="#ffffff"
     bordercolor="#666666"
     borderopacity="1"
     objecttolerance="10"
     gridtolerance="10"
     guidetolerance="10"
     inkscape:pageopacity="0"
     inkscape:pageshadow="2"
     inkscape:window-width="1369"
     inkscape:window-height="818"
     id="namedview18"
     showgrid="false"
     inkscape:zoom="0.91396413"
     inkscape:cx="158.92651"
     inkscape:cy="285.1024"
     inkscape:window-x="2444"
     inkscape:window-y="231"
     inkscape:window-maximized="0"
     inkscape:current-layer="svg16" />
  <g
     class=""
     transform="matrix(1.0412757,0,0,1.0412757,-9.0713045,-9.2080722)"
     id="g14">
    <g
       id="g12">
      <path
         d="m 103.432,17.844 c -1.118,0.005 -2.234,0.032 -3.348,0.08 -2.547,0.11 -5.083,0.334 -7.604,0.678 -20.167,2.747 -39.158,13.667 -52.324,33.67 -24.613,37.4 2.194,98.025 56.625,98.025 0.536,0 1.058,-0.012 1.583,-0.022 v 0.704 h 60.565 c -10.758,31.994 -30.298,66.596 -52.448,101.43 -2.162,3.4 -4.254,6.878 -6.29,10.406 l 34.878,35.733 -56.263,9.423 c -32.728,85.966 -27.42,182.074 48.277,182.074 v -0.002 l 9.31,0.066 c 23.83,-0.57 46.732,-4.298 61.325,-12.887 4.174,-2.458 7.63,-5.237 10.467,-8.42 h -32.446 c -20.33,5.95 -40.8,-6.94 -47.396,-25.922 -8.956,-25.77 7.52,-52.36 31.867,-60.452 5.803,-1.93 11.723,-2.834 17.565,-2.834 v -0.406 h 178.33 c -0.57,-44.403 16.35,-90.125 49.184,-126 23.955,-26.176 42.03,-60.624 51.3,-94.846 l -41.225,-24.932 38.272,-6.906 -43.37,-25.807 h -0.005 l 0.002,-0.002 0.002,0.002 52.127,-8.85 C 457.16,52.713 433.552,23.734 385.022,23.734 341.14,32.26 222.11,35.29 149.34,28.496 134.452,21.733 118.793,17.773 103.432,17.844 Z"
         class=""
         id="path2"
         inkscape:connector-curvature="0"
         style="fill:#fff79c;fill-opacity:1;stroke:#4a4a4a;stroke-width:10;stroke-opacity:1" />
      <path
         d="m 103.896,36.547 c 13.137,0.043 27.407,3.804 41.247,10.63 l 0.033,-0.07 c 4.667,4.735 8.542,9.737 11.68,14.985 H 82.92 l 10.574,14.78 c 10.608,14.83 19.803,31.99 21.09,42.024 0.643,5.017 -0.11,7.167 -1.814,8.836 -1.705,1.67 -6.228,3.875 -15.99,3.875 -40.587,0 -56.878,-44.952 -41.012,-69.06 C 66.238,46.64 79.582,39.22 95.002,37.12 c 2.89,-0.395 5.863,-0.583 8.894,-0.573 z"
         class=""
         id="path4"
         inkscape:connector-curvature="0"
         style="fill:#f8e71c;fill-opacity:1;stroke:#4a4a4a;stroke-width:10;stroke-opacity:1" />
      <path
         d="m 118.5,80.78 h 46.28 c 4.275,15.734 3.656,33.07 -0.544,51.51 H 131.52 c 1.9,-5.027 2.268,-10.574 1.6,-15.77 -1.527,-11.913 -7.405,-24.065 -14.62,-35.74 z"
         class=""
         id="path6"
         inkscape:connector-curvature="0"
         style="fill:#fff79c;fill-opacity:1;stroke:#4a4a4a;stroke-width:10;stroke-opacity:1" />
      <path
         d="m 220.053,397.875 c 6.44,6.84 11.192,15.31 13.37,24.914 3.797,16.736 3.092,31.208 -1.767,43.204 -4.526,11.175 -12.576,19.79 -22.29,26 h 237.19 c 14.448,0 24.887,-5.678 32.2,-14.318 7.312,-8.64 11.2,-20.514 10.705,-32.352 -0.186,-4.473 -0.978,-8.913 -2.407,-13.18 l -69.91,-8.205 42.017,-20.528 c -8.32,-3.442 -18.64,-5.537 -31.375,-5.537 H 220.053 Z"
         class=""
         id="path8"
         inkscape:connector-curvature="0"
         style="fill:#fff79c;fill-opacity:1;stroke:#4a4a4a;stroke-width:10;stroke-opacity:1" />
      <path
         d="m 177.385,398.381 c -1.152,-0.003 -2.306,0.048 -3.457,0.153 -2.633,0.242 -5.256,0.775 -7.824,1.63 -15.11,5.02 -25.338,21.54 -20.11,36.583 3.673,10.57 15.347,17.71 25.654,13.938 l 1.555,-0.57 h 43.354 c 0.946,-6.36 0.754,-13.882 -1.358,-23.192 -3.71,-16.358 -20.543,-28.483 -37.815,-28.54 z"
         class="selected"
         id="path10"
         inkscape:connector-curvature="0"
         style="fill:#f8e71c;fill-opacity:1;stroke:#4a4a4a;stroke-width:10;stroke-opacity:1" />
    </g>
  </g>
  <g
     id="g849"
     class=""
     transform="matrix(0.49843676,0,0,0.49843676,160.61054,105.64027)">
    <g
       id="g847">
      <path
         id="path829"
         class=""
         d="m 494,61.363 -82.58,77.934 78.994,132.96 3.586,-4.458 V 61.362 Z"
         inkscape:connector-curvature="0"
         style="fill:#6d3b13;fill-opacity:1;stroke:#4a4a4a;stroke-width:10;stroke-opacity:1" />
      <path
         id="path831"
         class=""
         d="m 18,62.5 v 225.893 c 4.48,0.582 9.863,0.903 15.295,0.96 11.87,0.125 21.654,-0.65 27.15,-1.144 L 113.1,154.974 Z"
         inkscape:connector-curvature="0"
         style="fill:#00295a;fill-opacity:1;stroke:#4a4a4a;stroke-width:10;stroke-opacity:1" />
      <path
         id="path833"
         class=""
         d="m 407.154,167.36 -7.04,4.556 c -0.15,0.097 -5.362,3.336 -6.893,4.29 l -10.605,6.42 0.15,0.09 c -4.914,3.057 -6.28,3.917 -11.857,7.38 -2.83,1.757 -2.9,1.798 -5.584,3.465 -20.29,-10.907 -42.306,-19.29 -67.998,-25.882 -32.312,9.762 -66.542,23.888 -100.722,37.142 14.19,17.087 29.96,22.651 45.845,22.85 18.42,0.23 37.25,-7.78 50.218,-16.754 l 7.4,-5.12 7.426,10.73 115.453,83.33 45.112,-29.987 -60.906,-102.51 z"
         inkscape:connector-curvature="0"
         style="fill:#caae83;fill-opacity:1;stroke:#4a4a4a;stroke-width:10;stroke-opacity:1" />
      <path
         id="path835"
         class=""
         d="m 126.477,170.1 -45.367,114.787 16.65,12.803 30.795,-34.905 2.467,-2.795 3.72,-0.232 c 1.5,-0.094 2.98,-0.138 4.44,-0.13 10.212,0.066 19.342,2.716 26.19,8.76 5.072,4.472 8.444,10.426 10.4,17.32 l 2.28,-0.142 c 11.995,-0.75 22.802,1.725 30.63,8.63 7.827,6.907 11.63,17.323 12.38,29.32 l 0.07,1.08 c 6.44,1.216 12.205,3.752 16.893,7.888 7.828,6.906 11.63,17.32 12.38,29.317 l 0.197,3.12 c 0.642,0.202 1.275,0.424 1.9,0.658 l 2.033,-2.853 5.47,-7.678 2.813,-3.95 7.33,5.223 59.428,42.336 c 6.464,-1.594 10.317,-4.075 12.46,-7.086 2.147,-3.012 3.233,-7.47 2.624,-14.107 l -71.258,-51.03 -7.318,-5.24 5.19,-7.246 6.67,-9.365 7.33,5.223 80.335,57.226 c 6.464,-1.593 10.32,-4.074 12.463,-7.085 2.144,-3.01 3.23,-7.457 2.625,-14.082 l -92.398,-65.55 -7.34,-5.21 10.414,-14.68 7.343,5.208 92.414,65.565 c 6.47,-1.594 10.327,-4.075 12.473,-7.088 2.148,-3.015 3.233,-7.476 2.62,-14.125 l -110.44,-79.71 c -14.655,8.688 -33.402,15.648 -53.557,15.396 -23.587,-0.295 -48.817,-11.566 -67.377,-40.05 -3.135,-4.811 -1.025,-11.287 4.343,-13.327 13.014,-4.945 26.163,-10.17 39.343,-15.354 l -92.056,-6.834 z"
         inkscape:connector-curvature="0"
         style="fill:#c59648;fill-opacity:1;stroke:#4a4a4a;stroke-width:10;stroke-opacity:1" />
      <path
         id="path837"
         class=""
         d="m 139.379,277.72 -47.564,53.91 c 0.927,6.746 3.04,10.942 5.887,13.454 2.847,2.512 7.275,4.085 14.084,4.164 l 47.563,-53.908 c -0.927,-6.747 -3.04,-10.945 -5.887,-13.457 -2.847,-2.512 -7.274,-4.084 -14.084,-4.162 z"
         inkscape:connector-curvature="0"
         style="fill:#caae83;fill-opacity:1;stroke:#4a4a4a;stroke-width:10;stroke-opacity:1" />
      <path
         id="path839"
         class=""
         d="m 182.687,303.53 -53.713,60.88 c 0.926,6.747 3.04,10.945 5.886,13.457 2.85,2.51 7.275,4.083 14.085,4.16 l 53.713,-60.878 c -0.926,-6.748 -3.04,-10.944 -5.887,-13.457 -2.846,-2.512 -7.273,-4.085 -14.083,-4.164 z"
         inkscape:connector-curvature="0"
         style="fill:#caae83;fill-opacity:1;stroke:#4a4a4a;stroke-width:10;stroke-opacity:1" />
      <path
         id="path841"
         class="selected"
         d="m 212.027,341.816 -47.56,53.91 c 0.927,6.746 3.04,10.943 5.887,13.456 2.848,2.512 7.275,4.083 14.084,4.162 L 232,359.44 c -0.927,-6.75 -3.04,-10.947 -5.887,-13.46 -2.847,-2.512 -7.274,-4.083 -14.084,-4.162 z"
         inkscape:connector-curvature="0"
         style="fill:#caae83;fill-opacity:1;stroke:#4a4a4a;stroke-width:10;stroke-opacity:1" />
      <path
         id="path843"
         class=""
         d="m 236.729,380.953 -38.794,44.28 c 0.925,6.76 3.038,10.962 5.888,13.476 2.845,2.51 7.267,4.082 14.067,4.163 l 38.796,-44.28 c -0.926,-6.758 -3.04,-10.96 -5.89,-13.476 -2.844,-2.51 -7.266,-4.08 -14.066,-4.162 z"
         inkscape:connector-curvature="0"
         style="fill:#caae83;fill-opacity:1;stroke:#4a4a4a;stroke-width:10;stroke-opacity:1" />
      <path
         id="path845"
         class=""
         d="m 272.071,385.743 c 1.694,4.62 2.673,9.74 3.014,15.192 l 0.232,3.704 -8.277,9.448 26.724,19.037 c 6.464,-1.594 10.316,-4.075 12.46,-7.086 2.145,-3.01 3.233,-7.464 2.628,-14.093 l -36.78,-26.2 z"
         inkscape:connector-curvature="0"
         style="fill:#c59648;fill-opacity:1;stroke:#4a4a4a;stroke-width:10;stroke-opacity:1" />
    </g>
  </g>
</svg>
