<?xml version="1.0" encoding="UTF-8" standalone="no"?>
<svg
   xmlns:dc="http://purl.org/dc/elements/1.1/"
   xmlns:cc="http://creativecommons.org/ns#"
   xmlns:rdf="http://www.w3.org/1999/02/22-rdf-syntax-ns#"
   xmlns:svg="http://www.w3.org/2000/svg"
   xmlns="http://www.w3.org/2000/svg"
   xmlns:sodipodi="http://sodipodi.sourceforge.net/DTD/sodipodi-0.dtd"
   xmlns:inkscape="http://www.inkscape.org/namespaces/inkscape"
   viewBox="0 0 512 512"
   style="height: 64px; width: 64px;"
   version="1.1"
   id="svg16"
   sodipodi:docname="spell-murmure-dans-le-vent.svg"
   inkscape:version="0.92.3 (2405546, 2018-03-11)"
   inkscape:export-filename="/home/plic/Téléchargements/spell-murmure-dans-le-vent.png"
   inkscape:export-xdpi="24"
   inkscape:export-ydpi="24">
  <metadata
     id="metadata22">
    <rdf:RDF>
      <cc:Work
         rdf:about="">
        <dc:format>image/svg+xml</dc:format>
        <dc:type
           rdf:resource="http://purl.org/dc/dcmitype/StillImage" />
        <dc:title></dc:title>
      </cc:Work>
    </rdf:RDF>
  </metadata>
  <defs
     id="defs20">
    <radialGradient
       id="gradient-3">
      <stop
         id="stop830"
         stop-opacity="1"
         stop-color="#8b572a"
         offset="0%" />
      <stop
         id="stop832"
         stop-opacity="1"
         stop-color="#b57204"
         offset="100%" />
    </radialGradient>
    <radialGradient
       id="gradient-7">
      <stop
         id="stop835"
         stop-opacity="1"
         stop-color="#c9c9c9"
         offset="0%" />
      <stop
         id="stop837"
         stop-opacity="1"
         stop-color="#e7e7e7"
         offset="100%" />
    </radialGradient>
    <radialGradient
       id="gradient-8">
      <stop
         id="stop840"
         stop-opacity="1"
         stop-color="#c9c9c9"
         offset="0%" />
      <stop
         id="stop842"
         stop-opacity="1"
         stop-color="#e5e5e5"
         offset="100%" />
    </radialGradient>
    <radialGradient
       id="gradient-9">
      <stop
         id="stop845"
         stop-opacity="1"
         stop-color="#c9c9c9"
         offset="0%" />
      <stop
         id="stop847"
         stop-opacity="1"
         stop-color="#e7e7e7"
         offset="100%" />
    </radialGradient>
    <radialGradient
       id="gradient-10">
      <stop
         id="stop850"
         stop-opacity="1"
         stop-color="#c9c9c9"
         offset="0%" />
      <stop
         id="stop852"
         stop-opacity="1"
         stop-color="#e9e9e9"
         offset="100%" />
    </radialGradient>
    <radialGradient
       id="gradient-11">
      <stop
         id="stop855"
         stop-opacity="1"
         stop-color="#c9c9c9"
         offset="0%" />
      <stop
         id="stop857"
         stop-opacity="1"
         stop-color="#eaeaea"
         offset="100%" />
    </radialGradient>
    <radialGradient
       id="gradient-12">
      <stop
         id="stop860"
         stop-opacity="1"
         stop-color="#c9c9c9"
         offset="0%" />
      <stop
         id="stop862"
         stop-opacity="1"
         stop-color="#e4e4e4"
         offset="100%" />
    </radialGradient>
    <radialGradient
       id="gradient-13">
      <stop
         id="stop865"
         stop-opacity="1"
         stop-color="#c9c9c9"
         offset="0%" />
      <stop
         id="stop867"
         stop-opacity="1"
         stop-color="#e7e7e7"
         offset="100%" />
    </radialGradient>
    <radialGradient
       id="gradient-14">
      <stop
         id="stop870"
         stop-opacity="1"
         stop-color="#c9c9c9"
         offset="0%" />
      <stop
         id="stop872"
         stop-opacity="1"
         stop-color="#e7e7e7"
         offset="100%" />
    </radialGradient>
    <radialGradient
       id="gradient-15">
      <stop
         id="stop875"
         stop-opacity="1"
         stop-color="#c9c9c9"
         offset="0%" />
      <stop
         id="stop877"
         stop-opacity="1"
         stop-color="#e7e7e7"
         offset="100%" />
    </radialGradient>
  </defs>
  <sodipodi:namedview
     pagecolor="#ffffff"
     bordercolor="#666666"
     borderopacity="1"
     objecttolerance="10"
     gridtolerance="10"
     guidetolerance="10"
     inkscape:pageopacity="0"
     inkscape:pageshadow="2"
     inkscape:window-width="1654"
     inkscape:window-height="874"
     id="namedview18"
     showgrid="false"
     inkscape:zoom="0.43987014"
     inkscape:cx="-557.49434"
     inkscape:cy="441.04106"
     inkscape:window-x="2159"
     inkscape:window-y="175"
     inkscape:window-maximized="0"
     inkscape:current-layer="svg16" />
  <g
     class=""
     transform="matrix(1.0412757,0,0,1.0412757,-9.0713045,-9.2080722)"
     id="g14">
    <g
       id="g12">
      <path
         d="m 103.432,17.844 c -1.118,0.005 -2.234,0.032 -3.348,0.08 -2.547,0.11 -5.083,0.334 -7.604,0.678 -20.167,2.747 -39.158,13.667 -52.324,33.67 -24.613,37.4 2.194,98.025 56.625,98.025 0.536,0 1.058,-0.012 1.583,-0.022 v 0.704 h 60.565 c -10.758,31.994 -30.298,66.596 -52.448,101.43 -2.162,3.4 -4.254,6.878 -6.29,10.406 l 34.878,35.733 -56.263,9.423 c -32.728,85.966 -27.42,182.074 48.277,182.074 v -0.002 l 9.31,0.066 c 23.83,-0.57 46.732,-4.298 61.325,-12.887 4.174,-2.458 7.63,-5.237 10.467,-8.42 h -32.446 c -20.33,5.95 -40.8,-6.94 -47.396,-25.922 -8.956,-25.77 7.52,-52.36 31.867,-60.452 5.803,-1.93 11.723,-2.834 17.565,-2.834 v -0.406 h 178.33 c -0.57,-44.403 16.35,-90.125 49.184,-126 23.955,-26.176 42.03,-60.624 51.3,-94.846 l -41.225,-24.932 38.272,-6.906 -43.37,-25.807 h -0.005 l 0.002,-0.002 0.002,0.002 52.127,-8.85 C 457.16,52.713 433.552,23.734 385.022,23.734 341.14,32.26 222.11,35.29 149.34,28.496 134.452,21.733 118.793,17.773 103.432,17.844 Z"
         class=""
         id="path2"
         inkscape:connector-curvature="0"
         style="fill:#fff79c;fill-opacity:1;stroke:#4a4a4a;stroke-width:10;stroke-opacity:1" />
      <path
         d="m 103.896,36.547 c 13.137,0.043 27.407,3.804 41.247,10.63 l 0.033,-0.07 c 4.667,4.735 8.542,9.737 11.68,14.985 H 82.92 l 10.574,14.78 c 10.608,14.83 19.803,31.99 21.09,42.024 0.643,5.017 -0.11,7.167 -1.814,8.836 -1.705,1.67 -6.228,3.875 -15.99,3.875 -40.587,0 -56.878,-44.952 -41.012,-69.06 C 66.238,46.64 79.582,39.22 95.002,37.12 c 2.89,-0.395 5.863,-0.583 8.894,-0.573 z"
         class=""
         id="path4"
         inkscape:connector-curvature="0"
         style="fill:#f8e71c;fill-opacity:1;stroke:#4a4a4a;stroke-width:10;stroke-opacity:1" />
      <path
         d="m 118.5,80.78 h 46.28 c 4.275,15.734 3.656,33.07 -0.544,51.51 H 131.52 c 1.9,-5.027 2.268,-10.574 1.6,-15.77 -1.527,-11.913 -7.405,-24.065 -14.62,-35.74 z"
         class=""
         id="path6"
         inkscape:connector-curvature="0"
         style="fill:#fff79c;fill-opacity:1;stroke:#4a4a4a;stroke-width:10;stroke-opacity:1" />
      <path
         d="m 220.053,397.875 c 6.44,6.84 11.192,15.31 13.37,24.914 3.797,16.736 3.092,31.208 -1.767,43.204 -4.526,11.175 -12.576,19.79 -22.29,26 h 237.19 c 14.448,0 24.887,-5.678 32.2,-14.318 7.312,-8.64 11.2,-20.514 10.705,-32.352 -0.186,-4.473 -0.978,-8.913 -2.407,-13.18 l -69.91,-8.205 42.017,-20.528 c -8.32,-3.442 -18.64,-5.537 -31.375,-5.537 H 220.053 Z"
         class=""
         id="path8"
         inkscape:connector-curvature="0"
         style="fill:#fff79c;fill-opacity:1;stroke:#4a4a4a;stroke-width:10;stroke-opacity:1" />
      <path
         d="m 177.385,398.381 c -1.152,-0.003 -2.306,0.048 -3.457,0.153 -2.633,0.242 -5.256,0.775 -7.824,1.63 -15.11,5.02 -25.338,21.54 -20.11,36.583 3.673,10.57 15.347,17.71 25.654,13.938 l 1.555,-0.57 h 43.354 c 0.946,-6.36 0.754,-13.882 -1.358,-23.192 -3.71,-16.358 -20.543,-28.483 -37.815,-28.54 z"
         class="selected"
         id="path10"
         inkscape:connector-curvature="0"
         style="fill:#f8e71c;fill-opacity:1;stroke:#4a4a4a;stroke-width:10;stroke-opacity:1" />
    </g>
  </g>
  <g
     id="g936"
     transform="matrix(1.2141603,0,0,1.2141603,-57.371098,-78.767414)">
    <g
       transform="matrix(-0.19269361,0,0,0.19269361,287.92615,144.56924)"
       class=""
       id="g828">
      <g
         id="g826">
        <path
           style="fill:#9b9b9b;fill-opacity:1;stroke:#4a4a4a;stroke-width:10;stroke-opacity:1"
           inkscape:connector-curvature="0"
           d="m 182.78,80.125 c 3.367,19.498 10.608,52.67 19.126,84.813 8.126,30.663 17.73,60.122 25.063,75.062 57.968,-0.962 148.212,-16.707 252.343,-46.344 C 387.556,123.633 290.826,94.28 182.78,80.126 Z"
           class=""
           id="path818" />
        <path
           style="fill:#c9c9c9;fill-opacity:1;stroke:#4a4a4a;stroke-width:10;stroke-opacity:1"
           inkscape:connector-curvature="0"
           d="m 164.657,85 c -65.62,51.243 -106.43,120.106 -138.5,196.25 54.866,-38.51 111.644,-60.42 169.313,-70.906 -3.995,-12.636 -7.88,-26.486 -11.626,-40.625 -8.425,-31.79 -15.554,-64.12 -19.188,-84.72 z"
           class=""
           id="path820" />
        <path
           style="fill:#c9c9c9;fill-opacity:1;stroke:#4a4a4a;stroke-width:10;stroke-opacity:1"
           inkscape:connector-curvature="0"
           d="m 486.938,210.906 c -74.123,21.218 -141.43,35.68 -196.25,42.813 24.018,51.794 36.448,106.688 43.688,160.936 70.634,-58.76 125.36,-118.495 152.563,-203.75 z"
           class=""
           id="path822" />
        <path
           style="fill:#c9c9c9;fill-opacity:1;stroke:#4a4a4a;stroke-width:10;stroke-opacity:1"
           inkscape:connector-curvature="0"
           d="m 201.53,228.28 c -56.563,9.917 -111.78,30.946 -165.56,68.907 89.478,61.396 189.91,97.037 279.874,119.844 -7.362,-55.057 -20.104,-109.997 -44.75,-161.03 -18.39,1.897 -35.134,2.875 -49.938,2.875 h -5.344 l -2.718,-4.625 c -3.898,-6.69 -7.77,-15.598 -11.563,-25.97 z"
           class="selected"
           id="path824" />
      </g>
    </g>
    <g
       class=""
       transform="matrix(0.39267837,0,0,0.39267837,188.04248,153.99455)"
       id="g886">
      <g
         id="g884">
        <path
           style="fill:#c9c9c9;fill-opacity:1;stroke:#4a4a4a;stroke-width:10;stroke-opacity:1"
           inkscape:connector-curvature="0"
           d="m 164.672,15.316 c -4.24,-0.02 -8.52,-0.008 -12.848,0.032 356.973,34.267 149.668,296.606 -133.02,225.675 v 29.272 c 208.715,52.028 406.9,-83.077 335.225,-186.316 74.252,54.5 10.927,228.767 -217.44,261.272 80.052,-17.795 151.75,-58.013 188.793,-112.78 v -0.003 c -76.777,75.27 -199.896,99.73 -306.61,83.514 v 38.547 l 0.03,0.003 v 29.983 c 103.604,17.95 230.47,-10.83 317.05,-98.192 -64.335,91.95 -198.984,149.52 -317.05,142.64 v 62.942 C 398.408,491.783 590.073,234.433 449.346,98 540.244,253.644 329.481,436.862 141.226,437.258 392.92,399.278 523.24,116.29 322.532,33.352 278.847,22.092 226.428,15.592 164.672,15.316 Z"
           class="selected"
           id="path882" />
      </g>
    </g>
  </g>
</svg>
