<?xml version="1.0" encoding="UTF-8" standalone="no"?>
<svg
   viewBox="0 0 512 512"
   style="height: 64px; width: 64px;"
   version="1.1"
   id="svg42"
   sodipodi:docname="spell-coup-de-poing.svg"
   inkscape:version="1.1 (ce6663b3b7, 2021-05-25)"
   inkscape:export-filename="/home/plic/Téléchargements/spell-coup-de-poing.png"
   inkscape:export-xdpi="24"
   inkscape:export-ydpi="24"
   xmlns:inkscape="http://www.inkscape.org/namespaces/inkscape"
   xmlns:sodipodi="http://sodipodi.sourceforge.net/DTD/sodipodi-0.dtd"
   xmlns="http://www.w3.org/2000/svg"
   xmlns:svg="http://www.w3.org/2000/svg"
   xmlns:rdf="http://www.w3.org/1999/02/22-rdf-syntax-ns#"
   xmlns:cc="http://creativecommons.org/ns#"
   xmlns:dc="http://purl.org/dc/elements/1.1/">
  <metadata
     id="metadata48">
    <rdf:RDF>
      <cc:Work
         rdf:about="">
        <dc:format>image/svg+xml</dc:format>
        <dc:type
           rdf:resource="http://purl.org/dc/dcmitype/StillImage" />
      </cc:Work>
    </rdf:RDF>
  </metadata>
  <defs
     id="defs46">
    <radialGradient
       id="gradient-2"
       gradientTransform="scale(0.99730599,1.0027013)"
       cx="265.71103"
       cy="259.12267"
       fx="265.71103"
       fy="259.12267"
       r="239.51962"
       gradientUnits="userSpaceOnUse">
      <stop
         id="stop818"
         stop-opacity="1"
         stop-color="#d0021b"
         offset="0%" />
      <stop
         id="stop820"
         stop-opacity="1"
         stop-color="#f5a623"
         offset="100%" />
    </radialGradient>
    <radialGradient
       id="gradient-3"
       gradientTransform="scale(1.0701786,0.93442349)"
       cx="310.52306"
       cy="309.45111"
       fx="310.52306"
       fy="309.45111"
       r="54.621731"
       gradientUnits="userSpaceOnUse">
      <stop
         id="stop823"
         stop-opacity="1"
         stop-color="#d0021b"
         offset="0%" />
      <stop
         id="stop825"
         stop-opacity="1"
         stop-color="#f5a623"
         offset="100%" />
    </radialGradient>
    <radialGradient
       id="gradient-4"
       gradientTransform="scale(0.78611318,1.2720815)"
       cx="544.91275"
       cy="254.80429"
       fx="544.91275"
       fy="254.80429"
       r="66.243526"
       gradientUnits="userSpaceOnUse">
      <stop
         id="stop828"
         stop-opacity="1"
         stop-color="#d0021b"
         offset="0%" />
      <stop
         id="stop830"
         stop-opacity="1"
         stop-color="#f5a623"
         offset="100%" />
    </radialGradient>
    <radialGradient
       id="gradient-5"
       gradientTransform="scale(0.86976044,1.1497419)"
       cx="317.93494"
       cy="286.30618"
       fx="317.93494"
       fy="286.30618"
       r="41.781893"
       gradientUnits="userSpaceOnUse">
      <stop
         id="stop833"
         stop-opacity="1"
         stop-color="#d0021b"
         offset="0%" />
      <stop
         id="stop835"
         stop-opacity="1"
         stop-color="#f5a623"
         offset="100%" />
    </radialGradient>
    <radialGradient
       id="gradient-6"
       gradientTransform="scale(0.8166824,1.2244662)"
       cx="468.88443"
       cy="300.20756"
       fx="468.88443"
       fy="300.20756"
       r="48.43909"
       gradientUnits="userSpaceOnUse">
      <stop
         id="stop838"
         stop-opacity="1"
         stop-color="#d0021b"
         offset="0%" />
      <stop
         id="stop840"
         stop-opacity="1"
         stop-color="#f5a623"
         offset="100%" />
    </radialGradient>
    <radialGradient
       id="gradient-7"
       gradientTransform="scale(0.94944814,1.0532434)"
       cx="319.02458"
       cy="364.52817"
       fx="319.02458"
       fy="364.52817"
       r="62.502533"
       gradientUnits="userSpaceOnUse">
      <stop
         id="stop843"
         stop-opacity="1"
         stop-color="#d0021b"
         offset="0%" />
      <stop
         id="stop845"
         stop-opacity="1"
         stop-color="#f5a623"
         offset="100%" />
    </radialGradient>
    <radialGradient
       id="gradient-8"
       gradientTransform="scale(1.4226614,0.70290795)"
       cx="267.82716"
       cy="614.7519"
       fx="267.82716"
       fy="614.7519"
       r="65.812317"
       gradientUnits="userSpaceOnUse">
      <stop
         id="stop848"
         stop-opacity="1"
         stop-color="#d0021b"
         offset="0%" />
      <stop
         id="stop850"
         stop-opacity="1"
         stop-color="#f5a623"
         offset="100%" />
    </radialGradient>
  </defs>
  <sodipodi:namedview
     pagecolor="#ffffff"
     bordercolor="#666666"
     borderopacity="1"
     objecttolerance="10"
     gridtolerance="10"
     guidetolerance="10"
     inkscape:pageopacity="0"
     inkscape:pageshadow="2"
     inkscape:window-width="1489"
     inkscape:window-height="911"
     id="namedview44"
     showgrid="false"
     inkscape:zoom="0.4609375"
     inkscape:cx="-271.18644"
     inkscape:cy="62.915255"
     inkscape:window-x="2404"
     inkscape:window-y="139"
     inkscape:window-maximized="0"
     inkscape:current-layer="svg42"
     inkscape:pagecheckerboard="0" />
  <path
     d="m 97.286186,7.3441808 c -1.171344,0.00521 -2.340593,0.033523 -3.507738,0.083821 C 91.109915,7.5432502 88.452912,7.7779379 85.811624,8.1383516 64.682373,11.016422 44.785234,22.457462 30.991029,43.414888 5.2036408,82.599396 33.289714,146.11707 90.317843,146.11707 c 0.561575,0 1.108481,-0.0126 1.658536,-0.0231 v 0.73758 h 63.454811 c -11.27132,33.52057 -31.74365,69.77358 -54.95052,106.26965 -2.265153,3.56223 -4.456975,7.20617 -6.59012,10.90251 l 36.54217,37.43797 -58.947539,9.87261 C 37.195593,401.38214 42.756859,502.07585 122.06567,502.07585 v -0.002 l 9.75423,0.0692 c 24.96703,-0.5972 48.96178,-4.50307 64.25107,-13.50189 4.37316,-2.57528 7.99406,-5.48688 10.96642,-8.82176 h -33.99413 c -21.30003,6.2339 -42.74674,-7.27114 -49.65746,-27.15884 -9.38333,-26.9996 7.8788,-54.85832 33.3875,-63.33642 6.07989,-2.02209 12.28236,-2.96923 18.4031,-2.96923 v -0.42537 h 186.83887 c -0.5972,-46.52165 17.13012,-94.42523 51.53077,-132.01198 25.09799,-27.42497 44.03543,-63.51662 53.74773,-99.3715 l -43.19201,-26.12161 40.09812,-7.23551 -45.43936,-27.038355 h -0.005 l 0.002,-0.002 0.002,0.002 54.6142,-9.272272 C 467.89202,43.876925 443.15759,13.515217 392.31202,13.515217 346.33623,22.448028 221.62681,25.622602 145.38465,18.504432 129.78629,11.418741 113.38012,7.2697929 97.286186,7.3441808 Z"
     class=""
     id="path2"
     inkscape:connector-curvature="0"
     style="fill:#cccccc;fill-opacity:1;stroke:#4a4a4a;stroke-width:10.47714138;stroke-opacity:1" />
  <path
     d="m 103.896,36.547 c 13.137,0.043 27.407,3.804 41.247,10.63 l 0.033,-0.07 c 4.667,4.735 8.542,9.737 11.68,14.985 H 82.92 l 10.574,14.78 c 10.608,14.83 19.803,31.99 21.09,42.024 0.643,5.017 -0.11,7.167 -1.814,8.836 -1.705,1.67 -6.228,3.875 -15.99,3.875 -40.587,0 -56.878,-44.952 -41.012,-69.06 C 66.238,46.64 79.582,39.22 95.002,37.12 c 2.89,-0.395 5.863,-0.583 8.894,-0.573 z"
     class=""
     id="path4"
     inkscape:connector-curvature="0"
     style="fill:#b3b3b3;fill-opacity:1;stroke:#4a4a4a;stroke-width:10;stroke-opacity:1" />
  <path
     d="m 118.5,80.78 h 46.28 c 4.275,15.734 3.656,33.07 -0.544,51.51 H 131.52 c 1.9,-5.027 2.268,-10.574 1.6,-15.77 -1.527,-11.913 -7.405,-24.065 -14.62,-35.74 z"
     class=""
     id="path6"
     inkscape:connector-curvature="0"
     style="fill:#b3b3b3;fill-opacity:1;stroke:#4a4a4a;stroke-width:10;stroke-opacity:1" />
  <path
     d="m 220.053,397.875 c 6.44,6.84 11.192,15.31 13.37,24.914 3.797,16.736 3.092,31.208 -1.767,43.204 -4.526,11.175 -12.576,19.79 -22.29,26 h 237.19 c 14.448,0 24.887,-5.678 32.2,-14.318 7.312,-8.64 11.2,-20.514 10.705,-32.352 -0.186,-4.473 -0.978,-8.913 -2.407,-13.18 l -69.91,-8.205 42.017,-20.528 c -8.32,-3.442 -18.64,-5.537 -31.375,-5.537 H 220.053 Z"
     class="selected"
     id="path8"
     inkscape:connector-curvature="0"
     style="fill:#e6e6e6;fill-opacity:1;stroke:#4a4a4a;stroke-width:10;stroke-opacity:1" />
  <path
     d="m 177.385,398.381 c -1.152,-0.003 -2.306,0.048 -3.457,0.153 -2.633,0.242 -5.256,0.775 -7.824,1.63 -15.11,5.02 -25.338,21.54 -20.11,36.583 3.673,10.57 15.347,17.71 25.654,13.938 l 1.555,-0.57 h 43.354 c 0.946,-6.36 0.754,-13.882 -1.358,-23.192 -3.71,-16.358 -20.543,-28.483 -37.815,-28.54 z"
     class=""
     id="path10"
     inkscape:connector-curvature="0"
     style="fill:#e6e6e6;fill-opacity:1;stroke:#4a4a4a;stroke-width:10;stroke-opacity:1" />
  <g
     font-size="42"
     font-style="normal"
     font-weight="bold"
     class=""
     transform="translate(620.5904,120.64171)"
     style="font-style:normal;font-weight:bold;font-size:42px;font-family:Arial, Helvetica, sans-serif;text-anchor:middle"
     id="g40">
    <flowRoot
       xml:space="preserve"
       id="flowRoot858"
       style="font-style:normal;font-weight:normal;font-size:40px;line-height:1.25;font-family:sans-serif;letter-spacing:0px;word-spacing:0px;fill:#000000;fill-opacity:1;stroke:none"
       transform="translate(-290,-103)"><flowRegion
         id="flowRegion860"><rect
           id="rect862"
           width="95.111855"
           height="106.61732"
           x="265.39276"
           y="137.68883" /></flowRegion><flowPara
         id="flowPara864" /></flowRoot>
  </g>
  <g
     id="g871"
     class=""
     transform="matrix(-0.56561453,0,0,0.56561453,428.06898,91.296223)">
    <g
       id="g869">
      <path
         id="path855"
         class=""
         d="m 51,24.656 c -66.505,105.062 49.65,121.762 116.97,130.563 84.404,11.032 37.33,166.2 -71.814,84.405 0.045,58.045 58.398,82.567 95.063,94.625 40.878,13.43 -3.76,79.175 -83.25,61.22 327.925,246.796 476.227,-18.285 340.905,-223 -22.38,-33.857 -73.925,-67.47 -126.72,-63.47 126.32,83.08 -47.533,116.238 -80.436,-6.563 -20.76,-77.47 -143.593,17.79 -190.72,-77.78 z"
         inkscape:connector-curvature="0"
         style="fill:url(#gradient-2);stroke:#4a4a4a;stroke-width:10;stroke-opacity:1" />
      <path
         id="path857"
         class=""
         d="m 360.188,243.126 24.968,47.124 -20.906,42.47 -82.5,-58.626 c 20.543,-19.186 48.118,-30.937 78.438,-30.97 z"
         inkscape:connector-curvature="0"
         style="fill:url(#gradient-3);stroke:#4a4a4a;stroke-width:10;stroke-opacity:1" />
      <path
         id="path859"
         class=""
         d="m 382.438,245.281 c 52.99,10.323 93,56.96 93,112.97 0,3.995 -0.197,7.953 -0.594,11.844 l -50.938,28.25 12.25,-46.5 0.938,-3.53 -1.72,-3.22 -52.937,-99.813 z"
         inkscape:connector-curvature="0"
         style="fill:url(#gradient-4);stroke:#4a4a4a;stroke-width:10;stroke-opacity:1" />
      <path
         id="path861"
         class=""
         d="m 269.125,288 35.75,25.406 -59.375,53.28 c -0.202,-2.783 -0.313,-5.6 -0.313,-8.436 0,-26.456 8.937,-50.81 23.938,-70.25 z"
         inkscape:connector-curvature="0"
         style="fill:url(#gradient-5);stroke:#4a4a4a;stroke-width:10;stroke-opacity:1" />
      <path
         id="path863"
         class=""
         d="m 395.938,310.625 21.218,40 -15.875,60.25 -18.655,10.344 L 350,403.936 395.938,310.624 Z"
         inkscape:connector-curvature="0"
         style="fill:url(#gradient-6);stroke:#4a4a4a;stroke-width:10;stroke-opacity:1" />
      <path
         id="path865"
         class=""
         d="m 320.468,324.5 35.407,25.188 -22.406,45.5 -14.94,-7.907 -8.436,-4.5 -4.28,8.564 -25.064,50.125 c -14.917,-14.267 -26.003,-32.49 -31.563,-53 z"
         inkscape:connector-curvature="0"
         style="fill:url(#gradient-7);stroke:#4a4a4a;stroke-width:10;stroke-opacity:1" />
      <path
         id="path867"
         class="selected"
         d="m 469.656,394.344 c -15.138,45.91 -58.363,79.03 -109.344,79.03 -26.287,0 -50.495,-8.827 -69.875,-23.655 l 5.657,2.842 22.156,-44.28 60.094,31.843 4.47,2.375 4.436,-2.47 82.406,-45.686 z"
         inkscape:connector-curvature="0"
         style="fill:url(#gradient-8);stroke:#4a4a4a;stroke-width:10;stroke-opacity:1" />
    </g>
  </g>
</svg>
