<?xml version="1.0" encoding="UTF-8" standalone="no"?>
<svg
   viewBox="0 0 512 512"
   style="height: 64px; width: 64px;"
   version="1.1"
   id="svg42"
   sodipodi:docname="spell-clairvoyance.svg"
   inkscape:version="1.1 (ce6663b3b7, 2021-05-25)"
   inkscape:export-filename="/home/plic/Téléchargements/spell-clairvoyance.png"
   inkscape:export-xdpi="24"
   inkscape:export-ydpi="24"
   xmlns:inkscape="http://www.inkscape.org/namespaces/inkscape"
   xmlns:sodipodi="http://sodipodi.sourceforge.net/DTD/sodipodi-0.dtd"
   xmlns="http://www.w3.org/2000/svg"
   xmlns:svg="http://www.w3.org/2000/svg"
   xmlns:rdf="http://www.w3.org/1999/02/22-rdf-syntax-ns#"
   xmlns:cc="http://creativecommons.org/ns#"
   xmlns:dc="http://purl.org/dc/elements/1.1/">
  <metadata
     id="metadata48">
    <rdf:RDF>
      <cc:Work
         rdf:about="">
        <dc:format>image/svg+xml</dc:format>
        <dc:type
           rdf:resource="http://purl.org/dc/dcmitype/StillImage" />
      </cc:Work>
    </rdf:RDF>
  </metadata>
  <defs
     id="defs46" />
  <sodipodi:namedview
     pagecolor="#ffffff"
     bordercolor="#666666"
     borderopacity="1"
     objecttolerance="10"
     gridtolerance="10"
     guidetolerance="10"
     inkscape:pageopacity="0"
     inkscape:pageshadow="2"
     inkscape:window-width="1489"
     inkscape:window-height="911"
     id="namedview44"
     showgrid="false"
     inkscape:zoom="0.65186406"
     inkscape:cx="24.544995"
     inkscape:cy="280.73338"
     inkscape:window-x="2404"
     inkscape:window-y="139"
     inkscape:window-maximized="0"
     inkscape:current-layer="svg42"
     inkscape:pagecheckerboard="0" />
  <path
     d="m 97.286186,7.3441808 c -1.171344,0.00521 -2.340593,0.033523 -3.507738,0.083821 C 91.109915,7.5432502 88.452912,7.7779379 85.811624,8.1383516 64.682373,11.016422 44.785234,22.457462 30.991029,43.414888 5.2036408,82.599396 33.289714,146.11707 90.317843,146.11707 c 0.561575,0 1.108481,-0.0126 1.658536,-0.0231 v 0.73758 h 63.454811 c -11.27132,33.52057 -31.74365,69.77358 -54.95052,106.26965 -2.265153,3.56223 -4.456975,7.20617 -6.59012,10.90251 l 36.54217,37.43797 -58.947539,9.87261 C 37.195593,401.38214 42.756859,502.07585 122.06567,502.07585 v -0.002 l 9.75423,0.0692 c 24.96703,-0.5972 48.96178,-4.50307 64.25107,-13.50189 4.37316,-2.57528 7.99406,-5.48688 10.96642,-8.82176 h -33.99413 c -21.30003,6.2339 -42.74674,-7.27114 -49.65746,-27.15884 -9.38333,-26.9996 7.8788,-54.85832 33.3875,-63.33642 6.07989,-2.02209 12.28236,-2.96923 18.4031,-2.96923 v -0.42537 h 186.83887 c -0.5972,-46.52165 17.13012,-94.42523 51.53077,-132.01198 25.09799,-27.42497 44.03543,-63.51662 53.74773,-99.3715 l -43.19201,-26.12161 40.09812,-7.23551 -45.43936,-27.038355 h -0.005 l 0.002,-0.002 0.002,0.002 54.6142,-9.272272 C 467.89202,43.876925 443.15759,13.515217 392.31202,13.515217 346.33623,22.448028 221.62681,25.622602 145.38465,18.504432 129.78629,11.418741 113.38012,7.2697929 97.286186,7.3441808 Z"
     class=""
     id="path2"
     inkscape:connector-curvature="0"
     style="fill:#cccccc;fill-opacity:1;stroke:#4a4a4a;stroke-width:10.47714138;stroke-opacity:1" />
  <path
     d="m 103.896,36.547 c 13.137,0.043 27.407,3.804 41.247,10.63 l 0.033,-0.07 c 4.667,4.735 8.542,9.737 11.68,14.985 H 82.92 l 10.574,14.78 c 10.608,14.83 19.803,31.99 21.09,42.024 0.643,5.017 -0.11,7.167 -1.814,8.836 -1.705,1.67 -6.228,3.875 -15.99,3.875 -40.587,0 -56.878,-44.952 -41.012,-69.06 C 66.238,46.64 79.582,39.22 95.002,37.12 c 2.89,-0.395 5.863,-0.583 8.894,-0.573 z"
     class=""
     id="path4"
     inkscape:connector-curvature="0"
     style="fill:#b3b3b3;fill-opacity:1;stroke:#4a4a4a;stroke-width:10;stroke-opacity:1" />
  <path
     d="m 118.5,80.78 h 46.28 c 4.275,15.734 3.656,33.07 -0.544,51.51 H 131.52 c 1.9,-5.027 2.268,-10.574 1.6,-15.77 -1.527,-11.913 -7.405,-24.065 -14.62,-35.74 z"
     class=""
     id="path6"
     inkscape:connector-curvature="0"
     style="fill:#b3b3b3;fill-opacity:1;stroke:#4a4a4a;stroke-width:10;stroke-opacity:1" />
  <path
     d="m 220.053,397.875 c 6.44,6.84 11.192,15.31 13.37,24.914 3.797,16.736 3.092,31.208 -1.767,43.204 -4.526,11.175 -12.576,19.79 -22.29,26 h 237.19 c 14.448,0 24.887,-5.678 32.2,-14.318 7.312,-8.64 11.2,-20.514 10.705,-32.352 -0.186,-4.473 -0.978,-8.913 -2.407,-13.18 l -69.91,-8.205 42.017,-20.528 c -8.32,-3.442 -18.64,-5.537 -31.375,-5.537 H 220.053 Z"
     class="selected"
     id="path8"
     inkscape:connector-curvature="0"
     style="fill:#e6e6e6;fill-opacity:1;stroke:#4a4a4a;stroke-width:10;stroke-opacity:1" />
  <path
     d="m 177.385,398.381 c -1.152,-0.003 -2.306,0.048 -3.457,0.153 -2.633,0.242 -5.256,0.775 -7.824,1.63 -15.11,5.02 -25.338,21.54 -20.11,36.583 3.673,10.57 15.347,17.71 25.654,13.938 l 1.555,-0.57 h 43.354 c 0.946,-6.36 0.754,-13.882 -1.358,-23.192 -3.71,-16.358 -20.543,-28.483 -37.815,-28.54 z"
     class=""
     id="path10"
     inkscape:connector-curvature="0"
     style="fill:#e6e6e6;fill-opacity:1;stroke:#4a4a4a;stroke-width:10;stroke-opacity:1" />
  <g
     font-size="42"
     font-style="normal"
     font-weight="bold"
     class=""
     transform="translate(620.5904,120.64171)"
     style="font-style:normal;font-weight:bold;font-size:42px;font-family:Arial, Helvetica, sans-serif;text-anchor:middle"
     id="g40">
    <flowRoot
       xml:space="preserve"
       id="flowRoot858"
       style="font-style:normal;font-weight:normal;font-size:40px;line-height:1.25;font-family:sans-serif;letter-spacing:0px;word-spacing:0px;fill:#000000;fill-opacity:1;stroke:none"
       transform="translate(-290,-103)"><flowRegion
         id="flowRegion860"><rect
           id="rect862"
           width="95.111855"
           height="106.61732"
           x="265.39276"
           y="137.68883" /></flowRegion><flowPara
         id="flowPara864" /></flowRoot>
  </g>
  <g
     id="g894"
     class=""
     transform="matrix(0.34824099,0,0,0.34824099,171.18521,154.40701)">
    <g
       id="g892">
      <path
         id="path828"
         class=""
         d="M 18,18 V 33.797 L 179.434,215.41 188.918,198.986 28.04,18 Z"
         inkscape:connector-curvature="0"
         style="fill:#f5a623;fill-opacity:1" />
      <path
         id="path830"
         class=""
         d="m 95.705,18 96.95,174.512 10.493,-18.176 L 116.295,18 Z"
         inkscape:connector-curvature="0"
         style="fill:#f5a623;fill-opacity:1" />
      <path
         id="path832"
         class=""
         d="m 186.859,18 c 4.326,19.018 15.27,67.152 28.36,125.326 0.557,2.482 1.074,4.807 1.63,7.278 l 13.275,-22.993 C 219.105,78.687 209.9,38.14 205.32,18 h -18.46 z"
         inkscape:connector-curvature="0"
         style="fill:#f5a623;fill-opacity:1" />
      <path
         id="path834"
         class=""
         d="m 247,18 v 80.383 l 9,-15.588 7.795,13.5 1.205,2.088 V 18 Z"
         inkscape:connector-curvature="0"
         style="fill:#f5a623;fill-opacity:1" />
      <path
         id="path836"
         class=""
         d="M 306.78,18 282.27,128.297 295.584,151.355 325.22,18 Z"
         inkscape:connector-curvature="0"
         style="fill:#f5a623;fill-opacity:1" />
      <path
         id="path838"
         class=""
         d="M 395.705,18 308.852,174.336 319.346,192.512 416.296,18 h -20.59 z"
         inkscape:connector-curvature="0"
         style="fill:#f5a623;fill-opacity:1" />
      <path
         id="path840"
         class=""
         d="M 483.959,18 323.083,198.986 332.565,215.41 494,33.797 V 18 h -10.04 z"
         inkscape:connector-curvature="0"
         style="fill:#f5a623;fill-opacity:1" />
      <path
         id="path842"
         class=""
         d="m 18,98.25 v 22.5 l 150.79,113.094 9.067,-15.7 z"
         inkscape:connector-curvature="0"
         style="fill:#f5a623;fill-opacity:1" />
      <path
         id="path844"
         class=""
         d="m 494,98.25 -159.855,119.893 9.064,15.7 L 494,120.75 Z"
         inkscape:connector-curvature="0"
         style="fill:#f5a623;fill-opacity:1" />
      <path
         id="path846"
         class=""
         d="m 256,118.797 -74.656,129.308 c 20.297,-9.102 46.254,-14.35 74.656,-14.35 28.402,0 54.36,5.248 74.656,14.35 z"
         inkscape:connector-curvature="0"
         style="fill:#980012;fill-opacity:1" />
      <path
         id="path848"
         class=""
         d="m 18,189.137 v 19.226 l 136.05,51.018 9.122,-15.804 L 18,189.136 Z"
         inkscape:connector-curvature="0"
         style="fill:#f5a623;fill-opacity:1" />
      <path
         id="path850"
         class=""
         d="m 494,189.137 -145.172,54.44 9.123,15.804 L 494,208.364 v -19.226 z"
         inkscape:connector-curvature="0"
         style="fill:#f5a623;fill-opacity:1" />
      <path
         id="path852"
         class=""
         d="m 18,249.18 v 18.14 l 122.615,15.326 9.77,-16.92 z"
         inkscape:connector-curvature="0"
         style="fill:#f5a623;fill-opacity:1" />
      <path
         id="path854"
         class=""
         d="m 494,249.18 -132.383,16.547 9.768,16.92 L 494,267.32 Z"
         inkscape:connector-curvature="0"
         style="fill:#f5a623;fill-opacity:1" />
      <path
         id="path856"
         class=""
         d="m 256,251.756 c -14.737,0 -26.49,11.75 -26.49,26.488 0,8.536 3.948,16.065 10.13,20.895 -0.906,-2.778 -1.373,-5.681 -1.384,-8.603 0,-15.514 12.576,-28.09 28.09,-28.09 4.537,0.007 9.004,1.113 13.02,3.223 C 274.92,257.354 266.172,251.755 256,251.755 Z"
         inkscape:connector-curvature="0"
         style="fill:#ffffff;fill-opacity:1" />
      <path
         id="path858"
         class="selected"
         d="m 217.82,255.492 c -12.656,2.568 -23.93,6.328 -33.082,10.904 -17.63,8.815 -26.21,19.758 -26.21,29.594 0,9.837 8.58,20.777 26.21,29.592 17.63,8.815 43.077,14.643 71.262,14.643 28.185,0 53.632,-5.828 71.262,-14.643 17.63,-8.815 26.21,-19.755 26.21,-29.592 0,-9.836 -8.58,-20.78 -26.21,-29.594 -9.153,-4.576 -20.426,-8.336 -33.082,-10.904 4,6.67 6.31,14.453 6.31,22.752 0,24.465 -20.025,44.49 -44.49,44.49 -24.465,0 -44.49,-20.025 -44.49,-44.49 0,-8.3 2.31,-16.083 6.31,-22.752 z"
         inkscape:connector-curvature="0"
         style="fill:#ffffff;fill-opacity:1" />
      <path
         id="path860"
         class=""
         d="M 133.953,294.186 18,308.68 v 18.14 l 104.666,-13.082 z"
         inkscape:connector-curvature="0"
         style="fill:#f5a623;fill-opacity:1" />
      <path
         id="path862"
         class=""
         d="M 378.047,294.186 389.334,313.738 494,326.82 v -18.14 z"
         inkscape:connector-curvature="0"
         style="fill:#f5a623;fill-opacity:1" />
      <path
         id="path864"
         class=""
         d="m 144.289,312.286 -57.112,98.92 h 337.644 l -57.11,-98.92 c -5.763,12.078 -17.677,22.035 -32.4,29.398 -20.907,10.452 -48.695,16.54 -79.312,16.54 -30.617,0 -58.405,-6.088 -79.31,-16.54 -14.725,-7.363 -26.64,-17.32 -32.4,-29.4 z"
         inkscape:connector-curvature="0"
         style="fill:#980012;fill-opacity:1" />
      <path
         id="path866"
         class=""
         d="m 400.129,332.436 14.167,24.537 79.704,29.89 v -19.226 l -93.87,-35.2 z"
         inkscape:connector-curvature="0"
         style="fill:#f5a623;fill-opacity:1" />
      <path
         id="path868"
         class=""
         d="M 111.869,332.438 18,367.637 v 19.225 l 79.703,-29.888 14.166,-24.538 z"
         inkscape:connector-curvature="0"
         style="fill:#f5a623;fill-opacity:1" />
      <path
         id="path870"
         class=""
         d="M 80.224,387.246 18,426.136 v 21.227 l 43.05,-26.906 19.175,-33.21 z"
         inkscape:connector-curvature="0"
         style="fill:#f5a623;fill-opacity:1" />
      <path
         id="path872"
         class=""
         d="m 431.774,387.246 19.174,33.21 43.052,26.908 v -21.226 l -62.225,-38.89 z"
         inkscape:connector-curvature="0"
         style="fill:#f5a623;fill-opacity:1" />
      <path
         id="path874"
         class=""
         d="M 80.954,429.206 18,484.29 V 494 h 16.238 l 74.05,-64.795 H 80.956 Z"
         inkscape:connector-curvature="0"
         style="fill:#f5a623;fill-opacity:1" />
      <path
         id="path876"
         class=""
         d="M 123.112,429.206 67.573,494 h 23.71 l 55.537,-64.795 h -23.707 z"
         inkscape:connector-curvature="0"
         style="fill:#f5a623;fill-opacity:1" />
      <path
         id="path878"
         class=""
         d="M 164.944,429.206 127.92,494 h 20.732 l 37.026,-64.795 h -20.733 z"
         inkscape:connector-curvature="0"
         style="fill:#f5a623;fill-opacity:1" />
      <path
         id="path880"
         class=""
         d="m 207.696,429.206 c -8.665,28.96 -15.66,51.885 -19.61,64.794 h 18.82 c 4.678,-15.314 11.433,-37.537 19.573,-64.795 h -18.783 z"
         inkscape:connector-curvature="0"
         style="fill:#f5a623;fill-opacity:1" />
      <path
         id="path882"
         class=""
         d="M 246.999,429.206 V 494 h 18 v -64.795 h -18 z"
         inkscape:connector-curvature="0"
         style="fill:#f5a623;fill-opacity:1" />
      <path
         id="path884"
         class=""
         d="M 286.983,429.206 305.496,494 h 18.723 l -18.515,-64.795 h -18.72 z"
         inkscape:connector-curvature="0"
         style="fill:#f5a623;fill-opacity:1" />
      <path
         id="path886"
         class=""
         d="M 326.321,429.206 363.348,494 h 20.732 l -37.025,-64.795 h -20.733 z"
         inkscape:connector-curvature="0"
         style="fill:#f5a623;fill-opacity:1" />
      <path
         id="path888"
         class=""
         d="M 365.177,429.206 420.718,494 h 23.708 l -55.54,-64.795 H 365.18 Z"
         inkscape:connector-curvature="0"
         style="fill:#f5a623;fill-opacity:1" />
      <path
         id="path890"
         class=""
         d="M 403.71,429.206 477.763,494 H 494 v -9.71 L 431.045,429.205 H 403.71 Z"
         inkscape:connector-curvature="0"
         style="fill:#f5a623;fill-opacity:1" />
    </g>
  </g>
</svg>
