<?xml version="1.0" encoding="UTF-8" standalone="no"?>
<svg
   xmlns:dc="http://purl.org/dc/elements/1.1/"
   xmlns:cc="http://creativecommons.org/ns#"
   xmlns:rdf="http://www.w3.org/1999/02/22-rdf-syntax-ns#"
   xmlns:svg="http://www.w3.org/2000/svg"
   xmlns="http://www.w3.org/2000/svg"
   xmlns:sodipodi="http://sodipodi.sourceforge.net/DTD/sodipodi-0.dtd"
   xmlns:inkscape="http://www.inkscape.org/namespaces/inkscape"
   viewBox="0 0 512 512"
   style="height: 64px; width: 64px;"
   version="1.1"
   id="svg42"
   sodipodi:docname="spell-nuees-de-criquets.svg"
   inkscape:version="1.0.1 (0767f8302a, 2020-10-17)"
   inkscape:export-filename="/home/plic/Documents/dev/cofbazar.github.io/images/spell-nuees-de-criquets.png"
   inkscape:export-xdpi="24"
   inkscape:export-ydpi="24">
  <metadata
     id="metadata48">
    <rdf:RDF>
      <cc:Work
         rdf:about="">
        <dc:format>image/svg+xml</dc:format>
        <dc:type
           rdf:resource="http://purl.org/dc/dcmitype/StillImage" />
        <dc:title></dc:title>
      </cc:Work>
    </rdf:RDF>
  </metadata>
  <defs
     id="defs46">
    <radialGradient
       id="lorc-raining-gradient-2"
       gradientTransform="matrix(-0.64625132,-0.41409756,0.44432237,-0.77352112,301.54217,461.57191)"
       cx="190.28587"
       cy="201.08548"
       fx="190.28587"
       fy="201.08548"
       r="177.61218"
       gradientUnits="userSpaceOnUse">
      <stop
         offset="0%"
         stop-color="#ffffff"
         stop-opacity="1"
         id="stop836" />
      <stop
         offset="100%"
         stop-color="#c9c9c9"
         stop-opacity="1"
         id="stop838" />
    </radialGradient>
    <radialGradient
       id="lorc-raining-gradient-3"
       gradientTransform="matrix(0.93570953,0,0,1.0687077,-349.05899,282.29567)"
       cx="365.27305"
       cy="274.16313"
       fx="365.27305"
       fy="274.16313"
       r="16.316204"
       gradientUnits="userSpaceOnUse">
      <stop
         offset="0%"
         stop-color="#4a4a4a"
         stop-opacity="1"
         id="stop841" />
      <stop
         offset="100%"
         stop-color="#000000"
         stop-opacity="1"
         id="stop843" />
    </radialGradient>
    <radialGradient
       id="lorc-raining-gradient-4"
       gradientTransform="matrix(0.88204691,0,0,1.1337265,-349.05899,282.29567)"
       cx="168.37347"
       cy="260.742"
       fx="168.37347"
       fy="260.742"
       r="18.367839"
       gradientUnits="userSpaceOnUse">
      <stop
         offset="0%"
         stop-color="#4a4a4a"
         stop-opacity="1"
         id="stop846" />
      <stop
         offset="100%"
         stop-color="#000000"
         stop-opacity="1"
         id="stop848" />
    </radialGradient>
    <radialGradient
       id="lorc-raining-gradient-5"
       gradientTransform="matrix(0.81630258,0,0,1.2250359,-349.05899,282.29567)"
       cx="506.60643"
       cy="248.6238"
       fx="506.60643"
       fy="248.6238"
       r="22.335024"
       gradientUnits="userSpaceOnUse">
      <stop
         offset="0%"
         stop-color="#4a4a4a"
         stop-opacity="1"
         id="stop851" />
      <stop
         offset="100%"
         stop-color="#000000"
         stop-opacity="1"
         id="stop853" />
    </radialGradient>
    <radialGradient
       id="delapouite-ants-gradient-2"
       gradientTransform="scale(0.95071544,1.0518394)"
       cx="151.02852"
       cy="150.02984"
       fx="151.02852"
       fy="150.02984"
       r="133.11811"
       gradientUnits="userSpaceOnUse">
      <stop
         offset="0%"
         stop-color="#4a4a4a"
         stop-opacity="1"
         id="stop954" />
      <stop
         offset="100%"
         stop-color="#000000"
         stop-opacity="1"
         id="stop956" />
    </radialGradient>
    <radialGradient
       id="delapouite-ants-gradient-3"
       gradientTransform="scale(1.0799028,0.92600923)"
       cx="361.55969"
       cy="107.74726"
       fx="361.55969"
       fy="107.74726"
       r="84.713247"
       gradientUnits="userSpaceOnUse">
      <stop
         offset="0%"
         stop-color="#4a4a4a"
         stop-opacity="1"
         id="stop959" />
      <stop
         offset="100%"
         stop-color="#000000"
         stop-opacity="1"
         id="stop961" />
    </radialGradient>
    <radialGradient
       id="delapouite-ants-gradient-4"
       gradientTransform="scale(0.85393096,1.1710549)"
       cx="447.47507"
       cy="289.96174"
       fx="447.47507"
       fy="289.96174"
       r="132.16307"
       gradientUnits="userSpaceOnUse">
      <stop
         offset="0%"
         stop-color="#4a4a4a"
         stop-opacity="1"
         id="stop964" />
      <stop
         offset="100%"
         stop-color="#000000"
         stop-opacity="1"
         id="stop966" />
    </radialGradient>
    <radialGradient
       id="delapouite-ants-gradient-5"
       gradientTransform="scale(0.97137875,1.0294646)"
       cx="109.99182"
       cy="384.32116"
       fx="109.99182"
       fy="384.32116"
       r="87.857528"
       gradientUnits="userSpaceOnUse">
      <stop
         offset="0%"
         stop-color="#4a4a4a"
         stop-opacity="1"
         id="stop969" />
      <stop
         offset="100%"
         stop-color="#000000"
         stop-opacity="1"
         id="stop971" />
    </radialGradient>
    <radialGradient
       id="delapouite-ants-gradient-2-3"
       gradientTransform="matrix(0.35549384,0,0,0.39330635,-269.00788,176.4817)"
       cx="151.02852"
       cy="150.02985"
       fx="151.02852"
       fy="150.02985"
       r="133.1181"
       gradientUnits="userSpaceOnUse">
      <stop
         offset="0%"
         stop-color="#4a4a4a"
         stop-opacity="1"
         id="stop954-6" />
      <stop
         offset="100%"
         stop-color="#000000"
         stop-opacity="1"
         id="stop956-7" />
    </radialGradient>
    <radialGradient
       id="delapouite-ants-gradient-3-5"
       gradientTransform="matrix(0.40379989,0,0,0.34625563,-284.67839,69.770307)"
       cx="361.55969"
       cy="107.74726"
       fx="361.55969"
       fy="107.74726"
       r="84.713249"
       gradientUnits="userSpaceOnUse">
      <stop
         offset="0%"
         stop-color="#4a4a4a"
         stop-opacity="1"
         id="stop959-3" />
      <stop
         offset="100%"
         stop-color="#000000"
         stop-opacity="1"
         id="stop961-5" />
    </radialGradient>
    <radialGradient
       id="delapouite-ants-gradient-4-6"
       gradientTransform="matrix(0.31930395,0,0,0.43788371,-417.97754,266.42284)"
       cx="447.47507"
       cy="289.96173"
       fx="447.47507"
       fy="289.96173"
       r="132.16307"
       gradientUnits="userSpaceOnUse">
      <stop
         offset="0%"
         stop-color="#4a4a4a"
         stop-opacity="1"
         id="stop964-2" />
      <stop
         offset="100%"
         stop-color="#000000"
         stop-opacity="1"
         id="stop966-9" />
    </radialGradient>
    <radialGradient
       id="delapouite-ants-gradient-5-1"
       gradientTransform="matrix(0.36322031,0,0,0.38493992,340.71057,66.666621)"
       cx="109.99182"
       cy="384.32117"
       fx="109.99182"
       fy="384.32117"
       r="87.857529"
       gradientUnits="userSpaceOnUse">
      <stop
         offset="0%"
         stop-color="#4a4a4a"
         stop-opacity="1"
         id="stop969-2" />
      <stop
         offset="100%"
         stop-color="#000000"
         stop-opacity="1"
         id="stop971-7" />
    </radialGradient>
    <radialGradient
       id="delapouite-ants-gradient-5-1-6"
       gradientTransform="matrix(0.36322031,0,0,0.38493992,197.44548,-31.446511)"
       cx="109.99182"
       cy="384.32117"
       fx="109.99182"
       fy="384.32117"
       r="87.857529"
       gradientUnits="userSpaceOnUse">
      <stop
         offset="0%"
         stop-color="#4a4a4a"
         stop-opacity="1"
         id="stop969-2-2" />
      <stop
         offset="100%"
         stop-color="#000000"
         stop-opacity="1"
         id="stop971-7-6" />
    </radialGradient>
  </defs>
  <sodipodi:namedview
     pagecolor="#ffffff"
     bordercolor="#666666"
     borderopacity="1"
     objecttolerance="10"
     gridtolerance="10"
     guidetolerance="10"
     inkscape:pageopacity="0"
     inkscape:pageshadow="2"
     inkscape:window-width="1674"
     inkscape:window-height="1043"
     id="namedview44"
     showgrid="false"
     inkscape:zoom="0.8046875"
     inkscape:cx="202.47857"
     inkscape:cy="342.60599"
     inkscape:window-x="4032"
     inkscape:window-y="236"
     inkscape:window-maximized="0"
     inkscape:current-layer="svg42"
     inkscape:document-rotation="0" />
  <g
     class=""
     transform="matrix(1.0482978,0,0,1.0482978,-12.077625,-11.804758)"
     id="g14">
    <g
       id="g12">
      <path
         d="m 103.432,17.844 c -1.118,0.005 -2.234,0.032 -3.348,0.08 -2.547,0.11 -5.083,0.334 -7.604,0.678 -20.167,2.747 -39.158,13.667 -52.324,33.67 -24.613,37.4 2.194,98.025 56.625,98.025 0.536,0 1.058,-0.012 1.583,-0.022 v 0.704 h 60.565 c -10.758,31.994 -30.298,66.596 -52.448,101.43 -2.162,3.4 -4.254,6.878 -6.29,10.406 l 34.878,35.733 -56.263,9.423 c -32.728,85.966 -27.42,182.074 48.277,182.074 v -0.002 l 9.31,0.066 c 23.83,-0.57 46.732,-4.298 61.325,-12.887 4.174,-2.458 7.63,-5.237 10.467,-8.42 h -32.446 c -20.33,5.95 -40.8,-6.94 -47.396,-25.922 -8.956,-25.77 7.52,-52.36 31.867,-60.452 5.803,-1.93 11.723,-2.834 17.565,-2.834 v -0.406 h 178.33 c -0.57,-44.403 16.35,-90.125 49.184,-126 23.955,-26.176 42.03,-60.624 51.3,-94.846 l -41.225,-24.932 38.272,-6.906 -43.37,-25.807 h -0.005 l 0.002,-0.002 0.002,0.002 52.127,-8.85 C 457.16,52.713 433.552,23.734 385.022,23.734 341.14,32.26 222.11,35.29 149.34,28.496 134.452,21.733 118.793,17.773 103.432,17.844 Z"
         class="selected"
         id="path2"
         inkscape:connector-curvature="0"
         style="fill:#d9fdb2;fill-opacity:1;stroke:#4a4a4a;stroke-width:10;stroke-opacity:1" />
      <path
         d="m 103.896,36.547 c 13.137,0.043 27.407,3.804 41.247,10.63 l 0.033,-0.07 c 4.667,4.735 8.542,9.737 11.68,14.985 H 82.92 l 10.574,14.78 c 10.608,14.83 19.803,31.99 21.09,42.024 0.643,5.017 -0.11,7.167 -1.814,8.836 -1.705,1.67 -6.228,3.875 -15.99,3.875 -40.587,0 -56.878,-44.952 -41.012,-69.06 C 66.238,46.64 79.582,39.22 95.002,37.12 c 2.89,-0.395 5.863,-0.583 8.894,-0.573 z"
         class=""
         id="path4"
         inkscape:connector-curvature="0"
         style="fill:#7ed321;fill-opacity:1;stroke:#4a4a4a;stroke-width:10;stroke-opacity:1" />
      <path
         d="m 118.5,80.78 h 46.28 c 4.275,15.734 3.656,33.07 -0.544,51.51 H 131.52 c 1.9,-5.027 2.268,-10.574 1.6,-15.77 -1.527,-11.913 -7.405,-24.065 -14.62,-35.74 z"
         class=""
         id="path6"
         inkscape:connector-curvature="0"
         style="fill:#d9fdb2;fill-opacity:1;stroke:#4a4a4a;stroke-width:10;stroke-opacity:1" />
      <path
         d="m 220.053,397.875 c 6.44,6.84 11.192,15.31 13.37,24.914 3.797,16.736 3.092,31.208 -1.767,43.204 -4.526,11.175 -12.576,19.79 -22.29,26 h 237.19 c 14.448,0 24.887,-5.678 32.2,-14.318 7.312,-8.64 11.2,-20.514 10.705,-32.352 -0.186,-4.473 -0.978,-8.913 -2.407,-13.18 l -69.91,-8.205 42.017,-20.528 c -8.32,-3.442 -18.64,-5.537 -31.375,-5.537 H 220.053 Z"
         class=""
         id="path8"
         inkscape:connector-curvature="0"
         style="fill:#d9fdb2;fill-opacity:1;stroke:#4a4a4a;stroke-width:10;stroke-opacity:1" />
      <path
         d="m 177.385,398.381 c -1.152,-0.003 -2.306,0.048 -3.457,0.153 -2.633,0.242 -5.256,0.775 -7.824,1.63 -15.11,5.02 -25.338,21.54 -20.11,36.583 3.673,10.57 15.347,17.71 25.654,13.938 l 1.555,-0.57 h 43.354 c 0.946,-6.36 0.754,-13.882 -1.358,-23.192 -3.71,-16.358 -20.543,-28.483 -37.815,-28.54 z"
         class=""
         id="path10"
         inkscape:connector-curvature="0"
         style="fill:#7ed321;fill-opacity:1;stroke:#4a4a4a;stroke-width:10;stroke-opacity:1" />
    </g>
  </g>
  <path
     d="m 166.76741,347.51864 c 22.31561,14.29914 60.11004,-7.33681 91.09511,-49.01654 l 13.45128,-18.09449 -3.47024,19.54622 c -3.77027,21.22322 -0.88055,38.66138 9.85533,45.5406 18.47362,11.83731 52.43866,-11.29926 75.49828,-51.44377 3.6389,-6.33494 6.59066,-13.10162 9.6627,-20.61042 l 4.81515,-11.74033 5.99175,1.7877 c 13.94851,4.24044 36.01578,-11.97052 51.54519,-39.00568 16.90768,-29.4346 19.61661,-60.27093 6.07363,-68.94885 -8.74959,-5.60646 -22.33123,-0.32116 -35.31506,11.96362 l -10.01886,9.4759 2.16679,-13.16945 c 4.00604,-24.6026 0.0556,-44.61961 -12.61566,-52.73897 -14.69452,-9.41578 -36.82048,-0.54842 -58.56803,20.43793 l -11.7004,11.29206 4.01552,-16.1707 c 4.46915,-18.04419 2.60353,-32.838656 -6.28623,-38.534936 -7.17614,-4.598239 -17.37726,-2.120541 -27.93121,5.610569 l -7.3308,5.365519 0.64806,-9.022131 c 1.17525,-16.422035 -2.39338,-29.137709 -11.3758,-34.893354 -18.47361,-11.837317 -52.40535,11.277844 -75.46497,51.422353 -23.05902,40.14347 -26.50067,81.99219 -7.98529,93.85627 1.42755,0.91473 2.86367,1.59273 4.45713,2.10089 l 5.76552,1.82371 -6.20321,10.94205 c -32.19392,56.74382 -36.91203,115.48115 -10.77746,132.22735 z"
     class="selected"
     fill="url(#lorc-raining-gradient-2)"
     stroke="#4a4a4a"
     stroke-opacity="1"
     stroke-width="3.30789"
     id="path858"
     style="fill:url(#lorc-raining-gradient-2)" />
  <g
     id="g984"
     transform="matrix(0.37392244,0,0,0.37392244,161.08201,124.76886)">
    <path
       d="m 99.77,20.39 c -5.24,12.96 -3.7,25.24 0.53,35.64 -3.75,7.22 -4.56,19.12 -1.63,25.51 -1.29,2.13 -2.56,4.42 -3.79,6.81 C 87.9,78.53 84.9,68.22 85,55.9 L 67,55.75 c -0.1,12.16 2.59,23.56 7.99,34.09 -13.81,-0.53 -28.93,1.34 -40.32,3.98 l 4.12,17.58 c 10.63,-2.5 19.97,-3.7 28.27,-3.9 -21.83,11.7 -35.57,35.4 -47.26,52.9 l 14.92,10 c 11.57,-14.8 19.12,-31.8 33.09,-42 -4.92,6.3 -9.32,14 -12.76,22.3 -10.75,25.9 -9.65,51 2.46,56.1 12.17,5.1 30.77,-11.8 41.56,-37.7 3.73,-8.9 6.13,-18.1 7.03,-26.6 2.3,19.9 -6,40.9 -9.17,57.1 l 15.47,3 1.6,17.5 c 11.6,-1.1 26.3,-2.9 39.5,-1.4 -1.5,1.7 -3,3.3 -4.3,5 -6.9,-0.6 -14.8,2.6 -21,8.3 -1.1,1 -2.1,2 -3,3.1 -2.6,-0.1 -5.2,-0.2 -7.9,-0.2 -8.2,0.1 -17.73,1.8 -25.4,8.6 l 11.9,13.4 c 3.6,-3.1 7.5,-3.9 13.7,-4 h 0.6 c 0.4,8.5 6.8,14.3 14.3,14.9 -1,5.2 -3.4,10.1 -7.7,14.2 l 12.4,13 c 10.4,-9.9 13.9,-22.3 14.1,-33.9 l 2.1,-1.8 c 6.2,-5.9 9.9,-13.6 9.7,-20.6 2.1,-1.4 4.2,-2.9 6.3,-4.6 2.3,11.8 0.8,22.4 -4.5,33.6 l 16.4,7.6 c 5.3,-11.3 7.5,-23.2 6.8,-35.4 11.4,4.4 25.3,5.8 41.5,2.8 l -3.2,-17.6 c -4.5,0.8 -8.6,1.3 -12.3,1.4 20,-4.6 38.7,-17.9 53.4,-27 L 258,184.1 c -16.9,9.5 -30.4,20.3 -47.5,24.8 7.1,-3.8 14.3,-9 20.8,-15.1 20.5,-19.1 29.9,-42.4 21,-52.1 -8.9,-9.8 -32.9,-2.1 -53.5,17.1 -7,6.5 -13,13.8 -17.3,21.1 6.4,-19 22.5,-34.6 32,-48 l -14.8,-10.4 c -13.8,19.8 -28.2,32.7 -34.5,54.1 -0.5,-3.2 -0.9,-6.3 -1.1,-9.3 l -18,1.4 c 0.8,9.9 2.6,21.3 6.6,32.4 -12.3,-1.2 -25.1,0.6 -36.9,1.8 6.1,-27.5 13.9,-49 6.2,-74.5 7.1,6.4 13,13.5 18.6,20.4 l 14,-11.4 c -6.5,-8 -14.3,-17.5 -24.5,-25.9 12.5,-5.1 23.2,-12.19 30.8,-16.49 L 151.1,78.29 C 141,84 128.3,91.71 115.7,95.91 c 0.7,-2.2 1.3,-4.3 1.8,-6.4 9.4,-5 15.4,-12.21 17.5,-21.4 2.1,-1.09 4.2,-2.24 6.3,-3.54 6.7,-4.2 13.1,-10.19 16.9,-18.85 l -16.4,-7.33 c -2.1,4.57 -4.8,7.4 -8.9,10.16 -4,-6.44 -11.9,-8.3 -18.1,-6.18 -0.9,-4.79 -0.5,-9.86 1.6,-15.28 z"
       class=""
       fill="url(#delapouite-ants-gradient-2)"
       stroke="#4a4a4a"
       stroke-opacity="1"
       stroke-width="4"
       id="path976"
       style="fill:url(#delapouite-ants-gradient-2)" />
    <path
       d="M 356.4,24.15 344.2,37.43 C 357.7,51.1 372.4,61.15 381,76.44 375.4,70.61 368.4,65.09 360.7,60.46 336.7,46 311.8,43.37 304.9,54.57 298,65.84 312,86.77 336,101.3 c 10.9,6.5 22.5,10.9 32.6,12.3 -24.4,6.6 -39.1,2 -59.8,-7 l -7.2,16.4 c 20.1,8.9 39.1,14 64.3,9.4 -6.6,5.9 -13.6,11 -20.3,15.6 l 10.2,14.8 c 10.1,-6.9 21.3,-15.6 31.4,-26.9 3.5,12.5 9.3,24.5 14.1,36.7 l 16.8,-6.4 c -5.5,-14.1 -11,-25.4 -14.4,-38.8 2.8,1.5 5.6,2.8 8.3,3.9 1.3,6.8 6.4,13.6 13.6,18 1.9,1.2 3.9,2.1 5.9,2.9 3.4,8 7.6,15.2 14.3,23.2 l 13.8,-11.6 c -3.6,-4.3 -6.2,-8 -8.3,-11.7 4.4,-2.5 7.1,-6.3 7.8,-10.8 3.2,1.2 6.8,2.9 10.8,5.3 l 9.2,-15.4 c -10,-4.9 -18.9,-10 -29.1,-10 -1.5,-1.3 -3.2,-2.5 -4.9,-3.6 -7.3,-4.4 -15.8,-5.8 -22.5,-3.7 -3,-2.5 -6.4,-5 -10,-7.4 14.9,-4.4 34.6,-4.5 48,-2.3 l 2.8,-17.77 c -17.2,-2.44 -33.6,-3.1 -49.5,0.44 3,-11.47 4.5,-24.29 3.9,-38.67 l -18,0.76 c 0.4,8.29 0,15.88 -1,22.91 -9.4,-19.83 -28.7,-35.23 -42.4,-47.72 z"
       class=""
       fill="url(#delapouite-ants-gradient-3)"
       stroke="#4a4a4a"
       stroke-opacity="1"
       stroke-width="4"
       id="path978"
       style="fill:url(#delapouite-ants-gradient-3)" />
    <path
       d="m 340,187.6 -11.2,14 c 9.6,7.7 15.7,16.6 19,28.1 -2.6,-0.5 -5.2,-1 -7.7,-1.3 -3,-6.3 -9.7,-11.6 -17.9,-14.1 -1.3,-0.4 -2.7,-0.7 -4,-0.9 -1.9,-1.7 -3.8,-3.2 -5.8,-4.7 -8.2,-6 -17.9,-10.6 -27.5,-13.5 l -5.2,17.2 c 5.5,1.7 11.1,4.1 16.1,7 -3.2,3.6 -4.3,8.4 -3.4,12.7 -5.8,0.4 -11.4,-0.1 -16.1,-1.3 l -4.6,17.4 c 11.4,3 23.9,2.8 35.8,0.2 1.5,0.6 3,1.2 4.5,1.6 8.1,2.3 16.5,1.6 22.4,-2 2,0.9 4,1.8 6.2,2.6 -11.2,7.2 -25.1,12.1 -36,16.4 l 6.6,16.8 c 7.4,-3 18.1,-6.4 28.8,-11.8 0.7,10.3 3.1,20.2 6.6,28.7 l 16.6,-6.8 c -3,-7.4 -5,-16.3 -5.3,-25.4 7,12.4 15.5,21 24.7,27.3 10.2,6.9 20.8,11.3 31.4,16.2 7.9,21.6 13.7,39.1 12.1,58 -2.2,-8.4 -6.1,-17.5 -11.4,-26 -14.8,-23.9 -35.9,-37.6 -47.1,-30.7 -11.2,7 -8.3,31.9 6.5,55.8 6.2,10 13.8,18.6 21.6,24.5 -23.7,-7 -35.6,-21.2 -50.9,-41.8 l -14.4,10.8 c 17.9,24 36.7,43.8 72.1,51.1 -10.2,3 -20.8,3.8 -29.5,2.8 l -2.2,17.8 c 10,1.2 21.2,0.7 32.5,-2.1 -2.2,11.5 -2.7,22.4 -3.5,30 l 17.8,2 c 1.3,-11.5 2.3,-26.3 6.4,-39 1.4,1.8 2.7,3.6 4.1,5.2 -1.9,6.5 -0.5,14.6 3.7,21.7 -4.4,13.3 -2.6,27.9 4.1,39.5 l 15.6,-9 c -2.8,-4.9 -4.1,-10.9 -3.8,-16.9 7.4,1.9 13.9,0.5 18,-5.2 4,3.5 7.9,8 11.3,13.3 l 15.2,-9.6 c -6.8,-10.6 -15.5,-19.9 -25.6,-25.3 -0.8,-1.9 -1.7,-3.8 -2.8,-5.6 -4.5,-7.2 -11.4,-12.3 -18.3,-13.5 -1,-2.3 -2.1,-4.7 -3.4,-7.1 12.1,0 22.2,3.5 32.2,10.9 L 484.9,409 c -9.9,-7.2 -20.7,-11.6 -32.5,-13.4 6.1,-11 9.8,-24.4 10,-40.3 l -18,-0.2 c 2.5,15.9 -11.2,-42.7 -13.7,-49.5 l 2.3,-4.2 c -18.1,-10.5 -37,-14.9 -50.3,-29 7.1,4.7 15.9,8.6 25.2,11.4 27,7.9 51.8,4.1 55.5,-8.6 3.6,-12.7 -15.2,-29.3 -42.1,-37.2 -8.6,-2.5 -17.3,-3.9 -25.3,-4.1 18.2,-3.8 38.5,-0.6 53.5,0.8 l 1.6,-18 c -22.8,-0.8 -40.7,-5.2 -60.6,0 3.7,-1.7 7.8,-3.2 12.3,-4.5 l -5,-17.2 c -15.4,4.4 -27.4,11.5 -36.4,20 -4.8,-10.7 -12,-19.9 -21.4,-27.4 z"
       class=""
       fill="url(#delapouite-ants-gradient-4)"
       stroke="#4a4a4a"
       stroke-opacity="1"
       stroke-width="4"
       id="path980"
       style="fill:url(#delapouite-ants-gradient-4)" />
    <path
       d="m 77.53,308 -14.42,10.8 c 1.92,2.6 3.31,6.9 3.87,11.6 -6.61,-1 -13.11,2 -15.99,7.6 -4.36,-3.1 -8.74,-7.1 -12.72,-12 l -13.96,11.4 c 7.87,9.7 17.53,17.9 28.2,22 4.4,8.4 14.91,16.1 23.21,16.7 0.87,1.5 1.8,3.1 2.8,4.6 -12.8,-1 -26.05,-6.2 -37.11,-12.5 l -8.88,15.6 c 11.48,6.5 25.8,12.9 41.08,14.8 -6.09,11.4 -9.12,25.9 -7.31,43.5 l 17.9,-1.8 c -0.47,-4.6 -0.6,-8.8 -0.44,-12.6 2.92,20.4 14.73,40.3 22.64,55.7 l 16,-8.2 c -7.5,-17.3 -18.5,-32.2 -20.7,-49.4 3.1,7.4 7.8,15 13.3,22.1 17.4,21.9 39.9,33.1 50.2,25 10.3,-8.2 4.6,-32.6 -12.8,-54.6 -8.5,-10.8 -18.8,-19.6 -28.4,-24.2 7.1,0.6 13,2 18.5,4.2 10.8,4.5 21.1,12.5 35.9,23.7 l 10.9,-14.4 C 174.8,398.1 162,386.2 148,381.2 V 364 c -9.3,-0.1 -20,0.7 -30.5,3.3 3.8,-12.8 5.6,-25.5 5.5,-36.1 l -18,0.2 c 0.1,10.3 -2.3,24.5 -7.39,38.1 -1.91,-2.1 -3.86,-4.1 -5.8,-6 0.64,-14.4 -2.06,-16.6 -6.56,-27.5 0.19,-9.2 -1.37,-19.5 -7.72,-28 z"
       class="selected"
       fill="url(#delapouite-ants-gradient-5)"
       stroke="#4a4a4a"
       stroke-opacity="1"
       stroke-width="4"
       id="path982"
       style="fill:url(#delapouite-ants-gradient-5)" />
  </g>
  <path
     d="m 369.70078,181.83473 -5.39196,4.03836 c 0.71793,0.9722 1.23768,2.58007 1.44708,4.3375 -2.47163,-0.37392 -4.90213,0.74785 -5.97902,2.84181 -1.63031,-1.15915 -3.26809,-2.65484 -4.7563,-4.48706 l -5.21996,4.26271 c 2.94277,3.62705 6.55486,6.69321 10.54462,8.22629 1.64526,3.14095 5.57518,6.02016 8.67874,6.24451 0.32531,0.56088 0.67306,1.15916 1.04698,1.72004 -4.78621,-0.37392 -9.74068,-2.31832 -13.87626,-4.67403 l -3.32043,5.83319 c 4.29263,2.4305 9.6472,4.8236 15.36073,5.53405 -2.27719,4.26272 -3.41017,9.6846 -2.73337,16.26563 l 6.69321,-0.67306 c -0.17574,-1.72004 -0.22435,-3.29052 -0.16453,-4.71142 1.09186,7.62802 5.50788,15.06907 8.46561,20.82748 l 5.98276,-3.06617 c -2.80442,-6.46885 -6.91757,-12.0403 -7.7402,-18.47177 1.15916,2.76703 2.9166,5.60884 4.97317,8.26369 6.50625,8.1889 14.91951,12.37683 18.77091,9.34806 3.8514,-3.06616 1.72004,-12.18987 -4.78621,-20.41616 -3.17834,-4.03837 -7.02974,-7.32888 -10.6194,-9.04893 2.65485,0.22436 4.86099,0.74785 6.91757,1.57048 4.03836,1.68265 7.88976,4.67403 13.42381,8.86196 l 4.07576,-5.38448 c -5.42188,-3.55227 -10.20808,-8.00194 -15.443,-9.87156 v -6.43146 c -3.47748,-0.0374 -7.47845,0.26174 -11.40463,1.23394 1.4209,-4.78621 2.09396,-9.53502 2.05657,-13.4986 l -6.7306,0.0748 c 0.0374,3.8514 -0.86003,9.1611 -2.76329,14.24644 -0.71419,-0.78524 -1.44334,-1.53308 -2.16875,-2.24353 0.23931,-5.38449 -0.77028,-6.20712 -2.45293,-10.28287 0.071,-3.44009 -0.51228,-7.29149 -2.88668,-10.46983 z"
     class="selected"
     fill="url(#delapouite-ants-gradient-5)"
     stroke="#4a4a4a"
     stroke-opacity="1"
     stroke-width="1.49569"
     id="path982-0"
     style="fill:url(#delapouite-ants-gradient-5-1)" />
  <path
     d="m 226.43569,83.721594 -5.39196,4.03836 c 0.71793,0.9722 1.23768,2.58007 1.44708,4.337496 -2.47163,-0.373916 -4.90213,0.74785 -5.97902,2.84181 -1.63031,-1.15915 -3.26809,-2.65484 -4.7563,-4.487056 l -5.21996,4.262706 c 2.94277,3.62705 6.55486,6.69321 10.54462,8.22629 1.64526,3.14095 5.57518,6.02016 8.67874,6.24451 0.32531,0.56088 0.67306,1.15916 1.04698,1.72004 -4.78621,-0.37392 -9.74068,-2.31832 -13.87626,-4.67403 l -3.32043,5.83319 c 4.29263,2.4305 9.6472,4.8236 15.36073,5.53405 -2.27719,4.26272 -3.41017,9.6846 -2.73337,16.26563 l 6.69321,-0.67306 c -0.17574,-1.72004 -0.22435,-3.29052 -0.16453,-4.71142 1.09186,7.62802 5.50788,15.06907 8.46561,20.82748 l 5.98276,-3.06617 c -2.80442,-6.46885 -6.91757,-12.0403 -7.7402,-18.47177 1.15916,2.76703 2.9166,5.60884 4.97317,8.26369 6.50625,8.1889 14.91951,12.37683 18.77091,9.34806 3.8514,-3.06616 1.72004,-12.18987 -4.78621,-20.41616 -3.17834,-4.03837 -7.02974,-7.32888 -10.6194,-9.04893 2.65485,0.22436 4.86099,0.74785 6.91757,1.57048 4.03836,1.68265 7.88976,4.67403 13.42381,8.86196 l 4.07576,-5.38448 c -5.42188,-3.55227 -10.20808,-8.00194 -15.443,-9.87156 v -6.43146 c -3.47748,-0.0374 -7.47845,0.26174 -11.40463,1.23394 1.4209,-4.78621 2.09396,-9.53502 2.05657,-13.4986 l -6.7306,0.0748 c 0.0374,3.8514 -0.86003,9.1611 -2.76329,14.24644 -0.71419,-0.78524 -1.44334,-1.53308 -2.16875,-2.24353 0.23931,-5.38449 -0.77028,-6.20712 -2.45293,-10.28287 0.071,-3.440086 -0.51228,-7.291486 -2.88668,-10.469826 z"
     class="selected"
     fill="url(#delapouite-ants-gradient-5)"
     stroke="#4a4a4a"
     stroke-opacity="1"
     stroke-width="1.49569"
     id="path982-0-1"
     style="fill:url(#delapouite-ants-gradient-5-1-6)" />
</svg>
