<?xml version="1.0" encoding="UTF-8" standalone="no"?>
<svg
   xmlns:dc="http://purl.org/dc/elements/1.1/"
   xmlns:cc="http://creativecommons.org/ns#"
   xmlns:rdf="http://www.w3.org/1999/02/22-rdf-syntax-ns#"
   xmlns:svg="http://www.w3.org/2000/svg"
   xmlns="http://www.w3.org/2000/svg"
   xmlns:sodipodi="http://sodipodi.sourceforge.net/DTD/sodipodi-0.dtd"
   xmlns:inkscape="http://www.inkscape.org/namespaces/inkscape"
   viewBox="0 0 512 512"
   style="height: 64px; width: 64px;"
   version="1.1"
   id="svg42"
   sodipodi:docname="spell-arme-dansante.svg"
   inkscape:version="0.92.3 (2405546, 2018-03-11)"
   inkscape:export-filename="/home/plic/Téléchargements/spell-arme-dansante.png"
   inkscape:export-xdpi="24"
   inkscape:export-ydpi="24">
  <metadata
     id="metadata48">
    <rdf:RDF>
      <cc:Work
         rdf:about="">
        <dc:format>image/svg+xml</dc:format>
        <dc:type
           rdf:resource="http://purl.org/dc/dcmitype/StillImage" />
        <dc:title></dc:title>
      </cc:Work>
    </rdf:RDF>
  </metadata>
  <defs
     id="defs46" />
  <sodipodi:namedview
     pagecolor="#ffffff"
     bordercolor="#666666"
     borderopacity="1"
     objecttolerance="10"
     gridtolerance="10"
     guidetolerance="10"
     inkscape:pageopacity="0"
     inkscape:pageshadow="2"
     inkscape:window-width="1373"
     inkscape:window-height="895"
     id="namedview44"
     showgrid="false"
     inkscape:zoom="0.98608247"
     inkscape:cx="272.91817"
     inkscape:cy="234.31702"
     inkscape:window-x="2455"
     inkscape:window-y="151"
     inkscape:window-maximized="0"
     inkscape:current-layer="svg42" />
  <g
     class=""
     transform="matrix(1.047396,0,0,1.047396,-11.639853,-11.365012)"
     id="g14">
    <g
       id="g12">
      <path
         d="m 103.432,17.844 c -1.118,0.005 -2.234,0.032 -3.348,0.08 -2.547,0.11 -5.083,0.334 -7.604,0.678 -20.167,2.747 -39.158,13.667 -52.324,33.67 -24.613,37.4 2.194,98.025 56.625,98.025 0.536,0 1.058,-0.012 1.583,-0.022 v 0.704 h 60.565 c -10.758,31.994 -30.298,66.596 -52.448,101.43 -2.162,3.4 -4.254,6.878 -6.29,10.406 l 34.878,35.733 -56.263,9.423 c -32.728,85.966 -27.42,182.074 48.277,182.074 v -0.002 l 9.31,0.066 c 23.83,-0.57 46.732,-4.298 61.325,-12.887 4.174,-2.458 7.63,-5.237 10.467,-8.42 h -32.446 c -20.33,5.95 -40.8,-6.94 -47.396,-25.922 -8.956,-25.77 7.52,-52.36 31.867,-60.452 5.803,-1.93 11.723,-2.834 17.565,-2.834 v -0.406 h 178.33 c -0.57,-44.403 16.35,-90.125 49.184,-126 23.955,-26.176 42.03,-60.624 51.3,-94.846 l -41.225,-24.932 38.272,-6.906 -43.37,-25.807 h -0.005 l 0.002,-0.002 0.002,0.002 52.127,-8.85 C 457.16,52.713 433.552,23.734 385.022,23.734 341.14,32.26 222.11,35.29 149.34,28.496 134.452,21.733 118.793,17.773 103.432,17.844 Z"
         class=""
         id="path2"
         inkscape:connector-curvature="0"
         style="fill:#facdd2;fill-opacity:1;stroke:#4a4a4a;stroke-width:10;stroke-opacity:1" />
      <path
         d="m 103.896,36.547 c 13.137,0.043 27.407,3.804 41.247,10.63 l 0.033,-0.07 c 4.667,4.735 8.542,9.737 11.68,14.985 H 82.92 l 10.574,14.78 c 10.608,14.83 19.803,31.99 21.09,42.024 0.643,5.017 -0.11,7.167 -1.814,8.836 -1.705,1.67 -6.228,3.875 -15.99,3.875 -40.587,0 -56.878,-44.952 -41.012,-69.06 C 66.238,46.64 79.582,39.22 95.002,37.12 c 2.89,-0.395 5.863,-0.583 8.894,-0.573 z"
         class=""
         id="path4"
         inkscape:connector-curvature="0"
         style="fill:#d0021b;fill-opacity:1;stroke:#4a4a4a;stroke-width:10;stroke-opacity:1" />
      <path
         d="m 118.5,80.78 h 46.28 c 4.275,15.734 3.656,33.07 -0.544,51.51 H 131.52 c 1.9,-5.027 2.268,-10.574 1.6,-15.77 -1.527,-11.913 -7.405,-24.065 -14.62,-35.74 z"
         class=""
         id="path6"
         inkscape:connector-curvature="0"
         style="fill:#facdd2;fill-opacity:1;stroke:#4a4a4a;stroke-width:10;stroke-opacity:1" />
      <path
         d="m 220.053,397.875 c 6.44,6.84 11.192,15.31 13.37,24.914 3.797,16.736 3.092,31.208 -1.767,43.204 -4.526,11.175 -12.576,19.79 -22.29,26 h 237.19 c 14.448,0 24.887,-5.678 32.2,-14.318 7.312,-8.64 11.2,-20.514 10.705,-32.352 -0.186,-4.473 -0.978,-8.913 -2.407,-13.18 l -69.91,-8.205 42.017,-20.528 c -8.32,-3.442 -18.64,-5.537 -31.375,-5.537 H 220.053 Z"
         class=""
         id="path8"
         inkscape:connector-curvature="0"
         style="fill:#facdd2;fill-opacity:1;stroke:#4a4a4a;stroke-width:10;stroke-opacity:1" />
      <path
         d="m 177.385,398.381 c -1.152,-0.003 -2.306,0.048 -3.457,0.153 -2.633,0.242 -5.256,0.775 -7.824,1.63 -15.11,5.02 -25.338,21.54 -20.11,36.583 3.673,10.57 15.347,17.71 25.654,13.938 l 1.555,-0.57 h 43.354 c 0.946,-6.36 0.754,-13.882 -1.358,-23.192 -3.71,-16.358 -20.543,-28.483 -37.815,-28.54 z"
         class="selected"
         id="path10"
         inkscape:connector-curvature="0"
         style="fill:#d0021b;fill-opacity:1;stroke:#4a4a4a;stroke-width:10;stroke-opacity:1" />
    </g>
  </g>
  <g
     id="g828"
     class=""
     transform="matrix(0.72508653,0,0,0.72508653,82.256961,39.379614)">
    <g
       id="g826"
       transform="matrix(-0.49497475,-0.49497475,0.49497475,-0.49497475,256,509.42707)">
      <path
         id="path818"
         class=""
         d="m 256.438,19.375 c -47.71,0 -95.422,14.41 -136.094,43.22 13.022,15.09 26.314,30.127 39.156,44.468 16.038,-11.682 32.482,-18.857 48.688,-22.282 l 9.875,-9.874 6.625,-6.625 6.593,6.626 7.72,7.72 c 78.735,5.644 140.54,95.133 101.406,175.53 l 118.5,118.5 C 513.354,285.985 501.497,166.778 423.282,88.564 377.17,42.45 316.806,19.376 256.44,19.376 Z"
         inkscape:connector-curvature="0"
         style="fill:#ffe0af;fill-opacity:1;stroke:#4a4a4a;stroke-width:10;stroke-opacity:1" />
      <path
         id="path820"
         class=""
         d="M 66.5,27.063 29.53,64.03 c 37.95,29.834 80.152,65.906 115,96.845 l 7.407,6.594 -7,7 -47.375,47.374 19.688,19.657 34.5,-34.5 268.125,268.156 77.344,19.28 -21.845,-74.78 -26.977,-26.978 0.04,-0.053 -117.75,-117.75 -0.032,0.045 L 207.25,151.5 244.344,114.406 224.688,94.75 l -46.47,46.438 -6.968,6.937 -6.563,-7.28 C 133.5,106.334 96.644,64.837 66.5,27.062 Z"
         inkscape:connector-curvature="0"
         style="fill:#9b9b9b;fill-opacity:1;stroke:#4a4a4a;stroke-width:10;stroke-opacity:1" />
      <path
         id="path822"
         class="selected"
         d="M 65.22,117.125 C -1.735,209.41 6.38,339.035 89.593,422.25 c 52.93,52.93 124.633,75.448 193.562,67.625 C 151.655,490.872 36.351,361.312 76.03,226.719 l -4.874,-4.876 6.594,-6.625 3.25,-3.25 c 7.028,-18.512 17.076,-37.017 30.5,-55.22 C 96.63,143.756 80.95,130.315 65.22,117.123 Z"
         inkscape:connector-curvature="0"
         style="fill:#ffe0af;fill-opacity:1;stroke:#4a4a4a;stroke-width:10;stroke-opacity:1" />
      <path
         id="path824"
         class=""
         d="m 185.594,163.155 c 12.283,0 22.22,9.968 22.22,22.25 0,2.224 -0.332,4.35 -0.94,6.376 l 236.94,236.97 -13.19,13.188 L 194.47,205.813 c -2.72,1.185 -5.72,1.843 -8.876,1.843 -12.284,0 -22.25,-9.964 -22.25,-22.25 0,-12.285 9.966,-22.25 22.25,-22.25 z"
         inkscape:connector-curvature="0"
         style="fill:#4a4a4a;fill-opacity:1;stroke:#4a4a4a;stroke-width:10;stroke-opacity:1" />
    </g>
  </g>
</svg>
