<?xml version="1.0" encoding="UTF-8" standalone="no"?>
<svg
   xmlns:dc="http://purl.org/dc/elements/1.1/"
   xmlns:cc="http://creativecommons.org/ns#"
   xmlns:rdf="http://www.w3.org/1999/02/22-rdf-syntax-ns#"
   xmlns:svg="http://www.w3.org/2000/svg"
   xmlns="http://www.w3.org/2000/svg"
   xmlns:sodipodi="http://sodipodi.sourceforge.net/DTD/sodipodi-0.dtd"
   xmlns:inkscape="http://www.inkscape.org/namespaces/inkscape"
   viewBox="0 0 512 512"
   style="height: 64px; width: 64px;"
   version="1.1"
   id="svg42"
   sodipodi:docname="spell-invisibilite.svg"
   inkscape:version="0.92.3 (2405546, 2018-03-11)"
   inkscape:export-filename="/home/plic/Téléchargements/spell-invisibilite.png"
   inkscape:export-xdpi="90"
   inkscape:export-ydpi="90">
  <metadata
     id="metadata48">
    <rdf:RDF>
      <cc:Work
         rdf:about="">
        <dc:format>image/svg+xml</dc:format>
        <dc:type
           rdf:resource="http://purl.org/dc/dcmitype/StillImage" />
        <dc:title></dc:title>
      </cc:Work>
    </rdf:RDF>
  </metadata>
  <defs
     id="defs46" />
  <sodipodi:namedview
     pagecolor="#ffffff"
     bordercolor="#666666"
     borderopacity="1"
     objecttolerance="10"
     gridtolerance="10"
     guidetolerance="10"
     inkscape:pageopacity="0"
     inkscape:pageshadow="2"
     inkscape:window-width="1489"
     inkscape:window-height="911"
     id="namedview44"
     showgrid="false"
     inkscape:zoom="0.65186406"
     inkscape:cx="24.219411"
     inkscape:cy="281.18457"
     inkscape:window-x="2404"
     inkscape:window-y="139"
     inkscape:window-maximized="0"
     inkscape:current-layer="svg42" />
  <path
     d="m 97.286186,7.3441808 c -1.171344,0.00521 -2.340593,0.033523 -3.507738,0.083821 C 91.109915,7.5432502 88.452912,7.7779379 85.811624,8.1383516 64.682373,11.016422 44.785234,22.457462 30.991029,43.414888 5.2036408,82.599396 33.289714,146.11707 90.317843,146.11707 c 0.561575,0 1.108481,-0.0126 1.658536,-0.0231 v 0.73758 h 63.454811 c -11.27132,33.52057 -31.74365,69.77358 -54.95052,106.26965 -2.265153,3.56223 -4.456975,7.20617 -6.59012,10.90251 l 36.54217,37.43797 -58.947539,9.87261 C 37.195593,401.38214 42.756859,502.07585 122.06567,502.07585 v -0.002 l 9.75423,0.0692 c 24.96703,-0.5972 48.96178,-4.50307 64.25107,-13.50189 4.37316,-2.57528 7.99406,-5.48688 10.96642,-8.82176 h -33.99413 c -21.30003,6.2339 -42.74674,-7.27114 -49.65746,-27.15884 -9.38333,-26.9996 7.8788,-54.85832 33.3875,-63.33642 6.07989,-2.02209 12.28236,-2.96923 18.4031,-2.96923 v -0.42537 h 186.83887 c -0.5972,-46.52165 17.13012,-94.42523 51.53077,-132.01198 25.09799,-27.42497 44.03543,-63.51662 53.74773,-99.3715 l -43.19201,-26.12161 40.09812,-7.23551 -45.43936,-27.038355 h -0.005 l 0.002,-0.002 0.002,0.002 54.6142,-9.272272 C 467.89202,43.876925 443.15759,13.515217 392.31202,13.515217 346.33623,22.448028 221.62681,25.622602 145.38465,18.504432 129.78629,11.418741 113.38012,7.2697929 97.286186,7.3441808 Z"
     class=""
     id="path2"
     inkscape:connector-curvature="0"
     style="fill:#c8e0ff;fill-opacity:1;stroke:#4a4a4a;stroke-width:10.47714138;stroke-opacity:1" />
  <path
     d="m 103.896,36.547 c 13.137,0.043 27.407,3.804 41.247,10.63 l 0.033,-0.07 c 4.667,4.735 8.542,9.737 11.68,14.985 H 82.92 l 10.574,14.78 c 10.608,14.83 19.803,31.99 21.09,42.024 0.643,5.017 -0.11,7.167 -1.814,8.836 -1.705,1.67 -6.228,3.875 -15.99,3.875 -40.587,0 -56.878,-44.952 -41.012,-69.06 C 66.238,46.64 79.582,39.22 95.002,37.12 c 2.89,-0.395 5.863,-0.583 8.894,-0.573 z"
     class=""
     id="path4"
     inkscape:connector-curvature="0"
     style="fill:#4a90e2;fill-opacity:1;stroke:#4a4a4a;stroke-width:10;stroke-opacity:1" />
  <path
     d="m 118.5,80.78 h 46.28 c 4.275,15.734 3.656,33.07 -0.544,51.51 H 131.52 c 1.9,-5.027 2.268,-10.574 1.6,-15.77 -1.527,-11.913 -7.405,-24.065 -14.62,-35.74 z"
     class=""
     id="path6"
     inkscape:connector-curvature="0"
     style="fill:#c8e0ff;fill-opacity:1;stroke:#4a4a4a;stroke-width:10;stroke-opacity:1" />
  <path
     d="m 220.053,397.875 c 6.44,6.84 11.192,15.31 13.37,24.914 3.797,16.736 3.092,31.208 -1.767,43.204 -4.526,11.175 -12.576,19.79 -22.29,26 h 237.19 c 14.448,0 24.887,-5.678 32.2,-14.318 7.312,-8.64 11.2,-20.514 10.705,-32.352 -0.186,-4.473 -0.978,-8.913 -2.407,-13.18 l -69.91,-8.205 42.017,-20.528 c -8.32,-3.442 -18.64,-5.537 -31.375,-5.537 H 220.053 Z"
     class="selected"
     id="path8"
     inkscape:connector-curvature="0"
     style="fill:#c8e0ff;fill-opacity:1;stroke:#4a4a4a;stroke-width:10;stroke-opacity:1" />
  <path
     d="m 177.385,398.381 c -1.152,-0.003 -2.306,0.048 -3.457,0.153 -2.633,0.242 -5.256,0.775 -7.824,1.63 -15.11,5.02 -25.338,21.54 -20.11,36.583 3.673,10.57 15.347,17.71 25.654,13.938 l 1.555,-0.57 h 43.354 c 0.946,-6.36 0.754,-13.882 -1.358,-23.192 -3.71,-16.358 -20.543,-28.483 -37.815,-28.54 z"
     class=""
     id="path10"
     inkscape:connector-curvature="0"
     style="fill:#4a90e2;fill-opacity:1;stroke:#4a4a4a;stroke-width:10;stroke-opacity:1" />
  <g
     font-size="42"
     font-style="normal"
     font-weight="bold"
     class=""
     transform="translate(620.5904,120.64171)"
     style="font-style:normal;font-weight:bold;font-size:42px;font-family:Arial, Helvetica, sans-serif;text-anchor:middle"
     id="g40">
    <flowRoot
       xml:space="preserve"
       id="flowRoot858"
       style="font-style:normal;font-weight:normal;font-size:40px;line-height:1.25;font-family:sans-serif;letter-spacing:0px;word-spacing:0px;fill:#000000;fill-opacity:1;stroke:none"
       transform="translate(-290,-103)"><flowRegion
         id="flowRegion860"><rect
           id="rect862"
           width="95.111855"
           height="106.61732"
           x="265.39276"
           y="137.68883" /></flowRegion><flowPara
         id="flowPara864" /></flowRoot>  </g>
  <g
     id="g823"
     class=""
     transform="matrix(0.7038782,0,0,0.7038782,85.639167,23.657663)">
    <path
       id="path821"
       d="m 262.53,12.22 -2.936,18.468 2.72,0.437 2.155,0.5 2.124,0.625 h 0.03 l 1.595,0.563 0.155,0.062 0.344,0.125 1.936,0.813 0.125,0.062 2.033,1 1.312,0.72 9.03,-16.345 -1.78,-1 -0.22,-0.125 -0.217,-0.094 -2.532,-1.218 -0.22,-0.093 -0.248,-0.126 -2.563,-1.063 -0.25,-0.092 -0.25,-0.094 -2.594,-0.906 -0.28,-0.094 -0.25,-0.063 -2.656,-0.78 -0.28,-0.063 -0.252,-0.062 -2.718,-0.594 -0.28,-0.06 -0.283,-0.064 -2.75,-0.437 z m -12.06,0.092 -2.376,0.22 -0.313,0.03 -0.28,0.032 -2.938,0.5 -0.28,0.03 -0.282,0.063 -2.906,0.657 -0.28,0.062 -0.283,0.094 -2.81,0.844 -0.282,0.062 -0.282,0.094 -2.78,1 -0.25,0.094 -0.25,0.125 -2.75,1.155 -0.25,0.125 -0.22,0.125 -1.344,0.656 8.374,16.72 0.844,-0.438 0.064,-0.03 2.156,-0.938 2.78,-1 2.282,-0.657 1.75,-0.406 h 0.063 l 2.688,-0.436 0.156,-0.032 1.78,-0.156 -1.78,-18.593 z m -38.564,18.75 -0.812,0.813 -0.156,0.156 -0.157,0.19 -2.124,2.343 -0.156,0.156 -0.156,0.155 -2.03,2.5 -0.126,0.156 -0.125,0.157 -1.97,2.594 -0.124,0.19 -0.126,0.155 -1.844,2.72 -0.094,0.186 -0.125,0.157 -1.75,2.844 -0.093,0.157 -0.093,0.188 -0.656,1.156 16.312,9.126 0.438,-0.812 0.218,-0.344 1.313,-2.125 0.06,-0.094 0.157,-0.25 1.375,-2.03 0.188,-0.25 0.063,-0.094 1.437,-1.906 2,-2.438 0.03,-0.03 1.532,-1.688 0.313,-0.313 0.5,-0.5 -13.22,-13.218 z m 88.22,1.875 -14,12.376 1.312,1.468 0.28,0.314 1.376,1.718 0.03,0.063 0.22,0.25 1.562,2.156 1.28,1.907 0.22,0.313 1.438,2.344 1.156,2.091 0.188,0.313 0.218,0.438 16.656,-8.5 -0.406,-0.782 -0.094,-0.156 -0.093,-0.156 -1.533,-2.75 -0.093,-0.157 -0.094,-0.187 -1.656,-2.656 -0.094,-0.157 -0.125,-0.156 -1.72,-2.56 -0.092,-0.157 -0.125,-0.157 -1.813,-2.468 -0.125,-0.157 -0.125,-0.155 -1.906,-2.344 -0.126,-0.155 -0.125,-0.156 -1.595,-1.782 z M 191.187,67 l -0.22,0.688 -0.062,0.187 -0.062,0.188 -0.906,3.468 -0.063,0.19 -0.03,0.186 -0.782,3.53 -0.063,0.19 -0.03,0.186 -0.657,3.626 -0.032,0.187 -0.03,0.188 -0.5,3.656 -0.03,0.186 -0.032,0.188 -0.313,3.344 18.594,1.843 0.28,-2.936 0.47,-3.344 0.06,-0.344 0.595,-3.25 0.625,-2.812 0.063,-0.25 0.03,-0.125 0.72,-2.75 0.218,-0.69 L 191.188,67 Z m 128.28,2.25 -11.093,3.188 -6.938,1.718 0.063,0.25 0.03,0.094 0.626,2.625 0.656,3 0.032,0.22 0.03,0.124 0.438,2.75 0.063,0.343 0.375,2.78 0.03,0.313 v 0.03 l 0.25,2.814 v 0.125 l 0.033,0.25 0.062,0.906 18.656,-1.06 -0.092,-1.25 v -0.345 l -0.344,-3.53 v -0.157 l -0.03,-0.188 -0.47,-3.47 v -0.155 l -0.03,-0.188 -0.595,-3.406 -0.033,-0.186 -0.03,-0.156 -0.688,-3.376 -0.033,-0.156 -0.062,-0.187 -0.813,-3.282 -0.03,-0.188 -0.063,-0.156 z m -113.25,36.53 -18.562,1.94 0.094,0.968 v 0.187 l 0.03,0.188 0.564,3.75 0.03,0.187 0.032,0.188 0.688,3.656 0.03,0.187 0.032,0.19 0.844,3.593 0.03,0.187 0.064,0.188 0.97,3.5 0.03,0.187 0.062,0.188 0.875,2.75 17.814,-5.688 -0.875,-2.75 -0.782,-2.78 -0.032,-0.19 -0.062,-0.186 -0.72,-3.22 -0.56,-2.906 -0.033,-0.188 -0.03,-0.187 -0.406,-2.97 -0.063,-0.375 -0.06,-0.594 z m 97.282,1.72 -0.375,2.53 -0.03,0.157 -0.033,0.22 -0.656,3.343 -0.687,2.906 -0.033,0.094 -0.062,0.28 -0.813,2.814 -1.156,3.5 -0.125,0.344 17.471,6.622 0.28,-0.75 0.064,-0.187 0.062,-0.188 1.156,-3.468 0.063,-0.19 0.063,-0.186 1,-3.594 0.062,-0.188 0.063,-0.187 0.875,-3.656 0.03,-0.19 0.032,-0.218 0.72,-3.718 0.06,-0.188 0.033,-0.22 0.437,-2.905 -18.5,-2.78 z m -86.844,29.438 -6.094,3.843 -1.156,0.19 -0.187,0.03 -0.19,0.063 -3.03,0.656 -0.22,0.03 -0.186,0.063 -2.906,0.78 0.718,2.688 -2.562,1.595 1.5,2.375 0.125,0.188 0.093,0.156 1.906,2.75 0.124,0.156 0.125,0.156 0.968,1.313 1.78,6.686 2.532,-0.687 0.28,-0.064 0.126,-0.03 2.25,-0.5 0.375,-0.064 2.72,-0.5 15.094,-2.656 -9.28,-12.187 -1.72,-2.282 -0.125,-0.157 -0.126,-0.186 -1.438,-2.03 -0.187,-0.314 -0.032,-0.03 -1.282,-2.032 z m 75.47,1.625 -0.688,1.093 -0.25,0.344 -1.5,2.063 -0.25,0.343 -1.813,2.28 -9.375,11.845 14.78,3.095 2.47,0.53 0.375,0.095 2.03,0.5 h 0.033 l 0.343,0.094 2,0.594 0.25,0.093 0.126,0.032 1.125,0.407 3.126,-9.032 1.688,-2.375 0.125,-0.157 0.124,-0.187 0.937,-1.44 -1.186,-0.78 1.28,-3.688 -1.5,-0.53 -0.155,-0.063 -0.22,-0.064 -2.72,-0.812 -0.186,-0.063 -0.188,-0.03 -2.812,-0.72 -0.188,-0.03 -0.187,-0.063 -2.845,-0.593 -0.063,0.28 -4.687,-3.06 z m -109.063,12.75 -1.625,1.03 -0.157,0.095 -0.155,0.125 -2.375,1.656 -0.156,0.093 -0.156,0.125 -2.282,1.75 -0.156,0.125 -0.156,0.125 -2.22,1.843 -0.155,0.126 -0.126,0.125 -2.156,1.94 -0.157,0.124 -0.124,0.125 -2.062,2.03 -0.156,0.125 -0.125,0.125 -1.594,1.688 13.56,12.875 1.345,-1.438 0.156,-0.156 0.095,-0.095 1.563,-1.53 0.28,-0.25 1.595,-1.44 0.03,-0.03 0.25,-0.22 1.626,-1.343 0.155,-0.125 0.156,-0.125 1.657,-1.28 0.25,-0.188 0.063,-0.03 1.72,-1.19 0.343,-0.218 1.28,-0.812 -10.03,-15.78 z m 143.78,2.75 -10.872,15.187 1.467,1.03 0.25,0.19 0.032,0.03 1.655,1.313 0.28,0.218 1.626,1.345 0.22,0.188 0.063,0.062 1.593,1.438 0.25,0.25 1.563,1.53 1.78,1.845 0.22,0.218 1.31,1.47 13.908,-12.47 -1.5,-1.687 -0.094,-0.126 -0.125,-0.094 -2,-2.094 -0.095,-0.125 -0.125,-0.124 -2.063,-1.97 -0.125,-0.124 -0.125,-0.125 -2.093,-1.906 -0.125,-0.124 -0.158,-0.094 -2.156,-1.812 -0.125,-0.125 -0.155,-0.125 -2.22,-1.72 -0.155,-0.093 -0.125,-0.125 -1.78,-1.25 z m -172.278,27.437 -1.5,2.594 -0.063,0.125 -0.063,0.124 -1.5,2.75 -0.062,0.125 -0.063,0.124 -1.406,2.844 -0.03,0.093 -0.064,0.126 -1.343,2.906 -0.064,0.125 -0.03,0.094 -1.282,3 -0.063,0.095 -0.03,0.125 -1.094,2.72 17.344,6.968 1,-2.532 0.094,-0.187 v -0.032 l 1.094,-2.532 0.093,-0.22 1.126,-2.436 0.125,-0.25 1.157,-2.344 0.032,-0.03 0.093,-0.22 1.218,-2.28 0.126,-0.25 1.375,-2.345 -16.218,-9.28 z m 199.656,3.22 -16.25,9.218 1.374,2.437 0.125,0.22 1.25,2.343 0.092,0.218 1.22,2.406 0.093,0.22 1.156,2.5 0.095,0.218 1.125,2.563 0.094,0.187 1,2.406 17.28,-7.062 -1.062,-2.625 -0.062,-0.095 -0.03,-0.094 -1.314,-3 -0.03,-0.093 -0.063,-0.093 -1.344,-2.938 -0.064,-0.094 -0.062,-0.093 -1.406,-2.845 -0.063,-0.125 -0.063,-0.094 -1.468,-2.78 -0.063,-0.126 -0.06,-0.094 -1.5,-2.687 z m -214.346,33.78 -0.5,1.97 -0.03,0.06 v 0.095 l -0.814,3.438 v 0.093 l -0.03,0.094 -0.72,3.47 -0.03,0.093 v 0.093 l -0.688,3.53 v 0.064 l -0.03,0.094 -0.595,3.562 -0.03,0.094 v 0.063 l -0.345,2.343 18.47,2.844 0.312,-2.188 0.03,-0.156 0.564,-3.25 0.03,-0.156 0.595,-3.188 0.03,-0.187 0.72,-3.313 0.687,-3.062 0.063,-0.188 0.437,-1.78 -18.125,-4.532 z m 229.22,2.97 -18.064,4.78 0.533,1.97 0.03,0.155 0.782,3.094 h -0.03 l 0.75,3.28 0.03,0.188 0.656,3.187 v 0.03 l 0.033,0.126 0.593,3.25 0.03,0.157 0.345,2 18.44,-3.093 -0.376,-2.156 v -0.094 l -0.03,-0.063 -0.658,-3.56 v -0.095 l -0.03,-0.094 -0.72,-3.5 -0.03,-0.093 v -0.093 l -0.782,-3.47 -0.03,-0.093 -0.002,-0.06 -0.843,-3.44 -0.033,-0.093 -0.03,-0.093 -0.563,-2.125 z m -235.158,35.5 -0.093,1.342 v 0.126 l -0.22,3.843 v 0.126 l -0.186,3.844 v 0.125 l -0.094,3.875 v 0.125 l -0.063,3.906 v 2.032 l 18.69,0.032 v -1.907 l 0.06,-3.78 H 152 l 0.125,-3.594 v -0.157 l 0.156,-3.562 v -0.156 l 0.22,-3.532 v -0.156 l 0.094,-1.188 -18.656,-1.343 z m 241.625,2.967 -18.625,1.5 0.125,1.375 h -0.03 l 0.25,3.657 v 0.155 l 0.187,3.563 v 0.156 l 0.124,3.594 v 0.125 l 0.062,3.625 v 0.156 l 0.03,1.53 18.69,-0.062 -0.032,-1.687 v -0.125 l -0.063,-3.906 v -0.157 l -0.124,-3.875 v -0.093 l -0.03,-0.064 -0.188,-3.844 v -0.157 l -0.25,-3.812 v -0.157 l -0.125,-1.5 z M 152.5,294.47 l -18.656,1.06 0.187,3.158 v 0.125 l 0.032,0.125 0.625,8 0.032,0.093 v 0.126 l 0.78,7.438 18.594,-1.97 -0.75,-7.218 -0.03,-0.22 -0.626,-7.78 z m 204.625,2.905 -0.25,3.53 h 0.03 l -0.342,3.783 v 0.125 l -0.375,3.78 -0.032,0.157 -0.406,3.78 -0.03,0.126 -0.345,2.78 18.53,2.377 0.376,-2.907 v -0.125 l 0.47,-4.06 v -0.064 l 0.03,-0.094 0.376,-4.03 0.03,-0.063 0.002,-0.095 0.343,-4.03 v -0.124 l 0.25,-3.533 -18.655,-1.312 z m -208.594,31.47 v 3.092 l -10.28,1.813 1.063,6.063 1.375,7.718 h 20.343 v -18.686 h -12.5 z m 31.19,0 v 9.967 h -0.126 l 0.125,1.907 v 6.81 h 0.436 l 0.063,0.75 18.655,-1.25 -0.625,-9.436 -0.563,-8.75 H 179.72 Z m 130.03,0 -0.656,8.655 -0.75,10.25 18.625,1.406 0.75,-10.25 -0.908,-0.062 v -10 H 309.75 Z m 35.75,0 v 18.686 h 23.156 l 1.5,-7.5 0.625,-3.124 -9.78,-1.97 v -6.092 h -15.5 z m -145.375,36.842 -18.656,1.22 1.218,18.656 18.656,-1.22 -1.22,-18.656 z m 106.813,0.72 -1.375,18.624 18.625,1.408 1.406,-18.657 -18.656,-1.374 z m -60.282,11.906 V 397 h 18.688 V 378.312 H 246.657 Z M 202.562,403 l -18.656,1.22 1.25,18.655 18.625,-1.25 L 202.563,403 Z m 101.594,0.688 -1.375,18.625 18.626,1.375 1.406,-18.625 -18.656,-1.375 z m -57.5,12 v 18.687 h 18.688 v -18.688 h -18.688 z m -41.626,24.592 -18.655,1.22 1.22,18.656 18.655,-1.22 -1.22,-18.655 z m 96.345,0.658 -1.375,18.656 18.625,1.375 1.406,-18.626 -18.655,-1.406 z m -54.72,12.125 v 18.687 h 18.69 v -18.688 h -18.69 z m -39.186,24.53 -18.626,1.22 0.75,11.656 0.594,8.717 h 15.75 v -9.812 l 2.312,-0.156 -0.78,-11.626 z m 91.155,0.626 -0.813,10.936 1.563,0.125 v 9.908 h 16.406 l 0.658,-8.657 0.812,-10.936 -18.625,-1.375 z m -74,2.28 v 18.688 h 18.688 V 480.5 h -18.688 z m 37.375,0 v 18.688 h 18.688 V 480.5 H 262 Z"
       inkscape:connector-curvature="0"
       style="fill:#000000;fill-opacity:1" />
  </g>
</svg>
