<?xml version="1.0" encoding="UTF-8" standalone="no"?>
<svg
   xmlns:dc="http://purl.org/dc/elements/1.1/"
   xmlns:cc="http://creativecommons.org/ns#"
   xmlns:rdf="http://www.w3.org/1999/02/22-rdf-syntax-ns#"
   xmlns:svg="http://www.w3.org/2000/svg"
   xmlns="http://www.w3.org/2000/svg"
   xmlns:sodipodi="http://sodipodi.sourceforge.net/DTD/sodipodi-0.dtd"
   xmlns:inkscape="http://www.inkscape.org/namespaces/inkscape"
   viewBox="0 0 512 512"
   style="height: 64px; width: 64px;"
   version="1.1"
   id="svg16"
   sodipodi:docname="spell-benediction.svg"
   inkscape:version="0.92.3 (2405546, 2018-03-11)"
   inkscape:export-filename="/home/plic/Téléchargements/spell-benediction.png"
   inkscape:export-xdpi="24"
   inkscape:export-ydpi="24">
  <metadata
     id="metadata22">
    <rdf:RDF>
      <cc:Work
         rdf:about="">
        <dc:format>image/svg+xml</dc:format>
        <dc:type
           rdf:resource="http://purl.org/dc/dcmitype/StillImage" />
        <dc:title></dc:title>
      </cc:Work>
    </rdf:RDF>
  </metadata>
  <defs
     id="defs20" />
  <sodipodi:namedview
     pagecolor="#ffffff"
     bordercolor="#666666"
     borderopacity="1"
     objecttolerance="10"
     gridtolerance="10"
     guidetolerance="10"
     inkscape:pageopacity="0"
     inkscape:pageshadow="2"
     inkscape:window-width="1369"
     inkscape:window-height="818"
     id="namedview18"
     showgrid="false"
     inkscape:zoom="0.64627023"
     inkscape:cx="375.83127"
     inkscape:cy="288.9879"
     inkscape:window-x="2444"
     inkscape:window-y="231"
     inkscape:window-maximized="0"
     inkscape:current-layer="svg16" />
  <g
     class=""
     transform="matrix(1.0412757,0,0,1.0412757,-9.0713045,-9.2080722)"
     id="g14">
    <g
       id="g12">
      <path
         d="m 103.432,17.844 c -1.118,0.005 -2.234,0.032 -3.348,0.08 -2.547,0.11 -5.083,0.334 -7.604,0.678 -20.167,2.747 -39.158,13.667 -52.324,33.67 -24.613,37.4 2.194,98.025 56.625,98.025 0.536,0 1.058,-0.012 1.583,-0.022 v 0.704 h 60.565 c -10.758,31.994 -30.298,66.596 -52.448,101.43 -2.162,3.4 -4.254,6.878 -6.29,10.406 l 34.878,35.733 -56.263,9.423 c -32.728,85.966 -27.42,182.074 48.277,182.074 v -0.002 l 9.31,0.066 c 23.83,-0.57 46.732,-4.298 61.325,-12.887 4.174,-2.458 7.63,-5.237 10.467,-8.42 h -32.446 c -20.33,5.95 -40.8,-6.94 -47.396,-25.922 -8.956,-25.77 7.52,-52.36 31.867,-60.452 5.803,-1.93 11.723,-2.834 17.565,-2.834 v -0.406 h 178.33 c -0.57,-44.403 16.35,-90.125 49.184,-126 23.955,-26.176 42.03,-60.624 51.3,-94.846 l -41.225,-24.932 38.272,-6.906 -43.37,-25.807 h -0.005 l 0.002,-0.002 0.002,0.002 52.127,-8.85 C 457.16,52.713 433.552,23.734 385.022,23.734 341.14,32.26 222.11,35.29 149.34,28.496 134.452,21.733 118.793,17.773 103.432,17.844 Z"
         class=""
         id="path2"
         inkscape:connector-curvature="0"
         style="fill:#fff79c;fill-opacity:1;stroke:#4a4a4a;stroke-width:10;stroke-opacity:1" />
      <path
         d="m 103.896,36.547 c 13.137,0.043 27.407,3.804 41.247,10.63 l 0.033,-0.07 c 4.667,4.735 8.542,9.737 11.68,14.985 H 82.92 l 10.574,14.78 c 10.608,14.83 19.803,31.99 21.09,42.024 0.643,5.017 -0.11,7.167 -1.814,8.836 -1.705,1.67 -6.228,3.875 -15.99,3.875 -40.587,0 -56.878,-44.952 -41.012,-69.06 C 66.238,46.64 79.582,39.22 95.002,37.12 c 2.89,-0.395 5.863,-0.583 8.894,-0.573 z"
         class=""
         id="path4"
         inkscape:connector-curvature="0"
         style="fill:#f8e71c;fill-opacity:1;stroke:#4a4a4a;stroke-width:10;stroke-opacity:1" />
      <path
         d="m 118.5,80.78 h 46.28 c 4.275,15.734 3.656,33.07 -0.544,51.51 H 131.52 c 1.9,-5.027 2.268,-10.574 1.6,-15.77 -1.527,-11.913 -7.405,-24.065 -14.62,-35.74 z"
         class=""
         id="path6"
         inkscape:connector-curvature="0"
         style="fill:#fff79c;fill-opacity:1;stroke:#4a4a4a;stroke-width:10;stroke-opacity:1" />
      <path
         d="m 220.053,397.875 c 6.44,6.84 11.192,15.31 13.37,24.914 3.797,16.736 3.092,31.208 -1.767,43.204 -4.526,11.175 -12.576,19.79 -22.29,26 h 237.19 c 14.448,0 24.887,-5.678 32.2,-14.318 7.312,-8.64 11.2,-20.514 10.705,-32.352 -0.186,-4.473 -0.978,-8.913 -2.407,-13.18 l -69.91,-8.205 42.017,-20.528 c -8.32,-3.442 -18.64,-5.537 -31.375,-5.537 H 220.053 Z"
         class=""
         id="path8"
         inkscape:connector-curvature="0"
         style="fill:#fff79c;fill-opacity:1;stroke:#4a4a4a;stroke-width:10;stroke-opacity:1" />
      <path
         d="m 177.385,398.381 c -1.152,-0.003 -2.306,0.048 -3.457,0.153 -2.633,0.242 -5.256,0.775 -7.824,1.63 -15.11,5.02 -25.338,21.54 -20.11,36.583 3.673,10.57 15.347,17.71 25.654,13.938 l 1.555,-0.57 h 43.354 c 0.946,-6.36 0.754,-13.882 -1.358,-23.192 -3.71,-16.358 -20.543,-28.483 -37.815,-28.54 z"
         class="selected"
         id="path10"
         inkscape:connector-curvature="0"
         style="fill:#f8e71c;fill-opacity:1;stroke:#4a4a4a;stroke-width:10;stroke-opacity:1" />
    </g>
  </g>
  <g
     id="g854"
     class=""
     transform="matrix(-0.67008767,0,0,0.67008767,433.48459,72.979857)">
    <g
       id="g852">
      <path
         id="path818"
         class=""
         d="m 300.56,39.29 c -2.418,0.023 -5.135,1.13 -7.27,3.065 -2.137,1.935 -3.507,4.53 -3.77,6.932 -0.26,2.402 0.174,4.782 3.033,7.94 l 6.037,6.67 40.35,44.56 6.042,6.672 c 2.86,3.156 5.184,3.824 7.6,3.802 2.416,-0.023 5.135,-1.13 7.272,-3.065 2.136,-1.934 3.506,-4.53 3.767,-6.93 0.262,-2.404 -0.17,-4.783 -3.03,-7.94 L 308.16,43.09 c -2.86,-3.158 -5.185,-3.823 -7.6,-3.8 z"
         inkscape:connector-curvature="0"
         style="fill:#8b572a;fill-opacity:1;stroke:#4a4a4a;stroke-width:10;stroke-opacity:1" />
      <path
         id="path820"
         class=""
         d="m 285.25,75.98 -38.604,34.952 -6.04,-6.672 C 217.468,78.705 204.046,77.466 187.5,76.674 L 23.285,225.364 151.018,366.43 315.23,217.74 c 0.85,-16.544 0.946,-30.02 -22.193,-55.576 l -6.04,-6.672 38.6,-34.953 -40.347,-44.56 z"
         inkscape:connector-curvature="0"
         style="fill:#b5ddf4;fill-opacity:1;stroke:#4a4a4a;stroke-width:25;stroke-opacity:1" />
      <path
         id="path822"
         class=""
         d="m 173.104,130.256 33.86,37.396 37.397,-33.86 19.66,21.714 -37.393,33.86 33.86,37.396 -21.714,19.662 -33.86,-37.397 -95.3,86.29 -19.664,-21.713 95.302,-86.29 -33.86,-37.396 z"
         inkscape:connector-curvature="0"
         style="fill:#8b572a;fill-opacity:1;stroke:#4a4a4a;stroke-width:10;stroke-opacity:1" />
      <path
         id="path824"
         class=""
         d="m 370.482,134.619 c 0,0 -25.86,52.77 -16,73.81 6.237,13.306 25.764,13.306 32,0 9.862,-21.04 -16,-73.81 -16,-73.81 z"
         inkscape:connector-curvature="0"
         style="fill:#b5ddf4;fill-opacity:1;stroke:#4a4a4a;stroke-width:10;stroke-opacity:1" />
      <path
         id="path826"
         class="selected"
         d="m 372.678,237.639 -5.655,46.28 c 1.168,-0.316 2.47,-0.504 3.967,-0.504 2.408,0 4.445,0.504 6.23,1.307 l -4.542,-47.082 z"
         inkscape:connector-curvature="0"
         style="fill:#b5ddf4;fill-opacity:1" />
      <path
         id="path828"
         class=""
         d="m 313.711,252.639 28.087,66.067 c 2.457,-5.83 5.08,-11.178 7.744,-15.855 l -35.83,-50.213 z"
         inkscape:connector-curvature="0"
         style="fill:#b5ddf4;fill-opacity:1" />
      <path
         id="path830"
         class=""
         d="m 431.247,254.136 -37.244,49.48 c 2.66,4.666 5.212,9.943 7.568,15.662 l 29.676,-65.143 z"
         inkscape:connector-curvature="0"
         style="fill:#b5ddf4;fill-opacity:1" />
      <path
         id="path832"
         class=""
         d="m 270.143,295.11 63.375,47.704 c 0.57,-2.11 1.164,-4.208 1.8,-6.275 1.07,-3.48 2.227,-6.874 3.446,-10.17 l -68.62,-31.26 z"
         inkscape:connector-curvature="0"
         style="fill:#b5ddf4;fill-opacity:1" />
      <path
         id="path834"
         class=""
         d="m 473.715,297.705 -69.135,29.39 c 1.103,3.1 2.144,6.29 3.104,9.546 0.665,2.257 1.273,4.55 1.855,6.858 l 64.175,-45.793 z"
         inkscape:connector-curvature="0"
         style="fill:#b5ddf4;fill-opacity:1" />
      <path
         id="path836"
         class=""
         d="m 371.395,302.655 c -1.514,1.696 -3.56,4.516 -5.706,8.193 -4.528,7.762 -9.47,18.968 -13.167,30.984 -3.697,12.016 -6.155,24.906 -6.185,35.992 -0.03,11.087 2.422,19.947 6.97,25.225 2.532,2.935 9.886,5.884 17.682,5.884 7.796,0 15.153,-2.95 17.684,-5.885 4.597,-5.335 7.19,-14.28 7.344,-25.376 0.154,-11.097 -2.07,-23.966 -5.6,-35.945 -3.53,-11.98 -8.384,-23.133 -12.965,-30.798 -2.252,-3.768 -4.46,-6.66 -6.058,-8.276 z"
         inkscape:connector-curvature="0"
         style="fill:#b5ddf4;fill-opacity:1;stroke:#4a4a4a;stroke-width:8;stroke-opacity:1" />
      <path
         id="path838"
         class=""
         d="m 332.668,346.057 -79.022,7.62 75.75,9.26 c 0.754,-5.654 1.88,-11.318 3.272,-16.88 z"
         inkscape:connector-curvature="0"
         style="fill:#b5ddf4;fill-opacity:1" />
      <path
         id="path840"
         class=""
         d="m 410.422,347.102 c 1.273,5.56 2.263,11.213 2.88,16.845 l 75.413,-7.275 z"
         inkscape:connector-curvature="0"
         style="fill:#b5ddf4;fill-opacity:1" />
      <path
         id="path842"
         class=""
         d="m 328.666,369.818 -60.02,42.828 60.15,-25.57 c -0.322,-3.063 -0.467,-6.175 -0.458,-9.303 0.007,-2.63 0.122,-5.286 0.328,-7.955 z"
         inkscape:connector-curvature="0"
         style="fill:#b5ddf4;fill-opacity:1" />
      <path
         id="path844"
         class=""
         d="m 413.891,371.334 c 0.107,2.21 0.156,4.41 0.126,6.59 -0.05,3.527 -0.286,7.03 -0.752,10.46 l 58.957,26.856 -58.33,-43.906 z"
         inkscape:connector-curvature="0"
         style="fill:#b5ddf4;fill-opacity:1" />
      <path
         id="path846"
         class=""
         d="m 333.956,406.08 -22.84,50.135 30,-39.858 c -0.494,-0.498 -0.973,-1.016 -1.44,-1.556 -2.315,-2.685 -4.193,-5.616 -5.72,-8.72 z"
         inkscape:connector-curvature="0"
         style="fill:#b5ddf4;fill-opacity:1" />
      <path
         id="path848"
         class=""
         d="m 407.314,407.514 c -1.403,2.574 -3.05,5.02 -5.004,7.287 -0.782,0.907 -1.615,1.737 -2.474,2.526 l 28.816,40.385 -21.34,-50.196 z"
         inkscape:connector-curvature="0"
         style="fill:#b5ddf4;fill-opacity:1" />
      <path
         id="path850"
         class=""
         d="m 365.241,426.658 4.444,46.05 5.613,-45.92 c -1.436,0.1 -2.876,0.146 -4.307,0.146 -1.912,0 -3.835,-0.094 -5.75,-0.276 z"
         inkscape:connector-curvature="0"
         style="fill:#b5ddf4;fill-opacity:1" />
    </g>
  </g>
</svg>
