<?xml version="1.0" encoding="UTF-8" standalone="no"?>
<svg
   xmlns:dc="http://purl.org/dc/elements/1.1/"
   xmlns:cc="http://creativecommons.org/ns#"
   xmlns:rdf="http://www.w3.org/1999/02/22-rdf-syntax-ns#"
   xmlns:svg="http://www.w3.org/2000/svg"
   xmlns="http://www.w3.org/2000/svg"
   xmlns:sodipodi="http://sodipodi.sourceforge.net/DTD/sodipodi-0.dtd"
   xmlns:inkscape="http://www.inkscape.org/namespaces/inkscape"
   viewBox="0 0 512 512"
   style="height: 64px; width: 64px;"
   version="1.1"
   id="svg42"
   sodipodi:docname="spell-respiration-aquatique.svg"
   inkscape:version="0.92.3 (2405546, 2018-03-11)"
   inkscape:export-filename="/home/plic/Documents/dev/cofbazar.github.io/images/resources/spell-respiration-aquatique.png"
   inkscape:export-xdpi="24"
   inkscape:export-ydpi="24">
  <metadata
     id="metadata48">
    <rdf:RDF>
      <cc:Work
         rdf:about="">
        <dc:format>image/svg+xml</dc:format>
        <dc:type
           rdf:resource="http://purl.org/dc/dcmitype/StillImage" />
        <dc:title></dc:title>
      </cc:Work>
    </rdf:RDF>
  </metadata>
  <defs
     id="defs46" />
  <sodipodi:namedview
     pagecolor="#ffffff"
     bordercolor="#666666"
     borderopacity="1"
     objecttolerance="10"
     gridtolerance="10"
     guidetolerance="10"
     inkscape:pageopacity="0"
     inkscape:pageshadow="2"
     inkscape:window-width="1489"
     inkscape:window-height="911"
     id="namedview44"
     showgrid="false"
     inkscape:zoom="0.2520449"
     inkscape:cx="-229.87098"
     inkscape:cy="16.988741"
     inkscape:window-x="2181"
     inkscape:window-y="128"
     inkscape:window-maximized="0"
     inkscape:current-layer="svg42" />
  <path
     d="m 97.286186,7.3441808 c -1.171344,0.00521 -2.340593,0.033523 -3.507738,0.083821 C 91.109915,7.5432502 88.452912,7.7779379 85.811624,8.1383516 64.682373,11.016422 44.785234,22.457462 30.991029,43.414888 5.2036408,82.599396 33.289714,146.11707 90.317843,146.11707 c 0.561575,0 1.108481,-0.0126 1.658536,-0.0231 v 0.73758 h 63.454811 c -11.27132,33.52057 -31.74365,69.77358 -54.95052,106.26965 -2.265153,3.56223 -4.456975,7.20617 -6.59012,10.90251 l 36.54217,37.43797 -58.947539,9.87261 C 37.195593,401.38214 42.756859,502.07585 122.06567,502.07585 v -0.002 l 9.75423,0.0692 c 24.96703,-0.5972 48.96178,-4.50307 64.25107,-13.50189 4.37316,-2.57528 7.99406,-5.48688 10.96642,-8.82176 h -33.99413 c -21.30003,6.2339 -42.74674,-7.27114 -49.65746,-27.15884 -9.38333,-26.9996 7.8788,-54.85832 33.3875,-63.33642 6.07989,-2.02209 12.28236,-2.96923 18.4031,-2.96923 v -0.42537 h 186.83887 c -0.5972,-46.52165 17.13012,-94.42523 51.53077,-132.01198 25.09799,-27.42497 44.03543,-63.51662 53.74773,-99.3715 l -43.19201,-26.12161 40.09812,-7.23551 -45.43936,-27.038355 h -0.005 l 0.002,-0.002 0.002,0.002 54.6142,-9.272272 C 467.89202,43.876925 443.15759,13.515217 392.31202,13.515217 346.33623,22.448028 221.62681,25.622602 145.38465,18.504432 129.78629,11.418741 113.38012,7.2697929 97.286186,7.3441808 Z"
     class=""
     id="path2"
     inkscape:connector-curvature="0"
     style="fill:#c8e0ff;fill-opacity:1;stroke:#4a4a4a;stroke-width:10.47714138;stroke-opacity:1" />
  <path
     d="m 103.896,36.547 c 13.137,0.043 27.407,3.804 41.247,10.63 l 0.033,-0.07 c 4.667,4.735 8.542,9.737 11.68,14.985 H 82.92 l 10.574,14.78 c 10.608,14.83 19.803,31.99 21.09,42.024 0.643,5.017 -0.11,7.167 -1.814,8.836 -1.705,1.67 -6.228,3.875 -15.99,3.875 -40.587,0 -56.878,-44.952 -41.012,-69.06 C 66.238,46.64 79.582,39.22 95.002,37.12 c 2.89,-0.395 5.863,-0.583 8.894,-0.573 z"
     class=""
     id="path4"
     inkscape:connector-curvature="0"
     style="fill:#4a90e2;fill-opacity:1;stroke:#4a4a4a;stroke-width:10;stroke-opacity:1" />
  <path
     d="m 118.5,80.78 h 46.28 c 4.275,15.734 3.656,33.07 -0.544,51.51 H 131.52 c 1.9,-5.027 2.268,-10.574 1.6,-15.77 -1.527,-11.913 -7.405,-24.065 -14.62,-35.74 z"
     class=""
     id="path6"
     inkscape:connector-curvature="0"
     style="fill:#c8e0ff;fill-opacity:1;stroke:#4a4a4a;stroke-width:10;stroke-opacity:1" />
  <path
     d="m 220.053,397.875 c 6.44,6.84 11.192,15.31 13.37,24.914 3.797,16.736 3.092,31.208 -1.767,43.204 -4.526,11.175 -12.576,19.79 -22.29,26 h 237.19 c 14.448,0 24.887,-5.678 32.2,-14.318 7.312,-8.64 11.2,-20.514 10.705,-32.352 -0.186,-4.473 -0.978,-8.913 -2.407,-13.18 l -69.91,-8.205 42.017,-20.528 c -8.32,-3.442 -18.64,-5.537 -31.375,-5.537 H 220.053 Z"
     class="selected"
     id="path8"
     inkscape:connector-curvature="0"
     style="fill:#c8e0ff;fill-opacity:1;stroke:#4a4a4a;stroke-width:10;stroke-opacity:1" />
  <path
     d="m 177.385,398.381 c -1.152,-0.003 -2.306,0.048 -3.457,0.153 -2.633,0.242 -5.256,0.775 -7.824,1.63 -15.11,5.02 -25.338,21.54 -20.11,36.583 3.673,10.57 15.347,17.71 25.654,13.938 l 1.555,-0.57 h 43.354 c 0.946,-6.36 0.754,-13.882 -1.358,-23.192 -3.71,-16.358 -20.543,-28.483 -37.815,-28.54 z"
     class=""
     id="path10"
     inkscape:connector-curvature="0"
     style="fill:#4a90e2;fill-opacity:1;stroke:#4a4a4a;stroke-width:10;stroke-opacity:1" />
  <g
     font-size="42"
     font-style="normal"
     font-weight="bold"
     class=""
     transform="translate(620.5904,120.64171)"
     style="font-style:normal;font-weight:bold;font-size:42px;font-family:Arial, Helvetica, sans-serif;text-anchor:middle"
     id="g40">
    <flowRoot
       xml:space="preserve"
       id="flowRoot858"
       style="font-style:normal;font-weight:normal;font-size:40px;line-height:1.25;font-family:sans-serif;letter-spacing:0px;word-spacing:0px;fill:#000000;fill-opacity:1;stroke:none"
       transform="translate(-290,-103)"><flowRegion
         id="flowRegion860"><rect
           id="rect862"
           width="95.111855"
           height="106.61732"
           x="265.39276"
           y="137.68883" /></flowRegion><flowPara
         id="flowPara864" /></flowRoot>  </g>
  <path
     style="fill:#4a90e2;fill-opacity:1"
     inkscape:connector-curvature="0"
     d="m 257.1182,155.69268 c -29.526,0 -56.244,4.575 -74.752,11.5 -9.254,3.462 -16.414,7.55 -20.732,11.37 -3.928,3.476 -5.263,6.203 -5.474,8.42 h -0.267 c 0,15.347 7.808,29.99 20.916,41.887 -0.505,-0.217 -1.025,-0.427 -1.523,-0.65 -10.727,-4.78 -19.682,-10.378 -26.387,-16.952 -2.23,-2.187 -4.24,-4.532 -5.937,-7.02 -7.48,12.14 -12.415,25.588 -12.415,41.14 0,69.77 56.745,127.132 126.517,127.132 69.772,0 127.13,-57.36 127.13,-127.13 0,-15.723 -4.923,-29.484 -12.39,-41.93 -1.802,2.782 -4,5.39 -6.466,7.808 -6.705,6.574 -15.66,12.17 -26.387,16.953 -0.444,0.198 -0.908,0.385 -1.356,0.58 13.06,-11.885 20.837,-26.5 20.837,-41.817 h -0.354 c -0.21,-2.216 -1.546,-4.943 -5.475,-8.418 -4.317,-3.82 -11.477,-7.91 -20.73,-11.37 -18.51,-6.926 -45.23,-11.5 -74.755,-11.5 z"
     class="selected"
     id="path6-7" />
  <path
     id="path828"
     class="selected"
     d="m 111.57187,100.66116 c -3.46929,0 -6.34551,0.28339 -9.21224,1.74195 -2.867458,1.45856 -5.320068,5.0732 -5.558168,8.16269 -0.47474,6.17899 2.49424,9.43647 4.751828,13.19791 2.25687,3.76291 4.54295,7.55356 5.42524,10.20045 0.88376,2.64615 0.93123,2.69655 -0.0533,3.6811 l -0.0256,0.0248 -0.0248,0.0256 c -30.143388,30.80292 -48.620458,75.16236 -48.620458,121.45731 0,61.77966 36.03826,116.02768 84.954518,145.84605 26.89248,16.39258 54.56062,12.64574 85.2233,12.64574 30.24199,0 58.5105,3.34148 85.17656,-12.61872 49.57507,-29.6701 85.00127,-83.68659 85.00127,-145.87307 0,-46.17297 -18.6363,-90.669 -48.60878,-121.44708 l -0.0292,-0.0307 -0.0321,-0.0292 c -0.98455,-0.98601 -0.93634,-1.03714 -0.0541,-3.68256 0.88157,-2.64689 3.16692,-6.43754 5.42451,-10.19972 2.25687,-3.76144 5.22658,-7.01892 4.75184,-13.19791 -0.23811,-3.08949 -2.69071,-6.7034 -5.55817,-8.16196 -2.866,-1.45929 -5.74223,-1.74268 -9.21152,-1.74268 z"
     inkscape:connector-curvature="0"
     style="fill:#b57204;fill-opacity:0;stroke-width:0.73037696" />
  <path
     id="path830"
     class=""
     d="m 111.57187,113.80795 h 233.72062 c 0.20232,0 0.0928,0.0219 0.27755,0.027 -0.42654,0.98309 -0.79611,1.93988 -1.5316,3.16399 -2.1254,3.54087 -4.95196,7.78436 -6.62598,12.80643 -1.67257,5.0228 -1.62509,12.27618 3.23338,17.13464 l -0.0614,-0.0621 c 27.43442,28.17356 44.87875,69.66262 44.87875,112.27501 0,57.18559 -32.69387,107.11343 -78.60317,134.59167 -22.39847,13.40461 -47.33062,10.75334 -78.42788,10.75334 -31.62532,0 -55.71461,3.09168 -78.38113,-10.72632 -45.3082,-27.61847 -78.649908,-77.97358 -78.649908,-134.61869 0,-42.77745 17.27561,-84.06493 44.868518,-112.26259 l -0.0511,0.0497 c 4.8592,-4.857 4.90813,-12.11111 3.23338,-17.13464 -1.67475,-5.02134 -4.50204,-9.26483 -6.62671,-12.80643 -0.73476,-1.22484 -1.10506,-2.18163 -1.53087,-3.16472 0.18479,-0.006 0.0752,-0.027 0.27754,-0.027 z"
     inkscape:connector-curvature="0"
     style="fill:#4a4a4a;fill-opacity:0;stroke-width:0.73037696" />
  <path
     id="path832"
     class=""
     d="m 179.46817,158.90288 c -2.29338,-0.007 -4.67076,0.0402 -7.10949,0.13585 -14.63091,0.57334 -31.49166,2.87914 -46.22337,5.27113 -1.58637,0.25709 -3.09679,0.51565 -4.62474,0.7742 -3.92505,4.13831 -7.52873,9.11072 -10.80958,14.69153 -0.12709,0.21619 -0.24833,0.43823 -0.37541,0.65734 5.22949,-0.98309 11.31061,-2.07427 17.9176,-3.14646 19.26442,-3.12748 42.57952,-5.93359 57.04975,-5.06006 29.6533,1.79089 59.01445,21.29049 93.48824,23.37207 16.87901,1.0196 40.30586,-2.01803 59.94934,-5.20759 7.17523,-1.16422 13.79682,-2.3562 19.34769,-3.40721 -1.52868,-3.16984 -3.14427,-6.24472 -4.86066,-9.16404 -0.59526,-1.0123 -1.20512,-1.99685 -1.82156,-2.96752 -4.48598,0.82387 -9.45327,1.69813 -14.77407,2.56216 -19.26442,3.12748 -42.57951,5.93358 -57.04974,5.06005 -29.6533,-1.79088 -59.01445,-21.29048 -93.48825,-23.37206 -2.10932,-0.12781 -4.32091,-0.19209 -6.61575,-0.20012 z"
     inkscape:connector-curvature="0"
     style="fill:#4a90e2;fill-opacity:0;stroke-width:0.73037696" />
  <path
     id="path834"
     class=""
     d="m 131.1793,190.1411 -21.9303,2.10349 c -11.170378,20.53308 -17.031658,43.53338 -17.049188,66.90837 0.0635,39.35636 16.662818,76.87363 45.743508,103.39216 -18.38943,-27.0517 -28.24806,-58.99547 -28.30211,-91.70613 0.0767,-28.30941 7.49805,-56.11486 21.53882,-80.69789 z"
     inkscape:connector-curvature="0"
     style="fill:#d0021b;fill-opacity:0;stroke-width:0.73037696" />
  <path
     id="path836"
     class=""
     d="m 302.36222,225.95371 c -9.68115,0 -17.52905,7.8479 -17.52905,17.52905 0,9.68115 7.8479,17.52905 17.52905,17.52905 9.68114,0 17.52904,-7.8479 17.52904,-17.52905 0,-9.68115 -7.8479,-17.52905 -17.52904,-17.52905 z"
     inkscape:connector-curvature="0"
     style="fill:#ffffff;fill-opacity:1;stroke-width:0.73037696" />
  <path
     id="path838"
     class=""
     d="m 336.87974,257.25909 c -6.45434,0 -11.68603,5.23169 -11.68603,11.68603 0,6.45434 5.23169,11.68603 11.68603,11.68603 6.45434,0 11.68603,-5.23169 11.68603,-11.68603 0,-6.45434 -5.23169,-11.68603 -11.68603,-11.68603 z"
     inkscape:connector-curvature="0"
     style="fill:#ffffff;fill-opacity:1;stroke-width:0.73037696" />
  <path
     id="path840"
     class=""
     d="m 285.08,267.73654 c -21.21161,0.33597 -58.92243,21.66444 -75.14264,30.82556 -10.40934,-10.10258 -21.92008,-19.1052 -42.43271,-19.1052 11.68603,11.68603 11.68603,35.05809 0,46.74412 20.50898,0 27.27446,-16.1815 41.39192,-16.19099 14.11672,-0.009 64.8005,31.50481 87.15442,27.87702 28.07131,-4.55536 46.74412,-23.37206 46.74412,-35.05809 -1.04225,-17.95486 -34.9573,-33.97129 -55.71315,-35.05809 -0.65004,-0.0336 -1.31687,-0.0453 -2.00123,-0.0343 z"
     inkscape:connector-curvature="0"
     style="fill:#d0021b;fill-opacity:1;stroke-width:0.73037696" />
  <path
     id="path842"
     class=""
     d="m 290.86234,286.4581 c 4.35962,0 7.89464,3.53429 7.89537,7.89391 0,4.36035 -3.53502,7.89538 -7.89537,7.89538 -4.36035,0 -7.89538,-3.53503 -7.89538,-7.89538 7.3e-4,-4.35962 3.53576,-7.89391 7.89538,-7.89391 z"
     inkscape:connector-curvature="0"
     style="fill:#000000;fill-opacity:1;stroke-width:0.73037696" />
  <path
     id="path836-3"
     class=""
     d="m 257.72477,183.47613 c -9.68115,0 -17.52905,7.8479 -17.52905,17.52905 0,9.68115 7.8479,17.52905 17.52905,17.52905 9.68114,0 17.52904,-7.8479 17.52904,-17.52905 0,-9.68115 -7.8479,-17.52905 -17.52904,-17.52905 z"
     inkscape:connector-curvature="0"
     style="fill:#ffffff;fill-opacity:1;stroke-width:0.73037696" />
  <path
     id="path838-6"
     class=""
     d="m 310.1935,193.61954 c -6.45434,0 -11.68603,5.23169 -11.68603,11.68603 0,6.45434 5.23169,11.68603 11.68603,11.68603 6.45434,0 11.68603,-5.23169 11.68603,-11.68603 0,-6.45434 -5.23169,-11.68603 -11.68603,-11.68603 z"
     inkscape:connector-curvature="0"
     style="fill:#ffffff;fill-opacity:1;stroke-width:0.73037696" />
  <path
     id="path838-7"
     class=""
     d="m 259.27825,230.16192 c -6.45434,0 -11.68603,5.23169 -11.68603,11.68603 0,6.45434 5.23169,11.68603 11.68603,11.68603 6.45434,0 11.68603,-5.23169 11.68603,-11.68603 0,-6.45434 -5.23169,-11.68603 -11.68603,-11.68603 z"
     inkscape:connector-curvature="0"
     style="fill:#ffffff;fill-opacity:1;stroke-width:0.73037696" />
</svg>
