<svg xmlns="http://www.w3.org/2000/svg" viewBox="0 0 512 512" style="height: 64px; width: 64px;"><defs><radialGradient id="lorc-saphir-gradient-2"><stop offset="0%" stop-color="#000f89" stop-opacity="1"></stop><stop offset="100%" stop-color="#4a90e2" stop-opacity="1"></stop></radialGradient><radialGradient id="lorc-saphir-gradient-3"><stop offset="0%" stop-color="#000f89" stop-opacity="1"></stop><stop offset="100%" stop-color="#4a90e2" stop-opacity="1"></stop></radialGradient><radialGradient id="lorc-saphir-gradient-4"><stop offset="0%" stop-color="#000f89" stop-opacity="1"></stop><stop offset="100%" stop-color="#4a90e2" stop-opacity="1"></stop></radialGradient><radialGradient id="lorc-saphir-gradient-5"><stop offset="0%" stop-color="#000f89" stop-opacity="1"></stop><stop offset="100%" stop-color="#4a90e2" stop-opacity="1"></stop></radialGradient><radialGradient id="lorc-saphir-gradient-6"><stop offset="0%" stop-color="#000f89" stop-opacity="1"></stop><stop offset="100%" stop-color="#4a90e2" stop-opacity="1"></stop></radialGradient><radialGradient id="lorc-saphir-gradient-7"><stop offset="0%" stop-color="#000f89" stop-opacity="1"></stop><stop offset="100%" stop-color="#4a90e2" stop-opacity="1"></stop></radialGradient><radialGradient id="lorc-saphir-gradient-8"><stop offset="0%" stop-color="#000f89" stop-opacity="1"></stop><stop offset="100%" stop-color="#4a90e2" stop-opacity="1"></stop></radialGradient><radialGradient id="lorc-saphir-gradient-9"><stop offset="0%" stop-color="#9400d3" stop-opacity="1"></stop><stop offset="100%" stop-color="#4b0082" stop-opacity="1"></stop></radialGradient><radialGradient id="lorc-saphir-gradient-10"><stop offset="0%" stop-color="#9400d3" stop-opacity="1"></stop><stop offset="100%" stop-color="#4b0082" stop-opacity="1"></stop></radialGradient><radialGradient id="lorc-saphir-gradient-11"><stop offset="0%" stop-color="#9400d3" stop-opacity="1"></stop><stop offset="100%" stop-color="#4b0082" stop-opacity="1"></stop></radialGradient><radialGradient id="lorc-saphir-gradient-12"><stop offset="0%" stop-color="#9400d3" stop-opacity="1"></stop><stop offset="100%" stop-color="#4b0082" stop-opacity="1"></stop></radialGradient></defs><g class="" transform="translate(0,0)" style=""><g><path d="M413.47 20.25L402 24.25L84.97 134.72L78.437 137L78.843 143.875L97.78 478.47L98.47 490.594L109.938 486.594L426.968 376.124L433.468 373.844L433.094 366.938L414.156 32.375L413.469 20.25Z" class="selected" fill="url(#lorc-saphir-gradient-2)" stroke="#4a4a4a" stroke-opacity="1" stroke-width="4"></path><path d="M381.937 50.625L338.562 115.375L157.812 178.75L121.032 154.22C195.252 166.735 317.852 101.73 378.156 51.938L381.936 50.625Z" class="" fill="url(#lorc-saphir-gradient-3)" stroke="#4a4a4a" stroke-opacity="1" stroke-width="4"></path><path d="M397.969 70.313L413.749 349.438L364.436 316.563L360.249 240.093C378.816 194.671 392.699 125.751 397.969 70.313Z" class="" fill="url(#lorc-saphir-gradient-4)" stroke="#4a4a4a" stroke-opacity="1" stroke-width="4"></path><path d="M334.529 138.063L344.219 314.25L177.343 372.75L174.563 322.28C222.645 331.32 257.676 313.656 278.905 284.03C251.091 280.61 232.521 253.046 235.811 223.75C238.985 195.493 260.793 172.497 287.531 171.437C289.313 171.367 291.146 171.402 292.968 171.531C295.426 171.707 297.805 172.091 300.123 172.626C298.768 165.641 296.929 158.766 294.623 152.063L334.529 138.063Z" class="" fill="url(#lorc-saphir-gradient-5)" stroke="#4a4a4a" stroke-opacity="1" stroke-width="4"></path><path d="M117.78 174.5L147.437 194.28L157.907 385.094L114.5 449.906L114.312 446.25C138.458 344.93 151.052 228.725 117.782 174.5Z" class="" fill="url(#lorc-saphir-gradient-6)" stroke="#4a4a4a" stroke-opacity="1" stroke-width="4"></path><path d="M289.875 197.125C276.807 197.002 263.329 209.193 261.375 226.595C259.358 244.555 269.705 257.671 283.155 258.625C296.607 259.579 310.92 247.181 312.938 229.219C314.955 211.256 304.575 198.139 291.125 197.187C290.705 197.157 290.297 197.127 289.875 197.124Z" class="" fill="url(#lorc-saphir-gradient-7)" stroke="#4a4a4a" stroke-opacity="1" stroke-width="4"></path><path d="M354.031 332.095L403.314 364.969L148.376 453.779C196.681 427.224 251.523 389.607 283.97 356.655L354.03 332.093Z" class="" fill="url(#lorc-saphir-gradient-8)" stroke="#4a4a4a" stroke-opacity="1" stroke-width="4"></path></g></g></svg>