<svg xmlns="http://www.w3.org/2000/svg" viewBox="0 0 512 512" style="height: 64px; width: 64px;"><g class="" transform="translate(0,0)" style="touch-action: none;"><g><path d="M310.375 16.75L89.405 75.72L147.531 126.625L282.563 90.28L284.595 89.75L310.375 16.75Z" class="" fill="#046307" fill-opacity="1"></path><path d="M327.438 24.594L300.281 101.406L391.971 193.281L487.595 184.501L327.438 24.594Z" class="" fill="#046307" fill-opacity="1"></path><path d="M285.625 36.656L277.031 70.313C276.751 54.797 239.001 53.295 169.471 65.937L285.626 36.657Z" class="" fill="#27992b" fill-opacity="1"></path><path d="M336.688 51.281L460.188 174.688L401.344 182.251C417.544 160.881 369.067 91.139 336.688 51.281Z" class="" fill="#1f8f22" fill-opacity="1"></path><path d="M74.75 87.72L15.594 308.405L94.594 276.935L131.874 137.78L74.75 87.72Z" class="" fill="#046307" fill-opacity="1"></path><path d="M282.188 109.72L149.156 145.53L113.436 278.906L210.686 376.436L343.75 340.626L379.47 207.25L282.187 109.72Z" class="" fill="#046307" fill-opacity="1"></path><path d="M80.468 115.406L113.312 145.906L83.156 264.876L44.126 280.688C94.943 250.145 109.793 150.556 80.469 115.406Z" class="" fill="#1b831d" fill-opacity="1"></path><path d="M276.344 130.186L359 213.377L328.844 327.187L284.156 339.157C403.683 231.285 249.34 100.782 152.656 198.282L162.531 160.877L276.345 130.189Z" class="selected" fill="#248a29" fill-opacity="1"></path><path d="M490.564 203L397.687 211.53L361.719 345.72L433.061 417.562L490.563 203Z" class="" fill="#046307" fill-opacity="1"></path><path d="M473.281 216.875L444.03 333.03C450.76 264.156 444 242.18 413.375 221.53L473.281 216.875Z" class="" fill="#27962a" fill-opacity="1"></path><path d="M102.126 294.063L20.22 326.688L181.97 488.156L199.28 391.436L102.125 294.063Z" class="" fill="#046307" fill-opacity="1"></path><path d="M102.22 314.063L180.344 396.5L172.906 457.875C167.676 413.31 144.566 371.955 102.219 314.062Z" class="" fill="#2a8b2d" fill-opacity="1"></path><path d="M348.344 358.75L217.814 393.875L200.25 492.063L421.938 432.906L348.344 358.75Z" class="" fill="#046307" fill-opacity="1"></path><path d="M366.969 401.25L391.249 426.094L276.029 458.814C337.309 432.368 359.369 421.396 366.969 401.25Z" class="" fill="#319b35" fill-opacity="1"></path></g></g></svg>