<svg xmlns="http://www.w3.org/2000/svg" viewBox="0 0 512 512" style="height: 64px; width: 64px;"><defs><radialGradient id="gradient-2"><stop offset="0%" stop-color="#d8b418" stop-opacity="1"></stop><stop offset="100%" stop-color="#f0c300" stop-opacity="1"></stop></radialGradient></defs><g class="" transform="translate(0,0)" style="touch-action: none;"><g><path d="M252.625 36.307C246.533 36.313 240.599 36.729 234.859 37.674C228.119 52.784 219.507 70.006 219.507 70.006L186.755 56.553C170.569 64.163 175.903 86.583 166.695 94.993C138.807 117.723 82.855 163.859 76.97 179.727C64.433 213.53 57.94 249.577 56.965 284.677C71.458 292.417 88.312 305.42 103.973 319.407C118.309 333.735 139.133 350.717 144.801 369.123L146.897 376.291L140.239 379.675C128.773 384.935 130.819 396.585 128.964 405.535L111.362 401.765C112.58 388.763 115.025 376.805 124.568 368.645C115.805 354.997 103.006 342.721 91.984 332.835C80.53 322.605 67.734 312.823 57.051 305.888C58.725 352.365 58.258 387.528 78.306 420.495L110.251 425.589L109.698 453.642L151.968 450.42L146.668 480.7C238.885 518.98 394.498 423.076 435.03 318.477C443.715 296.062 483.193 273.235 484.926 250.76C487.66 215.288 476.556 180.7 457.199 150.02C443.404 163.238 427.409 167.155 410.639 159.816L430.894 183.676L417.171 195.324L389.771 163.051L388.531 144.605C382.774 139.322 377.341 133.243 372.485 126.665L338.535 136.635L333.462 119.365L362.485 110.843C358.703 103.666 355.775 96.197 354.095 88.669C351.401 76.605 351.979 63.885 358.795 53.343C358.865 53.235 358.94 53.133 359.011 53.026C322.993 48.158 285.521 36.272 252.624 36.308Z" class="" fill="url(#gradient-2)" stroke="#f5a623" stroke-opacity="1" stroke-width="10"></path><path d="M373.912 63.113C370.437 68.489 369.659 75.768 371.664 84.746C373.669 93.724 378.526 103.901 384.964 113.196C391.404 122.489 399.41 130.926 407.18 136.773C430.32 149.689 448.942 144.536 446.264 119.805C444.374 103.668 428.724 90.133 422.804 84.052C410.149 71.058 384.707 49.222 373.912 63.112Z" class="" fill="#f5a623" fill-opacity="1" stroke="#f5a623" stroke-opacity="1" stroke-width="10"></path><path d="M337.705 67.379L328.235 88.661L303.131 97.951L284.791 87.591Z" class="" fill="#f5a623" fill-opacity="1" stroke="#f5a623" stroke-opacity="1" stroke-width="10"></path><path d="M233.393 96.282L263.709 107.354L291.583 153.618L323.633 167.764L316.363 184.232L279.103 167.782Z" class="" fill="#f5a623" fill-opacity="1" stroke="#f5a623" stroke-opacity="1" stroke-width="10"></path><path d="M189.503 126.942C199.128 126.932 209.393 129.764 215.32 138.757C221.436 143.851 231.684 147.259 243.166 151.573L236.834 168.425C231.034 166.245 224.362 164.28 217.871 161.429C216.823 164.949 215.283 168.319 213.513 171.364C212.589 172.947 211.598 174.49 210.543 175.989C223.153 182.726 234.565 187.972 240.663 188.495L239.123 206.429C225.749 205.281 211.933 197.873 197.888 189.784C196.213 191.21 194.471 192.557 192.668 193.819C187.05 197.722 180.125 201.442 172.624 204.319C175.549 219.239 175.772 234.427 175.564 245.522L157.567 245.185C157.757 235.14 157.333 221.51 155.117 209.073C149.127 209.998 143.071 210.133 137.173 208.69C137.083 208.67 136.996 208.644 136.907 208.62C136.99 222.174 134.925 236.678 124.957 250.994L110.187 240.709C121.057 225.097 119.167 209.891 117.991 191.485C116.425 186.48 116.516 181.181 117.761 176.497C119.443 170.167 122.861 164.611 126.948 159.552C135.124 149.434 146.176 141.19 155.755 136.062C167.55 131.002 178.143 126.972 189.505 126.942Z" class="" fill="#f5a623" stroke="#f5a623" stroke-opacity="1" stroke-width="10" fill-opacity="1"></path><path d="M188.838 144.954C188.198 144.966 187.53 145.001 186.834 145.056C179.332 145.669 170.194 148.751 164.246 151.936C156.871 155.882 146.996 163.38 140.946 170.866C137.923 174.609 135.901 178.319 135.156 181.12C134.006 186.2 137.24 190.144 141.446 191.207C144.466 191.945 148.906 191.944 153.842 191.043C163.712 189.241 175.387 183.908 182.395 179.039C187.669 175.373 194.258 168.669 197.951 162.317C201.801 149.569 198.443 144.777 188.839 144.954Z" class="" fill="#b57204" fill-opacity="1" stroke="#b57204" stroke-opacity="1" stroke-width="10"></path><path d="M448.791 182.604L461.433 245.112L406.651 285.849L439.661 228.959Z" class="selected" fill="#f5a623" fill-opacity="1" stroke="#f5a623" stroke-opacity="1" stroke-width="10"></path><path d="M387.481 203.354L390.663 221.071L324.533 232.954L314.883 258.14L289.633 270.074L311.358 217.034Z" class="" fill="#f5a623" fill-opacity="1" stroke="#f5a623" stroke-opacity="1" stroke-width="10"></path><path d="M375.851 268.184L392.151 275.814C384.915 291.274 382.317 299.796 383.177 309.174C389.195 309.462 395.311 310.15 401.399 311.108L398.603 328.888C377.935 325.638 358.436 327.258 348.69 334.08C343.817 337.49 340.824 341.713 339.602 348.97C338.379 356.224 339.392 366.766 344.475 380.967C329.712 386.277 315.99 390.311 300.791 395.403L295.075 378.335L322.53 369.138C320.905 360.604 320.68 352.928 321.852 345.978C323.696 335.031 329.402 326.104 337.186 320.205C334.618 314.822 331.986 309.115 330.094 302.822C327.302 293.535 329.724 275.182 329.534 275.164C329.534 275.164 345.26 290.75 347.332 297.641C348.705 302.208 350.924 307.058 353.342 312.189C357.172 311.031 361.178 310.226 365.307 309.719C364.617 296.889 368.339 284.227 375.85 268.183Z" class="" fill="#f5a623" fill-opacity="1" stroke="#f5a623" stroke-opacity="1" stroke-width="10"></path><path d="M230.435 272.13L208.583 318.814L207.093 383.871L189.713 315.835C189.713 315.835 226.463 272.132 230.435 272.132Z" class="" fill="#f5a623" stroke="#f5a623" stroke-opacity="1" stroke-width="10" fill-opacity="1"></path><path d="M269.009 411.98C271.576 411.97 274.142 412.077 276.699 412.3C290.327 413.472 303.989 417.43 317.429 421.432L312.292 438.684C298.995 434.724 286.282 431.19 275.158 430.234C269.678 429.764 264.681 429.874 260.058 430.742L245.18 416.594C252.007 413.677 259.2 412.316 266.443 412.034C267.299 412.001 268.155 411.983 269.011 411.98Z" class="" fill="#f5a623" fill-opacity="1" stroke="#f5a623" stroke-opacity="1" stroke-width="10"></path><path d="M230.059 427.055L244.042 440.355C233.15 457.392 229.524 467.11 212.862 477.675C214.502 472.099 215.864 461.423 218.742 450.691C220.918 442.581 224.04 433.898 230.062 427.056Z" class="" fill="#f5a623" fill-opacity="1" stroke="#f5a623" stroke-opacity="1" stroke-width="10"></path></g></g></svg>