<?xml version="1.0" encoding="UTF-8" standalone="no"?>
<svg
   xmlns:dc="http://purl.org/dc/elements/1.1/"
   xmlns:cc="http://creativecommons.org/ns#"
   xmlns:rdf="http://www.w3.org/1999/02/22-rdf-syntax-ns#"
   xmlns:svg="http://www.w3.org/2000/svg"
   xmlns="http://www.w3.org/2000/svg"
   xmlns:xlink="http://www.w3.org/1999/xlink"
   xmlns:sodipodi="http://sodipodi.sourceforge.net/DTD/sodipodi-0.dtd"
   xmlns:inkscape="http://www.inkscape.org/namespaces/inkscape"
   viewBox="0 0 512 512"
   style="height: 64px; width: 64px;"
   version="1.1"
   id="svg86"
   sodipodi:docname="stone-jaspe.svg"
   inkscape:export-filename="/home/plic/Téléchargements/tstone-jaspe.png"
   inkscape:export-xdpi="24"
   inkscape:export-ydpi="24"
   inkscape:version="0.92.3 (2405546, 2018-03-11)">
  <metadata
     id="metadata90">
    <rdf:RDF>
      <cc:Work
         rdf:about="">
        <dc:format>image/svg+xml</dc:format>
        <dc:type
           rdf:resource="http://purl.org/dc/dcmitype/StillImage" />
        <dc:title></dc:title>
      </cc:Work>
    </rdf:RDF>
  </metadata>
  <sodipodi:namedview
     pagecolor="#ffffff"
     bordercolor="#666666"
     borderopacity="1"
     objecttolerance="10"
     gridtolerance="10"
     guidetolerance="10"
     inkscape:pageopacity="0"
     inkscape:pageshadow="2"
     inkscape:window-width="1296"
     inkscape:window-height="1022"
     id="namedview88"
     showgrid="false"
     inkscape:zoom="0.65186406"
     inkscape:cx="372.95156"
     inkscape:cy="342.17194"
     inkscape:window-x="2534"
     inkscape:window-y="27"
     inkscape:window-maximized="0"
     inkscape:current-layer="svg86" />
  <defs
     id="defs72">
    <linearGradient
       inkscape:collect="always"
       id="linearGradient5099">
      <stop
         style="stop-color:#aa0000;stop-opacity:1;"
         offset="0"
         id="stop5095" />
      <stop
         style="stop-color:#aa0000;stop-opacity:0;"
         offset="1"
         id="stop5097" />
    </linearGradient>
    <radialGradient
       id="gradient-2"
       gradientTransform="matrix(-0.50602107,0.71154194,-0.85998204,-0.61158592,423.88775,-168.73985)"
       cx="293.19934"
       cy="22.701279"
       fx="293.19934"
       fy="22.701279"
       r="205.60145"
       gradientUnits="userSpaceOnUse">
      <stop
         offset="0%"
         stop-color="#c9c9c9"
         stop-opacity="1"
         id="stop2" />
      <stop
         offset="100%"
         stop-color="#e9e9e9"
         stop-opacity="1"
         id="stop4" />
    </radialGradient>
    <radialGradient
       id="gradient-3">
      <stop
         offset="0%"
         stop-color="#c9c9c9"
         stop-opacity="1"
         id="stop7" />
      <stop
         offset="100%"
         stop-color="#eaeaea"
         stop-opacity="1"
         id="stop9" />
    </radialGradient>
    <radialGradient
       id="gradient-4">
      <stop
         offset="0%"
         stop-color="#c9c9c9"
         stop-opacity="1"
         id="stop12" />
      <stop
         offset="100%"
         stop-color="#e7e7e7"
         stop-opacity="1"
         id="stop14" />
    </radialGradient>
    <radialGradient
       id="gradient-5">
      <stop
         offset="0%"
         stop-color="#c9c9c9"
         stop-opacity="1"
         id="stop17" />
      <stop
         offset="100%"
         stop-color="#e9e9e9"
         stop-opacity="1"
         id="stop19" />
    </radialGradient>
    <radialGradient
       id="gradient-6">
      <stop
         offset="0%"
         stop-color="#c9c9c9"
         stop-opacity="1"
         id="stop22" />
      <stop
         offset="100%"
         stop-color="#eeeeee"
         stop-opacity="1"
         id="stop24" />
    </radialGradient>
    <radialGradient
       id="gradient-7">
      <stop
         offset="0%"
         stop-color="#c9c9c9"
         stop-opacity="1"
         id="stop27" />
      <stop
         offset="100%"
         stop-color="#e7e7e7"
         stop-opacity="1"
         id="stop29" />
    </radialGradient>
    <radialGradient
       id="gradient-8">
      <stop
         offset="0%"
         stop-color="#c9c9c9"
         stop-opacity="1"
         id="stop32" />
      <stop
         offset="100%"
         stop-color="#e5e5e5"
         stop-opacity="1"
         id="stop34" />
    </radialGradient>
    <radialGradient
       id="gradient-9">
      <stop
         offset="0%"
         stop-color="#c9c9c9"
         stop-opacity="1"
         id="stop37" />
      <stop
         offset="100%"
         stop-color="#e7e7e7"
         stop-opacity="1"
         id="stop39" />
    </radialGradient>
    <radialGradient
       id="gradient-10">
      <stop
         offset="0%"
         stop-color="#d4af37"
         stop-opacity="1"
         id="stop42" />
      <stop
         offset="100%"
         stop-color="#d4af37"
         stop-opacity="1"
         id="stop44" />
    </radialGradient>
    <radialGradient
       id="gradient-11">
      <stop
         offset="0%"
         stop-color="#c9c9c9"
         stop-opacity="1"
         id="stop47" />
      <stop
         offset="100%"
         stop-color="#eaeaea"
         stop-opacity="1"
         id="stop49" />
    </radialGradient>
    <radialGradient
       id="gradient-12">
      <stop
         offset="0%"
         stop-color="#c9c9c9"
         stop-opacity="1"
         id="stop52" />
      <stop
         offset="100%"
         stop-color="#e4e4e4"
         stop-opacity="1"
         id="stop54" />
    </radialGradient>
    <radialGradient
       id="gradient-13">
      <stop
         offset="0%"
         stop-color="#c9c9c9"
         stop-opacity="1"
         id="stop57" />
      <stop
         offset="100%"
         stop-color="#e7e7e7"
         stop-opacity="1"
         id="stop59" />
    </radialGradient>
    <radialGradient
       id="gradient-14">
      <stop
         offset="0%"
         stop-color="#c9c9c9"
         stop-opacity="1"
         id="stop62" />
      <stop
         offset="100%"
         stop-color="#e7e7e7"
         stop-opacity="1"
         id="stop64" />
    </radialGradient>
    <radialGradient
       id="gradient-15">
      <stop
         offset="0%"
         stop-color="#c9c9c9"
         stop-opacity="1"
         id="stop67" />
      <stop
         offset="100%"
         stop-color="#e7e7e7"
         stop-opacity="1"
         id="stop69" />
    </radialGradient>
    <radialGradient
       inkscape:collect="always"
       xlink:href="#linearGradient5099"
       id="radialGradient5101"
       cx="231.05084"
       cy="147.65131"
       fx="231.05084"
       fy="147.65131"
       r="130.71187"
       gradientTransform="matrix(0.86590643,8.5413525,-1.3614929,0.13802561,232.00862,-1908.1714)"
       gradientUnits="userSpaceOnUse" />
    <clipPath
       clipPathUnits="userSpaceOnUse"
       id="clipPath5112">
      <path
         style="fill:none;stroke:#000000;stroke-width:0.97786868px;stroke-linecap:butt;stroke-linejoin:miter;stroke-opacity:1"
         d="m 208.2538,88.51676 c -0.73867,1.015481 -1.34549,2.148876 -2.21602,3.046442 -0.17411,0.179513 -0.51845,-0.113534 -0.73868,0 -0.31145,0.160562 -0.42723,0.601049 -0.73867,0.761611 -0.22024,0.113534 -0.56457,-0.179513 -0.73869,0 -0.17411,0.179512 0.17412,0.582097 0,0.76161 -0.17411,0.179514 -0.49245,0 -0.73867,0 0,0.253871 0.11012,0.534542 0,0.761611 -1.5371,3.16964 0.051,-0.814189 -1.47735,0.76161 -0.17411,0.179514 0.1741,0.582097 0,0.761611 -0.17411,0.179513 -0.56457,-0.179514 -0.73868,0 -0.17411,0.179513 0.17411,0.582097 0,0.76161 -0.17411,0.179513 -0.56457,-0.179513 -0.73867,0 -0.17411,0.179513 0.1741,0.582097 0,0.76161 -0.17411,0.179514 -0.56457,-0.179513 -0.73868,0 -0.17411,0.179514 0.17411,0.582097 0,0.761611 -1.96981,0 0.24622,-0.25387 -0.73867,0.761613 -0.17411,0.179513 -0.56457,-0.179516 -0.73868,0 -0.17412,0.179513 0.11011,0.534536 0,0.76161 -0.15573,0.321124 -0.58295,0.440485 -0.73868,0.761611 -0.11012,0.22706 0.17411,0.5821 0,0.76161 -0.17411,0.17951 -0.51844,-0.11353 -0.73868,0 -3.07419,1.58482 0.78968,-0.0525 -0.73868,1.52322 -0.1741,0.17951 -0.56456,-0.17951 -0.73867,0 -0.17411,0.17951 0.11011,0.53454 0,0.76161 -0.15572,0.32112 -0.58295,0.44049 -0.73868,0.76161 -0.11011,0.22707 0.11012,0.53454 0,0.76162 -0.15572,0.32111 -0.58295,0.44048 -0.73867,0.76161 -0.11011,0.22706 0.17411,0.58209 0,0.76161 -0.17411,0.17951 -0.56457,-0.17952 -0.73868,0 -0.1741,0.17951 0.11012,0.53453 0,0.7616 -0.15573,0.32113 -0.58295,0.44049 -0.73867,0.76161 -0.11012,0.22707 0.17411,0.5821 0,0.76161 -0.17411,0.17952 -0.56457,-0.17951 -0.73868,0 -0.34822,0.35903 0.22023,1.06908 0,1.52322 -0.31145,0.64225 -1.1659,0.88098 -1.47736,1.52323 -1.08688,2.24127 1.71121,-1.00272 -0.73867,1.52322 -0.24622,0.25386 -0.49245,0.50774 -0.73868,0.76161 -0.24622,0.25387 -0.58295,0.44048 -0.73867,0.76161 -0.11011,0.22706 0.11011,0.53454 0,0.76161 -0.15572,0.32112 -0.58295,0.44048 -0.73868,0.76161 -0.11011,0.22707 0.17411,0.58209 0,0.76161 -0.1741,0.17951 -0.56456,-0.17952 -0.73867,0 -0.17411,0.17951 0.11011,0.53454 0,0.76161 -0.15573,0.32112 -0.49246,0.50774 -0.73868,0.76162 -0.24622,0.25386 -0.42723,0.60104 -0.73867,0.76161 -0.22024,0.11353 -0.56457,-0.17952 -0.73868,0 -0.17411,0.17951 0.17411,0.58209 0,0.7616 -0.17411,0.17952 -0.56457,-0.17951 -0.73868,0 -0.17411,0.17952 0.17411,0.5821 0,0.76161 -0.17411,0.17952 -0.51844,-0.11353 -0.73868,0 -0.39451,0.20339 -1.82714,1.88388 -2.21602,2.28483 -0.24623,0.25388 -0.49245,0.50775 -0.73868,0.76161 -0.24622,0.25387 -0.58295,0.4405 -0.73867,0.76161 -0.11011,0.22707 0.1741,0.5821 0,0.76162 -0.17411,0.17951 -0.56457,-0.17952 -0.73868,0 -0.1741,0.17951 0.11012,0.53454 0,0.76161 -0.15573,0.32111 -0.58295,0.44048 -0.73867,0.76161 -0.11012,0.22706 0.1741,0.5821 0,0.76161 -0.17412,0.17951 -0.56457,-0.17951 -0.73869,0 -0.49307,0.50838 0.49308,1.01484 0,1.52322 -0.1741,0.17951 -0.56457,-0.17951 -0.73867,0 -0.17411,0.17951 0.11012,0.53454 0,0.76161 -0.31146,0.64225 -1.1659,0.88098 -1.47735,1.52322 -0.11012,0.22707 0.1741,0.58209 0,0.76161 -0.17411,0.17952 -0.56457,-0.17952 -0.73868,0 -0.1741,0.17952 0.17411,0.5821 0,0.76161 -0.1741,0.17952 -0.56457,-0.17951 -0.73867,0 -0.34822,0.35903 0.34821,1.1642 0,1.52322 -0.17411,0.17952 -0.56457,-0.17951 -0.73868,0 -0.1741,0.17952 0.11012,0.53454 0,0.76161 -0.15573,0.32113 -0.58295,0.44049 -0.73867,0.76161 -0.11013,0.22707 0.11011,0.53455 0,0.76161 -0.15573,0.32113 -0.58296,0.44049 -0.73868,0.76161 -0.11012,0.22707 0.11012,0.53455 0,0.76161 -0.31145,0.64225 -1.1659,0.88098 -1.47736,1.52323 -0.11011,0.22706 0.11013,0.53453 0,0.76161 -0.15572,0.32112 -0.58294,0.44048 -0.73867,0.76161 -0.11012,0.22706 0.11011,0.53453 0,0.76161 -0.15572,0.32112 -0.58295,0.44048 -0.73868,0.76161 -0.11011,0.22706 0.11012,0.53454 0,0.76161 -0.15572,0.32112 -0.58295,0.44048 -0.73867,0.76161 -0.11012,0.22707 0.0778,0.52077 0,0.7616 -0.17411,0.53855 -0.56457,0.98469 -0.73868,1.52323 -0.0778,0.24084 0.11012,0.53454 0,0.76161 -0.15573,0.32113 -0.58295,0.44049 -0.73867,0.76161 -0.11012,0.22707 0.11011,0.53454 0,0.76161 -0.15573,0.32113 -0.58296,0.44049 -0.73868,0.76161 -0.22023,0.45414 0.22023,1.06908 0,1.52322 -0.15573,0.32112 -0.58295,0.44049 -0.73867,0.76161 -0.22024,0.45414 0.34821,1.16419 0,1.52323 -0.17412,0.17951 -0.56457,-0.17952 -0.73869,0 -0.34821,0.35902 0.34823,1.16419 0,1.52322 -0.1741,0.17951 -0.56457,-0.17952 -0.73867,0 -0.49308,0.50838 0.49307,1.01483 0,1.52322 -0.17411,0.17951 -0.56457,-0.17952 -0.73868,0 -0.34821,0.35902 0.22024,1.06908 0,1.52321 -0.15572,0.32113 -0.58294,0.44049 -0.73867,0.76161 -0.11012,0.22708 0.11011,0.53455 0,0.76161 -0.15573,0.32113 -0.58296,0.4405 -0.73868,0.76162 -0.22022,0.45413 0.22023,1.06908 0,1.52322 -0.15572,0.32113 -0.58295,0.44049 -0.73867,0.76161 -0.11012,0.22707 0.11011,0.53454 0,0.76161 -0.15574,0.32113 -0.58296,0.44049 -0.73868,0.76161 -0.11011,0.22707 0.11011,0.53455 0,0.76161 -0.15573,0.32112 -0.58295,0.44048 -0.73867,0.76161 -0.22024,0.45414 0.34821,1.16419 0,1.52322 -0.17411,0.17952 -0.56457,-0.17951 -0.73868,0 -0.34822,0.35903 0.22023,1.06909 0,1.52323 -0.15573,0.32112 -0.58295,0.44048 -0.73868,0.76161 -0.11012,0.22706 0.11012,0.53453 0,0.76161 -0.15573,0.32112 -0.58295,0.44048 -0.73868,0.7616 -0.22022,0.45414 0.22024,1.06909 0,1.52322 -0.15572,0.32113 -0.58294,0.44049 -0.73867,0.76161 -0.22023,0.45414 0.22023,1.06909 0,1.52323 -0.15573,0.32112 -0.58295,0.44049 -0.73868,0.76161 -0.14644,0.30197 0.15101,2.12913 0,2.28483 -0.17411,0.17951 -0.62856,-0.22706 -0.73867,0 -0.23895,0.49272 0.26534,2.77286 0,3.04644 -0.17411,0.17952 -0.56457,-0.17952 -0.73868,0 -0.34821,0.35903 0.22023,1.06909 0,1.52323 -0.15572,0.32112 -0.58295,0.44048 -0.73867,0.76161 -0.21792,0.44936 0.16935,1.76096 0,2.28482 -0.17411,0.53854 -0.60515,0.9725 -0.73868,1.52322 -0.11943,0.49259 0,1.01548 0,1.52323 0,0.25386 0.11011,0.53454 0,0.76161 -0.15573,0.32112 -0.58295,0.44049 -0.73867,0.76161 -0.11013,0.22706 0.0778,0.52076 0,0.76161 -0.17411,0.53854 -0.56457,0.98468 -0.73868,1.52322 -0.23359,0.72253 0.17915,1.54596 0,2.28483 -0.13354,0.55073 -0.56458,0.98468 -0.73868,1.52323 -0.0778,0.24083 0.0779,0.52076 0,0.7616 -0.17411,0.53854 -0.56457,0.98469 -0.73868,1.52322 -0.2216,0.68545 0.2216,1.59938 0,2.28483 -0.11011,0.34061 -0.62856,0.42102 -0.73867,0.76161 -0.15573,0.48169 0,1.01548 0,1.52323 0,0.25386 0.11011,0.53454 0,0.76161 -0.15573,0.32112 -0.58295,0.44048 -0.73868,0.76161 -0.22023,0.45414 0.22024,1.06908 0,1.52322 -0.15572,0.32112 -0.58295,0.44048 -0.73867,0.76161 -0.22023,0.45413 0.22022,1.06908 0,1.52322 -0.15573,0.32112 -0.58296,0.44049 -0.73868,0.76161 -0.23214,0.47869 0.23214,2.56775 0,3.04644 -0.15573,0.32113 -0.58295,0.44049 -0.73867,0.76161 -0.25512,0.52607 0.25928,3.54071 0,3.80806 -0.17411,0.17951 -0.56457,-0.17952 -0.73868,0 -0.0298,0.0307 0,2.76675 0,3.04644 0,0.343 0.1124,2.05304 0,2.28482 -0.15573,0.32113 -0.58295,0.4405 -0.73868,0.76161 -0.23602,0.48669 0.19819,2.43343 0,3.04645 -0.17411,0.53854 -0.56456,0.98468 -0.73868,1.52322 -0.25223,0.78018 0.25223,1.50466 0,2.28483 -0.11011,0.3406 -0.62855,0.42101 -0.73867,0.76161 -0.22161,0.68545 0.2216,1.59939 0,2.28484 -0.17411,0.53853 -0.56457,0.98468 -0.73868,1.52322 -0.15572,0.48168 0,1.01548 0,1.52321 0,1.26936 0,2.53871 0,3.80806 0,0.25387 0,0.50774 0,0.76161 0,0.25387 0.11011,0.53455 0,0.76161 -0.15572,0.32112 -0.58294,0.44048 -0.73868,0.76161 -0.23213,0.47869 0.23214,2.56775 0,3.04645 -0.15572,0.32111 -0.58295,0.44048 -0.73867,0.76161 -0.22427,0.46246 0.22427,4.10718 0,4.56965 -0.15572,0.32113 -0.58295,0.4405 -0.73868,0.76161 -0.1124,0.23179 0,1.94184 0,2.28484 0,1.77709 0,3.55418 0,5.33128 0,2.5387 0,5.0774 0,7.6161 0,0.8733 -0.19129,2.25749 0,3.04644 0.13354,0.55072 0.60515,0.9725 0.73868,1.52322 0.14044,0.57917 0,3.17028 0,3.80805 0,2.53871 0,5.07741 0,7.61611 0,0.25387 0,0.50773 0,0.76161 0,0.25387 -0.17411,0.58209 0,0.76161 0.17411,0.17951 0.56457,-0.17952 0.73867,0 0.17411,0.17951 0,0.50773 0,0.76161 0,0.25387 0,0.50774 0,0.76161 0,2.5387 0,5.0774 0,7.6161 0,3.80806 0,7.6161 0,11.42416 0,1.26936 0,2.5387 0,3.80806 0,0.76161 0,1.52322 0,2.28483 0,0.25387 -0.0778,0.52076 0,0.76161 0.17411,0.53853 0.56457,0.98468 0.73868,1.52321 0.2216,0.68546 -0.2216,1.59939 0,2.28484 0.11011,0.3406 0.62856,0.42101 0.73868,0.76161 0.13617,0.42118 0,3.80268 0,4.56966 0,3.04645 0,6.09288 0,9.13933 0,3.55417 0,7.10836 0,10.66254 0,0.81709 -0.16276,4.82785 0,5.33128 0.1741,0.53854 0.56456,0.98468 0.73867,1.52322 0.15022,0.46465 0,3.98144 0,4.56966 0,2.53871 0,5.07741 0,7.61611 0,0.39825 -0.0971,2.84618 0,3.04644 0.15573,0.32112 0.58295,0.44049 0.73868,0.7616 0.29547,0.6093 -0.29547,1.67555 0,2.28484 0.15573,0.32113 0.58295,0.44049 0.73868,0.76161 0.29547,0.60929 -0.29548,1.67555 0,2.28483 0.15572,0.32113 0.62856,0.42101 0.73868,0.76161 0.15572,0.48169 0,1.01548 0,1.52322 0,0.25387 -0.11012,0.53454 0,0.76162 0.15572,0.32111 0.58294,0.44048 0.73867,0.76161 0.22023,0.45414 -0.22024,1.06908 0,1.52322 0.15572,0.32112 0.58295,0.44048 0.73868,0.76161 0.11011,0.22706 -0.11012,0.53454 0,0.76161 0.15572,0.32112 0.58295,0.44048 0.73867,0.7616 0.22024,0.45414 -0.22023,1.0691 0,1.52322 0.15573,0.32113 0.62856,0.42102 0.73868,0.76162 0.15573,0.48168 -0.15573,1.04153 0,1.52322 0.22023,0.6812 1.1659,0.88097 1.47735,1.52322 0.11012,0.22706 -0.11012,0.53455 0,0.76161 0.15573,0.32112 0.58295,0.44048 0.73868,0.76161 0.11011,0.22707 -0.11012,0.53454 0,0.76161 0.15572,0.32112 0.58294,0.44049 0.73868,0.76161 0.22022,0.45414 -0.22024,1.06909 0,1.52323 0.15572,0.32112 0.58294,0.44048 0.73867,0.76161 0.11011,0.22706 -0.11011,0.53453 0,0.76161 0.15572,0.32112 0.58294,0.44048 0.73868,0.76161 0.22022,0.45413 -0.22024,1.06908 0,1.52321 0.15572,0.32113 0.58295,0.44049 0.73867,0.76161 0.11011,0.22708 -0.11011,0.53455 0,0.76161 0.31146,0.64225 1.1659,0.88098 1.47735,1.52323 0.11011,0.22707 -0.11011,0.53454 0,0.76161 0.15573,0.32113 0.58295,0.44049 0.73868,0.76161 0.11011,0.22706 -0.17411,0.5821 0,0.76161 0.1741,0.17951 0.56456,-0.17951 0.73867,0 0.17411,0.17951 -0.11011,0.53455 0,0.76161 0.44321,0.91393 1.77283,1.3709 2.21604,2.28483 0.11011,0.22707 -0.11013,0.53454 0,0.76161 0.15572,0.32112 0.49244,0.50774 0.73867,0.76162 0.58043,0.59844 3.45812,3.32292 3.69338,3.80804 0.11012,0.22708 -0.11012,0.53455 0,0.76161 0.15573,0.32113 0.54553,0.46289 0.73867,0.76161 0.30541,0.47234 0.43328,1.05089 0.73869,1.52323 0.3863,0.59745 0.98489,1.01547 1.47735,1.52322 0.73867,0.76161 1.47735,1.52322 2.21602,2.28483 0.43446,0.44794 2.78368,2.69376 2.95471,3.04645 0.11012,0.22706 -0.17411,0.58209 0,0.7616 0.17411,0.17952 0.56457,-0.17951 0.73868,0 0.1741,0.17952 -0.17411,0.5821 0,0.76161 0.1741,0.17952 0.56457,-0.17951 0.73867,0 0.17411,0.17952 -0.1741,0.5821 0,0.76161 0.17411,0.17952 0.56457,-0.17951 0.73868,0 0.34821,0.35903 -0.22024,1.06908 0,1.52322 0.15572,0.32113 0.58295,0.44049 0.73867,0.76161 0.11012,0.22708 -0.11011,0.53455 0,0.76161 0.15573,0.32113 0.54552,0.46289 0.73868,0.76161 0.3054,0.47234 0.43327,1.05089 0.73867,1.52323 0.19316,0.29872 0.54552,0.46288 0.73868,0.76161 0.3054,0.47233 0.34936,1.12181 0.73867,1.52322 0.38933,0.4014 1.08805,0.3602 1.47736,0.76161 0.38932,0.4014 0.34936,1.12181 0.73868,1.52322 0.38931,0.4014 1.01924,0.44673 1.47735,0.76161 0.57947,0.3983 0.9849,1.01548 1.47735,1.52322 0.9849,1.01548 1.96981,2.03096 2.95471,3.04644 0.24622,0.25388 0.49245,0.50774 0.73867,0.76161 0.24622,0.25387 0.42722,0.60105 0.73868,0.76161 0.22023,0.11353 0.56457,-0.17951 0.73867,0 0.17411,0.17951 -0.11011,0.53455 0,0.76161 1.5371,3.16964 -0.0509,-0.81419 1.47735,0.76161 0.17411,0.17952 -0.1741,0.5821 0,0.76162 0.17411,0.17951 0.56457,-0.17952 0.73868,0 0.9849,1.01547 -1.56697,0.73081 0.73867,1.52322 0.46719,0.16055 1.01018,-0.16057 1.47736,0 0.33034,0.11353 0.44894,0.56245 0.73868,0.76161 0.4581,0.31489 0.9849,0.50773 1.47735,0.76161 0.9849,0.50773 2.01048,0.93909 2.9547,1.52322 0.76127,0.47093 1.42198,1.11387 2.21604,1.52321 0.69642,0.35904 1.54835,0.34857 2.21602,0.76162 0.59719,0.36943 0.92021,1.09239 1.47735,1.52322 0.9899,0.76547 2.62929,1.08437 3.69339,1.52322 1.52829,0.6303 2.90375,1.65454 4.43205,2.28483 0.72295,0.29816 1.49308,0.46346 2.21603,0.76161 1.50979,0.62267 2.97707,1.53476 4.43205,2.28484 0.49246,0.25386 0.94322,0.62393 1.47736,0.76161 0.47774,0.12314 0.9849,0 1.47735,0 0.49245,0.25387 0.95503,0.58209 1.47735,0.76161 0.2336,0.0802 0.51845,-0.11354 0.73868,0 0.31145,0.16055 0.40833,0.64807 0.73867,0.76161 0.50252,0.17271 3.30171,-0.20192 3.69339,0 0.31145,0.16056 0.42722,0.60105 0.73867,0.7616 0.22023,0.11354 0.49245,0 0.73868,0 0.24623,0 0.49244,0 0.73867,0 1.96981,0 3.93961,0 5.90941,0 0.49245,0 0.99447,-0.0996 1.47735,0 0.76352,0.15745 1.45252,0.60417 2.21604,0.76161 3.9463,0.81377 -1.66246,-1.44723 3.69337,0.76161 0.5112,0.21083 0.94322,0.62393 1.47735,0.76162 0.95551,0.24629 2.02035,-0.32112 2.95471,0 0.33034,0.11353 0.40833,0.64807 0.73868,0.76161 0.003,10e-4 2.21532,-7.3e-4 2.21602,0 0.17411,0.17951 -0.1741,0.5821 0,0.76161 0.17411,0.17951 0.49246,0 0.73868,0 1.47735,0 2.95471,0 4.43206,0 0.24623,0 0.49245,0 0.73868,0 0.24622,0 0.51844,0.11353 0.73867,0 0.31145,-0.16057 0.42722,-0.60105 0.73868,-0.76161 0.16556,-0.0854 2.77917,0 2.95471,0 1.47735,0 2.9547,0 4.43205,0 3.93961,0 7.87921,0 11.81882,0 1.23113,0 2.46225,0 3.69338,0 0.24622,0 0.49245,0 0.73868,0 0.24622,0 0.51844,0.11353 0.73867,0 0.31146,-0.16056 0.40833,-0.64808 0.73868,-0.76161 0.47953,-0.1648 4.49974,0 5.17073,0 0.49245,0 1.01018,0.16056 1.47735,0 0.33035,-0.11354 0.40833,-0.64807 0.73868,-0.76162 0.46718,-0.16055 0.9849,0 1.47735,0 0.61856,0 3.13165,0.1448 3.69338,0 0.53414,-0.13768 0.95503,-0.58209 1.47735,-0.76161 0.2336,-0.0802 0.49245,0 0.73868,0 0.49246,0 1.01017,0.16057 1.47735,0 0.33035,-0.11353 0.42723,-0.60104 0.73867,-0.76161 0.44047,-0.22706 1.0369,0.22708 1.47736,0 0.31146,-0.16055 0.42722,-0.60104 0.73868,-0.7616 0.44046,-0.22707 1.12914,0.35902 1.47735,0 0.17411,-0.17952 -0.17411,-0.5821 0,-0.76161 0.17411,-0.17952 0.51845,0.11353 0.73867,0 0.62291,-0.32113 0.85446,-1.2021 1.47735,-1.52322 0.22024,-0.11353 0.56457,0.17951 0.73868,0 1.52835,-1.57581 -2.33551,0.0616 0.73868,-1.52322 0.22023,-0.11354 0.56457,0.17951 0.73868,0 0.17411,-0.17952 -0.11012,-0.53455 0,-0.76162 0.15572,-0.32112 0.49245,-0.50774 0.73867,-0.76161 0.73868,-0.76161 1.47736,-1.52322 2.21603,-2.28483 0.49245,-0.50774 1.09104,-0.92576 1.47735,-1.52322 0.30541,-0.47233 0.43328,-1.05089 0.73868,-1.52322 0.38631,-0.59745 1.09104,-0.92577 1.47736,-1.52323 0.30539,-0.47232 0.40832,-1.06908 0.73867,-1.52321 0.68265,-0.93845 2.32779,-2.07686 2.9547,-3.04644 0.30541,-0.47234 0.43327,-1.05089 0.73868,-1.52323 0.19315,-0.29872 0.58295,-0.44049 0.73867,-0.76161 0.11012,-0.22706 0,-0.50774 0,-0.76161 0.24623,-0.50774 0.43328,-1.05089 0.73868,-1.52322 0.38631,-0.59746 1.25712,-0.84202 1.47736,-1.52322 1.06605,-3.29748 -1.41213,0.27993 0.73867,-3.04644 0.19316,-0.29873 0.54552,-0.46288 0.73868,-0.76161 0.3054,-0.47233 0.43326,-1.05089 0.73867,-1.52322 0.19316,-0.29873 0.54552,-0.46289 0.73868,-0.76161 0.3054,-0.47233 0.49245,-1.01548 0.73867,-1.52322 0.24623,-0.50775 0.56457,-0.98468 0.73868,-1.52322 0.0779,-0.24085 -0.0778,-0.52077 0,-0.76162 0.1741,-0.53854 0.60514,-0.9725 0.73867,-1.52322 0.11945,-0.49257 -0.15572,-1.04154 0,-1.52322 0.11012,-0.3406 0.54553,-0.46288 0.73869,-0.76161 0.30539,-0.47232 0.56456,-0.98468 0.73867,-1.52322 0.0778,-0.24084 -0.0779,-0.52077 0,-0.7616 0.17411,-0.53855 0.56457,-0.98469 0.73868,-1.52323 0.15572,-0.48168 -0.15574,-1.04154 0,-1.52322 0.24622,-0.50774 0.49244,-1.01548 0.73867,-1.52322 0,-0.25387 -0.0778,-0.52077 0,-0.76161 0.17411,-0.53855 0.56457,-0.98468 0.73868,-1.52322 0.0778,-0.24084 -0.11012,-0.53454 0,-0.76162 0.15572,-0.32111 0.49244,-0.50773 0.73867,-0.76161 0,-0.50773 -0.15572,-1.04153 0,-1.52322 0.11012,-0.3406 0.62856,-0.421 0.73868,-0.76161 0.15573,-0.48168 -0.15573,-1.04153 0,-1.52321 0.11011,-0.34061 0.58295,-0.44049 0.73867,-0.76161 0.11013,-0.22708 -0.11011,-0.53455 0,-0.76161 0.15573,-0.32113 0.58296,-0.4405 0.73868,-0.76162 0.11012,-0.22707 -0.0778,-0.52077 0,-0.76161 0.17411,-0.53854 0.60515,-0.9725 0.73868,-1.52322 0.11944,-0.49258 -0.15573,-1.04154 0,-1.52322 0.11012,-0.34061 0.58295,-0.44049 0.73868,-0.76161 0.11011,-0.22707 0,-0.50775 0,-0.76161 0.24622,-0.25387 0.58294,-0.44049 0.73867,-0.76161 0.11012,-0.22707 0,-0.50774 0,-0.76161 0.24622,-0.25387 0.58295,-0.44049 0.73868,-0.76162 0.11011,-0.22706 -0.17411,-0.58209 0,-0.76161 0.1741,-0.17951 0.56457,0.17952 0.73867,0 0.34822,-0.35902 -0.22022,-1.06908 0,-1.52322 0.15573,-0.32112 0.58296,-0.44048 0.73868,-0.7616 0.11011,-0.22707 -0.11012,-0.53455 0,-0.76161 0.15573,-0.32113 0.58295,-0.44049 0.73867,-0.76161 0.11012,-0.22708 -0.11011,-0.53455 0,-0.76161 0.15573,-0.32113 0.58296,-0.4405 0.73868,-0.76161 0.22023,-0.45414 -0.22023,-1.06909 0,-1.52323 0.59012,-1.21687 0.88724,-0.30635 1.47736,-1.52322 0.11011,-0.22706 0,-0.50774 0,-0.76161 0,-0.50774 -0.15573,-1.04154 0,-1.52322 0.11011,-0.3406 0.58294,-0.44048 0.73867,-0.76161 0.11012,-0.22707 -0.11012,-0.53454 0,-0.76161 0.15573,-0.32112 0.62856,-0.42101 0.73868,-0.76162 0.15572,-0.48168 -0.15573,-1.04152 0,-1.52322 0.11011,-0.34059 0.62856,-0.421 0.73867,-0.7616 0.15573,-0.48169 -0.15573,-1.04154 0,-1.52322 0.11012,-0.34061 0.54552,-0.46289 0.73868,-0.76161 0.3054,-0.47233 0.43327,-1.05089 0.73867,-1.52322 0.19316,-0.29874 0.62857,-0.42102 0.73868,-0.76162 0.15573,-0.48168 -0.11944,-1.03064 0,-1.52322 0.36673,-1.51247 1.8493,-3.05719 2.21602,-4.56966 0.11945,-0.49258 -0.15572,-1.04153 0,-1.52323 0.11013,-0.34059 0.54553,-0.46287 0.73869,-0.7616 0.6108,-0.94466 0.98489,-2.03096 1.47735,-3.04644 0.24623,-0.50775 0.49245,-1.01548 0.73867,-1.52322 0.24623,-0.50775 0.60514,-0.9725 0.73868,-1.52323 0.11943,-0.49257 -0.15572,-1.04154 0,-1.52322 0.11011,-0.34059 0.54552,-0.46287 0.73867,-0.76161 0.30541,-0.47233 0.43327,-1.05089 0.73868,-1.52322 0.19315,-0.29873 0.62856,-0.42101 0.73867,-0.76161 0.15574,-0.48169 -0.11943,-1.03064 0,-1.52322 -0.44522,-1.37847 1.19662,-1.41646 1.47736,-2.28483 0.15573,-0.48169 -0.15573,-1.04154 0,-1.52322 0.11012,-0.34061 0.62856,-0.42101 0.73868,-0.76161 0.15572,-0.48168 -0.15573,-1.04154 0,-1.52322 0.11011,-0.34061 0.62856,-0.42101 0.73867,-0.76161 0.15573,-0.48169 -0.15573,-1.04154 0,-1.52323 0.11012,-0.34059 0.62857,-0.421 0.73868,-0.76161 0.15572,-0.48168 -0.15573,-1.04154 0,-1.52322 0.11011,-0.3406 0.62856,-0.421 0.73867,-0.76161 0.2336,-0.72252 -0.23359,-1.5623 0,-2.28482 0.17411,-0.53855 0.56457,-0.98469 0.73868,-1.52323 0.0778,-0.24084 -0.11011,-0.53454 0,-0.76161 0.15573,-0.32113 0.62856,-0.42101 0.73867,-0.76161 0.20394,-0.63078 -0.23487,-3.32372 0,-3.80805 0.15574,-0.32112 0.62857,-0.42101 0.73868,-0.76162 0.15573,-0.48168 0,-1.01547 0,-1.52322 0,-0.25386 -0.11011,-0.53453 0,-0.76161 0.15573,-0.32112 0.62856,-0.421 0.73867,-0.76161 0.30581,-0.94587 -0.24279,-2.80667 0,-3.80804 0.13354,-0.55073 0.60516,-0.97251 0.73869,-1.52323 0.28967,-1.19468 -0.28968,-2.61337 0,-3.80805 0.13353,-0.55072 0.60514,-0.9725 0.73867,-1.52322 0.11944,-0.49258 0,-1.01548 0,-1.52323 0,-1.52322 0,-3.04643 0,-4.56965 0,-0.50775 -0.15573,-1.04154 0,-1.52323 0.11012,-0.3406 0.65422,-0.4133 0.73868,-0.76161 0.17915,-0.73887 0,-1.52322 0,-2.28483 0,-0.50774 0,-1.01548 0,-1.52322 0,-2.28484 0,-4.56966 0,-6.85449 0,-0.76161 0,-1.52322 0,-2.28483 0,-0.50775 -0.0966,-1.02534 0,-1.52323 0.1527,-0.78722 0.61067,-1.49294 0.73867,-2.28483 0.2024,-1.25208 0,-2.5387 0,-3.80806 0,-4.82352 0,-9.64705 0,-14.47059 0,-1.26935 0,-2.53871 0,-3.80805 0,-0.50775 -0.11943,-1.03065 0,-1.52322 0.13354,-0.55073 0.6307,-0.96658 0.73868,-1.52323 0.24144,-1.2447 0,-2.5387 0,-3.80805 0,-2.28482 0,-4.56966 0,-6.85449 0,-5.58515 0,-11.17029 0,-16.75544 0,-6.34675 0,-12.6935 0,-19.04025 0,-2.79258 0,-5.58515 0,-8.37772 0,-1.01548 0.19316,-2.05068 0,-3.04644 -0.1527,-0.78722 -0.58598,-1.49761 -0.73868,-2.28483 -0.0966,-0.49789 0,-1.01548 0,-1.52322 0,-1.01548 0,-2.03097 0,-3.04645 0,-0.25387 0.0778,-0.52076 0,-0.76161 -0.1741,-0.53853 -0.60514,-0.9725 -0.73867,-1.52322 -0.17915,-0.73887 0.23358,-1.56231 0,-2.28482 -0.17411,-0.53855 -0.56457,-0.98469 -0.73868,-1.52323 -0.15573,-0.48168 0.22023,-1.06908 0,-1.52322 -0.15573,-0.32113 -0.58295,-0.44049 -0.73867,-0.76161 -0.29548,-0.60929 0.29547,-1.67555 0,-2.28483 -0.11012,-0.22707 -0.62856,0.22706 -0.73869,0 -0.22022,-0.45414 0.11945,-1.03064 0,-1.52323 -0.26706,-1.10144 -1.12913,-1.96935 -1.47735,-3.04644 -0.0778,-0.24084 0.11012,-0.53454 0,-0.76161 -0.31145,-0.64224 -1.16589,-0.88098 -1.47735,-1.52321 -0.11011,-0.22708 0,-0.50775 0,-0.76161 -0.24622,-0.50775 -0.43326,-1.05089 -0.73867,-1.52323 -0.38631,-0.59746 -1.09104,-0.92576 -1.47735,-1.52322 -2.67792,-5.52212 0.77863,1.20421 -1.47736,-2.28483 -0.3054,-0.47233 -0.40833,-1.06909 -0.73868,-1.52322 -0.41785,-0.57445 -1.05949,-0.94879 -1.47735,-1.52323 -0.33035,-0.45413 -0.43326,-1.05089 -0.73867,-1.52322 -0.19316,-0.29872 -0.54552,-0.46288 -0.73868,-0.76161 -0.61081,-0.94465 -0.81666,-2.13817 -1.47735,-3.04643 -0.41786,-0.57445 -1.0595,-0.94879 -1.47736,-1.52323 -0.97505,-1.34043 -1.24097,-3.22923 -2.21602,-4.56966 -0.41786,-0.57444 -1.05949,-0.94878 -1.47735,-1.52322 -0.66069,-0.90827 -0.81666,-2.13817 -1.47735,-3.04644 -0.41786,-0.57445 -1.0595,-0.94878 -1.47735,-1.52322 -1.49486,-2.05502 0.0123,-1.24809 -1.47736,-3.80806 -0.35831,-0.61572 -1.05949,-0.94878 -1.47735,-1.52322 -0.66069,-0.90827 -0.81666,-2.13817 -1.47735,-3.04644 -3.19499,-3.29419 -0.11578,0.20176 -2.21603,-3.04644 -0.72463,-1.12069 -2.23008,-1.92576 -2.95471,-3.04644 -0.0917,-0.14187 -1.43002,-2.99765 -1.47735,-3.04645 -0.1741,-0.17951 -0.62856,0.22707 -0.73867,0 -0.22024,-0.45414 0.22022,-1.06908 0,-1.52322 -0.11012,-0.22706 -0.56457,0.17951 -0.73868,0 -0.38931,-0.4014 -0.43328,-1.05089 -0.73867,-1.52322 -0.38631,-0.59746 -1.16591,-0.88098 -1.47736,-1.52322 -0.11012,-0.22707 0.1741,-0.58209 0,-0.76161 -0.17411,-0.17951 -0.56457,0.17952 -0.73868,0 -0.17411,-0.17951 0.17411,-0.58209 0,-0.76161 -0.17411,-0.17952 -0.56457,0.17952 -0.73867,0 -0.17411,-0.17952 0.1741,-0.5821 0,-0.76161 -1.52835,-1.5758 0.0597,2.40803 -1.47735,-0.76161 -0.11012,-0.22707 0.1741,-0.5821 0,-0.76161 -0.17411,-0.17952 -0.56457,0.17951 -0.73868,0 -0.17411,-0.17952 0.17411,-0.5821 0,-0.76161 -1.52835,-1.5758 0.0597,2.40803 -1.47735,-0.76161 -0.11012,-0.22707 0.17411,-0.5821 0,-0.76161 -0.17412,-0.17951 -0.51845,0.11353 -0.73868,0 -0.31145,-0.16057 -0.49245,-0.50775 -0.73868,-0.76161 -0.24622,-0.25387 -0.58294,-0.4405 -0.73867,-0.76161 -0.11012,-0.22707 0.1741,-0.5821 0,-0.76161 -0.17411,-0.17952 -0.51844,0.11353 -0.73868,0 -0.34206,-0.17634 -2.52026,-2.59851 -2.9547,-3.04645 -0.24623,-0.25387 -0.42723,-0.60105 -0.73867,-0.76161 -0.22024,-0.11353 -0.51845,0.11354 -0.73869,0 -0.6229,-0.32112 -0.85444,-1.20209 -1.47735,-1.52322 -0.22023,-0.11353 -0.51844,0.11354 -0.73867,0 -3.0742,-1.58482 0.78967,0.0525 -0.73868,-1.52321 -0.38932,-0.40142 -1.01924,-0.44673 -1.47735,-0.76162 -0.36073,-0.24796 -2.71422,-2.67451 -2.95471,-3.04644 -0.3054,-0.47233 -0.34936,-1.12182 -0.73868,-1.52322 -0.38931,-0.4014 -1.01924,-0.44672 -1.47735,-0.76161 -0.86919,-0.59746 -1.38031,-1.63859 -2.21602,-2.28484 -0.44046,-0.34059 -1.08804,-0.3602 -1.47735,-0.76161 -0.38933,-0.4014 -0.34936,-1.12181 -0.73869,-1.52322 -0.77863,-0.8028 -2.07377,-0.84201 -2.9547,-1.52321 -0.83572,-0.64626 -1.34683,-1.68739 -2.21602,-2.28484 -0.45812,-0.31488 -1.08804,-0.36021 -1.47736,-0.76161 -0.38932,-0.40141 -0.34936,-1.12182 -0.73868,-1.52322 -0.0473,-0.0489 -2.8171,-1.42864 -2.9547,-1.52322 -0.28973,-0.199155 -0.44894,-0.562459 -0.73867,-0.761611 -0.45811,-0.314889 -1.01925,-0.446721 -1.47735,-0.76161 -0.28974,-0.199154 -0.42723,-0.601052 -0.73869,-0.761613 -0.22022,-0.113534 -0.51844,0.113534 -0.73867,0 -0.31145,-0.160561 -0.44894,-0.562458 -0.73868,-0.761611 -0.4581,-0.314886 -0.95503,-0.582097 -1.47735,-0.76161 -0.23359,-0.08028 -0.56457,0.179513 -0.73867,0 -0.17411,-0.179513 0.1741,-0.582097 0,-0.76161 -0.34822,-0.359027 -1.03689,0.227068 -1.47735,0 -0.31146,-0.160562 -0.42723,-0.60105 -0.73868,-0.761611 -0.22023,-0.113534 -0.50509,0.08028 -0.73867,0 -4.58045,-2.361327 0.36247,-0.09697 -2.21604,-0.76161 -1.86977,-0.481958 -3.4676,-1.406828 -5.17073,-2.284832 -0.49245,-0.253871 -0.9849,-0.507741 -1.47735,-0.761611 -0.49245,-0.25387 -0.93747,-0.650281 -1.47735,-0.76161 -0.72434,-0.149364 -1.4917,0.149364 -2.21603,0 -0.54805,-0.113013 -3.74465,-1.930455 -4.43206,-2.284831 -3.46465,-1.786112 0.87053,0.359026 -3.69338,-1.523221 -1.0224,-0.421656 -1.9698,-1.015481 -2.9547,-1.523221 -0.49245,-0.25387 -1.01925,-0.446724 -1.47735,-0.76161 -0.28974,-0.199153 -0.40834,-0.648077 -0.73868,-0.761612 -0.46719,-0.160561 -1.01017,0.160562 -1.47736,0 -0.33034,-0.113534 -0.42722,-0.601048 -0.73867,-0.76161 -0.29288,-0.150986 -2.06502,0.155702 -2.21603,0 -0.17411,-0.179514 0.17411,-0.582097 0,-0.761611 -0.17866,-0.184207 -3.10451,0.202385 -3.69338,0 -0.52233,-0.179513 -0.95503,-0.582097 -1.47736,-0.76161 -0.70077,-0.240842 -1.4994,0.184718 -2.21602,0 -0.53414,-0.13768 -0.95503,-0.582097 -1.47735,-0.76161 -0.23359,-0.08028 -0.49246,0 -0.73868,0 -0.49245,0 -0.9849,0 -1.47736,0 -0.49244,0 -0.9996,0.123145 -1.47735,0 -0.53413,-0.137681 -0.94321,-0.623931 -1.47735,-0.761611 -0.95549,-0.24629 -2.02034,0.321124 -2.9547,0 -0.33035,-0.113534 -0.40833,-0.648076 -0.73868,-0.76161 -0.48876,-0.167979 -4.16973,0 -5.17073,0 -0.38627,0 -2.76047,-0.10013 -2.95471,0 -0.31145,0.160561 -0.42722,0.601049 -0.73867,0.76161 -0.22023,0.113534 -0.49245,0 -0.73868,0 -0.24623,0.25387 -0.42722,0.601049 -0.73867,0.761611 -0.22024,0.113533 -0.49245,0 -0.73868,0 -0.24623,0.25387 -0.42722,0.601049 -0.73867,0.76161 -0.22024,0.113534 -0.56457,-0.179513 -0.73868,0 -0.1741,0.179513 0.17411,0.582097 0,0.76161 -0.34822,0.359027 -1.12913,-0.359026 -1.47736,0 -0.1741,0.179514 0.17411,0.582097 0,0.761611 -1.9698,0 0.24623,-0.25387 -0.73867,0.76161 -0.17411,0.179513 -0.51844,-0.113534 -0.73868,0 -0.31145,0.160562 -0.42722,0.601049 -0.73867,0.761612 -0.22023,0.113533 -0.56457,-0.179514 -0.73868,0 -0.17411,0.179513 0.17411,0.582097 0,0.76161 -0.17411,0.179513 -0.49245,0 -0.73867,0 0,0.25387 0.1741,0.582097 0,0.76161 -0.17411,0.179514 -0.56457,-0.179513 -0.73868,0 -0.17411,0.179514 0.17411,0.582097 0,0.761611 -0.34821,0.359026 -1.05508,-0.261231 -1.47735,0 -1.05569,0.653076 -1.96981,1.523221 -2.95471,2.284831 z"
         id="path5114"
         inkscape:connector-curvature="0" />
    </clipPath>
  </defs>
  <g
     id="g5110"
     clip-path="url(#clipPath5112)"
     transform="matrix(1.2435579,0,0,1.2435579,-62.410104,-75.889616)">
    <ellipse
       ry="196.88136"
       rx="130.71187"
       cy="270.04056"
       cx="252.11307"
       id="path897"
       style="opacity:1;fill:url(#radialGradient5101);fill-opacity:1;stroke:none;stroke-width:1.06369889;stroke-miterlimit:4;stroke-dasharray:none;stroke-opacity:1" />
    <path
       inkscape:connector-curvature="0"
       id="path901"
       d="m 139.9322,173.55932 c 4.6624,2.3312 2.72194,2.16949 5.42373,2.16949 0.36158,0 0.82907,-0.25567 1.08475,0 0.25568,0.25568 -0.25568,0.82907 0,1.08475 0.25568,0.25568 0.74172,-0.11434 1.08474,0 0.76703,0.25568 1.44633,0.72316 2.1695,1.08474 0.72316,0.36159 1.49676,0.63626 2.16949,1.08475 0.42547,0.28365 0.62737,0.85606 1.08474,1.08475 0.32341,0.1617 0.72317,0 1.08475,0 1.61455,0 1.38456,-0.16171 3.25424,1.08474 0.42547,0.28365 0.62737,0.85606 1.08474,1.08475 0.39228,0.19614 4.66925,0 5.42373,0 0.36158,0 0.82907,-0.25568 1.08475,0 0.25567,0.25567 -0.25568,0.82907 0,1.08474 0.25567,0.25568 0.72316,0 1.08474,0 2.16949,0 4.33898,0 6.50848,0 0.36158,0 0.76133,0.16171 1.08474,0 0.45737,-0.22868 0.62738,-0.85606 1.08475,-1.08474 0.32341,-0.16171 0.72316,0 1.08474,0 0.72317,0 1.48344,0.22868 2.1695,0 0.48511,-0.16171 0.59963,-0.92304 1.08474,-1.08475 1.02908,-0.34302 2.22516,0.34303 3.25424,0 0.76703,-0.25567 1.40246,-0.82907 2.16949,-1.08474 0.34303,-0.11435 0.74172,0.11434 1.08475,0 0.76703,-0.25568 1.38511,-0.88865 2.16949,-1.08475 1.07529,-0.26882 4.46319,0.32018 5.42373,0 0.76703,-0.25568 1.40246,-0.82907 2.16949,-1.08475 0.68605,-0.22868 1.65813,0.51136 2.16949,0 0.25568,-0.25567 -0.25568,-0.82906 0,-1.08474 0.54237,-0.54237 2.71186,0.54237 3.25424,0 0.25567,-0.25568 -0.25568,-0.82907 0,-1.08475 0.26102,-0.26102 4.07796,0.26103 4.33898,0 0.25568,-0.25567 0.25568,-0.82907 0,-1.08474 -0.25568,-0.25568 -0.82907,0.25567 -1.08475,0 -0.25567,-0.25568 -0.25567,-0.82907 0,-1.08475 0.25568,-0.25568 0.82907,0.25568 1.08475,0 0.25568,-0.25568 -0.25568,-0.82907 0,-1.08474 0.10847,-0.10848 3.14576,-0.10848 3.25424,0 0.51135,0.51135 -0.51136,1.65813 0,2.16949 0.25567,0.25567 0.76133,-0.16171 1.08474,0 0.45737,0.22868 0.62738,0.85606 1.08475,1.08474 0.28046,0.14023 5.7396,0 6.50847,0 0.36158,0 0.82907,0.25568 1.08475,0 0.51135,-0.51135 -0.51136,-1.65813 0,-2.16949 0.51135,-0.51135 1.65814,0.51136 2.16949,0 0.25568,-0.25568 -0.1617,-0.76134 0,-1.08474 2.25723,-4.51446 -0.0749,1.15963 2.16949,-1.08475 0.51136,-0.51135 -0.51135,-1.65814 0,-2.16949 0.25568,-0.25568 0.82907,0.25568 1.08475,0 0.51135,-0.51136 -0.51136,-1.65814 0,-2.16949 0.25567,-0.25568 0.82907,0.25567 1.08474,0 2.24438,-2.24438 -3.4297,0.0877 1.08475,-2.16949 0.32341,-0.16171 0.82907,0.25567 1.08474,0 0.51136,-0.51136 -0.51135,-1.65814 0,-2.1695 0.25568,-0.25567 0.82907,0.25568 1.08475,0 0.51135,-0.51135 -0.32341,-1.52267 0,-2.16949 0.10382,-0.20764 4.13134,-4.23516 4.33898,-4.33898 0.32341,-0.1617 0.82907,0.25568 1.08475,0 0.25568,-0.25568 -0.25568,-0.82907 0,-1.08475 0.25568,-0.25567 0.82907,0.25568 1.08474,0 0.25568,-0.25567 -0.25567,-0.82906 0,-1.08474 0.25568,-0.25568 0.72317,0 1.08475,0 2.53107,0 5.06215,0 7.59322,0 2.16949,0 4.33898,0 6.50848,0 0.72316,0 1.46792,-0.17539 2.16949,0 1.56876,0.39219 2.77022,1.7773 4.33898,2.16949 0.70157,0.17539 1.48344,-0.22868 2.16949,0 0.48511,0.1617 0.62738,0.85606 1.08475,1.08475 0.64681,0.3234 1.52267,-0.32341 2.16949,0 0.45737,0.22868 0.62738,0.85606 1.08474,1.08474 0.32341,0.16171 0.72317,0 1.08475,0 0.36158,0.36158 0.62738,0.85606 1.08475,1.08475 0.3234,0.1617 0.82906,-0.25568 1.08474,0 0.25568,0.25567 -0.1617,0.76133 0,1.08474 0.22869,0.45737 0.85606,0.62738 1.08475,1.08475 0.1617,0.32341 -0.25568,0.82907 0,1.08474 0.25567,0.25568 0.76133,-0.1617 1.08474,0 0.91474,0.45737 1.25476,1.71213 2.1695,2.1695 0.68433,0.34216 4.73939,-0.34217 5.42372,0 0.45737,0.22868 0.59964,0.92304 1.08475,1.08474 0.68605,0.22869 1.44633,0 2.16949,0 2.53107,0 5.06215,0 7.59322,0 0.42882,0 4.96045,0.23164 5.42373,0 0.45737,-0.22868 0.62738,-0.85606 1.08475,-1.08474 0.3234,-0.16171 0.72316,0 1.08474,0 0.36158,-0.36159 0.62738,-0.85607 1.08475,-1.08475 0.32341,-0.1617 0.82907,0.25568 1.08474,0 0.25568,-0.25568 -0.25567,-0.82907 0,-1.08475 0.51136,-0.51135 1.65814,0.51136 2.16949,0 0.25568,-0.25567 -0.25567,-0.82906 0,-1.08474 0.25568,-0.25568 0.82907,0.25568 1.08475,0 2.24438,-2.24438 -3.42971,0.0877 1.08475,-2.16949 0.32341,-0.16171 0.76133,0.1617 1.08474,0 0.45737,-0.22869 0.65928,-0.8011 1.08475,-1.08475 0.67273,-0.44849 1.49676,-0.63626 2.16949,-1.08474 0.42547,-0.28365 0.62738,-0.85607 1.08475,-1.08475 0.3234,-0.1617 0.76133,0.1617 1.08474,0 0.91474,-0.45737 1.25475,-1.71212 2.16949,-2.16949 0.32341,-0.16171 0.76134,0.1617 1.08475,0 0.45737,-0.22869 0.72316,-0.72317 1.08474,-1.08475 0.36159,-0.36158 0.85607,-0.62737 1.08475,-1.08474 0.1617,-0.32341 -0.25568,-0.82907 0,-1.08475 0.51135,-0.51135 1.65814,0.51135 2.16949,0 0.25568,-0.25568 -0.25568,-0.82907 0,-1.08474 0.0436,-0.0437 3.94063,0 4.33898,0 2.54393,0 -0.51135,0.25567 2.1695,-1.08475 0.33012,-0.16506 2.76571,0 3.25423,0 2.53108,0 5.06215,0 7.59322,0 0.36159,0 0.72317,0 1.08475,0 0.36158,0 0.76134,0.1617 1.08475,0 0.45736,-0.22869 0.62737,-0.85606 1.08474,-1.08475 0.32341,-0.1617 0.82907,0.25568 1.08475,0 0.25567,-0.25567 -0.25568,-0.82907 0,-1.08474 0.25567,-0.25568 0.82907,0.25567 1.08474,0 0.25568,-0.25568 -0.25567,-0.82907 0,-1.08475 0.25568,-0.25568 0.82907,0.25568 1.08475,0 0.25568,-0.25568 -0.25568,-0.82907 0,-1.08474 0.25568,-0.25568 0.82907,0.25567 1.08474,0 0.25568,-0.25568 -0.25567,-0.82907 0,-1.08475 0.51136,-0.51135 1.65814,0.51135 2.1695,0 0.51135,-0.51135 -0.51136,-1.65814 0,-2.16949 0.25567,-0.25568 0.82906,0.25568 1.08474,0 0.25568,-0.25568 -0.25568,-0.82907 0,-1.08475 0.51136,-0.51135 1.65814,0.51136 2.16949,0 0.25568,-0.25567 -0.25567,-0.82907 0,-1.08474 0.0349,-0.0349 2.99116,0 3.25424,0 0.36158,0 0.82907,-0.25568 1.08475,0 0.25567,0.25567 -0.25568,0.82907 0,1.08474 0.25567,0.25568 1.08474,-0.36158 1.08474,0 0,0.36159 -1.44633,0 -1.08474,0 1.08474,0 2.16949,0 3.25423,0 0.36158,0 0.82907,-0.25567 1.08475,0 0.25568,0.25568 0,0.72317 0,1.08475 0,0.51145 -0.0492,5.37457 0,5.42373 0.25568,0.25567 0.82907,-0.25568 1.08474,0 0.25568,0.25567 -0.25567,0.82907 0,1.08474 0.25568,0.25568 0.82907,-0.25567 1.08475,0 0.25568,0.25568 -0.25568,0.82907 0,1.08475 0.25568,0.25568 0.82907,-0.25568 1.08475,0 0.25567,0.25568 -0.25568,0.82907 0,1.08475 0.25567,0.25567 0.82906,-0.25568 1.08474,0 0.51136,0.51135 -0.51135,1.65813 0,2.16949 0.25568,0.25567 0.82907,-0.25568 1.08475,0 0.25567,0.25567 -0.25568,0.82907 0,1.08474 2.24438,2.24438 -0.0877,-3.4297 2.16949,1.08475 0.1617,0.32341 -0.25568,0.82907 0,1.08474 0.25568,0.25568 0.76134,-0.1617 1.08474,0 0.28802,0.14401 3.11024,2.96623 3.25424,3.25424 0.16171,0.32341 0,0.72317 0,1.08475 0,0.36158 0.36158,1.08474 0,1.08474 -0.36158,0 0,-1.44632 0,-1.08474 0,0.72316 0,1.44632 0,2.16949 0,0.36158 0,0.72316 0,1.08474 0,0.36159 -0.1617,0.76134 0,1.08475 0.22869,0.45737 0.85606,0.62738 1.08475,1.08475 0.32341,0.64681 -0.32341,1.52267 0,2.16949 0.22868,0.45737 0.85606,0.62737 1.08474,1.08474 0.21505,0.4301 -0.22176,3.03248 0,3.25424 0.25568,0.25568 0.82907,-0.25568 1.08475,0 0.25568,0.25568 0,0.72316 0,1.08475 0,0.36158 0,0.72316 0,1.08474 0,0.95734 0.22583,3.88733 0,4.33898 -2.25723,4.51446 0.0749,-1.15963 -2.16949,1.08475 -0.25568,0.25568 0.25568,0.82907 0,1.08475 -0.51136,0.51135 -1.52268,-0.32341 -2.16949,0 -0.45737,0.22868 -0.62738,0.85606 -1.08475,1.08474 -0.32341,0.16171 -0.72316,0 -1.08475,0 -0.36158,0 -0.72316,0 -1.08474,0 -1.80791,0 -3.61582,0 -5.42373,0 -0.36158,0 -0.76134,-0.1617 -1.08475,0 -0.45736,0.22869 -0.59963,0.92304 -1.08474,1.08475 -0.84805,0.28268 -5.91154,-0.29847 -6.50848,0 -0.45736,0.22868 -0.62737,0.85606 -1.08474,1.08474 -0.32341,0.16171 -0.72317,0 -1.08475,0 -0.72316,0 -1.44632,0 -2.16949,0 -1.80791,0 -3.61582,0 -5.42373,0 -5.42373,0 -10.84746,0 -16.27118,0 -2.1695,0 -4.33899,0 -6.50848,0 -0.71279,0 -2.64222,-0.204 -3.25424,0 -0.76703,0.25568 -1.40246,0.82907 -2.16949,1.08475 -1.02908,0.34303 -2.20188,-0.26309 -3.25423,0 -0.78439,0.19609 -1.38511,0.88865 -2.1695,1.08475 -0.70157,0.17539 -1.46792,-0.1754 -2.16949,0 -0.78438,0.19609 -1.37667,0.92618 -2.16949,1.08474 -1.06368,0.21274 -2.19056,-0.21274 -3.25424,0 -0.79282,0.15857 -1.38511,0.88865 -2.16949,1.08475 -0.70157,0.17539 -1.46792,-0.1754 -2.16949,0 -0.78438,0.19609 -1.38511,0.88865 -2.16949,1.08474 -0.70157,0.1754 -1.46792,-0.17539 -2.16949,0 -0.78438,0.1961 -1.38511,0.88865 -2.16949,1.08475 -0.70158,0.17539 -1.48344,-0.22869 -2.1695,0 -0.48511,0.1617 -0.62737,0.85606 -1.08474,1.08474 -0.32341,0.16171 -0.76134,-0.1617 -1.08475,0 -0.45737,0.22869 -0.62737,0.85607 -1.08474,1.08475 -0.64682,0.32341 -1.65814,-0.51135 -2.16949,0 -0.25568,0.25568 0.25567,0.82907 0,1.08475 -0.51136,0.51135 -1.65814,-0.51136 -2.1695,0 -0.25567,0.25567 0.25568,0.82906 0,1.08474 -0.51135,0.51136 -1.52267,-0.32341 -2.16949,0 -0.45737,0.22869 -0.62737,0.85606 -1.08474,1.08475 -0.64682,0.32341 -1.52268,-0.32341 -2.16949,0 -0.91474,0.45737 -1.25476,1.71212 -2.1695,2.16949 -0.32341,0.1617 -0.74172,-0.11434 -1.08474,0 -0.76703,0.25568 -1.40246,0.82907 -2.16949,1.08474 -0.34303,0.11435 -0.76134,-0.1617 -1.08475,0 -0.45737,0.22869 -0.59963,0.92305 -1.08475,1.08475 -0.68605,0.22868 -1.48343,-0.22868 -2.16949,0 -0.48511,0.1617 -0.65927,0.8011 -1.08474,1.08475 0.12353,2.05497 -2.53108,0.72316 -3.25424,1.08474 -0.45737,0.22869 -0.62738,0.85606 -1.08475,1.08475 -0.3234,0.1617 -0.76133,-0.16171 -1.08474,0 -0.45737,0.22868 -0.62738,0.85606 -1.08475,1.08474 -0.32341,0.16171 -0.82907,-0.25567 -1.08474,0 -0.25568,0.25568 0.25567,0.82907 0,1.08475 -0.51136,0.51135 -1.65814,-0.51136 -2.16949,0 -0.25568,0.25568 0.25567,0.82907 0,1.08474 -0.51136,0.51136 -1.65814,-0.51135 -2.1695,0 -0.25567,0.25568 0.25568,0.82907 0,1.08475 -0.25567,0.25568 -0.72316,0 -1.08474,0 -0.51146,0 -5.37457,-0.0492 -5.42373,0 -0.25568,0.25568 0.25568,0.82907 0,1.08475 -0.25568,0.25567 -0.82907,-0.25568 -1.08475,0 -0.25567,0.25567 0.25568,0.82907 0,1.08474 -0.16833,0.16834 -2.83213,-0.1407 -3.25423,0 -0.76703,0.25568 -1.40246,0.82907 -2.1695,1.08475 -0.34302,0.11434 -0.74171,-0.11434 -1.08474,0 -0.76703,0.25567 -1.40246,0.82907 -2.16949,1.08474 -0.68606,0.22869 -1.48344,-0.22868 -2.16949,0 -0.76704,0.25568 -1.40246,0.82907 -2.1695,1.08475 -1.02908,0.34303 -2.20187,-0.26309 -3.25423,0 -0.78438,0.19609 -1.40246,0.82907 -2.16949,1.08475 -0.70283,0.23427 -4.53565,0 -5.42373,0 -0.48853,0 -2.92412,0.16506 -3.25424,0 -0.45737,-0.22869 -0.62738,-0.85607 -1.08475,-1.08475 -0.86779,-0.4339 -2.38644,0.4339 -3.25423,0 -0.45737,-0.22869 -0.62738,-0.85606 -1.08475,-1.08475 -0.8678,-0.43389 -2.38644,0.4339 -3.25424,0 -0.45737,-0.22868 -0.59963,-0.92304 -1.08474,-1.08474 -0.68606,-0.22869 -1.44633,0 -2.16949,0 -2.1695,0 -4.33899,0 -6.50848,0 -0.72316,0 -1.46792,0.17539 -2.16949,0 -0.78438,-0.1961 -1.38511,-0.88865 -2.16949,-1.08475 -0.70157,-0.17539 -1.44633,0 -2.16949,0 -0.72317,0 -1.44633,0 -2.16949,0 -3.25424,0 -6.50848,0 -9.76272,0 -0.36158,0 -0.72316,0 -1.08474,0 -0.36158,0 -0.82907,-0.25567 -1.08475,0 -0.25567,0.25568 0.25568,0.82907 0,1.08475 -0.26102,0.26102 -4.07796,-0.26103 -4.33898,0 -0.25568,0.25567 0.25568,0.82907 0,1.08474 -0.25568,0.25568 -0.76134,-0.1617 -1.08475,0 -0.45737,0.22869 -0.62737,0.85606 -1.08474,1.08475 -0.32341,0.1617 -0.74172,-0.11434 -1.08475,0 -0.76703,0.25568 -1.40246,0.82907 -2.16949,1.08475 -0.34303,0.11434 -0.76134,-0.16171 -1.08475,0 -3.1922,1.59609 1.68384,1.08474 -3.25423,1.08474 -2.60736,0 0.45737,-0.11434 -4.33899,1.08475 -0.35078,0.0877 -0.72316,0 -1.08474,0 -1.08475,0 -2.16949,0 -3.25424,0 -1.80791,0 -3.61582,0 -5.42373,0 -2.89265,0 -5.78531,0 -8.67796,0 -0.72317,0 -1.44633,0 -2.1695,0 -0.72316,0 -1.48343,0.22868 -2.16949,0 -0.48511,-0.16171 -0.59963,-0.92304 -1.08474,-1.08475 -1.86268,-0.62089 -2.23667,0.95039 -3.25424,-1.08474 -0.32341,-0.64682 0.51135,-1.65814 0,-2.1695 -0.25568,-0.25567 -0.82907,0.25568 -1.08475,0 -0.51135,-0.51135 0.51136,-1.65813 0,-2.16949 -0.25567,-0.25567 -0.82906,0.25568 -1.08474,0 -0.0349,-0.0349 0,-2.99116 0,-3.25424 0,-0.36158 -0.25568,-0.82906 0,-1.08474 0.25568,-0.25568 0.82907,0.25568 1.08474,0 0.51136,-0.51136 -0.51135,-1.65814 0,-2.16949 0.25568,-0.25568 0.82907,0.25567 1.08475,0 0.25568,-0.25568 -0.1617,-0.76134 0,-1.08475 0.22868,-0.45737 0.85606,-0.62738 1.08475,-1.08474 0.3234,-0.64682 -0.51136,-1.65814 0,-2.1695 0.25567,-0.25567 0.82906,0.25568 1.08474,0 0.51136,-0.51135 -0.51135,-1.65813 0,-2.16949 0.25568,-0.25567 0.82907,0.25568 1.08475,0 0.25567,-0.25567 -0.25568,-0.82907 0,-1.08474 0.25567,-0.25568 0.82907,0.25567 1.08474,0 0.38077,-0.38077 -0.37463,-4.67446 0,-5.42373 0.22869,-0.45737 0.85606,-0.62738 1.08475,-1.08475 0.1617,-0.32341 -0.25568,-0.82907 0,-1.08474 0.25568,-0.25568 0.82907,0.25567 1.08474,0 0.25568,-0.25568 -0.1617,-0.76134 0,-1.08475 0.22869,-0.45737 0.85607,-0.62738 1.08475,-1.08474 0.32341,-0.64682 -0.51135,-1.65814 0,-2.1695 0.25568,-0.25567 0.82907,0.25568 1.08475,0 0.54237,-0.54237 -0.54238,-2.71186 0,-3.25423 0.25567,-0.25568 0.82906,0.25567 1.08474,0 0.51136,-0.51136 -0.26857,-1.49805 0,-2.1695 0.60056,-1.50138 1.44633,-2.89265 2.16949,-4.33898 z"
       style="fill:#ffb380;fill-opacity:1;stroke:#000000;stroke-width:1px;stroke-linecap:butt;stroke-linejoin:miter;stroke-opacity:1" />
    <path
       sodipodi:nodetypes="ccscscsscccccccscscccsccccsccsccccccsccscccccssssccccccccccccsccsccccccsccscscccsccsscccscccsccsccccscsccccsscccscssccsscccccccccccsccsccssccccccccssccssssscscscsscccccssssccccccccccsssccccccccccscscscscccccccsccccccccsccsccsscccscccccccsccccccsccscscsccscscccccsccccccscscccccsccccssccssccsscccccccsccsscccscccsssccscc"
       inkscape:connector-curvature="0"
       id="path903"
       d="m 129.08475,342.77966 c 1.44632,0.72316 2.83759,1.56894 4.33898,2.16949 0.33572,0.13429 0.72316,0 1.08474,0 h 2.1695 5.42372 c 0.26308,0 3.21936,0.0349 3.25424,0 0.51136,-0.51135 -0.51135,-1.65814 0,-2.16949 0.25568,-0.25568 0.82907,0.25568 1.08475,0 0.51135,-0.51135 -0.51136,-1.65814 0,-2.16949 0.25568,-0.25568 0.76134,0.1617 1.08474,0 0.45737,-0.22869 0.62738,-0.85606 1.08475,-1.08475 0.32341,-0.1617 0.92304,0.32341 1.08475,0 0.3234,-0.64681 -0.32341,-1.52267 0,-2.16949 0.1617,-0.32341 0.76133,0.16171 1.08474,0 0.45737,-0.22868 0.62738,-0.85606 1.08475,-1.08474 0.32341,-0.16171 0.82907,0.25567 1.08474,0 0.25568,-0.25568 -0.25567,-0.82907 0,-1.08475 0.25568,-0.25568 0.82907,0.25568 1.08475,0 0.25568,-0.25568 -0.16171,-0.76134 0,-1.08475 0.22868,-0.45736 0.85606,-0.62737 1.08474,-1.08474 0.16171,-0.32341 -0.25567,-0.82907 0,-1.08475 0.25568,-0.25567 0.82907,0.25568 1.08475,0 0.57171,-0.57171 0.51303,-1.59778 1.08475,-2.16949 0.25567,-0.25568 0.76133,0.16171 1.08474,0 0.45737,-0.22868 0.62738,-0.85606 1.08475,-1.08474 0.64681,-0.32341 1.65813,0.51135 2.16949,0 0.25568,-0.25568 -0.25568,-0.82907 0,-1.08475 0.25568,-0.25568 0.82907,0.25568 1.08474,0 0.25568,-0.25568 -0.25567,-0.82907 0,-1.08475 0.0492,-0.0492 4.91228,0 5.42373,0 0.36159,0 0.82907,0.25568 1.08475,0 0.25568,-0.25567 -0.25568,-0.82906 0,-1.08474 0.51135,-0.51136 1.65814,0.51135 2.16949,0 0.51135,-0.51136 -0.32341,-1.52268 0,-2.16949 0.22869,-0.45737 0.85606,-0.62738 1.08475,-1.08475 0.1617,-0.32341 -0.25568,-0.82907 0,-1.08474 0.25567,-0.25568 0.82907,0.25567 1.08474,0 0.25568,-0.25568 -0.25567,-0.82907 0,-1.08475 0.79805,-0.79805 1.95768,0.87294 2.16949,1.08475 2.54393,2.54392 -0.76703,-0.25568 3.25424,1.08474 0.97023,0.32341 1.25475,1.71212 2.16949,2.16949 0.32341,0.16171 0.82907,-0.25567 1.08475,0 0.57171,0.57171 0.41201,1.72101 1.08474,2.16949 0.60171,0.40114 1.48344,-0.22868 2.1695,0 0.48511,0.16171 0.65927,0.8011 1.08474,1.08475 1.79718,1.19812 2.46367,1.08475 4.33898,1.08475 h 3.25424 c 0.36158,0 1.08475,-0.36159 1.08475,0 0,0.36158 -1.08475,-0.36159 -1.08475,0 0,0.51135 0.62738,0.85606 1.08475,1.08474 0.12107,0.0605 5.30265,0.0605 5.42373,0 4.51445,-2.25722 -1.15964,0.0749 1.08474,-2.16949 0.25568,-0.25568 0.76134,0.1617 1.08475,0 4.51445,-2.25723 -1.15963,0.0749 1.08474,-2.16949 0.001,-10e-4 3.24932,0.002 3.25424,0 0.48511,-0.16171 0.59963,-0.92304 1.08475,-1.08475 0.68605,-0.22868 1.48343,0.22869 2.16949,0 0.48511,-0.1617 0.59963,-0.92304 1.08474,-1.08474 1.37211,-0.45737 2.93584,0.35078 4.33899,0 1.56876,-0.39219 2.77022,-1.7773 4.33898,-2.16949 0.70157,-0.1754 1.44633,0 2.16949,0 0.72317,-0.36159 1.40246,-0.82907 2.16949,-1.08475 1.02908,-0.34303 2.20188,0.26309 3.25424,0 1.96333,0.65381 2.01744,-1.75722 3.25424,-2.16949 0.68605,-0.22869 1.44633,0 2.16949,0 0.36158,0 0.76134,0.1617 1.08474,0 0.45737,-0.22869 0.62738,-0.85606 1.08475,-1.08475 0.32341,-0.1617 0.76134,0.16171 1.08475,0 0.45737,-0.22868 0.62737,-0.85606 1.08474,-1.08474 0.58846,-0.29423 4.04217,0.29681 4.33899,0 0.25567,-0.25568 -0.25568,-0.82907 0,-1.08475 0.25567,-0.25568 0.82906,0.25568 1.08474,0 0.25568,-0.25568 -0.25568,-0.82907 0,-1.08474 0.22176,-0.22177 2.82415,0.21504 3.25424,0 0.45737,-0.22869 0.62738,-0.85607 1.08474,-1.08475 0.64682,-0.32341 1.48344,0.22868 2.1695,0 6.14582,-3.07291 -1.61705,0.40426 4.33898,-1.08475 1.56876,-0.39219 2.77022,-1.7773 4.33898,-2.16949 1.75393,-0.43848 3.65093,0.35456 5.42373,0 0.79282,-0.15856 1.38511,-0.88865 2.16949,-1.08474 0.70157,-0.1754 1.44633,0 2.16949,0 h 3.25424 6.50848 1.08474 c 0.36158,0 0.82907,-0.25568 1.08475,0 0.54237,0.54237 -0.54238,2.71186 0,3.25423 0.22176,0.22177 2.82414,-0.21504 3.25423,0 4.51446,2.25723 -1.15963,-0.0749 1.08475,2.1695 0.25568,0.25567 0.72316,0 1.08475,0 0.75448,0 5.03144,0.19614 5.42372,0 0.45737,-0.22869 0.65928,-0.8011 1.08475,-1.08475 0.67273,-0.44849 1.59778,-0.51303 2.16949,-1.08475 0.25568,-0.25567 -0.25568,-0.82906 0,-1.08474 0.25568,-0.25568 0.92304,0.32341 1.08475,0 0.32341,-0.64682 -0.32341,-1.52268 0,-2.16949 0.1617,-0.32341 0.82907,0.25567 1.08474,0 0.25568,-0.25568 -0.25567,-0.82907 0,-1.08475 0.25568,-0.25568 0.92304,0.32341 1.08475,0 0.32341,-0.64682 -0.32341,-1.52267 0,-2.16949 0.1617,-0.32341 0.82907,0.25568 1.08474,0 0.51136,-0.51135 -0.51135,-1.65814 0,-2.16949 0.25568,-0.25568 0.82907,0.25567 1.08475,0 0.25568,-0.25568 -0.25568,-0.82907 0,-1.08475 0.25568,-0.25568 0.82907,0.25568 1.08475,0 0.25567,-0.25568 -0.25568,-0.82907 0,-1.08474 0.51135,-0.51136 1.52267,0.3234 2.16949,0 0.91474,-0.45737 1.25475,-1.71213 2.16949,-2.1695 0.32341,-0.1617 0.82907,0.25568 1.08475,0 0.25567,-0.25567 -0.25568,-0.82906 0,-1.08474 0.22176,-0.22176 2.82414,0.21505 3.25423,0 3.59765,-3.59765 -1.02271,0.51135 2.16949,-1.08475 0.45737,-0.22868 0.62738,-0.85606 1.08475,-1.08474 0.58846,-0.29423 4.04217,0.29681 4.33898,0 0.25568,-0.25568 -0.25567,-0.82907 0,-1.08475 0.25568,-0.25568 0.82907,-0.25568 1.08475,0 0.25568,0.25568 -0.25568,0.82907 0,1.08475 0.51135,0.51135 1.52267,-0.32341 2.16949,0 0.45737,0.22868 0.59963,0.92304 1.08475,1.08474 0.59988,0.19996 5.41607,0 6.50847,0 0.36158,0 0.82907,0.25568 1.08475,0 0.25567,-0.25567 -0.25568,-0.82907 0,-1.08474 0.51135,-0.51136 1.65813,0.51135 2.16949,0 0.51135,-0.51136 -0.51136,-1.65814 0,-2.16949 0.54237,-0.54238 2.71186,0.54237 3.25424,0 2.24437,-2.24438 -3.42971,0.0877 1.08474,-2.1695 0.64682,-0.3234 1.52267,0.32341 2.16949,0 0.45737,-0.22868 0.62738,-0.85606 1.08475,-1.08474 0.32341,-0.16171 0.76134,0.1617 1.08474,0 0.45737,-0.22869 0.62738,-0.85606 1.08475,-1.08475 0.32341,-0.1617 0.76134,0.16171 1.08475,0 4.96445,-2.48222 -4.60303,0.4496 3.25423,-2.16949 0.34303,-0.11434 0.72317,0 1.08475,0 0.90835,0 4.59881,0.20623 5.42373,0 0.78438,-0.19609 1.40246,-0.82907 2.16949,-1.08474 0.68274,-0.22758 4.44598,0 5.42373,0 0.75448,0 5.03145,0.19614 5.42373,0 0.45737,-0.22869 0.62737,-0.85607 1.08474,-1.08475 0.4301,-0.21505 3.03248,0.22176 3.25424,0 0.25568,-0.25568 -0.36158,-1.08475 0,-1.08475 0.36158,0 -0.1617,0.76134 0,1.08475 0.22868,0.45737 0.85606,0.62738 1.08475,1.08475 0.1617,0.3234 -0.25568,0.82906 0,1.08474 0.25567,0.25568 0.76133,-0.1617 1.08474,0 0.45737,0.22869 0.72316,0.72317 1.08475,1.08475 0.36158,0.36158 0.85606,0.62737 1.08474,1.08474 0.16171,0.32341 -0.25567,0.82907 0,1.08475 0.25568,0.25568 8.67796,-2.1695 1.08475,0 0,2.89265 6.14689,-3.61582 7.59321,-2.1695 0.0492,0.0492 -6.50847,8.16652 -6.50847,8.67797 0,0.26308 -0.0349,3.21936 0,3.25424 0.51136,0.51135 1.65814,-0.51135 2.1695,0 0.25567,0.25568 0,0.72316 0,1.08475 0,0.36158 0.36158,1.08474 0,1.08474 -0.36159,0 0,-1.44633 0,-1.08474 v 2.16949 c 0,0.36158 0.25567,0.82907 0,1.08474 -0.25568,0.25568 -0.82907,-0.25567 -1.08475,0 -0.51135,0.51136 0.51135,1.65814 0,2.16949 -0.25568,0.25568 1.34043,-2.42516 1.08475,-2.16949 -0.25567,0.25568 -2.1695,2.89266 -2.1695,3.25424 v 1.08475 7.59322 c 0,0.36158 -0.25567,0.82907 0,1.08474 0.25568,0.25568 0.82907,-0.25567 1.08475,0 0.38077,0.38077 -0.37464,4.67446 0,5.42373 0.22868,0.45737 0.85606,0.62738 1.08475,1.08475 0.21504,0.43009 -0.22177,3.03247 0,3.25423 0.25567,0.25568 0.82906,-0.25567 1.08474,0 0.25568,0.25568 0,0.72317 0,1.08475 v 1.08475 c 0,0.36158 0.36158,1.08474 0,1.08474 -0.36158,0 0,-1.44633 0,-1.08474 0,0.72316 0.32341,1.52267 0,2.16949 -0.1617,0.32341 -0.82907,-0.25568 -1.08474,0 -0.51136,0.51135 0.51135,1.65814 0,2.16949 -0.51136,0.51135 -1.65814,-0.51135 -2.1695,0 -0.25567,0.25568 0.25568,0.82907 0,1.08474 -0.51135,0.51136 -1.65813,-0.51135 -2.16949,0 -0.25567,0.25568 0.25568,0.82907 0,1.08475 -0.25567,0.25568 -0.76133,-0.1617 -1.08474,0 -0.45737,0.22869 -0.62738,0.85606 -1.08475,1.08475 -0.32341,0.1617 -0.82907,-0.25568 -1.08474,0 -0.25568,0.25567 0.25567,0.82907 0,1.08474 -0.0437,0.0437 -3.94063,0 -4.33899,0 -2.89265,0 0.36158,0.36158 -1.08474,-1.08474 -0.22177,-0.22177 -2.82415,0.21504 -3.25424,0 -0.45737,-0.22869 -0.62738,-0.85606 -1.08475,-1.08475 -0.64681,-0.32341 -1.52267,0.32341 -2.16949,0 -0.45737,-0.22868 -0.62737,-0.85606 -1.08474,-1.08475 -0.64682,-0.3234 -1.48344,0.22869 -2.1695,0 -0.76703,-0.25567 -1.40246,-0.82906 -2.16949,-1.08474 -0.68605,-0.22869 -1.48344,0.22868 -2.16949,0 -0.76703,-0.25568 -1.40246,-0.82907 -2.16949,-1.08475 -0.34303,-0.11434 -0.76134,0.16171 -1.08475,0 -0.45736,-0.22868 -0.59963,-0.92304 -1.08474,-1.08474 -1.02908,-0.34303 -2.16949,0 -3.25424,0 h -5.42373 -7.59322 c -0.36158,0 -0.82907,-0.25568 -1.08474,0 -0.25568,0.25567 0.25567,0.82907 0,1.08474 -0.25568,0.25568 -0.82907,-0.25567 -1.08475,0 -0.25568,0.25568 0.25568,0.82907 0,1.08475 -0.25568,0.25568 -0.82907,-0.25568 -1.08475,0 -0.25567,0.25568 0.25568,0.82907 0,1.08474 -0.25567,0.25568 -0.76133,-0.1617 -1.08474,0 -0.45737,0.22869 -0.62738,0.85607 -1.08475,1.08475 -0.32341,0.1617 -0.82907,-0.25568 -1.08474,0 -2.24438,2.24438 3.4297,-0.0877 -1.08475,2.16949 -0.32341,0.16171 -0.82907,-0.25567 -1.08474,0 -0.57172,0.57171 -0.51304,1.59778 -1.08475,2.16949 -0.25568,0.25568 -0.76134,-0.1617 -1.08475,0 -1.06742,0.53371 -3.27156,3.80528 -4.33898,4.33899 -0.32341,0.1617 -0.74172,-0.11435 -1.08474,0 -7.85727,2.61909 1.71021,-0.31274 -3.25424,2.16949 -0.32341,0.1617 -0.74172,-0.11434 -1.08475,0 -0.76703,0.25568 -1.40246,0.82907 -2.16949,1.08474 -1.02908,0.34303 -2.22516,-0.34302 -3.25424,0 -0.48511,0.16171 -0.59963,0.92305 -1.08474,1.08475 -0.61707,0.20569 -4.40208,0 -5.42373,0 -0.48852,0 -2.92411,0.16506 -3.25424,0 -0.45737,-0.22868 -0.62737,-0.85606 -1.08474,-1.08475 -0.32341,-0.1617 -0.72317,0 -1.08475,0 -0.45631,0 -6.18579,0.16135 -6.50847,0 -0.45737,-0.22868 -0.62738,-0.85606 -1.08475,-1.08474 -0.28522,-0.14261 -3.77175,0 -4.33898,0 -0.36158,0 -0.82907,-0.25568 -1.08475,0 -0.25568,0.25568 0.16171,0.76134 0,1.08474 -0.22868,0.45737 -0.72316,0.72317 -1.08474,1.08475 -0.36159,0.36158 -0.62738,0.85606 -1.08475,1.08475 -0.32341,0.1617 -0.82907,-0.25568 -1.08475,0 -0.25567,0.25567 0.16171,0.76133 0,1.08474 -2.25722,4.51445 0.0749,-1.15963 -2.16949,1.08475 -0.25567,0.25567 0.25568,0.82907 0,1.08474 -0.51135,0.51136 -1.52267,-0.32341 -2.16949,0 -0.45737,0.22869 -0.72316,0.72317 -1.08474,1.08475 -0.72317,0 -1.48344,-0.22869 -2.1695,0 -0.48511,0.1617 -0.62737,0.85606 -1.08474,1.08474 -0.32341,0.16171 -0.72317,0 -1.08475,0 -0.72316,0 -1.48344,-0.22868 -2.16949,0 -0.48511,0.16171 -0.62738,0.85607 -1.08475,1.08475 -0.64681,0.32341 -1.48343,-0.22868 -2.16949,0 -0.76703,0.25568 -1.38511,0.88865 -2.16949,1.08475 -1.05236,0.26309 -2.22516,-0.34303 -3.25424,0 -0.76703,0.25567 -1.38511,0.88865 -2.16949,1.08474 -0.70157,0.17539 -1.44632,0 -2.16949,0 -1.12805,0 -5.65519,-0.21332 -6.50847,0 -0.78438,0.1961 -1.37667,0.92618 -2.16949,1.08475 -1.77281,0.35456 -3.61582,0 -5.42373,0 -0.72317,0 -1.46792,-0.1754 -2.1695,0 -0.78438,0.19609 -1.36096,1.08474 -2.16949,1.08474 -0.51135,0 -0.59963,-0.92304 -1.08474,-1.08474 -1.02908,-0.34303 -2.16949,0 -3.25424,0 -0.36158,0 -0.76134,-0.16171 -1.08475,0 -0.45736,0.22868 -0.62737,0.85606 -1.08474,1.08474 -0.58846,0.29423 -4.04217,-0.29681 -4.33898,0 -0.25568,0.25568 0.25567,0.82907 0,1.08475 -0.25568,0.25568 -0.82907,-0.25568 -1.08475,0 -2.24438,2.24438 3.42971,-0.0877 -1.08475,2.16949 -0.3234,0.1617 -0.76133,-0.1617 -1.08474,0 -0.45737,0.22868 -0.62738,0.85606 -1.08475,1.08475 -0.32341,0.1617 -0.92304,-0.32341 -1.08474,0 -0.32341,0.64681 0.32341,1.52267 0,2.16949 -0.16171,0.32341 -0.74172,-0.11434 -1.08475,0 -0.76703,0.25567 -1.44633,0.72316 -2.16949,1.08474 -0.72316,0.36159 -1.49676,0.63626 -2.16949,1.08475 -0.42547,0.28365 -0.65928,0.8011 -1.08475,1.08475 -2.53331,1.68887 -6.14465,2.6501 -8.67796,4.33898 -0.42548,0.28365 -0.59964,0.92304 -1.08475,1.08474 -4.93807,0 -0.062,-0.51135 -3.25424,1.08475 -0.64681,0.32341 -1.52267,-0.32341 -2.16949,0 -4.51445,2.25723 1.15963,-0.0749 -1.08474,2.16949 -0.25568,0.25568 -0.82907,0.25568 -1.08475,0 -0.25568,-0.25568 0.25568,-0.82907 0,-1.08474 -0.54237,-0.54238 -2.71186,0.54237 -3.25424,0 -0.25567,-0.25568 0.32341,-0.92305 0,-1.08475 -0.64681,-0.32341 -1.48344,0.22868 -2.16949,0 -0.48511,-0.1617 -0.62738,-0.85606 -1.08474,-1.08475 -0.32341,-0.1617 -0.72317,0 -1.08475,0 -0.72316,0 -1.48344,0.22869 -2.16949,0 -0.48511,-0.1617 -0.62738,-0.85606 -1.08475,-1.08474 -0.32341,-0.16171 -0.74172,0.11434 -1.08474,0 -0.76703,-0.25568 -1.40246,-0.82907 -2.16949,-1.08475 -0.68606,-0.22868 -1.44633,0 -2.1695,0 h -5.42373 c -0.76887,0 -6.22801,-0.14023 -6.50847,0 -0.45737,0.22869 -0.62738,0.85606 -1.08475,1.08475 -0.43009,0.21504 -3.03247,-0.22176 -3.25423,0 -0.25568,0.25568 0.25567,0.82907 0,1.08474 -0.29681,0.29681 -3.75052,-0.29423 -4.33899,0 -0.45736,0.22869 -0.62737,0.85607 -1.08474,1.08475 -0.28523,0.14261 -3.77175,0 -4.33898,0 h -9.76272 c -0.39835,0 -4.29533,0.0436 -4.33898,0 -0.51135,-0.51135 0.32341,-1.52267 0,-2.16949 -1.19922,-2.39843 -0.67324,-0.33662 -2.16949,-1.08475 -4.51445,-2.25722 1.15963,0.0749 -1.08475,-2.16949 -0.25567,-0.25568 -0.82907,0.25568 -1.08474,0 -0.54238,-0.54237 0.54237,-2.71186 0,-3.25424 -0.25568,-0.25567 -0.82907,0.25568 -1.08475,0 -0.25568,-0.25567 0,-0.72316 0,-1.08474 0,-0.51146 -0.0492,-5.37457 0,-5.42373 0.25568,-0.25568 0.82907,0.25568 1.08475,0 0.25567,-0.25568 0,-0.72316 0,-1.08475 0,-0.36158 0.25567,-0.82907 0,-1.08474 -0.25568,-0.25568 -0.82907,0.25567 -1.08475,0 -0.51135,-0.51136 0.32341,-1.52268 0,-2.16949 -0.22868,-0.45737 -0.85606,-0.62738 -1.08474,-1.08475 -0.16171,-0.32341 0,-0.72316 0,-1.08475 0,-0.36158 -0.16171,-0.76133 0,-1.08474 2.25722,-4.51445 -0.0749,1.15963 2.16949,-1.08475 0.25567,-0.25567 -0.25568,-0.82907 0,-1.08474 0.25567,-0.25568 0.82907,0.25567 1.08474,0 0.25568,-0.25568 0,-0.72317 0,-1.08475 v -1.08474 c 0,-0.36159 0.25568,-0.82907 0,-1.08475 -0.25567,-0.25568 -0.82907,0.25568 -1.08474,0 -0.25568,-0.25568 -0.36158,-1.08475 0,-1.08475 0.36158,0 0.1617,1.40816 0,1.08475 -0.87081,-1.74161 -1.44633,-3.61582 -2.16949,-5.42373 z"
       style="fill:#deaa87;stroke:#000000;stroke-width:1px;stroke-linecap:butt;stroke-linejoin:miter;stroke-opacity:1" />
    <path
       inkscape:connector-curvature="0"
       id="path905"
       d="m 122.57627,256 c 0,2.16949 0,4.33898 0,6.50847 0,0.36159 -0.25568,0.82907 0,1.08475 0.48211,0.48211 2.04897,-0.84369 1.08475,1.08475 -2.25723,4.51445 0.0749,-1.15964 -2.16949,1.08474 -0.25568,0.25568 0.25567,0.82907 0,1.08475 -0.25568,0.25567 -0.82907,-0.25568 -1.08475,0 -0.10847,0.10847 -0.10847,3.14576 0,3.25423 0.25568,0.25568 0.72316,0 1.08475,0 0.36158,0 0.72316,0 1.08474,0 0.48852,0 2.92411,0.16507 3.25424,0 0.45737,-0.22868 0.72316,-0.72316 1.08474,-1.08474 0.36159,-0.36158 0.72317,-0.72316 1.08475,-1.08475 0.81474,-0.81474 2.16949,-2.39981 2.16949,-1.08474 0,0.36158 -1.44633,0 -1.08474,0 1.44632,0 2.89265,0 4.33898,0 4.33898,0 8.67796,0 13.01695,0 0.75448,0 5.03145,0.19614 5.42373,0 0.45737,-0.22869 0.62737,-0.85606 1.08474,-1.08475 0.32341,-0.1617 0.82907,0.25568 1.08475,0 1.44633,-1.44633 -1.80791,-1.08474 1.08474,-1.08474 0.36159,0 0.82907,0.25567 1.08475,0 0.25568,-0.25568 -0.25568,-0.82907 0,-1.08475 0.25568,-0.25568 0.72316,0 1.08475,0 0.36158,0 0.82906,-0.25568 1.08474,0 0.72727,0.72727 -0.72727,1.44222 0,2.16949 0.51136,0.51136 1.65814,-0.51135 2.16949,0 0.25568,0.25568 -0.32341,0.92304 0,1.08475 0.64682,0.32341 1.46792,-0.1754 2.16949,0 0.78439,0.19609 1.40246,0.82907 2.1695,1.08474 1.02908,0.34303 2.20188,-0.26309 3.25423,0 0.78438,0.1961 1.38511,0.88865 2.16949,1.08475 0.82492,0.20623 4.51538,0 5.42373,0 0.36159,0 0.72317,0 1.08475,0 0.36158,0 0.76134,0.1617 1.08475,0 0.45736,-0.22869 0.62737,-0.85606 1.08474,-1.08475 0.32341,-0.1617 0.76134,0.16171 1.08475,0 0.91473,-0.45737 1.25475,-1.71212 2.16949,-2.16949 0.64682,-0.32341 1.65814,0.51136 2.16949,0 0.25568,-0.25568 -0.25568,-0.82907 0,-1.08474 0.51135,-0.51136 1.65814,0.51135 2.16949,0 0.25568,-0.25568 -0.25568,-0.82907 0,-1.08475 0.25568,-0.25568 0.72317,0 1.08475,0 1.02165,0 4.80665,0.20569 5.42373,0 0.48511,-0.1617 0.59963,-0.92304 1.08474,-1.08475 0.68606,-0.22868 1.46792,0.1754 2.16949,0 5.03599,-2.51799 -0.62437,-0.0921 4.33899,-1.08474 1.12121,-0.22424 2.13302,-0.8605 3.25423,-1.08475 0.70912,-0.14182 1.46792,0.1754 2.1695,0 7.08186,-1.77046 -4.09836,-0.58247 5.42372,-2.16949 8.27514,0 -0.8557,0.48511 5.42373,-1.08474 0.70157,-0.1754 1.48344,0.22868 2.16949,0 0.48512,-0.16171 0.59964,-0.92305 1.08475,-1.08475 0.68605,-0.22868 1.44633,0 2.16949,0 0.36158,0 0.76134,0.1617 1.08475,0 0.45737,-0.22868 0.62737,-0.85606 1.08474,-1.08475 0.28046,-0.14023 5.73961,0 6.50848,0 5.06214,0 10.12429,0 15.18644,0 7.9548,0 15.9096,0 23.86441,0 1.8079,0 3.61581,0 5.42372,0 0.72317,0 1.44633,0 2.1695,0 0.36158,0 0.76133,-0.1617 1.08474,0 0.45737,0.22869 0.62738,0.85607 1.08475,1.08475 0.64681,0.32341 1.65813,-0.51135 2.16949,0 0.51135,0.51135 -0.51136,1.65814 0,2.16949 0.25568,0.25568 0.76134,-0.1617 1.08474,0 1.66138,0.83069 0.84829,1.93304 2.1695,3.25424 0.25567,0.25568 0.76133,-0.16171 1.08474,0 0.45737,0.22868 0.62738,0.85606 1.08475,1.08474 0.32341,0.16171 0.76133,-0.1617 1.08474,0 0.45737,0.22869 0.62738,0.85607 1.08475,1.08475 0.68179,0.34089 3.6572,-0.34089 4.33898,0 0.45737,0.22868 0.62738,0.85606 1.08475,1.08475 0.24312,0.12156 4.08121,0 4.33898,0 2.53107,0 5.06215,0 7.59322,0 0.26308,0 3.21935,0.0349 3.25424,0 0.25568,-0.25568 -0.25568,-0.82907 0,-1.08475 0.0437,-0.0436 3.94062,0 4.33898,0 3.49175,0 -1.85178,0.25568 2.16949,-1.08475 1.48111,-0.4937 5.02737,0.49371 6.50848,0 0.48511,-0.1617 0.62737,-0.85606 1.08474,-1.08474 0.32341,-0.16171 0.76134,0.1617 1.08475,0 0.45737,-0.22869 0.62738,-0.85606 1.08474,-1.08475 0.64682,-0.32341 1.48344,0.22869 2.1695,0 0.76703,-0.25567 1.40246,-0.82907 2.16949,-1.08474 0.34302,-0.11435 0.76133,0.1617 1.08474,0 0.45737,-0.22869 0.59964,-0.92304 1.08475,-1.08475 1.02908,-0.34303 2.22516,0.34303 3.25424,0 0.76703,-0.25568 1.40246,-0.82907 2.16949,-1.08474 0.34302,-0.11435 0.76134,0.1617 1.08474,0 0.45737,-0.22869 0.62738,-0.85607 1.08475,-1.08475 0.32341,-0.1617 0.76134,0.1617 1.08475,0 0.45736,-0.22868 0.62737,-0.85606 1.08474,-1.08475 0.32341,-0.1617 0.76134,0.16171 1.08475,0 0.45737,-0.22868 0.62737,-0.85606 1.08474,-1.08474 3.1922,-1.5961 -1.42815,2.5129 2.16949,-1.08475 0.36159,-0.36158 0.62738,-0.85606 1.08475,-1.08474 0.32341,-0.16171 0.82907,0.25567 1.08475,0 0.51135,-0.51136 -0.51136,-1.65814 0,-2.16949 0.25567,-0.25568 0.82906,0.25567 1.08474,0 0.25568,-0.25568 -0.1617,-0.76134 0,-1.08475 0.45737,-0.91474 1.71212,-1.25475 2.16949,-2.16949 0.16171,-0.32341 -0.25567,-0.82907 0,-1.08475 0.25568,-0.25567 0.82907,0.25568 1.08475,0 0.25568,-0.25567 -0.16171,-0.76133 0,-1.08474 0.144,-0.28802 2.96622,-3.11023 3.25424,-3.25424 0.3234,-0.16171 0.76133,0.1617 1.08474,0 0.45737,-0.22869 0.65928,-0.8011 1.08475,-1.08475 5.47992,-3.65328 0.0251,-0.008 3.25423,-1.08474 0.76704,-0.25568 1.49677,-0.63626 2.1695,-1.08475 0.42547,-0.28365 0.59963,-0.92304 1.08474,-1.08474 0.68606,-0.22869 1.48344,0.22868 2.16949,0 0.48512,-0.16171 0.59964,-0.92305 1.08475,-1.08475 0.68605,-0.22868 1.48344,0.22868 2.16949,0 0.48511,-0.1617 0.59963,-0.92304 1.08475,-1.08475 1.3721,-0.45736 2.96687,0.45737 4.33898,0 0.48511,-0.1617 0.62738,-0.85606 1.08475,-1.08474 0.3234,-0.16171 0.76133,0.1617 1.08474,0 0.45737,-0.22869 0.62738,-0.85606 1.08475,-1.08475 0.43009,-0.21504 3.03247,0.22176 3.25423,0 0.25568,-0.25567 -0.36158,-1.08474 0,-1.08474 0.36159,0 0.36159,1.08474 0,1.08474 -1.34042,0 -1.08474,-1.52121 -1.08474,-2.16949 0,-0.39836 -0.0437,-4.29533 0,-4.33898 0.25568,-0.25568 0.82907,0.25568 1.08474,0 0.25568,-0.25568 0,-0.72317 0,-1.08475 0,-0.39836 0.0437,-4.29533 0,-4.33898 -0.51135,-0.51135 -1.65813,0.51135 -2.16949,0 -0.25567,-0.25568 0.25568,-0.82907 0,-1.08475 -0.25567,-0.25567 -0.72316,0 -1.08474,0 -0.26308,0 -3.21935,-0.0349 -3.25424,0 -0.25568,0.25568 0.1617,0.76134 0,1.08475 -2.25723,4.51445 0.0749,-1.15963 -2.16949,1.08475 -0.25568,0.25567 0.25568,0.82906 0,1.08474 -0.25568,0.25568 -0.76134,-0.1617 -1.08475,0 -0.91474,0.45737 -1.25475,1.71212 -2.16949,2.16949 -0.39228,0.19614 -4.66924,0 -5.42373,0 -0.76887,0 -6.22801,-0.14023 -6.50847,0 -0.45737,0.22869 -0.59964,0.92304 -1.08475,1.08475 -1.15266,0.38422 -3.18632,-0.38422 -4.33898,0 -0.76703,0.25568 -1.40246,0.82907 -2.16949,1.08474 -0.34303,0.11435 -0.82907,-0.25567 -1.08475,0 -0.25568,0.25568 0.32341,0.92305 0,1.08475 -0.64682,0.32341 -1.52267,-0.32341 -2.16949,0 -0.32341,0.1617 0.1617,0.76134 0,1.08475 -2.25723,4.51445 0.0749,-1.15964 -2.16949,1.08474 -0.25568,0.25568 0.1617,0.76134 0,1.08475 -0.65085,1.30169 -2.60339,1.95254 -3.25424,3.25423 -0.1617,0.32341 0.25568,0.82907 0,1.08475 -0.25568,0.25568 -0.76134,-0.1617 -1.08474,0 -0.45737,0.22868 -0.62738,0.85606 -1.08475,1.08475 -0.32341,0.1617 -0.76134,-0.16171 -1.08475,0 -0.45737,0.22868 -0.62737,0.85606 -1.08474,1.08474 -0.32341,0.16171 -0.72317,0 -1.08475,0 -0.72316,0 -1.48344,-0.22868 -2.16949,0 -0.48511,0.16171 -0.59963,0.92304 -1.08474,1.08475 -1.02909,0.34302 -2.22516,-0.34303 -3.25424,0 -0.76703,0.25567 -1.49676,0.63626 -2.16949,1.08474 -0.42548,0.28365 -0.59964,0.92304 -1.08475,1.08475 -0.68605,0.22868 -1.44633,0 -2.16949,0 -0.36158,0 -0.76134,-0.16171 -1.08475,0 -0.45737,0.22868 -0.62737,0.85606 -1.08474,1.08474 -0.32341,0.16171 -0.76134,-0.1617 -1.08475,0 -0.45737,0.22869 -0.62738,0.85607 -1.08474,1.08475 -0.15593,0.078 -5.37446,0.0164 -5.42373,0 -0.48512,-0.1617 -0.59964,-0.92304 -1.08475,-1.08475 -1.00492,-0.33497 -4.38431,0.34648 -5.42373,0 -0.76703,-0.25567 -1.38511,-0.88865 -2.16949,-1.08474 -0.70157,-0.17539 -1.44633,0 -2.16949,0 -1.80791,0 -3.61582,0 -5.42373,0 -5.42373,0 -10.84746,0 -16.27119,0 -1.06561,0 -5.79102,0.23915 -6.50847,0 -0.76703,-0.25568 -1.38511,-0.88865 -2.16949,-1.08475 -1.06424,-0.26606 -5.88198,0.31325 -6.50848,0 -0.45737,-0.22868 -0.62737,-0.85606 -1.08474,-1.08474 -0.32341,-0.16171 -0.72317,0 -1.08475,0 -0.36158,0 -0.72316,0 -1.08474,0 -1.25563,0 -4.45529,0.24211 -5.42373,0 -0.78438,-0.1961 -1.40246,-0.82907 -2.16949,-1.08475 -0.70283,-0.23427 -4.53565,0 -5.42373,0 -3.25424,0 -6.50848,0 -9.76271,0 -1.80791,0 -3.61582,0 -5.42373,0 -0.72317,0 -1.48344,-0.22868 -2.1695,0 -0.48511,0.16171 -0.59963,0.92304 -1.08474,1.08475 -0.49656,0.16552 -4.81827,0 -5.42373,0 -0.72316,0 -1.48344,-0.22869 -2.16949,0 -0.48511,0.1617 -0.59963,0.92304 -1.08475,1.08474 -1.4811,0.49371 -5.02737,-0.4937 -6.50847,0 -0.48511,0.16171 -0.62738,0.85606 -1.08475,1.08475 -0.32341,0.1617 -0.72316,0 -1.08474,0 -0.72317,0 -1.48344,-0.22869 -2.16949,0 -0.48512,0.1617 -0.62738,0.85606 -1.08475,1.08474 -0.62272,0.31136 -4.50038,-0.23083 -5.42373,0 -1.96332,-0.6538 -2.01744,1.75723 -3.25424,2.1695 -0.68605,0.22868 -1.46792,-0.1754 -2.16949,0 -0.78438,0.19609 -1.38511,0.88865 -2.16949,1.08474 -0.70157,0.1754 -1.46792,-0.17539 -2.16949,0 -1.56876,0.39219 -2.77022,1.7773 -4.33898,2.16949 -0.70158,0.1754 -1.46792,-0.17539 -2.1695,0 -0.78438,0.1961 -1.44632,0.72317 -2.16949,1.08475 -1.08474,0.36158 -2.13302,0.8605 -3.25423,1.08475 -0.70912,0.14182 -1.48344,-0.22869 -2.1695,0 -0.48511,0.1617 -0.72316,0.72316 -1.08474,1.08474 -0.72317,0.36158 -1.38511,0.88865 -2.16949,1.08475 -0.19567,0.0489 -6.21083,0.14882 -6.50848,0 -0.45737,-0.22869 -0.62737,-0.85606 -1.08474,-1.08475 -0.64682,-0.32341 -1.52268,0.32341 -2.1695,0 -0.45736,-0.22868 -0.59963,-0.92304 -1.08474,-1.08474 -0.68605,-0.22869 -1.48344,0.22868 -2.16949,0 -0.97023,-0.32341 -1.19927,-1.84609 -2.16949,-2.1695 -0.55884,-0.18627 -6.44576,0 -7.59322,0 -0.56724,0 -4.05376,-0.14261 -4.33899,0 -0.45737,0.22869 -0.62737,0.85607 -1.08474,1.08475 -0.32341,0.1617 -0.82907,-0.25568 -1.08475,0 -0.51135,0.51135 0.51136,1.65814 0,2.16949 -0.25568,0.25568 -0.82907,-0.25568 -1.08474,0 -0.25568,0.25568 0.25567,0.82907 0,1.08475 -0.25568,0.25567 -0.82907,-0.25568 -1.08475,0 -0.51135,0.51135 0.51135,1.65813 0,2.16949 -2.89266,0 0.36158,-0.36158 -1.08475,1.08474 -0.51135,0.51136 -1.65813,-0.51135 -2.16949,0 -2.24438,2.24438 3.42971,-0.0877 -1.08474,2.1695 -0.32341,0.1617 -0.76134,-0.16171 -1.08475,0 -0.45737,0.22868 -0.62738,0.85606 -1.08475,1.08474 -0.3234,0.16171 -0.76133,-0.1617 -1.08474,0 -0.45737,0.22869 -0.62738,0.85606 -1.08475,1.08475 -0.86779,0.4339 -2.38644,-0.4339 -3.25423,0 -0.45737,0.22868 -0.62738,0.85606 -1.08475,1.08474 -1.92844,0.96422 -0.60264,-0.60263 -1.08475,-1.08474 -0.51135,-0.51136 -1.48343,0.22868 -2.16949,0 -0.76703,-0.25568 -1.40246,-0.82907 -2.16949,-1.08475 -1.02908,-0.34303 -2.22516,0.34303 -3.25424,0 -1.53406,-0.51135 -2.89265,-1.44633 -4.33898,-2.16949 z"
       style="fill:#ffccaa;stroke:#000000;stroke-width:1px;stroke-linecap:butt;stroke-linejoin:miter;stroke-opacity:1" />
    <path
       inkscape:connector-curvature="0"
       id="path907"
       d="m 178.98305,429.55932 c 3.9774,0 7.9548,0 11.9322,0 0.48853,0 2.92412,0.16506 3.25424,0 0.45737,-0.22868 0.62738,-0.85606 1.08475,-1.08474 0.32341,-0.16171 0.82907,0.25567 1.08474,0 0.25568,-0.25568 -0.25567,-0.82907 0,-1.08475 0.25568,-0.25568 0.82907,0.25568 1.08475,0 0.25568,-0.25568 -0.25568,-0.82907 0,-1.08475 0.25568,-0.25567 0.76134,0.16171 1.08474,0 0.45737,-0.22868 0.62738,-0.85606 1.08475,-1.08474 0.32341,-0.16171 0.82907,0.25568 1.08475,0 0.25567,-0.25568 -0.25568,-0.82907 0,-1.08475 2.24437,-2.24437 -0.0877,3.42971 2.16949,-1.08474 0.1617,-0.32341 -0.25568,-0.82907 0,-1.08475 0.51135,-0.51135 1.52267,0.32341 2.16949,0 0.45737,-0.22868 0.62738,-0.85606 1.08475,-1.08474 0.3234,-0.16171 0.82906,0.25567 1.08474,0 0.25568,-0.25568 -0.25568,-0.82907 0,-1.08475 0.25568,-0.25568 0.82907,0.25568 1.08475,0 0.25567,-0.25568 -0.25568,-0.82907 0,-1.08475 0.25567,-0.25567 0.82907,0.25568 1.08474,0 0.51136,-0.51135 -0.51135,-1.65813 0,-2.16949 0.25568,-0.25567 0.82907,0.25568 1.08475,0 0.51135,-0.51135 -0.51136,-1.65813 0,-2.16949 0.25568,-0.25568 0.82907,0.25568 1.08474,0 0.25568,-0.25568 -0.1617,-0.76134 0,-1.08474 2.25723,-4.51446 -0.0749,1.15963 2.1695,-1.08475 0.25567,-0.25568 -0.25568,-0.82907 0,-1.08475 0.29681,-0.29681 3.75052,0.29423 4.33898,0 0.45737,-0.22868 0.59963,-0.92304 1.08474,-1.08474 0.57738,-0.19246 7.74694,0 8.67797,0 4.33898,0 8.67797,0 13.01695,0 0.75448,0 5.03145,-0.19614 5.42373,0 0.45737,0.22868 0.62738,0.85606 1.08474,1.08474 0.32341,0.16171 0.82907,-0.25567 1.08475,0 0.25568,0.25568 -0.25568,0.82907 0,1.08475 0.32096,0.32096 3.66708,-0.33595 4.33898,0 0.45737,0.22868 0.62738,0.85606 1.08475,1.08475 0.48269,0.24134 3.84283,-0.16539 4.33898,0 0.48511,0.1617 0.62738,0.85606 1.08475,1.08474 0.32341,0.16171 0.72316,0 1.08474,0 0.36159,0 0.72317,0 1.08475,0 2.16949,0 4.33898,0 6.50847,0 0.36159,0 0.82907,0.25568 1.08475,0 0.25568,-0.25568 -0.25568,-0.82907 0,-1.08474 0.22176,-0.22177 2.82414,0.21504 3.25424,0 0.45737,-0.22869 0.62737,-0.85607 1.08474,-1.08475 0.48269,-0.24134 3.84284,0.16538 4.33899,0 0.48511,-0.1617 0.59963,-0.92304 1.08474,-1.08475 0.68605,-0.22868 1.46792,0.1754 2.16949,0 0.78438,-0.19609 1.38511,-0.88865 2.16949,-1.08474 1.40315,-0.35079 2.93584,0.35078 4.33899,0 0.78438,-0.1961 1.38511,-0.88865 2.16949,-1.08475 0.70157,-0.17539 1.46037,0.14183 2.16949,0 1.12122,-0.22424 2.13302,-0.8605 3.25424,-1.08474 1.38266,-0.27654 5.40908,0.36646 6.50847,0 0.48512,-0.16171 0.62738,-0.85606 1.08475,-1.08475 0.68178,-0.34089 3.65719,0.34089 4.33898,0 0.45737,-0.22868 0.62738,-0.85606 1.08475,-1.08474 0.64681,-0.32341 1.65813,0.51135 2.16949,0 0.25568,-0.25568 -0.25568,-0.82907 0,-1.08475 0.22176,-0.22176 2.82414,0.21505 3.25424,0 0.45736,-0.22869 0.62737,-0.85606 1.08474,-1.08475 0.32341,-0.1617 0.76134,0.16171 1.08475,0 0.45737,-0.22868 0.62737,-0.85606 1.08474,-1.08474 0.32341,-0.16171 0.76134,0.1617 1.08475,0 0.45737,-0.22869 0.62738,-0.85606 1.08474,-1.08475 0.32341,-0.1617 0.82907,0.25568 1.08475,0 0.25568,-0.25567 -0.25568,-0.82907 0,-1.08474 0.25568,-0.25568 0.82907,0.25567 1.08475,0 0.25567,-0.25568 -0.25568,-0.82907 0,-1.08475 0.25567,-0.25568 0.82906,0.25568 1.08474,0 0.25568,-0.25568 -0.25568,-0.82907 0,-1.08475 0.25568,-0.25567 0.76134,0.16171 1.08475,0 0.91474,-0.45736 1.25475,-1.71212 2.16949,-2.16949 0.32341,-0.1617 0.76134,0.16171 1.08474,0 4.51446,-2.25722 -1.15963,0.0749 1.08475,-2.16949 0.25568,-0.25568 0.76134,0.16171 1.08475,0 1.30169,-0.65085 1.95254,-2.60339 3.25423,-3.25424 0.64682,-0.3234 1.52268,0.32341 2.1695,0 0.45736,-0.22868 0.62737,-0.85606 1.08474,-1.08474 0.64682,-0.32341 1.52267,0.32341 2.16949,0 0.45737,-0.22869 0.62738,-0.85606 1.08475,-1.08475 0.12107,-0.0605 5.30265,-0.0605 5.42373,0 0.45737,0.22869 0.62737,0.85606 1.08474,1.08475 0.32341,0.1617 0.82907,-0.25568 1.08475,0 0.25568,0.25568 -0.25568,0.82907 0,1.08474 2.24438,2.24438 -0.0877,-3.4297 2.16949,1.08475 0.1617,0.32341 -0.25568,0.82907 0,1.08475 0.25568,0.25567 0.82907,-0.25568 1.08475,0 0.0437,0.0436 0,3.94062 0,4.33898 0,0.36158 0.25567,0.82907 0,1.08474 -0.25568,0.25568 -0.82907,-0.25567 -1.08475,0 -0.25568,0.25568 0,0.72317 0,1.08475 0,0.36158 -0.25568,0.82907 0,1.08475 0.25568,0.25567 0.82907,-0.25568 1.08475,0 0.15297,0.15297 0.11125,3.03172 0,3.25423 -0.22869,0.45737 -0.62738,0.85606 -1.08475,1.08475 -0.28522,0.14261 -3.77175,0 -4.33898,0 -3.9774,0 -7.95481,0 -11.93221,0 -0.25776,0 -4.09586,-0.12156 -4.33898,0 -0.45737,0.22868 -0.62738,0.85606 -1.08475,1.08475 -0.3234,0.1617 -0.72316,0 -1.08474,0 -0.36158,0 -0.72316,0 -1.08475,0 -2.16949,0 -4.33898,0 -6.50847,0 -0.36158,0 -0.72317,0 -1.08475,0 -0.36158,0 -0.76133,-0.16171 -1.08474,0 -0.45737,0.22868 -0.62738,0.85606 -1.08475,1.08474 -0.6719,0.33595 -4.01803,-0.32096 -4.33898,0 -0.25568,0.25568 0.25568,0.82907 0,1.08475 -0.51136,0.51135 -1.52268,-0.32341 -2.16949,0 -0.45737,0.22868 -0.62738,0.85606 -1.08475,1.08474 -0.39228,0.19614 -4.66924,0 -5.42373,0 -0.36158,0 -0.82907,-0.25567 -1.08474,0 -0.25568,0.25568 0.25567,0.82907 0,1.08475 -0.51136,0.51135 -1.52268,-0.32341 -2.1695,0 -0.45736,0.22868 -0.62737,0.85606 -1.08474,1.08474 -0.32341,0.16171 -0.76134,-0.1617 -1.08475,0 -0.45737,0.22869 -0.62737,0.85607 -1.08474,1.08475 -0.32341,0.1617 -0.76134,-0.1617 -1.08475,0 -0.45737,0.22868 -0.62737,0.85606 -1.08474,1.08475 -0.64682,0.3234 -1.65814,-0.51136 -2.1695,0 -2.24437,2.24437 3.42971,-0.0877 -1.08474,2.16949 -0.64682,0.32341 -1.84608,-0.64682 -2.16949,0 -0.32341,0.64681 0.32341,1.52267 0,2.16949 -0.32341,0.64682 -1.65814,-0.51136 -2.16949,0 -0.25568,0.25568 0.25567,0.82907 0,1.08474 -0.25568,0.25568 -0.76134,-0.1617 -1.08475,0 -0.45737,0.22869 -0.62738,0.85607 -1.08475,1.08475 -0.3234,0.1617 -0.76133,-0.1617 -1.08474,0 -1.3017,0.65085 -1.95254,2.60339 -3.25424,3.25424 -0.32341,0.1617 -0.82907,-0.25568 -1.08474,0 -2.24438,2.24438 3.4297,-0.0877 -1.08475,2.16949 -1.49625,0.74812 -0.97028,-1.31369 -2.16949,1.08474 -0.16171,0.32341 0.25568,0.82907 0,1.08475 -0.51136,0.51135 -1.65814,-0.51135 -2.16949,0 -0.25568,0.25568 0.25567,0.82907 0,1.08475 -0.15298,0.15297 -3.03173,0.11125 -3.25424,0 -0.45737,-0.22869 -0.62738,-0.85607 -1.08475,-1.08475 -0.32341,-0.1617 -0.72316,0 -1.08474,0 -0.72317,0 -1.48344,0.22868 -2.16949,0 -0.48512,-0.1617 -0.58866,-0.96072 -1.08475,-1.08475 -1.05236,-0.26308 -2.20188,0.26309 -3.25424,0 -0.49608,-0.12402 -0.58866,-0.96072 -1.08474,-1.08474 -1.05236,-0.26309 -2.19056,0.21274 -3.25424,0 -0.79282,-0.15857 -1.38511,-0.88865 -2.16949,-1.08475 -0.70157,-0.17539 -1.44633,0 -2.16949,0 -0.72317,-0.36158 -1.40246,-0.82907 -2.16949,-1.08474 -0.59805,-0.19935 -4.10707,0.23191 -4.33899,0 -0.25567,-0.25568 0.25568,-0.82907 0,-1.08475 -0.25567,-0.25568 -0.82907,-0.25568 -1.08474,0 -0.25568,0.25568 0.1617,0.76134 0,1.08475 -2.25723,4.51445 0.0749,-1.15963 -2.16949,1.08474 -2.24438,2.24438 3.4297,-0.0877 -1.08475,2.16949 -0.32341,0.16171 -0.72316,0 -1.08475,0 -0.72316,0 -1.48343,-0.22868 -2.16949,0 -0.48511,0.16171 -0.62737,0.85607 -1.08474,1.08475 -0.32341,0.1617 -0.74172,-0.11434 -1.08475,0 -0.76703,0.25568 -1.40246,0.82907 -2.16949,1.08475 -0.34303,0.11434 -0.72316,0 -1.08475,0 -0.72316,0 -1.44632,0 -2.16949,0 -1.80791,0 -3.61582,0 -5.42373,0 -0.36158,0 -0.82907,0.25567 -1.08474,0 -0.25568,-0.25568 0.25567,-0.82907 0,-1.08475 -0.51136,-0.51135 -1.65814,0.51135 -2.16949,0 -0.25568,-0.25568 0.25567,-0.82907 0,-1.08475 -0.001,-10e-4 -3.24933,0.002 -3.25424,0 -0.48511,-0.1617 -0.62738,-0.85606 -1.08475,-1.08474 -0.32341,-0.16171 -0.76133,0.1617 -1.08474,0 -0.45737,-0.22869 -0.62738,-0.85606 -1.08475,-1.08475 -0.33012,-0.16506 -2.76571,0 -3.25424,0 -0.36158,0 -0.72316,0 -1.08474,0 -0.36158,0 -0.82907,-0.25567 -1.08475,0 -2.24438,2.24438 3.42971,-0.0877 -1.08474,2.16949 -0.32341,0.16171 -0.82907,-0.25567 -1.08475,0 -0.25568,0.25568 0.16171,0.76134 0,1.08475 -0.22868,0.45737 -0.85606,0.62738 -1.08474,1.08475 -0.16171,0.3234 0.25567,0.82906 0,1.08474 -0.25568,0.25568 -0.76134,-0.1617 -1.08475,0 -0.45737,0.22869 -0.62738,0.85606 -1.08475,1.08475 -0.32341,0.1617 -0.82907,-0.25568 -1.08474,0 -0.25568,0.25567 0.25567,0.82907 0,1.08474 -0.51136,0.51136 -1.65814,-0.51135 -2.16949,0 -0.25568,0.25568 0.25567,0.82907 0,1.08475 -0.25568,0.25568 -0.72317,0 -1.08475,0 -0.36158,0 -0.72316,0 -1.08475,0 -2.89265,0 -5.78531,0 -8.67796,0 -0.36158,0 -0.72317,0 -1.08475,0 -0.36158,0 -0.82907,-0.25568 -1.08474,0 -0.25568,0.25568 0.25567,0.82907 0,1.08475 -0.51136,0.51135 -1.52268,-0.32341 -2.16949,0 -0.45737,0.22868 -0.85607,0.62737 -1.08475,1.08474 -0.1617,0.32341 0.36158,1.08475 0,1.08475 -0.36158,0 0.25568,-0.82907 0,-1.08475 -0.25568,-0.25568 -0.82907,0.25568 -1.08475,0 -0.25567,-0.25568 0.25568,-0.82907 0,-1.08474 -0.25567,-0.25568 -0.72316,0 -1.08474,0 -1.08475,-1.44633 -2.16949,-2.89266 -3.25424,-4.33899 z"
       style="fill:#e9c6af;stroke:#000000;stroke-width:1px;stroke-linecap:butt;stroke-linejoin:miter;stroke-opacity:1" />
  </g>
</svg>
