<?xml version="1.0" encoding="UTF-8" standalone="no"?>
<svg
   xmlns:dc="http://purl.org/dc/elements/1.1/"
   xmlns:cc="http://creativecommons.org/ns#"
   xmlns:rdf="http://www.w3.org/1999/02/22-rdf-syntax-ns#"
   xmlns:svg="http://www.w3.org/2000/svg"
   xmlns="http://www.w3.org/2000/svg"
   xmlns:sodipodi="http://sodipodi.sourceforge.net/DTD/sodipodi-0.dtd"
   xmlns:inkscape="http://www.inkscape.org/namespaces/inkscape"
   viewBox="0 0 512 512"
   style="height: 64px; width: 64px;"
   version="1.1"
   id="svg36"
   sodipodi:docname="stone-petite-perle.svg"
   inkscape:export-filename="/home/plic/Téléchargements/stone-petite-perle.png"
   inkscape:export-xdpi="24"
   inkscape:export-ydpi="24"
   inkscape:version="0.92.3 (2405546, 2018-03-11)">
  <metadata
     id="metadata40">
    <rdf:RDF>
      <cc:Work
         rdf:about="">
        <dc:format>image/svg+xml</dc:format>
        <dc:type
           rdf:resource="http://purl.org/dc/dcmitype/StillImage" />
        <dc:title></dc:title>
      </cc:Work>
    </rdf:RDF>
  </metadata>
  <sodipodi:namedview
     pagecolor="#ffffff"
     bordercolor="#666666"
     borderopacity="1"
     objecttolerance="10"
     gridtolerance="10"
     guidetolerance="10"
     inkscape:pageopacity="0"
     inkscape:pageshadow="2"
     inkscape:window-width="1338"
     inkscape:window-height="858"
     id="namedview38"
     showgrid="false"
     inkscape:zoom="0.4609375"
     inkscape:cx="256"
     inkscape:cy="256"
     inkscape:window-x="2499"
     inkscape:window-y="188"
     inkscape:window-maximized="0"
     inkscape:current-layer="svg36" />
  <defs
     id="defs22">
    <radialGradient
       id="gradient-2"
       gradientTransform="scale(0.99995377,1.0000462)"
       cx="254.49395"
       cy="188.64911"
       fx="254.49395"
       fy="188.64911"
       r="172.89984"
       gradientUnits="userSpaceOnUse">
      <stop
         offset="0%"
         stop-color="#50e3c2"
         stop-opacity="1"
         id="stop2" />
      <stop
         offset="100%"
         stop-color="#90f7e0"
         stop-opacity="1"
         id="stop4" />
    </radialGradient>
    <radialGradient
       id="gradient-3"
       gradientTransform="scale(0.99888392,1.0011173)"
       cx="255.08945"
       cy="188.46226"
       fx="255.08945"
       fy="188.46226"
       r="149.28637"
       gradientUnits="userSpaceOnUse">
      <stop
         offset="0%"
         stop-color="#50e3c2"
         stop-opacity="1"
         id="stop7" />
      <stop
         offset="100%"
         stop-color="#90f7e0"
         stop-opacity="1"
         id="stop9" />
    </radialGradient>
    <radialGradient
       id="gradient-7">
      <stop
         offset="0%"
         stop-color="#c9c9c9"
         stop-opacity="1"
         id="stop12" />
      <stop
         offset="100%"
         stop-color="#e7e7e7"
         stop-opacity="1"
         id="stop14" />
    </radialGradient>
    <radialGradient
       id="gradient-8">
      <stop
         offset="0%"
         stop-color="#c9c9c9"
         stop-opacity="1"
         id="stop17" />
      <stop
         offset="100%"
         stop-color="#e5e5e5"
         stop-opacity="1"
         id="stop19" />
    </radialGradient>
  </defs>
  <g
     id="g858"
     transform="matrix(1.1680343,0,0,1.2649116,-37.338019,19.446075)">
    <path
       inkscape:connector-curvature="0"
       style="fill:url(#gradient-2);stroke:#4a4a4a;stroke-width:10;stroke-opacity:1"
       id="path24"
       class="selected"
       d="m 254.563,20.75 c -42.96,0 -85.918,16.387 -118.688,49.156 -65.54,65.54 -65.852,172.15 -0.313,237.688 65.54,65.54 172.15,65.226 237.688,-0.313 65.54,-65.538 65.54,-171.835 0,-237.374 C 340.48,37.137 297.522,20.751 254.562,20.751 Z" />
    <path
       inkscape:connector-curvature="0"
       style="fill:url(#gradient-3)"
       id="path26"
       class=""
       d="m 254.406,39.22 c 25.68,0.053 51.363,6.724 74.313,19.968 -13.573,-3.984 -26.266,-2.455 -34.22,5.5 -14.437,14.437 -7.796,44.485 14.813,67.093 22.608,22.61 52.625,29.22 67.062,14.782 8.523,-8.522 9.706,-22.468 4.594,-37.125 36.352,57.684 29.586,134.6 -20.69,184.875 -29.158,29.16 -67.353,43.773 -105.56,43.813 9.436,-2.3 17.762,-6.732 24.436,-13.406 28.885,-28.886 15.64,-88.954 -29.594,-134.19 -45.234,-45.233 -105.302,-58.51 -134.187,-29.624 -4.052,4.052 -7.266,8.723 -9.688,13.875 3.092,-33.537 17.473,-66.222 43.157,-91.905 29.198,-29.2 67.384,-43.737 105.562,-43.656 z" />
  </g>
</svg>
