<?xml version="1.0" encoding="UTF-8" standalone="no"?>
<svg
   xmlns:dc="http://purl.org/dc/elements/1.1/"
   xmlns:cc="http://creativecommons.org/ns#"
   xmlns:rdf="http://www.w3.org/1999/02/22-rdf-syntax-ns#"
   xmlns:svg="http://www.w3.org/2000/svg"
   xmlns="http://www.w3.org/2000/svg"
   xmlns:sodipodi="http://sodipodi.sourceforge.net/DTD/sodipodi-0.dtd"
   xmlns:inkscape="http://www.inkscape.org/namespaces/inkscape"
   viewBox="0 0 512 512"
   style="height: 64px; width: 64px;"
   version="1.1"
   id="svg86"
   sodipodi:docname="stone-opale-de-feu.svg"
   inkscape:export-filename="/home/plic/Téléchargements/stone-opale-de-feu.png"
   inkscape:export-xdpi="24"
   inkscape:export-ydpi="24"
   inkscape:version="1.0.1 (0767f8302a, 2020-10-17)">
  <metadata
     id="metadata90">
    <rdf:RDF>
      <cc:Work
         rdf:about="">
        <dc:format>image/svg+xml</dc:format>
        <dc:type
           rdf:resource="http://purl.org/dc/dcmitype/StillImage" />
        <dc:title></dc:title>
      </cc:Work>
    </rdf:RDF>
  </metadata>
  <sodipodi:namedview
     pagecolor="#ffffff"
     bordercolor="#666666"
     borderopacity="1"
     objecttolerance="10"
     gridtolerance="10"
     guidetolerance="10"
     inkscape:pageopacity="0"
     inkscape:pageshadow="2"
     inkscape:window-width="1937"
     inkscape:window-height="1022"
     id="namedview88"
     showgrid="false"
     inkscape:zoom="0.65186406"
     inkscape:cx="-29.739762"
     inkscape:cy="264.62074"
     inkscape:window-x="4017"
     inkscape:window-y="327"
     inkscape:window-maximized="0"
     inkscape:current-layer="svg86"
     inkscape:document-rotation="0" />
  <defs
     id="defs72">
    <radialGradient
       id="gradient-2"
       gradientTransform="matrix(-0.50602107,0.71154194,-0.85998204,-0.61158592,423.88775,-168.73985)"
       cx="293.19934"
       cy="22.701279"
       fx="293.19934"
       fy="22.701279"
       r="205.60145"
       gradientUnits="userSpaceOnUse">
      <stop
         offset="0%"
         stop-color="#c9c9c9"
         stop-opacity="1"
         id="stop2" />
      <stop
         offset="100%"
         stop-color="#e9e9e9"
         stop-opacity="1"
         id="stop4" />
    </radialGradient>
    <radialGradient
       id="gradient-3">
      <stop
         offset="0%"
         stop-color="#c9c9c9"
         stop-opacity="1"
         id="stop7" />
      <stop
         offset="100%"
         stop-color="#eaeaea"
         stop-opacity="1"
         id="stop9" />
    </radialGradient>
    <radialGradient
       id="gradient-4">
      <stop
         offset="0%"
         stop-color="#c9c9c9"
         stop-opacity="1"
         id="stop12" />
      <stop
         offset="100%"
         stop-color="#e7e7e7"
         stop-opacity="1"
         id="stop14" />
    </radialGradient>
    <radialGradient
       id="gradient-5">
      <stop
         offset="0%"
         stop-color="#c9c9c9"
         stop-opacity="1"
         id="stop17" />
      <stop
         offset="100%"
         stop-color="#e9e9e9"
         stop-opacity="1"
         id="stop19" />
    </radialGradient>
    <radialGradient
       id="gradient-6">
      <stop
         offset="0%"
         stop-color="#c9c9c9"
         stop-opacity="1"
         id="stop22" />
      <stop
         offset="100%"
         stop-color="#eeeeee"
         stop-opacity="1"
         id="stop24" />
    </radialGradient>
    <radialGradient
       id="gradient-7">
      <stop
         offset="0%"
         stop-color="#c9c9c9"
         stop-opacity="1"
         id="stop27" />
      <stop
         offset="100%"
         stop-color="#e7e7e7"
         stop-opacity="1"
         id="stop29" />
    </radialGradient>
    <radialGradient
       id="gradient-8">
      <stop
         offset="0%"
         stop-color="#c9c9c9"
         stop-opacity="1"
         id="stop32" />
      <stop
         offset="100%"
         stop-color="#e5e5e5"
         stop-opacity="1"
         id="stop34" />
    </radialGradient>
    <radialGradient
       id="gradient-9">
      <stop
         offset="0%"
         stop-color="#c9c9c9"
         stop-opacity="1"
         id="stop37" />
      <stop
         offset="100%"
         stop-color="#e7e7e7"
         stop-opacity="1"
         id="stop39" />
    </radialGradient>
    <radialGradient
       id="gradient-10">
      <stop
         offset="0%"
         stop-color="#d4af37"
         stop-opacity="1"
         id="stop42" />
      <stop
         offset="100%"
         stop-color="#d4af37"
         stop-opacity="1"
         id="stop44" />
    </radialGradient>
    <radialGradient
       id="gradient-11">
      <stop
         offset="0%"
         stop-color="#c9c9c9"
         stop-opacity="1"
         id="stop47" />
      <stop
         offset="100%"
         stop-color="#eaeaea"
         stop-opacity="1"
         id="stop49" />
    </radialGradient>
    <radialGradient
       id="gradient-12">
      <stop
         offset="0%"
         stop-color="#c9c9c9"
         stop-opacity="1"
         id="stop52" />
      <stop
         offset="100%"
         stop-color="#e4e4e4"
         stop-opacity="1"
         id="stop54" />
    </radialGradient>
    <radialGradient
       id="gradient-13">
      <stop
         offset="0%"
         stop-color="#c9c9c9"
         stop-opacity="1"
         id="stop57" />
      <stop
         offset="100%"
         stop-color="#e7e7e7"
         stop-opacity="1"
         id="stop59" />
    </radialGradient>
    <radialGradient
       id="gradient-14">
      <stop
         offset="0%"
         stop-color="#c9c9c9"
         stop-opacity="1"
         id="stop62" />
      <stop
         offset="100%"
         stop-color="#e7e7e7"
         stop-opacity="1"
         id="stop64" />
    </radialGradient>
    <radialGradient
       id="gradient-15">
      <stop
         offset="0%"
         stop-color="#c9c9c9"
         stop-opacity="1"
         id="stop67" />
      <stop
         offset="100%"
         stop-color="#e7e7e7"
         stop-opacity="1"
         id="stop69" />
    </radialGradient>
    <clipPath
       clipPathUnits="userSpaceOnUse"
       id="clipPath5112">
      <path
         style="fill:none;stroke:#000000;stroke-width:0.97786868px;stroke-linecap:butt;stroke-linejoin:miter;stroke-opacity:1"
         d="m 208.2538,88.51676 c -0.73867,1.015481 -1.34549,2.148876 -2.21602,3.046442 -0.17411,0.179513 -0.51845,-0.113534 -0.73868,0 -0.31145,0.160562 -0.42723,0.601049 -0.73867,0.761611 -0.22024,0.113534 -0.56457,-0.179513 -0.73869,0 -0.17411,0.179512 0.17412,0.582097 0,0.76161 -0.17411,0.179514 -0.49245,0 -0.73867,0 0,0.253871 0.11012,0.534542 0,0.761611 -1.5371,3.16964 0.051,-0.814189 -1.47735,0.76161 -0.17411,0.179514 0.1741,0.582097 0,0.761611 -0.17411,0.179513 -0.56457,-0.179514 -0.73868,0 -0.17411,0.179513 0.17411,0.582097 0,0.76161 -0.17411,0.179513 -0.56457,-0.179513 -0.73867,0 -0.17411,0.179513 0.1741,0.582097 0,0.76161 -0.17411,0.179514 -0.56457,-0.179513 -0.73868,0 -0.17411,0.179514 0.17411,0.582097 0,0.761611 -1.96981,0 0.24622,-0.25387 -0.73867,0.761613 -0.17411,0.179513 -0.56457,-0.179516 -0.73868,0 -0.17412,0.179513 0.11011,0.534536 0,0.76161 -0.15573,0.321124 -0.58295,0.440485 -0.73868,0.761611 -0.11012,0.22706 0.17411,0.5821 0,0.76161 -0.17411,0.17951 -0.51844,-0.11353 -0.73868,0 -3.07419,1.58482 0.78968,-0.0525 -0.73868,1.52322 -0.1741,0.17951 -0.56456,-0.17951 -0.73867,0 -0.17411,0.17951 0.11011,0.53454 0,0.76161 -0.15572,0.32112 -0.58295,0.44049 -0.73868,0.76161 -0.11011,0.22707 0.11012,0.53454 0,0.76162 -0.15572,0.32111 -0.58295,0.44048 -0.73867,0.76161 -0.11011,0.22706 0.17411,0.58209 0,0.76161 -0.17411,0.17951 -0.56457,-0.17952 -0.73868,0 -0.1741,0.17951 0.11012,0.53453 0,0.7616 -0.15573,0.32113 -0.58295,0.44049 -0.73867,0.76161 -0.11012,0.22707 0.17411,0.5821 0,0.76161 -0.17411,0.17952 -0.56457,-0.17951 -0.73868,0 -0.34822,0.35903 0.22023,1.06908 0,1.52322 -0.31145,0.64225 -1.1659,0.88098 -1.47736,1.52323 -1.08688,2.24127 1.71121,-1.00272 -0.73867,1.52322 -0.24622,0.25386 -0.49245,0.50774 -0.73868,0.76161 -0.24622,0.25387 -0.58295,0.44048 -0.73867,0.76161 -0.11011,0.22706 0.11011,0.53454 0,0.76161 -0.15572,0.32112 -0.58295,0.44048 -0.73868,0.76161 -0.11011,0.22707 0.17411,0.58209 0,0.76161 -0.1741,0.17951 -0.56456,-0.17952 -0.73867,0 -0.17411,0.17951 0.11011,0.53454 0,0.76161 -0.15573,0.32112 -0.49246,0.50774 -0.73868,0.76162 -0.24622,0.25386 -0.42723,0.60104 -0.73867,0.76161 -0.22024,0.11353 -0.56457,-0.17952 -0.73868,0 -0.17411,0.17951 0.17411,0.58209 0,0.7616 -0.17411,0.17952 -0.56457,-0.17951 -0.73868,0 -0.17411,0.17952 0.17411,0.5821 0,0.76161 -0.17411,0.17952 -0.51844,-0.11353 -0.73868,0 -0.39451,0.20339 -1.82714,1.88388 -2.21602,2.28483 -0.24623,0.25388 -0.49245,0.50775 -0.73868,0.76161 -0.24622,0.25387 -0.58295,0.4405 -0.73867,0.76161 -0.11011,0.22707 0.1741,0.5821 0,0.76162 -0.17411,0.17951 -0.56457,-0.17952 -0.73868,0 -0.1741,0.17951 0.11012,0.53454 0,0.76161 -0.15573,0.32111 -0.58295,0.44048 -0.73867,0.76161 -0.11012,0.22706 0.1741,0.5821 0,0.76161 -0.17412,0.17951 -0.56457,-0.17951 -0.73869,0 -0.49307,0.50838 0.49308,1.01484 0,1.52322 -0.1741,0.17951 -0.56457,-0.17951 -0.73867,0 -0.17411,0.17951 0.11012,0.53454 0,0.76161 -0.31146,0.64225 -1.1659,0.88098 -1.47735,1.52322 -0.11012,0.22707 0.1741,0.58209 0,0.76161 -0.17411,0.17952 -0.56457,-0.17952 -0.73868,0 -0.1741,0.17952 0.17411,0.5821 0,0.76161 -0.1741,0.17952 -0.56457,-0.17951 -0.73867,0 -0.34822,0.35903 0.34821,1.1642 0,1.52322 -0.17411,0.17952 -0.56457,-0.17951 -0.73868,0 -0.1741,0.17952 0.11012,0.53454 0,0.76161 -0.15573,0.32113 -0.58295,0.44049 -0.73867,0.76161 -0.11013,0.22707 0.11011,0.53455 0,0.76161 -0.15573,0.32113 -0.58296,0.44049 -0.73868,0.76161 -0.11012,0.22707 0.11012,0.53455 0,0.76161 -0.31145,0.64225 -1.1659,0.88098 -1.47736,1.52323 -0.11011,0.22706 0.11013,0.53453 0,0.76161 -0.15572,0.32112 -0.58294,0.44048 -0.73867,0.76161 -0.11012,0.22706 0.11011,0.53453 0,0.76161 -0.15572,0.32112 -0.58295,0.44048 -0.73868,0.76161 -0.11011,0.22706 0.11012,0.53454 0,0.76161 -0.15572,0.32112 -0.58295,0.44048 -0.73867,0.76161 -0.11012,0.22707 0.0778,0.52077 0,0.7616 -0.17411,0.53855 -0.56457,0.98469 -0.73868,1.52323 -0.0778,0.24084 0.11012,0.53454 0,0.76161 -0.15573,0.32113 -0.58295,0.44049 -0.73867,0.76161 -0.11012,0.22707 0.11011,0.53454 0,0.76161 -0.15573,0.32113 -0.58296,0.44049 -0.73868,0.76161 -0.22023,0.45414 0.22023,1.06908 0,1.52322 -0.15573,0.32112 -0.58295,0.44049 -0.73867,0.76161 -0.22024,0.45414 0.34821,1.16419 0,1.52323 -0.17412,0.17951 -0.56457,-0.17952 -0.73869,0 -0.34821,0.35902 0.34823,1.16419 0,1.52322 -0.1741,0.17951 -0.56457,-0.17952 -0.73867,0 -0.49308,0.50838 0.49307,1.01483 0,1.52322 -0.17411,0.17951 -0.56457,-0.17952 -0.73868,0 -0.34821,0.35902 0.22024,1.06908 0,1.52321 -0.15572,0.32113 -0.58294,0.44049 -0.73867,0.76161 -0.11012,0.22708 0.11011,0.53455 0,0.76161 -0.15573,0.32113 -0.58296,0.4405 -0.73868,0.76162 -0.22022,0.45413 0.22023,1.06908 0,1.52322 -0.15572,0.32113 -0.58295,0.44049 -0.73867,0.76161 -0.11012,0.22707 0.11011,0.53454 0,0.76161 -0.15574,0.32113 -0.58296,0.44049 -0.73868,0.76161 -0.11011,0.22707 0.11011,0.53455 0,0.76161 -0.15573,0.32112 -0.58295,0.44048 -0.73867,0.76161 -0.22024,0.45414 0.34821,1.16419 0,1.52322 -0.17411,0.17952 -0.56457,-0.17951 -0.73868,0 -0.34822,0.35903 0.22023,1.06909 0,1.52323 -0.15573,0.32112 -0.58295,0.44048 -0.73868,0.76161 -0.11012,0.22706 0.11012,0.53453 0,0.76161 -0.15573,0.32112 -0.58295,0.44048 -0.73868,0.7616 -0.22022,0.45414 0.22024,1.06909 0,1.52322 -0.15572,0.32113 -0.58294,0.44049 -0.73867,0.76161 -0.22023,0.45414 0.22023,1.06909 0,1.52323 -0.15573,0.32112 -0.58295,0.44049 -0.73868,0.76161 -0.14644,0.30197 0.15101,2.12913 0,2.28483 -0.17411,0.17951 -0.62856,-0.22706 -0.73867,0 -0.23895,0.49272 0.26534,2.77286 0,3.04644 -0.17411,0.17952 -0.56457,-0.17952 -0.73868,0 -0.34821,0.35903 0.22023,1.06909 0,1.52323 -0.15572,0.32112 -0.58295,0.44048 -0.73867,0.76161 -0.21792,0.44936 0.16935,1.76096 0,2.28482 -0.17411,0.53854 -0.60515,0.9725 -0.73868,1.52322 -0.11943,0.49259 0,1.01548 0,1.52323 0,0.25386 0.11011,0.53454 0,0.76161 -0.15573,0.32112 -0.58295,0.44049 -0.73867,0.76161 -0.11013,0.22706 0.0778,0.52076 0,0.76161 -0.17411,0.53854 -0.56457,0.98468 -0.73868,1.52322 -0.23359,0.72253 0.17915,1.54596 0,2.28483 -0.13354,0.55073 -0.56458,0.98468 -0.73868,1.52323 -0.0778,0.24083 0.0779,0.52076 0,0.7616 -0.17411,0.53854 -0.56457,0.98469 -0.73868,1.52322 -0.2216,0.68545 0.2216,1.59938 0,2.28483 -0.11011,0.34061 -0.62856,0.42102 -0.73867,0.76161 -0.15573,0.48169 0,1.01548 0,1.52323 0,0.25386 0.11011,0.53454 0,0.76161 -0.15573,0.32112 -0.58295,0.44048 -0.73868,0.76161 -0.22023,0.45414 0.22024,1.06908 0,1.52322 -0.15572,0.32112 -0.58295,0.44048 -0.73867,0.76161 -0.22023,0.45413 0.22022,1.06908 0,1.52322 -0.15573,0.32112 -0.58296,0.44049 -0.73868,0.76161 -0.23214,0.47869 0.23214,2.56775 0,3.04644 -0.15573,0.32113 -0.58295,0.44049 -0.73867,0.76161 -0.25512,0.52607 0.25928,3.54071 0,3.80806 -0.17411,0.17951 -0.56457,-0.17952 -0.73868,0 -0.0298,0.0307 0,2.76675 0,3.04644 0,0.343 0.1124,2.05304 0,2.28482 -0.15573,0.32113 -0.58295,0.4405 -0.73868,0.76161 -0.23602,0.48669 0.19819,2.43343 0,3.04645 -0.17411,0.53854 -0.56456,0.98468 -0.73868,1.52322 -0.25223,0.78018 0.25223,1.50466 0,2.28483 -0.11011,0.3406 -0.62855,0.42101 -0.73867,0.76161 -0.22161,0.68545 0.2216,1.59939 0,2.28484 -0.17411,0.53853 -0.56457,0.98468 -0.73868,1.52322 -0.15572,0.48168 0,1.01548 0,1.52321 0,1.26936 0,2.53871 0,3.80806 0,0.25387 0,0.50774 0,0.76161 0,0.25387 0.11011,0.53455 0,0.76161 -0.15572,0.32112 -0.58294,0.44048 -0.73868,0.76161 -0.23213,0.47869 0.23214,2.56775 0,3.04645 -0.15572,0.32111 -0.58295,0.44048 -0.73867,0.76161 -0.22427,0.46246 0.22427,4.10718 0,4.56965 -0.15572,0.32113 -0.58295,0.4405 -0.73868,0.76161 -0.1124,0.23179 0,1.94184 0,2.28484 0,1.77709 0,3.55418 0,5.33128 0,2.5387 0,5.0774 0,7.6161 0,0.8733 -0.19129,2.25749 0,3.04644 0.13354,0.55072 0.60515,0.9725 0.73868,1.52322 0.14044,0.57917 0,3.17028 0,3.80805 0,2.53871 0,5.07741 0,7.61611 0,0.25387 0,0.50773 0,0.76161 0,0.25387 -0.17411,0.58209 0,0.76161 0.17411,0.17951 0.56457,-0.17952 0.73867,0 0.17411,0.17951 0,0.50773 0,0.76161 0,0.25387 0,0.50774 0,0.76161 0,2.5387 0,5.0774 0,7.6161 0,3.80806 0,7.6161 0,11.42416 0,1.26936 0,2.5387 0,3.80806 0,0.76161 0,1.52322 0,2.28483 0,0.25387 -0.0778,0.52076 0,0.76161 0.17411,0.53853 0.56457,0.98468 0.73868,1.52321 0.2216,0.68546 -0.2216,1.59939 0,2.28484 0.11011,0.3406 0.62856,0.42101 0.73868,0.76161 0.13617,0.42118 0,3.80268 0,4.56966 0,3.04645 0,6.09288 0,9.13933 0,3.55417 0,7.10836 0,10.66254 0,0.81709 -0.16276,4.82785 0,5.33128 0.1741,0.53854 0.56456,0.98468 0.73867,1.52322 0.15022,0.46465 0,3.98144 0,4.56966 0,2.53871 0,5.07741 0,7.61611 0,0.39825 -0.0971,2.84618 0,3.04644 0.15573,0.32112 0.58295,0.44049 0.73868,0.7616 0.29547,0.6093 -0.29547,1.67555 0,2.28484 0.15573,0.32113 0.58295,0.44049 0.73868,0.76161 0.29547,0.60929 -0.29548,1.67555 0,2.28483 0.15572,0.32113 0.62856,0.42101 0.73868,0.76161 0.15572,0.48169 0,1.01548 0,1.52322 0,0.25387 -0.11012,0.53454 0,0.76162 0.15572,0.32111 0.58294,0.44048 0.73867,0.76161 0.22023,0.45414 -0.22024,1.06908 0,1.52322 0.15572,0.32112 0.58295,0.44048 0.73868,0.76161 0.11011,0.22706 -0.11012,0.53454 0,0.76161 0.15572,0.32112 0.58295,0.44048 0.73867,0.7616 0.22024,0.45414 -0.22023,1.0691 0,1.52322 0.15573,0.32113 0.62856,0.42102 0.73868,0.76162 0.15573,0.48168 -0.15573,1.04153 0,1.52322 0.22023,0.6812 1.1659,0.88097 1.47735,1.52322 0.11012,0.22706 -0.11012,0.53455 0,0.76161 0.15573,0.32112 0.58295,0.44048 0.73868,0.76161 0.11011,0.22707 -0.11012,0.53454 0,0.76161 0.15572,0.32112 0.58294,0.44049 0.73868,0.76161 0.22022,0.45414 -0.22024,1.06909 0,1.52323 0.15572,0.32112 0.58294,0.44048 0.73867,0.76161 0.11011,0.22706 -0.11011,0.53453 0,0.76161 0.15572,0.32112 0.58294,0.44048 0.73868,0.76161 0.22022,0.45413 -0.22024,1.06908 0,1.52321 0.15572,0.32113 0.58295,0.44049 0.73867,0.76161 0.11011,0.22708 -0.11011,0.53455 0,0.76161 0.31146,0.64225 1.1659,0.88098 1.47735,1.52323 0.11011,0.22707 -0.11011,0.53454 0,0.76161 0.15573,0.32113 0.58295,0.44049 0.73868,0.76161 0.11011,0.22706 -0.17411,0.5821 0,0.76161 0.1741,0.17951 0.56456,-0.17951 0.73867,0 0.17411,0.17951 -0.11011,0.53455 0,0.76161 0.44321,0.91393 1.77283,1.3709 2.21604,2.28483 0.11011,0.22707 -0.11013,0.53454 0,0.76161 0.15572,0.32112 0.49244,0.50774 0.73867,0.76162 0.58043,0.59844 3.45812,3.32292 3.69338,3.80804 0.11012,0.22708 -0.11012,0.53455 0,0.76161 0.15573,0.32113 0.54553,0.46289 0.73867,0.76161 0.30541,0.47234 0.43328,1.05089 0.73869,1.52323 0.3863,0.59745 0.98489,1.01547 1.47735,1.52322 0.73867,0.76161 1.47735,1.52322 2.21602,2.28483 0.43446,0.44794 2.78368,2.69376 2.95471,3.04645 0.11012,0.22706 -0.17411,0.58209 0,0.7616 0.17411,0.17952 0.56457,-0.17951 0.73868,0 0.1741,0.17952 -0.17411,0.5821 0,0.76161 0.1741,0.17952 0.56457,-0.17951 0.73867,0 0.17411,0.17952 -0.1741,0.5821 0,0.76161 0.17411,0.17952 0.56457,-0.17951 0.73868,0 0.34821,0.35903 -0.22024,1.06908 0,1.52322 0.15572,0.32113 0.58295,0.44049 0.73867,0.76161 0.11012,0.22708 -0.11011,0.53455 0,0.76161 0.15573,0.32113 0.54552,0.46289 0.73868,0.76161 0.3054,0.47234 0.43327,1.05089 0.73867,1.52323 0.19316,0.29872 0.54552,0.46288 0.73868,0.76161 0.3054,0.47233 0.34936,1.12181 0.73867,1.52322 0.38933,0.4014 1.08805,0.3602 1.47736,0.76161 0.38932,0.4014 0.34936,1.12181 0.73868,1.52322 0.38931,0.4014 1.01924,0.44673 1.47735,0.76161 0.57947,0.3983 0.9849,1.01548 1.47735,1.52322 0.9849,1.01548 1.96981,2.03096 2.95471,3.04644 0.24622,0.25388 0.49245,0.50774 0.73867,0.76161 0.24622,0.25387 0.42722,0.60105 0.73868,0.76161 0.22023,0.11353 0.56457,-0.17951 0.73867,0 0.17411,0.17951 -0.11011,0.53455 0,0.76161 1.5371,3.16964 -0.0509,-0.81419 1.47735,0.76161 0.17411,0.17952 -0.1741,0.5821 0,0.76162 0.17411,0.17951 0.56457,-0.17952 0.73868,0 0.9849,1.01547 -1.56697,0.73081 0.73867,1.52322 0.46719,0.16055 1.01018,-0.16057 1.47736,0 0.33034,0.11353 0.44894,0.56245 0.73868,0.76161 0.4581,0.31489 0.9849,0.50773 1.47735,0.76161 0.9849,0.50773 2.01048,0.93909 2.9547,1.52322 0.76127,0.47093 1.42198,1.11387 2.21604,1.52321 0.69642,0.35904 1.54835,0.34857 2.21602,0.76162 0.59719,0.36943 0.92021,1.09239 1.47735,1.52322 0.9899,0.76547 2.62929,1.08437 3.69339,1.52322 1.52829,0.6303 2.90375,1.65454 4.43205,2.28483 0.72295,0.29816 1.49308,0.46346 2.21603,0.76161 1.50979,0.62267 2.97707,1.53476 4.43205,2.28484 0.49246,0.25386 0.94322,0.62393 1.47736,0.76161 0.47774,0.12314 0.9849,0 1.47735,0 0.49245,0.25387 0.95503,0.58209 1.47735,0.76161 0.2336,0.0802 0.51845,-0.11354 0.73868,0 0.31145,0.16055 0.40833,0.64807 0.73867,0.76161 0.50252,0.17271 3.30171,-0.20192 3.69339,0 0.31145,0.16056 0.42722,0.60105 0.73867,0.7616 0.22023,0.11354 0.49245,0 0.73868,0 0.24623,0 0.49244,0 0.73867,0 1.96981,0 3.93961,0 5.90941,0 0.49245,0 0.99447,-0.0996 1.47735,0 0.76352,0.15745 1.45252,0.60417 2.21604,0.76161 3.9463,0.81377 -1.66246,-1.44723 3.69337,0.76161 0.5112,0.21083 0.94322,0.62393 1.47735,0.76162 0.95551,0.24629 2.02035,-0.32112 2.95471,0 0.33034,0.11353 0.40833,0.64807 0.73868,0.76161 0.003,10e-4 2.21532,-7.3e-4 2.21602,0 0.17411,0.17951 -0.1741,0.5821 0,0.76161 0.17411,0.17951 0.49246,0 0.73868,0 1.47735,0 2.95471,0 4.43206,0 0.24623,0 0.49245,0 0.73868,0 0.24622,0 0.51844,0.11353 0.73867,0 0.31145,-0.16057 0.42722,-0.60105 0.73868,-0.76161 0.16556,-0.0854 2.77917,0 2.95471,0 1.47735,0 2.9547,0 4.43205,0 3.93961,0 7.87921,0 11.81882,0 1.23113,0 2.46225,0 3.69338,0 0.24622,0 0.49245,0 0.73868,0 0.24622,0 0.51844,0.11353 0.73867,0 0.31146,-0.16056 0.40833,-0.64808 0.73868,-0.76161 0.47953,-0.1648 4.49974,0 5.17073,0 0.49245,0 1.01018,0.16056 1.47735,0 0.33035,-0.11354 0.40833,-0.64807 0.73868,-0.76162 0.46718,-0.16055 0.9849,0 1.47735,0 0.61856,0 3.13165,0.1448 3.69338,0 0.53414,-0.13768 0.95503,-0.58209 1.47735,-0.76161 0.2336,-0.0802 0.49245,0 0.73868,0 0.49246,0 1.01017,0.16057 1.47735,0 0.33035,-0.11353 0.42723,-0.60104 0.73867,-0.76161 0.44047,-0.22706 1.0369,0.22708 1.47736,0 0.31146,-0.16055 0.42722,-0.60104 0.73868,-0.7616 0.44046,-0.22707 1.12914,0.35902 1.47735,0 0.17411,-0.17952 -0.17411,-0.5821 0,-0.76161 0.17411,-0.17952 0.51845,0.11353 0.73867,0 0.62291,-0.32113 0.85446,-1.2021 1.47735,-1.52322 0.22024,-0.11353 0.56457,0.17951 0.73868,0 1.52835,-1.57581 -2.33551,0.0616 0.73868,-1.52322 0.22023,-0.11354 0.56457,0.17951 0.73868,0 0.17411,-0.17952 -0.11012,-0.53455 0,-0.76162 0.15572,-0.32112 0.49245,-0.50774 0.73867,-0.76161 0.73868,-0.76161 1.47736,-1.52322 2.21603,-2.28483 0.49245,-0.50774 1.09104,-0.92576 1.47735,-1.52322 0.30541,-0.47233 0.43328,-1.05089 0.73868,-1.52322 0.38631,-0.59745 1.09104,-0.92577 1.47736,-1.52323 0.30539,-0.47232 0.40832,-1.06908 0.73867,-1.52321 0.68265,-0.93845 2.32779,-2.07686 2.9547,-3.04644 0.30541,-0.47234 0.43327,-1.05089 0.73868,-1.52323 0.19315,-0.29872 0.58295,-0.44049 0.73867,-0.76161 0.11012,-0.22706 0,-0.50774 0,-0.76161 0.24623,-0.50774 0.43328,-1.05089 0.73868,-1.52322 0.38631,-0.59746 1.25712,-0.84202 1.47736,-1.52322 1.06605,-3.29748 -1.41213,0.27993 0.73867,-3.04644 0.19316,-0.29873 0.54552,-0.46288 0.73868,-0.76161 0.3054,-0.47233 0.43326,-1.05089 0.73867,-1.52322 0.19316,-0.29873 0.54552,-0.46289 0.73868,-0.76161 0.3054,-0.47233 0.49245,-1.01548 0.73867,-1.52322 0.24623,-0.50775 0.56457,-0.98468 0.73868,-1.52322 0.0779,-0.24085 -0.0778,-0.52077 0,-0.76162 0.1741,-0.53854 0.60514,-0.9725 0.73867,-1.52322 0.11945,-0.49257 -0.15572,-1.04154 0,-1.52322 0.11012,-0.3406 0.54553,-0.46288 0.73869,-0.76161 0.30539,-0.47232 0.56456,-0.98468 0.73867,-1.52322 0.0778,-0.24084 -0.0779,-0.52077 0,-0.7616 0.17411,-0.53855 0.56457,-0.98469 0.73868,-1.52323 0.15572,-0.48168 -0.15574,-1.04154 0,-1.52322 0.24622,-0.50774 0.49244,-1.01548 0.73867,-1.52322 0,-0.25387 -0.0778,-0.52077 0,-0.76161 0.17411,-0.53855 0.56457,-0.98468 0.73868,-1.52322 0.0778,-0.24084 -0.11012,-0.53454 0,-0.76162 0.15572,-0.32111 0.49244,-0.50773 0.73867,-0.76161 0,-0.50773 -0.15572,-1.04153 0,-1.52322 0.11012,-0.3406 0.62856,-0.421 0.73868,-0.76161 0.15573,-0.48168 -0.15573,-1.04153 0,-1.52321 0.11011,-0.34061 0.58295,-0.44049 0.73867,-0.76161 0.11013,-0.22708 -0.11011,-0.53455 0,-0.76161 0.15573,-0.32113 0.58296,-0.4405 0.73868,-0.76162 0.11012,-0.22707 -0.0778,-0.52077 0,-0.76161 0.17411,-0.53854 0.60515,-0.9725 0.73868,-1.52322 0.11944,-0.49258 -0.15573,-1.04154 0,-1.52322 0.11012,-0.34061 0.58295,-0.44049 0.73868,-0.76161 0.11011,-0.22707 0,-0.50775 0,-0.76161 0.24622,-0.25387 0.58294,-0.44049 0.73867,-0.76161 0.11012,-0.22707 0,-0.50774 0,-0.76161 0.24622,-0.25387 0.58295,-0.44049 0.73868,-0.76162 0.11011,-0.22706 -0.17411,-0.58209 0,-0.76161 0.1741,-0.17951 0.56457,0.17952 0.73867,0 0.34822,-0.35902 -0.22022,-1.06908 0,-1.52322 0.15573,-0.32112 0.58296,-0.44048 0.73868,-0.7616 0.11011,-0.22707 -0.11012,-0.53455 0,-0.76161 0.15573,-0.32113 0.58295,-0.44049 0.73867,-0.76161 0.11012,-0.22708 -0.11011,-0.53455 0,-0.76161 0.15573,-0.32113 0.58296,-0.4405 0.73868,-0.76161 0.22023,-0.45414 -0.22023,-1.06909 0,-1.52323 0.59012,-1.21687 0.88724,-0.30635 1.47736,-1.52322 0.11011,-0.22706 0,-0.50774 0,-0.76161 0,-0.50774 -0.15573,-1.04154 0,-1.52322 0.11011,-0.3406 0.58294,-0.44048 0.73867,-0.76161 0.11012,-0.22707 -0.11012,-0.53454 0,-0.76161 0.15573,-0.32112 0.62856,-0.42101 0.73868,-0.76162 0.15572,-0.48168 -0.15573,-1.04152 0,-1.52322 0.11011,-0.34059 0.62856,-0.421 0.73867,-0.7616 0.15573,-0.48169 -0.15573,-1.04154 0,-1.52322 0.11012,-0.34061 0.54552,-0.46289 0.73868,-0.76161 0.3054,-0.47233 0.43327,-1.05089 0.73867,-1.52322 0.19316,-0.29874 0.62857,-0.42102 0.73868,-0.76162 0.15573,-0.48168 -0.11944,-1.03064 0,-1.52322 0.36673,-1.51247 1.8493,-3.05719 2.21602,-4.56966 0.11945,-0.49258 -0.15572,-1.04153 0,-1.52323 0.11013,-0.34059 0.54553,-0.46287 0.73869,-0.7616 0.6108,-0.94466 0.98489,-2.03096 1.47735,-3.04644 0.24623,-0.50775 0.49245,-1.01548 0.73867,-1.52322 0.24623,-0.50775 0.60514,-0.9725 0.73868,-1.52323 0.11943,-0.49257 -0.15572,-1.04154 0,-1.52322 0.11011,-0.34059 0.54552,-0.46287 0.73867,-0.76161 0.30541,-0.47233 0.43327,-1.05089 0.73868,-1.52322 0.19315,-0.29873 0.62856,-0.42101 0.73867,-0.76161 0.15574,-0.48169 -0.11943,-1.03064 0,-1.52322 -0.44522,-1.37847 1.19662,-1.41646 1.47736,-2.28483 0.15573,-0.48169 -0.15573,-1.04154 0,-1.52322 0.11012,-0.34061 0.62856,-0.42101 0.73868,-0.76161 0.15572,-0.48168 -0.15573,-1.04154 0,-1.52322 0.11011,-0.34061 0.62856,-0.42101 0.73867,-0.76161 0.15573,-0.48169 -0.15573,-1.04154 0,-1.52323 0.11012,-0.34059 0.62857,-0.421 0.73868,-0.76161 0.15572,-0.48168 -0.15573,-1.04154 0,-1.52322 0.11011,-0.3406 0.62856,-0.421 0.73867,-0.76161 0.2336,-0.72252 -0.23359,-1.5623 0,-2.28482 0.17411,-0.53855 0.56457,-0.98469 0.73868,-1.52323 0.0778,-0.24084 -0.11011,-0.53454 0,-0.76161 0.15573,-0.32113 0.62856,-0.42101 0.73867,-0.76161 0.20394,-0.63078 -0.23487,-3.32372 0,-3.80805 0.15574,-0.32112 0.62857,-0.42101 0.73868,-0.76162 0.15573,-0.48168 0,-1.01547 0,-1.52322 0,-0.25386 -0.11011,-0.53453 0,-0.76161 0.15573,-0.32112 0.62856,-0.421 0.73867,-0.76161 0.30581,-0.94587 -0.24279,-2.80667 0,-3.80804 0.13354,-0.55073 0.60516,-0.97251 0.73869,-1.52323 0.28967,-1.19468 -0.28968,-2.61337 0,-3.80805 0.13353,-0.55072 0.60514,-0.9725 0.73867,-1.52322 0.11944,-0.49258 0,-1.01548 0,-1.52323 0,-1.52322 0,-3.04643 0,-4.56965 0,-0.50775 -0.15573,-1.04154 0,-1.52323 0.11012,-0.3406 0.65422,-0.4133 0.73868,-0.76161 0.17915,-0.73887 0,-1.52322 0,-2.28483 0,-0.50774 0,-1.01548 0,-1.52322 0,-2.28484 0,-4.56966 0,-6.85449 0,-0.76161 0,-1.52322 0,-2.28483 0,-0.50775 -0.0966,-1.02534 0,-1.52323 0.1527,-0.78722 0.61067,-1.49294 0.73867,-2.28483 0.2024,-1.25208 0,-2.5387 0,-3.80806 0,-4.82352 0,-9.64705 0,-14.47059 0,-1.26935 0,-2.53871 0,-3.80805 0,-0.50775 -0.11943,-1.03065 0,-1.52322 0.13354,-0.55073 0.6307,-0.96658 0.73868,-1.52323 0.24144,-1.2447 0,-2.5387 0,-3.80805 0,-2.28482 0,-4.56966 0,-6.85449 0,-5.58515 0,-11.17029 0,-16.75544 0,-6.34675 0,-12.6935 0,-19.04025 0,-2.79258 0,-5.58515 0,-8.37772 0,-1.01548 0.19316,-2.05068 0,-3.04644 -0.1527,-0.78722 -0.58598,-1.49761 -0.73868,-2.28483 -0.0966,-0.49789 0,-1.01548 0,-1.52322 0,-1.01548 0,-2.03097 0,-3.04645 0,-0.25387 0.0778,-0.52076 0,-0.76161 -0.1741,-0.53853 -0.60514,-0.9725 -0.73867,-1.52322 -0.17915,-0.73887 0.23358,-1.56231 0,-2.28482 -0.17411,-0.53855 -0.56457,-0.98469 -0.73868,-1.52323 -0.15573,-0.48168 0.22023,-1.06908 0,-1.52322 -0.15573,-0.32113 -0.58295,-0.44049 -0.73867,-0.76161 -0.29548,-0.60929 0.29547,-1.67555 0,-2.28483 -0.11012,-0.22707 -0.62856,0.22706 -0.73869,0 -0.22022,-0.45414 0.11945,-1.03064 0,-1.52323 -0.26706,-1.10144 -1.12913,-1.96935 -1.47735,-3.04644 -0.0778,-0.24084 0.11012,-0.53454 0,-0.76161 -0.31145,-0.64224 -1.16589,-0.88098 -1.47735,-1.52321 -0.11011,-0.22708 0,-0.50775 0,-0.76161 -0.24622,-0.50775 -0.43326,-1.05089 -0.73867,-1.52323 -0.38631,-0.59746 -1.09104,-0.92576 -1.47735,-1.52322 -2.67792,-5.52212 0.77863,1.20421 -1.47736,-2.28483 -0.3054,-0.47233 -0.40833,-1.06909 -0.73868,-1.52322 -0.41785,-0.57445 -1.05949,-0.94879 -1.47735,-1.52323 -0.33035,-0.45413 -0.43326,-1.05089 -0.73867,-1.52322 -0.19316,-0.29872 -0.54552,-0.46288 -0.73868,-0.76161 -0.61081,-0.94465 -0.81666,-2.13817 -1.47735,-3.04643 -0.41786,-0.57445 -1.0595,-0.94879 -1.47736,-1.52323 -0.97505,-1.34043 -1.24097,-3.22923 -2.21602,-4.56966 -0.41786,-0.57444 -1.05949,-0.94878 -1.47735,-1.52322 -0.66069,-0.90827 -0.81666,-2.13817 -1.47735,-3.04644 -0.41786,-0.57445 -1.0595,-0.94878 -1.47735,-1.52322 -1.49486,-2.05502 0.0123,-1.24809 -1.47736,-3.80806 -0.35831,-0.61572 -1.05949,-0.94878 -1.47735,-1.52322 -0.66069,-0.90827 -0.81666,-2.13817 -1.47735,-3.04644 -3.19499,-3.29419 -0.11578,0.20176 -2.21603,-3.04644 -0.72463,-1.12069 -2.23008,-1.92576 -2.95471,-3.04644 -0.0917,-0.14187 -1.43002,-2.99765 -1.47735,-3.04645 -0.1741,-0.17951 -0.62856,0.22707 -0.73867,0 -0.22024,-0.45414 0.22022,-1.06908 0,-1.52322 -0.11012,-0.22706 -0.56457,0.17951 -0.73868,0 -0.38931,-0.4014 -0.43328,-1.05089 -0.73867,-1.52322 -0.38631,-0.59746 -1.16591,-0.88098 -1.47736,-1.52322 -0.11012,-0.22707 0.1741,-0.58209 0,-0.76161 -0.17411,-0.17951 -0.56457,0.17952 -0.73868,0 -0.17411,-0.17951 0.17411,-0.58209 0,-0.76161 -0.17411,-0.17952 -0.56457,0.17952 -0.73867,0 -0.17411,-0.17952 0.1741,-0.5821 0,-0.76161 -1.52835,-1.5758 0.0597,2.40803 -1.47735,-0.76161 -0.11012,-0.22707 0.1741,-0.5821 0,-0.76161 -0.17411,-0.17952 -0.56457,0.17951 -0.73868,0 -0.17411,-0.17952 0.17411,-0.5821 0,-0.76161 -1.52835,-1.5758 0.0597,2.40803 -1.47735,-0.76161 -0.11012,-0.22707 0.17411,-0.5821 0,-0.76161 -0.17412,-0.17951 -0.51845,0.11353 -0.73868,0 -0.31145,-0.16057 -0.49245,-0.50775 -0.73868,-0.76161 -0.24622,-0.25387 -0.58294,-0.4405 -0.73867,-0.76161 -0.11012,-0.22707 0.1741,-0.5821 0,-0.76161 -0.17411,-0.17952 -0.51844,0.11353 -0.73868,0 -0.34206,-0.17634 -2.52026,-2.59851 -2.9547,-3.04645 -0.24623,-0.25387 -0.42723,-0.60105 -0.73867,-0.76161 -0.22024,-0.11353 -0.51845,0.11354 -0.73869,0 -0.6229,-0.32112 -0.85444,-1.20209 -1.47735,-1.52322 -0.22023,-0.11353 -0.51844,0.11354 -0.73867,0 -3.0742,-1.58482 0.78967,0.0525 -0.73868,-1.52321 -0.38932,-0.40142 -1.01924,-0.44673 -1.47735,-0.76162 -0.36073,-0.24796 -2.71422,-2.67451 -2.95471,-3.04644 -0.3054,-0.47233 -0.34936,-1.12182 -0.73868,-1.52322 -0.38931,-0.4014 -1.01924,-0.44672 -1.47735,-0.76161 -0.86919,-0.59746 -1.38031,-1.63859 -2.21602,-2.28484 -0.44046,-0.34059 -1.08804,-0.3602 -1.47735,-0.76161 -0.38933,-0.4014 -0.34936,-1.12181 -0.73869,-1.52322 -0.77863,-0.8028 -2.07377,-0.84201 -2.9547,-1.52321 -0.83572,-0.64626 -1.34683,-1.68739 -2.21602,-2.28484 -0.45812,-0.31488 -1.08804,-0.36021 -1.47736,-0.76161 -0.38932,-0.40141 -0.34936,-1.12182 -0.73868,-1.52322 -0.0473,-0.0489 -2.8171,-1.42864 -2.9547,-1.52322 -0.28973,-0.199155 -0.44894,-0.562459 -0.73867,-0.761611 -0.45811,-0.314889 -1.01925,-0.446721 -1.47735,-0.76161 -0.28974,-0.199154 -0.42723,-0.601052 -0.73869,-0.761613 -0.22022,-0.113534 -0.51844,0.113534 -0.73867,0 -0.31145,-0.160561 -0.44894,-0.562458 -0.73868,-0.761611 -0.4581,-0.314886 -0.95503,-0.582097 -1.47735,-0.76161 -0.23359,-0.08028 -0.56457,0.179513 -0.73867,0 -0.17411,-0.179513 0.1741,-0.582097 0,-0.76161 -0.34822,-0.359027 -1.03689,0.227068 -1.47735,0 -0.31146,-0.160562 -0.42723,-0.60105 -0.73868,-0.761611 -0.22023,-0.113534 -0.50509,0.08028 -0.73867,0 -4.58045,-2.361327 0.36247,-0.09697 -2.21604,-0.76161 -1.86977,-0.481958 -3.4676,-1.406828 -5.17073,-2.284832 -0.49245,-0.253871 -0.9849,-0.507741 -1.47735,-0.761611 -0.49245,-0.25387 -0.93747,-0.650281 -1.47735,-0.76161 -0.72434,-0.149364 -1.4917,0.149364 -2.21603,0 -0.54805,-0.113013 -3.74465,-1.930455 -4.43206,-2.284831 -3.46465,-1.786112 0.87053,0.359026 -3.69338,-1.523221 -1.0224,-0.421656 -1.9698,-1.015481 -2.9547,-1.523221 -0.49245,-0.25387 -1.01925,-0.446724 -1.47735,-0.76161 -0.28974,-0.199153 -0.40834,-0.648077 -0.73868,-0.761612 -0.46719,-0.160561 -1.01017,0.160562 -1.47736,0 -0.33034,-0.113534 -0.42722,-0.601048 -0.73867,-0.76161 -0.29288,-0.150986 -2.06502,0.155702 -2.21603,0 -0.17411,-0.179514 0.17411,-0.582097 0,-0.761611 -0.17866,-0.184207 -3.10451,0.202385 -3.69338,0 -0.52233,-0.179513 -0.95503,-0.582097 -1.47736,-0.76161 -0.70077,-0.240842 -1.4994,0.184718 -2.21602,0 -0.53414,-0.13768 -0.95503,-0.582097 -1.47735,-0.76161 -0.23359,-0.08028 -0.49246,0 -0.73868,0 -0.49245,0 -0.9849,0 -1.47736,0 -0.49244,0 -0.9996,0.123145 -1.47735,0 -0.53413,-0.137681 -0.94321,-0.623931 -1.47735,-0.761611 -0.95549,-0.24629 -2.02034,0.321124 -2.9547,0 -0.33035,-0.113534 -0.40833,-0.648076 -0.73868,-0.76161 -0.48876,-0.167979 -4.16973,0 -5.17073,0 -0.38627,0 -2.76047,-0.10013 -2.95471,0 -0.31145,0.160561 -0.42722,0.601049 -0.73867,0.76161 -0.22023,0.113534 -0.49245,0 -0.73868,0 -0.24623,0.25387 -0.42722,0.601049 -0.73867,0.761611 -0.22024,0.113533 -0.49245,0 -0.73868,0 -0.24623,0.25387 -0.42722,0.601049 -0.73867,0.76161 -0.22024,0.113534 -0.56457,-0.179513 -0.73868,0 -0.1741,0.179513 0.17411,0.582097 0,0.76161 -0.34822,0.359027 -1.12913,-0.359026 -1.47736,0 -0.1741,0.179514 0.17411,0.582097 0,0.761611 -1.9698,0 0.24623,-0.25387 -0.73867,0.76161 -0.17411,0.179513 -0.51844,-0.113534 -0.73868,0 -0.31145,0.160562 -0.42722,0.601049 -0.73867,0.761612 -0.22023,0.113533 -0.56457,-0.179514 -0.73868,0 -0.17411,0.179513 0.17411,0.582097 0,0.76161 -0.17411,0.179513 -0.49245,0 -0.73867,0 0,0.25387 0.1741,0.582097 0,0.76161 -0.17411,0.179514 -0.56457,-0.179513 -0.73868,0 -0.17411,0.179514 0.17411,0.582097 0,0.761611 -0.34821,0.359026 -1.05508,-0.261231 -1.47735,0 -1.05569,0.653076 -1.96981,1.523221 -2.95471,2.284831 z"
         id="path5114"
         inkscape:connector-curvature="0" />
    </clipPath>
    <radialGradient
       id="lorc-stone-sphere-gradient-2"
       gradientTransform="scale(1.8488871,0.5408659)"
       cx="113.48797"
       cy="82.347774"
       fx="113.48797"
       fy="82.347774"
       r="49.992249"
       gradientUnits="userSpaceOnUse">
      <stop
         offset="0%"
         stop-color="#f5a623"
         stop-opacity="1"
         id="stop990" />
      <stop
         offset="100%"
         stop-color="#d0021b"
         stop-opacity="1"
         id="stop992" />
    </radialGradient>
    <radialGradient
       id="lorc-stone-sphere-gradient-3"
       gradientTransform="scale(0.90237194,1.1081905)"
       cx="355.24294"
       cy="122.89444"
       fx="355.24294"
       fy="122.89444"
       r="93.143233"
       gradientUnits="userSpaceOnUse">
      <stop
         offset="0%"
         stop-color="#f5a623"
         stop-opacity="1"
         id="stop995" />
      <stop
         offset="100%"
         stop-color="#d0021b"
         stop-opacity="1"
         id="stop997" />
    </radialGradient>
    <radialGradient
       id="lorc-stone-sphere-gradient-4"
       gradientTransform="scale(0.88226086,1.1334516)"
       cx="496.22529"
       cy="108.0828"
       fx="496.22529"
       fy="108.0828"
       r="49.274822"
       gradientUnits="userSpaceOnUse">
      <stop
         offset="0%"
         stop-color="#f5a623"
         stop-opacity="1"
         id="stop1000" />
      <stop
         offset="100%"
         stop-color="#d0021b"
         stop-opacity="1"
         id="stop1002" />
    </radialGradient>
    <radialGradient
       id="lorc-stone-sphere-gradient-5"
       gradientTransform="scale(1.0972648,0.91135705)"
       cx="183.79034"
       cy="172.40907"
       fx="183.79034"
       fy="172.40907"
       r="91.743512"
       gradientUnits="userSpaceOnUse">
      <stop
         offset="0%"
         stop-color="#f5a623"
         stop-opacity="1"
         id="stop1005" />
      <stop
         offset="100%"
         stop-color="#d0021b"
         stop-opacity="1"
         id="stop1007" />
    </radialGradient>
    <radialGradient
       id="lorc-stone-sphere-gradient-6"
       gradientTransform="scale(0.67626817,1.4787033)"
       cx="81.844923"
       cy="114.74415"
       fx="81.844923"
       fy="114.74415"
       r="55.663792"
       gradientUnits="userSpaceOnUse">
      <stop
         offset="0%"
         stop-color="#f5a623"
         stop-opacity="1"
         id="stop1010" />
      <stop
         offset="100%"
         stop-color="#d0021b"
         stop-opacity="1"
         id="stop1012" />
    </radialGradient>
    <radialGradient
       id="lorc-stone-sphere-gradient-7"
       gradientTransform="scale(0.66548028,1.5026741)"
       cx="671.75593"
       cy="186.11015"
       fx="671.75593"
       fy="186.11015"
       r="70.610174"
       gradientUnits="userSpaceOnUse">
      <stop
         offset="0%"
         stop-color="#f5a623"
         stop-opacity="1"
         id="stop1015" />
      <stop
         offset="100%"
         stop-color="#d0021b"
         stop-opacity="1"
         id="stop1017" />
    </radialGradient>
    <radialGradient
       id="lorc-stone-sphere-gradient-8"
       gradientTransform="scale(0.92291373,1.0835249)"
       cx="166.25945"
       cy="254.36195"
       fx="166.25945"
       fy="254.36195"
       r="85.178943"
       gradientUnits="userSpaceOnUse">
      <stop
         offset="0%"
         stop-color="#f5a623"
         stop-opacity="1"
         id="stop1020" />
      <stop
         offset="100%"
         stop-color="#d0021b"
         stop-opacity="1"
         id="stop1022" />
    </radialGradient>
    <radialGradient
       id="lorc-stone-sphere-gradient-9"
       gradientTransform="scale(1.1005778,0.90861366)"
       cx="281.17245"
       cy="353.53524"
       fx="281.17245"
       fy="353.53524"
       r="111.90948"
       gradientUnits="userSpaceOnUse">
      <stop
         offset="0%"
         stop-color="#f5a623"
         stop-opacity="1"
         id="stop1025" />
      <stop
         offset="100%"
         stop-color="#d0021b"
         stop-opacity="1"
         id="stop1027" />
    </radialGradient>
    <radialGradient
       id="lorc-stone-sphere-gradient-10"
       gradientTransform="scale(0.67809828,1.4747125)"
       cx="78.503705"
       cy="209.60116"
       fx="78.503705"
       fy="209.60116"
       r="51.731747"
       gradientUnits="userSpaceOnUse">
      <stop
         offset="0%"
         stop-color="#f5a623"
         stop-opacity="1"
         id="stop1030" />
      <stop
         offset="100%"
         stop-color="#d0021b"
         stop-opacity="1"
         id="stop1032" />
    </radialGradient>
    <radialGradient
       id="lorc-stone-sphere-gradient-11"
       gradientTransform="scale(1.2497443,0.80016365)"
       cx="275.11562"
       cy="537.51394"
       fx="275.11562"
       fy="537.51394"
       r="79.586073"
       gradientUnits="userSpaceOnUse">
      <stop
         offset="0%"
         stop-color="#f5a623"
         stop-opacity="1"
         id="stop1035" />
      <stop
         offset="100%"
         stop-color="#d0021b"
         stop-opacity="1"
         id="stop1037" />
    </radialGradient>
    <radialGradient
       id="lorc-stone-sphere-gradient-12"
       gradientTransform="scale(1.2176603,0.82124713)"
       cx="127.0112"
       cy="526.12866"
       fx="127.0112"
       fy="526.12866"
       r="73.406364"
       gradientUnits="userSpaceOnUse">
      <stop
         offset="0%"
         stop-color="#f5a623"
         stop-opacity="1"
         id="stop1040" />
      <stop
         offset="100%"
         stop-color="#d0021b"
         stop-opacity="1"
         id="stop1042" />
    </radialGradient>
  </defs>
  <g
     id="g1069"
     transform="matrix(1.0503928,-0.16595595,0.0759409,0.60445712,-31.64413,153.1121)">
    <path
       d="M 255.875,19.5 C 206.14,19.5 160.037,34.86 122,61.063 c 33.35,9.71 66.81,10.924 98.563,4.624 23.058,-19.33 50.26,-33.13 81.156,-41.75 -14.83,-2.91 -30.157,-4.437 -45.845,-4.437 z"
       class=""
       fill="url(#lorc-stone-sphere-gradient-2)"
       stroke="#4a4a4a"
       stroke-opacity="1"
       stroke-width="4"
       id="path1047"
       style="fill:url(#lorc-stone-sphere-gradient-2)" />
    <path
       d="m 340.155,34.97 c -39.835,5.745 -73.35,19.004 -100.78,39.874 31.776,38.663 58.146,80.623 77.063,126.937 l 2.125,1.064 67.906,33.812 c 9.494,-23.477 16.547,-46.637 16.124,-70.47 -14.33,-36.806 -21.36,-73.78 -21.375,-110.75 C 368.316,47.352 354.574,40.472 340.154,34.97 Z"
       class=""
       fill="url(#lorc-stone-sphere-gradient-3)"
       stroke="#4a4a4a"
       stroke-opacity="1"
       stroke-width="4"
       id="path1049"
       style="fill:url(#lorc-stone-sphere-gradient-3)" />
    <path
       d="m 400.188,68.656 c 1.4,29.016 7.45,58.036 18.406,87.188 L 478,175.188 C 462.606,132.636 435.332,95.808 400.187,68.656 Z"
       class=""
       fill="url(#lorc-stone-sphere-gradient-4)"
       stroke="#4a4a4a"
       stroke-opacity="1"
       stroke-width="4"
       id="path1051"
       style="fill:url(#lorc-stone-sphere-gradient-4)" />
    <path
       d="m 105.938,75.406 c -4.492,30.815 -4.006,59.867 2.624,90.75 l 137.22,72.438 c 19.06,-5.428 37.233,-15.08 54.124,-27.813 -18.547,-46.068 -44.764,-87.854 -76.875,-126.5 -37.813,7.266 -77.826,4.59 -117.093,-8.874 z"
       class=""
       fill="url(#lorc-stone-sphere-gradient-5)"
       stroke="#4a4a4a"
       stroke-opacity="1"
       stroke-width="4"
       id="path1053"
       style="fill:url(#lorc-stone-sphere-gradient-5)" />
    <path
       d="m 85.218,92.344 c -38.897,40.635 -63.402,95.16 -65.374,155.437 12.708,-9.902 24.53,-20.713 35.625,-32.31 -0.035,-0.084 -0.06,-0.17 -0.095,-0.25 l 0.53,-0.22 c 12.524,-13.14 24.12,-27.26 34.94,-42.25 -6.154,-27.393 -7.755,-53.692 -5.626,-80.406 z"
       class=""
       fill="url(#lorc-stone-sphere-gradient-6)"
       stroke="#4a4a4a"
       stroke-opacity="1"
       stroke-width="4"
       id="path1055"
       style="fill:url(#lorc-stone-sphere-gradient-6)" />
    <path
       d="m 421.062,176.314 c -1.416,25.13 -9.332,48.69 -18.75,71.342 27.002,39.79 45.036,85.1 54.188,132.72 22.526,-36.18 35.53,-78.914 35.53,-124.72 0,-20.237 -2.535,-39.886 -7.31,-58.625 l -63.658,-20.718 z"
       class=""
       fill="url(#lorc-stone-sphere-gradient-7)"
       stroke="#4a4a4a"
       stroke-opacity="1"
       stroke-width="4"
       id="path1057"
       style="fill:url(#lorc-stone-sphere-gradient-7)" />
    <path
       d="m 104.812,185.314 c -8.685,11.924 -17.89,23.38 -27.687,34.28 17.71,47.887 24.35,96.876 27.625,145.72 19.492,1.947 44.6,-0.948 65.28,-9.252 14.61,-38.1 33.473,-73.77 58.94,-105.218 l -124.157,-65.53 z"
       class=""
       fill="url(#lorc-stone-sphere-gradient-8)"
       stroke="#4a4a4a"
       stroke-opacity="1"
       stroke-width="4"
       id="path1059"
       style="fill:url(#lorc-stone-sphere-gradient-8)" />
    <path
       d="m 315.562,222.219 c -20.514,16.267 -43.27,28.78 -67.937,35.218 -25.362,29.9 -44.158,64.425 -58.875,102.03 25.945,16.47 49.38,35.766 66.5,60.844 53.625,-28.136 118.39,-54.17 174.875,-69.625 -9.758,-33.28 -24.35,-64.76 -43.72,-93.156 l -70.842,-35.31 z"
       class=""
       fill="url(#lorc-stone-sphere-gradient-9)"
       stroke="#4a4a4a"
       stroke-opacity="1"
       stroke-width="4"
       id="path1061"
       style="fill:url(#lorc-stone-sphere-gradient-9)" />
    <path
       d="M 62.688,234.812 C 49.61,247.83 35.511,259.882 20.22,270.78 22.822,312.05 35.984,350.42 57.063,383.22 67.465,381.65 77.003,376.533 86.25,369 83.286,323.228 77.472,278.315 62.687,234.812 Z"
       class=""
       fill="url(#lorc-stone-sphere-gradient-10)"
       stroke="#4a4a4a"
       stroke-opacity="1"
       stroke-width="4"
       id="path1063"
       style="fill:url(#lorc-stone-sphere-gradient-10)" />
    <path
       d="m 434.938,368.78 c -56.05,15.36 -121.654,41.877 -174.593,70 -10.558,17.43 -13.517,34.648 -13.938,52.814 3.145,0.124 6.294,0.187 9.47,0.187 75.177,0 142.078,-35.016 185.31,-89.655 -1.577,-11.25 -3.65,-22.378 -6.248,-33.344 z"
       class=""
       fill="url(#lorc-stone-sphere-gradient-11)"
       stroke="#4a4a4a"
       stroke-opacity="1"
       stroke-width="4"
       id="path1065"
       style="fill:url(#lorc-stone-sphere-gradient-11)" />
    <path
       d="m 176.095,373.656 c -25.448,10.093 -54.342,12.98 -77.875,9.594 -8.802,7.15 -18.705,13.085 -29.595,16.375 37.79,49.093 94.466,82.86 159.22,90.5 0.59,-18.247 3.69,-37.243 13.874,-56.156 -15.817,-24.467 -38.78,-43.577 -65.626,-60.314 z"
       class="selected"
       fill="url(#lorc-stone-sphere-gradient-12)"
       stroke="#4a4a4a"
       stroke-opacity="1"
       stroke-width="4"
       id="path1067"
       style="fill:url(#lorc-stone-sphere-gradient-12)" />
  </g>
</svg>
