<?xml version="1.0" encoding="UTF-8" standalone="no"?>
<svg
   xmlns:dc="http://purl.org/dc/elements/1.1/"
   xmlns:cc="http://creativecommons.org/ns#"
   xmlns:rdf="http://www.w3.org/1999/02/22-rdf-syntax-ns#"
   xmlns:svg="http://www.w3.org/2000/svg"
   xmlns="http://www.w3.org/2000/svg"
   xmlns:sodipodi="http://sodipodi.sourceforge.net/DTD/sodipodi-0.dtd"
   xmlns:inkscape="http://www.inkscape.org/namespaces/inkscape"
   viewBox="0 0 512 512"
   style="height: 64px; width: 64px;"
   version="1.1"
   id="svg57"
   sodipodi:docname="stone-hematite.svg"
   inkscape:version="0.92.3 (2405546, 2018-03-11)"
   inkscape:export-filename="/home/plic/Téléchargements/stone-hematite.png"
   inkscape:export-xdpi="24"
   inkscape:export-ydpi="24">
  <metadata
     id="metadata61">
    <rdf:RDF>
      <cc:Work
         rdf:about="">
        <dc:format>image/svg+xml</dc:format>
        <dc:type
           rdf:resource="http://purl.org/dc/dcmitype/StillImage" />
        <dc:title></dc:title>
      </cc:Work>
    </rdf:RDF>
  </metadata>
  <sodipodi:namedview
     pagecolor="#ffffff"
     bordercolor="#666666"
     borderopacity="1"
     objecttolerance="10"
     gridtolerance="10"
     guidetolerance="10"
     inkscape:pageopacity="0"
     inkscape:pageshadow="2"
     inkscape:window-width="1127"
     inkscape:window-height="690"
     id="namedview59"
     showgrid="false"
     inkscape:zoom="1.84375"
     inkscape:cx="251.36494"
     inkscape:cy="401.43662"
     inkscape:window-x="2473"
     inkscape:window-y="352"
     inkscape:window-maximized="0"
     inkscape:current-layer="svg57" />
  <defs
     id="defs37">
    <radialGradient
       id="gradient-2"
       gradientTransform="matrix(0.83138732,-0.0020462,0.00277586,1.127857,-0.61684813,17.299066)"
       cx="304.69641"
       cy="222.49489"
       fx="304.69641"
       fy="222.49489"
       r="195.38908"
       gradientUnits="userSpaceOnUse">
      <stop
         offset="0%"
         stop-color="#4a4a4a"
         stop-opacity="1"
         id="stop2" />
      <stop
         offset="100%"
         stop-color="#000000"
         stop-opacity="1"
         id="stop4" />
    </radialGradient>
    <radialGradient
       id="gradient-3"
       gradientTransform="scale(0.81901936,1.2209724)"
       cx="435.37402"
       cy="129.07877"
       fx="435.37402"
       fy="129.07877"
       r="79.003017"
       gradientUnits="userSpaceOnUse">
      <stop
         offset="0%"
         stop-color="#4a4a4a"
         stop-opacity="1"
         id="stop7" />
      <stop
         offset="100%"
         stop-color="#000000"
         stop-opacity="1"
         id="stop9" />
    </radialGradient>
    <radialGradient
       id="gradient-4">
      <stop
         offset="0%"
         stop-color="#4a4a4a"
         stop-opacity="1"
         id="stop12" />
      <stop
         offset="100%"
         stop-color="#000000"
         stop-opacity="1"
         id="stop14" />
    </radialGradient>
    <radialGradient
       id="gradient-5">
      <stop
         offset="0%"
         stop-color="#4a4a4a"
         stop-opacity="1"
         id="stop17" />
      <stop
         offset="100%"
         stop-color="#000000"
         stop-opacity="1"
         id="stop19" />
    </radialGradient>
    <radialGradient
       id="gradient-6">
      <stop
         offset="0%"
         stop-color="#4a4a4a"
         stop-opacity="1"
         id="stop22" />
      <stop
         offset="100%"
         stop-color="#000000"
         stop-opacity="1"
         id="stop24" />
    </radialGradient>
    <radialGradient
       id="gradient-7">
      <stop
         offset="0%"
         stop-color="#4a4a4a"
         stop-opacity="1"
         id="stop27" />
      <stop
         offset="100%"
         stop-color="#000000"
         stop-opacity="1"
         id="stop29" />
    </radialGradient>
    <radialGradient
       id="gradient-8">
      <stop
         offset="0%"
         stop-color="#4a4a4a"
         stop-opacity="1"
         id="stop32" />
      <stop
         offset="100%"
         stop-color="#000000"
         stop-opacity="1"
         id="stop34" />
    </radialGradient>
  </defs>
  <g
     class=""
     transform="translate(0,0)"
     style="touch-action: none;"
     id="g55">
    <g
       id="g53">
      <path
         d="M 254.37822,44.111475 244.543,43.745 c 0,0 -78.38276,24.330593 -103.88576,70.36559 -25.83,46.624 32.93576,69.58841 1.18576,114.88441 -21.79,31.088 -45.966,65.665 -45.966,110.42 0,86.952 70.57,158.216 157.445,158.218 86.877,0.002 157.446,-71.266 157.444,-158.22 0,-44.647 -24.275,-79.385 -45.955,-110.407 C 332.843,183.268 418.95715,122.24824 393.13715,75.643237 367.64215,29.624237 262.13,43.82 262.13,43.82 l -7.75178,0.291475 z"
         class=""
         id="path39"
         inkscape:connector-curvature="0"
         style="fill:url(#gradient-2);stroke:#4a4a4a;stroke-width:10;stroke-opacity:1"
         sodipodi:nodetypes="ccccssccccccc" />
      <path
         d="m 261.338,91.515 c 6.923,15.817 15.76,34.54 26.502,53.93 2.427,4.382 4.61,8.263 6.693,11.932 -8.75,-5.492 -17.206,-7.09 -23.43,-3.498 -12.884,7.438 45.08178,-52.51666 59.88978,-26.86966 14.808,25.65 -19.14678,127.19166 -6.26278,119.75366 7.982,-4.61 10.415,-16.658 7.596,-31.256 4.793,6.682 10.236,14.287 17.166,24.203 3.74,5.353 7.452,10.707 11.047,16.095 l -32.55,28.63 -96.86,-48.087 30.208,-144.834 z"
         class=""
         id="path41"
         style="fill:url(#gradient-3)"
         inkscape:connector-curvature="0"
         sodipodi:nodetypes="ccccccccccccc" />
      <path
         d="m 239.803,103.232 c 79.61747,-53.366361 -16.23067,77.81867 -24.346,116.728 -2.022,-3.156 -4.77,-4.95 -8.22,-5.028 -13.51,-0.304 -32.587,25.708 -42.6,58.093 -10.013,32.386 -7.177,58.89 6.336,59.194 3.61,0.08 7.62,-1.734 11.748,-5.033 l -7.93,25.036 -59.503,-24.89 c 3.816,-32.54 22.478,-59.962 41.858,-87.61 31.478,-44.904 34.522,-45.61 60.605,-92.692 8.453,-15.256 15.815,-30.24 22.053,-43.798 z"
         class=""
         id="path43"
         inkscape:connector-curvature="0"
         style="fill:url(#gradient-4);stroke:#4a4a4a;stroke-width:5;stroke-opacity:1"
         sodipodi:nodetypes="cccccccccccc" />
      <path
         d="M225.391 254.362L266.441 274.744C242.563 279.602 224.593 300.716 224.593 326.031C224.593 354.941 248.026 378.374 276.933 378.374C292.016 378.374 305.6 371.987 315.151 361.778L311.579 394.685L235.539 416.865L191.231 362.212L225.391 254.365Z"
         class=""
         fill="url(#gradient-5)"
         stroke="#4a4a4a"
         stroke-opacity="1"
         stroke-width="5"
         id="path45" />
      <path
         d="M370.649 271.802C374.837 278.88 378.664 286.068 381.869 293.455C380.861 293.262 379.837 293.15 378.796 293.15C364.476 293.15 352.864 311.978 352.864 335.197C352.864 358.417 364.474 377.244 378.796 377.244C381.874 377.244 384.826 376.368 387.566 374.771C383.816 389.173 377.832 402.677 370.006 414.881L330.198 396.347L340.872 297.995L370.65 271.805Z"
         class=""
         fill="url(#gradient-6)"
         stroke="#4a4a4a"
         stroke-opacity="1"
         stroke-width="10"
         id="path47" />
      <path
         d="M114.799 347.389L164.153 368.029C154.639 371.873 147.923 381.191 147.923 392.081C147.923 406.401 159.533 418.013 173.855 418.013C185.175 418.013 194.795 410.755 198.333 400.643L219.953 427.31L211.319 472.414C157.617 455.25 118.101 406.084 114.799 347.389Z"
         class=""
         fill="url(#gradient-7)"
         stroke="#4a4a4a"
         stroke-opacity="1"
         stroke-width="10"
         id="path49" />
      <path
         d="M334.093 418.772L358.633 430.2C333.191 460.012 295.463 478.944 253.323 478.943C245.195 478.943 237.233 478.233 229.489 476.881L237.356 435.801L267.724 426.944C261.497 431.839 257.46 437.009 256.962 441.517C255.866 451.447 272.246 454.387 293.547 448.087C314.793 441.802 332.911 428.697 334.094 418.774Z"
         class="selected"
         fill="url(#gradient-8)"
         stroke="#4a4a4a"
         stroke-opacity="1"
         stroke-width="10"
         id="path51" />
    </g>
  </g>
</svg>
