<svg xmlns="http://www.w3.org/2000/svg" viewBox="0 0 512 512" style="height: 64px; width: 64px;"><defs><radialGradient id="gradient-2"><stop offset="0%" stop-color="#d0021b" stop-opacity="1"></stop><stop offset="100%" stop-color="#f48894" stop-opacity="1"></stop></radialGradient><radialGradient id="gradient-3"><stop offset="0%" stop-color="#4a4a4a" stop-opacity="1"></stop><stop offset="100%" stop-color="#000000" stop-opacity="1"></stop></radialGradient><radialGradient id="gradient-4"><stop offset="0%" stop-color="#4a4a4a" stop-opacity="1"></stop><stop offset="100%" stop-color="#000000" stop-opacity="1"></stop></radialGradient><radialGradient id="gradient-5"><stop offset="0%" stop-color="#4a4a4a" stop-opacity="1"></stop><stop offset="100%" stop-color="#000000" stop-opacity="1"></stop></radialGradient><radialGradient id="gradient-6"><stop offset="0%" stop-color="#4a4a4a" stop-opacity="1"></stop><stop offset="100%" stop-color="#000000" stop-opacity="1"></stop></radialGradient><radialGradient id="gradient-7"><stop offset="0%" stop-color="#4a4a4a" stop-opacity="1"></stop><stop offset="100%" stop-color="#000000" stop-opacity="1"></stop></radialGradient><radialGradient id="gradient-8"><stop offset="0%" stop-color="#d0021b" stop-opacity="1"></stop><stop offset="100%" stop-color="#f49da7" stop-opacity="1"></stop></radialGradient></defs><g class="" transform="translate(0,0)" style="touch-action: none;"><g><path d="M246.785 37.605L244.543 43.745C244.543 43.745 226.906 91.94 201.403 137.975C175.573 184.599 173.593 183.699 141.843 228.995C120.053 260.083 95.877 294.66 95.877 339.415C95.877 426.367 166.447 497.631 253.322 497.633C340.199 497.635 410.768 426.367 410.766 339.413C410.766 294.766 386.491 260.028 364.811 229.006C332.843 183.268 330.008 182.994 304.188 136.389C278.693 90.37 262.13 43.82 262.13 43.82L259.92 37.603L246.785 37.603Z" class="" fill="url(#gradient-2)" stroke="#4a4a4a" stroke-opacity="1" stroke-width="10"></path><path d="M261.338 91.515C268.261 107.332 277.098 126.055 287.84 145.445C290.267 149.827 292.45 153.708 294.533 157.377C285.783 151.885 277.327 150.287 271.103 153.879C258.219 161.317 259.778 188.142 274.586 213.789C289.394 239.439 311.846 254.201 324.73 246.763C332.712 242.153 335.145 230.105 332.326 215.507C337.119 222.189 342.562 229.794 349.492 239.71C353.232 245.063 356.944 250.417 360.539 255.805L327.989 284.435L231.129 236.348L261.337 91.514Z" class="" fill="url(#gradient-3)" stroke="#4a4a4a" stroke-opacity="1" stroke-width="10"></path><path d="M239.803 103.232L215.457 219.96C213.435 216.804 210.687 215.01 207.237 214.932C193.727 214.628 174.65 240.64 164.637 273.025C154.624 305.411 157.46 331.915 170.973 332.219C174.583 332.299 178.593 330.485 182.721 327.186L174.791 352.222L115.288 327.332C119.104 294.792 137.766 267.37 157.146 239.722C188.624 194.818 191.668 194.112 217.751 147.03C226.204 131.774 233.566 116.79 239.804 103.232Z" class="" fill="url(#gradient-4)" stroke="#4a4a4a" stroke-opacity="1" stroke-width="5"></path><path d="M225.391 254.362L266.441 274.744C242.563 279.602 224.593 300.716 224.593 326.031C224.593 354.941 248.026 378.374 276.933 378.374C292.016 378.374 305.6 371.987 315.151 361.778L311.579 394.685L235.539 416.865L191.231 362.212L225.391 254.365Z" class="" fill="url(#gradient-5)" stroke="#4a4a4a" stroke-opacity="1" stroke-width="5"></path><path d="M370.649 271.802C374.837 278.88 378.664 286.068 381.869 293.455C380.861 293.262 379.837 293.15 378.796 293.15C364.476 293.15 352.864 311.978 352.864 335.197C352.864 358.417 364.474 377.244 378.796 377.244C381.874 377.244 384.826 376.368 387.566 374.771C383.816 389.173 377.832 402.677 370.006 414.881L330.198 396.347L340.872 297.995L370.65 271.805Z" class="" fill="url(#gradient-6)" stroke="#4a4a4a" stroke-opacity="1" stroke-width="10"></path><path d="M114.799 347.389L164.153 368.029C154.639 371.873 147.923 381.191 147.923 392.081C147.923 406.401 159.533 418.013 173.855 418.013C185.175 418.013 194.795 410.755 198.333 400.643L219.953 427.31L211.319 472.414C157.617 455.25 118.101 406.084 114.799 347.389Z" class="" fill="url(#gradient-7)" stroke="#4a4a4a" stroke-opacity="1" stroke-width="10"></path><path d="M334.093 418.772L358.633 430.2C333.191 460.012 295.463 478.944 253.323 478.943C245.195 478.943 237.233 478.233 229.489 476.881L237.356 435.801L267.724 426.944C261.497 431.839 257.46 437.009 256.962 441.517C255.866 451.447 272.246 454.387 293.547 448.087C314.793 441.802 332.911 428.697 334.094 418.774Z" class="selected" fill="url(#gradient-8)" stroke="#4a4a4a" stroke-opacity="1" stroke-width="10"></path></g></g></svg>