<svg xmlns="http://www.w3.org/2000/svg" viewBox="0 0 512 512" style="height: 64px; width: 64px;"><defs><radialGradient id="skoll-topaz-gradient-2"><stop offset="0%" stop-color="#48baff" stop-opacity="1"></stop><stop offset="100%" stop-color="#4a90e2" stop-opacity="1"></stop></radialGradient><radialGradient id="skoll-topaz-gradient-3"><stop offset="0%" stop-color="#4a90e2" stop-opacity="1"></stop><stop offset="100%" stop-color="#48baff" stop-opacity="1"></stop></radialGradient><radialGradient id="skoll-topaz-gradient-4"><stop offset="0%" stop-color="#4a90e2" stop-opacity="1"></stop><stop offset="100%" stop-color="#48baff" stop-opacity="1"></stop></radialGradient><radialGradient id="skoll-topaz-gradient-5"><stop offset="0%" stop-color="#4a90e2" stop-opacity="1"></stop><stop offset="100%" stop-color="#48baff" stop-opacity="1"></stop></radialGradient><radialGradient id="skoll-topaz-gradient-6"><stop offset="0%" stop-color="#b8e986" stop-opacity="1"></stop><stop offset="100%" stop-color="#629f1c" stop-opacity="1"></stop></radialGradient><radialGradient id="skoll-topaz-gradient-7"><stop offset="0%" stop-color="#b8e986" stop-opacity="1"></stop><stop offset="100%" stop-color="#629f1c" stop-opacity="1"></stop></radialGradient><radialGradient id="skoll-topaz-gradient-8"><stop offset="0%" stop-color="#b8e986" stop-opacity="1"></stop><stop offset="100%" stop-color="#629f1c" stop-opacity="1"></stop></radialGradient><radialGradient id="skoll-topaz-gradient-9"><stop offset="0%" stop-color="#b8e986" stop-opacity="1"></stop><stop offset="100%" stop-color="#629f1c" stop-opacity="1"></stop></radialGradient><radialGradient id="skoll-topaz-gradient-10"><stop offset="0%" stop-color="#b8e986" stop-opacity="1"></stop><stop offset="100%" stop-color="#629f1c" stop-opacity="1"></stop></radialGradient><radialGradient id="skoll-topaz-gradient-11"><stop offset="0%" stop-color="#b8e986" stop-opacity="1"></stop><stop offset="100%" stop-color="#629f1c" stop-opacity="1"></stop></radialGradient><radialGradient id="skoll-topaz-gradient-12"><stop offset="0%" stop-color="#b8e986" stop-opacity="1"></stop><stop offset="100%" stop-color="#629f1c" stop-opacity="1"></stop></radialGradient></defs><g class="" transform="translate(0,0)" style=""><g><path d="M430.516 311.484C430.516 445.826 285.086 529.791 168.742 462.619C114.747 431.445 81.484 373.833 81.484 311.484C81.484 158.019 256 26 256 26C256 26 430.516 158.02 430.516 311.484Z" class="selected" fill="url(#skoll-topaz-gradient-2)" stroke="#4a4a4a" stroke-opacity="1" stroke-width="4"></path><path d="M378.252 311.484C378.252 276.158 365.72 237.651 340.982 197.032C317.997 159.278 289.01 127.234 268.746 107.003L256 94.303L243.3 107.037C223.068 127.268 194.239 159.301 171.22 197.021C146.336 237.809 133.725 276.315 133.725 311.484C133.994 405.602 236.049 464.135 317.423 416.843C354.973 395.02 378.128 354.915 378.252 311.484Z" class="" fill="url(#skoll-topaz-gradient-3)" stroke="#4a4a4a" stroke-opacity="1" stroke-width="4"></path><path d="M360.269 311.484C360.269 391.755 273.373 441.924 203.856 401.789C171.594 383.162 151.719 348.738 151.719 311.484C151.719 240.674 209.929 165.966 256.045 119.738C302.633 166.236 360.269 240.383 360.269 311.484Z" class="" fill="url(#skoll-topaz-gradient-4)" stroke="#4a4a4a" stroke-opacity="1" stroke-width="4"></path><path d="M256.067 144.015C222.81 179.645 168.579 247.576 168.579 311.484C168.634 359.741 207.743 398.845 256 398.894C98.276 306.381 254.1 164.584 256.079 143.993Z" class="" fill="url(#skoll-topaz-gradient-5)" stroke="#4a4a4a" stroke-opacity="1" stroke-width="4"></path></g></g></svg>