<svg xmlns="http://www.w3.org/2000/svg" viewBox="0 0 512 512" style="height: 64px; width: 64px;"><defs><radialGradient id="gradient-2"><stop offset="0%" stop-color="#dcb4f2" stop-opacity="1"></stop><stop offset="100%" stop-color="#884da7" stop-opacity="1"></stop></radialGradient><radialGradient id="gradient-4"><stop offset="0%" stop-color="#e1c0f3" stop-opacity="1"></stop><stop offset="100%" stop-color="#884da7" stop-opacity="1"></stop></radialGradient><radialGradient id="gradient-5"><stop offset="0%" stop-color="#d3aae9" stop-opacity="1"></stop><stop offset="100%" stop-color="#884da7" stop-opacity="1"></stop></radialGradient><radialGradient id="gradient-6"><stop offset="0%" stop-color="#c796e1" stop-opacity="1"></stop><stop offset="100%" stop-color="#884da7" stop-opacity="1"></stop></radialGradient><radialGradient id="gradient-7"><stop offset="0%" stop-color="#c59adc" stop-opacity="1"></stop><stop offset="100%" stop-color="#884da7" stop-opacity="1"></stop></radialGradient><radialGradient id="gradient-9"><stop offset="0%" stop-color="#d4a9eb" stop-opacity="1"></stop><stop offset="100%" stop-color="#884da7" stop-opacity="1"></stop></radialGradient></defs><g class="" transform="translate(0,0)" style="touch-action: none;"><g><path d="M253.844 15.563L173.928 99.673L176.198 158.483L226.808 194.703L258.688 376.668L269.468 349.778L281.344 114.428L300.01 115.368L290.875 296.375L319.248 225.602L327.398 117.612L328.322 99.674L253.844 15.562Z" class="selected" fill="url(#gradient-2)" stroke="#4a4a4a" stroke-opacity="1" stroke-width="10"></path><path d="M392.809 66.133L346.194 116.9L342.337 168.004L352.857 141.764L383.263 128.146L392.808 66.133Z" class="" fill="#884da7" fill-opacity="1" stroke="#4a4a4a" stroke-opacity="1" stroke-width="10"></path><path d="M453.119 117.338L367.392 155.732L264.81 411.62L279.395 494.87L287.205 494.87L434.818 201.787L451.51 210.193L308.13 494.87L332.54 494.87L479.125 203.068L453.119 117.338Z" class="" fill="url(#gradient-4)" stroke="#4a4a4a" stroke-opacity="1" stroke-width="10"></path><path d="M112.923 136.18L58.79 235.29L127.877 494.87L221.473 494.87L170.355 220.146L188.729 216.729L240.481 494.869L260.419 494.869L209.719 205.452L112.923 136.179Z" class="" fill="url(#gradient-5)" stroke="#4a4a4a" stroke-opacity="1" stroke-width="10"></path><path d="M458.386 368.373L405.44 391.38L355.615 490.566L425.363 453.904L425.363 453.902L458.387 368.372Z" class="" fill="url(#gradient-6)" stroke="#4a4a4a" stroke-opacity="1" stroke-width="10"></path><path d="M35.236 368.598L77.706 495.318L108.656 495.318L80.603 389.902L35.237 368.598Z" class="" fill="url(#gradient-7)" stroke="#4a4a4a" stroke-opacity="1" stroke-width="10"></path><path d="M83.968 514.006L84.064 514.296L85.714 514.006L83.967 514.006Z" class="" fill="#884da7" fill-opacity="1" stroke="#4a4a4a" stroke-opacity="1" stroke-width="10"></path></g></g></svg>