<?xml version="1.0" encoding="UTF-8" standalone="no"?>
<svg
   xmlns:dc="http://purl.org/dc/elements/1.1/"
   xmlns:cc="http://creativecommons.org/ns#"
   xmlns:rdf="http://www.w3.org/1999/02/22-rdf-syntax-ns#"
   xmlns:svg="http://www.w3.org/2000/svg"
   xmlns="http://www.w3.org/2000/svg"
   xmlns:sodipodi="http://sodipodi.sourceforge.net/DTD/sodipodi-0.dtd"
   xmlns:inkscape="http://www.inkscape.org/namespaces/inkscape"
   viewBox="0 0 512 512"
   style="height: 64px; width: 64px;"
   version="1.1"
   id="svg85"
   sodipodi:docname="stone-opale.svg"
   inkscape:export-filename="/home/plic/Téléchargements/stone-opale.png"
   inkscape:export-xdpi="60"
   inkscape:export-ydpi="60"
   inkscape:version="1.0.1 (0767f8302a, 2020-10-17)">
  <metadata
     id="metadata89">
    <rdf:RDF>
      <cc:Work
         rdf:about="">
        <dc:format>image/svg+xml</dc:format>
        <dc:type
           rdf:resource="http://purl.org/dc/dcmitype/StillImage" />
        <dc:title></dc:title>
      </cc:Work>
    </rdf:RDF>
  </metadata>
  <sodipodi:namedview
     pagecolor="#ffffff"
     bordercolor="#666666"
     borderopacity="1"
     objecttolerance="10"
     gridtolerance="10"
     guidetolerance="10"
     inkscape:pageopacity="0"
     inkscape:pageshadow="2"
     inkscape:window-width="1754"
     inkscape:window-height="839"
     id="namedview87"
     showgrid="false"
     inkscape:zoom="0.69605824"
     inkscape:cx="52.499089"
     inkscape:cy="247.7449"
     inkscape:window-x="3925"
     inkscape:window-y="542"
     inkscape:window-maximized="0"
     inkscape:current-layer="svg85" />
  <defs
     id="defs57">
    <radialGradient
       id="lorc-stone-sphere-gradient-2"
       gradientTransform="scale(1.8488871,0.5408659)"
       cx="113.48797"
       cy="82.347774"
       fx="113.48797"
       fy="82.347774"
       r="49.992249"
       gradientUnits="userSpaceOnUse">
      <stop
         offset="0%"
         stop-color="#50e3c2"
         stop-opacity="1"
         id="stop2" />
      <stop
         offset="100%"
         stop-color="#48baff"
         stop-opacity="1"
         id="stop4" />
    </radialGradient>
    <radialGradient
       id="lorc-stone-sphere-gradient-3"
       gradientTransform="scale(0.90237194,1.1081905)"
       cx="355.24294"
       cy="122.89444"
       fx="355.24294"
       fy="122.89444"
       r="93.143233"
       gradientUnits="userSpaceOnUse">
      <stop
         offset="0%"
         stop-color="#b8e986"
         stop-opacity="1"
         id="stop7" />
      <stop
         offset="100%"
         stop-color="#7ed321"
         stop-opacity="1"
         id="stop9" />
    </radialGradient>
    <radialGradient
       id="lorc-stone-sphere-gradient-4"
       gradientTransform="scale(0.88226086,1.1334516)"
       cx="496.22529"
       cy="108.0828"
       fx="496.22529"
       fy="108.0828"
       r="49.274822"
       gradientUnits="userSpaceOnUse">
      <stop
         offset="0%"
         stop-color="#50e3c2"
         stop-opacity="1"
         id="stop12" />
      <stop
         offset="100%"
         stop-color="#48baff"
         stop-opacity="1"
         id="stop14" />
    </radialGradient>
    <radialGradient
       id="lorc-stone-sphere-gradient-5"
       gradientTransform="scale(1.0972648,0.91135705)"
       cx="183.79034"
       cy="172.40907"
       fx="183.79034"
       fy="172.40907"
       r="91.743512"
       gradientUnits="userSpaceOnUse">
      <stop
         offset="0%"
         stop-color="#50e3c2"
         stop-opacity="1"
         id="stop17" />
      <stop
         offset="100%"
         stop-color="#48baff"
         stop-opacity="1"
         id="stop19" />
    </radialGradient>
    <radialGradient
       id="lorc-stone-sphere-gradient-6"
       gradientTransform="scale(0.67626817,1.4787033)"
       cx="81.844923"
       cy="114.74415"
       fx="81.844923"
       fy="114.74415"
       r="55.663792"
       gradientUnits="userSpaceOnUse">
      <stop
         offset="0%"
         stop-color="#fafad2"
         stop-opacity="1"
         id="stop22" />
      <stop
         offset="100%"
         stop-color="#ffd700"
         stop-opacity="1"
         id="stop24" />
    </radialGradient>
    <radialGradient
       id="lorc-stone-sphere-gradient-7"
       gradientTransform="scale(0.66548028,1.5026741)"
       cx="671.75593"
       cy="186.11015"
       fx="671.75593"
       fy="186.11015"
       r="70.610174"
       gradientUnits="userSpaceOnUse">
      <stop
         offset="0%"
         stop-color="#fafad2"
         stop-opacity="1"
         id="stop27" />
      <stop
         offset="100%"
         stop-color="#ffd700"
         stop-opacity="1"
         id="stop29" />
    </radialGradient>
    <radialGradient
       id="lorc-stone-sphere-gradient-8"
       gradientTransform="scale(0.92291373,1.0835249)"
       cx="166.25945"
       cy="254.36195"
       fx="166.25945"
       fy="254.36195"
       r="85.178943"
       gradientUnits="userSpaceOnUse">
      <stop
         offset="0%"
         stop-color="#f7aab2"
         stop-opacity="1"
         id="stop32" />
      <stop
         offset="100%"
         stop-color="#f47283"
         stop-opacity="1"
         id="stop34" />
    </radialGradient>
    <radialGradient
       id="lorc-stone-sphere-gradient-9"
       gradientTransform="scale(1.1005778,0.90861366)"
       cx="281.17245"
       cy="353.53524"
       fx="281.17245"
       fy="353.53524"
       r="111.90948"
       gradientUnits="userSpaceOnUse">
      <stop
         offset="0%"
         stop-color="#7ed321"
         stop-opacity="1"
         id="stop37" />
      <stop
         offset="100%"
         stop-color="#417505"
         stop-opacity="1"
         id="stop39" />
    </radialGradient>
    <radialGradient
       id="lorc-stone-sphere-gradient-10"
       gradientTransform="scale(0.67809828,1.4747125)"
       cx="78.503705"
       cy="209.60116"
       fx="78.503705"
       fy="209.60116"
       r="51.731747"
       gradientUnits="userSpaceOnUse">
      <stop
         offset="0%"
         stop-color="#e4bcbc"
         stop-opacity="1"
         id="stop42" />
      <stop
         offset="100%"
         stop-color="#d98c8c"
         stop-opacity="1"
         id="stop44" />
    </radialGradient>
    <radialGradient
       id="lorc-stone-sphere-gradient-11"
       gradientTransform="scale(1.2497443,0.80016365)"
       cx="275.11562"
       cy="537.51394"
       fx="275.11562"
       fy="537.51394"
       r="79.586073"
       gradientUnits="userSpaceOnUse">
      <stop
         offset="0%"
         stop-color="#f7f1a9"
         stop-opacity="1"
         id="stop47" />
      <stop
         offset="100%"
         stop-color="#ebe16b"
         stop-opacity="1"
         id="stop49" />
    </radialGradient>
    <radialGradient
       id="lorc-stone-sphere-gradient-12"
       gradientTransform="scale(1.2176603,0.82124713)"
       cx="127.0112"
       cy="526.12866"
       fx="127.0112"
       fy="526.12866"
       r="73.406364"
       gradientUnits="userSpaceOnUse">
      <stop
         offset="0%"
         stop-color="#fc88fc"
         stop-opacity="1"
         id="stop52" />
      <stop
         offset="100%"
         stop-color="#bd10e0"
         stop-opacity="1"
         id="stop54" />
    </radialGradient>
  </defs>
  <g
     class=""
     transform="matrix(0.92156335,-0.71745925,0.41602266,0.52182624,-84.424947,310.34914)"
     id="g83">
    <g
       id="g81">
      <path
         d="M 255.875,19.5 C 206.14,19.5 160.037,34.86 122,61.063 c 33.35,9.71 66.81,10.924 98.563,4.624 23.058,-19.33 50.26,-33.13 81.156,-41.75 -14.83,-2.91 -30.157,-4.437 -45.845,-4.437 z"
         class=""
         fill="url(#lorc-stone-sphere-gradient-2)"
         stroke="#4a4a4a"
         stroke-opacity="1"
         stroke-width="4"
         id="path59"
         style="fill:url(#lorc-stone-sphere-gradient-2)" />
      <path
         d="m 340.155,34.97 c -39.835,5.745 -73.35,19.004 -100.78,39.874 31.776,38.663 58.146,80.623 77.063,126.937 l 2.125,1.064 67.906,33.812 c 9.494,-23.477 16.547,-46.637 16.124,-70.47 -14.33,-36.806 -21.36,-73.78 -21.375,-110.75 C 368.316,47.352 354.574,40.472 340.154,34.97 Z"
         class=""
         fill="url(#lorc-stone-sphere-gradient-3)"
         stroke="#4a4a4a"
         stroke-opacity="1"
         stroke-width="4"
         id="path61"
         style="fill:url(#lorc-stone-sphere-gradient-3)" />
      <path
         d="m 400.188,68.656 c 1.4,29.016 7.45,58.036 18.406,87.188 L 478,175.188 C 462.606,132.636 435.332,95.808 400.187,68.656 Z"
         class=""
         fill="url(#lorc-stone-sphere-gradient-4)"
         stroke="#4a4a4a"
         stroke-opacity="1"
         stroke-width="4"
         id="path63"
         style="fill:url(#lorc-stone-sphere-gradient-4)" />
      <path
         d="m 105.938,75.406 c -4.492,30.815 -4.006,59.867 2.624,90.75 l 137.22,72.438 c 19.06,-5.428 37.233,-15.08 54.124,-27.813 -18.547,-46.068 -44.764,-87.854 -76.875,-126.5 -37.813,7.266 -77.826,4.59 -117.093,-8.874 z"
         class=""
         fill="url(#lorc-stone-sphere-gradient-5)"
         stroke="#4a4a4a"
         stroke-opacity="1"
         stroke-width="4"
         id="path65"
         style="fill:url(#lorc-stone-sphere-gradient-5)" />
      <path
         d="m 85.218,92.344 c -38.897,40.635 -63.402,95.16 -65.374,155.437 12.708,-9.902 24.53,-20.713 35.625,-32.31 -0.035,-0.084 -0.06,-0.17 -0.095,-0.25 l 0.53,-0.22 c 12.524,-13.14 24.12,-27.26 34.94,-42.25 -6.154,-27.393 -7.755,-53.692 -5.626,-80.406 z"
         class=""
         fill="url(#lorc-stone-sphere-gradient-6)"
         stroke="#4a4a4a"
         stroke-opacity="1"
         stroke-width="4"
         id="path67"
         style="fill:url(#lorc-stone-sphere-gradient-6)" />
      <path
         d="m 421.062,176.314 c -1.416,25.13 -9.332,48.69 -18.75,71.342 27.002,39.79 45.036,85.1 54.188,132.72 22.526,-36.18 35.53,-78.914 35.53,-124.72 0,-20.237 -2.535,-39.886 -7.31,-58.625 l -63.658,-20.718 z"
         class=""
         fill="url(#lorc-stone-sphere-gradient-7)"
         stroke="#4a4a4a"
         stroke-opacity="1"
         stroke-width="4"
         id="path69"
         style="fill:url(#lorc-stone-sphere-gradient-7)" />
      <path
         d="m 104.812,185.314 c -8.685,11.924 -17.89,23.38 -27.687,34.28 17.71,47.887 24.35,96.876 27.625,145.72 19.492,1.947 44.6,-0.948 65.28,-9.252 14.61,-38.1 33.473,-73.77 58.94,-105.218 l -124.157,-65.53 z"
         class=""
         fill="url(#lorc-stone-sphere-gradient-8)"
         stroke="#4a4a4a"
         stroke-opacity="1"
         stroke-width="4"
         id="path71"
         style="fill:url(#lorc-stone-sphere-gradient-8)" />
      <path
         d="m 315.562,222.219 c -20.514,16.267 -43.27,28.78 -67.937,35.218 -25.362,29.9 -44.158,64.425 -58.875,102.03 25.945,16.47 49.38,35.766 66.5,60.844 53.625,-28.136 118.39,-54.17 174.875,-69.625 -9.758,-33.28 -24.35,-64.76 -43.72,-93.156 l -70.842,-35.31 z"
         class=""
         fill="url(#lorc-stone-sphere-gradient-9)"
         stroke="#4a4a4a"
         stroke-opacity="1"
         stroke-width="4"
         id="path73"
         style="fill:url(#lorc-stone-sphere-gradient-9)" />
      <path
         d="M 62.688,234.812 C 49.61,247.83 35.511,259.882 20.22,270.78 22.822,312.05 35.984,350.42 57.063,383.22 67.465,381.65 77.003,376.533 86.25,369 83.286,323.228 77.472,278.315 62.687,234.812 Z"
         class=""
         fill="url(#lorc-stone-sphere-gradient-10)"
         stroke="#4a4a4a"
         stroke-opacity="1"
         stroke-width="4"
         id="path75"
         style="fill:url(#lorc-stone-sphere-gradient-10)" />
      <path
         d="m 434.938,368.78 c -56.05,15.36 -121.654,41.877 -174.593,70 -10.558,17.43 -13.517,34.648 -13.938,52.814 3.145,0.124 6.294,0.187 9.47,0.187 75.177,0 142.078,-35.016 185.31,-89.655 -1.577,-11.25 -3.65,-22.378 -6.248,-33.344 z"
         class=""
         fill="url(#lorc-stone-sphere-gradient-11)"
         stroke="#4a4a4a"
         stroke-opacity="1"
         stroke-width="4"
         id="path77"
         style="fill:url(#lorc-stone-sphere-gradient-11)" />
      <path
         d="m 176.095,373.656 c -25.448,10.093 -54.342,12.98 -77.875,9.594 -8.802,7.15 -18.705,13.085 -29.595,16.375 37.79,49.093 94.466,82.86 159.22,90.5 0.59,-18.247 3.69,-37.243 13.874,-56.156 -15.817,-24.467 -38.78,-43.577 -65.626,-60.314 z"
         class="selected"
         fill="url(#lorc-stone-sphere-gradient-12)"
         stroke="#4a4a4a"
         stroke-opacity="1"
         stroke-width="4"
         id="path79"
         style="fill:url(#lorc-stone-sphere-gradient-12)" />
    </g>
  </g>
</svg>
