<svg xmlns="http://www.w3.org/2000/svg" viewBox="0 0 512 512" style="height: 64px; width: 64px;"><defs><radialGradient id="gradient-2"><stop offset="0%" stop-color="#7ed321" stop-opacity="1"></stop><stop offset="100%" stop-color="#48baff" stop-opacity="1"></stop></radialGradient><radialGradient id="gradient-3"><stop offset="0%" stop-color="#48baff" stop-opacity="1"></stop><stop offset="100%" stop-color="#7ed321" stop-opacity="1"></stop></radialGradient><radialGradient id="gradient-4"><stop offset="0%" stop-color="#7ed321" stop-opacity="1"></stop><stop offset="100%" stop-color="#48baff" stop-opacity="1"></stop></radialGradient><radialGradient id="gradient-5"><stop offset="0%" stop-color="#48baff" stop-opacity="1"></stop><stop offset="100%" stop-color="#7ed321" stop-opacity="1"></stop></radialGradient><radialGradient id="gradient-7"><stop offset="0%" stop-color="#c9c9c9" stop-opacity="1"></stop><stop offset="100%" stop-color="#e7e7e7" stop-opacity="1"></stop></radialGradient><radialGradient id="gradient-8"><stop offset="0%" stop-color="#c9c9c9" stop-opacity="1"></stop><stop offset="100%" stop-color="#e5e5e5" stop-opacity="1"></stop></radialGradient><radialGradient id="gradient-13"><stop offset="0%" stop-color="#c9c9c9" stop-opacity="1"></stop><stop offset="100%" stop-color="#e7e7e7" stop-opacity="1"></stop></radialGradient><radialGradient id="gradient-14"><stop offset="0%" stop-color="#c9c9c9" stop-opacity="1"></stop><stop offset="100%" stop-color="#e7e7e7" stop-opacity="1"></stop></radialGradient><radialGradient id="gradient-15"><stop offset="0%" stop-color="#c9c9c9" stop-opacity="1"></stop><stop offset="100%" stop-color="#e7e7e7" stop-opacity="1"></stop></radialGradient></defs><g class="" transform="translate(0,0)" style="touch-action: none;"><g><path d="M228.813 23L68.75 72.28L39.5 182.095L87.03 160.875L97.47 156.22L99.97 167.375L108.72 206.5L115.125 235.03L93.375 215.5L77.655 201.375L49.437 233.719L190.094 369.719L199.75 329.029L207.28 297.155L217.687 328.218L272.407 491.81L432.343 465.5L478.093 262.562L393.53 113.844L228.814 23Z" class="" fill="url(#gradient-2)" stroke="#4a4a4a" stroke-opacity="1" stroke-width="10"></path><path d="M171.125 72.875L143.312 112.781L140.062 186.221L112.875 97.281L171.125 72.876Z" class="" fill="url(#gradient-3)" stroke="#4a4a4a" stroke-opacity="1" stroke-width="10"></path><path d="M188.969 166.281L302.093 321.531L407 355.407L299.625 354.563L188.969 226.563L188.969 166.283Z" class="" fill="url(#gradient-4)" stroke="#4a4a4a" stroke-opacity="1" stroke-width="10"></path><path d="M79.312 330.25L219.437 483.375L213.874 417.5L79.311 330.25Z" class="selected" fill="url(#gradient-5)" stroke="#4a4a4a" stroke-opacity="1" stroke-width="10"></path></g></g></svg>