<?xml version="1.0" encoding="UTF-8" standalone="no"?>
<svg
   xmlns:dc="http://purl.org/dc/elements/1.1/"
   xmlns:cc="http://creativecommons.org/ns#"
   xmlns:rdf="http://www.w3.org/1999/02/22-rdf-syntax-ns#"
   xmlns:svg="http://www.w3.org/2000/svg"
   xmlns="http://www.w3.org/2000/svg"
   xmlns:xlink="http://www.w3.org/1999/xlink"
   xmlns:sodipodi="http://sodipodi.sourceforge.net/DTD/sodipodi-0.dtd"
   xmlns:inkscape="http://www.inkscape.org/namespaces/inkscape"
   viewBox="0 0 512 512"
   style="height: 64px; width: 64px;"
   version="1.1"
   id="svg86"
   sodipodi:docname="stone-onyx.svg"
   inkscape:export-filename="/home/plic/Téléchargements/stone-onyx.png"
   inkscape:export-xdpi="24"
   inkscape:export-ydpi="24"
   inkscape:version="1.0.1 (0767f8302a, 2020-10-17)">
  <metadata
     id="metadata90">
    <rdf:RDF>
      <cc:Work
         rdf:about="">
        <dc:format>image/svg+xml</dc:format>
        <dc:type
           rdf:resource="http://purl.org/dc/dcmitype/StillImage" />
        <dc:title></dc:title>
      </cc:Work>
    </rdf:RDF>
  </metadata>
  <sodipodi:namedview
     pagecolor="#ffffff"
     bordercolor="#666666"
     borderopacity="1"
     objecttolerance="10"
     gridtolerance="10"
     guidetolerance="10"
     inkscape:pageopacity="0"
     inkscape:pageshadow="2"
     inkscape:window-width="1937"
     inkscape:window-height="1022"
     id="namedview88"
     showgrid="false"
     inkscape:zoom="0.65186406"
     inkscape:cx="-29.739762"
     inkscape:cy="264.62074"
     inkscape:window-x="4017"
     inkscape:window-y="327"
     inkscape:window-maximized="0"
     inkscape:current-layer="svg86"
     inkscape:document-rotation="0" />
  <defs
     id="defs72">
    <linearGradient
       inkscape:collect="always"
       id="linearGradient961">
      <stop
         style="stop-color:#000000;stop-opacity:1;"
         offset="0"
         id="stop957" />
      <stop
         style="stop-color:#000000;stop-opacity:0;"
         offset="1"
         id="stop959" />
    </linearGradient>
    <linearGradient
       inkscape:collect="always"
       id="linearGradient953">
      <stop
         style="stop-color:#000000;stop-opacity:1;"
         offset="0"
         id="stop949" />
      <stop
         style="stop-color:#917c6f;stop-opacity:1"
         offset="1"
         id="stop951" />
    </linearGradient>
    <linearGradient
       inkscape:collect="always"
       id="linearGradient945">
      <stop
         style="stop-color:#000000;stop-opacity:1;"
         offset="0"
         id="stop941" />
      <stop
         style="stop-color:#000000;stop-opacity:0;"
         offset="1"
         id="stop943" />
    </linearGradient>
    <linearGradient
       inkscape:collect="always"
       id="linearGradient937">
      <stop
         style="stop-color:#ac9393;stop-opacity:1;"
         offset="0"
         id="stop933" />
      <stop
         style="stop-color:#ac9393;stop-opacity:0"
         offset="1"
         id="stop935" />
    </linearGradient>
    <linearGradient
       inkscape:collect="always"
       id="linearGradient921">
      <stop
         style="stop-color:#241c1c;stop-opacity:1;"
         offset="0"
         id="stop917" />
      <stop
         style="stop-color:#241c1c;stop-opacity:0;"
         offset="1"
         id="stop919" />
    </linearGradient>
    <radialGradient
       id="gradient-2"
       gradientTransform="matrix(-0.50602107,0.71154194,-0.85998204,-0.61158592,423.88775,-168.73985)"
       cx="293.19934"
       cy="22.701279"
       fx="293.19934"
       fy="22.701279"
       r="205.60145"
       gradientUnits="userSpaceOnUse">
      <stop
         offset="0%"
         stop-color="#c9c9c9"
         stop-opacity="1"
         id="stop2" />
      <stop
         offset="100%"
         stop-color="#e9e9e9"
         stop-opacity="1"
         id="stop4" />
    </radialGradient>
    <radialGradient
       id="gradient-3">
      <stop
         offset="0%"
         stop-color="#c9c9c9"
         stop-opacity="1"
         id="stop7" />
      <stop
         offset="100%"
         stop-color="#eaeaea"
         stop-opacity="1"
         id="stop9" />
    </radialGradient>
    <radialGradient
       id="gradient-4">
      <stop
         offset="0%"
         stop-color="#c9c9c9"
         stop-opacity="1"
         id="stop12" />
      <stop
         offset="100%"
         stop-color="#e7e7e7"
         stop-opacity="1"
         id="stop14" />
    </radialGradient>
    <radialGradient
       id="gradient-5">
      <stop
         offset="0%"
         stop-color="#c9c9c9"
         stop-opacity="1"
         id="stop17" />
      <stop
         offset="100%"
         stop-color="#e9e9e9"
         stop-opacity="1"
         id="stop19" />
    </radialGradient>
    <radialGradient
       id="gradient-6">
      <stop
         offset="0%"
         stop-color="#c9c9c9"
         stop-opacity="1"
         id="stop22" />
      <stop
         offset="100%"
         stop-color="#eeeeee"
         stop-opacity="1"
         id="stop24" />
    </radialGradient>
    <radialGradient
       id="gradient-7">
      <stop
         offset="0%"
         stop-color="#c9c9c9"
         stop-opacity="1"
         id="stop27" />
      <stop
         offset="100%"
         stop-color="#e7e7e7"
         stop-opacity="1"
         id="stop29" />
    </radialGradient>
    <radialGradient
       id="gradient-8">
      <stop
         offset="0%"
         stop-color="#c9c9c9"
         stop-opacity="1"
         id="stop32" />
      <stop
         offset="100%"
         stop-color="#e5e5e5"
         stop-opacity="1"
         id="stop34" />
    </radialGradient>
    <radialGradient
       id="gradient-9">
      <stop
         offset="0%"
         stop-color="#c9c9c9"
         stop-opacity="1"
         id="stop37" />
      <stop
         offset="100%"
         stop-color="#e7e7e7"
         stop-opacity="1"
         id="stop39" />
    </radialGradient>
    <radialGradient
       id="gradient-10">
      <stop
         offset="0%"
         stop-color="#d4af37"
         stop-opacity="1"
         id="stop42" />
      <stop
         offset="100%"
         stop-color="#d4af37"
         stop-opacity="1"
         id="stop44" />
    </radialGradient>
    <radialGradient
       id="gradient-11">
      <stop
         offset="0%"
         stop-color="#c9c9c9"
         stop-opacity="1"
         id="stop47" />
      <stop
         offset="100%"
         stop-color="#eaeaea"
         stop-opacity="1"
         id="stop49" />
    </radialGradient>
    <radialGradient
       id="gradient-12">
      <stop
         offset="0%"
         stop-color="#c9c9c9"
         stop-opacity="1"
         id="stop52" />
      <stop
         offset="100%"
         stop-color="#e4e4e4"
         stop-opacity="1"
         id="stop54" />
    </radialGradient>
    <radialGradient
       id="gradient-13">
      <stop
         offset="0%"
         stop-color="#c9c9c9"
         stop-opacity="1"
         id="stop57" />
      <stop
         offset="100%"
         stop-color="#e7e7e7"
         stop-opacity="1"
         id="stop59" />
    </radialGradient>
    <radialGradient
       id="gradient-14">
      <stop
         offset="0%"
         stop-color="#c9c9c9"
         stop-opacity="1"
         id="stop62" />
      <stop
         offset="100%"
         stop-color="#e7e7e7"
         stop-opacity="1"
         id="stop64" />
    </radialGradient>
    <radialGradient
       id="gradient-15">
      <stop
         offset="0%"
         stop-color="#c9c9c9"
         stop-opacity="1"
         id="stop67" />
      <stop
         offset="100%"
         stop-color="#e7e7e7"
         stop-opacity="1"
         id="stop69" />
    </radialGradient>
    <clipPath
       clipPathUnits="userSpaceOnUse"
       id="clipPath5112">
      <path
         style="fill:none;stroke:#000000;stroke-width:0.97786868px;stroke-linecap:butt;stroke-linejoin:miter;stroke-opacity:1"
         d="m 208.2538,88.51676 c -0.73867,1.015481 -1.34549,2.148876 -2.21602,3.046442 -0.17411,0.179513 -0.51845,-0.113534 -0.73868,0 -0.31145,0.160562 -0.42723,0.601049 -0.73867,0.761611 -0.22024,0.113534 -0.56457,-0.179513 -0.73869,0 -0.17411,0.179512 0.17412,0.582097 0,0.76161 -0.17411,0.179514 -0.49245,0 -0.73867,0 0,0.253871 0.11012,0.534542 0,0.761611 -1.5371,3.16964 0.051,-0.814189 -1.47735,0.76161 -0.17411,0.179514 0.1741,0.582097 0,0.761611 -0.17411,0.179513 -0.56457,-0.179514 -0.73868,0 -0.17411,0.179513 0.17411,0.582097 0,0.76161 -0.17411,0.179513 -0.56457,-0.179513 -0.73867,0 -0.17411,0.179513 0.1741,0.582097 0,0.76161 -0.17411,0.179514 -0.56457,-0.179513 -0.73868,0 -0.17411,0.179514 0.17411,0.582097 0,0.761611 -1.96981,0 0.24622,-0.25387 -0.73867,0.761613 -0.17411,0.179513 -0.56457,-0.179516 -0.73868,0 -0.17412,0.179513 0.11011,0.534536 0,0.76161 -0.15573,0.321124 -0.58295,0.440485 -0.73868,0.761611 -0.11012,0.22706 0.17411,0.5821 0,0.76161 -0.17411,0.17951 -0.51844,-0.11353 -0.73868,0 -3.07419,1.58482 0.78968,-0.0525 -0.73868,1.52322 -0.1741,0.17951 -0.56456,-0.17951 -0.73867,0 -0.17411,0.17951 0.11011,0.53454 0,0.76161 -0.15572,0.32112 -0.58295,0.44049 -0.73868,0.76161 -0.11011,0.22707 0.11012,0.53454 0,0.76162 -0.15572,0.32111 -0.58295,0.44048 -0.73867,0.76161 -0.11011,0.22706 0.17411,0.58209 0,0.76161 -0.17411,0.17951 -0.56457,-0.17952 -0.73868,0 -0.1741,0.17951 0.11012,0.53453 0,0.7616 -0.15573,0.32113 -0.58295,0.44049 -0.73867,0.76161 -0.11012,0.22707 0.17411,0.5821 0,0.76161 -0.17411,0.17952 -0.56457,-0.17951 -0.73868,0 -0.34822,0.35903 0.22023,1.06908 0,1.52322 -0.31145,0.64225 -1.1659,0.88098 -1.47736,1.52323 -1.08688,2.24127 1.71121,-1.00272 -0.73867,1.52322 -0.24622,0.25386 -0.49245,0.50774 -0.73868,0.76161 -0.24622,0.25387 -0.58295,0.44048 -0.73867,0.76161 -0.11011,0.22706 0.11011,0.53454 0,0.76161 -0.15572,0.32112 -0.58295,0.44048 -0.73868,0.76161 -0.11011,0.22707 0.17411,0.58209 0,0.76161 -0.1741,0.17951 -0.56456,-0.17952 -0.73867,0 -0.17411,0.17951 0.11011,0.53454 0,0.76161 -0.15573,0.32112 -0.49246,0.50774 -0.73868,0.76162 -0.24622,0.25386 -0.42723,0.60104 -0.73867,0.76161 -0.22024,0.11353 -0.56457,-0.17952 -0.73868,0 -0.17411,0.17951 0.17411,0.58209 0,0.7616 -0.17411,0.17952 -0.56457,-0.17951 -0.73868,0 -0.17411,0.17952 0.17411,0.5821 0,0.76161 -0.17411,0.17952 -0.51844,-0.11353 -0.73868,0 -0.39451,0.20339 -1.82714,1.88388 -2.21602,2.28483 -0.24623,0.25388 -0.49245,0.50775 -0.73868,0.76161 -0.24622,0.25387 -0.58295,0.4405 -0.73867,0.76161 -0.11011,0.22707 0.1741,0.5821 0,0.76162 -0.17411,0.17951 -0.56457,-0.17952 -0.73868,0 -0.1741,0.17951 0.11012,0.53454 0,0.76161 -0.15573,0.32111 -0.58295,0.44048 -0.73867,0.76161 -0.11012,0.22706 0.1741,0.5821 0,0.76161 -0.17412,0.17951 -0.56457,-0.17951 -0.73869,0 -0.49307,0.50838 0.49308,1.01484 0,1.52322 -0.1741,0.17951 -0.56457,-0.17951 -0.73867,0 -0.17411,0.17951 0.11012,0.53454 0,0.76161 -0.31146,0.64225 -1.1659,0.88098 -1.47735,1.52322 -0.11012,0.22707 0.1741,0.58209 0,0.76161 -0.17411,0.17952 -0.56457,-0.17952 -0.73868,0 -0.1741,0.17952 0.17411,0.5821 0,0.76161 -0.1741,0.17952 -0.56457,-0.17951 -0.73867,0 -0.34822,0.35903 0.34821,1.1642 0,1.52322 -0.17411,0.17952 -0.56457,-0.17951 -0.73868,0 -0.1741,0.17952 0.11012,0.53454 0,0.76161 -0.15573,0.32113 -0.58295,0.44049 -0.73867,0.76161 -0.11013,0.22707 0.11011,0.53455 0,0.76161 -0.15573,0.32113 -0.58296,0.44049 -0.73868,0.76161 -0.11012,0.22707 0.11012,0.53455 0,0.76161 -0.31145,0.64225 -1.1659,0.88098 -1.47736,1.52323 -0.11011,0.22706 0.11013,0.53453 0,0.76161 -0.15572,0.32112 -0.58294,0.44048 -0.73867,0.76161 -0.11012,0.22706 0.11011,0.53453 0,0.76161 -0.15572,0.32112 -0.58295,0.44048 -0.73868,0.76161 -0.11011,0.22706 0.11012,0.53454 0,0.76161 -0.15572,0.32112 -0.58295,0.44048 -0.73867,0.76161 -0.11012,0.22707 0.0778,0.52077 0,0.7616 -0.17411,0.53855 -0.56457,0.98469 -0.73868,1.52323 -0.0778,0.24084 0.11012,0.53454 0,0.76161 -0.15573,0.32113 -0.58295,0.44049 -0.73867,0.76161 -0.11012,0.22707 0.11011,0.53454 0,0.76161 -0.15573,0.32113 -0.58296,0.44049 -0.73868,0.76161 -0.22023,0.45414 0.22023,1.06908 0,1.52322 -0.15573,0.32112 -0.58295,0.44049 -0.73867,0.76161 -0.22024,0.45414 0.34821,1.16419 0,1.52323 -0.17412,0.17951 -0.56457,-0.17952 -0.73869,0 -0.34821,0.35902 0.34823,1.16419 0,1.52322 -0.1741,0.17951 -0.56457,-0.17952 -0.73867,0 -0.49308,0.50838 0.49307,1.01483 0,1.52322 -0.17411,0.17951 -0.56457,-0.17952 -0.73868,0 -0.34821,0.35902 0.22024,1.06908 0,1.52321 -0.15572,0.32113 -0.58294,0.44049 -0.73867,0.76161 -0.11012,0.22708 0.11011,0.53455 0,0.76161 -0.15573,0.32113 -0.58296,0.4405 -0.73868,0.76162 -0.22022,0.45413 0.22023,1.06908 0,1.52322 -0.15572,0.32113 -0.58295,0.44049 -0.73867,0.76161 -0.11012,0.22707 0.11011,0.53454 0,0.76161 -0.15574,0.32113 -0.58296,0.44049 -0.73868,0.76161 -0.11011,0.22707 0.11011,0.53455 0,0.76161 -0.15573,0.32112 -0.58295,0.44048 -0.73867,0.76161 -0.22024,0.45414 0.34821,1.16419 0,1.52322 -0.17411,0.17952 -0.56457,-0.17951 -0.73868,0 -0.34822,0.35903 0.22023,1.06909 0,1.52323 -0.15573,0.32112 -0.58295,0.44048 -0.73868,0.76161 -0.11012,0.22706 0.11012,0.53453 0,0.76161 -0.15573,0.32112 -0.58295,0.44048 -0.73868,0.7616 -0.22022,0.45414 0.22024,1.06909 0,1.52322 -0.15572,0.32113 -0.58294,0.44049 -0.73867,0.76161 -0.22023,0.45414 0.22023,1.06909 0,1.52323 -0.15573,0.32112 -0.58295,0.44049 -0.73868,0.76161 -0.14644,0.30197 0.15101,2.12913 0,2.28483 -0.17411,0.17951 -0.62856,-0.22706 -0.73867,0 -0.23895,0.49272 0.26534,2.77286 0,3.04644 -0.17411,0.17952 -0.56457,-0.17952 -0.73868,0 -0.34821,0.35903 0.22023,1.06909 0,1.52323 -0.15572,0.32112 -0.58295,0.44048 -0.73867,0.76161 -0.21792,0.44936 0.16935,1.76096 0,2.28482 -0.17411,0.53854 -0.60515,0.9725 -0.73868,1.52322 -0.11943,0.49259 0,1.01548 0,1.52323 0,0.25386 0.11011,0.53454 0,0.76161 -0.15573,0.32112 -0.58295,0.44049 -0.73867,0.76161 -0.11013,0.22706 0.0778,0.52076 0,0.76161 -0.17411,0.53854 -0.56457,0.98468 -0.73868,1.52322 -0.23359,0.72253 0.17915,1.54596 0,2.28483 -0.13354,0.55073 -0.56458,0.98468 -0.73868,1.52323 -0.0778,0.24083 0.0779,0.52076 0,0.7616 -0.17411,0.53854 -0.56457,0.98469 -0.73868,1.52322 -0.2216,0.68545 0.2216,1.59938 0,2.28483 -0.11011,0.34061 -0.62856,0.42102 -0.73867,0.76161 -0.15573,0.48169 0,1.01548 0,1.52323 0,0.25386 0.11011,0.53454 0,0.76161 -0.15573,0.32112 -0.58295,0.44048 -0.73868,0.76161 -0.22023,0.45414 0.22024,1.06908 0,1.52322 -0.15572,0.32112 -0.58295,0.44048 -0.73867,0.76161 -0.22023,0.45413 0.22022,1.06908 0,1.52322 -0.15573,0.32112 -0.58296,0.44049 -0.73868,0.76161 -0.23214,0.47869 0.23214,2.56775 0,3.04644 -0.15573,0.32113 -0.58295,0.44049 -0.73867,0.76161 -0.25512,0.52607 0.25928,3.54071 0,3.80806 -0.17411,0.17951 -0.56457,-0.17952 -0.73868,0 -0.0298,0.0307 0,2.76675 0,3.04644 0,0.343 0.1124,2.05304 0,2.28482 -0.15573,0.32113 -0.58295,0.4405 -0.73868,0.76161 -0.23602,0.48669 0.19819,2.43343 0,3.04645 -0.17411,0.53854 -0.56456,0.98468 -0.73868,1.52322 -0.25223,0.78018 0.25223,1.50466 0,2.28483 -0.11011,0.3406 -0.62855,0.42101 -0.73867,0.76161 -0.22161,0.68545 0.2216,1.59939 0,2.28484 -0.17411,0.53853 -0.56457,0.98468 -0.73868,1.52322 -0.15572,0.48168 0,1.01548 0,1.52321 0,1.26936 0,2.53871 0,3.80806 0,0.25387 0,0.50774 0,0.76161 0,0.25387 0.11011,0.53455 0,0.76161 -0.15572,0.32112 -0.58294,0.44048 -0.73868,0.76161 -0.23213,0.47869 0.23214,2.56775 0,3.04645 -0.15572,0.32111 -0.58295,0.44048 -0.73867,0.76161 -0.22427,0.46246 0.22427,4.10718 0,4.56965 -0.15572,0.32113 -0.58295,0.4405 -0.73868,0.76161 -0.1124,0.23179 0,1.94184 0,2.28484 0,1.77709 0,3.55418 0,5.33128 0,2.5387 0,5.0774 0,7.6161 0,0.8733 -0.19129,2.25749 0,3.04644 0.13354,0.55072 0.60515,0.9725 0.73868,1.52322 0.14044,0.57917 0,3.17028 0,3.80805 0,2.53871 0,5.07741 0,7.61611 0,0.25387 0,0.50773 0,0.76161 0,0.25387 -0.17411,0.58209 0,0.76161 0.17411,0.17951 0.56457,-0.17952 0.73867,0 0.17411,0.17951 0,0.50773 0,0.76161 0,0.25387 0,0.50774 0,0.76161 0,2.5387 0,5.0774 0,7.6161 0,3.80806 0,7.6161 0,11.42416 0,1.26936 0,2.5387 0,3.80806 0,0.76161 0,1.52322 0,2.28483 0,0.25387 -0.0778,0.52076 0,0.76161 0.17411,0.53853 0.56457,0.98468 0.73868,1.52321 0.2216,0.68546 -0.2216,1.59939 0,2.28484 0.11011,0.3406 0.62856,0.42101 0.73868,0.76161 0.13617,0.42118 0,3.80268 0,4.56966 0,3.04645 0,6.09288 0,9.13933 0,3.55417 0,7.10836 0,10.66254 0,0.81709 -0.16276,4.82785 0,5.33128 0.1741,0.53854 0.56456,0.98468 0.73867,1.52322 0.15022,0.46465 0,3.98144 0,4.56966 0,2.53871 0,5.07741 0,7.61611 0,0.39825 -0.0971,2.84618 0,3.04644 0.15573,0.32112 0.58295,0.44049 0.73868,0.7616 0.29547,0.6093 -0.29547,1.67555 0,2.28484 0.15573,0.32113 0.58295,0.44049 0.73868,0.76161 0.29547,0.60929 -0.29548,1.67555 0,2.28483 0.15572,0.32113 0.62856,0.42101 0.73868,0.76161 0.15572,0.48169 0,1.01548 0,1.52322 0,0.25387 -0.11012,0.53454 0,0.76162 0.15572,0.32111 0.58294,0.44048 0.73867,0.76161 0.22023,0.45414 -0.22024,1.06908 0,1.52322 0.15572,0.32112 0.58295,0.44048 0.73868,0.76161 0.11011,0.22706 -0.11012,0.53454 0,0.76161 0.15572,0.32112 0.58295,0.44048 0.73867,0.7616 0.22024,0.45414 -0.22023,1.0691 0,1.52322 0.15573,0.32113 0.62856,0.42102 0.73868,0.76162 0.15573,0.48168 -0.15573,1.04153 0,1.52322 0.22023,0.6812 1.1659,0.88097 1.47735,1.52322 0.11012,0.22706 -0.11012,0.53455 0,0.76161 0.15573,0.32112 0.58295,0.44048 0.73868,0.76161 0.11011,0.22707 -0.11012,0.53454 0,0.76161 0.15572,0.32112 0.58294,0.44049 0.73868,0.76161 0.22022,0.45414 -0.22024,1.06909 0,1.52323 0.15572,0.32112 0.58294,0.44048 0.73867,0.76161 0.11011,0.22706 -0.11011,0.53453 0,0.76161 0.15572,0.32112 0.58294,0.44048 0.73868,0.76161 0.22022,0.45413 -0.22024,1.06908 0,1.52321 0.15572,0.32113 0.58295,0.44049 0.73867,0.76161 0.11011,0.22708 -0.11011,0.53455 0,0.76161 0.31146,0.64225 1.1659,0.88098 1.47735,1.52323 0.11011,0.22707 -0.11011,0.53454 0,0.76161 0.15573,0.32113 0.58295,0.44049 0.73868,0.76161 0.11011,0.22706 -0.17411,0.5821 0,0.76161 0.1741,0.17951 0.56456,-0.17951 0.73867,0 0.17411,0.17951 -0.11011,0.53455 0,0.76161 0.44321,0.91393 1.77283,1.3709 2.21604,2.28483 0.11011,0.22707 -0.11013,0.53454 0,0.76161 0.15572,0.32112 0.49244,0.50774 0.73867,0.76162 0.58043,0.59844 3.45812,3.32292 3.69338,3.80804 0.11012,0.22708 -0.11012,0.53455 0,0.76161 0.15573,0.32113 0.54553,0.46289 0.73867,0.76161 0.30541,0.47234 0.43328,1.05089 0.73869,1.52323 0.3863,0.59745 0.98489,1.01547 1.47735,1.52322 0.73867,0.76161 1.47735,1.52322 2.21602,2.28483 0.43446,0.44794 2.78368,2.69376 2.95471,3.04645 0.11012,0.22706 -0.17411,0.58209 0,0.7616 0.17411,0.17952 0.56457,-0.17951 0.73868,0 0.1741,0.17952 -0.17411,0.5821 0,0.76161 0.1741,0.17952 0.56457,-0.17951 0.73867,0 0.17411,0.17952 -0.1741,0.5821 0,0.76161 0.17411,0.17952 0.56457,-0.17951 0.73868,0 0.34821,0.35903 -0.22024,1.06908 0,1.52322 0.15572,0.32113 0.58295,0.44049 0.73867,0.76161 0.11012,0.22708 -0.11011,0.53455 0,0.76161 0.15573,0.32113 0.54552,0.46289 0.73868,0.76161 0.3054,0.47234 0.43327,1.05089 0.73867,1.52323 0.19316,0.29872 0.54552,0.46288 0.73868,0.76161 0.3054,0.47233 0.34936,1.12181 0.73867,1.52322 0.38933,0.4014 1.08805,0.3602 1.47736,0.76161 0.38932,0.4014 0.34936,1.12181 0.73868,1.52322 0.38931,0.4014 1.01924,0.44673 1.47735,0.76161 0.57947,0.3983 0.9849,1.01548 1.47735,1.52322 0.9849,1.01548 1.96981,2.03096 2.95471,3.04644 0.24622,0.25388 0.49245,0.50774 0.73867,0.76161 0.24622,0.25387 0.42722,0.60105 0.73868,0.76161 0.22023,0.11353 0.56457,-0.17951 0.73867,0 0.17411,0.17951 -0.11011,0.53455 0,0.76161 1.5371,3.16964 -0.0509,-0.81419 1.47735,0.76161 0.17411,0.17952 -0.1741,0.5821 0,0.76162 0.17411,0.17951 0.56457,-0.17952 0.73868,0 0.9849,1.01547 -1.56697,0.73081 0.73867,1.52322 0.46719,0.16055 1.01018,-0.16057 1.47736,0 0.33034,0.11353 0.44894,0.56245 0.73868,0.76161 0.4581,0.31489 0.9849,0.50773 1.47735,0.76161 0.9849,0.50773 2.01048,0.93909 2.9547,1.52322 0.76127,0.47093 1.42198,1.11387 2.21604,1.52321 0.69642,0.35904 1.54835,0.34857 2.21602,0.76162 0.59719,0.36943 0.92021,1.09239 1.47735,1.52322 0.9899,0.76547 2.62929,1.08437 3.69339,1.52322 1.52829,0.6303 2.90375,1.65454 4.43205,2.28483 0.72295,0.29816 1.49308,0.46346 2.21603,0.76161 1.50979,0.62267 2.97707,1.53476 4.43205,2.28484 0.49246,0.25386 0.94322,0.62393 1.47736,0.76161 0.47774,0.12314 0.9849,0 1.47735,0 0.49245,0.25387 0.95503,0.58209 1.47735,0.76161 0.2336,0.0802 0.51845,-0.11354 0.73868,0 0.31145,0.16055 0.40833,0.64807 0.73867,0.76161 0.50252,0.17271 3.30171,-0.20192 3.69339,0 0.31145,0.16056 0.42722,0.60105 0.73867,0.7616 0.22023,0.11354 0.49245,0 0.73868,0 0.24623,0 0.49244,0 0.73867,0 1.96981,0 3.93961,0 5.90941,0 0.49245,0 0.99447,-0.0996 1.47735,0 0.76352,0.15745 1.45252,0.60417 2.21604,0.76161 3.9463,0.81377 -1.66246,-1.44723 3.69337,0.76161 0.5112,0.21083 0.94322,0.62393 1.47735,0.76162 0.95551,0.24629 2.02035,-0.32112 2.95471,0 0.33034,0.11353 0.40833,0.64807 0.73868,0.76161 0.003,10e-4 2.21532,-7.3e-4 2.21602,0 0.17411,0.17951 -0.1741,0.5821 0,0.76161 0.17411,0.17951 0.49246,0 0.73868,0 1.47735,0 2.95471,0 4.43206,0 0.24623,0 0.49245,0 0.73868,0 0.24622,0 0.51844,0.11353 0.73867,0 0.31145,-0.16057 0.42722,-0.60105 0.73868,-0.76161 0.16556,-0.0854 2.77917,0 2.95471,0 1.47735,0 2.9547,0 4.43205,0 3.93961,0 7.87921,0 11.81882,0 1.23113,0 2.46225,0 3.69338,0 0.24622,0 0.49245,0 0.73868,0 0.24622,0 0.51844,0.11353 0.73867,0 0.31146,-0.16056 0.40833,-0.64808 0.73868,-0.76161 0.47953,-0.1648 4.49974,0 5.17073,0 0.49245,0 1.01018,0.16056 1.47735,0 0.33035,-0.11354 0.40833,-0.64807 0.73868,-0.76162 0.46718,-0.16055 0.9849,0 1.47735,0 0.61856,0 3.13165,0.1448 3.69338,0 0.53414,-0.13768 0.95503,-0.58209 1.47735,-0.76161 0.2336,-0.0802 0.49245,0 0.73868,0 0.49246,0 1.01017,0.16057 1.47735,0 0.33035,-0.11353 0.42723,-0.60104 0.73867,-0.76161 0.44047,-0.22706 1.0369,0.22708 1.47736,0 0.31146,-0.16055 0.42722,-0.60104 0.73868,-0.7616 0.44046,-0.22707 1.12914,0.35902 1.47735,0 0.17411,-0.17952 -0.17411,-0.5821 0,-0.76161 0.17411,-0.17952 0.51845,0.11353 0.73867,0 0.62291,-0.32113 0.85446,-1.2021 1.47735,-1.52322 0.22024,-0.11353 0.56457,0.17951 0.73868,0 1.52835,-1.57581 -2.33551,0.0616 0.73868,-1.52322 0.22023,-0.11354 0.56457,0.17951 0.73868,0 0.17411,-0.17952 -0.11012,-0.53455 0,-0.76162 0.15572,-0.32112 0.49245,-0.50774 0.73867,-0.76161 0.73868,-0.76161 1.47736,-1.52322 2.21603,-2.28483 0.49245,-0.50774 1.09104,-0.92576 1.47735,-1.52322 0.30541,-0.47233 0.43328,-1.05089 0.73868,-1.52322 0.38631,-0.59745 1.09104,-0.92577 1.47736,-1.52323 0.30539,-0.47232 0.40832,-1.06908 0.73867,-1.52321 0.68265,-0.93845 2.32779,-2.07686 2.9547,-3.04644 0.30541,-0.47234 0.43327,-1.05089 0.73868,-1.52323 0.19315,-0.29872 0.58295,-0.44049 0.73867,-0.76161 0.11012,-0.22706 0,-0.50774 0,-0.76161 0.24623,-0.50774 0.43328,-1.05089 0.73868,-1.52322 0.38631,-0.59746 1.25712,-0.84202 1.47736,-1.52322 1.06605,-3.29748 -1.41213,0.27993 0.73867,-3.04644 0.19316,-0.29873 0.54552,-0.46288 0.73868,-0.76161 0.3054,-0.47233 0.43326,-1.05089 0.73867,-1.52322 0.19316,-0.29873 0.54552,-0.46289 0.73868,-0.76161 0.3054,-0.47233 0.49245,-1.01548 0.73867,-1.52322 0.24623,-0.50775 0.56457,-0.98468 0.73868,-1.52322 0.0779,-0.24085 -0.0778,-0.52077 0,-0.76162 0.1741,-0.53854 0.60514,-0.9725 0.73867,-1.52322 0.11945,-0.49257 -0.15572,-1.04154 0,-1.52322 0.11012,-0.3406 0.54553,-0.46288 0.73869,-0.76161 0.30539,-0.47232 0.56456,-0.98468 0.73867,-1.52322 0.0778,-0.24084 -0.0779,-0.52077 0,-0.7616 0.17411,-0.53855 0.56457,-0.98469 0.73868,-1.52323 0.15572,-0.48168 -0.15574,-1.04154 0,-1.52322 0.24622,-0.50774 0.49244,-1.01548 0.73867,-1.52322 0,-0.25387 -0.0778,-0.52077 0,-0.76161 0.17411,-0.53855 0.56457,-0.98468 0.73868,-1.52322 0.0778,-0.24084 -0.11012,-0.53454 0,-0.76162 0.15572,-0.32111 0.49244,-0.50773 0.73867,-0.76161 0,-0.50773 -0.15572,-1.04153 0,-1.52322 0.11012,-0.3406 0.62856,-0.421 0.73868,-0.76161 0.15573,-0.48168 -0.15573,-1.04153 0,-1.52321 0.11011,-0.34061 0.58295,-0.44049 0.73867,-0.76161 0.11013,-0.22708 -0.11011,-0.53455 0,-0.76161 0.15573,-0.32113 0.58296,-0.4405 0.73868,-0.76162 0.11012,-0.22707 -0.0778,-0.52077 0,-0.76161 0.17411,-0.53854 0.60515,-0.9725 0.73868,-1.52322 0.11944,-0.49258 -0.15573,-1.04154 0,-1.52322 0.11012,-0.34061 0.58295,-0.44049 0.73868,-0.76161 0.11011,-0.22707 0,-0.50775 0,-0.76161 0.24622,-0.25387 0.58294,-0.44049 0.73867,-0.76161 0.11012,-0.22707 0,-0.50774 0,-0.76161 0.24622,-0.25387 0.58295,-0.44049 0.73868,-0.76162 0.11011,-0.22706 -0.17411,-0.58209 0,-0.76161 0.1741,-0.17951 0.56457,0.17952 0.73867,0 0.34822,-0.35902 -0.22022,-1.06908 0,-1.52322 0.15573,-0.32112 0.58296,-0.44048 0.73868,-0.7616 0.11011,-0.22707 -0.11012,-0.53455 0,-0.76161 0.15573,-0.32113 0.58295,-0.44049 0.73867,-0.76161 0.11012,-0.22708 -0.11011,-0.53455 0,-0.76161 0.15573,-0.32113 0.58296,-0.4405 0.73868,-0.76161 0.22023,-0.45414 -0.22023,-1.06909 0,-1.52323 0.59012,-1.21687 0.88724,-0.30635 1.47736,-1.52322 0.11011,-0.22706 0,-0.50774 0,-0.76161 0,-0.50774 -0.15573,-1.04154 0,-1.52322 0.11011,-0.3406 0.58294,-0.44048 0.73867,-0.76161 0.11012,-0.22707 -0.11012,-0.53454 0,-0.76161 0.15573,-0.32112 0.62856,-0.42101 0.73868,-0.76162 0.15572,-0.48168 -0.15573,-1.04152 0,-1.52322 0.11011,-0.34059 0.62856,-0.421 0.73867,-0.7616 0.15573,-0.48169 -0.15573,-1.04154 0,-1.52322 0.11012,-0.34061 0.54552,-0.46289 0.73868,-0.76161 0.3054,-0.47233 0.43327,-1.05089 0.73867,-1.52322 0.19316,-0.29874 0.62857,-0.42102 0.73868,-0.76162 0.15573,-0.48168 -0.11944,-1.03064 0,-1.52322 0.36673,-1.51247 1.8493,-3.05719 2.21602,-4.56966 0.11945,-0.49258 -0.15572,-1.04153 0,-1.52323 0.11013,-0.34059 0.54553,-0.46287 0.73869,-0.7616 0.6108,-0.94466 0.98489,-2.03096 1.47735,-3.04644 0.24623,-0.50775 0.49245,-1.01548 0.73867,-1.52322 0.24623,-0.50775 0.60514,-0.9725 0.73868,-1.52323 0.11943,-0.49257 -0.15572,-1.04154 0,-1.52322 0.11011,-0.34059 0.54552,-0.46287 0.73867,-0.76161 0.30541,-0.47233 0.43327,-1.05089 0.73868,-1.52322 0.19315,-0.29873 0.62856,-0.42101 0.73867,-0.76161 0.15574,-0.48169 -0.11943,-1.03064 0,-1.52322 -0.44522,-1.37847 1.19662,-1.41646 1.47736,-2.28483 0.15573,-0.48169 -0.15573,-1.04154 0,-1.52322 0.11012,-0.34061 0.62856,-0.42101 0.73868,-0.76161 0.15572,-0.48168 -0.15573,-1.04154 0,-1.52322 0.11011,-0.34061 0.62856,-0.42101 0.73867,-0.76161 0.15573,-0.48169 -0.15573,-1.04154 0,-1.52323 0.11012,-0.34059 0.62857,-0.421 0.73868,-0.76161 0.15572,-0.48168 -0.15573,-1.04154 0,-1.52322 0.11011,-0.3406 0.62856,-0.421 0.73867,-0.76161 0.2336,-0.72252 -0.23359,-1.5623 0,-2.28482 0.17411,-0.53855 0.56457,-0.98469 0.73868,-1.52323 0.0778,-0.24084 -0.11011,-0.53454 0,-0.76161 0.15573,-0.32113 0.62856,-0.42101 0.73867,-0.76161 0.20394,-0.63078 -0.23487,-3.32372 0,-3.80805 0.15574,-0.32112 0.62857,-0.42101 0.73868,-0.76162 0.15573,-0.48168 0,-1.01547 0,-1.52322 0,-0.25386 -0.11011,-0.53453 0,-0.76161 0.15573,-0.32112 0.62856,-0.421 0.73867,-0.76161 0.30581,-0.94587 -0.24279,-2.80667 0,-3.80804 0.13354,-0.55073 0.60516,-0.97251 0.73869,-1.52323 0.28967,-1.19468 -0.28968,-2.61337 0,-3.80805 0.13353,-0.55072 0.60514,-0.9725 0.73867,-1.52322 0.11944,-0.49258 0,-1.01548 0,-1.52323 0,-1.52322 0,-3.04643 0,-4.56965 0,-0.50775 -0.15573,-1.04154 0,-1.52323 0.11012,-0.3406 0.65422,-0.4133 0.73868,-0.76161 0.17915,-0.73887 0,-1.52322 0,-2.28483 0,-0.50774 0,-1.01548 0,-1.52322 0,-2.28484 0,-4.56966 0,-6.85449 0,-0.76161 0,-1.52322 0,-2.28483 0,-0.50775 -0.0966,-1.02534 0,-1.52323 0.1527,-0.78722 0.61067,-1.49294 0.73867,-2.28483 0.2024,-1.25208 0,-2.5387 0,-3.80806 0,-4.82352 0,-9.64705 0,-14.47059 0,-1.26935 0,-2.53871 0,-3.80805 0,-0.50775 -0.11943,-1.03065 0,-1.52322 0.13354,-0.55073 0.6307,-0.96658 0.73868,-1.52323 0.24144,-1.2447 0,-2.5387 0,-3.80805 0,-2.28482 0,-4.56966 0,-6.85449 0,-5.58515 0,-11.17029 0,-16.75544 0,-6.34675 0,-12.6935 0,-19.04025 0,-2.79258 0,-5.58515 0,-8.37772 0,-1.01548 0.19316,-2.05068 0,-3.04644 -0.1527,-0.78722 -0.58598,-1.49761 -0.73868,-2.28483 -0.0966,-0.49789 0,-1.01548 0,-1.52322 0,-1.01548 0,-2.03097 0,-3.04645 0,-0.25387 0.0778,-0.52076 0,-0.76161 -0.1741,-0.53853 -0.60514,-0.9725 -0.73867,-1.52322 -0.17915,-0.73887 0.23358,-1.56231 0,-2.28482 -0.17411,-0.53855 -0.56457,-0.98469 -0.73868,-1.52323 -0.15573,-0.48168 0.22023,-1.06908 0,-1.52322 -0.15573,-0.32113 -0.58295,-0.44049 -0.73867,-0.76161 -0.29548,-0.60929 0.29547,-1.67555 0,-2.28483 -0.11012,-0.22707 -0.62856,0.22706 -0.73869,0 -0.22022,-0.45414 0.11945,-1.03064 0,-1.52323 -0.26706,-1.10144 -1.12913,-1.96935 -1.47735,-3.04644 -0.0778,-0.24084 0.11012,-0.53454 0,-0.76161 -0.31145,-0.64224 -1.16589,-0.88098 -1.47735,-1.52321 -0.11011,-0.22708 0,-0.50775 0,-0.76161 -0.24622,-0.50775 -0.43326,-1.05089 -0.73867,-1.52323 -0.38631,-0.59746 -1.09104,-0.92576 -1.47735,-1.52322 -2.67792,-5.52212 0.77863,1.20421 -1.47736,-2.28483 -0.3054,-0.47233 -0.40833,-1.06909 -0.73868,-1.52322 -0.41785,-0.57445 -1.05949,-0.94879 -1.47735,-1.52323 -0.33035,-0.45413 -0.43326,-1.05089 -0.73867,-1.52322 -0.19316,-0.29872 -0.54552,-0.46288 -0.73868,-0.76161 -0.61081,-0.94465 -0.81666,-2.13817 -1.47735,-3.04643 -0.41786,-0.57445 -1.0595,-0.94879 -1.47736,-1.52323 -0.97505,-1.34043 -1.24097,-3.22923 -2.21602,-4.56966 -0.41786,-0.57444 -1.05949,-0.94878 -1.47735,-1.52322 -0.66069,-0.90827 -0.81666,-2.13817 -1.47735,-3.04644 -0.41786,-0.57445 -1.0595,-0.94878 -1.47735,-1.52322 -1.49486,-2.05502 0.0123,-1.24809 -1.47736,-3.80806 -0.35831,-0.61572 -1.05949,-0.94878 -1.47735,-1.52322 -0.66069,-0.90827 -0.81666,-2.13817 -1.47735,-3.04644 -3.19499,-3.29419 -0.11578,0.20176 -2.21603,-3.04644 -0.72463,-1.12069 -2.23008,-1.92576 -2.95471,-3.04644 -0.0917,-0.14187 -1.43002,-2.99765 -1.47735,-3.04645 -0.1741,-0.17951 -0.62856,0.22707 -0.73867,0 -0.22024,-0.45414 0.22022,-1.06908 0,-1.52322 -0.11012,-0.22706 -0.56457,0.17951 -0.73868,0 -0.38931,-0.4014 -0.43328,-1.05089 -0.73867,-1.52322 -0.38631,-0.59746 -1.16591,-0.88098 -1.47736,-1.52322 -0.11012,-0.22707 0.1741,-0.58209 0,-0.76161 -0.17411,-0.17951 -0.56457,0.17952 -0.73868,0 -0.17411,-0.17951 0.17411,-0.58209 0,-0.76161 -0.17411,-0.17952 -0.56457,0.17952 -0.73867,0 -0.17411,-0.17952 0.1741,-0.5821 0,-0.76161 -1.52835,-1.5758 0.0597,2.40803 -1.47735,-0.76161 -0.11012,-0.22707 0.1741,-0.5821 0,-0.76161 -0.17411,-0.17952 -0.56457,0.17951 -0.73868,0 -0.17411,-0.17952 0.17411,-0.5821 0,-0.76161 -1.52835,-1.5758 0.0597,2.40803 -1.47735,-0.76161 -0.11012,-0.22707 0.17411,-0.5821 0,-0.76161 -0.17412,-0.17951 -0.51845,0.11353 -0.73868,0 -0.31145,-0.16057 -0.49245,-0.50775 -0.73868,-0.76161 -0.24622,-0.25387 -0.58294,-0.4405 -0.73867,-0.76161 -0.11012,-0.22707 0.1741,-0.5821 0,-0.76161 -0.17411,-0.17952 -0.51844,0.11353 -0.73868,0 -0.34206,-0.17634 -2.52026,-2.59851 -2.9547,-3.04645 -0.24623,-0.25387 -0.42723,-0.60105 -0.73867,-0.76161 -0.22024,-0.11353 -0.51845,0.11354 -0.73869,0 -0.6229,-0.32112 -0.85444,-1.20209 -1.47735,-1.52322 -0.22023,-0.11353 -0.51844,0.11354 -0.73867,0 -3.0742,-1.58482 0.78967,0.0525 -0.73868,-1.52321 -0.38932,-0.40142 -1.01924,-0.44673 -1.47735,-0.76162 -0.36073,-0.24796 -2.71422,-2.67451 -2.95471,-3.04644 -0.3054,-0.47233 -0.34936,-1.12182 -0.73868,-1.52322 -0.38931,-0.4014 -1.01924,-0.44672 -1.47735,-0.76161 -0.86919,-0.59746 -1.38031,-1.63859 -2.21602,-2.28484 -0.44046,-0.34059 -1.08804,-0.3602 -1.47735,-0.76161 -0.38933,-0.4014 -0.34936,-1.12181 -0.73869,-1.52322 -0.77863,-0.8028 -2.07377,-0.84201 -2.9547,-1.52321 -0.83572,-0.64626 -1.34683,-1.68739 -2.21602,-2.28484 -0.45812,-0.31488 -1.08804,-0.36021 -1.47736,-0.76161 -0.38932,-0.40141 -0.34936,-1.12182 -0.73868,-1.52322 -0.0473,-0.0489 -2.8171,-1.42864 -2.9547,-1.52322 -0.28973,-0.199155 -0.44894,-0.562459 -0.73867,-0.761611 -0.45811,-0.314889 -1.01925,-0.446721 -1.47735,-0.76161 -0.28974,-0.199154 -0.42723,-0.601052 -0.73869,-0.761613 -0.22022,-0.113534 -0.51844,0.113534 -0.73867,0 -0.31145,-0.160561 -0.44894,-0.562458 -0.73868,-0.761611 -0.4581,-0.314886 -0.95503,-0.582097 -1.47735,-0.76161 -0.23359,-0.08028 -0.56457,0.179513 -0.73867,0 -0.17411,-0.179513 0.1741,-0.582097 0,-0.76161 -0.34822,-0.359027 -1.03689,0.227068 -1.47735,0 -0.31146,-0.160562 -0.42723,-0.60105 -0.73868,-0.761611 -0.22023,-0.113534 -0.50509,0.08028 -0.73867,0 -4.58045,-2.361327 0.36247,-0.09697 -2.21604,-0.76161 -1.86977,-0.481958 -3.4676,-1.406828 -5.17073,-2.284832 -0.49245,-0.253871 -0.9849,-0.507741 -1.47735,-0.761611 -0.49245,-0.25387 -0.93747,-0.650281 -1.47735,-0.76161 -0.72434,-0.149364 -1.4917,0.149364 -2.21603,0 -0.54805,-0.113013 -3.74465,-1.930455 -4.43206,-2.284831 -3.46465,-1.786112 0.87053,0.359026 -3.69338,-1.523221 -1.0224,-0.421656 -1.9698,-1.015481 -2.9547,-1.523221 -0.49245,-0.25387 -1.01925,-0.446724 -1.47735,-0.76161 -0.28974,-0.199153 -0.40834,-0.648077 -0.73868,-0.761612 -0.46719,-0.160561 -1.01017,0.160562 -1.47736,0 -0.33034,-0.113534 -0.42722,-0.601048 -0.73867,-0.76161 -0.29288,-0.150986 -2.06502,0.155702 -2.21603,0 -0.17411,-0.179514 0.17411,-0.582097 0,-0.761611 -0.17866,-0.184207 -3.10451,0.202385 -3.69338,0 -0.52233,-0.179513 -0.95503,-0.582097 -1.47736,-0.76161 -0.70077,-0.240842 -1.4994,0.184718 -2.21602,0 -0.53414,-0.13768 -0.95503,-0.582097 -1.47735,-0.76161 -0.23359,-0.08028 -0.49246,0 -0.73868,0 -0.49245,0 -0.9849,0 -1.47736,0 -0.49244,0 -0.9996,0.123145 -1.47735,0 -0.53413,-0.137681 -0.94321,-0.623931 -1.47735,-0.761611 -0.95549,-0.24629 -2.02034,0.321124 -2.9547,0 -0.33035,-0.113534 -0.40833,-0.648076 -0.73868,-0.76161 -0.48876,-0.167979 -4.16973,0 -5.17073,0 -0.38627,0 -2.76047,-0.10013 -2.95471,0 -0.31145,0.160561 -0.42722,0.601049 -0.73867,0.76161 -0.22023,0.113534 -0.49245,0 -0.73868,0 -0.24623,0.25387 -0.42722,0.601049 -0.73867,0.761611 -0.22024,0.113533 -0.49245,0 -0.73868,0 -0.24623,0.25387 -0.42722,0.601049 -0.73867,0.76161 -0.22024,0.113534 -0.56457,-0.179513 -0.73868,0 -0.1741,0.179513 0.17411,0.582097 0,0.76161 -0.34822,0.359027 -1.12913,-0.359026 -1.47736,0 -0.1741,0.179514 0.17411,0.582097 0,0.761611 -1.9698,0 0.24623,-0.25387 -0.73867,0.76161 -0.17411,0.179513 -0.51844,-0.113534 -0.73868,0 -0.31145,0.160562 -0.42722,0.601049 -0.73867,0.761612 -0.22023,0.113533 -0.56457,-0.179514 -0.73868,0 -0.17411,0.179513 0.17411,0.582097 0,0.76161 -0.17411,0.179513 -0.49245,0 -0.73867,0 0,0.25387 0.1741,0.582097 0,0.76161 -0.17411,0.179514 -0.56457,-0.179513 -0.73868,0 -0.17411,0.179514 0.17411,0.582097 0,0.761611 -0.34821,0.359026 -1.05508,-0.261231 -1.47735,0 -1.05569,0.653076 -1.96981,1.523221 -2.95471,2.284831 z"
         id="path5114"
         inkscape:connector-curvature="0" />
    </clipPath>
    <filter
       inkscape:collect="always"
       style="color-interpolation-filters:sRGB"
       id="filter905"
       x="-2.4059749e-05"
       width="1.0000481"
       y="-1.5973552e-05"
       height="1.0000319">
      <feGaussianBlur
         inkscape:collect="always"
         stdDeviation="0.0032590489"
         id="feGaussianBlur907" />
    </filter>
    <radialGradient
       inkscape:collect="always"
       xlink:href="#linearGradient921"
       id="radialGradient923"
       cx="243.08022"
       cy="122.74076"
       fx="243.08022"
       fy="122.74076"
       r="162.55558"
       gradientTransform="matrix(-6.6093889,-1.4233703,1.4739761,-6.8443746,1668.775,1239.3768)"
       gradientUnits="userSpaceOnUse" />
    <radialGradient
       inkscape:collect="always"
       xlink:href="#linearGradient937"
       id="radialGradient939"
       cx="245.14917"
       cy="144.66335"
       fx="245.14917"
       fy="144.66335"
       r="151.84238"
       gradientTransform="matrix(3.1389325,2.268285,-0.58988842,0.81630841,-439.0223,-529.49474)"
       gradientUnits="userSpaceOnUse" />
    <radialGradient
       inkscape:collect="always"
       xlink:href="#linearGradient945"
       id="radialGradient947"
       cx="250.66298"
       cy="228.29729"
       fx="250.66298"
       fy="228.29729"
       r="164.06323"
       gradientTransform="matrix(2.8402591,-3.1391295,0.14671476,0.13274633,-494.7794,984.85521)"
       gradientUnits="userSpaceOnUse" />
    <radialGradient
       inkscape:collect="always"
       xlink:href="#linearGradient953"
       id="radialGradient955"
       cx="254.98491"
       cy="335.65759"
       fx="254.98491"
       fy="335.65759"
       r="158.05533"
       gradientTransform="matrix(0.21922076,-2.002678,5.6014286,0.61315362,-1681.0751,640.50057)"
       gradientUnits="userSpaceOnUse" />
    <radialGradient
       inkscape:collect="always"
       xlink:href="#linearGradient961"
       id="radialGradient963"
       cx="265.81635"
       cy="436.68097"
       fx="265.81635"
       fy="436.68097"
       r="106.89421"
       gradientTransform="matrix(4.0113684,-0.71397165,1.0097273,5.6730382,-1241.3997,-1850.8415)"
       gradientUnits="userSpaceOnUse" />
  </defs>
  <g
     id="g970"
     transform="matrix(0.35908369,0.93922415,-0.98239334,0.34330453,421.97828,-76.717887)">
    <ellipse
       ry="244.83337"
       rx="162.54778"
       cy="259.92145"
       cx="251.10709"
       id="path897"
       style="fill:url(#radialGradient923);fill-opacity:1;stroke:#6c5353;stroke-width:1.32277;stroke-miterlimit:4;stroke-dasharray:none;stroke-opacity:1;filter:url(#filter905)" />
    <path
       inkscape:connector-curvature="0"
       id="path901"
       d="m 111.60369,139.94145 c 5.79796,2.89898 3.38489,2.69788 6.74472,2.69788 0.44965,0 1.031,-0.31794 1.34895,0 0.31795,0.31796 -0.31795,1.031 0,1.34895 0.31795,0.31796 0.92237,-0.14219 1.34894,0 0.95384,0.31796 1.79859,0.89929 2.6979,1.34894 0.89929,0.44966 1.8613,0.79123 2.69788,1.34895 0.5291,0.35273 0.78017,1.06456 1.34894,1.34895 0.40218,0.20108 0.8993,0 1.34895,0 2.00779,0 1.72178,-0.2011 4.04684,1.34894 0.52909,0.35273 0.78017,1.06456 1.34893,1.34895 0.48782,0.24391 5.80648,0 6.74472,0 0.44965,0 1.031,-0.31796 1.34895,0 0.31794,0.31794 -0.31795,1.03099 0,1.34893 0.31794,0.31796 0.8993,0 1.34894,0 2.69789,0 5.39577,0 8.09367,0 0.44965,0 0.94676,0.2011 1.34894,0 0.56877,-0.28437 0.78018,-1.06456 1.34895,-1.34893 0.40218,-0.2011 0.89929,0 1.34894,0 0.8993,0 1.84474,0.28437 2.69789,0 0.60327,-0.2011 0.74568,-1.14786 1.34894,-1.34895 1.27972,-0.42657 2.76712,0.42657 4.04684,0 0.95384,-0.31794 1.74404,-1.031 2.69788,-1.34894 0.42658,-0.1422 0.92238,0.14219 1.34895,0 0.95385,-0.31795 1.72247,-1.10509 2.69789,-1.34895 1.33719,-0.33429 5.55024,0.39816 6.74472,0 0.95385,-0.31795 1.74404,-1.031 2.69789,-1.34895 0.85314,-0.28438 2.06198,0.63591 2.69789,0 0.31795,-0.31794 -0.31796,-1.03098 0,-1.34894 0.67446,-0.67447 3.37235,0.67447 4.04683,0 0.31794,-0.31795 -0.31795,-1.03099 0,-1.34895 0.32459,-0.32459 5.07118,0.32461 5.39577,0 0.31796,-0.31794 0.31796,-1.03099 0,-1.34893 -0.31795,-0.31796 -1.03099,0.31794 -1.34895,0 -0.31794,-0.31796 -0.31794,-1.031 0,-1.34895 0.31796,-0.31796 1.031,0.31795 1.34895,0 0.31796,-0.31796 -0.31795,-1.031 0,-1.34894 0.13489,-0.1349 3.91194,-0.1349 4.04684,0 0.63589,0.63589 -0.63591,2.06198 0,2.69789 0.31794,0.31794 0.94676,-0.2011 1.34894,0 0.56876,0.28437 0.78018,1.06456 1.34895,1.34893 0.34876,0.17439 7.13752,0 8.09366,0 0.44964,0 1.03099,0.31796 1.34894,0 0.6359,-0.63589 -0.6359,-2.06198 0,-2.69788 0.6359,-0.6359 2.062,0.6359 2.69789,0 0.31795,-0.31796 -0.20108,-0.94677 0,-1.34894 2.807,-5.61399 -0.0931,1.44207 2.69789,-1.34895 0.6359,-0.63589 -0.6359,-2.06199 0,-2.69789 0.31795,-0.31795 1.03099,0.31796 1.34895,0 0.63589,-0.6359 -0.63591,-2.06199 0,-2.69788 0.31794,-0.31795 1.03099,0.31794 1.34893,0 2.79102,-2.79102 -4.26503,0.10906 1.34895,-2.69789 0.40218,-0.20109 1.031,0.31794 1.34894,0 0.63591,-0.6359 -0.63589,-2.06199 0,-2.6979 0.31795,-0.31794 1.031,0.31796 1.34895,0 0.63589,-0.63589 -0.40218,-1.89353 0,-2.69788 0.12911,-0.25822 5.13756,-5.26667 5.39577,-5.39578 0.40218,-0.20108 1.031,0.31796 1.34895,0 0.31796,-0.31795 -0.31795,-1.03099 0,-1.34895 0.31796,-0.31794 1.031,0.31796 1.34894,0 0.31795,-0.31794 -0.31794,-1.03098 0,-1.34893 0.31795,-0.31796 0.8993,0 1.34895,0 3.14753,0 6.29508,0 9.44261,0 2.69788,0 5.39577,0 8.09367,0 0.89929,0 1.82544,-0.21811 2.69789,0 1.95084,0.48771 3.44492,2.21017 5.39577,2.69788 0.87244,0.21811 1.84474,-0.28437 2.69788,0 0.60327,0.20109 0.78019,1.06456 1.34895,1.34895 0.80435,0.40217 1.89353,-0.40218 2.69789,0 0.56877,0.28438 0.78018,1.06456 1.34894,1.34894 0.40218,0.2011 0.8993,0 1.34895,0 0.44964,0.44965 0.78018,1.06456 1.34895,1.34895 0.40216,0.20108 1.03098,-0.31795 1.34893,0 0.31796,0.31794 -0.20108,0.94676 0,1.34894 0.28439,0.56876 1.06456,0.78018 1.34895,1.34895 0.20109,0.40217 -0.31795,1.03099 0,1.34893 0.31794,0.31796 0.94676,-0.20108 1.34894,0 1.13753,0.56877 1.56037,2.12914 2.6979,2.6979 0.851,0.4255 5.8937,-0.42551 6.74471,0 0.56876,0.28438 0.74569,1.14786 1.34895,1.34894 0.85314,0.28439 1.79859,0 2.69788,0 3.14754,0 6.29508,0 9.44261,0 0.53327,0 6.16861,0.28806 6.74473,0 0.56876,-0.28438 0.78018,-1.06456 1.34894,-1.34894 0.40217,-0.20109 0.8993,0 1.34894,0 0.44965,-0.44966 0.78019,-1.06457 1.34895,-1.34895 0.40218,-0.20108 1.031,0.31796 1.34894,0 0.31795,-0.31795 -0.31794,-1.03099 0,-1.34895 0.6359,-0.63589 2.06199,0.63591 2.69788,0 0.31796,-0.31794 -0.31794,-1.03098 0,-1.34893 0.31796,-0.31796 1.031,0.31795 1.34895,0 2.79102,-2.79102 -4.26504,0.10906 1.34895,-2.69789 0.40218,-0.2011 0.94676,0.20108 1.34894,0 0.56877,-0.28439 0.81985,-0.99621 1.34895,-1.34895 0.83658,-0.55772 1.86131,-0.79123 2.69789,-1.34894 0.52909,-0.35273 0.78018,-1.06457 1.34895,-1.34895 0.40216,-0.20108 0.94675,0.20109 1.34893,0 1.13754,-0.56876 1.56036,-2.12912 2.69789,-2.69788 0.40218,-0.2011 0.94677,0.20108 1.34895,0 0.56876,-0.28439 0.89929,-0.89931 1.34894,-1.34895 0.44965,-0.44965 1.06457,-0.78017 1.34895,-1.34894 0.20108,-0.40218 -0.31796,-1.031 0,-1.34895 0.63589,-0.63589 2.06199,0.63589 2.69788,0 0.31795,-0.31795 -0.31795,-1.031 0,-1.34894 0.0542,-0.0543 4.9004,0 5.39577,0 3.16353,0 -0.63589,0.31794 2.6979,-1.34895 0.41053,-0.20526 3.43932,0 4.04683,0 3.14754,0 6.29507,0 9.44261,0 0.44965,0 0.8993,0 1.34895,0 0.44964,0 0.94677,0.20109 1.34894,0 0.56876,-0.28438 0.78018,-1.06456 1.34894,-1.34894 0.40218,-0.20109 1.031,0.31795 1.34895,0 0.31794,-0.31794 -0.31795,-1.031 0,-1.34894 0.31794,-0.31795 1.031,0.31794 1.34894,0 0.31795,-0.31795 -0.31794,-1.031 0,-1.34895 0.31795,-0.31795 1.03099,0.31795 1.34895,0 0.31795,-0.31795 -0.31796,-1.031 0,-1.34894 0.31795,-0.31795 1.03099,0.31794 1.34893,0 0.31796,-0.31795 -0.31794,-1.03099 0,-1.34895 0.63591,-0.63589 2.062,0.6359 2.6979,0 0.6359,-0.63589 -0.6359,-2.06199 0,-2.697884 0.31794,-0.317953 1.03099,0.317953 1.34894,0 0.31795,-0.317953 -0.31795,-1.030996 0,-1.348949 0.63591,-0.635894 2.06199,0.635906 2.69789,0 0.31795,-0.317941 -0.31794,-1.030997 0,-1.348937 0.0434,-0.0434 3.71968,0 4.04683,0 0.44965,0 1.031,-0.317953 1.34895,0 0.31794,0.31794 -0.31795,1.030996 0,1.348937 0.31794,0.317953 1.34894,-0.449646 1.34894,0 0,0.449658 -1.7986,0 -1.34894,0 1.34894,0 2.69789,0 4.04683,0 0.44964,0 1.03099,-0.317941 1.34894,0 0.31796,0.317953 0,0.899304 0,1.348949 0,0.636014 -0.0612,6.683594 0,6.744724 0.31796,0.31794 1.031,-0.31795 1.34894,0 0.31795,0.31794 -0.31794,1.031 0,1.34894 0.31795,0.31795 1.031,-0.31794 1.34895,0 0.31795,0.31795 -0.31795,1.03099 0,1.34894 0.31795,0.31796 1.031,-0.31795 1.34895,0 0.31794,0.31796 -0.31795,1.031 0,1.34895 0.31794,0.31794 1.03098,-0.31795 1.34894,0 0.6359,0.6359 -0.6359,2.06199 0,2.69789 0.31795,0.31794 1.03099,-0.31795 1.34895,0 0.31794,0.31794 -0.31796,1.031 0,1.34894 2.79101,2.79101 -0.10906,-4.26503 2.69788,1.34895 0.20109,0.40218 -0.31795,1.03099 0,1.34893 0.31796,0.31796 0.94677,-0.20108 1.34894,0 0.35817,0.17909 3.86776,3.68868 4.04684,4.04684 0.20109,0.40218 0,0.8993 0,1.34895 0,0.44965 0.44964,1.34894 0,1.34894 -0.44965,0 0,-1.79859 0,-1.34894 0,0.89929 0,1.79858 0,2.69789 0,0.44964 0,0.89929 0,1.34893 0,0.44966 -0.20109,0.94677 0,1.34895 0.28439,0.56877 1.06456,0.78019 1.34895,1.34895 0.40217,0.80435 -0.40218,1.89353 0,2.69789 0.28437,0.56876 1.06456,0.78017 1.34893,1.34894 0.26743,0.53485 -0.27577,3.77106 0,4.04683 0.31796,0.31795 1.031,-0.31795 1.34895,0 0.31796,0.31795 0,0.89929 0,1.34895 0,0.44965 0,0.89929 0,1.34894 0,1.19051 0.28083,4.83412 0,5.39577 -2.80699,5.61399 0.0931,-1.44207 -2.69788,1.34895 -0.31796,0.31795 0.31795,1.031 0,1.34895 -0.63591,0.63589 -1.89355,-0.40218 -2.69789,0 -0.56877,0.28438 -0.78018,1.06456 -1.34895,1.34894 -0.40218,0.20109 -0.89929,0 -1.34895,0 -0.44965,0 -0.89929,0 -1.34894,0 -2.24824,0 -4.49648,0 -6.74472,0 -0.44964,0 -0.94677,-0.20109 -1.34895,0 -0.56875,0.28439 -0.74567,1.14785 -1.34894,1.34895 -1.05459,0.35152 -7.35134,-0.37117 -8.09367,0 -0.56875,0.28437 -0.78017,1.06456 -1.34893,1.34893 -0.40218,0.2011 -0.89931,0 -1.34895,0 -0.89929,0 -1.79859,0 -2.69789,0 -2.24824,0 -4.49648,0 -6.74472,0 -6.74472,0 -13.48945,0 -20.23416,0 -2.6979,0 -5.39578,0 -8.09367,0 -0.88639,0 -3.28575,-0.25368 -4.04683,0 -0.95385,0.31796 -1.74404,1.031 -2.69789,1.34895 -1.27972,0.42658 -2.73817,-0.32717 -4.04682,0 -0.97544,0.24385 -1.72247,1.10509 -2.6979,1.34895 -0.87245,0.21811 -1.82545,-0.21812 -2.69789,0 -0.97542,0.24385 -1.71197,1.15176 -2.69789,1.34894 -1.32274,0.26455 -2.72408,-0.26456 -4.04683,0 -0.98592,0.19719 -1.72247,1.10509 -2.69789,1.34895 -0.87244,0.21811 -1.82544,-0.21812 -2.69788,0 -0.97543,0.24385 -1.72247,1.10509 -2.69789,1.34893 -0.87244,0.21812 -1.82544,-0.2181 -2.69789,0 -0.97542,0.24387 -1.72246,1.10509 -2.69788,1.34895 -0.87246,0.21811 -1.84475,-0.28438 -2.6979,0 -0.60326,0.20109 -0.78017,1.06456 -1.34894,1.34894 -0.40218,0.2011 -0.94677,-0.20108 -1.34895,0 -0.56877,0.28439 -0.78017,1.06457 -1.34894,1.34895 -0.80435,0.40218 -2.06199,-0.63589 -2.69788,0 -0.31796,0.31795 0.31794,1.031 0,1.34895 -0.63591,0.63589 -2.062,-0.63591 -2.6979,0 -0.31794,0.31794 0.31795,1.03098 0,1.34894 -0.63589,0.6359 -1.89353,-0.40218 -2.69789,0 -0.56876,0.28439 -0.78017,1.06456 -1.34893,1.34895 -0.80436,0.40218 -1.89355,-0.40218 -2.69789,0 -1.13753,0.56876 -1.56037,2.12912 -2.6979,2.69788 -0.40218,0.20109 -0.92237,-0.14219 -1.34894,0 -0.95384,0.31796 -1.74404,1.031 -2.69788,1.34894 -0.42658,0.1422 -0.94677,-0.20108 -1.34895,0 -0.56877,0.28439 -0.74568,1.14787 -1.34895,1.34895 -0.85315,0.28438 -1.84473,-0.28438 -2.69789,0 -0.60326,0.20108 -0.81984,0.99621 -1.34894,1.34895 0.15362,2.55547 -3.14754,0.89929 -4.04683,1.34894 -0.56877,0.28439 -0.78018,1.06456 -1.34895,1.34895 -0.40217,0.20108 -0.94676,-0.2011 -1.34894,0 -0.56876,0.28437 -0.78018,1.06456 -1.34895,1.34893 -0.40218,0.2011 -1.03099,-0.31794 -1.34893,0 -0.31796,0.31796 0.31794,1.031 0,1.34895 -0.63591,0.6359 -2.062,-0.6359 -2.69789,0 -0.31795,0.31795 0.31794,1.031 0,1.34894 -0.63591,0.6359 -2.06199,-0.63589 -2.6979,0 -0.31794,0.31795 0.31795,1.031 0,1.34895 -0.31794,0.31795 -0.89929,0 -1.34894,0 -0.63603,0 -6.68359,-0.0612 -6.74472,0 -0.31795,0.31795 0.31795,1.03099 0,1.34895 -0.31795,0.31794 -1.031,-0.31796 -1.34895,0 -0.31794,0.31794 0.31795,1.03099 0,1.34893 -0.20933,0.20935 -3.52192,-0.17496 -4.04682,0 -0.95385,0.31796 -1.74404,1.031 -2.6979,1.34895 -0.42657,0.14219 -0.92236,-0.14218 -1.34894,0 -0.95384,0.31794 -1.74404,1.031 -2.69788,1.34894 -0.85316,0.28439 -1.84475,-0.28438 -2.69789,0 -0.95386,0.31795 -1.74404,1.031 -2.6979,1.34895 -1.27972,0.42658 -2.73815,-0.32717 -4.04682,0 -0.97542,0.24385 -1.74404,1.031 -2.69789,1.34895 -0.87401,0.29133 -5.64034,0 -6.74472,0 -0.60752,0 -3.63631,0.20526 -4.04684,0 -0.56876,-0.28439 -0.78018,-1.06457 -1.34895,-1.34895 -1.07914,-0.53958 -2.96767,0.53958 -4.04682,0 -0.56877,-0.28439 -0.78018,-1.06456 -1.34895,-1.34895 -1.07916,-0.53957 -2.96768,0.53958 -4.04684,0 -0.56876,-0.28438 -0.74567,-1.14785 -1.34893,-1.34894 -0.85316,-0.28439 -1.7986,0 -2.69789,0 -2.6979,0 -5.39578,0 -8.09367,0 -0.89929,0 -1.82544,0.21811 -2.69789,0 -0.97542,-0.24386 -1.72246,-1.10508 -2.69788,-1.34895 -0.87245,-0.2181 -1.7986,0 -2.69789,0 -0.8993,0 -1.7986,0 -2.69789,0 -4.04683,0 -8.09367,0 -12.1405,0 -0.44965,0 -0.8993,0 -1.34894,0 -0.44965,0 -1.031,-0.31794 -1.34895,0 -0.31794,0.31796 0.31795,1.031 0,1.34895 -0.32459,0.3246 -5.07118,-0.3246 -5.39577,0 -0.31796,0.31794 0.31795,1.031 0,1.34894 -0.31796,0.31795 -0.94677,-0.20108 -1.34895,0 -0.56877,0.28439 -0.78017,1.06456 -1.34894,1.34895 -0.40218,0.20108 -0.92237,-0.14219 -1.34895,0 -0.95385,0.31795 -1.74404,1.031 -2.69789,1.34895 -0.42657,0.14219 -0.94677,-0.2011 -1.34895,0 -3.96968,1.98483 2.09396,1.34894 -4.04682,1.34894 -3.2424,0 0.56877,-0.14219 -5.39578,1.34895 -0.43622,0.10906 -0.8993,0 -1.34894,0 -1.34895,0 -2.69789,0 -4.04684,0 -2.24824,0 -4.49648,0 -6.74472,0 -3.59718,0 -7.19437,0 -10.79154,0 -0.89931,0 -1.7986,0 -2.6979,0 -0.89929,0 -1.84473,0.28437 -2.69789,0 -0.60326,-0.2011 -0.74567,-1.14786 -1.34894,-1.34895 -2.316347,-0.77212 -2.781426,1.18186 -4.046833,-1.34894 -0.402179,-0.80436 0.635894,-2.06199 0,-2.6979 -0.317953,-0.31794 -1.030996,0.31795 -1.348949,0 -0.635894,-0.63589 0.635906,-2.06198 0,-2.69789 -0.317941,-0.31794 -1.030984,0.31796 -1.348937,0 -0.0434,-0.0434 0,-3.71968 0,-4.04683 0,-0.44965 -0.317953,-1.03099 0,-1.34894 0.317953,-0.31795 1.030996,0.31795 1.348937,0 0.635906,-0.6359 -0.635894,-2.06199 0,-2.69788 0.317953,-0.31796 1.030996,0.31794 1.348949,0 0.317953,-0.31796 -0.201083,-0.94677 0,-1.34895 0.284377,-0.56877 1.06456,-0.78019 1.34895,-1.34894 0.402166,-0.80436 -0.635906,-2.06199 0,-2.6979 0.31794,-0.31794 1.030984,0.31795 1.348937,0 0.635906,-0.63589 -0.635894,-2.06198 0,-2.69789 0.317953,-0.31794 1.030996,0.31796 1.348946,0 0.31794,-0.31794 -0.31795,-1.03099 0,-1.34893 0.31794,-0.31796 1.031,0.31794 1.34894,0 0.47351,-0.47351 -0.46587,-5.81297 0,-6.74473 0.28439,-0.56876 1.06456,-0.78018 1.34895,-1.34895 0.20108,-0.40217 -0.31795,-1.03099 0,-1.34893 0.31795,-0.31795 1.031,0.31794 1.34894,0 0.31795,-0.31795 -0.20109,-0.94677 0,-1.34895 0.28439,-0.56877 1.06457,-0.78018 1.34895,-1.34894 0.40217,-0.80436 -0.6359,-2.06199 0,-2.6979 0.31795,-0.31794 1.03099,0.31796 1.34895,0 0.67446,-0.67447 -0.67449,-3.37235 0,-4.04682 0.31794,-0.31795 1.03098,0.31794 1.34893,0 0.63591,-0.63591 -0.33398,-1.86291 0,-2.6979 0.74683,-1.86705 1.7986,-3.59718 2.69789,-5.39577 z"
       style="fill:url(#radialGradient939);fill-opacity:1;stroke:#000000;stroke-width:1.24356px;stroke-linecap:butt;stroke-linejoin:miter;stroke-opacity:1" />
    <path
       sodipodi:nodetypes="ccscscsscccccccscscccsccccsccsccccccsccscccccssssccccccccccccsccsccccccsccscscccsccsscccscccsccsccccscsccccsscccscssccsscccccccccccsccsccssccccccccssccssssscscscsscccccssssccccccccccsssccccccccccscscscscccccccsccccccccsccsccsscccscccccccsccccccsccscscsccscscccccsccccccscscccccsccccssccssccsscccccccsccsscccscccsssccscc"
       inkscape:connector-curvature="0"
       id="path903"
       d="m 98.114257,350.37674 c 1.798582,0.89929 3.528703,1.95107 5.395773,2.69788 0.41749,0.167 0.89929,0 1.34894,0 h 2.6979 6.74471 c 0.32715,0 4.00346,0.0434 4.04683,0 0.63591,-0.63589 -0.63589,-2.06199 0,-2.69788 0.31795,-0.31795 1.031,0.31795 1.34895,0 0.63589,-0.6359 -0.63591,-2.06199 0,-2.69789 0.31795,-0.31795 0.94677,0.20109 1.34894,0 0.56876,-0.28439 0.78018,-1.06456 1.34895,-1.34895 0.40218,-0.20108 1.14785,0.40218 1.34895,0 0.40216,-0.80434 -0.40218,-1.89353 0,-2.69788 0.20108,-0.40218 0.94675,0.20109 1.34893,0 0.56877,-0.28438 0.78019,-1.06456 1.34895,-1.34894 0.40218,-0.2011 1.031,0.31794 1.34894,0 0.31795,-0.31795 -0.31794,-1.031 0,-1.34895 0.31795,-0.31795 1.031,0.31795 1.34895,0 0.31795,-0.31795 -0.2011,-0.94677 0,-1.34895 0.28438,-0.56875 1.06456,-0.78017 1.34894,-1.34894 0.20109,-0.40218 -0.31794,-1.03099 0,-1.34895 0.31795,-0.31794 1.03099,0.31796 1.34895,0 0.71095,-0.71095 0.63798,-1.98693 1.34895,-2.69788 0.31794,-0.31796 0.94675,0.20109 1.34893,0 0.56877,-0.28438 0.78019,-1.06456 1.34895,-1.34894 0.80435,-0.40218 2.06198,0.63589 2.69789,0 0.31795,-0.31795 -0.31795,-1.031 0,-1.34895 0.31795,-0.31795 1.03099,0.31795 1.34893,0 0.31796,-0.31795 -0.31794,-1.031 0,-1.34895 0.0612,-0.0612 6.10871,0 6.74473,0 0.44966,0 1.03099,0.31795 1.34895,0 0.31795,-0.31794 -0.31796,-1.03098 0,-1.34894 0.63589,-0.6359 2.06199,0.6359 2.69788,0 0.6359,-0.6359 -0.40218,-1.89354 0,-2.69788 0.28439,-0.56877 1.06456,-0.78019 1.34895,-1.34895 0.20109,-0.40218 -0.31795,-1.031 0,-1.34894 0.31794,-0.31795 1.031,0.31794 1.34894,0 0.31795,-0.31795 -0.31794,-1.031 0,-1.34895 0.99242,-0.99242 2.43449,1.08555 2.69789,1.34895 3.16352,3.16351 -0.95385,-0.31795 4.04683,1.34894 1.20654,0.40218 1.56036,2.12912 2.69789,2.69788 0.40218,0.2011 1.03099,-0.31794 1.34895,0 0.71095,0.71096 0.51236,2.14018 1.34893,2.69789 0.74827,0.49884 1.84475,-0.28438 2.6979,0 0.60327,0.2011 0.81984,0.99622 1.34894,1.34895 2.2349,1.48993 3.06372,1.34895 5.39577,1.34895 h 4.04684 c 0.44964,0 1.34895,-0.44966 1.34895,0 0,0.44965 -1.34895,-0.44966 -1.34895,0 0,0.63589 0.78018,1.06456 1.34895,1.34894 0.15056,0.0752 6.59415,0.0752 6.74472,0 5.61398,-2.80699 -1.44208,0.0931 1.34894,-2.69789 0.31795,-0.31795 0.94677,0.20108 1.34895,0 5.61398,-2.807 -1.44207,0.0931 1.34893,-2.69789 10e-4,-0.001 4.04072,0.002 4.04684,0 0.60326,-0.20109 0.74567,-1.14785 1.34895,-1.34895 0.85314,-0.28437 1.84473,0.28439 2.69789,0 0.60326,-0.20108 0.74567,-1.14785 1.34893,-1.34893 1.7063,-0.56877 3.65089,0.43621 5.39579,0 1.95084,-0.48771 3.44493,-2.21018 5.39577,-2.69789 0.87244,-0.21812 1.7986,0 2.69789,0 0.8993,-0.44966 1.74404,-1.031 2.69788,-1.34895 1.27972,-0.42658 2.73817,0.32717 4.04684,0 2.44151,0.81305 2.5088,-2.1852 4.04684,-2.69788 0.85314,-0.28439 1.79859,0 2.69788,0 0.44965,0 0.94677,0.20108 1.34894,0 0.56877,-0.28439 0.78018,-1.06456 1.34895,-1.34895 0.40218,-0.20109 0.94677,0.20109 1.34895,0 0.56876,-0.28438 0.78017,-1.06456 1.34894,-1.34894 0.73178,-0.36589 5.02667,0.3691 5.39578,0 0.31794,-0.31795 -0.31795,-1.031 0,-1.34895 0.31794,-0.31795 1.03098,0.31795 1.34894,0 0.31795,-0.31795 -0.31796,-1.031 0,-1.34894 0.27577,-0.27578 3.51199,0.26742 4.04683,0 0.56877,-0.28439 0.78019,-1.06457 1.34894,-1.34895 0.80436,-0.40218 1.84474,0.28438 2.6979,0 7.64268,-3.82134 -2.0109,0.50272 5.39577,-1.34895 1.95085,-0.48771 3.44493,-2.21017 5.39577,-2.69788 2.18112,-0.54528 4.54015,0.44091 6.74473,0 0.98591,-0.19718 1.72246,-1.10509 2.69788,-1.34894 0.87245,-0.21812 1.7986,0 2.69789,0 h 4.04684 8.09367 1.34893 c 0.44965,0 1.031,-0.31795 1.34895,0 0.67447,0.67447 -0.67448,3.37236 0,4.04682 0.27578,0.27579 3.51199,-0.26741 4.04683,0 5.61399,2.807 -1.44207,-0.0931 1.34895,2.6979 0.31795,0.31794 0.89929,0 1.34895,0 0.93824,0 6.25688,0.24391 6.74471,0 0.56876,-0.28439 0.81985,-0.99621 1.34895,-1.34895 0.83657,-0.55772 1.98693,-0.63798 2.69788,-1.34895 0.31795,-0.31794 -0.31795,-1.03098 0,-1.34893 0.31795,-0.31796 1.14786,0.40218 1.34895,0 0.40218,-0.80436 -0.40218,-1.89354 0,-2.69789 0.20108,-0.40218 1.031,0.31794 1.34894,0 0.31795,-0.31795 -0.31794,-1.031 0,-1.34895 0.31795,-0.31795 1.14785,0.40218 1.34895,0 0.40218,-0.80436 -0.40218,-1.89353 0,-2.69789 0.20108,-0.40217 1.03099,0.31796 1.34893,0 0.63591,-0.63589 -0.63589,-2.06199 0,-2.69788 0.31796,-0.31795 1.031,0.31794 1.34895,0 0.31796,-0.31795 -0.31795,-1.031 0,-1.34895 0.31796,-0.31795 1.031,0.31795 1.34895,0 0.31794,-0.31795 -0.31795,-1.031 0,-1.34894 0.6359,-0.6359 1.89353,0.40217 2.69789,0 1.13753,-0.56876 1.56035,-2.12913 2.69789,-2.6979 0.40218,-0.20108 1.03099,0.31796 1.34895,0 0.31794,-0.31794 -0.31796,-1.03098 0,-1.34893 0.27577,-0.27578 3.51198,0.26742 4.04682,0 4.47389,-4.47389 -1.2718,0.63589 2.69789,-1.34895 0.56876,-0.28438 0.78018,-1.06456 1.34895,-1.34894 0.73178,-0.36589 5.02667,0.3691 5.39577,0 0.31795,-0.31795 -0.31794,-1.031 0,-1.34895 0.31795,-0.31795 1.03099,-0.31795 1.34895,0 0.31795,0.31795 -0.31796,1.031 0,1.34895 0.63589,0.63589 1.89353,-0.40218 2.69788,0 0.56877,0.28438 0.74568,1.14785 1.34895,1.34894 0.74599,0.24866 6.7352,0 8.09366,0 0.44965,0 1.031,0.31795 1.34895,0 0.31794,-0.31794 -0.31795,-1.031 0,-1.34894 0.6359,-0.63591 2.06198,0.63589 2.69789,0 0.63589,-0.63591 -0.63591,-2.06199 0,-2.69789 0.67447,-0.67448 3.37235,0.67447 4.04683,0 2.79101,-2.79101 -4.26504,0.10906 1.34894,-2.6979 0.80436,-0.40216 1.89353,0.40218 2.69789,0 0.56876,-0.28437 0.78018,-1.06456 1.34895,-1.34893 0.40218,-0.2011 0.94677,0.20108 1.34893,0 0.56877,-0.28439 0.78019,-1.06456 1.34895,-1.34895 0.40218,-0.20109 0.94677,0.20109 1.34895,0 6.17358,-3.08679 -5.72413,0.5591 4.04683,-2.69789 0.42657,-0.14219 0.8993,0 1.34895,0 1.12958,0 5.71888,0.25646 6.74472,0 0.97542,-0.24385 1.74404,-1.031 2.69788,-1.34894 0.84903,-0.283 5.52884,0 6.74473,0 0.93824,0 6.2569,0.24392 6.74472,0 0.56877,-0.28438 0.78017,-1.06457 1.34894,-1.34895 0.53485,-0.26742 3.77106,0.27578 4.04683,0 0.31796,-0.31795 -0.44964,-1.34894 0,-1.34894 0.44965,0 -0.20108,0.94677 0,1.34894 0.28438,0.56877 1.06456,0.78019 1.34895,1.34895 0.20108,0.40217 -0.31795,1.03099 0,1.34894 0.31794,0.31795 0.94676,-0.20108 1.34894,0 0.56876,0.28439 0.89929,0.89931 1.34895,1.34895 0.44964,0.44965 1.06456,0.78017 1.34894,1.34894 0.20109,0.40218 -0.31795,1.03099 0,1.34895 0.31795,0.31795 10.79154,-2.6979 1.34894,0 0,3.59717 7.64402,-4.49648 9.4426,-2.6979 0.0612,0.0612 -8.09366,10.15554 -8.09366,10.79156 0,0.32715 -0.0434,4.00346 0,4.04683 0.63591,0.6359 2.06199,-0.63589 2.6979,0 0.31794,0.31796 0,0.89929 0,1.34895 0,0.44965 0.44965,1.34894 0,1.34894 -0.44966,0 0,-1.7986 0,-1.34894 v 2.69789 c 0,0.44964 0.31794,1.03099 0,1.34894 -0.31795,0.31795 -1.031,-0.31795 -1.34895,0 -0.63589,0.6359 0.63589,2.06199 0,2.69788 -0.31795,0.31795 1.6669,-3.01583 1.34895,-2.69788 -0.31794,0.31795 -2.6979,3.59719 -2.6979,4.04683 v 1.34895 9.44261 c 0,0.44964 -0.31794,1.031 0,1.34894 0.31795,0.31795 1.031,-0.31794 1.34895,0 0.47351,0.47351 -0.46589,5.81296 0,6.74472 0.28438,0.56876 1.06456,0.78018 1.34895,1.34895 0.26742,0.53484 -0.27578,3.77105 0,4.04682 0.31794,0.31795 1.03098,-0.31794 1.34894,0 0.31795,0.31795 0,0.89931 0,1.34895 v 1.34895 c 0,0.44965 0.44964,1.34894 0,1.34894 -0.44965,0 0,-1.7986 0,-1.34894 0,0.89929 0.40218,1.89353 0,2.69789 -0.20109,0.40218 -1.031,-0.31796 -1.34894,0 -0.63591,0.63589 0.63589,2.06199 0,2.69788 -0.63591,0.6359 -2.06199,-0.63589 -2.6979,0 -0.31794,0.31796 0.31795,1.031 0,1.34894 -0.63589,0.63591 -2.06198,-0.63589 -2.69788,0 -0.31795,0.31795 0.31795,1.031 0,1.34895 -0.31795,0.31795 -0.94676,-0.20108 -1.34894,0 -0.56877,0.28439 -0.78019,1.06456 -1.34895,1.34895 -0.40218,0.20108 -1.031,-0.31795 -1.34894,0 -0.31795,0.31794 0.31794,1.031 0,1.34894 -0.0543,0.0543 -4.9004,0 -5.39578,0 -3.59718,0 0.44964,0.44964 -1.34894,-1.34894 -0.27578,-0.27578 -3.51199,0.26741 -4.04684,0 -0.56876,-0.28439 -0.78018,-1.06456 -1.34895,-1.34895 -0.80434,-0.40218 -1.89352,0.40218 -2.69788,0 -0.56877,-0.28438 -0.78017,-1.06456 -1.34894,-1.34895 -0.80436,-0.40217 -1.84474,0.28439 -2.6979,0 -0.95384,-0.31794 -1.74404,-1.03098 -2.69788,-1.34894 -0.85315,-0.28439 -1.84475,0.28438 -2.69789,0 -0.95385,-0.31795 -1.74404,-1.03099 -2.69789,-1.34895 -0.42658,-0.14218 -0.94677,0.2011 -1.34895,0 -0.56875,-0.28437 -0.74567,-1.14785 -1.34893,-1.34893 -1.27972,-0.42658 -2.69789,0 -4.04684,0 h -6.74472 -9.44261 c -0.44965,0 -1.031,-0.31796 -1.34894,0 -0.31795,0.31794 0.31794,1.03099 0,1.34893 -0.31795,0.31796 -1.03099,-0.31794 -1.34895,0 -0.31795,0.31796 0.31796,1.031 0,1.34895 -0.31795,0.31796 -1.03099,-0.31795 -1.34895,0 -0.31794,0.31796 0.31796,1.031 0,1.34894 -0.31794,0.31795 -0.94675,-0.20108 -1.34893,0 -0.56877,0.28439 -0.78019,1.06457 -1.34895,1.34895 -0.40218,0.20108 -1.031,-0.31795 -1.34894,0 -2.79102,2.79102 4.26503,-0.10906 -1.34895,2.69789 -0.40218,0.20109 -1.031,-0.31794 -1.34894,0 -0.71096,0.71095 -0.63799,1.98693 -1.34895,2.69788 -0.31795,0.31796 -0.94677,-0.20108 -1.34895,0 -1.32739,0.6637 -4.06837,4.73209 -5.39577,5.39579 -0.40218,0.20108 -0.92237,-0.1422 -1.34894,0 -9.77097,3.25699 2.12675,-0.38891 -4.04683,2.69788 -0.40218,0.20109 -0.92237,-0.14218 -1.34895,0 -0.95385,0.31796 -1.74404,1.031 -2.69789,1.34894 -1.27972,0.42658 -2.76711,-0.42656 -4.04683,0 -0.60327,0.2011 -0.74568,1.14787 -1.34894,1.34895 -0.76736,0.25579 -5.47424,0 -6.74472,0 -0.60751,0 -3.6363,0.20526 -4.04684,0 -0.56876,-0.28438 -0.78017,-1.06456 -1.34894,-1.34895 -0.40217,-0.20108 -0.8993,0 -1.34894,0 -0.56745,0 -7.69239,0.20065 -8.09366,0 -0.56877,-0.28438 -0.78019,-1.06456 -1.34895,-1.34894 -0.35469,-0.17734 -4.69039,0 -5.39578,0 -0.44964,0 -1.03099,-0.31795 -1.34895,0 -0.31795,0.31796 0.2011,0.94677 0,1.34894 -0.28437,0.56877 -0.89929,0.8993 -1.34893,1.34895 -0.44966,0.44965 -0.78019,1.06456 -1.34895,1.34895 -0.40218,0.20108 -1.031,-0.31795 -1.34895,0 -0.31794,0.31794 0.20109,0.94676 0,1.34894 -2.80699,5.61398 0.0931,-1.44207 -2.69789,1.34895 -0.31794,0.31794 0.31796,1.03099 0,1.34893 -0.63589,0.63591 -1.89353,-0.40218 -2.69788,0 -0.56877,0.28439 -0.8993,0.89931 -1.34894,1.34895 -0.8993,0 -1.84474,-0.28439 -2.6979,0 -0.60326,0.20109 -0.78017,1.06456 -1.34894,1.34894 -0.40218,0.2011 -0.8993,0 -1.34895,0 -0.89929,0 -1.84474,-0.28438 -2.69788,0 -0.60327,0.2011 -0.78019,1.06457 -1.34895,1.34895 -0.80435,0.40218 -1.84473,-0.28438 -2.69789,0 -0.95384,0.31795 -1.72246,1.10509 -2.69789,1.34895 -1.30867,0.32717 -2.76711,-0.42658 -4.04683,0 -0.95385,0.31794 -1.72247,1.10509 -2.69789,1.34894 -0.87244,0.2181 -1.79858,0 -2.69788,0 -1.4028,0 -7.03256,-0.26528 -8.09366,0 -0.97543,0.24386 -1.71197,1.15175 -2.69789,1.34895 -2.20459,0.44091 -4.49648,0 -6.74472,0 -0.89931,0 -1.82545,-0.21813 -2.6979,0 -0.97542,0.24384 -1.69243,1.34893 -2.69789,1.34893 -0.63589,0 -0.74567,-1.14785 -1.34893,-1.34893 -1.27972,-0.42658 -2.69789,0 -4.04684,0 -0.44965,0 -0.94677,-0.2011 -1.34895,0 -0.56875,0.28437 -0.78017,1.06456 -1.34894,1.34893 -0.73178,0.36589 -5.02667,-0.3691 -5.39577,0 -0.31795,0.31795 0.31794,1.031 0,1.34895 -0.31795,0.31795 -1.031,-0.31795 -1.34895,0 -2.79102,2.79102 4.26504,-0.10906 -1.34895,2.69789 -0.40216,0.20108 -0.94676,-0.20109 -1.34894,0 -0.56876,0.28437 -0.78018,1.06456 -1.34894,1.34895 -0.40218,0.20108 -1.14786,-0.40218 -1.34894,0 -0.40218,0.80434 0.40218,1.89353 0,2.69788 -0.2011,0.40218 -0.92237,-0.14218 -1.34895,0 -0.95385,0.31794 -1.7986,0.8993 -2.69789,1.34894 -0.89929,0.44966 -1.86131,0.79123 -2.69788,1.34895 -0.5291,0.35274 -0.81986,0.99621 -1.34895,1.34895 -3.15032,2.10021 -7.64123,3.29555 -10.79155,5.39577 -0.52911,0.35274 -0.74569,1.14786 -1.34895,1.34894 -6.14077,0 -0.0771,-0.63589 -4.04683,1.34895 -0.80435,0.40218 -1.89353,-0.40218 -2.69789,0 -5.61398,2.807 1.44207,-0.0931 -1.34894,2.69789 -0.31795,0.31795 -1.03099,0.31795 -1.34895,0 -0.31795,-0.31796 0.31796,-1.031 0,-1.34894 -0.67447,-0.67448 -3.37235,0.67447 -4.04683,0 -0.31794,-0.31795 0.40218,-1.14787 0,-1.34895 -0.80435,-0.40218 -1.84475,0.28438 -2.69789,0 -0.60326,-0.20108 -0.78018,-1.06456 -1.34894,-1.34895 -0.40218,-0.20108 -0.8993,0 -1.34895,0 -0.89929,0 -1.84474,0.28439 -2.69788,0 -0.60326,-0.20108 -0.78019,-1.06456 -1.34895,-1.34894 -0.40218,-0.20109 -0.92237,0.14219 -1.34894,0 -0.95384,-0.31795 -1.74404,-1.03099 -2.69789,-1.34895 -0.85315,-0.28437 -1.79859,0 -2.69789,0 h -6.74473 c -0.95613,0 -7.74489,-0.17438 -8.09366,0 -0.56876,0.28439 -0.78018,1.06456 -1.34895,1.34895 -0.53484,0.26742 -3.77105,-0.27577 -4.04682,0 -0.31795,0.31796 0.31794,1.031 0,1.34894 -0.3691,0.3691 -4.66399,-0.36589 -5.39578,0 -0.56876,0.28439 -0.78017,1.06457 -1.34894,1.34895 -0.3547,0.17734 -4.69039,0 -5.39577,0 h -12.14051 c -0.49537,0 -5.34149,0.0542 -5.39577,0 -0.6359,-0.63589 0.40217,-1.89353 0,-2.69789 -1.4913,-2.98258 -0.83722,-0.4186 -2.69789,-1.34895 -5.61398,-2.80698 1.44207,0.0931 -1.34895,-2.69788 -0.31794,-0.31796 -1.031,0.31795 -1.34894,0 -0.67448,-0.67447 0.67447,-3.37236 0,-4.04684 -0.31795,-0.31794 -1.030993,0.31795 -1.348946,0 -0.317953,-0.31794 0,-0.89929 0,-1.34894 0,-0.63603 -0.06118,-6.68359 0,-6.74472 0.317953,-0.31795 1.030996,0.31795 1.348946,0 0.31794,-0.31795 0,-0.89929 0,-1.34895 0,-0.44964 0.31794,-1.03099 0,-1.34893 -0.31795,-0.31796 -1.030993,0.31794 -1.348946,0 -0.635894,-0.63591 0.402179,-1.89355 0,-2.69789 -0.284377,-0.56877 -1.064561,-0.78018 -1.348937,-1.34895 -0.201096,-0.40218 0,-0.89929 0,-1.34895 0,-0.44965 -0.201096,-0.94676 0,-1.34894 2.806983,-5.61398 -0.09314,1.44207 2.697883,-1.34895 0.31794,-0.31794 -0.31795,-1.03099 0,-1.34893 0.31794,-0.31796 1.031,0.31794 1.34894,0 0.31795,-0.31796 0,-0.89931 0,-1.34895 v -1.34894 c 0,-0.44966 0.31795,-1.031 0,-1.34895 -0.31794,-0.31795 -1.031,0.31795 -1.34894,0 -0.31795,-0.31795 -0.44964,-1.34895 0,-1.34895 0.44965,0 0.20109,1.75113 0,1.34895 -1.0829,-2.16579 -1.798592,-4.49648 -2.697883,-6.74472 z"
       style="fill:#483e37;stroke:url(#radialGradient955);stroke-width:1.24356px;stroke-linecap:butt;stroke-linejoin:miter;stroke-opacity:1" />
    <path
       inkscape:connector-curvature="0"
       id="path905"
       d="m 90.020585,242.46121 c 0,2.69788 0,5.39577 0,8.09366 0,0.44965 -0.317953,1.03099 0,1.34895 0.599532,0.59953 2.548013,-1.04918 1.348949,1.34894 -2.806996,5.61398 0.09314,-1.44207 -2.697886,1.34894 -0.317953,0.31795 0.31794,1.031 0,1.34895 -0.317953,0.31794 -1.030997,-0.31795 -1.34895,0 -0.134888,0.13489 -0.134888,3.91194 0,4.04682 0.317953,0.31796 0.899292,0 1.34895,0 0.449646,0 0.899291,0 1.348937,0 0.607503,0 3.6363,0.20528 4.046836,0 0.568766,-0.28437 0.899291,-0.89929 1.348937,-1.34893 0.449658,-0.44965 0.899304,-0.89929 1.348949,-1.34895 1.013177,-1.01318 2.697887,-2.9843 2.697887,-1.34894 0,0.44965 -1.798595,0 -1.348937,0 1.798582,0 3.597173,0 5.395773,0 5.39577,0 10.79155,0 16.18733,0 0.93824,0 6.2569,0.24391 6.74472,0 0.56877,-0.28439 0.78017,-1.06456 1.34894,-1.34895 0.40218,-0.20108 1.031,0.31795 1.34895,0 1.79859,-1.79859 -2.24824,-1.34894 1.34894,-1.34894 0.44965,0 1.03099,0.31794 1.34895,0 0.31795,-0.31795 -0.31796,-1.03099 0,-1.34894 0.31795,-0.31796 0.89929,0 1.34895,0 0.44964,0 1.03098,-0.31796 1.34893,0 0.9044,0.9044 -0.9044,1.79348 0,2.69788 0.63591,0.63591 2.062,-0.63589 2.69789,0 0.31795,0.31795 -0.40218,1.14786 0,1.34895 0.80436,0.40218 1.82544,-0.21812 2.69788,0 0.97544,0.24385 1.74405,1.031 2.6979,1.34894 1.27972,0.42658 2.73817,-0.32717 4.04683,0 0.97542,0.24386 1.72246,1.10509 2.69788,1.34895 1.02584,0.25646 5.61514,0 6.74473,0 0.44965,0 0.8993,0 1.34895,0 0.44964,0 0.94677,0.20108 1.34894,0 0.56876,-0.28439 0.78018,-1.06456 1.34894,-1.34895 0.40218,-0.20109 0.94677,0.20109 1.34895,0 1.13752,-0.56877 1.56036,-2.12912 2.69789,-2.69789 0.80436,-0.40218 2.06199,0.63591 2.69788,0 0.31796,-0.31795 -0.31795,-1.031 0,-1.34894 0.6359,-0.6359 2.062,0.6359 2.69789,0 0.31795,-0.31795 -0.31795,-1.03099 0,-1.34894 0.31795,-0.31796 0.8993,0 1.34895,0 1.27048,0 5.97735,0.25578 6.74472,0 0.60326,-0.20109 0.74568,-1.14786 1.34894,-1.34895 0.85315,-0.28438 1.82544,0.21812 2.69789,0 6.26254,-3.13127 -0.77644,-0.11454 5.39578,-1.34894 1.39429,-0.27886 2.65253,-1.07008 4.04682,-1.34895 0.88184,-0.17636 1.82545,0.21812 2.6979,0 8.80671,-2.20167 -5.09654,-0.72434 6.74471,-2.69789 10.29062,0 -1.06411,0.60327 6.74473,-1.34893 0.87244,-0.21812 1.84474,0.28437 2.69788,0 0.60328,-0.2011 0.74569,-1.14787 1.34895,-1.34895 0.85314,-0.28438 1.7986,0 2.69789,0 0.44964,0 0.94677,0.20108 1.34895,0 0.56876,-0.28438 0.78017,-1.06456 1.34893,-1.34895 0.34877,-0.17439 7.13754,0 8.09368,0 6.29506,0 12.59014,0 18.88521,0 9.89226,0 19.78451,0 29.67678,0 2.24823,0 4.49647,0 6.74471,0 0.8993,0 1.79859,0 2.6979,0 0.44964,0 0.94676,-0.20109 1.34893,0 0.56877,0.28439 0.78019,1.06457 1.34895,1.34895 0.80435,0.40218 2.06198,-0.6359 2.69789,0 0.63589,0.63589 -0.63591,2.06199 0,2.69788 0.31795,0.31796 0.94677,-0.20108 1.34894,0 2.06602,1.03301 1.0549,2.40385 2.6979,4.04684 0.31794,0.31795 0.94675,-0.2011 1.34893,0 0.56877,0.28438 0.78019,1.06456 1.34895,1.34894 0.40218,0.20109 0.94676,-0.20109 1.34894,0 0.56877,0.28438 0.78018,1.06457 1.34895,1.34895 0.84784,0.42391 4.54794,-0.42392 5.39577,0 0.56877,0.28437 0.78019,1.06456 1.34895,1.34894 0.30234,0.15117 5.07522,0 5.39577,0 3.14754,0 6.29508,0 9.44261,0 0.32716,0 4.00345,0.0434 4.04684,0 0.31795,-0.31795 -0.31795,-1.03099 0,-1.34894 0.0543,-0.0542 4.90039,0 5.39577,0 4.3422,0 -2.30279,0.31795 2.69789,-1.34895 1.84184,-0.61395 6.25182,0.61395 8.09367,0 0.60326,-0.20109 0.78017,-1.06456 1.34894,-1.34894 0.40218,-0.2011 0.94677,0.20108 1.34895,0 0.56876,-0.28439 0.78018,-1.06456 1.34893,-1.34895 0.80436,-0.40218 1.84475,0.28439 2.6979,0 0.95385,-0.31794 1.74404,-1.031 2.69789,-1.34894 0.42656,-0.1422 0.94676,0.20109 1.34894,0 0.56876,-0.28439 0.74568,-1.14785 1.34895,-1.34895 1.27972,-0.42657 2.76711,0.42658 4.04683,0 0.95385,-0.31795 1.74404,-1.03099 2.69789,-1.34893 0.42656,-0.14221 0.94677,0.20108 1.34893,0 0.56877,-0.28439 0.78019,-1.06458 1.34895,-1.34895 0.40218,-0.20109 0.94677,0.20108 1.34895,0 0.56876,-0.28438 0.78017,-1.06456 1.34894,-1.34895 0.40218,-0.20109 0.94677,0.20109 1.34895,0 0.56877,-0.28438 0.78017,-1.06456 1.34894,-1.34894 3.96968,-1.98484 -1.77599,3.12494 2.69788,-1.34895 0.44966,-0.44965 0.78019,-1.06456 1.34895,-1.34894 0.40218,-0.20109 1.031,0.31794 1.34895,0 0.6359,-0.6359 -0.6359,-2.06199 0,-2.69788 0.31794,-0.31796 1.03099,0.31794 1.34894,0 0.31795,-0.31796 -0.20108,-0.94677 0,-1.34895 0.56876,-1.13753 2.12912,-1.56036 2.69789,-2.69789 0.20109,-0.40218 -0.31795,-1.031 0,-1.34895 0.31795,-0.31794 1.03099,0.31795 1.34894,0 0.31796,-0.31794 -0.20109,-0.94676 0,-1.34894 0.17908,-0.35816 3.68867,-3.86775 4.04684,-4.04683 0.40217,-0.2011 0.94676,0.20108 1.34894,0 0.56876,-0.28439 0.81985,-0.99622 1.34895,-1.34895 6.81459,-4.54307 0.0312,-0.01 4.04682,-1.34894 0.95386,-0.31795 1.86132,-0.79122 2.6979,-1.34895 0.5291,-0.35273 0.74567,-1.14785 1.34894,-1.34893 0.85315,-0.28439 1.84474,0.28437 2.69788,0 0.60328,-0.2011 0.74569,-1.14787 1.34895,-1.34895 0.85315,-0.28438 1.84475,0.28437 2.69789,0 0.60326,-0.20109 0.74567,-1.14786 1.34895,-1.34895 1.70628,-0.56876 3.68947,0.56876 5.39577,0 0.60326,-0.20109 0.78018,-1.06456 1.34895,-1.34894 0.40217,-0.2011 0.94676,0.20108 1.34894,0 0.56876,-0.28439 0.78018,-1.06456 1.34895,-1.34895 0.53484,-0.26741 3.77105,0.27577 4.04682,0 0.31795,-0.31794 -0.44965,-1.34894 0,-1.34894 0.44966,0 0.44966,1.34894 0,1.34894 -1.66689,0 -1.34894,-1.89171 -1.34894,-2.69789 0,-0.49538 -0.0543,-5.34149 0,-5.39577 0.31796,-0.31795 1.031,0.31795 1.34894,0 0.31795,-0.31795 0,-0.8993 0,-1.34895 0,-0.49538 0.0543,-5.34149 0,-5.39577 -0.63589,-0.63589 -2.06198,0.63589 -2.69789,0 -0.31794,-0.31795 0.31796,-1.031 0,-1.34895 -0.31794,-0.31794 -0.89929,0 -1.34893,0 -0.32716,0 -4.00345,-0.0434 -4.04684,0 -0.31795,0.31795 0.20108,0.94677 0,1.34895 -2.807,5.61398 0.0931,-1.44207 -2.69789,1.34895 -0.31795,0.31794 0.31796,1.03098 0,1.34894 -0.31795,0.31795 -0.94677,-0.20109 -1.34894,0 -1.13754,0.56876 -1.56036,2.12912 -2.69789,2.69788 -0.48782,0.24391 -5.80647,0 -6.74472,0 -0.95614,0 -7.74489,-0.17438 -8.09366,0 -0.56877,0.28439 -0.74569,1.14786 -1.34895,1.34895 -1.4334,0.4778 -3.96238,-0.4778 -5.39578,0 -0.95384,0.31795 -1.74404,1.031 -2.69788,1.34894 -0.42658,0.1422 -1.031,-0.31794 -1.34895,0 -0.31795,0.31795 0.40218,1.14786 0,1.34895 -0.80436,0.40218 -1.89353,-0.40218 -2.69789,0 -0.40218,0.20108 0.20109,0.94677 0,1.34895 -2.80699,5.61398 0.0931,-1.44208 -2.69788,1.34893 -0.31796,0.31796 0.20108,0.94677 0,1.34895 -0.80937,1.61873 -3.23747,2.4281 -4.04684,4.04683 -0.20108,0.40218 0.31795,1.03099 0,1.34895 -0.31795,0.31795 -0.94677,-0.20109 -1.34894,0 -0.56876,0.28437 -0.78018,1.06456 -1.34895,1.34895 -0.40218,0.20108 -0.94677,-0.2011 -1.34895,0 -0.56876,0.28437 -0.78017,1.06456 -1.34893,1.34893 -0.40218,0.2011 -0.89931,0 -1.34895,0 -0.89929,0 -1.84475,-0.28437 -2.69789,0 -0.60326,0.2011 -0.74567,1.14786 -1.34894,1.34895 -1.27973,0.42657 -2.76711,-0.42658 -4.04683,0 -0.95385,0.31794 -1.86131,0.79123 -2.69789,1.34894 -0.52911,0.35273 -0.74568,1.14785 -1.34895,1.34895 -0.85314,0.28438 -1.79859,0 -2.69788,0 -0.44965,0 -0.94677,-0.2011 -1.34895,0 -0.56877,0.28438 -0.78017,1.06456 -1.34894,1.34894 -0.40218,0.20109 -0.94677,-0.20109 -1.34895,0 -0.56877,0.28439 -0.78018,1.06457 -1.34894,1.34895 -0.1939,0.097 -6.68345,0.0204 -6.74472,0 -0.60327,-0.20109 -0.74569,-1.14786 -1.34895,-1.34895 -1.24967,-0.41656 -5.45214,0.43086 -6.74472,0 -0.95385,-0.31794 -1.72247,-1.10509 -2.69789,-1.34894 -0.87244,-0.21811 -1.79859,0 -2.69788,0 -2.24824,0 -4.49648,0 -6.74473,0 -6.74472,0 -13.48944,0 -20.23416,0 -1.32515,0 -7.20147,0.2974 -8.09366,0 -0.95385,-0.31795 -1.72247,-1.10509 -2.69789,-1.34895 -1.32344,-0.33086 -7.31458,0.38954 -8.09367,0 -0.56877,-0.28438 -0.78017,-1.06456 -1.34894,-1.34894 -0.40218,-0.20109 -0.8993,0 -1.34895,0 -0.44964,0 -0.89929,0 -1.34893,0 -1.56145,0 -5.54041,0.30108 -6.74473,0 -0.97542,-0.24386 -1.74404,-1.03099 -2.69788,-1.34895 -0.87401,-0.29133 -5.64035,0 -6.74472,0 -4.04684,0 -8.09368,0 -12.1405,0 -2.24824,0 -4.49648,0 -6.74472,0 -0.89931,0 -1.84475,-0.28437 -2.6979,0 -0.60326,0.2011 -0.74568,1.14786 -1.34894,1.34895 -0.6175,0.20584 -5.9918,0 -6.74472,0 -0.89929,0 -1.84474,-0.28439 -2.69789,0 -0.60326,0.20109 -0.74567,1.14786 -1.34895,1.34894 -1.84183,0.61396 -6.25182,-0.61395 -8.09366,0 -0.60326,0.2011 -0.78018,1.06456 -1.34894,1.34895 -0.40218,0.20108 -0.8993,0 -1.34894,0 -0.89931,0 -1.84475,-0.28439 -2.69789,0 -0.60327,0.20108 -0.78018,1.06456 -1.34895,1.34894 -0.77439,0.38719 -5.59648,-0.28705 -6.74472,0 -2.4415,-0.81304 -2.5088,2.18521 -4.04684,2.69789 -0.85314,0.28438 -1.82544,-0.21812 -2.69788,0 -0.97542,0.24385 -1.72247,1.10509 -2.69789,1.34894 -0.87244,0.21812 -1.82544,-0.21811 -2.69788,0 -1.95085,0.48771 -3.44493,2.21018 -5.39578,2.69789 -0.87245,0.21812 -1.82544,-0.21811 -2.6979,0 -0.97542,0.24386 -1.79858,0.8993 -2.69788,1.34895 -1.34894,0.44964 -2.65254,1.07008 -4.04683,1.34895 -0.88183,0.17636 -1.84474,-0.28439 -2.6979,0 -0.60326,0.20108 -0.89929,0.89929 -1.34893,1.34893 -0.89931,0.44965 -1.72247,1.10509 -2.69789,1.34895 -0.24333,0.0608 -7.72353,0.18507 -8.09367,0 -0.56877,-0.28439 -0.78017,-1.06456 -1.34894,-1.34895 -0.80436,-0.40217 -1.89354,0.40218 -2.6979,0 -0.56875,-0.28437 -0.74567,-1.14785 -1.34893,-1.34893 -0.85315,-0.28439 -1.84475,0.28437 -2.69789,0 -1.20654,-0.40218 -1.49136,-2.29572 -2.69789,-2.6979 -0.69495,-0.23164 -8.01567,0 -9.4426,0 -0.7054,0 -5.04109,-0.17735 -5.39579,0 -0.56877,0.28439 -0.78017,1.06457 -1.34894,1.34895 -0.40218,0.20108 -1.03099,-0.31796 -1.34895,0 -0.63589,0.63589 0.63591,2.06199 0,2.69788 -0.31795,0.31796 -1.03099,-0.31795 -1.34893,0 -0.31796,0.31796 0.31794,1.031 0,1.34895 -0.31796,0.31794 -1.031,-0.31795 -1.34895,0 -0.6359,0.6359 0.63589,2.06198 0,2.69789 -3.59719,0 0.44964,-0.44965 -1.34895,1.34894 -0.6359,0.6359 -2.06198,-0.6359 -2.69789,0 -2.79102,2.79101 4.26504,-0.10906 -1.34894,2.6979 -0.40217,0.20108 -0.94677,-0.2011 -1.34895,0 -0.56876,0.28437 -0.78018,1.06456 -1.34894,1.34893 -0.40217,0.2011 -0.94676,-0.20108 -1.34894,0 -0.56877,0.28439 -0.78019,1.06456 -1.34895,1.34895 -1.07915,0.53958 -2.96768,-0.53958 -4.04682,0 -0.56877,0.28438 -0.78019,1.06456 -1.34895,1.34894 -2.39813,1.19906 -0.74942,-0.74941 -1.34895,-1.34894 -0.6359,-0.6359 -1.84473,0.28438 -2.69789,0 -0.95385,-0.31795 -1.74404,-1.03099 -2.697886,-1.34895 -1.279721,-0.42657 -2.767116,0.42658 -4.046836,0 -1.907693,-0.63589 -3.597178,-1.79859 -5.395773,-2.69788 z"
       style="fill:#6c5353;stroke:url(#radialGradient947);stroke-width:1.24356px;stroke-linecap:butt;stroke-linejoin:miter;stroke-opacity:1" />
    <path
       inkscape:connector-curvature="0"
       id="path907"
       d="m 160.16568,458.29227 c 4.94613,0 9.89226,0 14.83838,0 0.60752,0 3.63632,0.20526 4.04684,0 0.56877,-0.28438 0.78018,-1.06456 1.34895,-1.34894 0.40218,-0.20109 1.031,0.31794 1.34894,0 0.31795,-0.31795 -0.31794,-1.03099 0,-1.34895 0.31795,-0.31795 1.03099,0.31796 1.34895,0 0.31795,-0.31795 -0.31796,-1.03099 0,-1.34895 0.31795,-0.31794 0.94677,0.2011 1.34893,0 0.56877,-0.28437 0.78019,-1.06456 1.34895,-1.34893 0.40218,-0.2011 1.031,0.31795 1.34895,0 0.31794,-0.31796 -0.31795,-1.031 0,-1.34895 2.791,-2.79101 -0.10906,4.26504 2.69789,-1.34894 0.20108,-0.40218 -0.31796,-1.031 0,-1.34895 0.63589,-0.63589 1.89353,0.40218 2.69788,0 0.56877,-0.28438 0.78019,-1.06456 1.34895,-1.34894 0.40217,-0.20109 1.03099,0.31794 1.34894,0 0.31795,-0.31795 -0.31795,-1.03099 0,-1.34895 0.31795,-0.31795 1.031,0.31796 1.34895,0 0.31794,-0.31795 -0.31795,-1.03099 0,-1.34894 0.31794,-0.31795 1.031,0.31795 1.34894,0 0.6359,-0.6359 -0.6359,-2.06199 0,-2.69789 0.31795,-0.31794 1.03099,0.31795 1.34895,0 0.63589,-0.63589 -0.63591,-2.06198 0,-2.69789 0.31795,-0.31795 1.03099,0.31796 1.34893,0 0.31796,-0.31795 -0.20108,-0.94677 0,-1.34893 2.807,-5.614 -0.0931,1.44206 2.6979,-1.34895 0.31794,-0.31796 -0.31795,-1.031 0,-1.34895 0.3691,-0.3691 4.66399,0.36589 5.39577,0 0.56877,-0.28438 0.74568,-1.14786 1.34894,-1.34894 0.71801,-0.23934 9.63377,0 10.79156,0 5.39577,0 10.79156,0 16.18733,0 0.93824,0 6.2569,-0.24391 6.74472,0 0.56877,0.28438 0.78019,1.06456 1.34894,1.34894 0.40218,0.20109 1.031,-0.31794 1.34895,0 0.31795,0.31795 -0.31795,1.03099 0,1.34895 0.39913,0.39913 4.56023,-0.41778 5.39577,0 0.56877,0.28437 0.78019,1.06456 1.34895,1.34895 0.60025,0.30012 4.77878,-0.20568 5.39577,0 0.60327,0.20108 0.78019,1.06456 1.34895,1.34893 0.40218,0.2011 0.8993,0 1.34894,0 0.44966,0 0.89931,0 1.34895,0 2.69789,0 5.39577,0 8.09366,0 0.44966,0 1.031,0.31796 1.34895,0 0.31795,-0.31795 -0.31795,-1.03099 0,-1.34893 0.27577,-0.27579 3.51198,0.26741 4.04684,0 0.56876,-0.28439 0.78017,-1.06458 1.34893,-1.34895 0.60026,-0.30012 4.7788,0.20566 5.39579,0 0.60326,-0.20109 0.74567,-1.14786 1.34893,-1.34895 0.85315,-0.28438 1.82545,0.21812 2.69789,0 0.97542,-0.24385 1.72247,-1.10509 2.69789,-1.34894 1.7449,-0.43623 3.65088,0.43621 5.39578,0 0.97542,-0.24386 1.72247,-1.10509 2.69789,-1.34895 0.87244,-0.21811 1.81605,0.17637 2.69789,0 1.3943,-0.27886 2.65253,-1.07008 4.04683,-1.34894 1.71942,-0.34389 6.72651,0.45572 8.09366,0 0.60328,-0.20109 0.78018,-1.06456 1.34895,-1.34895 0.84783,-0.42391 4.54793,0.42392 5.39577,0 0.56877,-0.28437 0.78019,-1.06456 1.34895,-1.34893 0.80435,-0.40218 2.06198,0.63589 2.69789,0 0.31795,-0.31796 -0.31795,-1.031 0,-1.34895 0.27577,-0.27577 3.51198,0.26742 4.04683,0 0.56876,-0.28439 0.78018,-1.06456 1.34894,-1.34895 0.40218,-0.20109 0.94677,0.20109 1.34895,0 0.56877,-0.28438 0.78017,-1.06456 1.34894,-1.34894 0.40218,-0.20109 0.94677,0.20108 1.34895,0 0.56876,-0.28439 0.78018,-1.06456 1.34893,-1.34895 0.40218,-0.20108 1.031,0.31795 1.34895,0 0.31796,-0.31794 -0.31795,-1.031 0,-1.34894 0.31796,-0.31795 1.031,0.31794 1.34895,0 0.31794,-0.31795 -0.31795,-1.03099 0,-1.34894 0.31794,-0.31796 1.03099,0.31795 1.34894,0 0.31795,-0.31796 -0.31795,-1.031 0,-1.34895 0.31795,-0.31794 0.94677,0.20109 1.34895,0 1.13753,-0.56876 1.56035,-2.12912 2.69789,-2.69789 0.40218,-0.20108 0.94677,0.20109 1.34893,0 5.614,-2.80698 -1.44206,0.0931 1.34895,-2.69789 0.31796,-0.31795 0.94677,0.2011 1.34895,0 1.61873,-0.80937 2.4281,-3.23746 4.04683,-4.04683 0.80435,-0.40217 1.89354,0.40218 2.69789,0 0.56876,-0.28438 0.78018,-1.06456 1.34894,-1.34894 0.80436,-0.40218 1.89353,0.40218 2.69789,0 0.56876,-0.28439 0.78018,-1.06456 1.34895,-1.34895 0.15055,-0.0752 6.59415,-0.0752 6.74472,0 0.56877,0.28439 0.78017,1.06456 1.34894,1.34895 0.40218,0.20108 1.03099,-0.31795 1.34895,0 0.31795,0.31795 -0.31796,1.031 0,1.34894 2.79101,2.79101 -0.10906,-4.26503 2.69788,1.34895 0.20109,0.40218 -0.31795,1.03099 0,1.34895 0.31796,0.31794 1.031,-0.31796 1.34895,0 0.0543,0.0542 0,4.90038 0,5.39577 0,0.44964 0.31794,1.031 0,1.34894 -0.31795,0.31795 -1.03099,-0.31794 -1.34895,0 -0.31795,0.31795 0,0.8993 0,1.34895 0,0.44964 -0.31795,1.03099 0,1.34894 0.31796,0.31794 1.031,-0.31795 1.34895,0 0.19023,0.19023 0.13835,3.77012 0,4.04683 -0.28439,0.56876 -0.78018,1.06456 -1.34895,1.34895 -0.35469,0.17734 -4.69039,0 -5.39577,0 -4.94613,0 -9.89227,0 -14.83839,0 -0.32054,0 -5.09344,-0.15117 -5.39578,0 -0.56876,0.28437 -0.78018,1.06456 -1.34895,1.34895 -0.40216,0.20108 -0.89929,0 -1.34893,0 -0.44965,0 -0.8993,0 -1.34895,0 -2.69789,0 -5.39578,0 -8.09366,0 -0.44965,0 -0.89931,0 -1.34895,0 -0.44965,0 -0.94676,-0.2011 -1.34894,0 -0.56876,0.28437 -0.78018,1.06456 -1.34895,1.34893 -0.83554,0.41778 -4.99665,-0.39913 -5.39577,0 -0.31795,0.31796 0.31795,1.031 0,1.34895 -0.63591,0.6359 -1.89354,-0.40218 -2.69789,0 -0.56876,0.28438 -0.78018,1.06456 -1.34895,1.34894 -0.48782,0.24391 -5.80647,0 -6.74472,0 -0.44964,0 -1.031,-0.31794 -1.34894,0 -0.31795,0.31795 0.31794,1.031 0,1.34895 -0.6359,0.63589 -1.89354,-0.40218 -2.6979,0 -0.56875,0.28438 -0.78017,1.06456 -1.34893,1.34894 -0.40218,0.20109 -0.94677,-0.20109 -1.34895,0 -0.56877,0.28439 -0.78017,1.06457 -1.34894,1.34895 -0.40218,0.20108 -0.94677,-0.20109 -1.34895,0 -0.56876,0.28437 -0.78017,1.06456 -1.34894,1.34895 -0.80435,0.40216 -2.06199,-0.63591 -2.69789,0 -2.79101,2.791 4.26504,-0.10906 -1.34894,2.69788 -0.80436,0.40218 -2.29571,-0.80436 -2.69789,0 -0.40218,0.80435 0.40218,1.89353 0,2.69789 -0.40218,0.80436 -2.06199,-0.63591 -2.69788,0 -0.31796,0.31795 0.31794,1.03099 0,1.34894 -0.31796,0.31795 -0.94677,-0.20109 -1.34895,0 -0.56877,0.28438 -0.78019,1.06457 -1.34895,1.34894 -0.40217,0.20109 -0.94676,-0.20108 -1.34894,0 -1.61874,0.80937 -2.4281,3.23747 -4.04684,4.04684 -0.40217,0.20108 -1.03099,-0.31795 -1.34893,0 -2.79102,2.79102 4.26503,-0.10906 -1.34895,2.69789 -1.86068,0.93033 -1.2066,-1.63365 -2.69789,1.34893 -0.20109,0.40218 0.31795,1.031 0,1.34895 -0.6359,0.6359 -2.06199,-0.63589 -2.69788,0 -0.31796,0.31796 0.31794,1.031 0,1.34895 -0.19024,0.19023 -3.77014,0.13835 -4.04684,0 -0.56877,-0.28439 -0.78018,-1.06457 -1.34895,-1.34895 -0.40218,-0.20108 -0.89929,0 -1.34894,0 -0.8993,0 -1.84474,0.28438 -2.69788,0 -0.60328,-0.20108 -0.73204,-1.19471 -1.34895,-1.34895 -1.30867,-0.32715 -2.73817,0.32717 -4.04684,0 -0.6169,-0.15422 -0.73203,-1.19471 -1.34894,-1.34893 -1.30867,-0.32717 -2.72408,0.26455 -4.04683,0 -0.98592,-0.19719 -1.72247,-1.10509 -2.69789,-1.34895 -0.87244,-0.21811 -1.79859,0 -2.69788,0 -0.89931,-0.44965 -1.74404,-1.031 -2.69789,-1.34894 -0.74371,-0.2479 -5.10738,0.28839 -5.39579,0 -0.31794,-0.31795 0.31796,-1.031 0,-1.34895 -0.31794,-0.31795 -1.03099,-0.31795 -1.34893,0 -0.31796,0.31795 0.20108,0.94677 0,1.34895 -2.807,5.61398 0.0931,-1.44207 -2.69789,1.34894 -2.79102,2.79101 4.26503,-0.10906 -1.34895,2.69788 -0.40218,0.2011 -0.89929,0 -1.34895,0 -0.89929,0 -1.84473,-0.28437 -2.69788,0 -0.60327,0.2011 -0.78018,1.06458 -1.34894,1.34895 -0.40218,0.20109 -0.92237,-0.14218 -1.34895,0 -0.95385,0.31796 -1.74404,1.031 -2.69789,1.34895 -0.42658,0.14219 -0.89929,0 -1.34895,0 -0.89929,0 -1.79858,0 -2.69788,0 -2.24824,0 -4.49649,0 -6.74473,0 -0.44964,0 -1.03099,0.31794 -1.34893,0 -0.31796,-0.31795 0.31794,-1.03099 0,-1.34895 -0.63591,-0.63589 -2.062,0.6359 -2.69789,0 -0.31795,-0.31795 0.31794,-1.03099 0,-1.34895 -0.001,-10e-4 -4.04073,0.002 -4.04684,0 -0.60326,-0.20108 -0.78018,-1.06456 -1.34894,-1.34893 -0.40218,-0.2011 -0.94676,0.20108 -1.34894,0 -0.56877,-0.28439 -0.78018,-1.06456 -1.34895,-1.34895 -0.41052,-0.20526 -3.43932,0 -4.04684,0 -0.44964,0 -0.89929,0 -1.34893,0 -0.44965,0 -1.031,-0.31794 -1.34895,0 -2.79102,2.79101 4.26504,-0.10906 -1.34894,2.69788 -0.40218,0.2011 -1.031,-0.31794 -1.34895,0 -0.31795,0.31796 0.2011,0.94677 0,1.34895 -0.28438,0.56877 -1.06456,0.78019 -1.34894,1.34895 -0.20109,0.40217 0.31794,1.03099 0,1.34894 -0.31795,0.31795 -0.94677,-0.20108 -1.34895,0 -0.56876,0.28439 -0.78018,1.06456 -1.34895,1.34895 -0.40217,0.20108 -1.03099,-0.31795 -1.34893,0 -0.31796,0.31794 0.31794,1.031 0,1.34894 -0.63591,0.6359 -2.062,-0.6359 -2.69789,0 -0.31795,0.31795 0.31794,1.03099 0,1.34895 -0.31795,0.31795 -0.8993,0 -1.34895,0 -0.44964,0 -0.89929,0 -1.34895,0 -3.59718,0 -7.19437,0 -10.79154,0 -0.44965,0 -0.89931,0 -1.34895,0 -0.44965,0 -1.031,-0.31796 -1.34894,0 -0.31795,0.31795 0.31794,1.03099 0,1.34895 -0.63591,0.63589 -1.89354,-0.40218 -2.69789,0 -0.56876,0.28437 -1.06457,0.78017 -1.34895,1.34893 -0.20108,0.40218 0.44965,1.34895 0,1.34895 -0.44964,0 0.31796,-1.03099 0,-1.34895 -0.31795,-0.31795 -1.03099,0.31796 -1.34895,0 -0.31794,-0.31795 0.31796,-1.03099 0,-1.34893 -0.31794,-0.31796 -0.89929,0 -1.34893,0 -1.34895,-1.7986 -2.69789,-3.59719 -4.04684,-5.39579 z"
       style="fill:#917c6f;stroke:url(#radialGradient963);stroke-width:1.24356px;stroke-linecap:butt;stroke-linejoin:miter;stroke-opacity:1" />
  </g>
</svg>
