<svg xmlns="http://www.w3.org/2000/svg" viewBox="0 0 512 512" style="height: 64px; width: 64px;"><defs><radialGradient id="lorc-crystal-growth-gradient-2"><stop offset="0%" stop-color="#fafad2" stop-opacity="1"></stop><stop offset="100%" stop-color="#ffd700" stop-opacity="1"></stop></radialGradient><radialGradient id="lorc-crystal-growth-gradient-3"><stop offset="0%" stop-color="#fafad2" stop-opacity="1"></stop><stop offset="100%" stop-color="#ffd700" stop-opacity="1"></stop></radialGradient><radialGradient id="lorc-crystal-growth-gradient-4"><stop offset="0%" stop-color="#fafad2" stop-opacity="1"></stop><stop offset="100%" stop-color="#ffd700" stop-opacity="1"></stop></radialGradient><radialGradient id="lorc-crystal-growth-gradient-5"><stop offset="0%" stop-color="#fafad2" stop-opacity="1"></stop><stop offset="100%" stop-color="#ffd700" stop-opacity="1"></stop></radialGradient><radialGradient id="lorc-crystal-growth-gradient-6"><stop offset="0%" stop-color="#fafad2" stop-opacity="1"></stop><stop offset="100%" stop-color="#ffd700" stop-opacity="1"></stop></radialGradient><radialGradient id="lorc-crystal-growth-gradient-7"><stop offset="0%" stop-color="#fafad2" stop-opacity="1"></stop><stop offset="100%" stop-color="#ffd700" stop-opacity="1"></stop></radialGradient></defs><g class="" transform="translate(0,0)" style=""><g><path d="M253.8 15.56L173.9 99.67L176.2 158.5L226.8 194.7L258.7 376.7L269.5 349.8L281.3 114.4L300 115.4L290.9 296.4L319.2 225.6L327.4 117.6L328.3 99.67Z" class="" fill="url(#lorc-crystal-growth-gradient-2)" stroke="#4a4a4a" stroke-opacity="1" stroke-width="4"></path><path d="M392.8 66.13L346.2 116.9L342.3 168L352.9 141.8L383.3 128.1C386.5 107.5 389.6 86.8 392.8 66.13Z" class="selected" fill="url(#lorc-crystal-growth-gradient-3)" stroke="#4a4a4a" stroke-opacity="1" stroke-width="4"></path><path d="M453.1 117.3L367.4 155.7L264.8 411.6L279.4 494.9L287.2 494.9L434.8 201.8L451.5 210.2L308.1 494.9L332.5 494.9L479.1 203.1Z" class="" fill="url(#lorc-crystal-growth-gradient-4)" stroke="#4a4a4a" stroke-opacity="1" stroke-width="4"></path><path d="M112.9 136.2L58.79 235.3L127.9 494.9L221.5 494.9L170.4 220.1L188.7 216.7L240.5 494.9L260.4 494.9L209.7 205.5Z" class="" fill="url(#lorc-crystal-growth-gradient-5)" stroke="#4a4a4a" stroke-opacity="1" stroke-width="4"></path><path d="M471.2 396.6L405.4 391.4L355.6 490.6L425.4 453.9Z" class="" fill="url(#lorc-crystal-growth-gradient-6)" stroke="#4a4a4a" stroke-opacity="1" stroke-width="4"></path><path d="M35.24 368.6L77.71 495.3L108.7 495.3L80.6 389.9Z" class="" fill="url(#lorc-crystal-growth-gradient-7)" stroke="#4a4a4a" stroke-opacity="1" stroke-width="4"></path></g></g></svg>