<svg xmlns="http://www.w3.org/2000/svg" viewBox="0 0 512 512" style="height: 64px; width: 64px;"><defs><radialGradient id="faithtoken-minerals-gradient-2"><stop offset="0%" stop-color="#7ed321" stop-opacity="1"></stop><stop offset="100%" stop-color="#417505" stop-opacity="1"></stop></radialGradient><radialGradient id="faithtoken-minerals-gradient-3"><stop offset="0%" stop-color="#b8e986" stop-opacity="1"></stop><stop offset="100%" stop-color="#7ed321" stop-opacity="1"></stop></radialGradient><radialGradient id="faithtoken-minerals-gradient-4"><stop offset="0%" stop-color="#b8e986" stop-opacity="1"></stop><stop offset="100%" stop-color="#7ed321" stop-opacity="1"></stop></radialGradient><radialGradient id="faithtoken-minerals-gradient-5"><stop offset="0%" stop-color="#b8e986" stop-opacity="1"></stop><stop offset="100%" stop-color="#7ed321" stop-opacity="1"></stop></radialGradient><radialGradient id="faithtoken-minerals-gradient-6"><stop offset="0%" stop-color="#7ed321" stop-opacity="1"></stop><stop offset="100%" stop-color="#417505" stop-opacity="1"></stop></radialGradient><radialGradient id="faithtoken-minerals-gradient-7"><stop offset="0%" stop-color="#7ed321" stop-opacity="1"></stop><stop offset="100%" stop-color="#417505" stop-opacity="1"></stop></radialGradient><radialGradient id="faithtoken-minerals-gradient-8"><stop offset="0%" stop-color="#b8e986" stop-opacity="1"></stop><stop offset="100%" stop-color="#7ed321" stop-opacity="1"></stop></radialGradient><radialGradient id="faithtoken-minerals-gradient-9"><stop offset="0%" stop-color="#b8e986" stop-opacity="1"></stop><stop offset="100%" stop-color="#7ed321" stop-opacity="1"></stop></radialGradient><radialGradient id="faithtoken-minerals-gradient-10"><stop offset="0%" stop-color="#b8e986" stop-opacity="1"></stop><stop offset="100%" stop-color="#7ed321" stop-opacity="1"></stop></radialGradient><radialGradient id="faithtoken-minerals-gradient-11"><stop offset="0%" stop-color="#b8e986" stop-opacity="1"></stop><stop offset="100%" stop-color="#7ed321" stop-opacity="1"></stop></radialGradient><radialGradient id="faithtoken-minerals-gradient-12"><stop offset="0%" stop-color="#fc88fc" stop-opacity="1"></stop><stop offset="100%" stop-color="#bd10e0" stop-opacity="1"></stop></radialGradient></defs><g class="" transform="translate(0,0)" style=""><g><path d="M263.396 491.136L242.093 360.006L228.977 487.853L184.719 463.26L233.743 294.313L274.865 361.643L294.53 453.435L263.396 491.135Z" class="selected" fill="url(#faithtoken-minerals-gradient-2)" stroke="#4a4a4a" stroke-opacity="1" stroke-width="4"></path><path d="M109.706 487.256L101.886 459.403L74.11 450.381L101.948 442.555L110.968 414.771L118.798 442.616L146.581 451.646L118.737 459.466L109.707 487.256Z" class="" fill="url(#faithtoken-minerals-gradient-3)" stroke="#4a4a4a" stroke-opacity="1" stroke-width="4"></path><path d="M170.646 431.78L141.676 429.538L77.516 324.148L73.368 241.238L151.831 271.578L202.931 339.544L186.533 402.496L123.428 319.45L170.648 431.78Z" class="" fill="url(#faithtoken-minerals-gradient-4)" stroke="#4a4a4a" stroke-opacity="1" stroke-width="4"></path><path d="M316.309 403.024L299.289 400.897L290.781 357.273L276.501 330.499L368.295 238.706L399.445 248.531L386.33 322.295L316.31 403.023Z" class="" fill="url(#faithtoken-minerals-gradient-5)" stroke="#4a4a4a" stroke-opacity="1" stroke-width="4"></path><path d="M334.657 361.13L361.927 328.61L371.907 287.687L346.724 320.207L334.657 361.13Z" class="" fill="url(#faithtoken-minerals-gradient-6)" stroke="#4a4a4a" stroke-opacity="1" stroke-width="4"></path><path d="M209.74 322.725L171.213 271.105L193.343 162.08L270.389 67.028L333.494 152.255L326.944 257.99L267.932 318.63L230.232 261.257L209.739 322.725Z" class="" fill="url(#faithtoken-minerals-gradient-7)" stroke="#4a4a4a" stroke-opacity="1" stroke-width="4"></path><path d="M257.06 275.475L284.24 180.875L308.978 158.017L280.948 161.867L269.816 118.587L263.258 161.867L217.913 167.383L263.021 183.553L257.061 275.473Z" class="" fill="url(#faithtoken-minerals-gradient-8)" stroke="#4a4a4a" stroke-opacity="1" stroke-width="4"></path><path d="M159.812 255.748L131.936 211.481L141.776 118.068L172.919 180.354L159.811 255.749Z" class="" fill="url(#faithtoken-minerals-gradient-9)" stroke="#4a4a4a" stroke-opacity="1" stroke-width="4"></path><path d="M392.07 233.288L382.2 198.113L347.123 186.72L382.276 176.833L393.669 141.757L403.555 176.917L438.631 188.319L403.478 198.189L392.068 233.289Z" class="" fill="url(#faithtoken-minerals-gradient-10)" stroke="#4a4a4a" stroke-opacity="1" stroke-width="4"></path><path d="M178.17 135.345L165.826 91.355L121.95 77.105L165.926 64.74L180.173 20.864L192.54 64.84L236.407 79.103L192.439 91.453L178.169 135.345Z" class="" fill="url(#faithtoken-minerals-gradient-11)" stroke="#4a4a4a" stroke-opacity="1" stroke-width="4"></path></g></g></svg>