<?xml version="1.0" encoding="UTF-8" standalone="no"?>
<svg
   xmlns:dc="http://purl.org/dc/elements/1.1/"
   xmlns:cc="http://creativecommons.org/ns#"
   xmlns:rdf="http://www.w3.org/1999/02/22-rdf-syntax-ns#"
   xmlns:svg="http://www.w3.org/2000/svg"
   xmlns="http://www.w3.org/2000/svg"
   xmlns:sodipodi="http://sodipodi.sourceforge.net/DTD/sodipodi-0.dtd"
   xmlns:inkscape="http://www.inkscape.org/namespaces/inkscape"
   viewBox="0 0 512 512"
   style="height: 64px; width: 64px;"
   version="1.1"
   id="svg86"
   sodipodi:docname="symbole-maudit-d-azazel.svg"
   inkscape:export-filename="/home/plic/Téléchargements/stone-pierre-de-sang.png"
   inkscape:export-xdpi="23.4375"
   inkscape:export-ydpi="23.4375"
   inkscape:version="1.0.1 (0767f8302a, 2020-10-17)">
  <metadata
     id="metadata90">
    <rdf:RDF>
      <cc:Work
         rdf:about="">
        <dc:format>image/svg+xml</dc:format>
        <dc:type
           rdf:resource="http://purl.org/dc/dcmitype/StillImage" />
        <dc:title></dc:title>
      </cc:Work>
    </rdf:RDF>
  </metadata>
  <sodipodi:namedview
     pagecolor="#ffffff"
     bordercolor="#666666"
     borderopacity="1"
     objecttolerance="10"
     gridtolerance="10"
     guidetolerance="10"
     inkscape:pageopacity="0"
     inkscape:pageshadow="2"
     inkscape:window-width="1937"
     inkscape:window-height="1022"
     id="namedview88"
     showgrid="false"
     inkscape:zoom="0.65186406"
     inkscape:cx="-29.739762"
     inkscape:cy="264.62074"
     inkscape:window-x="4017"
     inkscape:window-y="327"
     inkscape:window-maximized="0"
     inkscape:current-layer="svg86"
     inkscape:document-rotation="0" />
  <defs
     id="defs72">
    <radialGradient
       id="gradient-2"
       gradientTransform="matrix(-0.50602107,0.71154194,-0.85998204,-0.61158592,423.88775,-168.73985)"
       cx="293.19934"
       cy="22.701279"
       fx="293.19934"
       fy="22.701279"
       r="205.60145"
       gradientUnits="userSpaceOnUse">
      <stop
         offset="0%"
         stop-color="#c9c9c9"
         stop-opacity="1"
         id="stop2" />
      <stop
         offset="100%"
         stop-color="#e9e9e9"
         stop-opacity="1"
         id="stop4" />
    </radialGradient>
    <radialGradient
       id="gradient-3">
      <stop
         offset="0%"
         stop-color="#c9c9c9"
         stop-opacity="1"
         id="stop7" />
      <stop
         offset="100%"
         stop-color="#eaeaea"
         stop-opacity="1"
         id="stop9" />
    </radialGradient>
    <radialGradient
       id="gradient-4">
      <stop
         offset="0%"
         stop-color="#c9c9c9"
         stop-opacity="1"
         id="stop12" />
      <stop
         offset="100%"
         stop-color="#e7e7e7"
         stop-opacity="1"
         id="stop14" />
    </radialGradient>
    <radialGradient
       id="gradient-5">
      <stop
         offset="0%"
         stop-color="#c9c9c9"
         stop-opacity="1"
         id="stop17" />
      <stop
         offset="100%"
         stop-color="#e9e9e9"
         stop-opacity="1"
         id="stop19" />
    </radialGradient>
    <radialGradient
       id="gradient-6">
      <stop
         offset="0%"
         stop-color="#c9c9c9"
         stop-opacity="1"
         id="stop22" />
      <stop
         offset="100%"
         stop-color="#eeeeee"
         stop-opacity="1"
         id="stop24" />
    </radialGradient>
    <radialGradient
       id="gradient-7">
      <stop
         offset="0%"
         stop-color="#c9c9c9"
         stop-opacity="1"
         id="stop27" />
      <stop
         offset="100%"
         stop-color="#e7e7e7"
         stop-opacity="1"
         id="stop29" />
    </radialGradient>
    <radialGradient
       id="gradient-8">
      <stop
         offset="0%"
         stop-color="#c9c9c9"
         stop-opacity="1"
         id="stop32" />
      <stop
         offset="100%"
         stop-color="#e5e5e5"
         stop-opacity="1"
         id="stop34" />
    </radialGradient>
    <radialGradient
       id="gradient-9">
      <stop
         offset="0%"
         stop-color="#c9c9c9"
         stop-opacity="1"
         id="stop37" />
      <stop
         offset="100%"
         stop-color="#e7e7e7"
         stop-opacity="1"
         id="stop39" />
    </radialGradient>
    <radialGradient
       id="gradient-10">
      <stop
         offset="0%"
         stop-color="#d4af37"
         stop-opacity="1"
         id="stop42" />
      <stop
         offset="100%"
         stop-color="#d4af37"
         stop-opacity="1"
         id="stop44" />
    </radialGradient>
    <radialGradient
       id="gradient-11">
      <stop
         offset="0%"
         stop-color="#c9c9c9"
         stop-opacity="1"
         id="stop47" />
      <stop
         offset="100%"
         stop-color="#eaeaea"
         stop-opacity="1"
         id="stop49" />
    </radialGradient>
    <radialGradient
       id="gradient-12">
      <stop
         offset="0%"
         stop-color="#c9c9c9"
         stop-opacity="1"
         id="stop52" />
      <stop
         offset="100%"
         stop-color="#e4e4e4"
         stop-opacity="1"
         id="stop54" />
    </radialGradient>
    <radialGradient
       id="gradient-13">
      <stop
         offset="0%"
         stop-color="#c9c9c9"
         stop-opacity="1"
         id="stop57" />
      <stop
         offset="100%"
         stop-color="#e7e7e7"
         stop-opacity="1"
         id="stop59" />
    </radialGradient>
    <radialGradient
       id="gradient-14">
      <stop
         offset="0%"
         stop-color="#c9c9c9"
         stop-opacity="1"
         id="stop62" />
      <stop
         offset="100%"
         stop-color="#e7e7e7"
         stop-opacity="1"
         id="stop64" />
    </radialGradient>
    <radialGradient
       id="gradient-15">
      <stop
         offset="0%"
         stop-color="#c9c9c9"
         stop-opacity="1"
         id="stop67" />
      <stop
         offset="100%"
         stop-color="#e7e7e7"
         stop-opacity="1"
         id="stop69" />
    </radialGradient>
    <clipPath
       clipPathUnits="userSpaceOnUse"
       id="clipPath5112">
      <path
         style="fill:none;stroke:#000000;stroke-width:0.97786868px;stroke-linecap:butt;stroke-linejoin:miter;stroke-opacity:1"
         d="m 208.2538,88.51676 c -0.73867,1.015481 -1.34549,2.148876 -2.21602,3.046442 -0.17411,0.179513 -0.51845,-0.113534 -0.73868,0 -0.31145,0.160562 -0.42723,0.601049 -0.73867,0.761611 -0.22024,0.113534 -0.56457,-0.179513 -0.73869,0 -0.17411,0.179512 0.17412,0.582097 0,0.76161 -0.17411,0.179514 -0.49245,0 -0.73867,0 0,0.253871 0.11012,0.534542 0,0.761611 -1.5371,3.16964 0.051,-0.814189 -1.47735,0.76161 -0.17411,0.179514 0.1741,0.582097 0,0.761611 -0.17411,0.179513 -0.56457,-0.179514 -0.73868,0 -0.17411,0.179513 0.17411,0.582097 0,0.76161 -0.17411,0.179513 -0.56457,-0.179513 -0.73867,0 -0.17411,0.179513 0.1741,0.582097 0,0.76161 -0.17411,0.179514 -0.56457,-0.179513 -0.73868,0 -0.17411,0.179514 0.17411,0.582097 0,0.761611 -1.96981,0 0.24622,-0.25387 -0.73867,0.761613 -0.17411,0.179513 -0.56457,-0.179516 -0.73868,0 -0.17412,0.179513 0.11011,0.534536 0,0.76161 -0.15573,0.321124 -0.58295,0.440485 -0.73868,0.761611 -0.11012,0.22706 0.17411,0.5821 0,0.76161 -0.17411,0.17951 -0.51844,-0.11353 -0.73868,0 -3.07419,1.58482 0.78968,-0.0525 -0.73868,1.52322 -0.1741,0.17951 -0.56456,-0.17951 -0.73867,0 -0.17411,0.17951 0.11011,0.53454 0,0.76161 -0.15572,0.32112 -0.58295,0.44049 -0.73868,0.76161 -0.11011,0.22707 0.11012,0.53454 0,0.76162 -0.15572,0.32111 -0.58295,0.44048 -0.73867,0.76161 -0.11011,0.22706 0.17411,0.58209 0,0.76161 -0.17411,0.17951 -0.56457,-0.17952 -0.73868,0 -0.1741,0.17951 0.11012,0.53453 0,0.7616 -0.15573,0.32113 -0.58295,0.44049 -0.73867,0.76161 -0.11012,0.22707 0.17411,0.5821 0,0.76161 -0.17411,0.17952 -0.56457,-0.17951 -0.73868,0 -0.34822,0.35903 0.22023,1.06908 0,1.52322 -0.31145,0.64225 -1.1659,0.88098 -1.47736,1.52323 -1.08688,2.24127 1.71121,-1.00272 -0.73867,1.52322 -0.24622,0.25386 -0.49245,0.50774 -0.73868,0.76161 -0.24622,0.25387 -0.58295,0.44048 -0.73867,0.76161 -0.11011,0.22706 0.11011,0.53454 0,0.76161 -0.15572,0.32112 -0.58295,0.44048 -0.73868,0.76161 -0.11011,0.22707 0.17411,0.58209 0,0.76161 -0.1741,0.17951 -0.56456,-0.17952 -0.73867,0 -0.17411,0.17951 0.11011,0.53454 0,0.76161 -0.15573,0.32112 -0.49246,0.50774 -0.73868,0.76162 -0.24622,0.25386 -0.42723,0.60104 -0.73867,0.76161 -0.22024,0.11353 -0.56457,-0.17952 -0.73868,0 -0.17411,0.17951 0.17411,0.58209 0,0.7616 -0.17411,0.17952 -0.56457,-0.17951 -0.73868,0 -0.17411,0.17952 0.17411,0.5821 0,0.76161 -0.17411,0.17952 -0.51844,-0.11353 -0.73868,0 -0.39451,0.20339 -1.82714,1.88388 -2.21602,2.28483 -0.24623,0.25388 -0.49245,0.50775 -0.73868,0.76161 -0.24622,0.25387 -0.58295,0.4405 -0.73867,0.76161 -0.11011,0.22707 0.1741,0.5821 0,0.76162 -0.17411,0.17951 -0.56457,-0.17952 -0.73868,0 -0.1741,0.17951 0.11012,0.53454 0,0.76161 -0.15573,0.32111 -0.58295,0.44048 -0.73867,0.76161 -0.11012,0.22706 0.1741,0.5821 0,0.76161 -0.17412,0.17951 -0.56457,-0.17951 -0.73869,0 -0.49307,0.50838 0.49308,1.01484 0,1.52322 -0.1741,0.17951 -0.56457,-0.17951 -0.73867,0 -0.17411,0.17951 0.11012,0.53454 0,0.76161 -0.31146,0.64225 -1.1659,0.88098 -1.47735,1.52322 -0.11012,0.22707 0.1741,0.58209 0,0.76161 -0.17411,0.17952 -0.56457,-0.17952 -0.73868,0 -0.1741,0.17952 0.17411,0.5821 0,0.76161 -0.1741,0.17952 -0.56457,-0.17951 -0.73867,0 -0.34822,0.35903 0.34821,1.1642 0,1.52322 -0.17411,0.17952 -0.56457,-0.17951 -0.73868,0 -0.1741,0.17952 0.11012,0.53454 0,0.76161 -0.15573,0.32113 -0.58295,0.44049 -0.73867,0.76161 -0.11013,0.22707 0.11011,0.53455 0,0.76161 -0.15573,0.32113 -0.58296,0.44049 -0.73868,0.76161 -0.11012,0.22707 0.11012,0.53455 0,0.76161 -0.31145,0.64225 -1.1659,0.88098 -1.47736,1.52323 -0.11011,0.22706 0.11013,0.53453 0,0.76161 -0.15572,0.32112 -0.58294,0.44048 -0.73867,0.76161 -0.11012,0.22706 0.11011,0.53453 0,0.76161 -0.15572,0.32112 -0.58295,0.44048 -0.73868,0.76161 -0.11011,0.22706 0.11012,0.53454 0,0.76161 -0.15572,0.32112 -0.58295,0.44048 -0.73867,0.76161 -0.11012,0.22707 0.0778,0.52077 0,0.7616 -0.17411,0.53855 -0.56457,0.98469 -0.73868,1.52323 -0.0778,0.24084 0.11012,0.53454 0,0.76161 -0.15573,0.32113 -0.58295,0.44049 -0.73867,0.76161 -0.11012,0.22707 0.11011,0.53454 0,0.76161 -0.15573,0.32113 -0.58296,0.44049 -0.73868,0.76161 -0.22023,0.45414 0.22023,1.06908 0,1.52322 -0.15573,0.32112 -0.58295,0.44049 -0.73867,0.76161 -0.22024,0.45414 0.34821,1.16419 0,1.52323 -0.17412,0.17951 -0.56457,-0.17952 -0.73869,0 -0.34821,0.35902 0.34823,1.16419 0,1.52322 -0.1741,0.17951 -0.56457,-0.17952 -0.73867,0 -0.49308,0.50838 0.49307,1.01483 0,1.52322 -0.17411,0.17951 -0.56457,-0.17952 -0.73868,0 -0.34821,0.35902 0.22024,1.06908 0,1.52321 -0.15572,0.32113 -0.58294,0.44049 -0.73867,0.76161 -0.11012,0.22708 0.11011,0.53455 0,0.76161 -0.15573,0.32113 -0.58296,0.4405 -0.73868,0.76162 -0.22022,0.45413 0.22023,1.06908 0,1.52322 -0.15572,0.32113 -0.58295,0.44049 -0.73867,0.76161 -0.11012,0.22707 0.11011,0.53454 0,0.76161 -0.15574,0.32113 -0.58296,0.44049 -0.73868,0.76161 -0.11011,0.22707 0.11011,0.53455 0,0.76161 -0.15573,0.32112 -0.58295,0.44048 -0.73867,0.76161 -0.22024,0.45414 0.34821,1.16419 0,1.52322 -0.17411,0.17952 -0.56457,-0.17951 -0.73868,0 -0.34822,0.35903 0.22023,1.06909 0,1.52323 -0.15573,0.32112 -0.58295,0.44048 -0.73868,0.76161 -0.11012,0.22706 0.11012,0.53453 0,0.76161 -0.15573,0.32112 -0.58295,0.44048 -0.73868,0.7616 -0.22022,0.45414 0.22024,1.06909 0,1.52322 -0.15572,0.32113 -0.58294,0.44049 -0.73867,0.76161 -0.22023,0.45414 0.22023,1.06909 0,1.52323 -0.15573,0.32112 -0.58295,0.44049 -0.73868,0.76161 -0.14644,0.30197 0.15101,2.12913 0,2.28483 -0.17411,0.17951 -0.62856,-0.22706 -0.73867,0 -0.23895,0.49272 0.26534,2.77286 0,3.04644 -0.17411,0.17952 -0.56457,-0.17952 -0.73868,0 -0.34821,0.35903 0.22023,1.06909 0,1.52323 -0.15572,0.32112 -0.58295,0.44048 -0.73867,0.76161 -0.21792,0.44936 0.16935,1.76096 0,2.28482 -0.17411,0.53854 -0.60515,0.9725 -0.73868,1.52322 -0.11943,0.49259 0,1.01548 0,1.52323 0,0.25386 0.11011,0.53454 0,0.76161 -0.15573,0.32112 -0.58295,0.44049 -0.73867,0.76161 -0.11013,0.22706 0.0778,0.52076 0,0.76161 -0.17411,0.53854 -0.56457,0.98468 -0.73868,1.52322 -0.23359,0.72253 0.17915,1.54596 0,2.28483 -0.13354,0.55073 -0.56458,0.98468 -0.73868,1.52323 -0.0778,0.24083 0.0779,0.52076 0,0.7616 -0.17411,0.53854 -0.56457,0.98469 -0.73868,1.52322 -0.2216,0.68545 0.2216,1.59938 0,2.28483 -0.11011,0.34061 -0.62856,0.42102 -0.73867,0.76161 -0.15573,0.48169 0,1.01548 0,1.52323 0,0.25386 0.11011,0.53454 0,0.76161 -0.15573,0.32112 -0.58295,0.44048 -0.73868,0.76161 -0.22023,0.45414 0.22024,1.06908 0,1.52322 -0.15572,0.32112 -0.58295,0.44048 -0.73867,0.76161 -0.22023,0.45413 0.22022,1.06908 0,1.52322 -0.15573,0.32112 -0.58296,0.44049 -0.73868,0.76161 -0.23214,0.47869 0.23214,2.56775 0,3.04644 -0.15573,0.32113 -0.58295,0.44049 -0.73867,0.76161 -0.25512,0.52607 0.25928,3.54071 0,3.80806 -0.17411,0.17951 -0.56457,-0.17952 -0.73868,0 -0.0298,0.0307 0,2.76675 0,3.04644 0,0.343 0.1124,2.05304 0,2.28482 -0.15573,0.32113 -0.58295,0.4405 -0.73868,0.76161 -0.23602,0.48669 0.19819,2.43343 0,3.04645 -0.17411,0.53854 -0.56456,0.98468 -0.73868,1.52322 -0.25223,0.78018 0.25223,1.50466 0,2.28483 -0.11011,0.3406 -0.62855,0.42101 -0.73867,0.76161 -0.22161,0.68545 0.2216,1.59939 0,2.28484 -0.17411,0.53853 -0.56457,0.98468 -0.73868,1.52322 -0.15572,0.48168 0,1.01548 0,1.52321 0,1.26936 0,2.53871 0,3.80806 0,0.25387 0,0.50774 0,0.76161 0,0.25387 0.11011,0.53455 0,0.76161 -0.15572,0.32112 -0.58294,0.44048 -0.73868,0.76161 -0.23213,0.47869 0.23214,2.56775 0,3.04645 -0.15572,0.32111 -0.58295,0.44048 -0.73867,0.76161 -0.22427,0.46246 0.22427,4.10718 0,4.56965 -0.15572,0.32113 -0.58295,0.4405 -0.73868,0.76161 -0.1124,0.23179 0,1.94184 0,2.28484 0,1.77709 0,3.55418 0,5.33128 0,2.5387 0,5.0774 0,7.6161 0,0.8733 -0.19129,2.25749 0,3.04644 0.13354,0.55072 0.60515,0.9725 0.73868,1.52322 0.14044,0.57917 0,3.17028 0,3.80805 0,2.53871 0,5.07741 0,7.61611 0,0.25387 0,0.50773 0,0.76161 0,0.25387 -0.17411,0.58209 0,0.76161 0.17411,0.17951 0.56457,-0.17952 0.73867,0 0.17411,0.17951 0,0.50773 0,0.76161 0,0.25387 0,0.50774 0,0.76161 0,2.5387 0,5.0774 0,7.6161 0,3.80806 0,7.6161 0,11.42416 0,1.26936 0,2.5387 0,3.80806 0,0.76161 0,1.52322 0,2.28483 0,0.25387 -0.0778,0.52076 0,0.76161 0.17411,0.53853 0.56457,0.98468 0.73868,1.52321 0.2216,0.68546 -0.2216,1.59939 0,2.28484 0.11011,0.3406 0.62856,0.42101 0.73868,0.76161 0.13617,0.42118 0,3.80268 0,4.56966 0,3.04645 0,6.09288 0,9.13933 0,3.55417 0,7.10836 0,10.66254 0,0.81709 -0.16276,4.82785 0,5.33128 0.1741,0.53854 0.56456,0.98468 0.73867,1.52322 0.15022,0.46465 0,3.98144 0,4.56966 0,2.53871 0,5.07741 0,7.61611 0,0.39825 -0.0971,2.84618 0,3.04644 0.15573,0.32112 0.58295,0.44049 0.73868,0.7616 0.29547,0.6093 -0.29547,1.67555 0,2.28484 0.15573,0.32113 0.58295,0.44049 0.73868,0.76161 0.29547,0.60929 -0.29548,1.67555 0,2.28483 0.15572,0.32113 0.62856,0.42101 0.73868,0.76161 0.15572,0.48169 0,1.01548 0,1.52322 0,0.25387 -0.11012,0.53454 0,0.76162 0.15572,0.32111 0.58294,0.44048 0.73867,0.76161 0.22023,0.45414 -0.22024,1.06908 0,1.52322 0.15572,0.32112 0.58295,0.44048 0.73868,0.76161 0.11011,0.22706 -0.11012,0.53454 0,0.76161 0.15572,0.32112 0.58295,0.44048 0.73867,0.7616 0.22024,0.45414 -0.22023,1.0691 0,1.52322 0.15573,0.32113 0.62856,0.42102 0.73868,0.76162 0.15573,0.48168 -0.15573,1.04153 0,1.52322 0.22023,0.6812 1.1659,0.88097 1.47735,1.52322 0.11012,0.22706 -0.11012,0.53455 0,0.76161 0.15573,0.32112 0.58295,0.44048 0.73868,0.76161 0.11011,0.22707 -0.11012,0.53454 0,0.76161 0.15572,0.32112 0.58294,0.44049 0.73868,0.76161 0.22022,0.45414 -0.22024,1.06909 0,1.52323 0.15572,0.32112 0.58294,0.44048 0.73867,0.76161 0.11011,0.22706 -0.11011,0.53453 0,0.76161 0.15572,0.32112 0.58294,0.44048 0.73868,0.76161 0.22022,0.45413 -0.22024,1.06908 0,1.52321 0.15572,0.32113 0.58295,0.44049 0.73867,0.76161 0.11011,0.22708 -0.11011,0.53455 0,0.76161 0.31146,0.64225 1.1659,0.88098 1.47735,1.52323 0.11011,0.22707 -0.11011,0.53454 0,0.76161 0.15573,0.32113 0.58295,0.44049 0.73868,0.76161 0.11011,0.22706 -0.17411,0.5821 0,0.76161 0.1741,0.17951 0.56456,-0.17951 0.73867,0 0.17411,0.17951 -0.11011,0.53455 0,0.76161 0.44321,0.91393 1.77283,1.3709 2.21604,2.28483 0.11011,0.22707 -0.11013,0.53454 0,0.76161 0.15572,0.32112 0.49244,0.50774 0.73867,0.76162 0.58043,0.59844 3.45812,3.32292 3.69338,3.80804 0.11012,0.22708 -0.11012,0.53455 0,0.76161 0.15573,0.32113 0.54553,0.46289 0.73867,0.76161 0.30541,0.47234 0.43328,1.05089 0.73869,1.52323 0.3863,0.59745 0.98489,1.01547 1.47735,1.52322 0.73867,0.76161 1.47735,1.52322 2.21602,2.28483 0.43446,0.44794 2.78368,2.69376 2.95471,3.04645 0.11012,0.22706 -0.17411,0.58209 0,0.7616 0.17411,0.17952 0.56457,-0.17951 0.73868,0 0.1741,0.17952 -0.17411,0.5821 0,0.76161 0.1741,0.17952 0.56457,-0.17951 0.73867,0 0.17411,0.17952 -0.1741,0.5821 0,0.76161 0.17411,0.17952 0.56457,-0.17951 0.73868,0 0.34821,0.35903 -0.22024,1.06908 0,1.52322 0.15572,0.32113 0.58295,0.44049 0.73867,0.76161 0.11012,0.22708 -0.11011,0.53455 0,0.76161 0.15573,0.32113 0.54552,0.46289 0.73868,0.76161 0.3054,0.47234 0.43327,1.05089 0.73867,1.52323 0.19316,0.29872 0.54552,0.46288 0.73868,0.76161 0.3054,0.47233 0.34936,1.12181 0.73867,1.52322 0.38933,0.4014 1.08805,0.3602 1.47736,0.76161 0.38932,0.4014 0.34936,1.12181 0.73868,1.52322 0.38931,0.4014 1.01924,0.44673 1.47735,0.76161 0.57947,0.3983 0.9849,1.01548 1.47735,1.52322 0.9849,1.01548 1.96981,2.03096 2.95471,3.04644 0.24622,0.25388 0.49245,0.50774 0.73867,0.76161 0.24622,0.25387 0.42722,0.60105 0.73868,0.76161 0.22023,0.11353 0.56457,-0.17951 0.73867,0 0.17411,0.17951 -0.11011,0.53455 0,0.76161 1.5371,3.16964 -0.0509,-0.81419 1.47735,0.76161 0.17411,0.17952 -0.1741,0.5821 0,0.76162 0.17411,0.17951 0.56457,-0.17952 0.73868,0 0.9849,1.01547 -1.56697,0.73081 0.73867,1.52322 0.46719,0.16055 1.01018,-0.16057 1.47736,0 0.33034,0.11353 0.44894,0.56245 0.73868,0.76161 0.4581,0.31489 0.9849,0.50773 1.47735,0.76161 0.9849,0.50773 2.01048,0.93909 2.9547,1.52322 0.76127,0.47093 1.42198,1.11387 2.21604,1.52321 0.69642,0.35904 1.54835,0.34857 2.21602,0.76162 0.59719,0.36943 0.92021,1.09239 1.47735,1.52322 0.9899,0.76547 2.62929,1.08437 3.69339,1.52322 1.52829,0.6303 2.90375,1.65454 4.43205,2.28483 0.72295,0.29816 1.49308,0.46346 2.21603,0.76161 1.50979,0.62267 2.97707,1.53476 4.43205,2.28484 0.49246,0.25386 0.94322,0.62393 1.47736,0.76161 0.47774,0.12314 0.9849,0 1.47735,0 0.49245,0.25387 0.95503,0.58209 1.47735,0.76161 0.2336,0.0802 0.51845,-0.11354 0.73868,0 0.31145,0.16055 0.40833,0.64807 0.73867,0.76161 0.50252,0.17271 3.30171,-0.20192 3.69339,0 0.31145,0.16056 0.42722,0.60105 0.73867,0.7616 0.22023,0.11354 0.49245,0 0.73868,0 0.24623,0 0.49244,0 0.73867,0 1.96981,0 3.93961,0 5.90941,0 0.49245,0 0.99447,-0.0996 1.47735,0 0.76352,0.15745 1.45252,0.60417 2.21604,0.76161 3.9463,0.81377 -1.66246,-1.44723 3.69337,0.76161 0.5112,0.21083 0.94322,0.62393 1.47735,0.76162 0.95551,0.24629 2.02035,-0.32112 2.95471,0 0.33034,0.11353 0.40833,0.64807 0.73868,0.76161 0.003,10e-4 2.21532,-7.3e-4 2.21602,0 0.17411,0.17951 -0.1741,0.5821 0,0.76161 0.17411,0.17951 0.49246,0 0.73868,0 1.47735,0 2.95471,0 4.43206,0 0.24623,0 0.49245,0 0.73868,0 0.24622,0 0.51844,0.11353 0.73867,0 0.31145,-0.16057 0.42722,-0.60105 0.73868,-0.76161 0.16556,-0.0854 2.77917,0 2.95471,0 1.47735,0 2.9547,0 4.43205,0 3.93961,0 7.87921,0 11.81882,0 1.23113,0 2.46225,0 3.69338,0 0.24622,0 0.49245,0 0.73868,0 0.24622,0 0.51844,0.11353 0.73867,0 0.31146,-0.16056 0.40833,-0.64808 0.73868,-0.76161 0.47953,-0.1648 4.49974,0 5.17073,0 0.49245,0 1.01018,0.16056 1.47735,0 0.33035,-0.11354 0.40833,-0.64807 0.73868,-0.76162 0.46718,-0.16055 0.9849,0 1.47735,0 0.61856,0 3.13165,0.1448 3.69338,0 0.53414,-0.13768 0.95503,-0.58209 1.47735,-0.76161 0.2336,-0.0802 0.49245,0 0.73868,0 0.49246,0 1.01017,0.16057 1.47735,0 0.33035,-0.11353 0.42723,-0.60104 0.73867,-0.76161 0.44047,-0.22706 1.0369,0.22708 1.47736,0 0.31146,-0.16055 0.42722,-0.60104 0.73868,-0.7616 0.44046,-0.22707 1.12914,0.35902 1.47735,0 0.17411,-0.17952 -0.17411,-0.5821 0,-0.76161 0.17411,-0.17952 0.51845,0.11353 0.73867,0 0.62291,-0.32113 0.85446,-1.2021 1.47735,-1.52322 0.22024,-0.11353 0.56457,0.17951 0.73868,0 1.52835,-1.57581 -2.33551,0.0616 0.73868,-1.52322 0.22023,-0.11354 0.56457,0.17951 0.73868,0 0.17411,-0.17952 -0.11012,-0.53455 0,-0.76162 0.15572,-0.32112 0.49245,-0.50774 0.73867,-0.76161 0.73868,-0.76161 1.47736,-1.52322 2.21603,-2.28483 0.49245,-0.50774 1.09104,-0.92576 1.47735,-1.52322 0.30541,-0.47233 0.43328,-1.05089 0.73868,-1.52322 0.38631,-0.59745 1.09104,-0.92577 1.47736,-1.52323 0.30539,-0.47232 0.40832,-1.06908 0.73867,-1.52321 0.68265,-0.93845 2.32779,-2.07686 2.9547,-3.04644 0.30541,-0.47234 0.43327,-1.05089 0.73868,-1.52323 0.19315,-0.29872 0.58295,-0.44049 0.73867,-0.76161 0.11012,-0.22706 0,-0.50774 0,-0.76161 0.24623,-0.50774 0.43328,-1.05089 0.73868,-1.52322 0.38631,-0.59746 1.25712,-0.84202 1.47736,-1.52322 1.06605,-3.29748 -1.41213,0.27993 0.73867,-3.04644 0.19316,-0.29873 0.54552,-0.46288 0.73868,-0.76161 0.3054,-0.47233 0.43326,-1.05089 0.73867,-1.52322 0.19316,-0.29873 0.54552,-0.46289 0.73868,-0.76161 0.3054,-0.47233 0.49245,-1.01548 0.73867,-1.52322 0.24623,-0.50775 0.56457,-0.98468 0.73868,-1.52322 0.0779,-0.24085 -0.0778,-0.52077 0,-0.76162 0.1741,-0.53854 0.60514,-0.9725 0.73867,-1.52322 0.11945,-0.49257 -0.15572,-1.04154 0,-1.52322 0.11012,-0.3406 0.54553,-0.46288 0.73869,-0.76161 0.30539,-0.47232 0.56456,-0.98468 0.73867,-1.52322 0.0778,-0.24084 -0.0779,-0.52077 0,-0.7616 0.17411,-0.53855 0.56457,-0.98469 0.73868,-1.52323 0.15572,-0.48168 -0.15574,-1.04154 0,-1.52322 0.24622,-0.50774 0.49244,-1.01548 0.73867,-1.52322 0,-0.25387 -0.0778,-0.52077 0,-0.76161 0.17411,-0.53855 0.56457,-0.98468 0.73868,-1.52322 0.0778,-0.24084 -0.11012,-0.53454 0,-0.76162 0.15572,-0.32111 0.49244,-0.50773 0.73867,-0.76161 0,-0.50773 -0.15572,-1.04153 0,-1.52322 0.11012,-0.3406 0.62856,-0.421 0.73868,-0.76161 0.15573,-0.48168 -0.15573,-1.04153 0,-1.52321 0.11011,-0.34061 0.58295,-0.44049 0.73867,-0.76161 0.11013,-0.22708 -0.11011,-0.53455 0,-0.76161 0.15573,-0.32113 0.58296,-0.4405 0.73868,-0.76162 0.11012,-0.22707 -0.0778,-0.52077 0,-0.76161 0.17411,-0.53854 0.60515,-0.9725 0.73868,-1.52322 0.11944,-0.49258 -0.15573,-1.04154 0,-1.52322 0.11012,-0.34061 0.58295,-0.44049 0.73868,-0.76161 0.11011,-0.22707 0,-0.50775 0,-0.76161 0.24622,-0.25387 0.58294,-0.44049 0.73867,-0.76161 0.11012,-0.22707 0,-0.50774 0,-0.76161 0.24622,-0.25387 0.58295,-0.44049 0.73868,-0.76162 0.11011,-0.22706 -0.17411,-0.58209 0,-0.76161 0.1741,-0.17951 0.56457,0.17952 0.73867,0 0.34822,-0.35902 -0.22022,-1.06908 0,-1.52322 0.15573,-0.32112 0.58296,-0.44048 0.73868,-0.7616 0.11011,-0.22707 -0.11012,-0.53455 0,-0.76161 0.15573,-0.32113 0.58295,-0.44049 0.73867,-0.76161 0.11012,-0.22708 -0.11011,-0.53455 0,-0.76161 0.15573,-0.32113 0.58296,-0.4405 0.73868,-0.76161 0.22023,-0.45414 -0.22023,-1.06909 0,-1.52323 0.59012,-1.21687 0.88724,-0.30635 1.47736,-1.52322 0.11011,-0.22706 0,-0.50774 0,-0.76161 0,-0.50774 -0.15573,-1.04154 0,-1.52322 0.11011,-0.3406 0.58294,-0.44048 0.73867,-0.76161 0.11012,-0.22707 -0.11012,-0.53454 0,-0.76161 0.15573,-0.32112 0.62856,-0.42101 0.73868,-0.76162 0.15572,-0.48168 -0.15573,-1.04152 0,-1.52322 0.11011,-0.34059 0.62856,-0.421 0.73867,-0.7616 0.15573,-0.48169 -0.15573,-1.04154 0,-1.52322 0.11012,-0.34061 0.54552,-0.46289 0.73868,-0.76161 0.3054,-0.47233 0.43327,-1.05089 0.73867,-1.52322 0.19316,-0.29874 0.62857,-0.42102 0.73868,-0.76162 0.15573,-0.48168 -0.11944,-1.03064 0,-1.52322 0.36673,-1.51247 1.8493,-3.05719 2.21602,-4.56966 0.11945,-0.49258 -0.15572,-1.04153 0,-1.52323 0.11013,-0.34059 0.54553,-0.46287 0.73869,-0.7616 0.6108,-0.94466 0.98489,-2.03096 1.47735,-3.04644 0.24623,-0.50775 0.49245,-1.01548 0.73867,-1.52322 0.24623,-0.50775 0.60514,-0.9725 0.73868,-1.52323 0.11943,-0.49257 -0.15572,-1.04154 0,-1.52322 0.11011,-0.34059 0.54552,-0.46287 0.73867,-0.76161 0.30541,-0.47233 0.43327,-1.05089 0.73868,-1.52322 0.19315,-0.29873 0.62856,-0.42101 0.73867,-0.76161 0.15574,-0.48169 -0.11943,-1.03064 0,-1.52322 -0.44522,-1.37847 1.19662,-1.41646 1.47736,-2.28483 0.15573,-0.48169 -0.15573,-1.04154 0,-1.52322 0.11012,-0.34061 0.62856,-0.42101 0.73868,-0.76161 0.15572,-0.48168 -0.15573,-1.04154 0,-1.52322 0.11011,-0.34061 0.62856,-0.42101 0.73867,-0.76161 0.15573,-0.48169 -0.15573,-1.04154 0,-1.52323 0.11012,-0.34059 0.62857,-0.421 0.73868,-0.76161 0.15572,-0.48168 -0.15573,-1.04154 0,-1.52322 0.11011,-0.3406 0.62856,-0.421 0.73867,-0.76161 0.2336,-0.72252 -0.23359,-1.5623 0,-2.28482 0.17411,-0.53855 0.56457,-0.98469 0.73868,-1.52323 0.0778,-0.24084 -0.11011,-0.53454 0,-0.76161 0.15573,-0.32113 0.62856,-0.42101 0.73867,-0.76161 0.20394,-0.63078 -0.23487,-3.32372 0,-3.80805 0.15574,-0.32112 0.62857,-0.42101 0.73868,-0.76162 0.15573,-0.48168 0,-1.01547 0,-1.52322 0,-0.25386 -0.11011,-0.53453 0,-0.76161 0.15573,-0.32112 0.62856,-0.421 0.73867,-0.76161 0.30581,-0.94587 -0.24279,-2.80667 0,-3.80804 0.13354,-0.55073 0.60516,-0.97251 0.73869,-1.52323 0.28967,-1.19468 -0.28968,-2.61337 0,-3.80805 0.13353,-0.55072 0.60514,-0.9725 0.73867,-1.52322 0.11944,-0.49258 0,-1.01548 0,-1.52323 0,-1.52322 0,-3.04643 0,-4.56965 0,-0.50775 -0.15573,-1.04154 0,-1.52323 0.11012,-0.3406 0.65422,-0.4133 0.73868,-0.76161 0.17915,-0.73887 0,-1.52322 0,-2.28483 0,-0.50774 0,-1.01548 0,-1.52322 0,-2.28484 0,-4.56966 0,-6.85449 0,-0.76161 0,-1.52322 0,-2.28483 0,-0.50775 -0.0966,-1.02534 0,-1.52323 0.1527,-0.78722 0.61067,-1.49294 0.73867,-2.28483 0.2024,-1.25208 0,-2.5387 0,-3.80806 0,-4.82352 0,-9.64705 0,-14.47059 0,-1.26935 0,-2.53871 0,-3.80805 0,-0.50775 -0.11943,-1.03065 0,-1.52322 0.13354,-0.55073 0.6307,-0.96658 0.73868,-1.52323 0.24144,-1.2447 0,-2.5387 0,-3.80805 0,-2.28482 0,-4.56966 0,-6.85449 0,-5.58515 0,-11.17029 0,-16.75544 0,-6.34675 0,-12.6935 0,-19.04025 0,-2.79258 0,-5.58515 0,-8.37772 0,-1.01548 0.19316,-2.05068 0,-3.04644 -0.1527,-0.78722 -0.58598,-1.49761 -0.73868,-2.28483 -0.0966,-0.49789 0,-1.01548 0,-1.52322 0,-1.01548 0,-2.03097 0,-3.04645 0,-0.25387 0.0778,-0.52076 0,-0.76161 -0.1741,-0.53853 -0.60514,-0.9725 -0.73867,-1.52322 -0.17915,-0.73887 0.23358,-1.56231 0,-2.28482 -0.17411,-0.53855 -0.56457,-0.98469 -0.73868,-1.52323 -0.15573,-0.48168 0.22023,-1.06908 0,-1.52322 -0.15573,-0.32113 -0.58295,-0.44049 -0.73867,-0.76161 -0.29548,-0.60929 0.29547,-1.67555 0,-2.28483 -0.11012,-0.22707 -0.62856,0.22706 -0.73869,0 -0.22022,-0.45414 0.11945,-1.03064 0,-1.52323 -0.26706,-1.10144 -1.12913,-1.96935 -1.47735,-3.04644 -0.0778,-0.24084 0.11012,-0.53454 0,-0.76161 -0.31145,-0.64224 -1.16589,-0.88098 -1.47735,-1.52321 -0.11011,-0.22708 0,-0.50775 0,-0.76161 -0.24622,-0.50775 -0.43326,-1.05089 -0.73867,-1.52323 -0.38631,-0.59746 -1.09104,-0.92576 -1.47735,-1.52322 -2.67792,-5.52212 0.77863,1.20421 -1.47736,-2.28483 -0.3054,-0.47233 -0.40833,-1.06909 -0.73868,-1.52322 -0.41785,-0.57445 -1.05949,-0.94879 -1.47735,-1.52323 -0.33035,-0.45413 -0.43326,-1.05089 -0.73867,-1.52322 -0.19316,-0.29872 -0.54552,-0.46288 -0.73868,-0.76161 -0.61081,-0.94465 -0.81666,-2.13817 -1.47735,-3.04643 -0.41786,-0.57445 -1.0595,-0.94879 -1.47736,-1.52323 -0.97505,-1.34043 -1.24097,-3.22923 -2.21602,-4.56966 -0.41786,-0.57444 -1.05949,-0.94878 -1.47735,-1.52322 -0.66069,-0.90827 -0.81666,-2.13817 -1.47735,-3.04644 -0.41786,-0.57445 -1.0595,-0.94878 -1.47735,-1.52322 -1.49486,-2.05502 0.0123,-1.24809 -1.47736,-3.80806 -0.35831,-0.61572 -1.05949,-0.94878 -1.47735,-1.52322 -0.66069,-0.90827 -0.81666,-2.13817 -1.47735,-3.04644 -3.19499,-3.29419 -0.11578,0.20176 -2.21603,-3.04644 -0.72463,-1.12069 -2.23008,-1.92576 -2.95471,-3.04644 -0.0917,-0.14187 -1.43002,-2.99765 -1.47735,-3.04645 -0.1741,-0.17951 -0.62856,0.22707 -0.73867,0 -0.22024,-0.45414 0.22022,-1.06908 0,-1.52322 -0.11012,-0.22706 -0.56457,0.17951 -0.73868,0 -0.38931,-0.4014 -0.43328,-1.05089 -0.73867,-1.52322 -0.38631,-0.59746 -1.16591,-0.88098 -1.47736,-1.52322 -0.11012,-0.22707 0.1741,-0.58209 0,-0.76161 -0.17411,-0.17951 -0.56457,0.17952 -0.73868,0 -0.17411,-0.17951 0.17411,-0.58209 0,-0.76161 -0.17411,-0.17952 -0.56457,0.17952 -0.73867,0 -0.17411,-0.17952 0.1741,-0.5821 0,-0.76161 -1.52835,-1.5758 0.0597,2.40803 -1.47735,-0.76161 -0.11012,-0.22707 0.1741,-0.5821 0,-0.76161 -0.17411,-0.17952 -0.56457,0.17951 -0.73868,0 -0.17411,-0.17952 0.17411,-0.5821 0,-0.76161 -1.52835,-1.5758 0.0597,2.40803 -1.47735,-0.76161 -0.11012,-0.22707 0.17411,-0.5821 0,-0.76161 -0.17412,-0.17951 -0.51845,0.11353 -0.73868,0 -0.31145,-0.16057 -0.49245,-0.50775 -0.73868,-0.76161 -0.24622,-0.25387 -0.58294,-0.4405 -0.73867,-0.76161 -0.11012,-0.22707 0.1741,-0.5821 0,-0.76161 -0.17411,-0.17952 -0.51844,0.11353 -0.73868,0 -0.34206,-0.17634 -2.52026,-2.59851 -2.9547,-3.04645 -0.24623,-0.25387 -0.42723,-0.60105 -0.73867,-0.76161 -0.22024,-0.11353 -0.51845,0.11354 -0.73869,0 -0.6229,-0.32112 -0.85444,-1.20209 -1.47735,-1.52322 -0.22023,-0.11353 -0.51844,0.11354 -0.73867,0 -3.0742,-1.58482 0.78967,0.0525 -0.73868,-1.52321 -0.38932,-0.40142 -1.01924,-0.44673 -1.47735,-0.76162 -0.36073,-0.24796 -2.71422,-2.67451 -2.95471,-3.04644 -0.3054,-0.47233 -0.34936,-1.12182 -0.73868,-1.52322 -0.38931,-0.4014 -1.01924,-0.44672 -1.47735,-0.76161 -0.86919,-0.59746 -1.38031,-1.63859 -2.21602,-2.28484 -0.44046,-0.34059 -1.08804,-0.3602 -1.47735,-0.76161 -0.38933,-0.4014 -0.34936,-1.12181 -0.73869,-1.52322 -0.77863,-0.8028 -2.07377,-0.84201 -2.9547,-1.52321 -0.83572,-0.64626 -1.34683,-1.68739 -2.21602,-2.28484 -0.45812,-0.31488 -1.08804,-0.36021 -1.47736,-0.76161 -0.38932,-0.40141 -0.34936,-1.12182 -0.73868,-1.52322 -0.0473,-0.0489 -2.8171,-1.42864 -2.9547,-1.52322 -0.28973,-0.199155 -0.44894,-0.562459 -0.73867,-0.761611 -0.45811,-0.314889 -1.01925,-0.446721 -1.47735,-0.76161 -0.28974,-0.199154 -0.42723,-0.601052 -0.73869,-0.761613 -0.22022,-0.113534 -0.51844,0.113534 -0.73867,0 -0.31145,-0.160561 -0.44894,-0.562458 -0.73868,-0.761611 -0.4581,-0.314886 -0.95503,-0.582097 -1.47735,-0.76161 -0.23359,-0.08028 -0.56457,0.179513 -0.73867,0 -0.17411,-0.179513 0.1741,-0.582097 0,-0.76161 -0.34822,-0.359027 -1.03689,0.227068 -1.47735,0 -0.31146,-0.160562 -0.42723,-0.60105 -0.73868,-0.761611 -0.22023,-0.113534 -0.50509,0.08028 -0.73867,0 -4.58045,-2.361327 0.36247,-0.09697 -2.21604,-0.76161 -1.86977,-0.481958 -3.4676,-1.406828 -5.17073,-2.284832 -0.49245,-0.253871 -0.9849,-0.507741 -1.47735,-0.761611 -0.49245,-0.25387 -0.93747,-0.650281 -1.47735,-0.76161 -0.72434,-0.149364 -1.4917,0.149364 -2.21603,0 -0.54805,-0.113013 -3.74465,-1.930455 -4.43206,-2.284831 -3.46465,-1.786112 0.87053,0.359026 -3.69338,-1.523221 -1.0224,-0.421656 -1.9698,-1.015481 -2.9547,-1.523221 -0.49245,-0.25387 -1.01925,-0.446724 -1.47735,-0.76161 -0.28974,-0.199153 -0.40834,-0.648077 -0.73868,-0.761612 -0.46719,-0.160561 -1.01017,0.160562 -1.47736,0 -0.33034,-0.113534 -0.42722,-0.601048 -0.73867,-0.76161 -0.29288,-0.150986 -2.06502,0.155702 -2.21603,0 -0.17411,-0.179514 0.17411,-0.582097 0,-0.761611 -0.17866,-0.184207 -3.10451,0.202385 -3.69338,0 -0.52233,-0.179513 -0.95503,-0.582097 -1.47736,-0.76161 -0.70077,-0.240842 -1.4994,0.184718 -2.21602,0 -0.53414,-0.13768 -0.95503,-0.582097 -1.47735,-0.76161 -0.23359,-0.08028 -0.49246,0 -0.73868,0 -0.49245,0 -0.9849,0 -1.47736,0 -0.49244,0 -0.9996,0.123145 -1.47735,0 -0.53413,-0.137681 -0.94321,-0.623931 -1.47735,-0.761611 -0.95549,-0.24629 -2.02034,0.321124 -2.9547,0 -0.33035,-0.113534 -0.40833,-0.648076 -0.73868,-0.76161 -0.48876,-0.167979 -4.16973,0 -5.17073,0 -0.38627,0 -2.76047,-0.10013 -2.95471,0 -0.31145,0.160561 -0.42722,0.601049 -0.73867,0.76161 -0.22023,0.113534 -0.49245,0 -0.73868,0 -0.24623,0.25387 -0.42722,0.601049 -0.73867,0.761611 -0.22024,0.113533 -0.49245,0 -0.73868,0 -0.24623,0.25387 -0.42722,0.601049 -0.73867,0.76161 -0.22024,0.113534 -0.56457,-0.179513 -0.73868,0 -0.1741,0.179513 0.17411,0.582097 0,0.76161 -0.34822,0.359027 -1.12913,-0.359026 -1.47736,0 -0.1741,0.179514 0.17411,0.582097 0,0.761611 -1.9698,0 0.24623,-0.25387 -0.73867,0.76161 -0.17411,0.179513 -0.51844,-0.113534 -0.73868,0 -0.31145,0.160562 -0.42722,0.601049 -0.73867,0.761612 -0.22023,0.113533 -0.56457,-0.179514 -0.73868,0 -0.17411,0.179513 0.17411,0.582097 0,0.76161 -0.17411,0.179513 -0.49245,0 -0.73867,0 0,0.25387 0.1741,0.582097 0,0.76161 -0.17411,0.179514 -0.56457,-0.179513 -0.73868,0 -0.17411,0.179514 0.17411,0.582097 0,0.761611 -0.34821,0.359026 -1.05508,-0.261231 -1.47735,0 -1.05569,0.653076 -1.96981,1.523221 -2.95471,2.284831 z"
         id="path5114"
         inkscape:connector-curvature="0" />
    </clipPath>
    <radialGradient
       id="lorc-stone-sphere-gradient-2"
       gradientTransform="scale(1.8488871,0.5408659)"
       cx="113.48797"
       cy="82.347774"
       fx="113.48797"
       fy="82.347774"
       r="49.992249"
       gradientUnits="userSpaceOnUse">
      <stop
         offset="0%"
         stop-color="#f5a623"
         stop-opacity="1"
         id="stop990" />
      <stop
         offset="100%"
         stop-color="#d0021b"
         stop-opacity="1"
         id="stop992" />
    </radialGradient>
    <radialGradient
       id="lorc-stone-sphere-gradient-3"
       gradientTransform="scale(0.90237194,1.1081905)"
       cx="355.24294"
       cy="122.89444"
       fx="355.24294"
       fy="122.89444"
       r="93.143233"
       gradientUnits="userSpaceOnUse">
      <stop
         offset="0%"
         stop-color="#f5a623"
         stop-opacity="1"
         id="stop995" />
      <stop
         offset="100%"
         stop-color="#d0021b"
         stop-opacity="1"
         id="stop997" />
    </radialGradient>
    <radialGradient
       id="lorc-stone-sphere-gradient-4"
       gradientTransform="scale(0.88226086,1.1334516)"
       cx="496.22529"
       cy="108.0828"
       fx="496.22529"
       fy="108.0828"
       r="49.274822"
       gradientUnits="userSpaceOnUse">
      <stop
         offset="0%"
         stop-color="#f5a623"
         stop-opacity="1"
         id="stop1000" />
      <stop
         offset="100%"
         stop-color="#d0021b"
         stop-opacity="1"
         id="stop1002" />
    </radialGradient>
    <radialGradient
       id="lorc-stone-sphere-gradient-5"
       gradientTransform="scale(1.0972648,0.91135705)"
       cx="183.79034"
       cy="172.40907"
       fx="183.79034"
       fy="172.40907"
       r="91.743512"
       gradientUnits="userSpaceOnUse">
      <stop
         offset="0%"
         stop-color="#f5a623"
         stop-opacity="1"
         id="stop1005" />
      <stop
         offset="100%"
         stop-color="#d0021b"
         stop-opacity="1"
         id="stop1007" />
    </radialGradient>
    <radialGradient
       id="lorc-stone-sphere-gradient-6"
       gradientTransform="scale(0.67626817,1.4787033)"
       cx="81.844923"
       cy="114.74415"
       fx="81.844923"
       fy="114.74415"
       r="55.663792"
       gradientUnits="userSpaceOnUse">
      <stop
         offset="0%"
         stop-color="#f5a623"
         stop-opacity="1"
         id="stop1010" />
      <stop
         offset="100%"
         stop-color="#d0021b"
         stop-opacity="1"
         id="stop1012" />
    </radialGradient>
    <radialGradient
       id="lorc-stone-sphere-gradient-7"
       gradientTransform="scale(0.66548028,1.5026741)"
       cx="671.75593"
       cy="186.11015"
       fx="671.75593"
       fy="186.11015"
       r="70.610174"
       gradientUnits="userSpaceOnUse">
      <stop
         offset="0%"
         stop-color="#f5a623"
         stop-opacity="1"
         id="stop1015" />
      <stop
         offset="100%"
         stop-color="#d0021b"
         stop-opacity="1"
         id="stop1017" />
    </radialGradient>
    <radialGradient
       id="lorc-stone-sphere-gradient-8"
       gradientTransform="scale(0.92291373,1.0835249)"
       cx="166.25945"
       cy="254.36195"
       fx="166.25945"
       fy="254.36195"
       r="85.178943"
       gradientUnits="userSpaceOnUse">
      <stop
         offset="0%"
         stop-color="#f5a623"
         stop-opacity="1"
         id="stop1020" />
      <stop
         offset="100%"
         stop-color="#d0021b"
         stop-opacity="1"
         id="stop1022" />
    </radialGradient>
    <radialGradient
       id="lorc-stone-sphere-gradient-9"
       gradientTransform="scale(1.1005778,0.90861366)"
       cx="281.17245"
       cy="353.53524"
       fx="281.17245"
       fy="353.53524"
       r="111.90948"
       gradientUnits="userSpaceOnUse">
      <stop
         offset="0%"
         stop-color="#f5a623"
         stop-opacity="1"
         id="stop1025" />
      <stop
         offset="100%"
         stop-color="#d0021b"
         stop-opacity="1"
         id="stop1027" />
    </radialGradient>
    <radialGradient
       id="lorc-stone-sphere-gradient-10"
       gradientTransform="scale(0.67809828,1.4747125)"
       cx="78.503705"
       cy="209.60116"
       fx="78.503705"
       fy="209.60116"
       r="51.731747"
       gradientUnits="userSpaceOnUse">
      <stop
         offset="0%"
         stop-color="#f5a623"
         stop-opacity="1"
         id="stop1030" />
      <stop
         offset="100%"
         stop-color="#d0021b"
         stop-opacity="1"
         id="stop1032" />
    </radialGradient>
    <radialGradient
       id="lorc-stone-sphere-gradient-11"
       gradientTransform="scale(1.2497443,0.80016365)"
       cx="275.11562"
       cy="537.51394"
       fx="275.11562"
       fy="537.51394"
       r="79.586073"
       gradientUnits="userSpaceOnUse">
      <stop
         offset="0%"
         stop-color="#f5a623"
         stop-opacity="1"
         id="stop1035" />
      <stop
         offset="100%"
         stop-color="#d0021b"
         stop-opacity="1"
         id="stop1037" />
    </radialGradient>
    <radialGradient
       id="lorc-stone-sphere-gradient-12"
       gradientTransform="scale(1.2176603,0.82124713)"
       cx="127.0112"
       cy="526.12866"
       fx="127.0112"
       fy="526.12866"
       r="73.406364"
       gradientUnits="userSpaceOnUse">
      <stop
         offset="0%"
         stop-color="#f5a623"
         stop-opacity="1"
         id="stop1040" />
      <stop
         offset="100%"
         stop-color="#d0021b"
         stop-opacity="1"
         id="stop1042" />
    </radialGradient>
    <radialGradient
       id="lorc-stone-sphere-gradient-2-6"
       gradientTransform="scale(1.8488871,0.5408659)"
       cx="113.48797"
       cy="82.347774"
       fx="113.48797"
       fy="82.347774"
       r="49.992249"
       gradientUnits="userSpaceOnUse">
      <stop
         offset="0%"
         stop-color="#9400d3"
         stop-opacity="1"
         id="stop1154" />
      <stop
         offset="100%"
         stop-color="#4b0082"
         stop-opacity="1"
         id="stop1156" />
    </radialGradient>
    <radialGradient
       id="lorc-stone-sphere-gradient-3-7"
       gradientTransform="scale(0.90237194,1.1081905)"
       cx="355.24294"
       cy="122.89444"
       fx="355.24294"
       fy="122.89444"
       r="93.143233"
       gradientUnits="userSpaceOnUse">
      <stop
         offset="0%"
         stop-color="#9400d3"
         stop-opacity="1"
         id="stop1159" />
      <stop
         offset="100%"
         stop-color="#4b0082"
         stop-opacity="1"
         id="stop1161" />
    </radialGradient>
    <radialGradient
       id="lorc-stone-sphere-gradient-4-5"
       gradientTransform="scale(0.88226086,1.1334516)"
       cx="496.22529"
       cy="108.0828"
       fx="496.22529"
       fy="108.0828"
       r="49.274822"
       gradientUnits="userSpaceOnUse">
      <stop
         offset="0%"
         stop-color="#9400d3"
         stop-opacity="1"
         id="stop1164" />
      <stop
         offset="100%"
         stop-color="#4b0082"
         stop-opacity="1"
         id="stop1166" />
    </radialGradient>
    <radialGradient
       id="lorc-stone-sphere-gradient-5-3"
       gradientTransform="scale(1.0972648,0.91135705)"
       cx="183.79034"
       cy="172.40907"
       fx="183.79034"
       fy="172.40907"
       r="91.743512"
       gradientUnits="userSpaceOnUse">
      <stop
         offset="0%"
         stop-color="#9400d3"
         stop-opacity="1"
         id="stop1169" />
      <stop
         offset="100%"
         stop-color="#4b0082"
         stop-opacity="1"
         id="stop1171" />
    </radialGradient>
    <radialGradient
       id="lorc-stone-sphere-gradient-6-5"
       gradientTransform="scale(0.67626817,1.4787033)"
       cx="81.844923"
       cy="114.74415"
       fx="81.844923"
       fy="114.74415"
       r="55.663792"
       gradientUnits="userSpaceOnUse">
      <stop
         offset="0%"
         stop-color="#9400d3"
         stop-opacity="1"
         id="stop1174" />
      <stop
         offset="100%"
         stop-color="#4b0082"
         stop-opacity="1"
         id="stop1176" />
    </radialGradient>
    <radialGradient
       id="lorc-stone-sphere-gradient-7-6"
       gradientTransform="scale(0.66548028,1.5026741)"
       cx="671.75593"
       cy="186.11015"
       fx="671.75593"
       fy="186.11015"
       r="70.610174"
       gradientUnits="userSpaceOnUse">
      <stop
         offset="0%"
         stop-color="#9400d3"
         stop-opacity="1"
         id="stop1179" />
      <stop
         offset="100%"
         stop-color="#4b0082"
         stop-opacity="1"
         id="stop1181" />
    </radialGradient>
    <radialGradient
       id="lorc-stone-sphere-gradient-8-2"
       gradientTransform="scale(0.92291373,1.0835249)"
       cx="166.25945"
       cy="254.36195"
       fx="166.25945"
       fy="254.36195"
       r="85.178943"
       gradientUnits="userSpaceOnUse">
      <stop
         offset="0%"
         stop-color="#9400d3"
         stop-opacity="1"
         id="stop1184" />
      <stop
         offset="100%"
         stop-color="#4b0082"
         stop-opacity="1"
         id="stop1186" />
    </radialGradient>
    <radialGradient
       id="lorc-stone-sphere-gradient-9-9"
       gradientTransform="scale(1.1005778,0.90861366)"
       cx="281.17245"
       cy="353.53524"
       fx="281.17245"
       fy="353.53524"
       r="111.90948"
       gradientUnits="userSpaceOnUse">
      <stop
         offset="0%"
         stop-color="#9400d3"
         stop-opacity="1"
         id="stop1189" />
      <stop
         offset="100%"
         stop-color="#4b0082"
         stop-opacity="1"
         id="stop1191" />
    </radialGradient>
    <radialGradient
       id="lorc-stone-sphere-gradient-10-1"
       gradientTransform="scale(0.67809828,1.4747125)"
       cx="78.503705"
       cy="209.60116"
       fx="78.503705"
       fy="209.60116"
       r="51.731747"
       gradientUnits="userSpaceOnUse">
      <stop
         offset="0%"
         stop-color="#9400d3"
         stop-opacity="1"
         id="stop1194" />
      <stop
         offset="100%"
         stop-color="#4b0082"
         stop-opacity="1"
         id="stop1196" />
    </radialGradient>
    <radialGradient
       id="lorc-stone-sphere-gradient-11-2"
       gradientTransform="scale(1.2497443,0.80016365)"
       cx="275.11562"
       cy="537.51394"
       fx="275.11562"
       fy="537.51394"
       r="79.586073"
       gradientUnits="userSpaceOnUse">
      <stop
         offset="0%"
         stop-color="#9400d3"
         stop-opacity="1"
         id="stop1199" />
      <stop
         offset="100%"
         stop-color="#4b0082"
         stop-opacity="1"
         id="stop1201" />
    </radialGradient>
    <radialGradient
       id="lorc-stone-sphere-gradient-12-7"
       gradientTransform="scale(1.2176603,0.82124713)"
       cx="127.0112"
       cy="526.12866"
       fx="127.0112"
       fy="526.12866"
       r="73.406364"
       gradientUnits="userSpaceOnUse">
      <stop
         offset="0%"
         stop-color="#9400d3"
         stop-opacity="1"
         id="stop1204" />
      <stop
         offset="100%"
         stop-color="#4b0082"
         stop-opacity="1"
         id="stop1206" />
    </radialGradient>
    <radialGradient
       id="delapouite-menhir-gradient-2"
       gradientTransform="scale(0.74629123,1.3399595)"
       cx="343.01616"
       cy="191.04786"
       fx="343.01616"
       fy="191.04786"
       r="179.28372"
       gradientUnits="userSpaceOnUse">
      <stop
         offset="0%"
         stop-color="#d0021b"
         stop-opacity="1"
         id="stop1318" />
      <stop
         offset="100%"
         stop-color="#892330"
         stop-opacity="1"
         id="stop1320" />
    </radialGradient>
    <radialGradient
       id="delapouite-menhir-gradient-3"
       gradientTransform="scale(1.2813545,0.78042415)"
       cx="234.0738"
       cy="313.79822"
       fx="234.0738"
       fy="313.79822"
       r="27.99646"
       gradientUnits="userSpaceOnUse">
      <stop
         offset="0%"
         stop-color="#d0021b"
         stop-opacity="1"
         id="stop1323" />
      <stop
         offset="100%"
         stop-color="#872732"
         stop-opacity="1"
         id="stop1325" />
    </radialGradient>
    <radialGradient
       id="delapouite-menhir-gradient-4"
       gradientTransform="scale(1.2656622,0.79010023)"
       cx="255.62412"
       cy="438.09563"
       fx="255.62412"
       fy="438.09563"
       r="34.910145"
       gradientUnits="userSpaceOnUse">
      <stop
         offset="0%"
         stop-color="#d0021b"
         stop-opacity="1"
         id="stop1328" />
      <stop
         offset="100%"
         stop-color="#7d323b"
         stop-opacity="1"
         id="stop1330" />
    </radialGradient>
    <radialGradient
       id="delapouite-menhir-gradient-5"
       gradientTransform="scale(1.2490633,0.80059992)"
       cx="201.90905"
       cy="510.19677"
       fx="201.90905"
       fy="510.19677"
       r="27.234625"
       gradientUnits="userSpaceOnUse">
      <stop
         offset="0%"
         stop-color="#d0021b"
         stop-opacity="1"
         id="stop1333" />
      <stop
         offset="100%"
         stop-color="#852631"
         stop-opacity="1"
         id="stop1335" />
    </radialGradient>
    <radialGradient
       id="delapouite-menhir-gradient-6">
      <stop
         offset="0%"
         stop-color="#9400d3"
         stop-opacity="1"
         id="stop1338" />
      <stop
         offset="100%"
         stop-color="#4b0082"
         stop-opacity="1"
         id="stop1340" />
    </radialGradient>
    <radialGradient
       id="delapouite-menhir-gradient-7">
      <stop
         offset="0%"
         stop-color="#9400d3"
         stop-opacity="1"
         id="stop1343" />
      <stop
         offset="100%"
         stop-color="#4b0082"
         stop-opacity="1"
         id="stop1345" />
    </radialGradient>
    <radialGradient
       id="delapouite-menhir-gradient-8">
      <stop
         offset="0%"
         stop-color="#9400d3"
         stop-opacity="1"
         id="stop1348" />
      <stop
         offset="100%"
         stop-color="#4b0082"
         stop-opacity="1"
         id="stop1350" />
    </radialGradient>
    <radialGradient
       id="delapouite-menhir-gradient-9">
      <stop
         offset="0%"
         stop-color="#9400d3"
         stop-opacity="1"
         id="stop1353" />
      <stop
         offset="100%"
         stop-color="#4b0082"
         stop-opacity="1"
         id="stop1355" />
    </radialGradient>
    <radialGradient
       id="delapouite-menhir-gradient-10">
      <stop
         offset="0%"
         stop-color="#9400d3"
         stop-opacity="1"
         id="stop1358" />
      <stop
         offset="100%"
         stop-color="#4b0082"
         stop-opacity="1"
         id="stop1360" />
    </radialGradient>
    <radialGradient
       id="delapouite-menhir-gradient-11">
      <stop
         offset="0%"
         stop-color="#9400d3"
         stop-opacity="1"
         id="stop1363" />
      <stop
         offset="100%"
         stop-color="#4b0082"
         stop-opacity="1"
         id="stop1365" />
    </radialGradient>
    <radialGradient
       id="delapouite-menhir-gradient-12">
      <stop
         offset="0%"
         stop-color="#9400d3"
         stop-opacity="1"
         id="stop1368" />
      <stop
         offset="100%"
         stop-color="#4b0082"
         stop-opacity="1"
         id="stop1370" />
    </radialGradient>
    <radialGradient
       id="skoll-allied-star-gradient-2"
       cx="256"
       cy="256"
       fx="256"
       fy="256"
       r="232"
       gradientUnits="userSpaceOnUse">
      <stop
         offset="0%"
         stop-color="#000000"
         stop-opacity="1"
         id="stop1472" />
      <stop
         offset="100%"
         stop-color="#4a4a4a"
         stop-opacity="1"
         id="stop1474" />
    </radialGradient>
    <radialGradient
       id="skoll-allied-star-gradient-3"
       gradientTransform="scale(1.1668699,0.8569936)"
       cx="291.9653"
       cy="162.80025"
       fx="291.9653"
       fy="162.80025"
       r="73.724274"
       gradientUnits="userSpaceOnUse">
      <stop
         offset="0%"
         stop-color="#d0021b"
         stop-opacity="1"
         id="stop1477" />
      <stop
         offset="100%"
         stop-color="#000000"
         stop-opacity="1"
         id="stop1479" />
    </radialGradient>
    <radialGradient
       id="skoll-allied-star-gradient-4"
       gradientTransform="scale(1.1667449,0.85708539)"
       cx="146.10091"
       cy="162.79591"
       fx="146.10091"
       fy="162.79591"
       r="73.703274"
       gradientUnits="userSpaceOnUse">
      <stop
         offset="0%"
         stop-color="#d0021b"
         stop-opacity="1"
         id="stop1482" />
      <stop
         offset="100%"
         stop-color="#000000"
         stop-opacity="1"
         id="stop1484" />
    </radialGradient>
    <radialGradient
       id="skoll-allied-star-gradient-5"
       gradientTransform="scale(0.75237874,1.3291178)"
       cx="177.0091"
       cy="226.94141"
       fx="177.0091"
       fy="226.94141"
       r="75.560202"
       gradientUnits="userSpaceOnUse">
      <stop
         offset="0%"
         stop-color="#d0021b"
         stop-opacity="1"
         id="stop1487" />
      <stop
         offset="100%"
         stop-color="#000000"
         stop-opacity="1"
         id="stop1489" />
    </radialGradient>
    <radialGradient
       id="skoll-allied-star-gradient-6"
       gradientTransform="scale(1.4001583,0.71420493)"
       cx="181.79592"
       cy="534.3224"
       fx="181.79592"
       fy="534.3224"
       r="75.667262"
       gradientUnits="userSpaceOnUse">
      <stop
         offset="0%"
         stop-color="#d0021b"
         stop-opacity="1"
         id="stop1492" />
      <stop
         offset="100%"
         stop-color="#000000"
         stop-opacity="1"
         id="stop1494" />
    </radialGradient>
    <radialGradient
       id="skoll-allied-star-gradient-7"
       gradientTransform="scale(0.75356933,1.3270179)"
       cx="502.72287"
       cy="227.04631"
       fx="502.72287"
       fy="227.04631"
       r="75.459401"
       gradientUnits="userSpaceOnUse">
      <stop
         offset="0%"
         stop-color="#d0021b"
         stop-opacity="1"
         id="stop1497" />
      <stop
         offset="100%"
         stop-color="#000000"
         stop-opacity="1"
         id="stop1499" />
    </radialGradient>
    <radialGradient
       id="skoll-allied-star-gradient-8">
      <stop
         offset="0%"
         stop-color="#b57204"
         stop-opacity="1"
         id="stop1502" />
      <stop
         offset="100%"
         stop-color="#8b572a"
         stop-opacity="1"
         id="stop1504" />
    </radialGradient>
    <radialGradient
       id="skoll-allied-star-gradient-9">
      <stop
         offset="0%"
         stop-color="#b57204"
         stop-opacity="1"
         id="stop1507" />
      <stop
         offset="100%"
         stop-color="#8b572a"
         stop-opacity="1"
         id="stop1509" />
    </radialGradient>
    <radialGradient
       id="skoll-allied-star-gradient-10">
      <stop
         offset="0%"
         stop-color="#8b572a"
         stop-opacity="1"
         id="stop1512" />
      <stop
         offset="100%"
         stop-color="#b57204"
         stop-opacity="1"
         id="stop1514" />
    </radialGradient>
    <radialGradient
       id="skoll-allied-star-gradient-11">
      <stop
         offset="0%"
         stop-color="#000000"
         stop-opacity="1"
         id="stop1517" />
      <stop
         offset="100%"
         stop-color="#4a4a4a"
         stop-opacity="1"
         id="stop1519" />
    </radialGradient>
    <radialGradient
       id="skoll-allied-star-gradient-12">
      <stop
         offset="0%"
         stop-color="#7d4413"
         stop-opacity="1"
         id="stop1522" />
      <stop
         offset="100%"
         stop-color="#48260a"
         stop-opacity="1"
         id="stop1524" />
    </radialGradient>
    <radialGradient
       id="lorc-horned-skull-gradient-2"
       gradientTransform="scale(0.9946871,1.0053413)"
       cx="258.26922"
       cy="254.72093"
       fx="258.26922"
       fy="254.72093"
       r="239.70613"
       gradientUnits="userSpaceOnUse">
      <stop
         offset="0%"
         stop-color="#000000"
         stop-opacity="1"
         id="stop1598" />
      <stop
         offset="100%"
         stop-color="#000000"
         stop-opacity="1"
         id="stop1600" />
    </radialGradient>
    <radialGradient
       id="lorc-horned-skull-gradient-3"
       gradientTransform="scale(0.73271176,1.3647932)"
       cx="351.59435"
       cy="185.80027"
       fx="351.59435"
       fy="185.80027"
       r="162.24354"
       gradientUnits="userSpaceOnUse">
      <stop
         offset="0%"
         stop-color="#8b572a"
         stop-opacity="1"
         id="stop1603" />
      <stop
         offset="100%"
         stop-color="#522b08"
         stop-opacity="1"
         id="stop1605" />
    </radialGradient>
    <radialGradient
       id="lorc-horned-skull-gradient-4"
       gradientTransform="scale(0.95242099,1.0499559)"
       cx="114.97526"
       cy="115.03072"
       fx="114.97526"
       fy="115.03072"
       r="69.220121"
       gradientUnits="userSpaceOnUse">
      <stop
         offset="0%"
         stop-color="#d0021b"
         stop-opacity="1"
         id="stop1608" />
      <stop
         offset="100%"
         stop-color="#000000"
         stop-opacity="1"
         id="stop1610" />
    </radialGradient>
    <radialGradient
       id="lorc-horned-skull-gradient-5"
       gradientTransform="scale(0.98380253,1.0164642)"
       cx="412.95802"
       cy="118.79044"
       fx="412.95802"
       fy="118.79044"
       r="67.906765"
       gradientUnits="userSpaceOnUse">
      <stop
         offset="0%"
         stop-color="#d0021b"
         stop-opacity="1"
         id="stop1613" />
      <stop
         offset="100%"
         stop-color="#000000"
         stop-opacity="1"
         id="stop1615" />
    </radialGradient>
    <radialGradient
       id="lorc-horned-skull-gradient-6"
       gradientTransform="scale(1.1698542,0.85480736)"
       cx="140.04981"
       cy="261.86544"
       fx="140.04981"
       fy="261.86544"
       r="37.619338"
       gradientUnits="userSpaceOnUse">
      <stop
         offset="0%"
         stop-color="#d0021b"
         stop-opacity="1"
         id="stop1618" />
      <stop
         offset="100%"
         stop-color="#000000"
         stop-opacity="1"
         id="stop1620" />
    </radialGradient>
    <radialGradient
       id="lorc-horned-skull-gradient-7"
       gradientTransform="scale(1.1698597,0.85480339)"
       cx="300.12186"
       cy="261.86722"
       fx="300.12186"
       fy="261.86722"
       r="37.618946"
       gradientUnits="userSpaceOnUse">
      <stop
         offset="0%"
         stop-color="#d0021b"
         stop-opacity="1"
         id="stop1623" />
      <stop
         offset="100%"
         stop-color="#000000"
         stop-opacity="1"
         id="stop1625" />
    </radialGradient>
    <radialGradient
       id="lorc-horned-skull-gradient-8">
      <stop
         offset="0%"
         stop-color="#b57204"
         stop-opacity="1"
         id="stop1628" />
      <stop
         offset="100%"
         stop-color="#8b572a"
         stop-opacity="1"
         id="stop1630" />
    </radialGradient>
    <radialGradient
       id="lorc-horned-skull-gradient-9">
      <stop
         offset="0%"
         stop-color="#b57204"
         stop-opacity="1"
         id="stop1633" />
      <stop
         offset="100%"
         stop-color="#8b572a"
         stop-opacity="1"
         id="stop1635" />
    </radialGradient>
    <radialGradient
       id="lorc-horned-skull-gradient-10">
      <stop
         offset="0%"
         stop-color="#8b572a"
         stop-opacity="1"
         id="stop1638" />
      <stop
         offset="100%"
         stop-color="#b57204"
         stop-opacity="1"
         id="stop1640" />
    </radialGradient>
    <radialGradient
       id="lorc-horned-skull-gradient-11">
      <stop
         offset="0%"
         stop-color="#000000"
         stop-opacity="1"
         id="stop1643" />
      <stop
         offset="100%"
         stop-color="#4a4a4a"
         stop-opacity="1"
         id="stop1645" />
    </radialGradient>
    <radialGradient
       id="lorc-horned-skull-gradient-12">
      <stop
         offset="0%"
         stop-color="#7d4413"
         stop-opacity="1"
         id="stop1648" />
      <stop
         offset="100%"
         stop-color="#48260a"
         stop-opacity="1"
         id="stop1650" />
    </radialGradient>
  </defs>
  <g
     id="g1541"
     transform="matrix(1.0807354,0,0,1.0807354,-19.828432,-21.758922)">
    <path
       d="M 256,26 C 129.17,26 26,129.17 26,256 26,382.83 129.192,486 256,486 382.808,486 486,382.808 486,256 486,129.192 382.83,26 256,26 Z"
       class=""
       fill="url(#skoll-allied-star-gradient-2)"
       stroke="#4a4a4a"
       stroke-opacity="1"
       stroke-width="4"
       id="path1529"
       style="fill:url(#skoll-allied-star-gradient-2)" />
    <path
       d="M 424.813,200.7 H 298.258 L 257.442,78.36 c 78.035,0.628 144.206,51.81 167.37,122.34 z"
       class="selected"
       fill="url(#skoll-allied-star-gradient-3)"
       stroke="#4a4a4a"
       stroke-opacity="1"
       stroke-width="4"
       id="path1531"
       style="fill:url(#skoll-allied-star-gradient-3)" />
    <path
       d="M 254.558,78.36 213.786,200.7 H 87.23 C 110.353,130.17 176.524,78.99 254.56,78.36 Z"
       class=""
       fill="url(#skoll-allied-star-gradient-4)"
       stroke="#4a4a4a"
       stroke-opacity="1"
       stroke-width="4"
       id="path1533"
       style="fill:url(#skoll-allied-star-gradient-4)" />
    <path
       d="m 78.328,256 c -0.005,-17.446 2.569,-34.797 7.637,-51.49 l 101.728,75.932 -37.34,118.345 C 105.052,365.313 78.325,312.327 78.33,256 Z"
       class=""
       fill="url(#skoll-allied-star-gradient-5)"
       stroke="#4a4a4a"
       stroke-opacity="1"
       stroke-width="4"
       id="path1535"
       style="fill:url(#skoll-allied-star-gradient-5)" />
    <path
       d="M 154.988,402.045 256,330.03 357.013,402.045 c -60.745,42.154 -141.281,42.154 -202.026,0 z"
       class=""
       fill="url(#skoll-allied-star-gradient-6)"
       stroke="#4a4a4a"
       stroke-opacity="1"
       stroke-width="4"
       id="path1537"
       style="fill:url(#skoll-allied-star-gradient-6)" />
    <path
       d="M 361.602,398.743 324.307,280.398 426.035,204.465 c 21.825,71.874 -3.965,149.703 -64.39,194.322 z"
       class=""
       fill="url(#skoll-allied-star-gradient-7)"
       stroke="#4a4a4a"
       stroke-opacity="1"
       stroke-width="4"
       id="path1539"
       style="fill:url(#skoll-allied-star-gradient-7)" />
  </g>
  <g
     id="g1667"
     transform="matrix(0.75471074,0,0,0.75471074,60.135142,80.42864)">
    <path
       d="m 162.406,17.094 -2.5,5.468 c -1.764,3.854 -3.21,7.755 -4.406,11.688 C 97.803,42.108 55.046,78.007 34.562,126.188 9.842,184.333 16.636,259.848 62.875,326.156 l 18.75,26.875 -1.875,-32.717 c -2.258,-39.849 6.348,-76.108 24.813,-105.125 1.163,4.493 3.05,8.937 5.5,13.125 6.947,11.873 18.43,22.89 33.124,31.375 10.822,6.247 21.975,10.296 32.594,12.03 l -16.655,153.594 -0.625,5.72 4.813,3.124 88.187,57.25 5.063,3.28 5.093,-3.28 88.78,-57.22 4.845,-3.123 -0.624,-5.75 -16.625,-153.438 c 10.954,-1.626 22.518,-5.72 33.72,-12.188 14.695,-8.484 26.177,-19.5 33.125,-31.375 2.217,-3.788 3.975,-7.79 5.156,-11.843 17.908,28.798 26.226,64.58 24,103.843 l -1.842,32.718 18.75,-26.874 c 46.238,-66.307 53,-141.823 28.28,-199.97 -20.405,-47.997 -62.914,-83.802 -120.28,-91.842 -1.454,-4.184 -3.2,-8.282 -5.282,-12.25 l -2.625,-5 H 162.406 Z"
       class="selected"
       fill="url(#lorc-horned-skull-gradient-2)"
       stroke="#4a4a4a"
       stroke-opacity="1"
       stroke-width="4"
       id="path1655"
       style="fill:url(#lorc-horned-skull-gradient-2)" />
    <path
       d="m 174.686,35.781 h 164.75 c 12.584,29.53 5.358,68.857 -19.28,104.47 l -7.437,10.78 12.592,3.564 c 18.38,5.154 33.995,12.365 45.407,20.53 -12.85,0.732 -26.853,5.117 -40.345,12.907 -14.695,8.486 -26.208,19.502 -33.156,31.376 -0.412,0.702 -0.81,1.41 -1.19,2.125 l -0.03,-0.03 c -23.524,44.524 -31.757,128.354 -22.656,218.156 l 17.812,-11.5 c -5.25,-63.274 -1.185,-123.153 9.188,-164.156 5.136,4.396 11.757,6.967 18.875,8.063 l 16.217,149.562 -2.718,1.75 0.092,0.125 -71.093,45.844 -5.095,3.28 -5.063,-3.28 -70.625,-45.844 0.094,-0.125 -2.718,-1.75 L 194.5,272.22 c 7.398,-0.96 14.313,-3.467 19.688,-7.908 10.354,41.11 14.392,101.066 9.093,164.375 l 17.782,11.563 c 8.678,-84.91 1.864,-164.532 -18.718,-210.75 -1.156,-3.452 -2.728,-6.85 -4.625,-10.094 -6.95,-11.874 -18.43,-22.89 -33.126,-31.375 -13.383,-7.725 -27.268,-12.09 -40.03,-12.874 11.265,-7.91 26.54,-14.9 44.5,-20 L 200.186,152 194.748,141.78 C 173.135,101.104 163.59,66.103 174.685,35.78 Z"
       class=""
       fill="url(#lorc-horned-skull-gradient-3)"
       stroke="#4a4a4a"
       stroke-opacity="1"
       stroke-width="4"
       id="path1657"
       style="fill:url(#lorc-horned-skull-gradient-3)" />
    <path
       d="m 151.781,53.407 c -2.428,27.328 6.36,56.236 20.876,85.938 -31.03,11.238 -56.185,29.474 -74.562,52.875 l 14.312,-45 -38.437,32.03 7.843,-49.125 -31.344,50.53 -4.845,-30.374 c 1.69,-5.79 3.72,-11.403 6.03,-16.843 17.48,-41.113 51.72,-71.697 100.126,-80.03 z"
       class=""
       fill="url(#lorc-horned-skull-gradient-4)"
       stroke="#4a4a4a"
       stroke-opacity="1"
       stroke-width="4"
       id="path1659"
       style="fill:url(#lorc-horned-skull-gradient-4)" />
    <path
       d="m 363.438,53.689 c 47.646,8.687 81.383,39.045 98.688,79.75 3.03,7.128 5.544,14.595 7.5,22.312 l -37.906,-31.53 25.967,57.155 -60.5,-42 33.47,46.28 -31.688,-11.56 c -3.664,-3.396 -7.514,-6.615 -11.533,-9.69 -0.028,-0.022 -0.065,-0.038 -0.093,-0.06 -6.315,-5.24 -13.66,-9.945 -21.844,-14.126 -0.128,-0.067 -0.247,-0.155 -0.375,-0.22 -0.326,-0.175 -0.672,-0.326 -1,-0.5 -6.875,-3.64 -14.113,-6.9 -21.72,-9.72 16.575,-27.99 24.514,-58.36 21.033,-86.093 z"
       class=""
       fill="url(#lorc-horned-skull-gradient-5)"
       stroke="#4a4a4a"
       stroke-opacity="1"
       stroke-width="4"
       id="path1661"
       style="fill:url(#lorc-horned-skull-gradient-5)" />
    <path
       d="m 140.72,193.689 c 9.668,0.056 22.326,3.454 34.53,10.5 12.204,7.045 21.46,16.31 26.344,24.656 4.883,8.345 5.113,14.647 2.906,18.47 -2.207,3.82 -7.77,6.742 -17.438,6.686 -2.976,-0.017 -6.245,-0.34 -9.687,-1 2.584,-3.356 4.125,-7.53 4.125,-12.094 0,-10.982 -8.893,-19.906 -19.875,-19.906 -9.475,0 -17.41,6.63 -19.406,15.5 -7.13,-5.62 -12.642,-11.83 -16.032,-17.625 -2.257,-3.856 -3.513,-7.278 -4,-10.22 h 0.093 c 0,-3.024 0.52,-6.028 1.532,-9.03 2.49,-3.437 7.905,-5.99 16.907,-5.938 z"
       class=""
       fill="url(#lorc-horned-skull-gradient-6)"
       stroke="#4a4a4a"
       stroke-opacity="1"
       stroke-width="4"
       id="path1663"
       style="fill:url(#lorc-horned-skull-gradient-6)" />
    <path
       d="m 374.22,193.689 c 9.046,-0.053 14.496,2.505 16.967,5.968 0.005,0.007 -0.004,0.025 0,0.03 0.99,2.987 1.47,5.978 1.47,8.97 h 0.093 c -0.488,2.94 -1.744,6.363 -4,10.22 -3.583,6.122 -9.553,12.697 -17.28,18.56 -1.64,-9.33 -9.762,-16.436 -19.564,-16.436 -10.982,0 -19.875,8.924 -19.875,19.906 0,4.653 1.606,8.894 4.283,12.28 -2.986,0.512 -5.822,0.8 -8.438,0.814 -9.67,0.056 -15.23,-2.866 -17.438,-6.688 -2.206,-3.82 -1.976,-10.123 2.907,-18.468 4.883,-8.346 14.17,-17.61 26.375,-24.656 12.203,-7.046 24.83,-10.444 34.5,-10.5 z"
       class=""
       fill="url(#lorc-horned-skull-gradient-7)"
       stroke="#4a4a4a"
       stroke-opacity="1"
       stroke-width="4"
       id="path1665"
       style="fill:url(#lorc-horned-skull-gradient-7)" />
  </g>
</svg>
