<?xml version="1.0" encoding="UTF-8" standalone="no"?>
<svg
   xmlns:dc="http://purl.org/dc/elements/1.1/"
   xmlns:cc="http://creativecommons.org/ns#"
   xmlns:rdf="http://www.w3.org/1999/02/22-rdf-syntax-ns#"
   xmlns:svg="http://www.w3.org/2000/svg"
   xmlns="http://www.w3.org/2000/svg"
   xmlns:sodipodi="http://sodipodi.sourceforge.net/DTD/sodipodi-0.dtd"
   xmlns:inkscape="http://www.inkscape.org/namespaces/inkscape"
   viewBox="0 0 512 512"
   style="height: 64px; width: 64px;"
   version="1.1"
   id="svg204"
   sodipodi:docname="symbole-de-maedra.svg"
   inkscape:export-filename="/home/plic/Téléchargements/symbole-de-maedra.png"
   inkscape:export-xdpi="23"
   inkscape:export-ydpi="23"
   inkscape:version="1.0.1 (0767f8302a, 2020-10-17)">
  <metadata
     id="metadata208">
    <rdf:RDF>
      <cc:Work
         rdf:about="">
        <dc:format>image/svg+xml</dc:format>
        <dc:type
           rdf:resource="http://purl.org/dc/dcmitype/StillImage" />
        <dc:title></dc:title>
      </cc:Work>
    </rdf:RDF>
  </metadata>
  <sodipodi:namedview
     pagecolor="#ffffff"
     bordercolor="#666666"
     borderopacity="1"
     objecttolerance="10"
     gridtolerance="10"
     guidetolerance="10"
     inkscape:pageopacity="0"
     inkscape:pageshadow="2"
     inkscape:window-width="1888"
     inkscape:window-height="1069"
     id="namedview206"
     showgrid="false"
     inkscape:zoom="0.69605824"
     inkscape:cx="150.12199"
     inkscape:cy="171.16141"
     inkscape:window-x="4188"
     inkscape:window-y="268"
     inkscape:window-maximized="0"
     inkscape:current-layer="svg204" />
  <defs
     id="defs142">
    <radialGradient
       id="lorc-spider-web-gradient-2"
       gradientTransform="scale(1.0000021)"
       cx="255.99997"
       cy="256.00003"
       fx="255.99997"
       fy="256.00003"
       r="239.516"
       gradientUnits="userSpaceOnUse">
      <stop
         offset="0%"
         stop-color="#4a4a4a"
         stop-opacity="1"
         id="stop2" />
      <stop
         offset="100%"
         stop-color="#c9c9c9"
         stop-opacity="1"
         id="stop4" />
    </radialGradient>
    <radialGradient
       id="lorc-spider-web-gradient-3"
       gradientTransform="scale(1.3577418,0.73651705)"
       cx="211.62957"
       cy="132.36291"
       fx="211.62957"
       fy="132.36291"
       r="54.309043"
       gradientUnits="userSpaceOnUse">
      <stop
         offset="0%"
         stop-color="#ffffff"
         stop-opacity="1"
         id="stop7" />
      <stop
         offset="100%"
         stop-color="#c9c9c9"
         stop-opacity="1"
         id="stop9" />
    </radialGradient>
    <radialGradient
       id="lorc-spider-web-gradient-4"
       gradientTransform="scale(1.1156166,0.89636528)"
       cx="141.90554"
       cy="112.70235"
       fx="141.90554"
       fy="112.70235"
       r="48.076911"
       gradientUnits="userSpaceOnUse">
      <stop
         offset="0%"
         stop-color="#ffffff"
         stop-opacity="1"
         id="stop12" />
      <stop
         offset="100%"
         stop-color="#c9c9c9"
         stop-opacity="1"
         id="stop14" />
    </radialGradient>
    <radialGradient
       id="lorc-spider-web-gradient-5"
       gradientTransform="scale(0.94409404,1.0592165)"
       cx="427.18883"
       cy="155.15434"
       fx="427.18883"
       fy="155.15434"
       r="64.974481"
       gradientUnits="userSpaceOnUse">
      <stop
         offset="0%"
         stop-color="#ffffff"
         stop-opacity="1"
         id="stop17" />
      <stop
         offset="100%"
         stop-color="#c9c9c9"
         stop-opacity="1"
         id="stop19" />
    </radialGradient>
    <radialGradient
       id="lorc-spider-web-gradient-6"
       gradientTransform="scale(0.84204489,1.1875851)"
       cx="102.16761"
       cy="141.87154"
       fx="102.16761"
       fy="141.87154"
       r="52.895597"
       gradientUnits="userSpaceOnUse">
      <stop
         offset="0%"
         stop-color="#ffffff"
         stop-opacity="1"
         id="stop22" />
      <stop
         offset="100%"
         stop-color="#c9c9c9"
         stop-opacity="1"
         id="stop24" />
    </radialGradient>
    <radialGradient
       id="lorc-spider-web-gradient-7"
       gradientTransform="scale(1.1147636,0.89705121)"
       cx="244.03686"
       cy="186.83203"
       fx="244.03686"
       fy="186.83203"
       r="37.862784"
       gradientUnits="userSpaceOnUse">
      <stop
         offset="0%"
         stop-color="#ffffff"
         stop-opacity="1"
         id="stop27" />
      <stop
         offset="100%"
         stop-color="#c9c9c9"
         stop-opacity="1"
         id="stop29" />
    </radialGradient>
    <radialGradient
       id="lorc-spider-web-gradient-8"
       gradientTransform="scale(1.0785419,0.92717774)"
       cx="173.30312"
       cy="175.11259"
       fx="173.30312"
       fy="175.11259"
       r="31.553247"
       gradientUnits="userSpaceOnUse">
      <stop
         offset="0%"
         stop-color="#ffffff"
         stop-opacity="1"
         id="stop32" />
      <stop
         offset="100%"
         stop-color="#c9c9c9"
         stop-opacity="1"
         id="stop34" />
    </radialGradient>
    <radialGradient
       id="lorc-spider-web-gradient-9"
       gradientTransform="scale(0.9747264,1.0259289)"
       cx="348.80284"
       cy="197.01947"
       fx="348.80284"
       fy="197.01947"
       r="47.101286"
       gradientUnits="userSpaceOnUse">
      <stop
         offset="0%"
         stop-color="#d0021b"
         stop-opacity="1"
         id="stop37" />
      <stop
         offset="100%"
         stop-color="#000000"
         stop-opacity="1"
         id="stop39" />
    </radialGradient>
    <radialGradient
       id="lorc-spider-web-gradient-10"
       gradientTransform="scale(0.86251762,1.1593966)"
       cx="160.55384"
       cy="179.98877"
       fx="160.55384"
       fy="179.98877"
       r="31.157906"
       gradientUnits="userSpaceOnUse">
      <stop
         offset="0%"
         stop-color="#d0021b"
         stop-opacity="1"
         id="stop42" />
      <stop
         offset="100%"
         stop-color="#000000"
         stop-opacity="1"
         id="stop44" />
    </radialGradient>
    <radialGradient
       id="lorc-spider-web-gradient-11"
       gradientTransform="scale(0.90758361,1.1018269)"
       cx="230.8468"
       cy="194.83105"
       fx="230.8468"
       fy="194.83105"
       r="22.668557"
       gradientUnits="userSpaceOnUse">
      <stop
         offset="0%"
         stop-color="#ffffff"
         stop-opacity="1"
         id="stop47" />
      <stop
         offset="100%"
         stop-color="#c9c9c9"
         stop-opacity="1"
         id="stop49" />
    </radialGradient>
    <radialGradient
       id="lorc-spider-web-gradient-12"
       gradientTransform="scale(0.824618,1.2126827)"
       cx="307.78458"
       cy="177.78447"
       fx="307.78458"
       fy="177.78447"
       r="18.851393"
       gradientUnits="userSpaceOnUse">
      <stop
         offset="0%"
         stop-color="#ffffff"
         stop-opacity="1"
         id="stop52" />
      <stop
         offset="100%"
         stop-color="#c9c9c9"
         stop-opacity="1"
         id="stop54" />
    </radialGradient>
    <radialGradient
       id="lorc-spider-web-gradient-13"
       gradientTransform="scale(0.98173854,1.0186011)"
       cx="187.50098"
       cy="231.78907"
       fx="187.50098"
       fy="231.78907"
       r="22.166231"
       gradientUnits="userSpaceOnUse">
      <stop
         offset="0%"
         stop-color="#ffffff"
         stop-opacity="1"
         id="stop57" />
      <stop
         offset="100%"
         stop-color="#c9c9c9"
         stop-opacity="1"
         id="stop59" />
    </radialGradient>
    <radialGradient
       id="lorc-spider-web-gradient-14"
       gradientTransform="scale(0.98353419,1.0167415)"
       cx="289.93695"
       cy="234.77074"
       fx="289.93695"
       fy="234.77074"
       r="22.55437"
       gradientUnits="userSpaceOnUse">
      <stop
         offset="0%"
         stop-color="#ffffff"
         stop-opacity="1"
         id="stop62" />
      <stop
         offset="100%"
         stop-color="#c9c9c9"
         stop-opacity="1"
         id="stop64" />
    </radialGradient>
    <radialGradient
       id="lorc-spider-web-gradient-15"
       gradientTransform="scale(0.67510333,1.4812547)"
       cx="103.02782"
       cy="200.31303"
       fx="103.02782"
       fy="200.31303"
       r="43.419013"
       gradientUnits="userSpaceOnUse">
      <stop
         offset="0%"
         stop-color="#ffffff"
         stop-opacity="1"
         id="stop67" />
      <stop
         offset="100%"
         stop-color="#c9c9c9"
         stop-opacity="1"
         id="stop69" />
    </radialGradient>
    <radialGradient
       id="lorc-spider-web-gradient-16"
       gradientTransform="scale(0.85249015,1.1730341)"
       cx="497.86669"
       cy="248.74363"
       fx="497.86669"
       fy="248.74363"
       r="46.83364"
       gradientUnits="userSpaceOnUse">
      <stop
         offset="0%"
         stop-color="#ffffff"
         stop-opacity="1"
         id="stop72" />
      <stop
         offset="100%"
         stop-color="#c9c9c9"
         stop-opacity="1"
         id="stop74" />
    </radialGradient>
    <radialGradient
       id="lorc-spider-web-gradient-17"
       gradientTransform="scale(0.68562714,1.4585187)"
       cx="186.96635"
       cy="198.36572"
       fx="186.96635"
       fy="198.36572"
       r="26.911424"
       gradientUnits="userSpaceOnUse">
      <stop
         offset="0%"
         stop-color="#ffffff"
         stop-opacity="1"
         id="stop77" />
      <stop
         offset="100%"
         stop-color="#c9c9c9"
         stop-opacity="1"
         id="stop79" />
    </radialGradient>
    <radialGradient
       id="lorc-spider-web-gradient-18"
       gradientTransform="scale(0.94011756,1.0636968)"
       cx="383.13672"
       cy="269.45818"
       fx="383.13672"
       fy="269.45818"
       r="32.974135"
       gradientUnits="userSpaceOnUse">
      <stop
         offset="0%"
         stop-color="#ffffff"
         stop-opacity="1"
         id="stop82" />
      <stop
         offset="100%"
         stop-color="#c9c9c9"
         stop-opacity="1"
         id="stop84" />
    </radialGradient>
    <radialGradient
       id="lorc-spider-web-gradient-19"
       gradientTransform="scale(1.0030714,0.99693798)"
       cx="179.04797"
       cy="285.11909"
       fx="179.04797"
       fy="285.11909"
       r="20.802747"
       gradientUnits="userSpaceOnUse">
      <stop
         offset="0%"
         stop-color="#ffffff"
         stop-opacity="1"
         id="stop87" />
      <stop
         offset="100%"
         stop-color="#c9c9c9"
         stop-opacity="1"
         id="stop89" />
    </radialGradient>
    <radialGradient
       id="lorc-spider-web-gradient-20"
       gradientTransform="scale(1.2455721,0.80284395)"
       cx="238.56655"
       cy="352.73868"
       fx="238.56655"
       fy="352.73868"
       r="20.785007"
       gradientUnits="userSpaceOnUse">
      <stop
         offset="0%"
         stop-color="#ffffff"
         stop-opacity="1"
         id="stop92" />
      <stop
         offset="100%"
         stop-color="#c9c9c9"
         stop-opacity="1"
         id="stop94" />
    </radialGradient>
    <radialGradient
       id="lorc-spider-web-gradient-21"
       gradientTransform="scale(1.0858376,0.92094807)"
       cx="258.27241"
       cy="345.4767"
       fx="258.27241"
       fy="345.4767"
       r="23.885277"
       gradientUnits="userSpaceOnUse">
      <stop
         offset="0%"
         stop-color="#ffffff"
         stop-opacity="1"
         id="stop97" />
      <stop
         offset="100%"
         stop-color="#c9c9c9"
         stop-opacity="1"
         id="stop99" />
    </radialGradient>
    <radialGradient
       id="lorc-spider-web-gradient-22"
       gradientTransform="scale(1.1172959,0.89501807)"
       cx="165.25514"
       cy="359.04577"
       fx="165.25514"
       fy="359.04577"
       r="24.244704"
       gradientUnits="userSpaceOnUse">
      <stop
         offset="0%"
         stop-color="#fff"
         stop-opacity="1"
         id="stop102" />
      <stop
         offset="100%"
         stop-color="#c9c9c9"
         stop-opacity="1"
         id="stop104" />
    </radialGradient>
    <radialGradient
       id="lorc-spider-web-gradient-23"
       gradientTransform="scale(1.2946212,0.7724267)"
       cx="168.01432"
       cy="425.86496"
       fx="168.01432"
       fy="425.86496"
       r="27.011401"
       gradientUnits="userSpaceOnUse">
      <stop
         offset="0%"
         stop-color="#fff"
         stop-opacity="1"
         id="stop107" />
      <stop
         offset="100%"
         stop-color="#c9c9c9"
         stop-opacity="1"
         id="stop109" />
    </radialGradient>
    <radialGradient
       id="lorc-spider-web-gradient-24"
       gradientTransform="scale(1.0862311,0.92061438)"
       cx="289.65235"
       cy="388.06354"
       fx="289.65235"
       fy="388.06354"
       r="40.259993"
       gradientUnits="userSpaceOnUse">
      <stop
         offset="0%"
         stop-color="#fff"
         stop-opacity="1"
         id="stop112" />
      <stop
         offset="100%"
         stop-color="#c9c9c9"
         stop-opacity="1"
         id="stop114" />
    </radialGradient>
    <radialGradient
       id="lorc-spider-web-gradient-25"
       gradientTransform="scale(0.86117909,1.1611987)"
       cx="154.72482"
       cy="308.88481"
       fx="154.72482"
       fy="308.88481"
       r="26.974769"
       gradientUnits="userSpaceOnUse">
      <stop
         offset="0%"
         stop-color="#fff"
         stop-opacity="1"
         id="stop117" />
      <stop
         offset="100%"
         stop-color="#9b9b9b"
         stop-opacity="1"
         id="stop119" />
    </radialGradient>
    <radialGradient
       id="lorc-spider-web-gradient-26"
       gradientTransform="scale(1.0867125,0.92020658)"
       cx="326.92114"
       cy="431.68237"
       fx="326.92114"
       fy="431.68237"
       r="61.30582"
       gradientUnits="userSpaceOnUse">
      <stop
         offset="0%"
         stop-color="#fff"
         stop-opacity="1"
         id="stop122" />
      <stop
         offset="100%"
         stop-color="#c9c9c9"
         stop-opacity="1"
         id="stop124" />
    </radialGradient>
    <radialGradient
       id="lorc-spider-web-gradient-27"
       gradientTransform="scale(0.86390816,1.1575305)"
       cx="87.07884"
       cy="343.28349"
       fx="87.07884"
       fy="343.28349"
       r="38.774199"
       gradientUnits="userSpaceOnUse">
      <stop
         offset="0%"
         stop-color="#fff"
         stop-opacity="1"
         id="stop127" />
      <stop
         offset="100%"
         stop-color="#c9c9c9"
         stop-opacity="1"
         id="stop129" />
    </radialGradient>
    <radialGradient
       id="lorc-spider-web-gradient-28"
       gradientTransform="scale(1.8999523,0.526329)"
       cx="106.62235"
       cy="720.69331"
       fx="106.62235"
       fy="720.69331"
       r="35.005562"
       gradientUnits="userSpaceOnUse">
      <stop
         offset="0%"
         stop-color="#fff"
         stop-opacity="1"
         id="stop132" />
      <stop
         offset="100%"
         stop-color="#c9c9c9"
         stop-opacity="1"
         id="stop134" />
    </radialGradient>
    <radialGradient
       id="lorc-spider-web-gradient-29"
       gradientTransform="scale(1.9893974,0.50266478)"
       cx="94.063043"
       cy="863.47576"
       fx="94.063043"
       fy="863.47576"
       r="51.234046"
       gradientUnits="userSpaceOnUse">
      <stop
         offset="0%"
         stop-color="#fff"
         stop-opacity="1"
         id="stop137" />
      <stop
         offset="100%"
         stop-color="#c9c9c9"
         stop-opacity="1"
         id="stop139" />
    </radialGradient>
    <radialGradient
       id="carl-olsen-spider-alt-gradient-2"
       gradientTransform="scale(0.93680471,1.0674583)"
       cx="273.16259"
       cy="124.02988"
       fx="273.16259"
       fy="124.02988"
       r="106.74583"
       gradientUnits="userSpaceOnUse">
      <stop
         offset="0%"
         stop-color="#000000"
         stop-opacity="1"
         id="stop1033" />
      <stop
         offset="100%"
         stop-color="#4a4a4a"
         stop-opacity="1"
         id="stop1035" />
    </radialGradient>
    <radialGradient
       id="carl-olsen-spider-alt-gradient-3"
       gradientTransform="scale(0.82542104,1.2115029)"
       cx="497.46445"
       cy="130.00148"
       fx="497.46445"
       fy="130.00148"
       r="101.98719"
       gradientUnits="userSpaceOnUse">
      <stop
         offset="0%"
         stop-color="#000000"
         stop-opacity="1"
         id="stop1038" />
      <stop
         offset="100%"
         stop-color="#4a4a4a"
         stop-opacity="1"
         id="stop1040" />
    </radialGradient>
    <radialGradient
       id="carl-olsen-spider-alt-gradient-4"
       gradientTransform="scale(0.82575444,1.2110138)"
       cx="122.62864"
       cy="129.97021"
       fx="122.62864"
       fy="129.97021"
       r="101.94452"
       gradientUnits="userSpaceOnUse">
      <stop
         offset="0%"
         stop-color="#000000"
         stop-opacity="1"
         id="stop1043" />
      <stop
         offset="100%"
         stop-color="#4a4a4a"
         stop-opacity="1"
         id="stop1045" />
    </radialGradient>
    <radialGradient
       id="carl-olsen-spider-alt-gradient-5"
       gradientTransform="scale(0.90389802,1.1063195)"
       cx="283.16247"
       cy="296.97569"
       fx="283.16247"
       fy="296.97569"
       r="92.875522"
       gradientUnits="userSpaceOnUse">
      <stop
         offset="0%"
         stop-color="#000000"
         stop-opacity="1"
         id="stop1048" />
      <stop
         offset="100%"
         stop-color="#4a4a4a"
         stop-opacity="1"
         id="stop1050" />
    </radialGradient>
    <radialGradient
       id="carl-olsen-spider-alt-gradient-6"
       gradientTransform="scale(1.2773337,0.7828808)"
       cx="71.866694"
       cy="357.849"
       fx="71.866694"
       fy="357.849"
       r="58.49509"
       gradientUnits="userSpaceOnUse">
      <stop
         offset="0%"
         stop-color="#000000"
         stop-opacity="1"
         id="stop1053" />
      <stop
         offset="100%"
         stop-color="#4a4a4a"
         stop-opacity="1"
         id="stop1055" />
    </radialGradient>
    <radialGradient
       id="carl-olsen-spider-alt-gradient-7"
       gradientTransform="scale(1.2771427,0.78299784)"
       cx="328.87464"
       cy="357.86094"
       fx="328.87464"
       fy="357.86094"
       r="58.55269"
       gradientUnits="userSpaceOnUse">
      <stop
         offset="0%"
         stop-color="#000000"
         stop-opacity="1"
         id="stop1058" />
      <stop
         offset="100%"
         stop-color="#4a4a4a"
         stop-opacity="1"
         id="stop1060" />
    </radialGradient>
    <radialGradient
       id="carl-olsen-spider-alt-gradient-8"
       gradientTransform="scale(1.2183021,0.82081446)"
       cx="346.35944"
       cy="489.39807"
       fx="346.35944"
       fy="489.39807"
       r="59.779559"
       gradientUnits="userSpaceOnUse">
      <stop
         offset="0%"
         stop-color="#000000"
         stop-opacity="1"
         id="stop1063" />
      <stop
         offset="100%"
         stop-color="#4a4a4a"
         stop-opacity="1"
         id="stop1065" />
    </radialGradient>
    <radialGradient
       id="carl-olsen-spider-alt-gradient-9"
       gradientTransform="scale(1.2188276,0.82046055)"
       cx="73.745222"
       cy="489.67721"
       fx="73.745222"
       fy="489.67721"
       r="59.73996"
       gradientUnits="userSpaceOnUse">
      <stop
         offset="0%"
         stop-color="#000000"
         stop-opacity="1"
         id="stop1068" />
      <stop
         offset="100%"
         stop-color="#4a4a4a"
         stop-opacity="1"
         id="stop1070" />
    </radialGradient>
    <radialGradient
       id="carl-olsen-spider-alt-gradient-10"
       gradientTransform="scale(1.0020725,0.99793175)"
       cx="202.08118"
       cy="372.62067"
       fx="202.08118"
       fy="372.62067"
       r="12.074974"
       gradientUnits="userSpaceOnUse">
      <stop
         offset="0%"
         stop-color="#d0021b"
         stop-opacity="1"
         id="stop1073" />
      <stop
         offset="100%"
         stop-color="#d0021b"
         stop-opacity="1"
         id="stop1075" />
    </radialGradient>
    <radialGradient
       id="carl-olsen-spider-alt-gradient-11"
       gradientTransform="scale(1.0020725,0.99793175)"
       cx="308.95967"
       cy="372.62067"
       fx="308.95967"
       fy="372.62067"
       r="12.074974"
       gradientUnits="userSpaceOnUse">
      <stop
         offset="0%"
         stop-color="#d0021b"
         stop-opacity="1"
         id="stop1078" />
      <stop
         offset="100%"
         stop-color="#d0021b"
         stop-opacity="1"
         id="stop1080" />
    </radialGradient>
    <radialGradient
       id="carl-olsen-spider-alt-gradient-12"
       gradientTransform="scale(1.0013254,0.99867637)"
       cx="234.48921"
       cy="390.46683"
       fx="234.48921"
       fy="390.46683"
       r="18.874983"
       gradientUnits="userSpaceOnUse">
      <stop
         offset="0%"
         stop-color="#d0021b"
         stop-opacity="1"
         id="stop1083" />
      <stop
         offset="100%"
         stop-color="#9b9b9b"
         stop-opacity="1"
         id="stop1085" />
    </radialGradient>
    <radialGradient
       id="carl-olsen-spider-alt-gradient-13"
       gradientTransform="scale(1.0013254,0.99867637)"
       cx="276.93296"
       cy="390.46683"
       fx="276.93296"
       fy="390.46683"
       r="18.874983"
       gradientUnits="userSpaceOnUse">
      <stop
         offset="0%"
         stop-color="#d0021b"
         stop-opacity="1"
         id="stop1088" />
      <stop
         offset="100%"
         stop-color="#9b9b9b"
         stop-opacity="1"
         id="stop1090" />
    </radialGradient>
    <radialGradient
       id="carl-olsen-spider-alt-gradient-14"
       gradientTransform="scale(1.0408513,0.96075207)"
       cx="365.88531"
       cy="464.90535"
       fx="365.88531"
       fy="464.90535"
       r="50.940536"
       gradientUnits="userSpaceOnUse">
      <stop
         offset="0%"
         stop-color="#000000"
         stop-opacity="1"
         id="stop1093" />
      <stop
         offset="100%"
         stop-color="#4a4a4a"
         stop-opacity="1"
         id="stop1095" />
    </radialGradient>
    <radialGradient
       id="carl-olsen-spider-alt-gradient-15"
       gradientTransform="scale(1.0405065,0.96107041)"
       cx="125.91579"
       cy="464.85791"
       fx="125.91579"
       fy="464.85791"
       r="50.921153"
       gradientUnits="userSpaceOnUse">
      <stop
         offset="0%"
         stop-color="#000000"
         stop-opacity="1"
         id="stop1098" />
      <stop
         offset="100%"
         stop-color="#4a4a4a"
         stop-opacity="1"
         id="stop1100" />
    </radialGradient>
    <radialGradient
       id="carl-olsen-spider-alt-gradient-16"
       gradientTransform="scale(0.70727681,1.4138736)"
       cx="280.37113"
       cy="329.0106"
       fx="280.37113"
       fy="329.0106"
       r="29.267183"
       gradientUnits="userSpaceOnUse">
      <stop
         offset="0%"
         stop-color="#000000"
         stop-opacity="1"
         id="stop1103" />
      <stop
         offset="100%"
         stop-color="#4a4a4a"
         stop-opacity="1"
         id="stop1105" />
    </radialGradient>
    <radialGradient
       id="carl-olsen-spider-alt-gradient-17"
       gradientTransform="scale(0.7072768,1.4138736)"
       cx="443.39076"
       cy="329.01059"
       fx="443.39076"
       fy="329.01059"
       r="29.267184"
       gradientUnits="userSpaceOnUse">
      <stop
         offset="0%"
         stop-color="#000000"
         stop-opacity="1"
         id="stop1108" />
      <stop
         offset="100%"
         stop-color="#4a4a4a"
         stop-opacity="1"
         id="stop1110" />
    </radialGradient>
    <radialGradient
       id="carl-olsen-spider-alt-gradient-18"
       gradientTransform="scale(0.70533843,1.4177591)"
       cx="341.11645"
       cy="321.34624"
       fx="341.11645"
       fy="321.34624"
       r="12.479883"
       gradientUnits="userSpaceOnUse">
      <stop
         offset="0%"
         stop-color="#000000"
         stop-opacity="1"
         id="stop1113" />
      <stop
         offset="100%"
         stop-color="#000000"
         stop-opacity="1"
         id="stop1115" />
    </radialGradient>
    <radialGradient
       id="carl-olsen-spider-alt-gradient-19"
       gradientTransform="scale(0.70123689,1.4260516)"
       cx="387.31562"
       cy="319.47828"
       fx="387.31562"
       fy="319.47828"
       r="12.406649"
       gradientUnits="userSpaceOnUse">
      <stop
         offset="0%"
         stop-color="#000000"
         stop-opacity="1"
         id="stop1118" />
      <stop
         offset="100%"
         stop-color="#000000"
         stop-opacity="1"
         id="stop1120" />
    </radialGradient>
    <radialGradient
       id="carl-olsen-spider-alt-gradient-20">
      <stop
         offset="0%"
         stop-color="#ffffff"
         stop-opacity="1"
         id="stop1123" />
      <stop
         offset="100%"
         stop-color="#c9c9c9"
         stop-opacity="1"
         id="stop1125" />
    </radialGradient>
    <radialGradient
       id="carl-olsen-spider-alt-gradient-21">
      <stop
         offset="0%"
         stop-color="#ffffff"
         stop-opacity="1"
         id="stop1128" />
      <stop
         offset="100%"
         stop-color="#c9c9c9"
         stop-opacity="1"
         id="stop1130" />
    </radialGradient>
    <radialGradient
       id="carl-olsen-spider-alt-gradient-22">
      <stop
         offset="0%"
         stop-color="#fff"
         stop-opacity="1"
         id="stop1133" />
      <stop
         offset="100%"
         stop-color="#c9c9c9"
         stop-opacity="1"
         id="stop1135" />
    </radialGradient>
    <radialGradient
       id="carl-olsen-spider-alt-gradient-23">
      <stop
         offset="0%"
         stop-color="#fff"
         stop-opacity="1"
         id="stop1138" />
      <stop
         offset="100%"
         stop-color="#c9c9c9"
         stop-opacity="1"
         id="stop1140" />
    </radialGradient>
    <radialGradient
       id="carl-olsen-spider-alt-gradient-24">
      <stop
         offset="0%"
         stop-color="#fff"
         stop-opacity="1"
         id="stop1143" />
      <stop
         offset="100%"
         stop-color="#c9c9c9"
         stop-opacity="1"
         id="stop1145" />
    </radialGradient>
    <radialGradient
       id="carl-olsen-spider-alt-gradient-25">
      <stop
         offset="0%"
         stop-color="#fff"
         stop-opacity="1"
         id="stop1148" />
      <stop
         offset="100%"
         stop-color="#9b9b9b"
         stop-opacity="1"
         id="stop1150" />
    </radialGradient>
    <radialGradient
       id="carl-olsen-spider-alt-gradient-26">
      <stop
         offset="0%"
         stop-color="#fff"
         stop-opacity="1"
         id="stop1153" />
      <stop
         offset="100%"
         stop-color="#c9c9c9"
         stop-opacity="1"
         id="stop1155" />
    </radialGradient>
    <radialGradient
       id="carl-olsen-spider-alt-gradient-27">
      <stop
         offset="0%"
         stop-color="#fff"
         stop-opacity="1"
         id="stop1158" />
      <stop
         offset="100%"
         stop-color="#c9c9c9"
         stop-opacity="1"
         id="stop1160" />
    </radialGradient>
    <radialGradient
       id="carl-olsen-spider-alt-gradient-28">
      <stop
         offset="0%"
         stop-color="#fff"
         stop-opacity="1"
         id="stop1163" />
      <stop
         offset="100%"
         stop-color="#c9c9c9"
         stop-opacity="1"
         id="stop1165" />
    </radialGradient>
    <radialGradient
       id="carl-olsen-spider-alt-gradient-29">
      <stop
         offset="0%"
         stop-color="#fff"
         stop-opacity="1"
         id="stop1168" />
      <stop
         offset="100%"
         stop-color="#c9c9c9"
         stop-opacity="1"
         id="stop1170" />
    </radialGradient>
  </defs>
  <g
     class=""
     transform="translate(14)"
     id="g202">
    <g
       id="g200">
      <path
         d="M 20.45,18.484 77.59,90.588 C 74.865,139.18 53.842,176.38 25.2,210.62 l -6.716,-1.76 v 19.32 l 2.557,0.672 c 15.35,45.065 9.088,90.827 1.82,138.294 l -4.376,2.047 v 20.63 l 9.18,-4.294 c 6.516,10.707 13.658,27.047 19.06,41.33 4.283,11.33 7.474,20.984 9.253,26.535 l -37.493,37.69 v 2.43 h 23.942 l 28.55,-28.7 c 9.27,-0.363 41.77,-1.473 82.7,-0.75 46.744,0.825 102.612,4.3 139.05,13.667 l 5.08,15.784 h 19.632 l -7.43,-23.088 c 35.94,-41.51 71.912,-80.525 131.734,-102.34 l 51.774,20.486 v -20.097 l -42.983,-17.008 c -6.374,-39.21 12.755,-76.665 30.62,-116.68 l 12.363,-2.585 v -19.092 l -6.323,1.323 -5.45,-2.803 C 425.656,182.8 405.41,133.64 388.444,78.93 l 44.184,-60.446 h -23.15 l -38.6,52.81 C 312.605,72.548 258.403,68.831 216.432,33.504 l -2.274,-15.02 h -18.9 l 2.838,18.75 C 170.96,66.224 140.532,85.188 93.512,80.59 L 44.292,18.484 H 20.448 Z"
         class=""
         fill="url(#lorc-spider-web-gradient-2)"
         stroke="#4a4a4a"
         stroke-opacity="1"
         stroke-width="4"
         id="path144"
         style="fill:url(#lorc-spider-web-gradient-2)" />
      <path
         d="m 220.367,59.488 c 40.608,26.304 88.498,30.894 136.754,30.63 l -33.14,45.34 c -36.588,0.396 -69.856,-3.034 -95.845,-24.638 l -7.768,-51.332 z"
         class=""
         fill="url(#lorc-spider-web-gradient-3)"
         stroke="#4a4a4a"
         stroke-opacity="1"
         stroke-width="4"
         id="path146"
         style="fill:url(#lorc-spider-web-gradient-3)" />
      <path
         d="m 201.533,59.928 8.29,54.775 c -17.815,18.616 -37.294,30.18 -67.995,26.854 L 108.752,99.82 c 38.593,-0.74 68.358,-17.144 92.78,-39.892 z"
         class=""
         fill="url(#lorc-spider-web-gradient-4)"
         stroke="#4a4a4a"
         stroke-opacity="1"
         stroke-width="4"
         id="path148"
         style="fill:url(#lorc-spider-web-gradient-4)" />
      <path
         d="m 374.857,97.52 c 15.536,46.967 37.05,92.69 84.55,122.722 l -51.768,10.82 -0.816,-0.417 c -37.27,-19.145 -50.445,-51.64 -61.935,-88.83 l -0.716,-2.315 30.683,-41.98 z"
         class=""
         fill="url(#lorc-spider-web-gradient-5)"
         stroke="#4a4a4a"
         stroke-opacity="1"
         stroke-width="4"
         id="path150"
         style="fill:url(#lorc-spider-web-gradient-5)" />
      <path
         d="m 94.117,111.438 34.393,43.398 c -2.523,29.583 -15.404,52.66 -33.14,74.207 L 44.966,215.81 C 68.68,186.036 87.606,152.417 94.118,111.437 Z"
         class=""
         fill="url(#lorc-spider-web-gradient-6)"
         stroke="#4a4a4a"
         stroke-opacity="1"
         stroke-width="4"
         id="path152"
         style="fill:url(#lorc-spider-web-gradient-6)" />
      <path
         d="m 231.965,136.128 c 23.936,13.694 51.05,17.4 78.404,17.948 l -32.91,45.028 c -15.058,-6.364 -26.137,-17.753 -38.57,-30.325 l -2.343,-2.37 -4.582,-30.28 z"
         class=""
         fill="url(#lorc-spider-web-gradient-7)"
         stroke="#4a4a4a"
         stroke-opacity="1"
         stroke-width="4"
         id="path154"
         style="fill:url(#lorc-spider-web-gradient-7)" />
      <path
         d="m 213.187,136.938 5.592,36.955 c -11.176,7.5 -24.436,12.15 -39.046,15.492 l -22.902,-28.897 c 22.71,-1.395 41.095,-10.68 56.356,-23.55 z"
         class=""
         fill="url(#lorc-spider-web-gradient-8)"
         stroke="#4a4a4a"
         stroke-opacity="1"
         stroke-width="4"
         id="path156"
         style="fill:url(#lorc-spider-web-gradient-8)" />
      <path
         d="m 330.567,158.111 c 9.746,29.155 23.146,58.017 50.58,78.49 l -55.928,11.69 c -12.997,-11.182 -19.977,-24.734 -27.156,-39.89 l -1.67,-3.53 z"
         class=""
         fill="url(#lorc-spider-web-gradient-9)"
         stroke="#4a4a4a"
         stroke-opacity="1"
         stroke-width="4"
         id="path158"
         style="fill:url(#lorc-spider-web-gradient-9)" />
      <path
         d="m 144.135,174.554 19.142,24.154 -0.078,0.71 c -1.93,17.365 -8.877,29.63 -16.65,43.063 l -31.536,-8.28 c 13.212,-17.356 23.94,-36.828 29.12,-59.647 z"
         class=""
         fill="url(#lorc-spider-web-gradient-10)"
         stroke="#4a4a4a"
         stroke-opacity="1"
         stroke-width="4"
         id="path160"
         style="fill:url(#lorc-spider-web-gradient-10)" />
      <path
         d="m 221.809,193.907 6.012,39.742 c -3.617,0.69 -7.056,1.875 -10.25,3.48 l -25.177,-31.767 c 10.19,-2.75 20.13,-6.345 29.414,-11.454 z"
         class=""
         fill="url(#lorc-spider-web-gradient-11)"
         stroke="#4a4a4a"
         stroke-opacity="1"
         stroke-width="4"
         id="path162"
         style="fill:url(#lorc-spider-web-gradient-11)" />
      <path
         d="m 241.169,196.95 c 7.355,6.578 15.52,12.722 25.152,17.39 l -15.834,21.662 c -1.176,-0.493 -2.377,-0.94 -3.607,-1.318 l -5.71,-37.735 z"
         class=""
         fill="url(#lorc-spider-web-gradient-12)"
         stroke="#4a4a4a"
         stroke-opacity="1"
         stroke-width="4"
         id="path164"
         style="fill:url(#lorc-spider-web-gradient-12)" />
      <path
         d="m 178.419,217.814 24.91,31.43 c -1.593,2.197 -2.96,4.566 -4.08,7.07 l -33.914,-8.902 c 4.955,-8.757 9.83,-18.253 13.084,-29.598 z"
         class=""
         fill="url(#lorc-spider-web-gradient-13)"
         stroke="#4a4a4a"
         stroke-opacity="1"
         stroke-width="4"
         id="path166"
         style="fill:url(#lorc-spider-web-gradient-13)" />
      <path
         d="m 283.944,221.896 c 5.12,10.415 11.104,21.095 19.653,30.913 l -31.143,6.508 c -1.58,-4.496 -3.943,-8.624 -6.937,-12.21 l 18.427,-25.212 z"
         class=""
         fill="url(#lorc-spider-web-gradient-14)"
         stroke="#4a4a4a"
         stroke-opacity="1"
         stroke-width="4"
         id="path168"
         style="fill:url(#lorc-spider-web-gradient-14)" />
      <path
         d="m 42.172,234.4 48.873,12.83 c 9.227,28.215 5.795,57.08 1.2,87.448 L 43.173,357.64 c 5.95,-40.147 10.29,-81.414 -1,-123.24 z"
         class=""
         fill="url(#lorc-spider-web-gradient-15)"
         stroke="#4a4a4a"
         stroke-opacity="1"
         stroke-width="4"
         id="path170"
         style="fill:url(#lorc-spider-web-gradient-15)" />
      <path
         d="m 458.314,239.562 c -14.933,32.635 -30.114,66.733 -27.433,104.13 l -43.74,-17.307 c -3.6,-25.016 8.776,-49.445 20.725,-76.278 l 50.45,-10.544 z"
         class=""
         fill="url(#lorc-spider-web-gradient-16)"
         stroke="#4a4a4a"
         stroke-opacity="1"
         stroke-width="4"
         id="path172"
         style="fill:url(#lorc-spider-web-gradient-16)" />
      <path
         d="m 111.738,252.662 27.614,7.248 0.562,1.4 c 6.1,15.133 5.383,31.772 2.9,49.708 l -30.318,14.185 c 3.214,-23.512 4.976,-47.812 -0.758,-72.54 z"
         class=""
         fill="url(#lorc-spider-web-gradient-17)"
         stroke="#4a4a4a"
         stroke-opacity="1"
         stroke-width="4"
         id="path174"
         style="fill:url(#lorc-spider-web-gradient-17)" />
      <path
         d="m 385.033,254.879 c -9.043,19.817 -17.797,40.803 -17.252,63.847 l -36.587,-14.477 c -0.004,-13.148 1.395,-22.84 9.12,-33.92 l 4.98,-7.144 39.74,-8.307 z"
         class=""
         fill="url(#lorc-spider-web-gradient-18)"
         stroke="#4a4a4a"
         stroke-opacity="1"
         stroke-width="4"
         id="path176"
         style="fill:url(#lorc-spider-web-gradient-18)" />
      <path
         d="m 160.673,265.507 35.237,9.252 c 0.22,3.636 0.94,7.135 2.078,10.44 l -35.27,16.503 c 1.05,-11.9 0.927,-24.048 -2.044,-36.195 z"
         class=""
         fill="url(#lorc-spider-web-gradient-19)"
         stroke="#4a4a4a"
         stroke-opacity="1"
         stroke-width="4"
         id="path178"
         style="fill:url(#lorc-spider-web-gradient-19)" />
      <path
         d="m 319.833,268.507 c -4.625,9.433 -6.38,18.89 -6.948,28.498 l -39.278,-15.54 c 0.266,-1.125 0.47,-2.273 0.64,-3.43 l 45.585,-9.528 z"
         class=""
         fill="url(#lorc-spider-web-gradient-20)"
         stroke="#4a4a4a"
         stroke-opacity="1"
         stroke-width="4"
         id="path180"
         style="fill:url(#lorc-spider-web-gradient-20)" />
      <path
         d="m 265.037,298.169 36.504,14.443 c -8.91,4.58 -17.316,10.536 -24.677,16.16 -3.907,2.986 -7.107,5.602 -9.886,7.942 l -10.102,-31.397 c 3.04,-2 5.786,-4.408 8.162,-7.148 z"
         class=""
         fill="url(#lorc-spider-web-gradient-21)"
         stroke="#4a4a4a"
         stroke-opacity="1"
         stroke-width="4"
         id="path182"
         style="fill:url(#lorc-spider-web-gradient-21)" />
      <path
         d="M 206.917,301.653 169.26,339.51 c -2.558,-6.2 -6.018,-11.147 -9.588,-15.235 l 0.088,-0.556 47.154,-22.066 z"
         class=""
         fill="url(#lorc-spider-web-gradient-22)"
         stroke="#4a4a4a"
         stroke-opacity="1"
         stroke-width="4"
         id="path184"
         style="fill:url(#lorc-spider-web-gradient-22)" />
      <path
         d="m 224.647,310.325 c 3.377,0.94 6.93,1.455 10.607,1.455 1.35,0 2.686,-0.067 4.002,-0.2 l 10.473,32.54 c -13.314,-0.16 -37.613,0.076 -61.693,3.01 l 36.61,-36.804 z"
         class=""
         fill="url(#lorc-spider-web-gradient-23)"
         stroke="#4a4a4a"
         stroke-opacity="1"
         stroke-width="4"
         id="path186"
         style="fill:url(#lorc-spider-web-gradient-23)" />
      <path
         d="m 328.133,323.135 25.363,10.034 c -29.4,14.92 -50.376,35.896 -69.252,57.2 L 273.2,356.05 c 3.554,-3.174 8.73,-7.63 15.01,-12.427 11.42,-8.727 26.208,-17.7 35.685,-19.627 l 4.238,-0.86 z"
         class=""
         fill="url(#lorc-spider-web-gradient-24)"
         stroke="#4a4a4a"
         stroke-opacity="1"
         stroke-width="4"
         id="path188"
         style="fill:url(#lorc-spider-web-gradient-24)" />
      <path
         d="m 141.635,332.2 1.517,1.525 c 5.848,5.875 9.973,10.303 11.223,20.75 l -31.143,31.308 c -0.35,-2.27 -0.738,-4.63 -1.2,-7.142 -2.01,-10.95 -4.448,-22.942 -9.325,-32.904 l 28.928,-13.535 z"
         class=""
         fill="url(#lorc-spider-web-gradient-25)"
         stroke="#4a4a4a"
         stroke-opacity="1"
         stroke-width="4"
         id="path190"
         style="fill:url(#lorc-spider-web-gradient-25)" />
      <path
         d="m 377.563,342.693 39.218,15.518 c -49.423,22.5 -82.915,56.684 -113.45,91.47 l -12.435,-38.647 c 24.103,-27.838 47.673,-53.616 86.668,-68.34 z"
         class=""
         fill="url(#lorc-spider-web-gradient-26)"
         stroke="#4a4a4a"
         stroke-opacity="1"
         stroke-width="4"
         id="path192"
         style="fill:url(#lorc-spider-web-gradient-26)" />
      <path
         d="m 95.577,353.75 c 3.002,6.837 6.222,18.17 8.076,28.266 1.582,8.61 2.5,16.08 2.98,20.45 l -35.882,36.075 c -1.68,-4.98 -3.777,-10.96 -6.55,-18.29 -5.374,-14.216 -11.993,-30.012 -19.61,-42.64 l 50.986,-23.86 z"
         class=""
         fill="url(#lorc-spider-web-gradient-27)"
         stroke="#4a4a4a"
         stroke-opacity="1"
         stroke-width="4"
         id="path194"
         style="fill:url(#lorc-spider-web-gradient-27)" />
      <path
         d="m 246.44,362.898 c 3.968,-0.006 6.814,0.03 9.35,0.065 l 10.396,32.3 c -26.257,-4.15 -58.633,-4.19 -87.057,-3.185 -15.575,0.55 -28.004,1.327 -37.857,2.065 l 24.108,-24.237 0.95,-0.23 c 23.746,-5.79 59.86,-6.746 80.11,-6.778 z"
         class=""
         fill="url(#lorc-spider-web-gradient-28)"
         stroke="#4a4a4a"
         stroke-opacity="1"
         stroke-width="4"
         id="path196"
         style="fill:url(#lorc-spider-web-gradient-28)" />
      <path
         d="m 204.248,410.288 c 24.924,-0.053 50.366,1.266 68.416,5.103 l 13.428,41.727 c -38.708,-8.23 -88.984,-10.977 -132.086,-11.738 -27.222,-0.482 -49.237,-0.188 -63.87,0.173 l 30.8,-30.963 c 7.765,-0.757 30.71,-2.842 58.853,-3.836 7.9,-0.28 16.15,-0.45 24.458,-0.467 z"
         class="selected"
         fill="url(#lorc-spider-web-gradient-29)"
         stroke="#4a4a4a"
         stroke-opacity="1"
         stroke-width="4"
         id="path198"
         style="fill:url(#lorc-spider-web-gradient-29)" />
    </g>
  </g>
  <g
     id="g1211"
     transform="matrix(0.63164208,0,0,0.63164208,83.618792,167.69193)">
    <path
       d="m 255.9,20.45 c -54.1,0 -98,93.45 -98,146.85 0,31 14.9,58.6 37.9,76.3 5.9,-6.9 12.2,-12.9 19,-17.7 13.7,-7.9 27.8,-13.9 41.1,-14.1 14.4,0 28.4,5 41.2,14.1 6.7,4.8 13.1,10.8 19,17.7 23,-17.7 37.8,-45.3 37.8,-76.3 0,-53.4 -43.9,-146.85 -98,-146.85 z"
       class=""
       fill="url(#carl-olsen-spider-alt-gradient-2)"
       stroke="#4a4a4a"
       stroke-opacity="1"
       stroke-width="4"
       id="path1175"
       style="fill:url(#carl-olsen-spider-alt-gradient-2)" />
    <path
       d="M 492.8,34.72 419.3,208.1 329.2,262 c 3.2,5.2 6,10.6 8.6,16.2 l 96.1,-57.4 58.9,-139.03 z"
       class=""
       fill="url(#carl-olsen-spider-alt-gradient-3)"
       stroke="#4a4a4a"
       stroke-opacity="1"
       stroke-width="4"
       id="path1177"
       style="fill:url(#carl-olsen-spider-alt-gradient-3)" />
    <path
       d="M 19.08,34.72 V 81.77 L 78.01,220.8 174.1,278 c 2.6,-5.6 5.5,-11 8.6,-16.2 L 92.57,208.1 Z"
       class=""
       fill="url(#carl-olsen-spider-alt-gradient-4)"
       stroke="#4a4a4a"
       stroke-opacity="1"
       stroke-width="4"
       id="path1179"
       style="fill:url(#carl-olsen-spider-alt-gradient-4)" />
    <path
       d="m 255.9,227.8 c -10.7,0 -21.3,3.6 -31.8,11.1 -10.8,8.9 -19.9,19 -26.1,28.6 -14.9,23.5 -24,54.4 -24,81.5 0,26.6 8.4,47.2 24,61 14,12.4 33.8,19.3 57.9,19.3 24.1,0 43.9,-6.9 58,-19.3 15.5,-13.8 24,-34.4 24,-61 0,-27.1 -9.1,-58 -24.1,-81.5 -7.8,-12.3 -16.6,-21.9 -26,-28.6 -10.5,-6.2 -21.5,-10.9 -31.9,-11.1 z"
       class=""
       fill="url(#carl-olsen-spider-alt-gradient-5)"
       stroke="#4a4a4a"
       stroke-opacity="1"
       stroke-width="4"
       id="path1181"
       style="fill:url(#carl-olsen-spider-alt-gradient-5)" />
    <path
       d="m 19.08,238.5 v 23.4 l 64.42,51.2 76.6,10.6 c 1,-6 2.3,-12 3.9,-18 L 91,295.6 Z"
       class=""
       fill="url(#carl-olsen-spider-alt-gradient-6)"
       stroke="#4a4a4a"
       stroke-opacity="1"
       stroke-width="4"
       id="path1183"
       style="fill:url(#carl-olsen-spider-alt-gradient-6)" />
    <path
       d="m 492.8,238.5 -71.9,57.1 -73.1,10.2 c 1.7,5.9 3,11.9 4,18 l 76.6,-10.7 64.4,-51.2 z"
       class=""
       fill="url(#carl-olsen-spider-alt-gradient-7)"
       stroke="#4a4a4a"
       stroke-opacity="1"
       stroke-width="4"
       id="path1185"
       style="fill:url(#carl-olsen-spider-alt-gradient-7)" />
    <path
       d="m 353.7,355.1 c -0.3,6.4 -1,12.5 -2.2,18.3 l 69,15.1 72.3,58.1 v -23.5 l -64.1,-51.6 c -25,-5.5 -50,-10.9 -75,-16.4 z"
       class=""
       fill="url(#carl-olsen-spider-alt-gradient-8)"
       stroke="#4a4a4a"
       stroke-opacity="1"
       stroke-width="4"
       id="path1187"
       style="fill:url(#carl-olsen-spider-alt-gradient-8)" />
    <path
       d="m 158.1,355.2 -74.92,16.3 -64.11,51.6 v 23.5 l 72.24,-58.1 69.09,-15 c -1.1,-6.4 -2,-12.8 -2.3,-18.3 z"
       class=""
       fill="url(#carl-olsen-spider-alt-gradient-9)"
       stroke="#4a4a4a"
       stroke-opacity="1"
       stroke-width="4"
       id="path1189"
       style="fill:url(#carl-olsen-spider-alt-gradient-9)" />
    <path
       d="m 202.5,361.8 c 5.6,0 10.1,4.5 10.1,10.1 0,5.5 -4.5,10 -10.1,10 -5.6,0 -10.1,-4.5 -10.1,-10 0,-5.6 4.5,-10.1 10.1,-10.1 z"
       class=""
       fill="url(#carl-olsen-spider-alt-gradient-10)"
       stroke="#4a4a4a"
       stroke-opacity="1"
       stroke-width="4"
       id="path1191"
       style="fill:url(#carl-olsen-spider-alt-gradient-10)" />
    <path
       d="m 309.6,361.8 c 5.6,0 10.1,4.5 10.1,10.1 0,5.5 -4.5,10 -10.1,10 -5.6,0 -10.1,-4.5 -10.1,-10 0,-5.6 4.5,-10.1 10.1,-10.1 z"
       class=""
       fill="url(#carl-olsen-spider-alt-gradient-11)"
       stroke="#4a4a4a"
       stroke-opacity="1"
       stroke-width="4"
       id="path1193"
       style="fill:url(#carl-olsen-spider-alt-gradient-11)" />
    <path
       d="m 234.8,373.1 c 9.3,0 16.9,7.6 16.9,16.8 0,9.3 -7.6,16.9 -16.9,16.9 -9.4,0 -16.9,-7.6 -16.9,-16.9 0,-9.2 7.5,-16.8 16.9,-16.8 z"
       class=""
       fill="url(#carl-olsen-spider-alt-gradient-12)"
       stroke="#4a4a4a"
       stroke-opacity="1"
       stroke-width="4"
       id="path1195"
       style="fill:url(#carl-olsen-spider-alt-gradient-12)" />
    <path
       d="m 277.3,373.1 c 9.4,0 16.9,7.6 16.9,16.8 0,9.3 -7.5,16.9 -16.9,16.9 -9.3,0 -16.9,-7.6 -16.9,-16.9 0,-9.2 7.6,-16.8 16.9,-16.8 z"
       class=""
       fill="url(#carl-olsen-spider-alt-gradient-13)"
       stroke="#4a4a4a"
       stroke-opacity="1"
       stroke-width="4"
       id="path1197"
       style="fill:url(#carl-olsen-spider-alt-gradient-13)" />
    <path
       d="m 341.7,400.4 c -3,5.4 -6.6,10.5 -10.7,15.1 l 51.1,27.1 27.5,51 h 20.9 L 395.6,429 c -18,-9.5 -35.9,-19.1 -53.9,-28.6 z"
       class=""
       fill="url(#carl-olsen-spider-alt-gradient-14)"
       stroke="#4a4a4a"
       stroke-opacity="1"
       stroke-width="4"
       id="path1199"
       style="fill:url(#carl-olsen-spider-alt-gradient-14)" />
    <path
       d="m 170.2,400.5 -54,28.5 -34.82,64.7 h 20.82 l 27.5,-51.1 51.2,-27 c -4.1,-5 -8,-10.3 -10.7,-15.1 z"
       class=""
       fill="url(#carl-olsen-spider-alt-gradient-15)"
       stroke="#4a4a4a"
       stroke-opacity="1"
       stroke-width="4"
       id="path1201"
       style="fill:url(#carl-olsen-spider-alt-gradient-15)" />
    <path
       d="m 200.4,425.8 c -4.4,0.1 -9.5,2.3 -14.9,7.7 -3.8,7.8 -5.9,16.5 -5.9,25.7 0,16.5 6.8,31.4 17.8,42.5 v -4 c 0,-20.8 7.7,-39.3 19.6,-50.8 0,-10.8 -6.7,-21.2 -16.5,-21.1 z"
       class=""
       fill="url(#carl-olsen-spider-alt-gradient-16)"
       stroke="#4a4a4a"
       stroke-opacity="1"
       stroke-width="4"
       id="path1203"
       style="fill:url(#carl-olsen-spider-alt-gradient-16)" />
    <path
       d="m 311.5,425.8 c -9.8,-0.1 -16.6,10.3 -16.6,21.1 11.9,11.5 19.6,30 19.6,50.8 v 4 c 11,-11.1 17.8,-26 17.8,-42.5 0,-9.2 -2.1,-17.9 -5.9,-25.7 -5.4,-5.4 -10.5,-7.6 -14.9,-7.7 z"
       class=""
       fill="url(#carl-olsen-spider-alt-gradient-17)"
       stroke="#4a4a4a"
       stroke-opacity="1"
       stroke-width="4"
       id="path1205"
       style="fill:url(#carl-olsen-spider-alt-gradient-17)" />
    <path
       d="m 241.2,439.9 c -1.6,0.1 -3.4,0.9 -5.3,2.8 -1.4,2.8 -2.1,5.9 -2.1,9.2 0,5.9 2.4,11.3 6.4,15.3 -0.1,-0.5 -0.1,-1 -0.1,-1.5 0,-7.4 2.8,-14.1 7.1,-18.2 -0.9,-3.9 -2.7,-7.5 -6,-7.6 z"
       class=""
       fill="url(#carl-olsen-spider-alt-gradient-18)"
       stroke="#4a4a4a"
       stroke-opacity="1"
       stroke-width="4"
       id="path1207"
       style="fill:url(#carl-olsen-spider-alt-gradient-18)" />
    <path
       d="m 270.9,439.9 c -3.6,0 -6,3.7 -6,7.6 4.3,4.1 7.1,10.8 7.1,18.2 0,0.5 0,1 -0.1,1.5 4,-4 6.4,-9.4 6.4,-15.3 0,-3.3 -0.7,-6.4 -2.1,-9.2 -1.6,-1.3 -3.5,-2.7 -5.3,-2.8 z"
       class="selected"
       fill="url(#carl-olsen-spider-alt-gradient-19)"
       stroke="#4a4a4a"
       stroke-opacity="1"
       stroke-width="4"
       id="path1209"
       style="fill:url(#carl-olsen-spider-alt-gradient-19)" />
  </g>
</svg>
