<?xml version="1.0" encoding="UTF-8" standalone="no"?>
<svg
   xmlns:dc="http://purl.org/dc/elements/1.1/"
   xmlns:cc="http://creativecommons.org/ns#"
   xmlns:rdf="http://www.w3.org/1999/02/22-rdf-syntax-ns#"
   xmlns:svg="http://www.w3.org/2000/svg"
   xmlns="http://www.w3.org/2000/svg"
   xmlns:sodipodi="http://sodipodi.sourceforge.net/DTD/sodipodi-0.dtd"
   xmlns:inkscape="http://www.inkscape.org/namespaces/inkscape"
   viewBox="0 0 512 512"
   style="height: 64px; width: 64px;"
   version="1.1"
   id="svg20"
   sodipodi:docname="symbole-beni-d-abalath.svg"
   inkscape:version="0.92.3 (2405546, 2018-03-11)">
  <metadata
     id="metadata24">
    <rdf:RDF>
      <cc:Work
         rdf:about="">
        <dc:format>image/svg+xml</dc:format>
        <dc:type
           rdf:resource="http://purl.org/dc/dcmitype/StillImage" />
        <dc:title></dc:title>
      </cc:Work>
    </rdf:RDF>
  </metadata>
  <sodipodi:namedview
     pagecolor="#ffffff"
     bordercolor="#666666"
     borderopacity="1"
     objecttolerance="10"
     gridtolerance="10"
     guidetolerance="10"
     inkscape:pageopacity="0"
     inkscape:pageshadow="2"
     inkscape:window-width="1439"
     inkscape:window-height="873"
     id="namedview22"
     showgrid="false"
     inkscape:zoom="0.32593203"
     inkscape:cx="683.62901"
     inkscape:cy="-222.20038"
     inkscape:window-x="2210"
     inkscape:window-y="165"
     inkscape:window-maximized="0"
     inkscape:current-layer="svg20" />
  <defs
     id="defs12">
    <radialGradient
       id="gradient-1">
      <stop
         offset="0%"
         stop-color="#ffe0af"
         stop-opacity="1"
         id="stop2" />
      <stop
         offset="100%"
         stop-color="#e6ceaa"
         stop-opacity="1"
         id="stop4" />
    </radialGradient>
    <radialGradient
       id="gradient-2">
      <stop
         offset="0%"
         stop-color="#ffffff"
         stop-opacity="1"
         id="stop7" />
      <stop
         offset="100%"
         stop-color="#c9c9c9"
         stop-opacity="1"
         id="stop9" />
    </radialGradient>
    <radialGradient
       id="gradient-1-3">
      <stop
         id="stop834"
         stop-opacity="1"
         stop-color="#ffe0af"
         offset="0%" />
      <stop
         id="stop836"
         stop-opacity="1"
         stop-color="#e6ceaa"
         offset="100%" />
    </radialGradient>
    <radialGradient
       id="gradient-2-6"
       gradientTransform="scale(0.94749735,1.0554119)"
       cx="270.29313"
       cy="243.40166"
       fx="270.29313"
       fy="243.40166"
       r="228.15084"
       gradientUnits="userSpaceOnUse">
      <stop
         id="stop839"
         stop-opacity="1"
         stop-color="#4a4a4a"
         offset="0%" />
      <stop
         id="stop841"
         stop-opacity="1"
         stop-color="#9b9b9b"
         offset="100%" />
    </radialGradient>
  </defs>
  <g
     class=""
     transform="translate(0,0)"
     style="touch-action: none;"
     id="g18">
    <g
       id="g16">
      <path
         d="M256 38.013C233.542 38.013 189.528 148.313 171.36 161.515C153.19 174.715 34.686 182.49 27.746 203.849C20.806 225.207 112.108 301.152 119.048 322.511C125.988 343.871 96.762 458.976 114.932 472.176C133.102 485.376 233.542 422.012 256 422.012C278.458 422.012 378.9 485.377 397.068 472.176C415.238 458.976 386.012 343.87 392.952 322.511C399.892 301.151 491.194 225.207 484.254 203.848C477.314 182.488 358.81 174.714 340.641 161.513C322.473 148.313 278.459 38.011 256.001 38.011Z"
         class="selected"
         fill="url(#gradient-2)"
         stroke="#4a4a4a"
         stroke-opacity="1"
         stroke-width="10"
         id="path14" />
    </g>
  </g>
  <g
     id="g850"
     class=""
     transform="matrix(0.51991658,0,0,0.51991658,100.4235,153.42975)">
    <g
       id="g848">
      <path
         style="fill:url(#gradient-2-6);stroke:#4a4a4a;stroke-width:10;stroke-opacity:1"
         id="path846"
         class="selected"
         d="m 355.102,21.097 c -33.682,0.164 -64.173,18.585 -74.615,50.5 21.357,-0.79 23.203,53.922 23.203,53.922 l 41.619,6.262 c -13.41,12.963 -50.025,5.967 -50.025,5.967 -17.14,19.182 -33.124,40.966 -47.758,57.578 -15.952,18.127 -35.2,38.103 -57.018,60.086 -6.79,6.823 41.594,-9.821 34.342,-2.604 -24.567,12.751 -42.297,16.097 -61.764,32.069 -31.312,25.674 -62.853,60.71 -81.146,79.431 -7.711,7.91 -44.362,37.674 20.469,34.74 2.404,7.52 -1.621,9.456 -7.493,15.293 -4.327,4.303 -18.082,0.283 -22.263,2.828 -22.172,35.055 -17.246,37.975 -27.43,58.047 -4.252,11.635 41.68,-14.404 64.305,-34.18 13.974,-7.58 25.147,-21.652 35.002,-17.202 43.11,18.984 129.826,35.53 141.328,27.619 18.368,-12.646 -10.321,-46.343 3.832,-97.912 23.47,5.817 43.825,13.657 66.767,11.459 -1.581,49.307 3.56,55.306 -3.888,104.777 l 59.129,21.127 1.91,-13.809 -33.815,-22.478 c 14.568,-50.659 16.809,-72.578 15.227,-121.719 -0.16,-5.372 -45.168,-24.325 -74.492,-33.133 l 18.593,-30.412 c 30.393,-44.788 124.141,-62.055 127.932,-88.258 -13.02,-19.676 3.022,-27.384 -25.092,-21.912 -6.295,1.318 -13.771,24.346 -18.023,27.213 -7.843,5.276 -40.655,24.477 -51.951,18.377 -1.9,-1.026 7.246,-33.441 6.85,-44.78 -0.116,-3.205 -1.19,-6.625 -2.866,-10.001 0.185,-0.64 15.24,-52.482 54.809,-94.016 -43.978,25.134 -65.332,79.925 -65.354,79.98 -2.207,-2.134 -4.476,-3.983 -6.639,-5.423 -1.916,-14.7 -4.819,-73.02 68.598,-78.776 -21.427,-21.177 -47.704,-30.78 -72.283,-30.66 z"
         inkscape:connector-curvature="0" />
    </g>
  </g>
</svg>
