<svg xmlns="http://www.w3.org/2000/svg" viewBox="0 0 512 512" style="height: 64px; width: 64px;"><g class="" transform="translate(0,0)" style="touch-action: none;"><g><path d="M256 41C212.304 41 172.72 44.58 144.63 50.197C130.583 53.007 119.37 56.393 112.42 59.68C108.944 61.323 106.578 62.973 105.54 63.986L105.527 64L105.541 64.014C106.579 65.027 108.945 66.677 112.421 68.32C119.371 71.607 130.584 74.994 144.631 77.803C172.72 83.42 212.303 87 256 87C299.697 87 339.28 83.42 367.37 77.803C381.417 74.993 392.63 71.607 399.58 68.32C403.056 66.677 405.422 65.027 406.46 64.014L406.473 64L406.459 63.986C405.421 62.973 403.055 61.323 399.579 59.68C392.629 56.393 381.416 53.006 367.369 50.197C339.28 44.58 299.697 41 256 41Z" class="" fill="#8b572a" fill-opacity="1" stroke="#4a4a4a" stroke-opacity="1" stroke-width="10"></path><path d="M176 56C193.673 56 208 59.582 208 64C208 68.418 193.673 72 176 72C158.327 72 144 68.418 144 64C144 59.582 158.327 56 176 56Z" class="" fill="#8b572a" fill-opacity="1" stroke="#4a4a4a" stroke-opacity="1" stroke-width="10"></path><path d="M100.832 82.594C98 94.629 93.418 114.756 88.782 137.874C105.517 142.212 122.302 145.864 139.109 148.869C142.097 131.666 145.816 114.431 150.379 97.161C147.193 96.614 144.079 96.048 141.097 95.451C126.187 92.471 113.967 88.961 104.727 84.591C103.364 83.947 102.071 83.284 100.831 82.593Z" class="" fill="#8b572a" fill-opacity="1" stroke="#4a4a4a" stroke-opacity="1" stroke-width="10"></path><path d="M411.168 82.594C409.928 83.284 408.635 83.948 407.273 84.592C398.033 88.962 385.811 92.472 370.903 95.452C367.973 96.039 364.913 96.594 361.787 97.132C367.057 114.086 371.331 131.165 374.74 148.352C391 145.369 407.152 141.784 423.164 137.598C418.547 114.598 413.989 94.581 411.168 82.594Z" class="" fill="#8b572a" fill-opacity="1" stroke="#4a4a4a" stroke-opacity="1" stroke-width="10"></path><path d="M343.768 99.832C320.703 102.814 293.868 104.635 265 104.949L265 159.147C295.885 158.702 326.603 156.097 356.975 151.374C353.525 134.04 349.17 116.851 343.768 99.831Z" class="" fill="#8b572a" fill-opacity="1" stroke="#4a4a4a" stroke-opacity="1" stroke-width="10"></path><path d="M168.293 99.84C163.646 117.185 159.877 134.51 156.867 151.82C186.929 156.36 217.027 158.787 247 159.174L247 104.95C218.158 104.636 191.344 102.817 168.293 99.84Z" class="" fill="#8b572a" fill-opacity="1" stroke="#4a4a4a" stroke-opacity="1" stroke-width="10"></path><path d="M83.913 155.117L78.395 185.205C206.937 216.141 318.285 215.153 431.779 185.342L426.799 155.17C316.023 183.968 198.764 184.955 83.913 155.117Z" class="" fill="#4a4a4a" fill-opacity="1" stroke="#4a4a4a" stroke-opacity="1" stroke-width="10"></path><path d="M434.547 203.293C417.597 207.699 400.671 211.467 383.717 214.605C387.373 262.208 385.493 310.475 380.167 359.095C398.767 355.292 416.963 350.568 434.635 344.925C439.592 314.762 439 291.606 439 256C439 241.085 437.23 222.666 434.547 203.293Z" class="selected" fill="#8b572a" fill-opacity="1" stroke="#4a4a4a" stroke-opacity="1" stroke-width="10"></path><path d="M77.417 203.549C74.758 222.827 73 241.15 73 256C73 279.794 77.678 313.228 83.424 345.404C100.028 350.232 116.81 354.374 133.694 357.822C129.162 310.306 127.664 262.575 131.117 214.6C113.493 211.537 95.61 207.86 77.417 203.55Z" class="" fill="#8b572a" fill-opacity="1" stroke="#4a4a4a" stroke-opacity="1" stroke-width="10"></path><path d="M148.963 217.493C145.627 265.471 147.333 313.376 152.127 361.306C183.68 366.796 215.475 369.898 247 370.636L247 225.94C215.005 225.364 182.43 222.56 148.963 217.494Z" class="" fill="#8b572a" fill-opacity="1" stroke="#4a4a4a" stroke-opacity="1" stroke-width="10"></path><path d="M365.865 217.683C332.562 222.958 299.073 225.751 265 226.023L265 370.8C297.816 370.626 330.224 367.87 361.64 362.55C367.25 313.518 369.362 265.133 365.865 217.684Z" class="" fill="#8b572a" fill-opacity="1" stroke="#4a4a4a" stroke-opacity="1" stroke-width="10"></path><path d="M86.66 364.93L94.95 396.83C199.1 429.22 320.7 429.258 421.027 397.563L429.299 365.299C323.275 396.666 201.289 396.639 86.659 364.929Z" class="" fill="#4a4a4a" fill-opacity="1" stroke="#4a4a4a" stroke-opacity="1" stroke-width="10"></path><path d="M97.896 416.596C101.712 433.541 104.481 444.779 104.6 445.258C105.392 447.443 109.294 451.685 117.56 455.628C125.147 459.244 135.775 462.575 148.33 465.332C146.198 452.766 144.188 440.185 142.314 427.592C127.284 424.526 112.449 420.859 97.896 416.596Z" class="" fill="#8b572a" fill-opacity="1" stroke="#4a4a4a" stroke-opacity="1" stroke-width="10"></path><path d="M416.262 417.906C401.328 422.266 386.008 425.958 370.41 428.992C368.403 441.072 366.25 453.164 363.98 465.264C376.402 462.519 386.915 459.214 394.44 455.627C402.816 451.633 406.742 447.312 407.46 445.154C410.72 435.374 413.638 426.339 416.262 417.906Z" class="" fill="#8b572a" fill-opacity="1" stroke="#4a4a4a" stroke-opacity="1" stroke-width="10"></path><path d="M161.045 431.086C162.962 443.66 165.015 456.24 167.189 468.826C190.826 472.51 218.714 474.574 246.999 474.936L246.999 439.24C218.184 438.596 189.339 435.88 161.044 431.086Z" class="" fill="#8b572a" fill-opacity="1" stroke="#4a4a4a" stroke-opacity="1" stroke-width="10"></path><path d="M351.595 432.309C323.289 436.793 294.222 439.156 265 439.379L265 474.935C293.358 474.572 321.317 472.498 344.994 468.795C347.324 456.605 349.532 444.442 351.596 432.308Z" class="" fill="#8b572a" fill-opacity="1" stroke="#4a4a4a" stroke-opacity="1" stroke-width="10"></path></g></g></svg>