<?xml version="1.0" encoding="UTF-8" standalone="no"?>
<svg
   xmlns:dc="http://purl.org/dc/elements/1.1/"
   xmlns:cc="http://creativecommons.org/ns#"
   xmlns:rdf="http://www.w3.org/1999/02/22-rdf-syntax-ns#"
   xmlns:svg="http://www.w3.org/2000/svg"
   xmlns="http://www.w3.org/2000/svg"
   xmlns:xlink="http://www.w3.org/1999/xlink"
   xmlns:sodipodi="http://sodipodi.sourceforge.net/DTD/sodipodi-0.dtd"
   xmlns:inkscape="http://www.inkscape.org/namespaces/inkscape"
   viewBox="0 0 512 512"
   style="height: 64px; width: 64px;"
   version="1.1"
   id="svg15"
   sodipodi:docname="torque-de-andra-mortemine.svg"
   inkscape:export-filename="/home/plic/Téléchargements/torque-de-andra-mortemine.png"
   inkscape:export-xdpi="24"
   inkscape:export-ydpi="24"
   inkscape:version="0.92.3 (2405546, 2018-03-11)">
  <metadata
     id="metadata19">
    <rdf:RDF>
      <cc:Work
         rdf:about="">
        <dc:format>image/svg+xml</dc:format>
        <dc:type
           rdf:resource="http://purl.org/dc/dcmitype/StillImage" />
        <dc:title></dc:title>
      </cc:Work>
    </rdf:RDF>
  </metadata>
  <sodipodi:namedview
     pagecolor="#ffffff"
     bordercolor="#666666"
     borderopacity="1"
     objecttolerance="10"
     gridtolerance="10"
     guidetolerance="10"
     inkscape:pageopacity="0"
     inkscape:pageshadow="2"
     inkscape:window-width="1271"
     inkscape:window-height="689"
     id="namedview17"
     showgrid="false"
     inkscape:zoom="0.50444868"
     inkscape:cx="-13.549902"
     inkscape:cy="324.30981"
     inkscape:window-x="2566"
     inkscape:window-y="358"
     inkscape:window-maximized="0"
     inkscape:current-layer="svg15" />
  <defs
     id="defs7">
    <linearGradient
       inkscape:collect="always"
       id="linearGradient920">
      <stop
         style="stop-color:#b3b3b3;stop-opacity:1;"
         offset="0"
         id="stop916" />
      <stop
         style="stop-color:#b3b3b3;stop-opacity:0;"
         offset="1"
         id="stop918" />
    </linearGradient>
    <linearGradient
       id="gradient-2"
       x1="0"
       x2="0"
       y1="0"
       y2="1">
      <stop
         offset="0%"
         stop-color="#f5a623"
         stop-opacity="1"
         id="stop2" />
      <stop
         offset="100%"
         stop-color="#f8e71c"
         stop-opacity="1"
         id="stop4" />
    </linearGradient>
    <clipPath
       clipPathUnits="userSpaceOnUse"
       id="clipPath848">
      <rect
         style="opacity:0.522;fill:#ffff00;fill-opacity:1;stroke:#dbe80c;stroke-width:2;stroke-miterlimit:4;stroke-dasharray:none;stroke-opacity:1"
         id="rect850"
         width="481.69553"
         height="319.08493"
         x="-444.87802"
         y="-251.96297" />
    </clipPath>
    <clipPath
       clipPathUnits="userSpaceOnUse"
       id="clipPath848-3">
      <rect
         style="opacity:0.522;fill:#ffff00;fill-opacity:1;stroke:#dbe80c;stroke-width:2;stroke-miterlimit:4;stroke-dasharray:none;stroke-opacity:1"
         id="rect850-6"
         width="481.69553"
         height="319.08493"
         x="-444.87802"
         y="-251.96297" />
    </clipPath>
    <linearGradient
       inkscape:collect="always"
       xlink:href="#linearGradient920"
       id="linearGradient922"
       x1="18.1"
       y1="255.89797"
       x2="494.096"
       y2="255.89797"
       gradientUnits="userSpaceOnUse" />
  </defs>
  <g
     class=""
     transform="translate(0,0)"
     style="touch-action:none;fill:url(#linearGradient922);fill-opacity:1"
     id="g13">
    <g
       id="g11"
       style="fill:url(#linearGradient922);fill-opacity:1">
      <path
         d="M247.1 23.09C189.6 25.28 137.4 48.35 97.9 84.92L118.5 105.5L105.7 118.3L85.12 97.7C46.64 139.3 23.1 194.8 23.1 255.9C23.1 278.5 26.34 300.3 32.35 321C28.38 328.1 26.1 336.2 26.1 344.9C26.1 371.9 48.14 393.9 75.1 393.9C102.1 393.9 124.1 371.9 124.1 344.9C124.1 319.9 105.3 299.2 81.04 296.3C79.12 286.1 78.1 275.6 78.1 264.9C78.1 171.7 153.9 95.9 247.1 95.9C340.3 95.9 416.1 171.7 416.1 264.9C416.1 358.1 340.3 433.9 247.1 433.9C236.4 433.9 225.9 432.9 215.7 431C212.8 406.8 192.1 387.9 167.1 387.9C140.1 387.9 118.1 409.9 118.1 436.9C118.1 463.9 140.1 485.9 167.1 485.9C175.8 485.9 183.9 483.6 191 479.6C211.6 485.6 233.5 488.9 256.1 488.9C317.1 488.9 372.7 465.4 414.3 426.9L393.7 406.3L406.5 393.5L427.1 414.1C463.7 374.6 486.7 322.4 488.9 264.9L448.1 264.9L448.1 246.9L488.9 246.9C488 223.5 483.7 201 476.4 179.9L436.1 200L428.1 183.8L469.8 163C459.2 138.8 444.7 116.8 427.1 97.7L390.5 134.3L377.7 121.5L414.3 84.93C395.2 67.26 373.2 52.76 349.1 42.23L328.2 83.93L312 75.87L332.1 35.62C311 28.32 288.5 23.98 265.1 23.09L265.1 63.9L247.1 63.9Z"
         class="selected"
         fill="url(#gradient-2)"
         stroke="#4a4a4a"
         stroke-opacity="1"
         stroke-width="10"
         id="path9"
         style="fill:url(#linearGradient922);fill-opacity:1" />
    </g>
  </g>
  <path
     style="fill:#666666;fill-opacity:1"
     inkscape:connector-curvature="0"
     d="m -167.13559,-173.14915 c -28.2,0 -81.2,24.81 -115.3,52.59 -64.2,9.96 -140.7,34.809997 -140.7,59.409997 0,29 104.8,57.9000005 172.1,63.2000005 24.6,21.7999995 70.7,32.7999995 83.9,32.7999995 -12.5,-12.5 -25,-25.0999995 -22.2,-37.5999995 34,-8.2000005 69.4,-24.0000005 100.499997,-37.9000005 21,23.9 53.2,43.5000005 65.7,43.5000005 -16,-32.0000005 -16,-48.0000005 -16,-64.0000005 0,-16 16,-48.049997 31.9999998,-63.999997 -25.0999998,0 -59.9999998,19.65 -81.5999998,43.499997 -33.499997,-14.8 -71.899997,-32.149997 -108.399997,-39.649997 4.9,-16.81 17.4,-39.27 30,-51.85 z m -176,79.999997 a 16,16 0 0 1 16,16 16,16 0 0 1 -16,16 16,16 0 0 1 -16,-16 16,16 0 0 1 16,-16 z m 16,176 c 12.6,12.6 25.1,35.000003 30,51.800003 -36.5,7.5 -74.9,24.9 -108.4,39.7 -21.6,-23.9 -56.5,-43.5 -81.6,-43.5 16,15.9 32,48 32,64 0,16 0,32 -16,64 12.5,0 44.7,-19.6 65.7,-43.5 31.1,13.9 66.5,29.7 100.5,37.9 2.8,12.5 -9.7,25.1 -22.2,37.6 13.2,0 59.3,-11 83.9,-32.8 67.3,-5.3 172.099997,-34.2 172.099997,-63.2 0,-24.6 -76.499997,-49.4 -140.699997,-59.4 -34.1,-27.8 -87.1,-52.600003 -115.3,-52.600003 z m 176,80.000003 a 16,16 0 0 1 16,16 16,16 0 0 1 -16,16 16,16 0 0 1 -16,-16 16,16 0 0 1 16,-16 z"
     id="path833"
     clip-path="url(#clipPath848)"
     transform="matrix(0.27257219,-0.13169096,0.13169096,0.27257219,247.03069,64.07619)" />
  <path
     style="fill:#666666;fill-opacity:1"
     inkscape:connector-curvature="0"
     d="m -167.13559,-173.14915 c -28.2,0 -81.2,24.81 -115.3,52.59 -64.2,9.96 -140.7,34.809997 -140.7,59.409997 0,29 104.8,57.9000005 172.1,63.2000005 24.6,21.7999995 70.7,32.7999995 83.9,32.7999995 -12.5,-12.5 -25,-25.0999995 -22.2,-37.5999995 34,-8.2000005 69.4,-24.0000005 100.499997,-37.9000005 21,23.9 53.2,43.5000005 65.7,43.5000005 -16,-32.0000005 -16,-48.0000005 -16,-64.0000005 0,-16 16,-48.049997 31.9999998,-63.999997 -25.0999998,0 -59.9999998,19.65 -81.5999998,43.499997 -33.499997,-14.8 -71.899997,-32.149997 -108.399997,-39.649997 4.9,-16.81 17.4,-39.27 30,-51.85 z m -176,79.999997 a 16,16 0 0 1 16,16 16,16 0 0 1 -16,16 16,16 0 0 1 -16,-16 16,16 0 0 1 16,-16 z m 16,176 c 12.6,12.6 25.1,35.000003 30,51.800003 -36.5,7.5 -74.9,24.9 -108.4,39.7 -21.6,-23.9 -56.5,-43.5 -81.6,-43.5 16,15.9 32,48 32,64 0,16 0,32 -16,64 12.5,0 44.7,-19.6 65.7,-43.5 31.1,13.9 66.5,29.7 100.5,37.9 2.8,12.5 -9.7,25.1 -22.2,37.6 13.2,0 59.3,-11 83.9,-32.8 67.3,-5.3 172.099997,-34.2 172.099997,-63.2 0,-24.6 -76.499997,-49.4 -140.699997,-59.4 -34.1,-27.8 -87.1,-52.600003 -115.3,-52.600003 z m 176,80.000003 a 16,16 0 0 1 16,16 16,16 0 0 1 -16,16 16,16 0 0 1 -16,-16 16,16 0 0 1 16,-16 z"
     id="path833-7"
     clip-path="url(#clipPath848-3)"
     transform="matrix(-0.11931312,0.27821303,-0.27821303,-0.11931312,396.59068,382.77179)" />
</svg>
