<svg xmlns="http://www.w3.org/2000/svg" viewBox="0 0 512 512" style="height: 64px; width: 64px;"><defs><radialGradient id="gradient-2"><stop offset="0%" stop-color="#4a4a4a" stop-opacity="1"></stop><stop offset="100%" stop-color="#9b9b9b" stop-opacity="1"></stop></radialGradient><radialGradient id="gradient-4"><stop offset="0%" stop-color="#9b9b9b" stop-opacity="1"></stop><stop offset="100%" stop-color="#c9c9c9" stop-opacity="1"></stop></radialGradient></defs><g class="" transform="translate(0,0)" style="touch-action: none;"><g><path d="M312.813 24.313L88.5 282.938L154.063 378.656C244.435 310.586 336.16 200.719 408.906 82.812L312.812 24.312Z" class="selected" fill="url(#gradient-2)" stroke="#4a4a4a" stroke-opacity="1" stroke-width="10"></path><path d="M321.938 54.343C324.596 54.373 326.753 55.156 328.5 56.343C331.994 58.719 334.938 63.753 334.938 72.719C334.938 90.647 320.488 113.731 305.281 120.843C297.678 124.398 292.589 123.687 289.095 121.313C285.601 118.936 282.625 113.901 282.625 104.937C282.625 87.007 297.105 63.923 312.313 56.811C316.116 55.034 319.28 54.311 321.938 54.343Z" class="" fill="#4a4a4a" fill-opacity="1" stroke="#4a4a4a" stroke-opacity="1" stroke-width="10"></path><path d="M424.875 92.531C350.995 212.315 258.128 323.896 164.625 394.095L207.155 456.22C301.12 388.062 426.455 253.62 488.719 131.375L424.874 92.53Z" class="" fill="url(#gradient-4)" stroke="#4a4a4a" stroke-opacity="1" stroke-width="10"></path><path d="M73.5 294.126C55.668 311.246 37.816 326.838 19.937 340.97L19.937 461.56C47.717 427.926 77.341 386.07 107.687 344.03L73.5 294.124Z" class="" fill="#8b572a" fill-opacity="1" stroke="#4a4a4a" stroke-opacity="1" stroke-width="10"></path></g></g></svg>