<?xml version="1.0" encoding="UTF-8" standalone="no"?>
<svg
   xmlns:dc="http://purl.org/dc/elements/1.1/"
   xmlns:cc="http://creativecommons.org/ns#"
   xmlns:rdf="http://www.w3.org/1999/02/22-rdf-syntax-ns#"
   xmlns:svg="http://www.w3.org/2000/svg"
   xmlns="http://www.w3.org/2000/svg"
   xmlns:sodipodi="http://sodipodi.sourceforge.net/DTD/sodipodi-0.dtd"
   xmlns:inkscape="http://www.inkscape.org/namespaces/inkscape"
   viewBox="0 0 512 512"
   style="height: 64px; width: 64px;"
   version="1.1"
   id="svg42"
   sodipodi:docname="vetements-sombres.svg"
   inkscape:export-filename="/home/plic/Téléchargements/vetements-sombres.png"
   inkscape:export-xdpi="12"
   inkscape:export-ydpi="12"
   inkscape:version="0.92.3 (2405546, 2018-03-11)">
  <metadata
     id="metadata46">
    <rdf:RDF>
      <cc:Work
         rdf:about="">
        <dc:format>image/svg+xml</dc:format>
        <dc:type
           rdf:resource="http://purl.org/dc/dcmitype/StillImage" />
        <dc:title></dc:title>
      </cc:Work>
    </rdf:RDF>
  </metadata>
  <sodipodi:namedview
     pagecolor="#ffffff"
     bordercolor="#666666"
     borderopacity="1"
     objecttolerance="10"
     gridtolerance="10"
     guidetolerance="10"
     inkscape:pageopacity="0"
     inkscape:pageshadow="2"
     inkscape:window-width="1265"
     inkscape:window-height="597"
     id="namedview44"
     showgrid="false"
     inkscape:zoom="0.4609375"
     inkscape:cx="253.12861"
     inkscape:cy="256"
     inkscape:window-x="2538"
     inkscape:window-y="444"
     inkscape:window-maximized="0"
     inkscape:current-layer="svg42" />
  <defs
     id="defs32">
    <radialGradient
       id="gradient-1">
      <stop
         offset="0%"
         stop-color="#9b9b9b"
         stop-opacity="1"
         id="stop2" />
      <stop
         offset="100%"
         stop-color="#4a4a4a"
         stop-opacity="1"
         id="stop4" />
    </radialGradient>
    <radialGradient
       id="gradient-2"
       gradientTransform="scale(0.85483275,1.1698195)"
       cx="308.74379"
       cy="220.04746"
       fx="308.74379"
       fy="220.04746"
       r="206.23943"
       gradientUnits="userSpaceOnUse">
      <stop
         offset="0%"
         stop-color="#9b9b9b"
         stop-opacity="1"
         id="stop7" />
      <stop
         offset="100%"
         stop-color="#4a4a4a"
         stop-opacity="1"
         id="stop9" />
    </radialGradient>
    <radialGradient
       id="gradient-5">
      <stop
         offset="0%"
         stop-color="#1053a2"
         stop-opacity="1"
         id="stop12" />
      <stop
         offset="100%"
         stop-color="#3175c5"
         stop-opacity="1"
         id="stop14" />
    </radialGradient>
    <radialGradient
       id="gradient-6">
      <stop
         offset="0%"
         stop-color="#1053a2"
         stop-opacity="1"
         id="stop17" />
      <stop
         offset="100%"
         stop-color="#3978c2"
         stop-opacity="1"
         id="stop19" />
    </radialGradient>
    <radialGradient
       id="gradient-7">
      <stop
         offset="0%"
         stop-color="#1053a2"
         stop-opacity="1"
         id="stop22" />
      <stop
         offset="100%"
         stop-color="#427ec4"
         stop-opacity="1"
         id="stop24" />
    </radialGradient>
    <radialGradient
       id="gradient-8">
      <stop
         offset="0%"
         stop-color="#1053a2"
         stop-opacity="1"
         id="stop27" />
      <stop
         offset="100%"
         stop-color="#4b8cd8"
         stop-opacity="1"
         id="stop29" />
    </radialGradient>
    <radialGradient
       id="gradient-1-3"
       gradientTransform="scale(1.0148372,0.98537977)"
       cx="252.258"
       cy="259.79706"
       fx="252.258"
       fy="259.79706"
       r="236.49133"
       gradientUnits="userSpaceOnUse">
      <stop
         id="stop853"
         stop-opacity="1"
         stop-color="#9b9b9b"
         offset="0%" />
      <stop
         id="stop855"
         stop-opacity="1"
         stop-color="#4a4a4a"
         offset="100%" />
    </radialGradient>
    <radialGradient
       id="gradient-2-6">
      <stop
         id="stop858"
         stop-opacity="1"
         stop-color="#1053a2"
         offset="0%" />
      <stop
         id="stop860"
         stop-opacity="1"
         stop-color="#528dd3"
         offset="100%" />
    </radialGradient>
    <radialGradient
       id="gradient-3">
      <stop
         id="stop863"
         stop-opacity="1"
         stop-color="#1053a2"
         offset="0%" />
      <stop
         id="stop865"
         stop-opacity="1"
         stop-color="#4184d3"
         offset="100%" />
    </radialGradient>
    <radialGradient
       id="gradient-4">
      <stop
         id="stop868"
         stop-opacity="1"
         stop-color="#1053a2"
         offset="0%" />
      <stop
         id="stop870"
         stop-opacity="1"
         stop-color="#3a7ccc"
         offset="100%" />
    </radialGradient>
    <radialGradient
       id="gradient-5-7">
      <stop
         id="stop873"
         stop-opacity="1"
         stop-color="#1053a2"
         offset="0%" />
      <stop
         id="stop875"
         stop-opacity="1"
         stop-color="#3175c5"
         offset="100%" />
    </radialGradient>
    <radialGradient
       id="gradient-6-5">
      <stop
         id="stop878"
         stop-opacity="1"
         stop-color="#1053a2"
         offset="0%" />
      <stop
         id="stop880"
         stop-opacity="1"
         stop-color="#3978c2"
         offset="100%" />
    </radialGradient>
    <radialGradient
       id="gradient-7-3">
      <stop
         id="stop883"
         stop-opacity="1"
         stop-color="#1053a2"
         offset="0%" />
      <stop
         id="stop885"
         stop-opacity="1"
         stop-color="#427ec4"
         offset="100%" />
    </radialGradient>
    <radialGradient
       id="gradient-8-5">
      <stop
         id="stop888"
         stop-opacity="1"
         stop-color="#1053a2"
         offset="0%" />
      <stop
         id="stop890"
         stop-opacity="1"
         stop-color="#4b8cd8"
         offset="100%" />
    </radialGradient>
    <radialGradient
       id="gradient-1-6">
      <stop
         id="stop931"
         stop-opacity="1"
         stop-color="#9b9b9b"
         offset="0%" />
      <stop
         id="stop933"
         stop-opacity="1"
         stop-color="#4a4a4a"
         offset="100%" />
    </radialGradient>
    <radialGradient
       id="gradient-2-2"
       gradientTransform="scale(1.0911386,0.91647384)"
       cx="235.99418"
       cy="254.4872"
       fx="235.99418"
       fy="254.4872"
       r="225.58539"
       gradientUnits="userSpaceOnUse">
      <stop
         id="stop936"
         stop-opacity="1"
         stop-color="#9b9b9b"
         offset="0%" />
      <stop
         id="stop938"
         stop-opacity="1"
         stop-color="#4a4a4a"
         offset="100%" />
    </radialGradient>
    <radialGradient
       id="gradient-5-9">
      <stop
         id="stop941"
         stop-opacity="1"
         stop-color="#1053a2"
         offset="0%" />
      <stop
         id="stop943"
         stop-opacity="1"
         stop-color="#3175c5"
         offset="100%" />
    </radialGradient>
    <radialGradient
       id="gradient-6-1">
      <stop
         id="stop946"
         stop-opacity="1"
         stop-color="#1053a2"
         offset="0%" />
      <stop
         id="stop948"
         stop-opacity="1"
         stop-color="#3978c2"
         offset="100%" />
    </radialGradient>
    <radialGradient
       id="gradient-7-2">
      <stop
         id="stop951"
         stop-opacity="1"
         stop-color="#1053a2"
         offset="0%" />
      <stop
         id="stop953"
         stop-opacity="1"
         stop-color="#427ec4"
         offset="100%" />
    </radialGradient>
    <radialGradient
       id="gradient-8-7">
      <stop
         id="stop956"
         stop-opacity="1"
         stop-color="#1053a2"
         offset="0%" />
      <stop
         id="stop958"
         stop-opacity="1"
         stop-color="#4b8cd8"
         offset="100%" />
    </radialGradient>
    <radialGradient
       id="gradient-1-0"
       gradientTransform="scale(0.88427264,1.1308729)"
       cx="289.50334"
       cy="226.37387"
       fx="289.50334"
       fy="226.37387"
       r="209.39569"
       gradientUnits="userSpaceOnUse">
      <stop
         id="stop1002"
         stop-opacity="1"
         stop-color="#9b9b9b"
         offset="0%" />
      <stop
         id="stop1004"
         stop-opacity="1"
         stop-color="#4a4a4a"
         offset="100%" />
    </radialGradient>
    <radialGradient
       id="gradient-2-9">
      <stop
         id="stop1007"
         stop-opacity="1"
         stop-color="#9b9b9b"
         offset="0%" />
      <stop
         id="stop1009"
         stop-opacity="1"
         stop-color="#4a4a4a"
         offset="100%" />
    </radialGradient>
    <radialGradient
       id="gradient-5-3">
      <stop
         id="stop1012"
         stop-opacity="1"
         stop-color="#1053a2"
         offset="0%" />
      <stop
         id="stop1014"
         stop-opacity="1"
         stop-color="#3175c5"
         offset="100%" />
    </radialGradient>
    <radialGradient
       id="gradient-6-6">
      <stop
         id="stop1017"
         stop-opacity="1"
         stop-color="#1053a2"
         offset="0%" />
      <stop
         id="stop1019"
         stop-opacity="1"
         stop-color="#3978c2"
         offset="100%" />
    </radialGradient>
    <radialGradient
       id="gradient-7-0">
      <stop
         id="stop1022"
         stop-opacity="1"
         stop-color="#1053a2"
         offset="0%" />
      <stop
         id="stop1024"
         stop-opacity="1"
         stop-color="#427ec4"
         offset="100%" />
    </radialGradient>
    <radialGradient
       id="gradient-8-6">
      <stop
         id="stop1027"
         stop-opacity="1"
         stop-color="#1053a2"
         offset="0%" />
      <stop
         id="stop1029"
         stop-opacity="1"
         stop-color="#4b8cd8"
         offset="100%" />
    </radialGradient>
  </defs>
  <g
     class=""
     transform="matrix(0.56837295,0,0,0.56837295,7.448043,193.5483)"
     id="g40">
    <g
       id="g38">
      <path
         d="m 258.375,21.156 c -44.557,0.187 -87.24,7.376 -118.563,21 l -1.78,16.094 h 25.655 V 76.938 H 136 l -2.125,19.406 h 29.813 v 18.687 H 131.813 L 93.093,467.907 216.437,492.72 250.594,229.875 H 236.688 V 132.126 H 220.94 V 115.03 H 182.378 V 96.345 h 38.563 V 76.938 H 182.378 V 58.25 h 38.563 V 41.53 h 90.938 v 16.72 h 33.03 v 18.688 h -33.03 v 19.406 h 33.03 v 18.687 h -33.03 v 17.095 H 255.38 v 79.063 h 27.406 v 18.687 h -11.56 l 34.25,263.75 h 0.217 l 129.063,-26.28 -38.72,-352.314 H 363.6 V 96.345 H 394 l -2.156,-19.406 h -28.25 V 58.25 h 26.22 l -1.783,-16.094 c -38.697,-14.308 -85.098,-21.17 -129.655,-21 z"
         class="selected"
         id="path34"
         style="fill:url(#gradient-2);stroke:#4a4a4a;stroke-width:10;stroke-opacity:1"
         inkscape:connector-curvature="0" />
      <path
         d="m 239.625,60.219 v 17.468 h 34.938 v 18.687 h -34.938 v 17.063 h 53.563 v -53.22 h -53.563 z"
         class=""
         id="path36"
         inkscape:connector-curvature="0"
         style="fill:#000000;fill-opacity:1" />
    </g>
  </g>
  <g
     id="g897"
     class=""
     transform="matrix(0.5254241,0,0,0.5254241,196.33848,19.474118)">
    <path
       style="fill:url(#gradient-1-3)"
       id="path895"
       d="m 255.973,22.965 c -43.313,0 -95.117,14.71 -126.66,30.12 -33.538,13.63 -60.84,30.408 -80.33,60.542 -26.22,40.536 -38.948,103.153 -30.278,202.797 24.886,8.635 47.288,6.054 70.272,-1.73 -7.203,-32.898 -6.04,-65.776 2.072,-92.645 8.872,-29.395 26.72,-53.085 52.886,-57.17 l 11.56,-1.804 0.305,11.697 c 0.226,8.523 0.38,17.397 0.485,26.434 l 0.113,26.338 c -0.155,36.707 -1.593,76.298 -5.328,116.182 23.522,7.64 61.78,12.326 99.99,12.597 l 19.18,-0.244 c 35.59,-1.145 69.858,-6.043 90.4,-12.78 -4.562,-61.128 -4.866,-122.812 -6.34,-172.464 l -0.407,-13.7 13.267,3.44 c 26.03,6.746 44.022,30.776 53.246,60.528 8.425,27.166 9.814,59.957 2.668,92.833 17.938,5.68 35.678,7.15 53.602,4.926 l 18.355,-2.453 c 4.31,-78.49 -5.98,-156.066 -26.157,-193.04 L 450.48,96.767 C 431.09,74.413 406.162,61.723 376.77,50.56 348.624,36.133 300.17,22.965 255.973,22.965 Z m 0,12.724 c 27.095,0 55.783,8.103 80.42,18.845 -13.03,11.505 -29.087,19.462 -46.176,24.008 l -32.764,72.228 -28.53,-70.442 c -19.852,-3.88 -38.642,-12.34 -53.34,-25.76 25.763,-11.032 54.585,-18.88 80.39,-18.88 z m 2.416,119.08 14.655,22.226 -14.59,21.084 -14.725,-21.084 z m 0,49.603 14.655,22.23 -14.59,21.083 -14.725,-21.084 14.66,-22.23 z m 0,48.957 14.655,22.227 -14.59,21.086 -14.725,-21.086 z m 0,49.553 14.655,22.228 -14.59,21.085 -14.725,-21.084 14.66,-22.227 z m 104.645,57.226 c -27.583,8.572 -66.045,12.127 -105.467,12.314 -39.638,0.188 -79.132,-3.107 -108.078,-12.07 -0.854,7.45 -1.793,14.893 -2.828,22.312 24.902,8.897 68.203,14.22 110.56,14.016 42.322,-0.205 84.93,-6.02 108.116,-14.32 -0.848,-7.374 -1.613,-14.796 -2.303,-22.253 z m 5.71,37.913 c -28.3,9.63 -68.984,13.61 -110.698,13.81 -12.246,0.06 -24.475,-0.22 -36.402,-0.89 l -17.637,-1.314 C 181.649,407.537 161,403.859 144.22,398.12 c -3.742,22.658 -8.426,44.944 -14.243,66.354 8.833,4.422 18.403,8.212 28.52,11.404 l 16.564,4.575 c 66.132,15.875 149.713,8.995 206.963,-14.658 -5.656,-21.24 -9.96,-44.108 -13.28,-67.774 z"
       inkscape:connector-curvature="0" />
  </g>
  <g
     id="g971"
     class=""
     transform="matrix(0.29929665,0,0,0.29929665,28.578744,27.80978)">
    <g
       id="g969">
      <path
         style="fill:url(#gradient-2-2);stroke:#4a4a4a;stroke-width:10;stroke-opacity:1"
         id="path963"
         class=""
         d="M 257.375,32.03 C 139.957,87.197 42.343,247.886 17.5,367.75 c 71.742,0 124.22,22.845 162.094,63.03 l 10.47,-11.436 C 162.004,390.471 125.129,366.898 76.5,343.438 102.642,278.405 142.528,179.98 193.22,174.25 c 19.835,-2.243 41.05,9.735 64.155,43.438 72.33,-120.27 141.014,38.54 180.875,125.75 -47.687,25.854 -84.5,49.463 -112.97,78.718 l 9.25,10.406 C 371.865,392.804 424.187,367.75 497.25,367.75 467.784,249.384 377.24,90.37 257.375,32.03 Z"
         inkscape:connector-curvature="0" />
      <path
         id="path965"
         class=""
         d="m 177.655,275.344 c -15.3,-0.083 -26.405,6.436 -26.405,16.656 0,12.58 16.834,26.038 37.594,30.063 20.76,4.024 37.594,-2.92 37.594,-15.5 0,-12.58 -16.835,-26.038 -37.594,-30.063 -3.893,-0.755 -7.657,-1.137 -11.188,-1.156 z"
         inkscape:connector-curvature="0"
         style="fill:#1053a2;fill-opacity:0" />
      <path
         id="path967"
         class="selected"
         d="m 334,275.344 c -3.53,0.02 -7.295,0.4 -11.188,1.156 -20.76,4.025 -37.593,17.483 -37.593,30.063 0,12.58 16.833,19.524 37.592,15.5 20.76,-4.025 37.594,-17.484 37.594,-30.063 0,-10.22 -11.105,-16.74 -26.406,-16.656 z"
         inkscape:connector-curvature="0"
         style="fill:#1053a2;fill-opacity:0" />
    </g>
  </g>
  <g
     id="g1036"
     class=""
     transform="matrix(0.2395783,0,0,0.2395783,316.79703,314.68041)">
    <path
       style="fill:url(#gradient-1-0)"
       id="path1034"
       d="m 167.097,19.202 c -23.86,-0.12 -47.931,5.62 -72.762,21.235 65.817,-15.283 120.294,-3.244 177.727,4.298 C 236.389,32.069 201.969,19.377 167.097,19.202 Z m -80.994,25.63 a 5.187,5.187 0 0 0 -5.188,5.188 c 0,0 23.388,191.765 6.657,289.317 -3.346,14.517 -6.428,28.433 -9.676,42.796 -0.185,0.818 -2.981,6.233 -5.063,13.367 110.536,4.38 300.487,68.665 300.93,71.388 0.443,2.723 -193.965,-48.957 -302.926,-53.13 0.296,2.38 0.863,4.722 1.807,6.952 0.029,-0.004 0.055,-0.004 0.082,-0.006 11.513,13.803 30.986,17.375 44.736,16.807 66.666,-3.42 261.228,55.289 261.228,55.289 63.719,-18.675 11.06,-69.342 -1.27,-77.093 -12.763,-8.022 -31.117,-12.317 -46.683,-18.47 0,0 91.009,-6.531 90.619,67.734 -0.013,2.873 45.768,-50.04 -1.83,-75.888 C 378.55,372.475 337.817,358.607 300.039,351.156 202.485,302.369 279.478,45.544 279.478,45.544 c 0,-2.866 -9.53,28.375 -51.26,29.505 -20.306,0.55 -38.106,-0.284 -53.619,-1.974 l -0.636,11.774 -27.21,19.376 -19.222,-13.691 V 63.944 C 98.363,55.296 86.103,44.832 86.103,44.832 Z m 87.164,52.875 -1.322,24.458 -16.513,-11.76 z m -45.736,5.192 10.543,7.506 -10.543,7.509 z m 19.223,13.688 21.246,15.129 -21.246,14.164 -19.223,-12.816 v -2.788 z m 24.123,25.312 -1.05,19.364 -13.997,-9.334 z m -43.346,3.267 10.148,6.763 -10.148,6.765 z m 19.223,12.816 22.443,14.962 -0.249,4.58 -22.194,21.853 -19.223,-18.927 v -9.654 z m 21.387,34.467 -1.438,26.57 -12.774,-12.577 z m -40.61,2.132 12.047,11.861 -12.047,11.86 z m 19.223,18.926 19.223,18.927 -0.332,6.143 -18.89,15.17 -19.224,-15.435 v -5.878 z m -19.223,37.719 11.182,8.978 -11.182,8.98 z m 37.382,0.853 -0.84,15.576 -9.28,-7.451 z m -18.159,14.583 16.648,13.367 -0.756,13.973 -15.892,14.574 -19.223,-17.628 V 282.1 Z m -19.223,37.947 11.774,10.798 -11.774,10.8 z m 34.338,3.768 -0.726,13.397 -6.942,-6.367 z m -15.115,13.86 13.685,12.552 -0.87,16.073 a 5.19,5.19 0 0 1 -5.19,5.19 H 132.72 a 5.19,5.19 0 0 1 -5.19,-5.19 v -10.995 z"
       inkscape:connector-curvature="0" />
  </g>
</svg>
